<?xml version="1.0" encoding="UTF-8" standalone="no"?>
<!-- Created with Inkscape (http://www.inkscape.org/) -->

<svg
   xmlns:dc="http://purl.org/dc/elements/1.1/"
   xmlns:cc="http://creativecommons.org/ns#"
   xmlns:rdf="http://www.w3.org/1999/02/22-rdf-syntax-ns#"
   xmlns:svg="http://www.w3.org/2000/svg"
   xmlns="http://www.w3.org/2000/svg"
   xmlns:sodipodi="http://sodipodi.sourceforge.net/DTD/sodipodi-0.dtd"
   xmlns:inkscape="http://www.inkscape.org/namespaces/inkscape"
   width="512"
   height="512"
   id="svg2"
   version="1.1"
   inkscape:version="0.48.4 r9939"
   sodipodi:docname="10.svg">
  <defs
     id="defs4" />
  <sodipodi:namedview
     id="base"
     pagecolor="#ffffff"
     bordercolor="#666666"
     borderopacity="1.0"
     inkscape:pageopacity="0.0"
     inkscape:pageshadow="2"
     inkscape:zoom="1.1074219"
     inkscape:cx="146.28572"
     inkscape:cy="256"
     inkscape:document-units="px"
     inkscape:current-layer="layer1"
     showgrid="false"
     inkscape:window-width="1276"
     inkscape:window-height="782"
     inkscape:window-x="0"
     inkscape:window-y="14"
     inkscape:window-maximized="0" />
  <metadata
     id="metadata7">
    <rdf:RDF>
      <cc:Work
         rdf:about="">
        <dc:format>image/svg+xml</dc:format>
        <dc:type
           rdf:resource="http://purl.org/dc/dcmitype/StillImage" />
        <dc:title />
      </cc:Work>
    </rdf:RDF>
  </metadata>
  <g
     inkscape:label="Layer 1"
     inkscape:groupmode="layer"
     id="layer1"
     transform="translate(0,-540.36218)">
    <path
       style="fill:#000000"
       d=""
       id="path3133"
       inkscape:connector-curvature="0" />
    <path
       style="fill:#000000"
       d="m 294.01064,1035.9609 c -7.03681,-7.0368 -5.41328,-30.2914 2.67988,-38.3845 16.74205,-16.74207 27.31737,-4.88864 22.10823,24.7803 -2.35532,13.415 -4.18561,16.0938 -11.59244,16.9673 -4.83752,0.5703 -10.7756,-0.943 -13.19567,-3.3631 z m -147.51866,-5.007 c -3.05962,-3.0596 -5.58647,-11.423 -5.61525,-18.5853 -0.0283,-7.1622 -2.31063,-22.59635 -5.07084,-34.2981 -2.76018,-11.70171 -4.96879,-33.94878 -4.90804,-49.43787 0.10338,-26.33874 -0.50149,-28.64993 -9.34187,-35.69901 -10.05833,-8.02022 -17.87961,-32.62552 -14.12799,-44.44579 4.45828,-14.04681 21.82913,-5.05121 29.57198,15.31408 2.17989,5.73348 9.5751,12.60981 18.40705,17.11554 l 14.76325,7.53167 -2.3781,26.24335 -2.37813,26.24341 12.13825,0 12.13828,0 1.39046,-24.60784 c 1.0124,-17.917 3.28671,-26.82044 8.36456,-32.74531 18.34922,-21.41017 19.5571,-31.09653 6.97407,-55.92792 -13.64732,-26.93169 -10.41463,-49.56046 7.08008,-49.56046 9.60035,0 15.93015,8.98194 15.93015,22.60477 0,4.90054 2.06254,17.35115 4.58342,27.66798 2.52088,10.31682 4.51216,32.16834 4.42503,48.55891 -0.15609,29.37453 -0.31044,29.88554 -10.77847,35.70457 -10.478,5.82455 -10.6034,6.24245 -9.37111,31.23598 1.03358,20.96372 0.24781,25.71662 -4.55691,27.56036 -3.22082,1.23593 -8.63339,-0.331 -12.15637,-3.51919 -8.9626,-8.11111 -11.5109,-3.55662 -8.92342,15.94863 3.22349,24.29994 0.004,33.64184 -12.45199,36.13314 -6.17723,1.2355 -11.31002,5.0023 -12.67461,9.3017 -2.7289,8.5982 -13.2652,9.431 -21.03348,1.6627 z m 210.36392,-13.9256 c -3.01726,-3.6356 -3.69304,-11.2269 -2.12719,-23.89524 1.26223,-10.21179 2.22956,-35.29355 2.14963,-55.73723 -0.15782,-40.39219 2.80787,-50.28596 13.16708,-43.92387 10.42062,6.39981 16.79978,23.31515 16.56466,43.92387 -0.31824,27.89398 -3.77541,68.57547 -6.57809,77.40597 -2.83592,8.9351 -16.51758,10.2496 -23.17609,2.2265 z m 64.21711,-2.0113 c -6.44835,-2.5821 -7.88103,-5.1706 -6.24336,-11.2808 1.16889,-4.36141 2.14709,-11.45808 2.17367,-15.77036 0.0662,-10.73516 11.7915,-16.73909 21.20699,-10.85901 5.52166,3.44834 7.16159,8.24386 7.16159,20.94238 0,20.24859 -5.86928,24.34709 -24.29889,16.96779 z m -183.17358,-12.4954 c -10.66631,-25.52791 -0.84524,-40.68169 18.25476,-28.16691 6.0615,3.97163 8.67604,8.93068 8.67604,16.45596 0,25.92685 -17.76354,33.65135 -26.9308,11.71095 z m 246.53737,-4.71248 c -5.3325,-9.96393 -4.48448,-30.54564 1.46193,-35.48073 4.01351,-3.33093 7.2799,-3.20284 15.04514,0.58998 8.70778,4.25322 9.79576,6.55641 8.91217,18.86632 -0.55355,7.71194 -1.69833,16.01295 -2.54393,18.44671 -2.42623,6.9831 -18.76778,5.2527 -22.87531,-2.42228 z M 75.274958,986.77566 C 68.711532,979.52315 67.459856,972.99879 60.8424,911.5457 58.680929,891.47306 58.414144,891.05315 49.119372,893.09465 c -6.881131,1.51136 -11.294869,0.11817 -15.961447,-5.03842 -7.108709,-7.85503 -6.402363,-22.34255 2.675479,-54.87594 4.130658,-14.80343 4.137459,-19.94799 0.04465,-33.54802 -4.465757,-14.83859 -4.289045,-16.80086 2.31797,-25.73733 3.93375,-5.32073 7.15231,-11.41065 7.15231,-13.53322 0,-2.12252 2.563701,-8.81685 5.697117,-14.87619 5.19774,-10.05126 5.212561,-12.75114 0.169154,-30.79947 -3.040389,-10.88036 -6.319417,-28.09405 -7.286742,-38.25265 -1.593009,-16.73001 -0.888895,-19.15429 7.47362,-25.7323 8.536118,-6.71451 9.476841,-10.26037 12.474721,-47.02044 3.474256,-42.60107 8.767931,-53.60502 23.885915,-49.65155 6.552591,1.71357 6.894491,3.95465 4.945317,32.41725 -1.151649,16.81708 -2.671738,42.48045 -3.377925,57.02976 -1.043971,21.50808 -2.625977,27.46552 -8.462601,31.8681 -6.670834,5.03182 -6.969263,7.54253 -4.21922,35.49728 2.171556,22.0744 1.801872,31.96724 -1.388754,37.16256 -2.391435,3.89404 -6.368067,15.24754 -8.836919,25.23001 -4.162255,16.82937 -3.922468,19.06645 3.29584,30.74591 7.492868,12.12373 7.576087,13.23484 2.220461,29.64049 -3.060362,9.37451 -5.914276,21.82359 -6.34202,27.66464 -0.670972,9.16218 0.316123,10.46798 7.190164,9.51211 10.855441,-1.50957 15.150069,10.72701 17.783007,50.66845 3.744371,56.80204 3.177675,70.54542 -2.958438,71.74875 -3.04029,0.59626 -8.591411,-2.30122 -12.335843,-6.43877 z M 24.199367,975.45119 c -8.988216,-9.49805 -10.717802,-13.97534 -9.914497,-25.66525 0.934507,-13.59959 1.457083,-14.16013 13.201784,-14.16013 11.95447,0 12.340401,0.45755 17.208487,20.40351 3.961263,16.23025 4.086608,21.47972 0.612924,25.66524 -6.213975,7.48738 -8.853837,6.70655 -21.108698,-6.24337 z M 292.42017,960.21687 c -3.32544,-7.29849 -2.74858,-14.41583 2.99523,-36.95769 l 7.11376,-27.91844 -10.53063,2.1061 c -19.15754,3.83152 -25.26831,-15.34672 -14.75587,-46.3104 6.19623,-18.2506 4.66258,-24.55709 -7.29712,-30.0063 -4.76048,-2.16901 -8.65536,-6.82649 -8.65536,-10.34995 0,-3.52347 -7.16856,-12.39852 -15.93014,-19.72227 -14.75614,-12.33458 -15.93015,-14.54941 -15.93015,-30.05226 0,-9.42955 2.40971,-20.17663 5.5195,-24.61647 8.43909,-12.04852 17.13118,-4.9385 22.78756,18.6399 4.65747,19.41457 4.9715,19.77624 15.21676,17.52602 11.46669,-2.51848 16.5099,1.9838 16.60254,14.82187 0.0431,5.98667 2.87016,7.96293 13.91746,9.72947 7.62477,1.21925 14.51417,4.16958 15.30977,6.55635 1.72841,5.18534 -7.41175,38.49946 -11.87586,43.28519 -1.72538,1.84968 -3.13704,12.4967 -3.13704,23.6601 0,19.51063 0.37719,20.34042 9.73509,21.41719 8.99433,1.0349 9.81991,2.4662 10.84981,18.81086 1.57341,24.96962 -2.02078,40.1777 -11.80852,49.96545 -10.77496,10.77493 -15.00701,10.65199 -20.12679,-0.58472 z m 135.25248,1.14464 c -4.04524,-4.34207 -7.98988,-11.11239 -8.76587,-15.04514 -0.776,-3.93281 -2.37595,-11.68366 -3.55546,-17.22421 -2.23759,-10.5105 2.79257,-20.01659 10.59168,-20.01659 16.77103,0 31.21863,36.15927 20.86287,52.21549 -6.4378,9.98158 -9.88777,9.99425 -19.13322,0.0704 z m 50.64898,-10.4949 c -13.36572,-6.45873 -23.74178,-42.66646 -15.80922,-55.16683 3.15177,-4.96668 45.18623,-13.97833 48.71964,-10.44487 5.01407,5.01405 -15.92197,70.15697 -22.36894,69.60151 -1.52947,-0.13172 -6.2731,-1.92721 -10.54148,-3.98981 z M 345.36597,873.39169 c -7.27987,-4.24011 -7.76393,-14.70474 -1.97639,-42.72517 3.72272,-18.02367 3.50986,-21.20787 -1.81088,-27.08722 -8.489,-9.3802 -9.45062,-32.21481 -1.57198,-37.32809 10.10225,-6.55645 21.72224,7.83118 21.00976,26.01392 -0.314,8.01237 1.93512,19.41382 4.99789,25.33663 l 5.56872,10.7687 8.22773,-7.72947 c 10.37733,-9.74905 25.33883,-8.67716 23.80501,1.70546 -0.57515,3.89313 -2.1837,15.83995 -3.57462,26.54854 l -2.52888,19.4702 -15.09348,-0.95857 c -10.88768,-0.69144 -15.6691,0.54154 -17.15931,4.42503 -2.36365,6.15959 -10.85356,6.82534 -19.89357,1.56004 z m 78.38609,-26.72411 c -5.88657,-7.0929 -5.66171,-31.20355 0.35864,-38.45768 5.50987,-6.63893 19.06684,-6.93477 24.38064,-0.53207 2.29148,2.76109 3.04018,9.53407 1.76095,15.93016 -3.76707,18.83555 4.2914,12.49722 12.40599,-9.75779 12.10146,-33.18943 28.73405,-32.50615 28.73405,1.18042 0,27.22261 -13.7772,40.00213 -32.38752,30.04222 -5.52036,-2.95446 -8.54475,-2.55259 -13.32113,1.77001 -7.92795,7.17468 -15.88447,7.11113 -21.93162,-0.17523 z M 166.11777,814.97997 c -9.42572,-11.98286 -9.59972,-27.69438 -0.40848,-36.88562 15.17121,-15.1712 23.61714,-6.16727 23.2446,24.78023 -0.20568,17.09443 -1.15645,19.60169 -7.79099,20.54787 -4.84021,0.69032 -10.24845,-2.34454 -15.04513,-8.44248 z m -52.48502,-5.91033 c -16.813889,-18.37018 -13.04052,-35.2315 9.38818,-41.95132 20.00979,-5.99506 26.37937,-2.50831 23.85336,13.05753 -1.12243,6.91688 -0.64611,16.24447 1.05852,20.728 4.00708,10.53949 -1.51974,16.13085 -15.94478,16.13085 -6.95472,0 -13.77309,-2.95874 -18.35528,-7.96506 z m 318.82628,-23.87156 c -4.18156,-1.68713 -8.71401,-4.86548 -10.0721,-7.06291 -1.49408,-2.41742 -6.58779,-3.09076 -12.89737,-1.70496 -14.92657,3.27839 -20.77334,-3.12962 -20.67945,-22.66453 0.14408,-29.96766 24.24213,-45.6621 28.24153,-18.39295 1.55538,10.60505 3.67943,12.70333 17.51602,17.30361 l 15.74602,5.23508 17.88428,-20.04697 c 9.83637,-11.02581 20.84252,-20.02529 24.45813,-19.99881 8.13562,0.0593 6.92005,3.68198 -12.92693,38.52225 -17.37331,30.49789 -27.61559,36.74038 -47.27013,28.81019 z m -257.89967,-24.8039 c -3.57836,-3.95407 -10.90317,-7.08008 -16.5899,-7.08008 -12.41266,0 -16.13744,-7.74601 -10.6788,-22.20756 3.14188,-8.32375 2.89113,-12.64851 -1.19096,-20.5424 -2.84385,-5.4994 -5.19503,-18.44137 -5.22484,-28.7599 -0.0608,-21.14054 -2.42603,-26.43491 -14.49608,-32.4525 -7.17066,-3.57495 -9.0491,-8.40807 -12.60245,-32.42515 -5.81036,-39.27255 -5.60914,-45.79642 1.69055,-54.81118 6.01084,-7.42307 6.76077,-7.53864 12.39011,-1.90931 4.21049,4.21048 6.00357,11.96872 6.03098,26.09432 0.0687,35.38943 3.1525,45.74756 15.85103,53.23989 9.9683,5.88146 11.75461,9.21555 13.79568,25.74971 1.28955,10.4464 3.30282,26.5311 4.47382,35.74379 2.33922,18.40304 8.6402,26.94996 14.43379,19.57864 1.93171,-2.45776 6.37201,-12.11403 9.86734,-21.45828 5.11771,-13.68164 7.79932,-16.78334 13.7726,-15.93016 13.30958,1.90104 11.09868,29.93395 -5.45802,69.2051 -7.11918,16.88603 -15.63608,19.48869 -26.06485,7.96507 z M 4.426304,741.09806 c -7.4469517,-11.36552 -5.3019112,-21.12322 4.964617,-22.58375 8.587311,-1.22159 21.797115,8.0687 21.797115,15.32962 0,5.1881 -11.471769,15.93016 -17.012301,15.93016 -2.235573,0 -6.622831,-3.90419 -9.749431,-8.67603 z M 264.3134,724.32397 c -6.39645,-11.5348 -6.14602,-53.22779 0.3669,-61.08919 4.88299,-5.89394 5.50097,-5.80758 11.5051,1.60722 4.55058,5.6197 6.24518,13.48145 5.99212,27.7987 -0.61275,34.66511 -8.47651,48.61208 -17.86412,31.68327 z m 60.60109,-6.51327 c -5.50935,-5.89776 -12.746,-17.86906 -16.08149,-26.60288 -5.62596,-14.73139 -5.64429,-16.34403 -0.25346,-22.30087 3.19608,-3.53164 5.81107,-10.32424 5.81107,-15.09464 0,-13.77783 19.98699,-57.86496 26.87483,-59.28023 5.48748,-1.12755 5.86088,1.4144 3.79605,25.84144 -2.55473,30.22237 -6.09077,39.36258 -16.507,42.66855 -9.77909,3.10375 -8.93592,7.33205 4.62006,23.16915 15.41175,18.00518 21.58064,29.96508 18.96789,36.77381 -3.41263,8.89316 -16.39095,6.42679 -27.22803,-5.17433 z m 109.59396,-11.80574 c -7.90149,-9.08754 -26.83752,-10.4929 -40.78747,-3.02712 -5.29866,2.83579 -9.49292,2.72337 -15.8339,-0.42432 -7.21713,-3.58263 -8.79959,-7.27276 -9.68942,-22.59483 -1.43577,-24.72155 10.98118,-54.94324 21.93166,-53.37973 5.3438,0.76298 7.79078,4.06862 8.64913,11.68408 1.19132,10.56991 16.5316,29.80454 23.91959,29.99195 2.13201,0.0541 6.82315,-3.15782 10.42479,-7.13757 3.60159,-3.97973 9.82231,-6.7675 13.82379,-6.19506 6.40667,0.91655 7.40122,3.93199 8.32937,25.25471 1.4334,32.92913 -6.26665,42.50539 -20.76754,25.82789 z M 288.4266,644.22077 c -3.35541,-3.70765 -6.87087,-14.98432 -7.87926,-25.27459 -3.05263,-31.1495 10.89589,-37.14004 21.54586,-9.2535 10.75955,28.1735 1.5772,51.37232 -13.6666,34.52809 z m -89.5273,-8.3237 c -11.23204,-5.42033 -23.90595,-34.8227 -20.90326,-48.4938 3.18797,-14.51486 13.91233,-14.84113 21.25267,-0.64651 2.9705,5.74437 5.40094,12.7179 5.40094,15.49671 0,2.77879 2.47089,7.103 5.49085,9.60934 5.96411,4.94978 5.82713,25.22462 -0.1809,26.75923 -1.94702,0.4973 -6.9242,-0.72894 -11.06041,-2.72497 z"
       id="path3945"
       inkscape:connector-curvature="0" />
  </g>
</svg>
