<?xml version="1.0" encoding="UTF-8" standalone="no"?>
<!-- Created with Inkscape (http://www.inkscape.org/) -->

<svg
   xmlns:dc="http://purl.org/dc/elements/1.1/"
   xmlns:cc="http://creativecommons.org/ns#"
   xmlns:rdf="http://www.w3.org/1999/02/22-rdf-syntax-ns#"
   xmlns:svg="http://www.w3.org/2000/svg"
   xmlns="http://www.w3.org/2000/svg"
   xmlns:sodipodi="http://sodipodi.sourceforge.net/DTD/sodipodi-0.dtd"
   xmlns:inkscape="http://www.inkscape.org/namespaces/inkscape"
   width="512"
   height="512"
   id="svg2"
   version="1.1"
   inkscape:version="0.48.4 r9939"
   sodipodi:docname="15.svg">
  <defs
     id="defs4" />
  <sodipodi:namedview
     id="base"
     pagecolor="#ffffff"
     bordercolor="#666666"
     borderopacity="1.0"
     inkscape:pageopacity="0.0"
     inkscape:pageshadow="2"
     inkscape:zoom="1.1074219"
     inkscape:cx="146.28572"
     inkscape:cy="256"
     inkscape:document-units="px"
     inkscape:current-layer="layer1"
     showgrid="false"
     inkscape:window-width="1276"
     inkscape:window-height="782"
     inkscape:window-x="0"
     inkscape:window-y="14"
     inkscape:window-maximized="0" />
  <metadata
     id="metadata7">
    <rdf:RDF>
      <cc:Work
         rdf:about="">
        <dc:format>image/svg+xml</dc:format>
        <dc:type
           rdf:resource="http://purl.org/dc/dcmitype/StillImage" />
        <dc:title />
      </cc:Work>
    </rdf:RDF>
  </metadata>
  <g
     inkscape:label="Layer 1"
     inkscape:groupmode="layer"
     id="layer1"
     transform="translate(0,-540.36218)">
    <path
       style="fill:#000000"
       d=""
       id="path3133"
       inkscape:connector-curvature="0" />
    <path
       style="fill:#000000"
       d="m 99.68317,990.80033 c -1.10933,-0.41671 -13.8161,-1.81229 -28.237279,-3.10132 -48.078063,-4.29736 -60.641413,-11.4357 -67.6203581,-38.42088 -5.2625,-20.34837 -5.113124,-30.83673 0.556819,-39.09489 6.1634121,-8.97684 17.7009631,-18.78173 26.3562551,-22.39815 11.780909,-4.92238 11.548863,-6.64001 -2.152873,-15.93521 -4.714616,-3.1984 -8.57203,-7.02737 -8.57203,-8.50887 0,-1.48147 -2.269066,-7.82436 -5.042371,-14.0953 -2.773304,-6.27093 -5.0423721,-14.49563 -5.0423721,-18.27707 0,-6.92468 8.9201561,-27.28605 12.5543141,-28.65674 1.075377,-0.4056 5.074566,-3.4763 8.887104,-6.82375 3.812536,-3.34744 9.783201,-6.66941 13.268154,-7.38216 9.123011,-1.86586 9.088278,-5.41697 -0.09878,-10.1039 -13.878684,-7.08038 -16.480711,-12.22796 -16.060417,-31.77239 0.257561,-11.97742 1.386351,-18.66552 3.827877,-22.68032 4.137473,-6.80349 25.340539,-22.96185 41.426908,-31.57045 14.63068,-7.82959 16.63398,-10.82808 13.01171,-19.47568 -1.52202,-3.63351 -3.18653,-10.51372 -3.69891,-15.28933 -0.80088,-7.46424 0.10754,-10.24792 6.47158,-19.83298 6.05004,-9.11201 9.69136,-12.22076 19.921869,-17.00821 6.88527,-3.222 17.0367,-6.82141 22.5587,-7.99869 5.52201,-1.17724 13.67055,-3.10019 18.10783,-4.27317 4.4373,-1.173 12.60594,-2.39797 18.15254,-2.72218 5.54661,-0.32419 12.35381,-1.44692 15.12712,-2.49496 2.7733,-1.04802 10.78375,-1.32703 17.801,-0.62 7.01724,0.70702 18.78535,0.66169 26.15133,-0.10058 7.36597,-0.7624 15.525,-0.5755 18.13114,0.41535 2.60613,0.99085 11.25962,1.83371 19.23,1.87301 8.74055,0.0431 16.49265,1.2154 19.53396,2.95397 2.77329,1.58536 8.28259,2.91463 12.24286,2.95395 5.28007,0.0524 9.4491,1.99616 15.63136,7.28796 4.63696,3.96907 8.43084,8.09013 8.43084,9.15794 0,1.0678 1.96784,4.60308 4.37295,7.85618 4.575,6.18802 6.09034,22.65801 2.89553,31.4714 -1.46087,4.03005 -0.49098,4.44634 17.27408,7.41389 28.69055,4.79264 32.71901,6.24335 45.73624,16.47027 10.58544,8.31639 12.70869,11.20988 17.28436,23.55434 3.97948,10.73608 5.21647,17.84394 5.21647,29.97444 0,8.74565 -0.90762,16.46212 -2.01695,17.14772 -1.10932,0.6856 -2.01694,3.36493 -2.01694,5.95409 0,4.69938 3.35685,7.15607 9.77817,7.15607 1.86859,0 9.28229,5.78775 16.4749,12.86165 26.50686,26.06954 30.21987,33.93383 26.32122,55.74937 -1.61523,9.03833 -1.87198,15.16925 -0.68497,16.35626 1.04432,1.04432 6.52486,2.63004 12.17896,3.52383 5.65412,0.89379 12.72568,3.35889 15.7146,5.478 2.98892,2.11908 7.80882,5.42523 10.71094,7.34695 5.31374,3.51865 11.91381,18.35901 12.21424,27.46382 0.55602,16.85162 -31.44821,46.50718 -50.46202,46.75878 -2.66627,0.0353 -6.66054,1.43398 -8.87617,3.10824 -2.99161,2.26064 -6.69219,2.71127 -14.37832,1.75096 -6.81761,-0.8518 -11.98219,-0.41917 -15.13259,1.26764 -4.93768,2.64373 -14.40715,4.01687 -59.2403,8.59018 -14.42119,1.47109 -29.85084,4.13562 -34.28813,5.9212 -5.9569,2.3971 -20.99706,3.83379 -57.48304,5.49106 -31.94904,1.45119 -52.82157,3.29947 -59.05245,5.22915 -5.30046,1.64154 -14.93046,2.82575 -21.4,2.63163 -6.46953,-0.19403 -12.88992,0.34366 -14.26754,1.19506 -1.37759,0.85142 -12.1692,2.27484 -23.98133,3.16316 -11.81212,0.8883 -28.2838,2.12188 -36.6037,2.7413 -8.31992,0.61938 -16.03475,0.7852 -17.144069,0.36849 z m 67.91716,-25.17605 c 7.40276,-0.98893 14.35189,-2.34954 15.44255,-3.0236 1.09064,-0.67407 3.41005,-5.41371 5.15423,-10.53259 1.74416,-5.11886 5.23273,-11.35208 7.75234,-13.85162 2.51963,-2.49952 7.58691,-8.29984 11.26064,-12.8896 10.24038,-12.79381 16.33344,-15.13412 35.28664,-13.55349 23.14166,1.92995 27.64643,4.41811 38.72487,21.38918 5.20673,7.97621 11.19124,16.22666 13.29889,18.33431 4.32203,4.32204 14.61224,5.03324 23.36604,1.61489 3.12286,-1.21948 11.5775,-3.02365 18.78809,-4.00932 51.09121,-6.9839 72.91247,-10.13463 81.6864,-11.79456 5.54661,-1.04936 13.61584,-1.96203 17.93163,-2.02816 4.31578,-0.0661 11.5768,-1.85179 16.13558,-3.96813 4.55879,-2.11634 12.82684,-5.56655 18.37346,-7.66713 11.75333,-4.45117 17.13589,-12.65746 17.14093,-26.13328 0.002,-7.39643 -0.96389,-9.16844 -8.0728,-14.79878 -7.27885,-5.76498 -8.9211,-6.24697 -16.63982,-4.88394 -4.71014,0.83177 -11.77794,1.30901 -15.70617,1.06057 -7.89403,-0.49929 -31.80801,5.57979 -43.18201,10.97712 -4.01664,1.90601 -7.54525,3.11977 -7.84134,2.69722 -0.29606,-0.42255 -2.0998,-3.26425 -4.00826,-6.31488 -3.41855,-5.46449 -3.7754,-5.54645 -24.09717,-5.53536 -11.34497,0.007 -23.8166,0.89732 -27.71474,1.9803 -13.22497,3.6742 -57.3429,8.42569 -83.67517,9.01183 -14.42118,0.32101 -31.21227,1.26526 -37.31355,2.09832 -6.10127,0.83308 -13.8161,1.21951 -17.14406,0.85878 -6.65034,-0.72087 -85.01014,-0.1317 -105.8898,0.7962 -12.18028,0.54126 -27.128999,3.07278 -44.498403,7.53566 -10.751182,2.76237 -24.268516,10.47507 -28.654467,16.34958 -3.526755,4.72369 -3.664331,6.30246 -1.487056,17.06555 1.319568,6.52318 3.595311,13.74504 5.057197,16.0486 3.627943,5.71669 23.30414,12.91203 35.978325,13.15681 5.725229,0.11057 12.678564,0.97645 15.451874,1.92413 5.96336,2.03781 69.77337,0.66656 89.09513,-1.91461 z m 32.93025,-93.833 c 43.26355,-0.51734 83.42569,-1.87724 89.24923,-3.02198 5.82352,-1.14476 25.60837,-2.55032 43.9663,-3.1235 18.35795,-0.57318 35.08973,-1.95817 37.1817,-3.07778 2.092,-1.11959 14.18755,-2.03563 26.87902,-2.03563 33.80881,0 35.19035,-0.45706 41.22503,-13.63856 4.55666,-9.95302 4.80769,-11.80593 2.59858,-19.17931 -3.10284,-10.35631 -9.85524,-20.90624 -18.51135,-28.92208 -8.00015,-7.40836 -26.23866,-11.93575 -41.98708,-10.42254 -7.15794,0.68778 -11.42771,0.0592 -14.57598,-2.14596 -3.70155,-2.59266 -11.27491,-3.06014 -44.90004,-2.77151 -22.24611,0.19099 -43.06111,0.91892 -46.25557,1.6177 -3.19444,0.69881 -29.51562,1.52821 -58.49151,1.84312 -39.05978,0.4245 -55.81282,1.36969 -64.78509,3.65511 -12.06569,3.07338 -46.93318,6.93253 -75.63556,8.37141 -9.061282,0.45425 -18.846124,2.35988 -24.401707,4.75233 -20.583217,8.86396 -26.205768,29.24022 -10.333288,37.4482 3.851092,1.99147 6.559437,5.59369 8.118785,10.79834 2.916568,9.7346 15.689624,17.95357 26.61621,17.1265 3.88262,-0.2939 10.68981,0.85704 15.12711,2.55762 5.30418,2.03283 11.86779,2.75237 19.16101,2.10055 6.10126,-0.54529 46.49067,-1.4147 89.7542,-1.93203 z m -55.45277,-96.08607 c 3.87531,-1.17278 27.46762,-2.54003 52.42736,-3.03835 24.95973,-0.49833 56.27285,-1.92392 69.58472,-3.16801 38.87837,-3.63344 59.30098,-3.79565 73.38324,-0.58285 13.42199,3.06215 13.79802,3.01381 36.11997,-4.64271 4.76069,-1.63295 10.06129,-5.11402 11.77908,-7.73571 4.32981,-6.60813 5.59653,-18.58988 2.98905,-28.27328 -3.01037,-11.17964 -13.86877,-27.01477 -20.20751,-29.46917 -2.87835,-1.11451 -8.13348,-3.41607 -11.67803,-5.11456 -3.54459,-1.69848 -7.69336,-2.60901 -9.21952,-2.02336 -1.52618,0.58566 -7.70236,-0.26114 -13.72483,-1.88174 -8.18904,-2.20359 -22.39234,-2.9004 -56.33128,-2.7636 -78.72118,0.31733 -117.44999,1.4647 -135.13557,4.00349 -9.42922,1.35357 -23.04362,3.14301 -30.25421,3.97653 -16.98378,1.96326 -27.68438,5.95735 -41.55612,15.51119 -15.991295,11.01362 -24.297511,20.88341 -25.98602,30.87763 -1.970114,11.66096 1.071381,15.23207 20.143846,23.65151 13.202924,5.82837 18.588054,7.12467 29.629094,7.1322 8.3047,0.007 14.89729,1.07353 17.14406,2.77699 4.37346,3.31587 21.09351,3.72927 30.89267,0.7638 z m 3.01212,-103.30932 c 5.54661,0.17145 11.89999,0.59096 14.11863,0.93211 5.24811,0.80692 102.55377,-2.14278 121.45283,-3.68168 l 14.55457,-1.18517 4.1022,-8.47403 c 7.48961,-15.47142 4.83967,-21.20954 -14.89028,-32.24316 -8.47942,-4.74199 -15.2876,-7.14335 -19.67709,-6.9405 -3.69147,0.17064 -15.74297,-1.14605 -26.78112,-2.92589 -11.03815,-1.77983 -21.02204,-2.48891 -22.18643,-1.57576 -1.16439,0.91316 -15.73148,2.22145 -32.37129,2.90734 -27.32915,1.12647 -32.18854,1.90998 -50.26081,8.10397 -24.92342,8.54212 -33.44255,14.81432 -33.44255,24.62206 0,14.50596 12.34229,24.30048 27.22881,21.60803 4.43728,-0.80254 12.60591,-1.31883 18.15253,-1.14732 z"
       id="path4539"
       inkscape:connector-curvature="0" />
  </g>
</svg>
