<?xml version="1.0" encoding="UTF-8" standalone="no"?>
<!-- Created with Inkscape (http://www.inkscape.org/) -->

<svg
   xmlns:dc="http://purl.org/dc/elements/1.1/"
   xmlns:cc="http://creativecommons.org/ns#"
   xmlns:rdf="http://www.w3.org/1999/02/22-rdf-syntax-ns#"
   xmlns:svg="http://www.w3.org/2000/svg"
   xmlns="http://www.w3.org/2000/svg"
   xmlns:sodipodi="http://sodipodi.sourceforge.net/DTD/sodipodi-0.dtd"
   xmlns:inkscape="http://www.inkscape.org/namespaces/inkscape"
   width="512"
   height="512"
   id="svg2"
   version="1.1"
   inkscape:version="0.48.4 r9939"
   sodipodi:docname="21.svg">
  <defs
     id="defs4" />
  <sodipodi:namedview
     id="base"
     pagecolor="#ffffff"
     bordercolor="#666666"
     borderopacity="1.0"
     inkscape:pageopacity="0.0"
     inkscape:pageshadow="2"
     inkscape:zoom="1.1074219"
     inkscape:cx="146.28572"
     inkscape:cy="256"
     inkscape:document-units="px"
     inkscape:current-layer="layer1"
     showgrid="false"
     inkscape:window-width="1276"
     inkscape:window-height="782"
     inkscape:window-x="0"
     inkscape:window-y="14"
     inkscape:window-maximized="0" />
  <metadata
     id="metadata7">
    <rdf:RDF>
      <cc:Work
         rdf:about="">
        <dc:format>image/svg+xml</dc:format>
        <dc:type
           rdf:resource="http://purl.org/dc/dcmitype/StillImage" />
        <dc:title />
      </cc:Work>
    </rdf:RDF>
  </metadata>
  <g
     inkscape:label="Layer 1"
     inkscape:groupmode="layer"
     id="layer1"
     transform="translate(0,-540.36218)">
    <path
       style="fill:#000000"
       d=""
       id="path3133"
       inkscape:connector-curvature="0" />
    <path
       style="fill:#000000"
       d="m 299.45276,1045.6615 c -0.77192,-3.8596 -3.07343,-8.8627 -5.11447,-11.1181 -3.33395,-3.6839 -3.42432,-5.7136 -0.88962,-19.9782 5.3061,-29.86124 5.37848,-31.93504 1.40678,-40.30477 -3.22856,-6.80373 -3.34821,-8.48845 -0.78489,-11.05178 2.56335,-2.56335 4.18181,-2.44124 10.61717,0.80106 6.58159,3.31596 8.02808,5.58641 10.86118,17.04788 1.79761,7.27234 3.51801,13.58787 3.82307,14.03449 0.30506,0.44661 5.9157,-3.76804 12.46804,-9.36588 6.55239,-5.59788 13.06737,-10.17796 14.47773,-10.17796 1.4104,0 3.65328,2.38998 4.98423,5.31106 2.05503,4.51031 1.52,6.49088 -3.5485,13.13603 -3.28264,4.30375 -7.70688,8.37677 -9.83169,9.05117 -4.98251,1.5813 -14.54767,11.7313 -12.74974,13.5292 0.75763,0.7576 6.79531,-1.68 13.41701,-5.4171 13.15535,-7.4244 34.20524,-10.5258 36.04086,-5.3101 0.53297,1.5144 -0.84885,3.4187 -3.07074,4.2317 -2.2219,0.8129 -6.3272,3.2316 -9.1229,5.3748 -2.79571,2.1431 -10.23333,5.5905 -16.52804,7.6607 -13.9601,4.5912 -28.27618,14.0934 -34.58786,22.9573 -6.06818,8.522 -10.10895,8.3819 -11.86762,-0.4115 z M 182.0407,1022.5489 c -11.4139,-2.3436 -5.76981,-14.1123 6.5823,-13.7249 12.96845,0.4067 18.02343,2.8453 18.02343,8.6946 0,4.8983 -0.93809,5.4384 -9.91683,5.7101 -5.45426,0.1651 -12.06425,-0.1408 -14.6889,-0.6798 z m -32.91082,-8.2121 c -2.12177,-5.5293 9.57656,-25.34169 15.90019,-26.92883 5.65065,-1.41821 9.55055,1.4653 9.62841,7.11907 0.0177,1.3479 -3.68508,7.04626 -8.23028,12.66296 -8.23826,10.1805 -15.05366,12.9962 -17.29832,7.1468 z m -19.4229,-4.9264 c -0.7601,-1.9808 -0.75273,-6.9558 0.0155,-11.05546 0.77391,-4.12531 0.24941,-10.14386 -1.17451,-13.47754 -3.27658,-7.67325 -16.91292,-18.14411 -23.62833,-18.14411 -7.885298,0 -7.204688,-10.34829 0.88286,-13.42318 8.95201,-3.40353 18.73579,-0.65732 26.31313,7.38581 12.65133,13.42911 16.15541,38.56982 6.62386,47.52428 -6.11176,5.7417 -7.22934,5.8889 -9.03243,1.1902 z m 316.04513,-0.7873 c -3.03014,-1.0103 -8.17038,-2.4219 -11.42274,-3.1367 -3.30665,-0.7268 -6.55165,-3.3107 -7.36124,-5.86154 -1.01124,-3.18605 -2.55081,-4.10598 -5.10529,-3.05045 -8.23922,3.40446 -10.74712,3.32405 -15.45469,-0.49556 -4.52404,-3.67068 -5.03656,-6.42103 -6.18103,-33.16899 -1.32757,-31.02734 -0.2903,-40.25135 4.52643,-40.25135 1.64574,0 5.12531,4.95841 7.73235,11.0187 4.80951,11.17998 9.90034,14.17006 12.19411,7.16214 1.99713,-6.10171 25.20262,-25.3699 28.86256,-23.96544 5.29896,2.0334 3.76507,7.62937 -6.68858,24.40158 -12.32457,19.77396 -12.50215,21.94561 -1.65281,20.21209 25.70144,-4.1066 26.00743,-4.10989 29.15842,-0.31318 5.62847,6.78188 -2.6844,13.36951 -21.99626,17.43119 -3.03015,0.63729 -7.49272,2.62335 -9.91683,4.41346 -4.19965,3.10126 -3.83063,3.51098 7.82543,8.68891 6.95661,3.09029 14.58729,4.98411 17.69146,4.3907 7.43619,-1.42152 14.96387,6.44064 10.87912,11.36244 -3.06444,3.6924 -23.36359,4.4053 -33.09041,1.162 z M 220.56214,973.03433 c -4.99339,-1.82759 -19.42505,-20.12772 -19.42505,-24.63203 0,-3.5205 -17.2952,-27.99385 -27.53722,-38.96623 -6.2226,-6.66631 -17.61333,-23.02907 -25.31275,-36.36169 -7.69939,-13.33262 -17.89845,-28.20786 -22.66456,-33.05609 -4.7661,-4.84822 -9.93995,-10.17347 -11.49747,-11.83385 -1.5575,-1.66041 -8.11721,-5.1313 -14.577128,-7.71309 -14.43214,-5.76802 -20.71108,-14.46091 -14.75052,-20.42148 3.49379,-3.49378 4.2575,-3.26066 12.44473,3.79881 4.797398,4.13655 14.347998,10.99189 21.223558,15.23409 13.18301,8.13388 27.32848,24.44121 37.41605,43.13438 7.2464,13.42827 29.86687,41.29062 37.67707,46.40806 9.02069,5.9106 10.4888,1.88078 11.53972,-31.6754 1.08852,-34.75671 -1.69177,-57.01661 -9.25839,-74.12609 -6.4431,-14.56899 -9.07152,-25.61198 -6.09608,-25.61198 3.70385,0 19.3442,30.8878 26.56575,52.46418 5.21217,15.57284 6.86462,24.42709 6.86462,36.78257 0,8.94993 0.90129,16.82962 2.00287,17.51045 3.22266,1.99169 13.08768,-11.39091 15.82049,-21.46164 1.38302,-5.09661 4.28266,-15.21667 6.44364,-22.48901 2.16099,-7.27234 5.05843,-20.66005 6.43875,-29.75047 1.38032,-9.09043 3.44238,-22.47814 4.58238,-29.75048 1.13996,-7.27234 2.27465,-27.10599 2.52151,-44.07478 0.51784,-35.59737 -3.57668,-59.44864 -13.11989,-76.42558 -4.72099,-8.39843 -5.44925,-11.39417 -3.51616,-14.46376 3.32818,-5.28483 8.43551,-5.91633 16.26401,-2.01096 4.61495,2.30223 8.40704,2.71215 12.67177,1.36981 3.34728,-1.05361 13.76946,-3.56642 23.16039,-5.58409 15.96357,-3.42976 17.44191,-3.42764 22.72313,0.0326 3.10679,2.03565 5.34012,5.26602 4.96298,7.1786 -0.9676,4.90678 -17.80313,9.39375 -35.39463,9.43332 l -14.87524,0.0335 0,15.53561 c 0,10.08185 1.26737,17.98644 3.61023,22.51704 4.21727,8.15529 4.72176,53.07721 0.86706,77.20665 -1.24941,7.82097 -1.68808,17.13769 -0.97486,20.70382 0.74045,3.70222 -0.11023,9.85131 -1.98278,14.33301 -3.96873,9.49855 -5.70521,29.15955 -2.62152,29.68192 1.21205,0.20539 10.32089,-6.24061 20.24183,-14.32431 18.1648,-14.80085 24.19267,-19.29611 44.8268,-33.42939 21.2268,-14.53923 54.60304,-39.38902 56.0511,-41.73201 1.80047,-2.91324 9.28931,-3.07625 11.04198,-0.24038 2.89999,4.69231 -1.7146,13.54682 -8.54804,16.40201 -3.84536,1.6067 -15.38126,9.3106 -25.63532,17.11979 -10.25407,7.80916 -24.59384,18.28825 -31.86618,23.28682 -17.81227,12.24314 -54.2816,45.55492 -69.95229,63.89581 -9.75115,11.41267 -13.84253,18.45646 -17.37851,29.91919 -2.54363,8.24578 -4.06762,15.54949 -3.38662,16.23047 0.68097,0.681 7.48745,-2.24484 15.12545,-6.50187 7.63801,-4.25701 18.34985,-10.00192 23.8041,-12.7665 13.85611,-7.02314 42.53454,-24.65195 59.25659,-36.42536 17.52241,-12.33693 23.14294,-12.28302 23.9574,0.22981 0.78816,12.10936 -3.2812,18.86474 -15.26641,25.343 -5.60596,3.03014 -13.02276,7.42005 -16.48179,9.75537 -3.45903,2.33533 -13.23092,8.68384 -21.7153,14.10783 -8.4844,5.42398 -21.37627,14.45997 -28.64861,20.07999 -7.27234,5.62002 -17.68502,13.03122 -23.13926,16.46933 -15.2538,9.61531 -22.2674,16.92943 -20.76698,21.65684 2.89319,9.11565 -9.34981,13.2319 -23.7164,7.97375 z m 212.91301,-68.94611 c -0.78145,-3.11355 -0.80628,-7.26242 -0.0551,-9.21972 2.11973,-5.52396 8.3051,0.75445 7.48516,7.59778 -0.90275,7.53432 -5.68409,8.57808 -7.42997,1.62194 z M 94.557672,903.49409 c -3.11402,-3.11402 -1.10949,-11.64417 3.49403,-14.86858 5.584938,-3.91184 19.770308,-4.53651 26.099388,-1.1493 4.82754,2.58362 5.63545,9.31955 1.50793,12.57248 -3.29084,2.59359 -29.094628,5.4521 -31.101348,3.4454 z m -22.28797,-20.34113 c -1.64205,-5.17363 3.3337,-17.58711 9.01038,-22.47907 2.28838,-1.97203 7.81421,-4.87477 12.27966,-6.45051 9.650408,-3.40544 15.020308,-0.48086 15.020308,8.18045 0,4.14968 -2.05737,6.21045 -9.365898,9.38138 -5.15124,2.23498 -11.77003,6.66231 -14.70843,9.83853 -6.33677,6.84962 -10.38675,7.35578 -12.23602,1.52922 z m -23.26016,-14.5986 c -2.660069,-4.30409 -7.21517,-9.38418 -10.122457,-11.2891 -10.374362,-6.79755 -8.62715,-20.55258 2.610658,-20.55258 6.864611,0 19.640387,24.83815 17.389221,33.80744 -1.96117,7.81399 -4.095755,7.38917 -9.877422,-1.96576 z M 182.59804,766.53918 c -2.10283,-4.05182 -3.33362,-7.85669 -2.73506,-8.45522 1.78044,-1.78047 8.54815,9.92833 7.51221,12.99689 -0.53929,1.59748 -2.61533,-0.37621 -4.77715,-4.54167 z m -8.35534,-43.86999 c -4.47858,-5.17683 -6.02573,-12.36048 -3.59684,-16.70068 2.93876,-5.25125 18.89839,-9.10755 23.13631,-5.59038 4.35516,3.61446 2.28525,14.30579 -4.08184,21.08326 -5.6837,6.05001 -10.91494,6.45876 -15.45763,1.2078 z M 301.80099,711.0156 c -9.59071,-7.54406 -6.82879,-19.74969 4.46901,-19.74969 2.79575,0 7.30791,-2.57608 10.02702,-5.72464 5.37293,-6.22147 19.21418,-14.10901 24.75887,-14.10901 6.52155,0 6.19507,6.7227 -0.79947,16.46244 -3.79226,5.2806 -6.895,12.04467 -6.895,15.03126 0,7.09427 -3.33398,9.50699 -15.58332,11.2772 -8.30944,1.20084 -11.10796,0.64252 -15.97711,-3.18756 z m -92.01846,-6.35774 c -6.78307,-6.78305 -8.98842,-19.34549 -3.68704,-21.0025 10.95653,-3.42458 18.99912,-3.2424 23.66532,0.53606 4.88785,3.95794 4.9087,4.1712 1.13446,11.6135 -4.52525,8.92331 -9.79048,15.29464 -12.63934,15.29464 -1.11746,0 -4.93047,-2.89876 -8.4734,-6.4417 z m -63.63125,-28.9822 c -13.58303,-2.97242 -17.14718,-13.1116 -7.72173,-21.96635 4.40171,-4.13519 6.41686,-4.76506 9.3659,-2.92752 3.54617,2.2096 13.55973,17.7195 13.63808,21.12388 0.0774,3.35832 -8.0273,5.35766 -15.28225,3.76999 z m 189.53681,-23.95413 c -5.55587,-5.55587 -8.14242,-18.90996 -4.51035,-23.28633 1.49784,-1.8048 6.03793,-3.28146 10.08907,-3.28146 9.23783,0 12.95531,5.94165 10.83092,17.31102 -2.59209,13.8724 -8.4753,17.19114 -16.40964,9.25677 z m -137.73153,-0.0987 c -9.95158,-1.9155 -18.85687,-10.76977 -18.85687,-18.74889 0,-8.50899 4.55531,-9.0283 10.90884,-1.24364 5.536,6.78298 6.36613,7.06911 16.22174,5.59118 5.71295,-0.8567 10.92936,-2.43492 11.592,-3.50712 1.91201,-3.09367 6.6569,-2.28206 12.01265,2.05474 4.11365,3.33105 4.53301,4.77398 2.49439,8.58317 -4.35009,8.12822 -16.53095,10.70472 -34.37275,7.27056 z m 63.62721,-34.01975 c -1.77354,-7.06634 3.50036,-17.79238 8.74834,-17.79238 5.87028,0 8.02687,7.70533 4.50254,16.08724 -3.66755,8.72249 -11.2449,9.69755 -13.25088,1.70514 z m -114.0125,1.44886 c -3.55753,-0.787 -8.13889,-8.54909 -8.13889,-13.78953 0,-4.40003 10.00091,-10.96106 16.70781,-10.96106 9.20663,0 10.8411,4.62273 5.40322,15.28185 -4.53967,8.89845 -7.4954,10.90152 -13.97214,9.46874 z m 83.9699,-4.36601 c -3.13476,-3.62486 -8.3667,-16.57761 -8.3667,-20.71343 0,-4.81161 8.42022,-0.99577 15.9289,7.21857 9.018,9.86556 10.24438,13.93468 4.82638,16.01376 -5.71751,2.19402 -8.86662,1.55372 -12.38858,-2.5189 z m 78.21265,-18.62543 c -6.86169,-8.58617 -9.84427,-17.86939 -7.43799,-23.15063 3.86364,-8.47973 10.81602,-5.76558 17.36979,6.781 4.18706,8.01574 5.03649,11.64171 3.35565,14.3243 -2.88233,4.60015 -10.32963,5.74649 -13.28745,2.04533 z M 179.36604,578.09421 c -1.53372,-1.848 -2.46899,-6.1471 -2.07839,-9.55355 0.54562,-4.75843 1.98676,-6.32287 6.21952,-6.75165 17.86968,-1.81022 28.94164,-5.86913 32.51611,-11.92022 5.05231,-8.55288 15.88087,-11.95782 24.25573,-7.62701 8.70171,4.49981 12.16303,9.17414 10.55204,14.24993 -1.70643,5.37646 -21.85684,14.30738 -27.93121,12.37946 -2.7493,-0.8726 -6.01048,10e-4 -8.53713,2.28801 -3.76958,3.41143 -12.42944,6.4053 -26.57342,9.18691 -3.50019,0.68835 -6.69105,-0.16463 -8.42325,-2.25188 z m 87.89703,-12.77214 c -7.59472,-10.48422 -7.6362,-10.66654 -3.66231,-16.10115 3.43098,-4.69214 9.55035,-3.7677 20.72747,3.13128 8.71821,5.38125 9.18249,11.39142 1.35561,17.54805 -8.21157,6.45923 -10.91138,5.78825 -18.42077,-4.57818 z"
       id="path5263"
       inkscape:connector-curvature="0" />
  </g>
</svg>
