<?xml version="1.0" encoding="UTF-8" standalone="no"?>
<!-- Created with Inkscape (http://www.inkscape.org/) -->

<svg
   xmlns:dc="http://purl.org/dc/elements/1.1/"
   xmlns:cc="http://creativecommons.org/ns#"
   xmlns:rdf="http://www.w3.org/1999/02/22-rdf-syntax-ns#"
   xmlns:svg="http://www.w3.org/2000/svg"
   xmlns="http://www.w3.org/2000/svg"
   xmlns:sodipodi="http://sodipodi.sourceforge.net/DTD/sodipodi-0.dtd"
   xmlns:inkscape="http://www.inkscape.org/namespaces/inkscape"
   width="512"
   height="512"
   id="svg2"
   version="1.1"
   inkscape:version="0.48.4 r9939"
   sodipodi:docname="25.svg">
  <defs
     id="defs4" />
  <sodipodi:namedview
     id="base"
     pagecolor="#ffffff"
     bordercolor="#666666"
     borderopacity="1.0"
     inkscape:pageopacity="0.0"
     inkscape:pageshadow="2"
     inkscape:zoom="1.1074219"
     inkscape:cx="146.28571"
     inkscape:cy="256"
     inkscape:document-units="px"
     inkscape:current-layer="layer1"
     showgrid="false"
     inkscape:window-width="1276"
     inkscape:window-height="782"
     inkscape:window-x="0"
     inkscape:window-y="14"
     inkscape:window-maximized="0" />
  <metadata
     id="metadata7">
    <rdf:RDF>
      <cc:Work
         rdf:about="">
        <dc:format>image/svg+xml</dc:format>
        <dc:type
           rdf:resource="http://purl.org/dc/dcmitype/StillImage" />
        <dc:title></dc:title>
      </cc:Work>
    </rdf:RDF>
  </metadata>
  <g
     inkscape:label="Layer 1"
     inkscape:groupmode="layer"
     id="layer1"
     transform="translate(0,-540.36215)">
    <path
       style="fill:#000000"
       d="m 239.55936,1048.9667 c -4.58648,-11.9522 2.76179,-44.2905 14.68876,-64.64235 5.67854,-9.68966 5.85079,-10.88576 2.33948,-16.24471 -4.54141,-6.93106 -10.11186,-25.75048 -12.28315,-41.49793 -1.70817,-12.38854 3.14271,-21.04501 10.2622,-18.31302 1.97136,0.75648 3.95806,1.37543 4.41487,1.37543 3.76229,0 11.62952,20.04261 13.69319,34.88487 5.84721,42.05389 5.92253,48.98574 0.57296,52.73271 -6.50472,4.5561 -15.02464,24.7272 -17.36808,41.1195 -1.678,11.7373 -2.55574,13.2 -8.32366,13.8711 -4.19586,0.4882 -6.98879,-0.6593 -7.99657,-3.2856 z m -54.18008,-7.7442 c -4.38178,-4.3817 -1.27988,-25.081 5.9923,-39.9871 5.44952,-11.17002 7.1778,-17.51948 6.03378,-22.16712 -0.88179,-3.58227 -2.37562,-10.21456 -3.31963,-14.7384 l -1.71635,-8.22518 -5.34842,5.75808 c -5.94343,6.39866 -15.62189,32.9209 -15.62189,42.80922 0,7.2822 -6.39982,20.9256 -9.81579,20.9256 -4.18096,0 -7.23426,-17.6333 -5.76947,-33.31958 1.12628,-12.06111 0.55551,-16.7461 -2.58673,-21.23227 -4.94842,-7.06487 -5.08256,-15.18642 -0.53896,-32.63049 3.68318,-14.14067 9.09751,-25.94299 16.59413,-36.17243 4.46445,-6.0919 4.41425,-6.38837 -4.08287,-24.11035 -4.73159,-9.86843 -8.60289,-20.72449 -8.60289,-24.12454 0,-7.82548 13.78778,-35.4118 18.62717,-37.26884 5.4821,-2.10369 10.97798,3.80017 10.97798,11.79294 0,8.54365 2.40433,8.954 9.07131,1.54825 8.08225,-8.97783 8.60488,-11.17759 4.52855,-19.06036 -3.24265,-6.27059 -3.4338,-9.9997 -1.17688,-22.95992 2.60474,-14.95748 2.44255,-15.95249 -4.8642,-29.84285 -8.74773,-16.62968 -9.98283,-30.03622 -2.97216,-32.26134 6.53951,-2.07554 11.59153,0.46591 14.76308,7.4267 1.96983,4.32328 4.72022,6.03202 9.70913,6.03202 8.41731,0 12.88179,3.99578 12.88179,11.52935 0,3.08459 2.46364,10.67924 5.47475,16.87703 6.25185,12.86817 4.30928,19.55351 -5.7088,19.64676 -5.50005,0.0511 -5.95802,1.04687 -6.26643,13.62424 -0.48446,19.75566 -3.22138,29.83792 -10.49201,38.65016 -18.96348,22.9844 -27.9346,49.96924 -19.06071,57.33391 5.41498,4.49404 5.00781,11.5691 -0.90409,15.70995 -2.68676,1.8819 -6.57244,7.46015 -8.63483,12.39614 -4.22396,10.10939 -4.86094,18.29492 -0.76293,9.80404 3.51016,-7.27287 11.34539,-9.59998 16.14902,-4.79635 3.39943,3.39943 4.7181,3.03174 13.00176,-3.62518 6.97816,-5.6078 11.23831,-7.21512 17.52886,-6.61342 12.42639,1.18858 12.36454,8.98455 -0.17368,21.90441 -11.51467,11.8651 -12.32265,14.66335 -4.23386,14.66335 3.18197,0 7.74705,2.16761 10.14465,4.81693 4.19984,4.64078 4.07846,5.15764 -3.31827,14.13115 -4.22265,5.1228 -7.67755,10.48642 -7.67755,11.91916 0,1.43271 -3.91395,8.67356 -8.69764,16.09073 -4.7837,7.4172 -9.37292,17.6901 -10.19826,22.8287 -1.87381,11.666 -13.2336,20.6162 -18.93289,14.9169 z m 233.94511,-5.1397 c -5.19595,-3.7315 -15.08891,-12.622 -21.98437,-19.7567 -6.89548,-7.1347 -13.75289,-12.9632 -15.2387,-12.9523 -1.48583,0.01 -4.58648,2.1028 -6.89033,4.6485 -3.9416,4.3555 -3.93583,5.1592 0.0977,13.6176 3.81971,8.0101 3.88151,9.3941 0.56748,12.7081 -5.89581,5.8958 -21.20017,-1.5098 -25.78198,-12.4756 -7.36764,-17.6333 -3.19102,-30.81414 9.76409,-30.81414 7.95533,0 8.48856,-0.66604 18.79261,-23.47238 5.83271,-12.90985 9.99095,-24.0864 9.24053,-24.83685 -2.03143,-2.0314 -24.57543,9.976 -29.99956,15.97842 -2.5889,2.86491 -5.38128,9.35656 -6.20526,14.42589 -1.97321,12.13942 -7.85861,13.14481 -13.67913,2.33676 -6.58313,-12.22413 -3.57115,-19.47137 16.05849,-38.63925 9.44232,-9.22018 17.1922,-18.28093 17.22201,-20.13503 0.10509,-6.54438 9.60953,-24.2938 21.8857,-40.87167 16.02455,-21.63974 29.86049,-37.7458 32.42558,-37.7458 3.56448,0 9.72247,7.55055 11.30706,13.86402 1.29353,5.15386 -1.17453,8.91633 -15.66561,23.88165 -20.94724,21.63275 -26.93217,32.03509 -23.17528,40.28057 1.45261,3.1881 1.9367,7.63213 1.07578,9.87563 -1.33618,3.48208 -0.30375,3.84245 7.05414,2.46209 16.07606,-3.01588 21.80853,11.79962 8.68356,22.44247 -8.01737,6.50119 -26.91591,34.81597 -25.1475,37.67731 0.8417,1.36191 3.60078,2.47617 6.1313,2.47617 4.56657,0 6.98845,2.60476 23.64099,25.42614 7.48293,10.255 13.84811,26.3829 10.4125,26.3829 -0.62957,0 -5.39588,-3.0531 -10.5918,-6.7845 z m -318.23754,0.022 c -9.186849,-1.3043 -13.777549,-5.3594 -24.705789,-21.8235 -9.33482,-14.0635 -10.04818,-17.34454 -5.79874,-26.67105 3.85997,-8.47171 8.12089,-9.47493 15.52067,-3.65426 7.44767,5.85834 10.3398,4.67926 12.48553,-5.09019 0.87007,-3.96139 3.104909,-8.46648 4.966289,-10.0113 7.76821,-6.44704 19.23929,8.41166 14.75715,19.11521 -0.99565,2.37761 -2.50312,14.22619 -3.34995,26.33009 -0.84683,12.104 -2.64988,22.1981 -4.00678,22.4314 -1.3569,0.2334 -5.79767,-0.049 -9.86838,-0.6264 z m 190.44269,-8.8921 c -6.52239,-9.9544 -7.29057,-17.5233 -2.81992,-27.78514 2.30074,-5.28111 4.62275,-17.01528 5.15998,-26.07596 1.56831,-26.44899 13.05464,-51.1043 25.67432,-55.10963 5.24591,-1.66497 17.15053,4.36868 17.15053,8.69246 0,1.30524 -3.47655,8.02329 -7.72568,14.92901 -7.56214,12.29006 -7.68962,13.00031 -6.02196,33.55339 1.84028,22.68055 -0.75078,30.91687 -10.72175,34.08147 -3.63852,1.1549 -5.05372,4.1547 -5.61669,11.9059 -0.60683,8.3548 -1.75716,10.5054 -5.93874,11.1025 -3.31735,0.4737 -6.61088,-1.4339 -9.14009,-5.294 z m 135.25909,-30.26314 c -5.30201,-8.09187 -3.64141,-21.26806 5.99869,-47.5975 7.64006,-20.86676 15.85245,-28.83518 23.32585,-22.63281 4.26494,3.53959 5.24884,12.58466 1.77905,16.35485 -3.55011,3.85742 -12.64557,34.8663 -12.64557,43.11209 0,16.69511 -10.54313,22.84301 -18.45802,10.76337 z M 55.939001,973.29621 c -3.65061,-3.65061 -3.78136,-11.21815 -0.36328,-21.0233 1.42848,-4.09775 3.92653,-16.19799 5.55121,-26.88941 2.5891,-17.03776 3.62205,-19.53407 8.36227,-20.2087 7.91963,-1.12709 14.16357,11.95582 12.04587,25.23965 -3.42199,21.46528 -7.72845,37.8572 -10.97224,41.76412 -3.98033,4.79406 -10.45276,5.28874 -14.62383,1.11764 z m 58.672539,-27.96975 -5.41868,-11.19351 5.19859,-12.08447 c 2.85924,-6.64648 5.19861,-14.31365 5.19861,-17.03821 0,-4.43922 8.24319,-12.63478 12.70821,-12.63478 0.95805,0 3.4865,1.74458 5.61878,3.87686 5.37052,5.37053 4.84516,19.11883 -1.4546,38.06376 -2.93285,8.81986 -5.67372,17.42386 -6.09081,19.11999 -0.41709,1.69612 -2.91453,3.08387 -5.54988,3.08387 -3.24374,0 -6.54192,-3.61583 -10.21022,-11.19351 z M 434.2846,911.5633 c -4.73447,-6.7594 -4.8897,-17.38451 -0.46864,-32.07459 2.53918,-8.43709 7.56547,-15.21539 20.35353,-27.44811 17.97518,-17.19459 23.76862,-19.53673 28.13668,-11.37491 3.20747,5.99319 -3.28518,18.15789 -14.91386,27.94276 -10.65877,8.96876 -19.67856,23.48712 -19.67856,31.67479 0,7.96386 -3.85721,16.7632 -7.3482,16.7632 -1.23221,0 -3.96864,-2.46742 -6.08095,-5.48314 z M 93.681341,905.58787 c -5.23939,-5.2394 -4.03005,-17.20353 3.38404,-33.47844 6.286849,-13.80051 5.072279,-17.9418 -7.08046,-24.14166 -9.90356,-5.05241 -12.33548,-8.86938 -12.33548,-19.36093 0,-3.64202 -4.53679,-14.37561 -10.08176,-23.85239 -15.38419,-26.29282 -17.33756,-32.27977 -16.0353,-49.14743 1.39788,-18.10613 9.93642,-51.96075 15.08811,-59.82324 4.69133,-7.15985 7.48282,-7.19673 12.05245,-0.15912 3.13299,4.82504 3.15176,7.64804 0.14359,21.58708 -1.90344,8.81987 -3.4998,19.69939 -3.54749,24.1767 -0.0476,4.47731 -1.82419,11.50061 -3.94787,15.60734 -3.56564,6.89518 -3.51842,7.9717 0.61677,14.06328 l 4.478,6.59649 1.27914,-16.03612 c 1.73245,-21.7188 10.86309,-38.23997 21.13383,-38.23997 8.566549,0 10.680819,7.10284 5.696299,19.13651 -1.72368,4.16135 -4.31265,15.43544 -5.753239,25.05348 -2.46643,16.4669 -3.01333,17.53276 -9.3719,18.26497 l -6.75261,0.77755 4.60123,9.09083 c 2.53067,4.99994 5.38002,12.69893 6.33187,17.10886 2.11559,9.80145 6.893169,10.33548 11.035659,1.23355 5.85065,-12.8551 25.05792,-39.83271 32.95944,-46.29327 4.35543,-3.56113 9.86179,-8.0522 12.23637,-9.98014 3.01284,-2.44615 4.31742,-7.04296 4.31742,-15.2128 0,-12.90002 8.25855,-31.8219 19.90161,-45.59839 6.49488,-7.68495 7.09485,-7.89389 11.18643,-3.89566 4.11667,4.02277 3.9958,5.33425 -2.52749,27.42401 -3.76802,12.75954 -7.16561,29.03117 -7.5502,36.15915 -0.72387,13.41602 -3.46866,17.2017 -12.52076,17.26903 -6.25628,0.0466 -10.00372,3.10812 -21.1845,17.30744 -9.59562,12.18619 -15.48808,22.20386 -13.06048,22.20386 0.85596,0 4.82011,-2.32406 8.80921,-5.16455 8.66404,-6.16934 14.47908,-4.67477 14.47908,3.72139 0,6.08761 -12.86521,30.25977 -23.90669,44.91774 -6.80152,9.02928 -16.92944,28.47327 -20.6228,39.59254 -3.75823,11.31454 -8.216039,14.32773 -13.451469,9.09231 z m 223.363139,-0.71472 c -3.69171,-6.89805 -3.08841,-29.0628 1.17345,-43.11168 3.84586,-12.67744 4.71415,-25.48198 2.17645,-32.09513 -1.8629,-4.85465 -10.56864,-5.0501 -17.22652,-0.38674 -4.39101,3.07558 -5.08175,6.50114 -5.518,27.36541 -0.69012,33.00426 -5.85225,40.66741 -15.73353,23.35637 -5.18431,-9.08239 -8.1575,-9.2769 -12.31559,-0.80571 -5.00959,10.20591 -10.60491,12.60725 -16.6431,7.14276 -6.15911,-5.57388 -6.38199,-10.79912 -0.94678,-22.19688 3.74232,-7.8477 3.77037,-9.07669 0.29751,-13.03595 -2.1089,-2.40426 -5.71915,-8.08998 -8.0228,-12.63491 -4.0035,-7.89868 -3.94708,-9.2059 1.27769,-29.60515 3.00635,-11.73789 7.0664,-24.51111 9.02234,-28.38497 2.9953,-5.93242 3.08439,-10.40736 0.56477,-28.37159 -3.74106,-26.67251 -3.64768,-28.49007 1.9585,-38.12615 3.12608,-5.37321 6.79132,-8.13006 11.54346,-8.68255 6.68672,-0.77738 6.91421,-1.24233 5.73353,-11.71734 -1.73604,-15.402 -4.98116,-18.31184 -20.42187,-18.31184 -11.541,0 -13.78517,0.87651 -19.43469,7.59058 -3.51288,4.1748 -6.38704,9.47836 -6.38704,11.78564 0,2.3073 -3.38236,7.8983 -7.51635,12.42444 -7.25652,7.94486 -7.68293,8.07858 -12.33548,3.86808 -7.5859,-6.86513 -6.12385,-18.41578 4.23773,-33.47885 4.98126,-7.24149 9.97222,-18.06602 11.09098,-24.0545 1.11877,-5.98851 3.70434,-14.2362 5.74571,-18.32823 2.04138,-4.09202 3.7116,-8.50884 3.7116,-9.81514 0,-1.3063 -6.19352,-9.06482 -13.76336,-17.24115 -15.34999,-16.57984 -18.30888,-22.45979 -18.30888,-36.38388 0,-19.03986 7.93514,-15.70491 27.22985,11.44404 8.09091,11.38449 14.71077,21.7625 14.71077,23.06226 0,1.29974 2.34406,6.86038 5.20903,12.35692 4.9479,9.49276 5.09104,12.84826 0.97465,22.84722 -1.34854,3.27569 -0.57185,4.31742 3.21896,4.31742 7.57549,0 12.80122,2.60858 12.80122,6.39012 0,1.86732 5.41591,6.13959 12.03538,9.49393 11.93578,6.04833 12.08099,6.26778 17.54497,26.51752 7.06004,26.16486 5.31664,33.10124 -8.11872,32.30183 l -9.12615,-0.54301 0,17.0353 c 0,9.36941 -1.08439,19.88745 -2.40976,23.37341 -1.63978,4.31297 -1.52605,8.27762 0.35595,12.40815 2.25968,4.95946 1.57213,9.68131 -3.758,25.80861 -3.58803,10.85621 -6.52367,22.79983 -6.52367,26.54138 0,6.67631 0.0671,6.7069 3.61212,1.64575 1.98668,-2.83637 7.0158,-5.83776 11.1758,-6.66977 6.4252,-1.28503 8.79297,-4.07786 15.73071,-18.55453 7.41942,-15.48169 8.3134,-19.83362 9.76556,-47.53848 1.35949,-25.93704 2.28904,-30.96859 6.21718,-33.65276 5.05648,-3.45524 4.70724,-7.50532 -3.08893,-35.82107 -7.58837,-27.561 -4.42474,-39.14582 9.26843,-33.9397 11.6819,4.44146 19.45744,51.77902 10.70039,65.14397 -3.32908,5.08081 -3.51068,8.41751 -1.21293,22.28404 1.9894,12.00567 1.95567,20.83003 -0.12779,33.44611 -3.40304,20.60605 -3.69139,42.09169 -0.56494,42.09169 1.24593,0 4.02141,0.67386 6.16774,1.4975 3.2129,1.2329 3.90242,-0.52475 3.90242,-9.94763 0,-12.48626 5.05249,-26.88968 12.1688,-34.69037 2.86403,-3.13945 4.92541,-10.03217 5.60088,-18.72774 1.36329,-17.55035 12.00619,-34.65327 22.96801,-36.90906 9.76242,-2.009 16.19254,-5.6157 33.56195,-18.82524 15.53202,-11.81221 25.04701,-13.44557 26.32302,-4.51868 0.66313,4.63917 -24.83995,36.53975 -33.12986,41.44056 -1.83004,1.08187 -4.02904,6.35529 -4.8867,11.7187 -1.71959,10.75375 -6.09318,12.54069 -13.745,5.6159 -5.24218,-4.74412 -8.25093,-2.75473 -10.67322,7.05718 -1.26826,5.13733 -0.47771,7.34466 3.52607,9.84504 6.88956,4.30261 6.54459,11.50054 -0.68289,14.24841 -8.03736,3.0558 -15.30125,12.93173 -20.06874,27.28531 -2.44943,7.37457 -5.83887,12.66008 -8.70105,13.56851 -5.19578,1.64908 -5.34528,2.31537 -10.78688,48.07392 -3.09968,26.06528 -4.49182,31.49647 -9.01126,35.15611 -6.82174,5.5239 -8.96126,5.44554 -12.1131,-0.44371 z M 61.124391,892.8879 c -5.89821,-3.74946 -17.99023,-34.09777 -19.55642,-49.08227 -2.70144,-25.84603 3.50261,-36.04229 14.95939,-24.58552 4.22386,4.22387 6.22571,9.90991 7.57163,21.50637 1.00631,8.6704 3.35664,20.09234 5.22294,25.38204 4.18008,11.84758 4.34819,21.85817 0.43281,25.77355 -3.43339,3.43338 -4.59808,3.56912 -8.63035,1.00583 z M 362.77755,881.89033 c -4.69301,-7.16506 -6.58152,-32.03943 -3.51194,-46.25705 2.58246,-11.96139 10.36064,-22.20484 16.86087,-22.20484 2.21795,0 6.16703,1.5607 8.77573,3.46824 4.5947,3.35974 4.60876,3.84215 0.44894,15.41934 -2.3618,6.57311 -4.61231,19.89052 -5.00112,29.59424 -0.95331,23.79146 -9.04788,32.99506 -17.57248,19.98007 z m 65.64691,-84.50115 c -4.21424,-9.24921 -3.58417,-26.31458 1.22504,-33.1807 2.27681,-3.2506 7.46972,-8.88559 11.53984,-12.52224 l 7.40017,-6.61206 -5.53973,-10.62822 c -3.23067,-6.19819 -4.94804,-12.7762 -4.1202,-15.78154 1.657,-6.01535 26.65519,-23.65656 33.52217,-23.65656 8.90869,0 10.60948,13.0555 2.57119,19.73676 -5.13852,4.27104 -14.97372,18.23946 -14.97372,21.26639 0,2.66486 2.43754,3.42748 9.25161,2.89457 8.38506,-0.65578 9.32234,-0.11275 10.00681,5.79737 0.6071,5.24199 -1.69798,8.58949 -11.7529,17.06794 -7.28484,6.14265 -14.67625,15.2673 -17.70015,21.85067 -2.85561,6.217 -6.00664,12.96895 -7.00226,15.0043 -3.16128,6.46258 -11.23517,5.77054 -14.42787,-1.23668 z M 121.25397,733.86357 c -2.30126,-4.40993 -7.92725,-12.65146 -12.50218,-18.3145 -10.650769,-13.18396 -19.692919,-38.87306 -16.067249,-45.64768 4.29408,-8.02356 12.582969,-4.61475 19.053519,7.83576 3.17333,6.10607 9.4232,15.81557 13.88859,21.57668 4.46539,5.76111 9.52553,15.49876 11.24475,21.63919 2.78762,9.9564 2.64779,11.6927 -1.29236,16.04653 -6.18948,6.83928 -9.49748,6.11509 -14.32507,-3.13598 z m 236.28441,-27.60149 c -3.65091,-5.57198 -3.58795,-6.79697 0.85593,-16.65289 2.63821,-5.85116 8.27165,-13.89922 12.51876,-17.88457 8.10552,-7.60595 10.04781,-13.72423 4.35689,-13.72423 -1.85082,0 -6.46527,-4.71832 -10.25434,-10.48515 -3.78906,-5.76684 -8.93591,-13.49324 -11.43745,-17.16978 -4.4911,-6.60064 -6.16431,-24.47329 -3.05074,-32.58712 1.7807,-4.64048 12.16952,-5.20703 15.00979,-0.81856 3.0173,4.662 13.07267,33.65079 16.16105,46.59102 l 2.72913,11.43489 12.28564,-8.63537 c 6.7571,-4.74946 15.94503,-10.16436 20.4176,-12.03311 5.71303,-2.38707 9.51717,-6.52214 12.78883,-13.90147 6.39217,-14.41758 11.30016,-18.1742 19.10087,-14.61996 7.29029,3.32168 7.6479,9.05881 1.64057,26.32011 -6.33752,18.2101 -7.26029,19.16886 -16.7381,17.3908 -7.88353,-1.47895 -9.39954,-0.43709 -30.79611,21.16423 -12.37742,12.49583 -25.31943,26.97354 -28.76005,32.17265 -7.26266,10.9746 -11.34402,11.80855 -16.82827,3.43851 z M 150.31991,691.53167 c -3.42848,-2.50696 -3.92732,-5.0719 -2.48614,-12.78281 0.99164,-5.30559 2.62267,-10.75673 3.62448,-12.11363 1.00184,-1.35691 3.67501,-7.46297 5.94039,-13.56903 9.62096,-25.93191 43.60557,-47.9049 43.60557,-28.1935 0,3.19988 -3.33961,9.62158 -7.42137,14.27042 -4.08176,4.64888 -9.59244,13.36051 -12.24594,19.35923 -2.65351,5.99869 -6.98381,12.86079 -9.62286,15.24911 -2.63908,2.38832 -6.11159,7.51295 -7.7167,11.38807 -3.5316,8.52601 -7.94097,10.58672 -13.67743,6.39214 z M 60.660551,671.09292 c -8.34741,-7.69452 -24.99357,-36.19791 -29.85824,-51.12655 -2.82218,-8.66074 -2.68218,-10.00351 1.35049,-12.95225 2.4745,-1.80942 6.3203,-3.28983 8.54624,-3.28983 3.88422,0 14.49941,14.44601 23.19272,31.56242 2.26965,4.46877 6.8487,9.36529 10.17571,10.88117 6.30799,2.87412 7.65971,6.731 3.75788,10.72232 -1.26017,1.28906 -2.64791,6.14391 -3.08387,10.78858 -1.03285,11.00357 -4.84484,11.92784 -14.08093,3.41414 z m 28.33018,-48.58505 c -13.63453,-16.12207 -16.27548,-21.35806 -16.27548,-32.26783 0,-9.68431 3.75364,-12.66405 12.95775,-10.28621 4.06299,1.04965 8.10606,7.05656 15.123909,22.46993 5.26814,11.57051 10.26401,21.00999 11.10193,20.97661 2.40843,-0.096 10.15832,-16.92213 10.15832,-22.05529 0,-5.65663 11.49839,-19.82464 16.08916,-19.82464 8.12518,0 7.23039,18.10436 -1.43952,29.12638 -2.62971,3.34311 -4.78126,7.95551 -4.78126,10.24979 0,7.61397 -10.23832,14.36215 -21.68375,14.29196 -9.6623,-0.0592 -11.508899,-1.16112 -21.251059,-12.6807 z m 193.427629,0.62265 c 0,-15.26101 6.08447,-24.73582 34.84207,-54.25634 19.95781,-20.48728 30.31288,-29.43452 32.91174,-28.43722 5.80493,2.22754 4.80242,5.40419 -8.96446,28.40537 -15.78722,26.37673 -26.09077,39.81615 -30.52562,39.81615 -1.86665,0 -7.50266,4.44078 -12.52448,9.86839 -10.12839,10.94682 -15.73925,12.58798 -15.73925,4.60365 z"
       id="path3320"
       inkscape:connector-curvature="0" />
  </g>
</svg>
