<?xml version="1.0" encoding="UTF-8" standalone="no"?>
<!-- Created with Inkscape (http://www.inkscape.org/) -->

<svg
   xmlns:dc="http://purl.org/dc/elements/1.1/"
   xmlns:cc="http://creativecommons.org/ns#"
   xmlns:rdf="http://www.w3.org/1999/02/22-rdf-syntax-ns#"
   xmlns:svg="http://www.w3.org/2000/svg"
   xmlns="http://www.w3.org/2000/svg"
   xmlns:sodipodi="http://sodipodi.sourceforge.net/DTD/sodipodi-0.dtd"
   xmlns:inkscape="http://www.inkscape.org/namespaces/inkscape"
   width="512"
   height="512"
   id="svg2"
   version="1.1"
   inkscape:version="0.48.4 r9939"
   sodipodi:docname="26.svg">
  <defs
     id="defs4" />
  <sodipodi:namedview
     id="base"
     pagecolor="#ffffff"
     bordercolor="#666666"
     borderopacity="1.0"
     inkscape:pageopacity="0.0"
     inkscape:pageshadow="2"
     inkscape:zoom="1.1074219"
     inkscape:cx="146.28571"
     inkscape:cy="256"
     inkscape:document-units="px"
     inkscape:current-layer="layer1"
     showgrid="false"
     inkscape:window-width="1276"
     inkscape:window-height="782"
     inkscape:window-x="0"
     inkscape:window-y="14"
     inkscape:window-maximized="0" />
  <metadata
     id="metadata7">
    <rdf:RDF>
      <cc:Work
         rdf:about="">
        <dc:format>image/svg+xml</dc:format>
        <dc:type
           rdf:resource="http://purl.org/dc/dcmitype/StillImage" />
        <dc:title></dc:title>
      </cc:Work>
    </rdf:RDF>
  </metadata>
  <g
     inkscape:label="Layer 1"
     inkscape:groupmode="layer"
     id="layer1"
     transform="translate(0,-540.36215)">
    <path
       style="fill:#000000"
       d="m 155.63706,1050.7976 c 0,-1.3505 3.83107,-7.1308 8.51349,-12.845 4.68243,-5.7143 8.5135,-12.6214 8.5135,-15.349 0,-2.7277 -4.92566,-10.4379 -10.94592,-17.1339 -6.02026,-6.69594 -10.94593,-14.00113 -10.94593,-16.23374 0,-6.06083 4.57768,-14.05484 11.30845,-19.74796 4.61982,-3.9076 6.31537,-8.26016 7.43185,-19.07804 1.35659,-13.14404 1.03573,-14.34304 -5.16078,-19.28395 -5.79906,-4.624 -6.30041,-6.07572 -4.09838,-11.86748 3.36269,-8.84455 13.1286,-11.19693 23.43713,-5.6454 11.53635,6.21274 13.34805,12.11948 9.91545,32.32787 -1.93597,11.39746 -5.23908,20.52923 -9.81334,27.12989 l -6.89513,9.94968 9.88823,9.5962 c 16.60794,16.11743 17.88263,34.20903 3.55561,50.46483 -5.68551,6.451 -8.9043,7.8344 -20.71777,8.9045 -8.62668,0.7814 -13.98646,0.326 -13.98646,-1.1885 z m 183.68165,-9.3013 c -2.29509,-3.7136 5.17268,-26.0686 16.03488,-48.00111 14.05479,-28.37882 31.6493,-43.22697 40.60737,-34.2689 4.8805,4.8805 3.5097,8.39623 -12.38091,31.75389 -8.41491,12.36912 -17.37377,27.22082 -19.90855,33.00382 -6.53071,14.8994 -19.98712,24.5761 -24.35279,17.5123 z m -227.8815,-10.6026 c -4.91129,-5.7814 -11.30836,-14.8035 -14.215673,-20.049 -2.90734,-5.2456 -6.27752,-10.5773 -7.48928,-11.84821 -6.43484,-6.74913 2.26963,-30.52697 11.175163,-30.52697 4.94875,0 13.04144,11.53431 16.01749,22.82931 1.45039,5.50466 4.77868,14.38687 7.39621,19.73817 2.61754,5.3513 4.98782,14.1078 5.2673,19.4589 0.73462,14.0657 -6.4074,14.2222 -18.15121,0.3978 z m -75.458623,-1.0054 c -7.05706,-8.2168 -6.90593,-12.6993 0.90557,-26.8591 4.21262,-7.63623 9.52403,-16.07323 11.80316,-18.7489 11.47012,-13.46587 21.81475,-31.5843 21.81475,-38.20819 0,-3.99132 2.25269,-10.42057 5.00601,-14.28723 2.75329,-3.86666 5.90511,-12.24509 7.004,-18.61871 1.09893,-6.37364 3.95268,-16.63851 6.34171,-22.81085 4.26558,-11.02065 4.25196,-11.35122 -0.7576,-18.3865 -4.48907,-6.3043 -20.32153,-35.53523 -31.72167,-58.5666 -3.32885,-6.72523 -5.21726,-7.90539 -12.64947,-7.90539 -4.80505,0 -10.04995,-1.31351 -11.65535,-2.91891 -4.01959,-4.01959 -3.59783,-26.73346 0.84651,-45.58909 2.03144,-8.6186 3.18614,-16.99243 2.56599,-18.60851 -0.62014,-1.61606 1.57264,-6.59815 4.87284,-11.07134 5.53747,-7.50562 5.97205,-10.06746 5.63324,-33.20768 -0.2019,-13.79104 0.29592,-25.73767 1.10631,-26.54806 0.81037,-0.81039 0.30355,-2.88303 -1.12633,-4.60592 -1.86312,-2.24494 -4.31426,-2.48064 -8.65074,-0.83192 -21.54365,8.19089 -26.09942,-5.24976 -4.85617,-14.32695 5.48593,-2.34413 6.67336,-4.11725 5.60913,-8.37573 -0.74255,-2.97114 -2.27401,-9.21766 -3.40324,-13.88114 -2.01689,-8.32929 -6.64342,-12.52771 -24.7075597,-22.42127 -14.885,-8.15238 -6.87012,-23.63313 10.5442197,-20.36618 8.96773,1.68236 30.67734,17.08109 40.25393,28.55228 9.89147,11.8484 11.85979,7.91108 10.84143,-21.68646 -1.47838,-42.96671 4.39888,-55.14539 16.48778,-34.16538 6.4786,11.24349 10.57766,29.13558 13.140883,57.35904 0.88472,9.74151 2.50761,18.26749 3.60644,18.9466 1.97498,1.22062 56.35189,-37.94313 59.29579,-42.70646 2.33296,-3.77484 7.83419,-2.93253 9.51877,1.45744 2.39319,6.23655 -6.69317,18.2858 -25.56738,33.90447 -28.09719,23.25076 -32.04284,27.45988 -30.14498,32.1578 2.02434,5.01109 1.80673,60.63214 -0.29484,75.35242 -1.13421,7.94462 -2.52744,10.33782 -6.01821,10.33782 -4.71325,0 -5.93936,-3.16948 -7.99836,-20.67564 -3.00094,-25.51467 -11.445043,-52.88029 -19.199503,-62.22159 -4.3134,-5.19603 -9.18263,-9.46708 -10.82058,-9.49119 -5.218,-0.0769 -11.2134,14.50146 -8.37108,20.35492 6.55758,13.50468 8.2992,24.93327 6.79056,44.56014 -1.1953,15.55018 -0.72302,21.96366 2.00597,27.24094 3.97668,7.69005 5.54983,37.43295 2.77837,52.52962 -1.65069,8.99159 -0.75823,11.35594 11.76427,31.16649 7.45277,11.79024 13.550473,22.24779 13.550473,23.23903 0,0.99121 3.83108,5.51545 8.5135,10.05383 10.07172,9.76189 10.46628,14.5233 2.64641,31.93574 -3.22691,7.18529 -6.62766,19.98731 -7.55724,28.44893 -1.36055,12.38436 -3.06262,16.78874 -8.727483,22.58383 -4.73348,4.84228 -7.068,9.75965 -7.13102,15.02061 -0.0722,6.03385 -1.82284,8.93343 -7.65909,12.68637 -9.32216,5.99455 -25.18256,33.52637 -27.53868,47.80397 -0.95974,5.8158 -2.84986,11.9425 -4.20025,13.6148 -3.4926,4.3252 -10.21666,3.7609 -14.49119,-1.2162 z m 29.17323,-242.82176 c 0.47238,-4.83759 -1.03242,-9.56874 -4.25512,-13.37836 -4.88782,-5.77799 -5.0578,-5.80105 -8.63621,-1.17233 -7.03505,9.09991 -2.51779,24.1247 6.85212,22.79076 3.94039,-0.56094 5.49673,-2.68448 6.03921,-8.24007 z M 432.04664,1027.3801 c -0.64586,-1.045 0.36134,-10.6227 2.23827,-21.2837 1.87691,-10.66103 2.78725,-22.82903 2.02298,-27.04003 -1.44099,-7.93976 5.59906,-27.78823 11.05147,-31.15799 8.2218,-5.08135 16.2279,21.48238 12.06234,40.02198 -1.30417,5.80443 -1.76657,12.12914 -1.02755,14.05504 2.18427,5.6921 -3.35573,22.155 -8.35598,24.831 -5.4697,2.9273 -16.32303,3.2734 -17.99153,0.5737 z M 259.00966,998.26676 c 2.49105,-25.59758 5.11498,-31.63509 16.20844,-37.29454 12.26853,-6.25893 22.43127,-5.44906 23.47315,1.87061 0.501,3.51972 -1.29155,6.66159 -5.29863,9.28713 -3.97712,2.60591 -7.48748,8.71198 -10.22673,17.78883 -6.05196,20.05391 -9.53797,24.76691 -18.31925,24.76691 l -7.43482,0 1.59784,-16.41894 z m -36.46913,0 c -0.78373,-5.01688 -2.47521,-13.07967 -3.75885,-17.91731 -3.4073,-12.84093 -2.85212,-35.12025 1.11154,-44.60665 1.89503,-4.53538 6.2734,-10.09907 9.72971,-12.36376 7.24492,-4.74706 7.88888,-10.42636 2.38831,-21.0633 -4.90091,-9.47732 -4.81871,-31.07643 0.15494,-40.69425 4.43065,-8.56792 4.83205,-14.77338 0.95563,-14.77338 -1.53201,0 -7.55162,3.01013 -13.37692,6.68918 -8.96727,5.66339 -11.18348,8.72273 -14.45215,19.95021 -2.12339,7.29357 -4.61108,17.6922 -5.52823,23.10807 -1.47733,8.72381 -2.5027,9.92946 -8.98933,10.56973 -4.82596,0.47637 -10.1971,-1.3617 -15.75693,-5.39221 -4.63934,-3.3632 -10.95422,-7.95586 -14.03304,-10.20591 -7.21383,-5.27195 -9.52913,-2.89001 -14.06148,14.46629 -6.00413,22.9923 -12.35328,35.24804 -20.98762,40.51235 -17.13748,10.4486 -21.3843,3.73925 -9.21781,-14.56272 5.03904,-7.5802 7.27965,-13.94263 7.28687,-20.6917 0.0146,-14.337 3.43411,-23.92886 12.98912,-36.44266 8.4028,-11.00482 8.50419,-11.42086 7.1491,-29.338 -1.16024,-15.34099 -0.6918,-18.92931 3.00417,-23.01333 6.0398,-6.6739 10.5816,-6.05478 13.57668,1.85074 1.39385,3.67905 4.80557,9.11397 7.58166,12.07759 4.47637,4.77879 4.8596,7.22137 3.38742,21.59072 -1.37298,13.40102 -0.94682,16.99034 2.46485,20.76019 7.38444,8.15972 10.66812,5.70003 10.66812,-7.99111 0,-11.85517 0.63881,-13.1375 11.55403,-23.19328 6.35472,-5.85437 18.66889,-14.54079 27.36482,-19.30319 8.69593,-4.76238 18.1665,-10.83445 21.04571,-13.49351 6.09773,-5.63146 16.24417,-5.12339 17.3861,0.87059 0.42837,2.24852 -3.11789,8.40144 -7.88056,13.67317 -8.52345,9.43432 -10.89655,15.07636 -6.34139,15.07636 1.27494,0 3.41839,3.98497 4.76321,8.85552 1.90011,6.88163 1.65451,9.98432 -1.10187,13.9196 -2.03219,2.90133 -3.54701,10.60877 -3.54701,18.04711 0,11.09238 1.23978,14.60673 8.5135,24.13282 12.36252,16.19071 10.19219,29.82274 -4.174,26.21705 -8.35396,-2.0967 -11.72032,6.73056 -14.20263,37.24196 -2.45179,30.13616 -3.68671,34.55866 -9.64998,34.55866 -3.4299,0 -4.95106,-2.3066 -6.01569,-9.12164 z m 112.1896,-21.35409 c -4.5377,-11.82503 4.0047,-37.2073 17.8162,-52.93771 4.09985,-4.66951 9.78206,-13.75227 12.6271,-20.18395 5.18039,-11.71112 12.87525,-20.22374 18.4182,-20.37555 5.33961,-0.14619 8.46908,-9.23077 5.26491,-15.2836 -4.4717,-8.44732 -14.64934,-21.28375 -16.87523,-21.28375 -1.09829,0 -2.33662,4.08553 -2.75183,9.07896 -0.64647,7.77414 -2.6118,10.46122 -13.67507,18.69679 -10.76228,8.01154 -12.68285,10.56306 -11.49962,15.27745 0.96602,3.8489 -1.6513,11.6805 -8.18081,24.47879 -5.28071,10.35057 -10.79004,23.35868 -12.24295,28.90693 -2.8654,10.94201 -8.37901,14.86685 -14.15308,10.07477 -2.90765,-2.41313 -3.34612,-6.62831 -2.15516,-20.71759 1.22809,-14.5281 0.86419,-17.68811 -2.03684,-17.68811 -5.81224,0 -8.92881,-8.45322 -5.99467,-16.25964 3.68985,-9.81699 20.38652,-26.27881 39.2329,-38.68103 8.94618,-5.88721 16.98832,-11.87307 17.87139,-13.30193 0.88307,-1.42883 4.23576,-3.59788 7.45038,-4.82008 4.85669,-1.8465 5.84479,-3.90429 5.84479,-12.17201 0,-12.16161 3.54538,-19.35972 9.53553,-19.35972 6.66928,0 11.01379,8.77734 14.36478,29.02161 1.64561,9.94163 4.0191,19.31322 5.2744,20.82577 1.2553,1.51256 2.55035,9.53561 2.87788,17.82897 0.56109,14.20811 0.14449,15.49085 -7.21504,22.21272 -4.29582,3.9236 -7.81056,8.57997 -7.81056,10.3475 0,5.32998 -9.57559,21.48401 -16.05327,27.0818 -3.34067,2.88693 -10.13503,13.45841 -15.09854,23.49217 -6.46795,13.07496 -10.4815,18.45192 -14.16729,18.97993 -3.02669,0.43358 -5.7705,-0.89932 -6.6685,-3.23949 z m 135.17665,-21.09178 c -3.93526,-3.93525 -3.67489,-15.83318 0.7153,-32.68826 3.73361,-14.3343 6.48347,-17.80425 14.1608,-17.869 11.80776,-0.0995 17.4651,10.33149 11.54104,21.27951 -1.25703,2.32307 -2.87622,6.96022 -3.59822,10.30481 -3.54565,16.42514 -15.46024,26.33162 -22.81892,18.97294 z m -60.81071,-7.29728 c -5.05178,-5.05179 -3.42327,-19.99955 3.15416,-28.95105 3.34018,-4.5458 8.38791,-13.19077 11.21717,-19.21103 2.82923,-6.02026 7.48484,-12.82619 10.34582,-15.1243 5.09007,-4.0887 5.10851,-4.34415 0.8586,-11.90166 -2.3887,-4.24779 -5.5193,-16.04991 -6.95685,-26.22697 -3.6843,-26.08259 -3.36288,-25.44906 -10.5293,-20.75346 -12.16732,7.97234 -17.30607,-2.03431 -10.0109,-19.49411 2.75971,-6.60489 3.04635,-15.50284 1.46666,-45.5299 -2.01031,-38.21211 -1.17168,-43.44093 6.95516,-43.36448 9.17152,0.0864 10.80857,4.01407 12.69631,30.46201 1.02346,14.33955 2.84506,27.05609 4.04797,28.259 1.29449,1.29449 6.00615,-0.84792 11.54484,-5.24952 5.14677,-4.09015 13.84628,-8.56684 19.33223,-9.94822 7.77458,-1.95767 11.03379,-4.47343 14.77759,-11.4067 5.14911,-9.53587 18.57711,-19.99167 25.67457,-19.99167 6.20072,0 8.30971,8.90846 3.6311,15.33797 -14.94856,20.54288 -16.47897,23.85502 -18.51506,40.07051 -1.16338,9.26519 -3.92452,21.65951 -6.13587,27.54292 -2.21134,5.88339 -3.8373,16.50724 -3.6132,23.60854 0.38997,12.35786 -5.80511,34.5209 -9.64939,34.5209 -4.25622,0 -6.69777,-7.39025 -9.02942,-27.33084 -2.69503,-23.04847 -0.62672,-41.40019 5.41889,-48.08049 3.90337,-4.31318 4.95354,-12.15608 1.62773,-12.15608 -3.71266,0 -23.43469,14.1855 -31.90764,22.9503 -7.56884,7.82952 -7.88112,8.67126 -3.21708,8.67126 8.89069,0 14.36339,10.13873 16.0142,29.66784 0.82698,9.78311 2.77263,21.42782 4.32369,25.8772 2.00116,5.74053 2.08114,9.62224 0.2754,13.36689 -1.39959,2.90243 -3.10691,9.36001 -3.79405,14.35021 -0.68714,4.9902 -3.92898,12.65235 -7.20407,17.027 -3.2751,4.37465 -7.85385,11.78499 -10.17505,16.46742 -5.02393,10.13459 -13.15449,19.45942 -16.96713,19.45942 -1.50599,0 -4.05167,-1.31351 -5.65708,-2.91891 z M 271.33083,929.4129 c -0.93026,-9.44062 -4.35548,-24.24261 -7.61158,-32.89332 -7.29156,-19.37188 -7.29188,-19.32185 0.16079,-25.80193 4.22286,-3.67173 6.08107,-7.77606 6.08107,-13.43163 0,-11.49536 12.86934,-35.64704 28.92349,-54.28022 13.3325,-15.47435 13.65154,-16.18579 12.81566,-28.57957 -0.94962,-14.08045 -2.95674,-14.27565 -10.22091,-0.99403 -14.04477,25.67907 -18.74352,30.32257 -25.23329,24.93657 -5.54389,-4.60104 -4.75933,-14.53157 2.43963,-30.88002 11.60208,-26.3477 23.18739,-36.13382 32.15758,-27.16363 2.29344,2.29344 3.80437,2.06822 6.90128,-1.0287 3.66507,-3.66503 3.50183,-5.12926 -2.15768,-19.35517 -3.36748,-8.46461 -6.92782,-19.22127 -7.91189,-23.90369 -2.59287,-12.33754 -5.70217,-15.20917 -14.65037,-13.53048 -5.74782,1.0783 -8.72327,0.25416 -11.9483,-3.30949 -5.44818,-6.02016 -3.68117,-8.74935 9.5745,-14.78799 14.02234,-6.38793 17.00196,-6.14604 22.5523,1.83071 14.88547,21.39287 24.78917,53.59425 20.37641,66.25276 -1.5122,4.33787 -2.11245,8.91769 -1.3339,10.1774 0.77852,1.25973 2.35574,7.97518 3.50486,14.92326 1.14913,6.94809 3.33114,18.85047 4.84893,26.44971 1.75986,8.81131 2.0165,18.48524 0.70842,26.70318 -1.77059,11.12342 -2.99067,13.21674 -8.91845,15.30143 -5.90214,2.07569 -7.46863,1.61781 -11.14643,-3.25797 l -4.2792,-5.67305 -9.05005,7.94606 c -9.9254,8.71461 -16.92627,20.78882 -19.68326,33.94716 -0.98107,4.68242 -3.44821,10.40109 -5.48249,12.70817 -4.27519,4.84839 -3.01215,17.91931 3.52196,36.44746 4.00049,11.34385 3.97609,11.58142 -2.56125,24.93239 -3.63011,7.41367 -7.51964,13.4794 -8.64337,13.4794 -1.12373,0 -2.80427,-7.72416 -3.73453,-17.16477 z M 40.393127,910.71832 c -0.86959,-6.34428 -3.21348,-18.11115 -5.20863,-26.1486 -4.41386,-17.78105 -2.22275,-36.00159 4.48469,-37.29333 7.18948,-1.38457 10.67588,3.8302 12.34426,18.46398 0.87446,7.67002 3.0354,18.1326 4.80212,23.25014 1.7667,5.11754 2.70995,11.93196 2.0961,15.14316 -1.07579,5.62752 -11.53256,18.11971 -15.16738,18.11971 -0.97356,0 -2.48159,-5.19077 -3.35116,-11.53506 z m 59.32021,-101.54619 c -1.94112,-2.3389 -2.4189,-6.75142 -1.34868,-12.45612 1.994033,-10.62913 17.851713,-41.53804 27.703313,-53.99779 3.90429,-4.93793 9.5288,-14.15652 12.49894,-20.48579 7.92006,-16.87736 25.91338,-26.82859 31.25417,-17.28515 3.48552,6.22828 -2.9445,18.92718 -21.52222,42.50505 -22.84907,28.9988 -28.55112,38.25329 -30.51805,49.531 -0.93332,5.35134 -2.78284,11.09795 -4.11003,12.77025 -3.27438,4.12576 -10.2935,3.83336 -13.957443,-0.58145 z m 67.275053,-5.29693 c -1.95932,-1.95932 -2.06547,-12.28889 -0.19775,-19.24435 0.78903,-2.93837 7.95073,-8.84732 17.10272,-14.1111 20.4447,-11.75875 22.89873,-16.95553 16.6065,-35.16678 -4.42004,-12.7927 -5.2683,-13.73775 -11.89613,-13.25352 -3.92518,0.28676 -8.57008,-0.66822 -10.32198,-2.12218 -3.95309,-3.28078 -4.14442,-12.27787 -0.34193,-16.08036 1.56383,-1.56384 3.03703,-6.43477 3.2738,-10.82431 0.23668,-4.38954 1.24446,-10.90893 2.23937,-14.48757 1.62781,-5.85505 1.11731,-6.58575 -5.0981,-7.29728 -10.8739,-1.2448 -10.12822,-9.17648 2.76338,-29.39393 6.17696,-9.68709 20.34065,-27.44367 31.47487,-39.45904 17.83605,-19.24759 20.71597,-21.4545 24.21147,-18.55349 5.93656,4.9269 4.87232,9.61925 -4.54607,20.0443 -10.09243,11.17112 -10.69436,15.99793 -2.38881,19.15571 6.92152,2.63155 11.29148,11.73876 11.66366,24.3077 0.30615,10.33886 -13.64993,39.66803 -21.73224,45.67095 -5.48935,4.07709 -5.57254,4.70162 -2.9884,22.43704 1.46196,10.03376 3.65543,19.31871 4.87436,20.63319 1.40266,1.51258 5.83384,-1.84222 12.07042,-9.13839 11.21911,-13.12524 28.83366,-24.46558 34.57779,-22.26134 2.1302,0.81744 4.59201,3.75132 5.47065,6.51973 1.24478,3.92193 -0.61482,6.87123 -8.42089,13.35537 -7.51144,6.23942 -10.01847,10.08346 -10.01847,15.36137 0,4.85491 -1.91809,8.29626 -6.18075,11.08927 -7.58142,4.96753 -16.81212,20.49331 -20.49968,34.47989 -4.52188,17.15108 -21.96813,20.24014 -21.96813,3.88972 0,-4.53928 -0.61925,-8.25325 -1.37612,-8.25325 -3.41066,0 -12.84534,6.32482 -22.28572,14.93985 -10.33706,9.43335 -13.07466,10.75595 -16.06782,7.7628 z m 34.73566,-141.28353 c 7.55007,-4.24982 11.73289,-12.63498 8.72809,-17.49687 -2.76757,-4.478 -5.48097,-2.81264 -8.69187,5.33473 -1.71357,4.34797 -5.40378,9.79658 -8.20049,12.10804 -6.61893,5.47051 -1.51835,5.5043 8.16427,0.054 z m 159.02248,62.15956 c -1.3545,-1.74524 -3.1787,-5.17499 -4.05376,-7.62162 -0.87507,-2.44666 -5.50449,-10.34432 -10.28759,-17.55039 -5.20849,-7.84689 -8.38035,-15.33103 -7.90819,-18.65962 0.67339,-4.7469 2.43401,-5.6642 12.06859,-6.28787 10.61244,-0.68699 11.59611,-0.21892 16.61728,7.90539 2.9354,4.74956 5.74534,8.63558 6.24433,8.63558 0.49901,0 3.64375,-2.73648 6.98834,-6.08107 7.06414,-7.06413 13.61581,-7.94543 13.56225,-1.82432 -0.0598,6.83099 -3.12387,9.8417 -10.91659,10.72645 -6.73795,0.76497 -7.39025,1.70538 -8.62294,12.43139 -1.51717,13.20176 -9.43923,23.80525 -13.69172,18.32608 z m 69.36434,-3.19932 c -1.79195,-2.16435 -7.79319,-8.86433 -13.33611,-14.88882 -8.29241,-9.01285 -10.36598,-13.2582 -11.70316,-23.96056 -3.55594,-28.46082 7.81096,-52.38356 16.17141,-34.03434 3.46244,7.59922 6.65342,6.71294 12.62134,-3.50555 5.03612,-8.62303 4.85724,-9.75856 -5.78025,-36.6925 -6.89891,-17.46787 -11.30435,-33.45907 -13.38464,-48.58449 -1.5521,-11.28525 -1.29385,-12.22621 3.35552,-12.22621 2.77036,0 6.63683,2.46283 8.59216,5.47296 3.6788,5.66335 15.76063,39.03481 20.69498,57.16207 1.62121,5.95582 4.27063,10.33782 6.25041,10.33782 1.89,0 6.95492,-4.37838 11.25538,-9.72972 8.41689,-10.47367 12.00083,-11.78484 16.7083,-6.11267 4.66851,5.62521 1.17832,14.03424 -13.00853,31.34199 -7.17573,8.75426 -14.39311,19.52043 -16.03862,23.9248 -6.7903,18.17501 -7.32266,18.95387 -12.95548,18.95387 -3.1057,0 -6.96025,-1.31351 -8.56565,-2.91891 -2.27026,-2.27026 -2.91892,-1.51285 -2.91892,3.40837 0,4.65279 2.25307,7.65665 8.5135,11.35039 9.35493,5.51954 10.09874,8.93528 5.08366,23.34523 -3.83709,11.02512 -6.90221,12.97642 -11.5553,7.35627 z m -87.17684,-57.18807 c 0,-4.99509 -11.71545,-8.22954 -18.54199,-5.11917 -8.30596,3.78445 -17.94444,-1.87537 -17.94444,-10.53718 0,-3.22666 -1.04628,-8.6186 -2.32508,-11.98209 -5.12992,-13.49268 5.85553,-47.20154 16.75736,-51.41997 1.91748,-0.74197 5.70101,0.86562 8.40781,3.57245 4.35733,4.35731 4.58506,5.85184 1.98661,13.03767 -5.47116,15.13029 -2.00733,34.73483 7.5354,42.64869 3.47064,2.8782 4.79743,1.4131 11.42672,-12.61783 8.09999,-17.14363 8.09303,-16.94909 2.14294,-59.96269 -2.87831,-20.8076 -0.40796,-31.62157 7.22361,-31.62157 7.44926,0 9.1508,4.59292 11.88198,32.07249 2.17882,21.922 3.57352,27.28968 8.90803,34.2836 3.47862,4.56068 6.32475,9.48459 6.32475,10.94201 0,1.45741 -5.47296,9.46927 -12.16214,17.80413 -6.68917,8.33489 -12.16214,16.53738 -12.16214,18.22779 0,3.74623 -11.5433,13.15625 -16.13882,13.15625 -1.82634,0 -3.3206,-1.11806 -3.3206,-2.48458 z m -64.8723,-28.58906 c -1.56495,-0.99552 -5.12039,-7.58178 -7.90097,-14.63616 -2.78058,-7.05438 -6.66257,-15.27871 -8.62668,-18.27629 -4.6221,-7.05424 -7.67599,-46.68618 -3.78284,-49.09227 1.51618,-0.93707 5.34594,-1.05389 8.51056,-0.25963 6.3356,1.59012 9.62344,9.54341 11.96193,28.93585 0.77455,6.42331 4.15801,16.37082 7.5188,22.10556 7.03004,11.99586 7.70331,20.02122 2.32394,27.70135 -4.06872,5.8089 -5.57536,6.33922 -10.00474,3.52159 z"
       id="path3475"
       inkscape:connector-curvature="0" />
  </g>
</svg>
