<?xml version="1.0" encoding="UTF-8" standalone="no"?>
<!-- Created with Inkscape (http://www.inkscape.org/) -->

<svg
   xmlns:dc="http://purl.org/dc/elements/1.1/"
   xmlns:cc="http://creativecommons.org/ns#"
   xmlns:rdf="http://www.w3.org/1999/02/22-rdf-syntax-ns#"
   xmlns:svg="http://www.w3.org/2000/svg"
   xmlns="http://www.w3.org/2000/svg"
   xmlns:sodipodi="http://sodipodi.sourceforge.net/DTD/sodipodi-0.dtd"
   xmlns:inkscape="http://www.inkscape.org/namespaces/inkscape"
   width="128"
   height="128"
   id="svg2"
   version="1.1"
   inkscape:version="0.48.4 r9939"
   sodipodi:docname="30.svg">
  <defs
     id="defs4" />
  <sodipodi:namedview
     id="base"
     pagecolor="#ffffff"
     bordercolor="#666666"
     borderopacity="1.0"
     inkscape:pageopacity="0.0"
     inkscape:pageshadow="2"
     inkscape:zoom="1.1074219"
     inkscape:cx="64"
     inkscape:cy="64"
     inkscape:document-units="px"
     inkscape:current-layer="layer1"
     showgrid="false"
     inkscape:window-width="1276"
     inkscape:window-height="782"
     inkscape:window-x="0"
     inkscape:window-y="14"
     inkscape:window-maximized="0" />
  <metadata
     id="metadata7">
    <rdf:RDF>
      <cc:Work
         rdf:about="">
        <dc:format>image/svg+xml</dc:format>
        <dc:type
           rdf:resource="http://purl.org/dc/dcmitype/StillImage" />
        <dc:title></dc:title>
      </cc:Work>
    </rdf:RDF>
  </metadata>
  <g
     inkscape:label="Layer 1"
     inkscape:groupmode="layer"
     id="layer1"
     transform="translate(0,-924.36215)">
    <path
       inkscape:connector-curvature="0"
       style="fill:#800000"
       d="m 12.250914,929.09963 c -0.162953,0.0141 -0.30857,0.0405 -0.459681,0.0985 -1.9217038,0.73743 -2.4118327,4.43916 -0.722354,5.48333 1.933724,1.1951 1.071743,2.62674 -1.5760449,2.62674 -3.495281,0 -9.3606818,7.7364 -7.9130624,10.44131 1.213692,2.2678 14.5294803,14.77541 15.7276213,14.77541 0.486631,0 1.455825,1.40218 2.167063,3.11926 1.191143,2.87569 10.245115,12.12669 17.106662,17.50068 3.603733,2.82246 3.643406,5.00175 0.131337,8.01157 -2.847569,2.44034 -16.616627,17.62956 -24.133198,26.62866 -3.9168941,4.6893 -4.3778241,5.8268 -4.9579776,12.7726 -0.54798,6.5605 -0.3589708,7.7274 1.2148692,8.5697 2.4943334,1.3349 6.7260584,-0.8615 15.2351064,-7.8802 3.801222,-3.1355 7.119693,-5.6803 7.387712,-5.6803 0.268013,0 0.229715,1.6548 -0.09845,3.6774 -0.492957,3.0377 -0.28227,3.6774 1.247702,3.6774 3.485717,0 9.018217,-4.4487 14.906762,-11.9516 7.739361,-9.8611 14.091415,-16.4173 15.858958,-16.4173 1.60881,0 18.618742,13.2711 24.330205,18.9783 2.058874,2.0574 5.397957,4.9443 7.420549,6.4355 2.022591,1.4913 6.388346,5.3612 9.686116,8.6026 3.29776,3.2415 6.50396,5.9102 7.12503,5.9102 0.62108,0 1.40759,0.7092 1.74022,1.576 0.33264,0.8668 1.26356,1.5761 2.06856,1.5761 2.47693,0 1.76865,-7.9036 -1.2477,-13.856 -2.72059,-5.3689 -2.4384,-7.108 1.2477,-7.158 2.45149,-0.033 3.70151,-2.9684 2.95508,-7.0265 -0.62163,-3.3796 -2.84556,-6.0136 -13.85606,-16.6142 -7.202769,-6.93463 -15.15974,-13.97157 -17.697678,-15.62914 -2.537939,-1.65757 -4.629633,-3.6418 -4.629633,-4.3998 0,-0.75798 5.070852,-6.01419 11.26216,-11.689 6.191304,-5.67481 12.928901,-11.9947 14.972431,-14.05307 2.04353,-2.05839 5.36512,-4.8772 7.38771,-6.27135 4.1967,-2.89274 10.50697,-9.2909 10.50697,-10.63831 0,-1.2847 -1.30545,-1.11097 -5.61466,0.68952 -5.74399,2.39999 -7.66338,2.03644 -8.37274,-1.51037 -0.71475,-3.57374 -4.18522,-5.13917 -6.69819,-3.05359 -0.9177,0.76161 -2.75771,3.0254 -4.10429,5.05648 -1.34657,2.03106 -5.039623,6.54715 -8.208568,10.01445 -5.211268,5.70191 -5.977712,6.17871 -7.913063,4.99081 -4.997652,-3.0675 -9.134708,-1.3534 -21.407953,8.83242 -1.633508,1.3557 -3.696047,2.46257 -4.563965,2.46257 -1.782087,0 -12.317426,-8.4541 -25.577906,-20.52142 -4.91201,-4.47004 -10.11296,-8.86741 -11.557668,-9.78462 -1.444709,-0.91719 -4.069643,-3.32199 -5.844502,-5.31915 -1.935227,-2.17764 -3.390494,-3.15241 -4.531131,-3.0536 z m 36.150544,65.20889 c 0.37448,-0.0559 0.547266,0.16408 0.361177,0.72235 -0.268084,0.80424 -2.117593,2.67556 -4.104286,4.16996 l -3.611769,2.72527 1.641713,-2.5611 c 1.529921,-2.37103 4.589739,-4.88894 5.713165,-5.05648 z"
       id="path3054" />
  </g>
</svg>
