<?xml version="1.0" encoding="UTF-8" standalone="no"?>
<!-- Created with Inkscape (http://www.inkscape.org/) -->

<svg
   xmlns:dc="http://purl.org/dc/elements/1.1/"
   xmlns:cc="http://creativecommons.org/ns#"
   xmlns:rdf="http://www.w3.org/1999/02/22-rdf-syntax-ns#"
   xmlns:svg="http://www.w3.org/2000/svg"
   xmlns="http://www.w3.org/2000/svg"
   xmlns:sodipodi="http://sodipodi.sourceforge.net/DTD/sodipodi-0.dtd"
   xmlns:inkscape="http://www.inkscape.org/namespaces/inkscape"
   width="512"
   height="512"
   id="svg2"
   version="1.1"
   inkscape:version="0.48.4 r9939"
   sodipodi:docname="8.svg">
  <defs
     id="defs4" />
  <sodipodi:namedview
     id="base"
     pagecolor="#ffffff"
     bordercolor="#666666"
     borderopacity="1.0"
     inkscape:pageopacity="0.0"
     inkscape:pageshadow="2"
     inkscape:zoom="1.1074219"
     inkscape:cx="146.28572"
     inkscape:cy="256"
     inkscape:document-units="px"
     inkscape:current-layer="layer1"
     showgrid="false"
     inkscape:window-width="1276"
     inkscape:window-height="782"
     inkscape:window-x="0"
     inkscape:window-y="14"
     inkscape:window-maximized="0" />
  <metadata
     id="metadata7">
    <rdf:RDF>
      <cc:Work
         rdf:about="">
        <dc:format>image/svg+xml</dc:format>
        <dc:type
           rdf:resource="http://purl.org/dc/dcmitype/StillImage" />
        <dc:title />
      </cc:Work>
    </rdf:RDF>
  </metadata>
  <g
     inkscape:label="Layer 1"
     inkscape:groupmode="layer"
     id="layer1"
     transform="translate(0,-540.36218)">
    <path
       style="fill:#000000"
       d=""
       id="path3133"
       inkscape:connector-curvature="0" />
    <path
       style="fill:#000000"
       d="m 152.82407,1002.0178 c -3.48882,-1.4114 -10.00981,-7.15253 -14.49105,-12.75817 -4.48129,-5.60562 -9.97266,-12.24901 -12.20309,-14.76309 -7.28246,-8.20862 -8.94998,-12.76798 -12.6616,-34.61889 -3.20421,-18.864 -2.93142,-24.93004 2.18211,-48.51989 6.41651,-29.60091 4.92708,-35.70879 -8.70772,-35.70879 -4.01031,0 -14.885515,-4.28579 -24.16708,-9.52399 -15.52898,-8.76403 -17.981361,-11.72571 -30.733004,-37.11576 -13.194732,-26.27225 -13.805063,-28.6286 -12.762579,-49.27285 1.260936,-24.9704 11.486616,-48.39444 23.895036,-54.7365 4.190141,-2.14164 11.732382,-5.98898 16.760548,-8.54963 5.028165,-2.56064 13.941734,-5.57334 19.807925,-6.69486 23.769584,-4.54439 41.332504,-9.0961 44.683884,-11.58056 1.9494,-1.44514 4.47696,-9.75794 5.61683,-18.47292 1.87286,-14.31896 4.01881,-17.82691 22.27661,-36.41516 11.11228,-11.31337 21.7701,-20.56977 23.6841,-20.56977 1.91398,0 6.97812,-2.75163 11.2536,-6.11474 10.17373,-8.00265 39.80307,-11.22652 55.82616,-6.0743 25.10846,8.07365 58.97968,33.68438 74.02024,55.96824 20.247,29.99759 21.74883,33.52471 20.93473,49.16569 l -0.79308,15.23686 24.84444,3.52561 c 13.66443,1.93907 30.12024,5.79071 36.56849,8.55922 31.4359,13.49675 32.65349,14.54099 44.53708,38.19684 10.77106,21.4412 11.28351,23.70375 8.28249,36.56849 -4.27699,18.33437 -9.25094,30.47373 -12.48625,30.47373 -1.4568,0 -8.40411,6.11601 -15.43849,13.59114 -8.27426,8.79267 -18.77443,15.88056 -29.74084,20.07575 -9.32306,3.56652 -19.88377,7.63642 -23.46818,9.04415 l -6.51708,2.55955 7.32491,15.30544 c 4.02868,8.41799 8.67349,16.13888 10.32175,17.15759 1.64824,1.01868 2.74984,11.02887 2.44797,22.24488 -0.46897,17.42385 -1.68834,21.53457 -8.37572,28.23571 -4.30475,4.31363 -14.68344,10.2695 -23.0637,13.23527 -8.38028,2.9658 -21.40781,7.92421 -28.95005,11.0187 -7.54226,3.09451 -20.96609,7.23028 -29.83074,9.19063 -15.55102,3.43899 -16.81468,3.20672 -35.94975,-6.60762 -19.34543,-9.92227 -20.03438,-10.04369 -28.06936,-4.94638 -33.09352,20.99411 -76.9868,31.72978 -96.85954,23.69038 z m 44.50085,-39.49607 c 27.80588,-8.65414 41.2459,-24.72667 30.04397,-35.9286 -1.87646,-1.87644 -4.51182,-8.66446 -5.85635,-15.08449 -1.34457,-6.41999 -4.54873,-17.15802 -7.12035,-23.86225 -2.57162,-6.70422 -4.73585,-17.16403 -4.80942,-23.24402 -0.0735,-6.07996 -2.19783,-12.76752 -4.72057,-14.86122 -6.82291,-5.6625 -34.11821,-2.25213 -41.56343,5.19309 -12.59726,12.59727 -21.5587,77.54779 -13.39525,97.08569 7.151,17.11476 18.55067,19.68739 47.4214,10.7018 z m 141.18735,-14.03209 c 3.50753,-2.45676 9.19536,-4.46684 12.63962,-4.46684 9.53815,0 19.80792,-8.63211 19.80792,-16.6493 0,-11.64696 -16.75281,-45.51514 -26.62148,-53.81907 -5.02548,-4.2287 -13.77624,-9.41526 -19.44609,-11.5257 -5.66984,-2.11046 -14.81215,-5.78058 -20.3162,-8.15583 -13.36078,-5.76585 -17.92181,-5.46061 -28.24507,1.89019 -4.79574,3.41486 -13.921,8.02928 -20.27834,10.25423 -11.49302,4.02233 -11.55278,4.13008 -10.49855,18.93197 1.74746,24.53495 29.19594,62.14493 50.76666,69.5606 12.6598,4.35222 31.14937,1.71399 42.19153,-6.02025 z m 74.54442,-124.63008 c 32.70732,-22.8447 35.82731,-29.15928 24.94599,-50.48842 -5.42921,-10.64214 -8.3385,-12.64423 -26.66453,-18.34973 -37.87936,-11.79309 -46.03454,-11.53105 -71.39057,2.29412 -12.27424,6.69242 -27.55326,13.86549 -33.95335,15.94014 -8.91286,2.88922 -11.16957,4.94891 -9.64149,8.79978 1.09726,2.76519 4.62469,11.97739 7.83873,20.47158 9.05993,23.94411 28.11507,32.0822 80.48152,34.37218 6.29665,0.27548 15.13104,-3.78321 28.3837,-13.03965 z m -259.03726,-7.70317 c 39.53558,-8.44876 41.22611,-9.62794 39.50362,-27.55452 -1.44198,-15.00706 -7.56303,-25.51376 -25.48619,-43.74669 -20.42207,-20.7751 -38.64457,-35.82032 -41.95691,-34.64132 -1.91461,0.68149 -10.81428,3.83317 -19.77706,7.00375 -24.511706,8.67099 -29.414614,17.35847 -29.414614,52.11959 0,33.86858 4.961669,43.10228 26.188184,48.73619 18.38467,4.87967 19.29931,4.84527 50.94297,-1.917 z m 73.97731,-65.95928 c 7.25053,-8.73634 17.23268,-10.59353 31.05548,-5.77791 7.07737,2.46566 14.35428,4.50295 16.17095,4.52735 1.81663,0.0244 12.31678,-8.57895 23.33368,-19.11852 17.17359,-16.42954 20.31695,-21.10223 22.03754,-32.75926 2.62689,-17.79746 -4.17933,-34.01018 -20.79017,-49.52308 -21.28691,-19.87988 -33.34494,-26.15368 -54.41524,-28.31241 -18.09509,-1.8539 -20.35999,-1.36279 -34.20302,7.41618 -8.15359,5.17084 -20.08247,16.64304 -26.50864,25.4938 -10.5665,14.55316 -11.51747,17.40379 -9.94283,29.80542 2.97832,23.45676 12.73541,45.46809 26.39394,59.54294 13.86276,14.28526 20.46275,16.42372 26.86831,8.70549 z"
       id="path3757"
       inkscape:connector-curvature="0" />
  </g>
</svg>
