<?xml version="1.0" encoding="UTF-8" standalone="no"?>
<!-- Created with Inkscape (http://www.inkscape.org/) -->

<svg
   xmlns:dc="http://purl.org/dc/elements/1.1/"
   xmlns:cc="http://creativecommons.org/ns#"
   xmlns:rdf="http://www.w3.org/1999/02/22-rdf-syntax-ns#"
   xmlns:svg="http://www.w3.org/2000/svg"
   xmlns="http://www.w3.org/2000/svg"
   xmlns:sodipodi="http://sodipodi.sourceforge.net/DTD/sodipodi-0.dtd"
   xmlns:inkscape="http://www.inkscape.org/namespaces/inkscape"
   width="990"
   height="765"
   id="svg2"
   version="1.1"
   inkscape:version="0.48.4 r9939"
   sodipodi:docname="alphabet.svg">
  <defs
     id="defs4" />
  <sodipodi:namedview
     id="base"
     pagecolor="#ffffff"
     bordercolor="#666666"
     borderopacity="1.0"
     inkscape:pageopacity="0.0"
     inkscape:pageshadow="2"
     inkscape:zoom="0.74117647"
     inkscape:cx="495"
     inkscape:cy="382.5"
     inkscape:document-units="px"
     inkscape:current-layer="layer1"
     showgrid="false"
     inkscape:window-width="1276"
     inkscape:window-height="782"
     inkscape:window-x="0"
     inkscape:window-y="14"
     inkscape:window-maximized="0"
     showguides="true"
     inkscape:guide-bbox="true" />
  <metadata
     id="metadata7">
    <rdf:RDF>
      <cc:Work
         rdf:about="">
        <dc:format>image/svg+xml</dc:format>
        <dc:type
           rdf:resource="http://purl.org/dc/dcmitype/StillImage" />
        <dc:title />
      </cc:Work>
    </rdf:RDF>
  </metadata>
  <g
     inkscape:label="Layer 1"
     inkscape:groupmode="layer"
     id="layer1"
     transform="translate(0,-287.36218)">
    <path
       inkscape:connector-curvature="0"
       style="fill:#000000"
       d="m 290.45246,790.99036 c -0.4886,-0.48861 -0.40765,-0.89993 0.49021,-2.49083 0.88194,-1.56274 1.04771,-2.98817 0.44915,-3.86221 -1.04379,-1.52419 -0.56081,-3.12444 0.94299,-3.12444 0.72966,0 0.89263,0.16667 1.53126,1.56596 1.23544,2.70696 0.67815,5.37864 -1.53147,7.34189 -1.0828,0.96207 -1.39517,1.0566 -1.88214,0.56963 z"
       id="path3956" />
    <path
       inkscape:connector-curvature="0"
       style="fill:#000000"
       d="m 141.04799,787.89062 c -0.25846,-0.67352 -0.20995,-0.83609 0.50198,-1.68217 0.85774,-1.01935 2.73691,-5.33563 3.46718,-7.96367 0.90223,-3.24704 1.10181,-4.85948 0.94477,-7.63306 -0.13554,-2.39373 -0.25099,-2.81568 -1.49001,-5.44683 -2.97387,-6.31529 -6.18208,-10.144 -8.77494,-10.47215 -1.415,-0.17908 -1.75912,-0.78343 -0.92252,-1.62007 1.46704,-1.46701 5.78878,1.18354 8.45115,5.18323 0.50884,0.76443 0.92518,1.50256 0.92518,1.64025 0,0.1377 0.44276,0.92161 0.98391,1.74204 2.27295,3.4459 3.40339,8.61273 2.85,13.02635 -0.14832,1.18282 -0.87748,3.97353 -1.62039,6.20158 -1.65751,4.97115 -2.10751,6.05845 -2.8318,6.84252 -0.67647,0.73233 -2.22968,0.84609 -2.48451,0.18198 z"
       id="path3954" />
    <path
       inkscape:connector-curvature="0"
       style="fill:#000000"
       d="m 108.50003,787.46874 c -3.72953,-0.61909 -6.67655,-4.33132 -7.3982,-9.31917 -0.59934,-4.14247 -0.0312,-10.94989 1.23441,-14.78839 0.38763,-1.17576 0.95968,-2.93432 1.27118,-3.90793 1.66572,-5.20583 2.90983,-7.57616 4.37391,-8.33327 1.12962,-0.58414 1.68898,-0.46298 2.25047,0.48755 0.49335,0.83517 0.49422,0.88051 0.0223,1.15745 -1.74124,1.02175 -3.4068,3.74625 -4.75462,7.77763 -0.56015,1.67547 -0.75558,2.44328 -1.87169,7.35321 -0.338,1.48699 -0.46015,3.22779 -0.44909,6.40002 0.0136,3.90772 0.0813,4.52612 0.65537,5.9915 1.30412,3.32902 2.05271,4.06778 5.52517,5.45252 1.31004,0.52244 1.8383,0.87291 1.8383,1.21968 0,0.43776 -0.57156,0.86792 -1.04353,0.78535 -0.10015,-0.0174 -0.84436,-0.14179 -1.6539,-0.27615 z"
       id="path3952" />
    <path
       inkscape:connector-curvature="0"
       style="fill:#000000"
       d="m 343.37431,782.60848 c -0.73842,-0.77075 -0.76057,-0.86488 -0.44851,-1.90639 0.30853,-1.02975 0.3905,-1.0956 1.36447,-1.0956 1.96455,0 2.56076,1.6505 1.09183,3.02266 -0.46519,0.43458 -0.93247,0.79012 -1.03841,0.79012 -0.10587,0 -0.54213,-0.36485 -0.96938,-0.81079 z"
       id="path3950" />
    <path
       inkscape:connector-curvature="0"
       style="fill:#000000"
       d="m 189.26864,782.69302 c -0.60318,-0.60316 0.44645,-4.88513 1.72459,-7.03547 0.26712,-0.44937 0.94171,-2.10384 1.49914,-3.67661 0.55743,-1.57277 1.44248,-3.77874 1.96676,-4.90214 1.25016,-2.67867 2.2527,-5.11245 2.52423,-6.12768 0.12015,-0.44936 0.52507,-1.85873 0.89975,-3.13192 0.37472,-1.2732 0.82032,-2.98895 0.99027,-3.81278 0.40216,-1.9498 1.07427,-2.85705 1.91812,-2.58923 0.58747,0.18647 0.61418,0.29622 0.45522,1.87025 -0.32344,3.20295 -3.73203,13.81976 -4.96262,15.45719 -0.15573,0.2072 -0.74674,1.60226 -1.31337,3.10014 -0.56663,1.49787 -1.18997,3.09107 -1.38521,3.54043 -0.36535,0.84104 -0.66669,1.92282 -1.42203,5.10506 -0.41538,1.74996 -0.48243,1.84985 -1.41579,2.10912 -1.16492,0.3236 -1.24411,0.32861 -1.47906,0.0936 z"
       id="path3948" />
    <path
       inkscape:connector-curvature="0"
       style="fill:#000000"
       d="m 477.99341,780.1408 c -0.68167,-0.39776 -1.14548,-2.01027 -0.7765,-2.6997 0.41001,-0.76611 1.51302,-0.71095 2.34104,0.1171 0.65588,0.65587 0.69328,1.05077 0.23914,2.5249 -0.12397,0.40233 -1.15641,0.43537 -1.80368,0.0578 z"
       id="path3946" />
    <path
       inkscape:connector-curvature="0"
       style="fill:#000000"
       d="m 397.45169,779.6301 c -1.22404,-1.22404 -0.70787,-1.91284 2.69979,-3.60268 0.37448,-0.18571 0.95301,-0.57737 1.28564,-0.87033 0.49847,-0.43904 0.678,-0.47191 1.02129,-0.18702 0.55933,0.4642 0.52752,1.72785 -0.0602,2.38844 -0.87824,0.98731 -2.92284,2.47457 -3.65425,2.65812 -0.53667,0.13471 -0.87119,0.0346 -1.29236,-0.38653 z"
       id="path3944" />
    <path
       inkscape:connector-curvature="0"
       style="fill:#000000"
       d="m 681.51436,778.73947 c -0.26973,-0.71441 0.15762,-3.9699 0.59408,-4.52563 0.50805,-0.64689 1.88485,-0.27183 2.42762,0.66132 l 0.49537,0.85164 -0.91807,1.7356 c -0.73222,1.3842 -1.06412,1.75301 -1.63946,1.82175 -0.54758,0.0654 -0.77874,-0.0659 -0.95954,-0.54468 z"
       id="path3942" />
    <path
       inkscape:connector-curvature="0"
       style="fill:#000000"
       d="m 564.70003,778.19032 c -0.83388,-0.83389 -0.18312,-2.52918 1.19128,-3.10347 0.8306,-0.34704 1.03588,-0.33735 1.92795,0.0912 1.64296,0.78913 1.76573,1.30164 0.57499,2.4004 -0.83211,0.76781 -1.2312,0.93871 -2.19234,0.93871 -0.64629,0 -1.32214,-0.14706 -1.50188,-0.3268 z"
       id="path3940" />
    <path
       inkscape:connector-curvature="0"
       style="fill:#000000"
       d="m 623.41407,773.27456 c -0.19179,-0.33703 -0.546,-1.16426 -0.78715,-1.8383 -0.24116,-0.67404 -0.52698,-1.43053 -0.63516,-1.68109 -0.46657,-1.0807 1.7592,-2.08542 2.6489,-1.19571 0.41309,0.41309 0.90799,4.5585 0.60313,5.05177 -0.31543,0.51037 -1.46844,0.29821 -1.82972,-0.33667 z"
       id="path3938" />
    <path
       inkscape:connector-curvature="0"
       style="fill:#000000"
       d="m 478.88461,770.78735 c -0.50535,-0.60891 -0.68365,-3.22169 -0.34075,-4.99327 0.17402,-0.89897 0.32697,-5.05547 0.35641,-9.68489 0.0337,-5.2835 0.15671,-8.32082 0.35318,-8.71491 0.21016,-0.42153 0.5468,-0.6049 1.11055,-0.6049 l 0.80899,0 0.0172,4.76597 c 0.0185,5.07339 -0.36235,15.48486 -0.65735,17.97452 -0.14708,1.24157 -0.2747,1.51176 -0.74572,1.57911 -0.31254,0.0446 -0.71868,-0.10003 -0.90257,-0.32163 z"
       id="path3936" />
    <path
       inkscape:connector-curvature="0"
       style="fill:#000000"
       d="m 398.15694,770.21981 c -0.23238,-0.23235 -0.47776,-1.22893 -0.58673,-2.38298 -0.103,-1.09097 -0.35265,-2.964 -0.55473,-4.1623 -0.20205,-1.1983 -0.45427,-3.55473 -0.56045,-5.23649 -0.20929,-3.31459 -0.046,-3.88694 1.10922,-3.88694 1.05441,0 1.32918,0.69684 1.54185,3.91025 0.11041,1.66896 0.33177,3.83105 0.49177,4.80467 0.16003,0.97362 0.36543,2.41588 0.45644,3.20505 0.091,0.78913 0.27264,1.50106 0.40366,1.58203 0.131,0.0809 0.2382,0.50597 0.2382,0.9445 0,0.65891 -0.17125,0.86885 -0.98645,1.20948 -1.19388,0.49881 -1.06773,0.49777 -1.55278,0.0128 z"
       id="path3934" />
    <path
       inkscape:connector-curvature="0"
       style="fill:#000000"
       d="m 565.1273,767.85156 c -0.5034,-0.50822 -0.78747,-1.46043 -1.40873,-4.72171 -0.42799,-2.24681 -0.93953,-4.75916 -1.13673,-5.58299 -0.19721,-0.82384 -0.43602,-2.17193 -0.53071,-2.99576 -0.34854,-3.03295 -0.97337,-7.17716 -1.11717,-7.40985 -0.21984,-0.35566 0.43716,-1.03272 1.00208,-1.03272 0.89878,0 1.2837,0.76217 1.61103,3.18971 0.63263,4.69211 1.1455,7.862 1.51085,9.33798 1.52184,6.14835 1.84957,8.89782 1.13159,9.4937 -0.36571,0.30353 -0.52801,0.26099 -1.06221,-0.27836 z"
       id="path3932" />
    <path
       inkscape:connector-curvature="0"
       style="fill:#000000"
       d="m 750.17799,768.1661 c -1.2584,-0.51899 -0.50312,-3.53838 0.88512,-3.53838 0.22468,0 0.66007,0.25156 0.96751,0.55901 0.43672,0.43673 0.54101,0.83895 0.4766,1.83831 -0.0777,1.20657 -0.12885,1.28253 -0.89943,1.33654 -0.44936,0.0314 -1.09278,-0.0566 -1.4298,-0.19548 z"
       id="path3930" />
    <path
       inkscape:connector-curvature="0"
       style="fill:#000000"
       d="m 683.22095,766.66217 c -0.66992,-1.02477 -0.67507,-5.07073 -0.01,-7.01418 0.24569,-0.71675 0.44667,-1.6887 0.44667,-2.15993 0,-0.47124 0.44615,-2.39715 0.99147,-4.27984 0.54528,-1.8827 1.38953,-5.18325 1.87607,-7.33459 0.94171,-4.16372 1.51857,-5.3481 2.60494,-5.3481 0.8396,0 0.94511,0.59664 0.42324,2.39358 -0.22666,0.78056 -0.66214,2.52218 -0.96773,3.87027 -0.30556,1.34808 -0.8661,3.58591 -1.24558,4.97297 -0.37951,1.38703 -0.87974,3.53173 -1.11167,4.76598 -0.23193,1.23422 -0.59198,2.9181 -0.80019,3.74194 -0.20818,0.82383 -0.46301,2.51564 -0.5663,3.75956 -0.12517,1.50754 -0.34431,2.4549 -0.65715,2.84126 l -0.46932,0.57959 -0.51548,-0.78851 z"
       id="path3928" />
    <path
       inkscape:connector-curvature="0"
       style="fill:#000000"
       d="m 623.63475,760.84513 c -0.72969,-0.8063 -1.23241,-3.57865 -1.2433,-6.85677 -0.005,-1.58271 -0.14483,-3.60485 -0.31013,-4.49363 -0.16532,-0.88881 -0.31851,-2.9028 -0.34044,-4.47557 l -0.0399,-2.85958 0.73061,-0.0844 c 0.49063,-0.0567 0.81303,0.0775 0.98144,0.4085 0.13797,0.27109 0.39999,2.51505 0.5823,4.98655 0.18229,2.47149 0.44535,5.70151 0.58452,7.17782 0.34805,3.69183 0.31698,5.70304 -0.0969,6.26904 -0.33103,0.45272 -0.37698,0.44879 -0.84826,-0.072 z"
       id="path3926" />
    <path
       inkscape:connector-curvature="0"
       style="fill:#000000"
       d="m 747.29573,759.54402 c -0.24443,-0.24444 -0.22357,-1.78185 0.0296,-2.17983 0.11161,-0.17535 0.56925,-0.40627 1.01712,-0.51317 0.44787,-0.10695 0.99813,-0.34952 1.22281,-0.53915 0.22468,-0.18966 0.83745,-0.52385 1.36171,-0.74267 1.56231,-0.65212 4.01101,-3.20571 4.23891,-4.42049 0.44778,-2.3869 -0.94298,-3.51107 -4.12104,-3.33102 -3.22468,0.18268 -5.77271,1.92493 -6.38054,4.36282 -0.3876,1.55441 -0.63841,1.94726 -1.30689,2.04704 -0.76994,0.11495 -1.51871,-1.28173 -1.17368,-2.18923 0.27103,-0.7128 2.06837,-3.14873 2.73058,-3.70068 0.2363,-0.19697 1.47137,-0.86857 2.74456,-1.49249 2.20333,-1.07967 2.43305,-1.13386 4.76597,-1.12451 1.65339,0.006 2.78151,0.15465 3.46639,0.4548 3.07008,1.34552 2.75106,5.90092 -0.63516,9.07016 -3.58861,3.35867 -7.03764,5.22108 -7.9603,4.29842 z"
       id="path3924" />
    <path
       inkscape:connector-curvature="0"
       style="fill:#000000"
       d="m 216.59353,686.88388 c -0.97362,-0.19502 -2.44427,-0.48578 -3.26809,-0.64619 -0.82384,-0.16038 -2.90724,-0.6662 -4.62981,-1.12406 -4.51007,-1.19874 -5.85519,-1.32189 -6.61743,-0.60582 -0.81969,0.77004 -2.2083,1.30536 -3.96142,1.52712 -1.30078,0.16453 -1.55394,0.10898 -2.38298,-0.52341 -0.83173,-0.63437 -0.92757,-0.84475 -0.92757,-2.03588 0,-1.54995 0.30995,-1.94561 2.04261,-2.60732 1.20637,-0.46072 3.86448,-0.4505 5.08944,0.0196 0.64362,0.24698 1.20812,-0.73307 2.31923,-4.02652 1.79838,-5.33058 2.05969,-8.6085 0.9008,-11.29974 -1.05656,-2.45352 -3.00453,-3.64921 -5.25682,-3.22667 -1.17088,0.21965 -4.4876,1.8503 -5.41212,2.6608 -0.81158,0.7115 -2.67372,5.13824 -2.68755,6.38888 -0.0119,1.04324 -0.57753,1.73645 -1.41781,1.73645 -1.22807,0 -1.34542,-0.49239 -0.76481,-3.20929 0.87914,-4.11402 2.72509,-6.28123 7.2952,-8.56491 2.64217,-1.32032 2.90026,-1.39341 4.90214,-1.38861 1.47193,0.004 2.40235,0.1512 3.06631,0.48674 1.07777,0.54466 2.71871,2.01501 2.73265,2.44863 0.005,0.15784 0.24604,0.7772 0.53545,1.37635 0.39732,0.82255 0.52845,1.68969 0.5354,3.54044 0.0153,4.07696 -0.95355,8.06007 -2.7315,11.22996 -1.24947,2.22762 -1.16108,2.38438 1.78759,3.17074 0.89873,0.23968 2.73702,0.74741 4.08511,1.12828 3.57694,1.01057 6.21701,1.49234 8.17811,1.49234 1.87131,0 2.13968,0.16774 1.88591,1.17884 -0.3182,1.2678 -1.96941,1.53998 -5.29804,0.87329 z"
       id="path3914" />
    <path
       inkscape:connector-curvature="0"
       style="fill:#000000"
       d="m 199.16369,683.16858 c 0,-0.31981 -1.01291,-0.31492 -1.21116,0.006 -0.18448,0.29848 0.3921,0.53853 0.87074,0.36251 0.18723,-0.0689 0.34042,-0.23462 0.34042,-0.36839 z"
       id="path3912" />
    <path
       inkscape:connector-curvature="0"
       style="fill:#000000"
       d="m 160.64759,684.50819 c -0.20605,-0.49609 -0.45946,-1.75984 -0.56315,-2.80835 -0.40714,-4.1174 -1.96162,-12.47185 -2.70472,-14.53641 -0.80733,-2.24306 -0.32768,-3.71866 1.00894,-3.10393 0.78458,0.36085 2.17984,4.95915 2.79084,9.19775 0.52396,3.63481 1.05641,6.32601 1.6329,8.2531 0.23768,0.79452 0.39476,1.95877 0.34909,2.58723 -0.0806,1.10807 -0.1141,1.14525 -1.11115,1.22763 -0.93884,0.0776 -1.06066,0.006 -1.40275,-0.81702 z"
       id="path3910" />
    <path
       inkscape:connector-curvature="0"
       style="fill:#000000"
       d="m 245.46169,681.83843 c -2.97723,-0.32387 -4.5272,-1.45327 -3.97378,-2.89547 0.19149,-0.499 1.05573,-0.4289 4.3193,0.3503 1.60358,0.3829 2.27669,0.39743 5.17449,0.11196 3.63392,-0.35805 6.93306,-1.00345 7.51092,-1.46928 0.48954,-0.39465 0.23558,-1.89488 -0.47336,-2.79613 -1.86425,-2.36999 -6.3667,-4.53802 -10.34242,-4.98005 -2.52243,-0.28046 -3.20197,-0.68246 -2.93717,-1.73755 0.11303,-0.45042 0.5349,-0.81182 1.32894,-1.13847 3.94489,-1.62291 5.84435,-3.01509 6.3996,-4.69047 0.32488,-0.98032 0.31981,-1.26465 -0.0377,-2.12045 -0.62001,-1.48391 -1.79313,-1.87286 -5.19034,-1.72098 -3.1765,0.14203 -5.48491,0.82653 -9.3733,2.77937 -2.02888,1.01899 -2.57305,1.42163 -2.79961,2.07157 -0.30827,0.88426 -0.97838,1.16699 -2.43593,1.02775 -1.05442,-0.10073 -1.32794,-0.82391 -0.79668,-2.10647 0.84682,-2.04438 9.9626,-5.59819 15.81753,-6.16648 2.16197,-0.20987 3.74681,0.1722 5.38247,1.29754 1.44454,0.99388 1.95905,2.11091 1.95905,4.25326 0,1.84386 -0.50954,2.77986 -2.60785,4.79037 l -1.27529,1.22197 2.2251,1.08735 c 2.62542,1.28298 4.42781,2.55836 5.95125,4.21108 1.4896,1.61602 1.97064,2.62689 1.97064,4.14123 0,1.1396 -0.11482,1.3755 -1.11499,2.2897 -0.91185,0.8335 -1.49491,1.0986 -3.20001,1.45487 -4.77858,0.99843 -7.46683,1.1702 -11.48079,0.73352 z"
       id="path3908" />
    <path
       inkscape:connector-curvature="0"
       style="fill:#000000"
       d="m 299.55533,676.24318 c -0.0883,-0.23007 -0.17172,-2.32081 -0.1854,-4.64605 -0.0282,-4.7856 0.001,-4.72587 -2.10727,-4.23927 -2.99791,0.69175 -4.57535,1.08528 -4.95828,1.23694 -1.1425,0.45253 -5.03747,0.6476 -6.31478,0.31627 -1.6284,-0.4224 -1.97012,-0.85927 -2.33417,-2.98405 -0.36249,-2.11571 0.16353,-9.66402 0.72021,-10.33477 0.45255,-0.54531 1.21727,-0.57651 1.64017,-0.067 0.409,0.49283 0.42637,1.12753 0.16553,6.0508 -0.2136,4.03171 -0.2058,4.12681 0.38754,4.72013 0.52706,0.52707 0.82319,0.59039 2.2854,0.48861 1.78156,-0.124 6.93683,-1.24252 8.76075,-1.90078 0.98346,-0.35494 1.09786,-0.49457 1.17671,-1.4361 0.13304,-1.58838 -0.45631,-5.45748 -1.06748,-7.008 -0.47414,-1.20293 -0.49407,-1.43376 -0.15324,-1.77457 1.29059,-1.2906 3.01506,2.02828 3.5754,6.88122 0.10372,0.89872 0.42054,2.03348 0.70393,2.52168 0.38942,0.67086 0.45302,1.05132 0.26038,1.55798 -0.14991,0.39431 -0.17018,2.04744 -0.0492,4.01451 0.29841,4.85233 0.24305,6.45794 -0.23305,6.75904 -0.64817,0.4099 -2.09396,0.31031 -2.27315,-0.15662 z"
       id="path3906" />
    <path
       inkscape:connector-curvature="0"
       style="fill:#000000"
       d="m 338.02379,674.34494 c -1.25735,-0.68325 -1.32492,-2.8579 -0.0888,-2.8579 0.34939,0 0.71966,0.13658 0.82285,0.30353 0.23656,0.38274 3.03813,0.0945 4.59508,-0.47265 0.60765,-0.22136 2.33034,-0.71389 3.82822,-1.09449 1.49787,-0.3806 2.85938,-0.80419 3.02557,-0.94132 0.59583,-0.49163 -0.19712,-2.43775 -1.28719,-3.15913 -0.54288,-0.35925 -1.35198,-1.10699 -1.79797,-1.66161 -0.92564,-1.15103 -2.8951,-2.23492 -4.05535,-2.23186 -1.29316,0.004 -4.12911,0.98639 -5.02799,1.74276 -0.96744,0.81405 -2.54441,0.97003 -2.81,0.27793 -0.0905,-0.23558 0.0648,-1.00154 0.3449,-1.70213 1.14827,-2.87222 1.42557,-6.22614 0.57822,-6.993 -1.06661,-0.96525 -0.32323,-2.33153 1.49386,-2.74571 0.44719,-0.10193 1.05995,-0.34516 1.3617,-0.54058 1.16261,-0.75283 9.90258,-3.19703 14.02958,-3.92351 0.67405,-0.11864 2.38669,-0.47063 3.80586,-0.78216 2.95744,-0.64922 3.81969,-0.562 3.81969,0.38635 0,0.86147 -0.46433,1.0563 -3.81277,1.59992 -1.57277,0.25534 -3.71746,0.68896 -4.76597,0.96366 -6.58783,1.72565 -9.22589,2.52901 -11.07007,3.37107 l -2.08281,0.951 -0.11327,2.53872 c -0.0623,1.39628 -0.0177,2.65105 0.0993,2.78836 0.12773,0.14998 0.96706,0.1073 2.10258,-0.10695 3.60844,-0.68086 6.35495,0.26689 9.19613,3.17332 2.92728,2.99456 4.0619,5.78219 2.98139,7.32484 -0.43969,0.62775 -2.8896,1.45141 -9.19514,3.0914 -4.72609,1.22918 -4.95468,1.25596 -5.9775,0.70016 z"
       id="path3904" />
    <path
       inkscape:connector-curvature="0"
       style="fill:#000000"
       d="m 444.06963,664.14823 c 0.0808,-0.8908 0.35889,-2.02443 0.61803,-2.51916 0.55718,-1.06374 1.7645,-5.43884 1.58246,-5.73458 -0.16803,-0.27294 -1.24195,-0.002 -3.18873,0.8033 -1.64151,0.67933 -2.35106,0.67179 -2.35106,-0.0251 0,-0.77032 1.71743,-1.80971 4.62979,-2.80199 1.65423,-0.56358 1.80378,-0.71833 2.27082,-2.34941 1.30421,-4.5548 1.61933,-6.34265 1.24219,-7.04733 -0.26245,-0.49041 -0.46146,-0.52964 -1.8356,-0.36178 -1.38684,0.16942 -7.97663,1.63535 -10.39233,2.31184 -3.57437,1.00094 -5.19264,1.36925 -6.01637,1.36925 -0.94352,0 -2.15386,-0.62082 -2.15386,-1.1048 0,-0.52619 1.11442,-1.34627 1.82948,-1.34627 0.40707,0 1.7858,-0.24736 3.06384,-0.54969 4.16512,-0.98528 4.63936,-1.08435 5.18976,-1.08435 0.29882,0 1.61449,-0.2397 2.92375,-0.53263 6.83164,-1.52859 7.89077,-1.67195 8.87717,-1.20156 0.87552,0.41749 0.92836,0.52616 1.09081,2.24392 0.14372,1.5197 0.0375,2.2877 -0.67209,4.85639 l -0.8428,3.05123 0.61927,0.86972 0.61928,0.8697 -1.12978,0.98119 c -1.19648,1.03912 -1.23534,1.14604 -2.64389,7.27325 -0.63826,2.77652 -1.23142,3.64842 -2.48198,3.64842 l -0.99503,0 0.14687,-1.61964 z"
       id="path3898" />
    <path
       id="path3882"
       style="fill:#000000"
       d="m 636.18053,650.33519 c -0.0999,-0.0998 -0.18158,-0.71952 -0.18158,-1.37703 0,-1.6087 1.20863,-2.79662 2.85221,-2.80335 1.39117,-0.006 3.24429,-1.01888 3.36213,-1.8383 0.0476,-0.33138 -0.24393,-1.20988 -0.64795,-1.95222 -0.65531,-1.20402 -0.92768,-1.42702 -2.52317,-2.06571 -2.6533,-1.06221 -4.24629,-0.64194 -6.2667,1.65338 -0.94312,1.07144 -1.11919,1.46577 -1.18864,2.66191 -0.0643,1.10917 -0.18674,1.42419 -0.5824,1.49944 -0.60372,0.11482 -1.81401,-0.95418 -1.81401,-1.60227 0,-0.84485 0.86543,-2.55731 1.85089,-3.66238 1.40716,-1.57798 4.96396,-3.40428 6.63003,-3.40428 1.49421,0 3.76444,0.81401 5.09671,1.82741 1.31124,0.99743 2.49051,2.97506 2.49051,4.17655 0,1.85126 -2.15757,4.09849 -5.31066,5.53128 -0.89872,0.4084 -1.98101,0.92133 -2.40505,1.13985 -0.85999,0.44316 -1.09733,0.48073 -1.36232,0.21572 z m 3.17242,12.16268 c -0.80025,-0.32242 -1.17526,-1.09824 -1.17526,-2.43127 0,-1.14057 0.70435,-2.19662 1.46505,-2.19662 0.20666,0 0.83334,0.55846 1.39264,1.24102 0.8486,1.03559 0.98901,1.38075 0.84824,2.08469 -0.30205,1.5103 -1.05393,1.89719 -2.53067,1.30218 z" />
    <path
       id="path3880"
       style="fill:#000000"
       d="m 586.6586,649.25604 c -0.21103,-0.49925 -0.36355,-2.79983 -0.42197,-6.36483 -0.0504,-3.07064 -0.11864,-6.19576 -0.15188,-6.9447 -0.0568,-1.28016 -0.0183,-1.36661 0.64376,-1.44357 0.39277,-0.0456 0.85972,0.10563 1.05597,0.34205 0.19623,0.23645 0.51502,2.01882 0.72092,4.03079 0.20303,1.98382 0.42622,3.85203 0.49598,4.1516 0.25113,1.07823 0.24209,6.14941 -0.0119,6.4029 -0.14258,0.14258 -0.65112,0.33762 -1.13008,0.43341 -0.77378,0.15477 -0.90766,0.087 -1.2013,-0.60765 z m 0.33871,11.43678 c -0.8482,-1.07831 -0.68278,-2.1431 0.39667,-2.55349 1.26592,-0.48132 2.30697,0.42297 2.30697,2.0039 0,1.40446 -1.75118,1.76044 -2.70364,0.54959 z" />
    <path
       inkscape:connector-curvature="0"
       style="fill:#000000"
       d="m 426.46646,641.85694 c -0.0739,-0.1195 -0.0248,-0.39422 0.10873,-0.61051 0.18373,-0.29723 0.31979,-0.31649 0.55746,-0.0788 0.17294,0.17294 0.23209,0.44764 0.13146,0.61051 -0.21506,0.34796 -0.60735,0.38672 -0.79765,0.0788 z"
       id="path3878" />
    <path
       inkscape:connector-curvature="0"
       style="fill:#000000"
       d="m 347.58964,546.82814 c -1.35378,-0.24814 -3.45338,-1.40019 -4.29148,-2.35471 -1.03516,-1.17901 -1.41603,-2.74916 -0.81312,-3.35209 0.36741,-0.36739 0.50418,-0.27733 1.27055,0.83656 1.02739,1.49323 1.4684,1.75285 3.80981,2.24273 3.72288,0.77894 3.88459,0.45792 1.83158,-3.63568 -0.81675,-1.62856 -1.88101,-3.62889 -2.36502,-4.44518 -0.48398,-0.8163 -1.67533,-3.0161 -2.64739,-4.88845 -1.80108,-3.46911 -2.17682,-4.08771 -2.47935,-4.08174 -0.0941,0.002 -0.44686,0.42938 -0.78414,0.95006 -1.10184,1.70106 -2.57053,2.39316 -5.51445,2.59866 -2.74493,0.19161 -3.57656,0.0285 -4.56172,-0.8943 -0.93165,-0.87271 -0.85668,-2.98355 0.16305,-4.59151 1.79958,-2.83764 5.93955,-4.74693 7.17464,-3.30885 1.15426,1.34396 0.74488,2.33722 -0.85768,2.08096 -1.3436,-0.21485 -2.94206,0.6021 -3.90948,1.99812 -0.40272,0.58113 -0.73222,1.19444 -0.73222,1.36293 0,1.24217 2.66528,1.55387 4.93561,0.57722 1.11935,-0.48153 1.47761,-0.81723 2.02496,-1.89733 0.43664,-0.86173 0.66497,-1.77149 0.66497,-2.64971 0,-1.60999 0.48728,-2.17157 1.55437,-1.79138 0.55865,0.19903 0.92868,0.78758 1.78451,2.83835 1.08289,2.59485 2.77886,6.31629 3.22697,7.08086 0.13168,0.22469 0.59385,1.08257 1.02702,1.90639 0.43317,0.82383 1.27784,2.41704 1.87704,3.54044 3.05923,5.73578 3.82067,7.93186 3.06563,8.84164 -0.87606,1.0556 -3.07219,1.47271 -5.45466,1.03601 z"
       id="path3876" />
    <path
       inkscape:connector-curvature="0"
       style="fill:#000000"
       d="m 190.58494,537.11072 c -2.56992,-1.14221 -3.30097,-4.86355 -1.56541,-7.96877 0.71704,-1.28293 2.23489,-2.24949 3.55225,-2.2621 0.77307,-0.007 1.96211,1.13675 1.96211,1.88802 0,0.47534 -0.17282,0.55706 -1.17806,0.55706 -1.68653,0 -2.42692,0.852 -2.58006,2.96896 -0.0981,1.35759 -0.0286,1.68688 0.4595,2.17501 0.71467,0.71467 2.972,0.77896 5.69593,0.16222 1.0032,-0.22714 2.49803,-0.4416 3.32186,-0.47659 1.3656,-0.058 1.5055,-0.01 1.58435,0.54479 0.0666,0.46876 -0.12093,0.69579 -0.81703,0.98912 -3.74581,1.5784 -8.59664,2.23954 -10.43544,1.42228 z"
       id="path3860" />
    <path
       inkscape:connector-curvature="0"
       style="fill:#000000"
       d="m 305.80062,535.52819 c -0.23317,-0.33291 -0.42395,-0.97804 -0.42395,-1.43364 0,-0.45559 -0.258,-1.50067 -0.57332,-2.32239 -0.31532,-0.82171 -0.71362,-1.86169 -0.8851,-2.31105 -0.17149,-0.44936 -0.52626,-1.12004 -0.78839,-1.49039 -0.26213,-0.37035 -0.47661,-0.81682 -0.47661,-0.99215 0,-0.46014 -0.66521,-0.64938 -2.2827,-0.64938 -1.31776,0 -2.07475,-0.32348 -2.07475,-0.88656 0,-0.12812 0.67405,-0.54154 1.49788,-0.9187 0.82384,-0.37716 1.49788,-0.7419 1.49788,-0.81054 0,-0.0686 -0.23367,-0.82562 -0.51925,-1.68218 -0.28559,-0.85654 -0.64451,-2.96672 -0.79764,-4.68929 -0.3559,-4.00399 -0.0263,-5.94915 1.25791,-7.42129 0.53548,-0.61389 2.29799,-0.6281 3.21698,-0.0259 1.48393,0.97231 4.18429,5.16989 3.76365,5.85046 -0.0856,0.13846 -1.14281,-0.67699 -2.34945,-1.81212 -1.22191,-1.14947 -2.3859,-2.02687 -2.62727,-1.98038 -0.92062,0.1773 -1.15952,1.28736 -0.98402,4.57227 0.15325,2.8681 0.8795,6.18696 1.51204,6.90972 0.11781,0.13461 1.00885,0.12217 2.05837,-0.0288 2.09793,-0.30167 3.1887,-0.11351 3.32097,0.57298 0.17645,0.91582 -0.52433,1.29575 -3.56292,1.93162 -0.41192,0.0862 -0.74894,0.29215 -0.74894,0.45766 0,0.33994 1.79814,3.97886 2.65129,5.36544 0.30821,0.50093 0.71229,1.45332 0.89794,2.1164 0.29925,1.06882 0.2822,1.26677 -0.15016,1.74454 -0.66206,0.73159 -1.89511,0.69792 -2.43044,-0.0664 z"
       id="path3852" />
    <path
       inkscape:connector-curvature="0"
       style="fill:#000000"
       d="m 375.25888,528.18507 c -0.38885,-1.90476 -0.5289,-2.35978 -1.11263,-3.61494 -0.35118,-0.75507 -1.34172,-2.90479 -2.2012,-4.77714 -0.85948,-1.87235 -1.72002,-3.64936 -1.9123,-3.94894 -0.19226,-0.29958 -0.5548,-1.15745 -0.80566,-1.90639 -0.25085,-0.74893 -1.11635,-2.81961 -1.92338,-4.60149 -0.807,-1.78188 -1.4673,-3.39071 -1.4673,-3.57518 0,-0.18445 0.18321,-0.48744 0.40716,-0.67329 0.63561,-0.52752 1.56685,0.25308 2.40861,2.01899 1.44112,3.02334 2.0421,4.40436 2.4986,5.7416 0.51793,1.51729 1.80041,4.29403 2.80048,6.06344 l 0.65633,1.1613 1.04706,-1.07888 c 1.43907,-1.4829 2.89598,-1.86459 4.81182,-1.26068 1.1543,0.36386 1.72085,0.78316 2.99671,2.21791 0.88628,0.99665 1.8499,2.44119 2.20673,3.30806 0.3484,0.84636 0.80798,1.78801 1.02128,2.09256 0.21332,0.30453 0.38783,1.07792 0.38783,1.71863 0,1.13818 -0.0206,1.16495 -0.90572,1.16495 -1.22262,0 -1.99754,-0.88104 -2.66709,-3.03234 -1.04837,-3.36837 -2.56135,-5.13791 -4.39299,-5.13791 -1.51321,0 -1.9879,0.76284 -1.90901,3.0677 0.0362,1.05461 0.26765,2.63744 0.51456,3.51742 0.24693,0.87998 0.37981,1.66911 0.29527,1.75362 -0.0845,0.0845 -0.71002,0.21163 -1.39006,0.28249 -1.12212,0.11698 -1.24832,0.0706 -1.3651,-0.50149 z"
       id="path3850" />
    <path
       inkscape:connector-curvature="0"
       style="fill:#000000"
       d="m 623.38762,527.1934 c -0.5156,-0.58379 -1.55049,-4.37728 -1.55049,-5.68344 0,-0.55021 -0.17398,-1.68246 -0.38661,-2.51612 -0.21262,-0.83367 -0.53091,-2.25107 -0.7073,-3.14979 -0.59281,-3.02061 -1.56161,-6.80372 -2.17944,-8.51066 -0.34809,-0.96165 -0.55441,-1.05045 -1.32407,-0.56979 -0.77772,0.48569 -1.44583,0.0929 -1.34425,-0.79038 0.0707,-0.61411 0.37551,-0.89056 1.67768,-1.5214 2.0659,-1.00084 4.58914,-1.38075 7.80443,-1.17508 4.36347,0.27913 6.36392,1.20512 7.92654,3.66907 1.07946,1.70213 1.05186,2.92357 -0.10062,4.45152 -1.40387,1.86129 -3.0032,2.49671 -6.41026,2.54682 -2.46921,0.0363 -2.83769,-0.0187 -3.07343,-0.45921 -0.17878,-0.33407 -0.17141,-0.68063 0.0221,-1.04234 0.51483,-0.962 1.72703,-1.36394 4.14116,-1.37313 1.99662,-0.007 2.34774,-0.0855 3.00929,-0.66779 1.06815,-0.94014 0.97092,-1.81835 -0.36131,-3.26365 -0.91972,-0.99781 -1.37538,-1.25972 -2.65534,-1.52637 -1.50854,-0.31427 -5.39114,-0.21259 -6.37913,0.16707 -0.53068,0.20392 -0.62396,1.20684 -0.22944,2.46721 0.84556,2.7015 1.43119,4.93529 1.9205,7.32577 0.99919,4.88136 1.13416,5.41096 2.13354,8.37196 0.61937,1.83508 0.88993,3.01436 0.72604,3.16454 -0.14369,0.13168 -0.71034,0.30723 -1.25925,0.39014 -0.73112,0.1104 -1.1056,0.0289 -1.40047,-0.30495 z"
       id="path3846" />
    <path
       inkscape:connector-curvature="0"
       style="fill:#000000"
       d="m 474.36075,523.78167 c -2.74013,-1.276 -3.28255,-1.36888 -4.16861,-0.71379 -0.43572,0.32215 -1.20343,0.60559 -1.706,0.62988 l -0.91381,0.0442 -0.31167,-1.70791 c -0.17144,-0.93936 -0.49724,-1.91978 -0.72402,-2.17873 -0.22678,-0.25895 -0.48109,-0.83848 -0.56517,-1.28784 -0.88954,-4.75513 -3.28489,-11.18873 -4.73377,-12.71423 -0.52533,-0.55311 -0.6518,-0.90137 -0.51917,-1.42979 0.38403,-1.53011 2.5005,-0.48512 3.47156,1.71403 0.30695,0.6952 1.0307,2.2511 1.60831,3.45756 0.57761,1.20646 1.20271,2.79965 1.38914,3.54043 0.18638,0.74079 0.43005,1.45591 0.54144,1.58918 0.11136,0.13325 0.58697,-0.0812 1.05687,-0.4766 0.93107,-0.78345 1.83617,-0.93474 2.06257,-0.34477 0.079,0.20576 -0.25753,1.13929 -0.74773,2.07451 l -0.89133,1.70038 0.74355,0.63958 c 0.40895,0.35176 1.24303,0.77406 1.85348,0.93845 1.46833,0.39537 5.61992,2.90021 6.15145,3.71142 0.96008,1.4653 -1.16556,1.94636 -3.59709,0.81406 z"
       id="path3840" />
    <path
       inkscape:connector-curvature="0"
       style="fill:#000000"
       d="m 508.7608,523.67386 c -0.37385,-0.43296 -0.65169,-1.34134 -1.97845,-6.4681 -0.23258,-0.89873 -0.60558,-2.2576 -0.8289,-3.01969 -0.2233,-0.76211 -0.406,-1.64414 -0.406,-1.96007 0,-0.31593 -0.3064,-1.15064 -0.68086,-1.85492 -0.37447,-0.70429 -0.68085,-1.62713 -0.68085,-2.05076 0,-0.92085 -1.0285,-3.73577 -2.3267,-6.36809 -0.51777,-1.04983 -0.9414,-2.23161 -0.9414,-2.62618 0,-0.8413 0.6225,-1.17129 1.4122,-0.74864 0.53142,0.2844 2.54125,4.23379 3.17386,6.23682 0.16559,0.52426 0.53461,1.68852 0.82005,2.58724 0.28544,0.89873 0.77046,2.5532 1.07782,3.67661 2.39927,8.7694 2.40019,8.77198 3.45373,9.62643 0.5258,0.42645 0.95327,0.97795 0.94994,1.22555 -0.007,0.57259 -0.77205,1.52242 -1.54202,1.91617 -0.80286,0.41061 -1.02066,0.38562 -1.50242,-0.17237 z"
       id="path3838" />
    <path
       inkscape:connector-curvature="0"
       style="fill:#000000"
       d="m 524.61866,521.15922 c -0.16933,-0.10467 -0.41522,-1.15953 -0.54643,-2.34421 -0.29293,-2.64463 -0.6588,-3.91478 -1.39855,-4.85523 -0.38957,-0.49525 -0.51487,-0.93252 -0.39924,-1.39323 0.21859,-0.87086 0.96895,-0.86692 1.7922,0.01 0.35179,0.37447 0.74572,0.68085 0.87542,0.68085 0.12966,0 0.70209,-0.49021 1.27204,-1.08936 1.2751,-1.34042 2.15306,-1.42317 3.10434,-0.29261 0.36872,0.4382 0.89405,1.41863 1.16737,2.17873 0.27334,0.76008 0.57916,1.38197 0.67959,1.38197 0.1005,0 0.6584,-0.81383 1.23984,-1.80852 0.58145,-0.99469 1.30228,-1.97759 1.60186,-2.18421 3.46255,-2.38821 3.87955,-2.535 5.39869,-1.90026 0.7267,0.30363 1.02772,0.71097 1.66044,2.24681 1.78457,4.33183 2.42959,5.5304 3.58808,6.66735 0.65979,0.64755 1.19963,1.39 1.19963,1.64989 0,0.5344 -0.98457,1.32044 -1.65396,1.32044 -0.65877,0 -3.18103,-2.88685 -3.40181,-3.89352 -0.10527,-0.47984 -0.42011,-1.29956 -0.6997,-1.8216 -0.27961,-0.52204 -0.50838,-1.10905 -0.50838,-1.30448 0,-0.19541 -0.24758,-0.84064 -0.5502,-1.43382 -0.71939,-1.41008 -1.39454,-1.38976 -3.02765,0.0912 -1.34877,1.22306 -2.78649,3.76511 -3.11259,5.50337 -0.21437,1.14265 -1.52691,2.58657 -2.35123,2.58657 -0.67315,0 -1.23281,-0.9955 -1.45449,-2.58724 -0.29819,-2.14092 -0.8329,-4.04869 -1.1659,-4.15968 -0.16757,-0.0559 -0.55786,0.30572 -0.86733,0.80352 -0.47904,0.77054 -0.5511,1.26716 -0.48476,3.34062 l 0.0779,2.43551 -0.86369,0.18103 c -0.47503,0.0996 -1.00222,0.0954 -1.17153,-0.01 z"
       id="path3836" />
    <path
       inkscape:connector-curvature="0"
       style="fill:#000000"
       d="m 598.68165,519.79342 c -2.72473,-0.32723 -4.17826,-2.35398 -4.19972,-5.85576 -0.0119,-1.85089 0.10671,-2.43907 0.78448,-3.90885 1.21422,-2.63317 3.26818,-3.73444 4.93187,-2.64433 0.51821,0.33954 0.67938,0.6508 0.61694,1.1915 -0.069,0.59756 -0.24018,0.74703 -0.93258,0.81446 -2.76069,0.26881 -3.93012,6.02016 -1.61482,7.9417 1.51134,1.25428 8.74882,-0.97084 9.25236,-2.84456 0.32547,-1.21122 0.14218,-2.95778 -0.40301,-3.8399 -0.81648,-1.3211 -1.4957,-1.43146 -2.54585,-0.41364 -1.43637,1.39221 -2.6151,1.01852 -2.6151,-0.82904 0,-0.74802 0.16314,-1.13411 0.61277,-1.45015 1.63363,-1.14826 4.23804,-1.0676 5.56777,0.17244 1.73117,1.61435 2.67208,4.98267 1.90484,6.81893 -1.09915,2.63061 -7.40673,5.322 -11.35995,4.8472 z"
       id="path3834" />
    <path
       inkscape:connector-curvature="0"
       style="fill:#000000"
       d="m 564.27392,518.65246 c -0.22348,-0.34632 -0.53885,-1.59667 -0.70078,-2.77855 -0.20671,-1.50867 -0.55533,-2.62341 -1.17015,-3.74178 -0.83423,-1.51746 -0.85313,-1.61552 -0.39881,-2.06983 0.433,-0.43298 0.54419,-0.43915 1.20718,-0.0671 0.40162,0.22543 0.98043,0.92895 1.28618,1.56336 0.30576,0.63443 0.69837,1.1535 0.87245,1.1535 0.35554,0 1.46876,-1.24962 2.16846,-2.43412 0.60234,-1.01966 2.23557,-1.92334 3.47614,-1.92334 0.78339,0 1.20415,0.21996 2.06225,1.07806 0.59294,0.59294 1.34226,1.604 1.66514,2.24681 0.32291,0.64282 0.86186,1.53642 1.19765,1.98578 0.33583,0.44936 0.69686,1.09001 0.80234,1.42367 0.1054,0.33365 0.61332,1.1112 1.12853,1.7279 0.51525,0.61669 0.9368,1.26897 0.9368,1.44953 0,0.99599 -2.08159,1.34656 -3.22792,0.54363 -0.34416,-0.24106 -1.04421,-1.35656 -1.55567,-2.47891 -0.51149,-1.12235 -1.3732,-2.77031 -1.91497,-3.66213 -0.8491,-1.39779 -1.08432,-1.61 -1.70479,-1.53814 -0.58984,0.0683 -0.9266,0.46954 -1.86489,2.22187 -0.62979,1.17618 -1.22283,2.65717 -1.31792,3.29112 -0.20991,1.39989 -0.31229,1.55585 -1.35004,2.05658 -0.44936,0.21682 -0.90113,0.4364 -1.00393,0.48797 -0.10277,0.0516 -0.36976,-0.18963 -0.59325,-0.53595 z"
       id="path3832" />
    <path
       id="path3830"
       style="fill:#000000"
       d="m 403.02547,511.22849 c -2.62523,-0.87707 -3.54969,-2.09731 -2.2687,-2.99456 0.91982,-0.64426 1.53823,-0.5141 3.616,0.76106 1.92894,1.18381 2.54873,2.13937 1.72597,2.66088 -0.5309,0.33651 -0.96929,0.27555 -3.07327,-0.42738 z m 3.6395,16.25815 c -1.38791,-1.55327 -1.9708,-2.62647 -2.02263,-3.72405 -0.0479,-1.013 -0.23128,-2.28464 -0.56288,-3.90151 -0.1854,-0.90416 -1.09862,-0.77632 -2.79365,0.39109 -1.60371,1.10451 -2.28761,1.03747 -2.44198,-0.23939 -0.0717,-0.5932 0.21924,-0.85577 2.31491,-2.0891 3.0798,-1.81252 3.7391,-1.80384 4.74551,0.0624 0.44792,0.8306 0.78239,1.98698 0.89631,3.099 0.0999,0.97569 0.348,2.09547 0.5512,2.4884 0.49233,0.9521 1.41292,1.7613 1.7598,1.5469 0.42399,-0.26203 1.3888,0.84804 1.3888,1.59785 0,0.99214 -0.6961,1.51734 -2.01104,1.51734 -0.91634,0 -1.29348,-0.15482 -1.82435,-0.74894 z" />
    <path
       inkscape:connector-curvature="0"
       style="fill:#000000"
       d="m 709.80342,509.73498 c -0.52426,-0.29826 -1.33061,-0.72376 -1.7919,-0.94556 -1.10186,-0.52983 -1.53816,-1.08601 -1.42903,-1.82174 0.17792,-1.19949 0.8774,-1.26349 2.87318,-0.2629 1.59904,0.80169 2.18205,0.94167 4.36369,1.04769 2.17274,0.10564 2.83406,0.0239 4.82218,-0.596 3.2611,-1.01675 3.89881,-2.2014 1.77602,-3.29915 -0.93955,-0.48585 -5.12576,-1.09175 -9.33591,-1.35125 -3.3529,-0.20667 -5.31583,-0.69979 -6.06036,-1.52246 -0.67205,-0.74263 -0.80534,-3.06684 -0.20444,-3.56554 1.24689,-1.03483 4.25053,-1.6241 6.01049,-1.17919 2.12636,0.53752 1.82098,1.85462 -0.56748,2.44767 -0.60324,0.14979 -1.14102,0.40827 -1.19503,0.5744 -0.0949,0.2917 0.27948,0.37494 4.14285,0.9212 6.59058,0.93186 7.78496,1.26043 9.262,2.548 1.22249,1.06564 1.58306,2.39343 1.02792,3.78524 -0.83184,2.08556 -4.29327,3.41221 -9.46105,3.6261 -2.92519,0.12108 -3.38302,0.0771 -4.23313,-0.40651 z"
       id="path3828" />
    <path
       id="path3826"
       style="fill:#000000"
       d="m 433.10177,508.83126 c -0.93473,-1.53308 -0.57101,-3.47235 0.65122,-3.47235 1.10623,0 1.63005,0.88946 1.44483,2.45339 -0.0894,0.7548 -0.23647,1.492 -0.32684,1.63822 -0.34461,0.55761 -1.24345,0.24301 -1.76921,-0.61926 z m 6.02534,33.28744 c -2.10058,-0.99372 -4.29409,-3.16352 -4.5438,-4.49468 -0.34873,-1.85893 0.43983,-1.96436 2.02698,-0.27099 1.40954,1.50385 3.08045,2.50772 4.57065,2.74596 0.96664,0.15455 1.1749,0.0997 1.42979,-0.37653 0.78298,-1.46304 -0.0291,-6.35998 -1.70178,-10.26135 -2.04841,-4.77778 -2.35706,-5.5342 -3.189,-7.81539 -1.1345,-3.11072 -1.43113,-3.3747 -3.30841,-2.94409 -0.79363,0.18204 -1.96049,0.4995 -2.59304,0.70545 -1.42443,0.46378 -1.98182,0.27306 -1.98182,-0.67811 0,-0.82471 0.44029,-1.38705 1.08601,-1.38705 0.53651,0 4.9087,-1.80066 5.28439,-2.17634 0.41217,-0.41219 1.28604,-0.33119 1.84046,0.17057 0.27064,0.2449 0.99825,1.99129 1.61692,3.88085 0.61865,1.88957 1.919,5.45273 2.8896,7.91814 1.81479,4.60963 2.34194,6.69842 2.65534,10.52136 0.22961,2.80111 -0.2318,4.1604 -1.64032,4.83207 -1.37174,0.65413 -2.4709,0.5626 -4.44197,-0.36987 z" />
    <path
       inkscape:connector-curvature="0"
       style="fill:#000000"
       d="m 681.22189,508.55892 c -1.92033,-3.25381 -3.95011,-5.54172 -5.17521,-5.83339 -0.38194,-0.091 -0.78683,-0.2172 -0.89977,-0.28059 -0.33362,-0.18728 1.18261,-1.98881 1.66746,-1.9812 0.24435,0.004 1.11263,0.43278 1.92954,0.95319 0.81689,0.52043 1.62419,0.94623 1.79402,0.94623 0.16981,0 1.29332,-0.49437 2.49669,-1.0986 2.50807,-1.25937 4.34782,-1.49156 5.26212,-0.66411 1.14893,1.03974 0.3921,2.0314 -1.55634,2.03922 -1.32138,0.005 -1.52749,0.14869 -2.27234,1.58082 -0.53741,1.03327 -0.57388,1.30325 -0.29974,2.21829 0.48841,1.63021 -0.26436,3.00525 -1.64524,3.00525 -0.58994,0 -0.90548,-0.21464 -1.30119,-0.88511 z"
       id="path3824" />
    <path
       inkscape:connector-curvature="0"
       style="fill:#000000"
       d="m 914.98851,508.74524 c -2.59844,-0.43987 -4.03869,-1.15198 -4.143,-2.04845 -0.15529,-1.33498 0.47919,-1.48471 3.35563,-0.79183 3.50248,0.84367 6.35024,0.67608 7.51765,-0.44239 1.28324,-1.22942 1.10486,-2.1556 -1.4037,-7.28743 -1.20274,-2.46046 -2.372,-4.62731 -2.59841,-4.81519 -0.34171,-0.28361 -0.55998,-0.20075 -1.28555,0.48797 -1.10598,1.04985 -1.53244,1.17125 -4.61644,1.31416 -4.15197,0.19241 -6.99941,-0.6792 -8.11481,-2.48397 -0.29053,-0.47009 -0.84325,-1.94173 -1.22825,-3.2703 -0.64521,-2.22644 -0.66469,-2.44141 -0.24888,-2.74548 0.24814,-0.18143 0.61733,-0.26613 0.82038,-0.1882 0.20309,0.0779 0.98234,1.33526 1.73168,2.79406 1.74066,3.38876 2.22149,3.66035 6.23454,3.52149 2.47171,-0.0855 2.80537,-0.16016 3.4665,-0.77548 0.69784,-0.64947 2.03452,-3.23847 2.03452,-3.94063 0,-0.18283 0.2178,-0.52952 0.48401,-0.77042 0.76231,-0.6899 1.77043,-0.0487 2.06502,1.31354 0.12877,0.59544 0.54749,1.75665 0.93054,2.58049 0.38302,0.82382 1.17474,2.53957 1.75935,3.81276 0.58461,1.27321 1.29923,2.81264 1.58805,3.42098 0.70583,1.48674 1.25574,3.47558 1.46642,5.30352 0.2386,2.07002 -0.44705,3.09249 -2.84656,4.24479 -2.09121,1.00425 -4.19512,1.23552 -6.96869,0.76601 z"
       id="path3822" />
    <path
       inkscape:connector-curvature="0"
       style="fill:#000000"
       d="m 749.9312,505.688 c -0.36379,-0.22613 -1.28621,-3.69699 -1.7392,-6.54421 -0.18329,-1.15198 -0.46951,-2.05228 -0.67791,-2.13225 -0.1984,-0.0762 -1.30086,0.004 -2.44993,0.17826 -2.42301,0.36729 -3.39682,0.2157 -3.39682,-0.52879 0,-0.77326 1.51748,-1.55098 3.74373,-1.91868 1.08542,-0.17928 2.03874,-0.43154 2.11851,-0.56059 0.0797,-0.12905 -0.004,-1.86445 -0.18644,-3.85642 -0.42199,-4.61064 -0.44285,-6.54263 -0.072,-6.66827 0.16123,-0.0547 0.59975,0.18483 0.97449,0.53212 0.70441,0.65282 0.68318,0.53326 1.43881,8.09737 0.0375,0.37447 0.0871,0.83403 0.11052,1.02127 0.0763,0.61057 3.78307,0.22683 5.79801,-0.60023 0.60403,-0.24794 2.41478,0.54084 2.41478,1.05191 0,0.22627 -0.33703,0.73009 -0.74895,1.1196 -0.61091,0.5777 -0.92844,0.68091 -1.72297,0.56005 -0.53572,-0.0815 -1.82253,0.0316 -2.85958,0.25127 -1.03705,0.21969 -1.97747,0.40157 -2.08981,0.40417 -0.38476,0.008 -0.20434,1.90866 0.34304,3.61217 0.30102,0.93677 0.72995,2.27116 0.9532,2.9653 0.49516,1.53967 0.52148,2.66836 0.0654,2.80883 -0.9779,0.30126 -1.73972,0.3795 -2.01701,0.20712 z"
       id="path3820" />
    <path
       inkscape:connector-curvature="0"
       style="fill:#000000"
       d="m 773.20782,503.63585 c -1.90601,-0.60636 -3.6266,-2.69518 -4.41957,-5.36546 -0.55894,-1.88209 -0.55416,-2.95812 0.0142,-3.17617 0.73804,-0.28321 1.26167,0.27505 2.04057,2.17554 1.44303,3.52103 2.73316,4.47873 5.65577,4.19846 2.58086,-0.2475 3.54926,-0.71887 4.59567,-2.23699 0.87972,-1.27625 0.92838,-1.46075 0.77576,-2.94022 -0.20178,-1.95587 -0.45334,-2.4377 -1.66302,-3.18532 -1.06004,-0.65515 -1.26424,-1.562 -0.51941,-2.30683 1.03397,-1.03398 3.00784,0.72119 3.87119,3.44231 0.68112,2.14676 0.56997,4.88555 -0.26599,6.55363 -0.70368,1.40417 -2.6599,2.35693 -5.81089,2.83018 -2.86299,0.42998 -2.95599,0.43022 -4.27412,0.0107 z"
       id="path3818" />
    <path
       inkscape:connector-curvature="0"
       style="fill:#000000"
       d="m 799.7522,502.58765 c -0.26658,-0.33973 -1.0362,-1.18863 -1.71024,-1.88644 -0.67405,-0.69781 -1.89958,-2.09542 -2.72342,-3.10581 -0.82383,-1.01038 -1.96757,-2.36717 -2.54168,-3.01508 -1.24132,-1.40095 -1.23928,-2.12059 0.006,-2.24158 0.67944,-0.066 1.10167,0.13028 1.97227,0.91679 0.60925,0.55043 1.10772,1.1569 1.10772,1.34772 0,0.37076 4.53317,5.0365 4.8934,5.0365 0.46954,0 0.81744,-0.79962 1.24186,-2.85441 0.24447,-1.18359 0.37089,-2.46554 0.28094,-2.84879 -0.09,-0.38325 -0.21433,-1.32637 -0.27637,-2.09581 -0.0966,-1.19737 -0.021,-1.48528 0.52445,-1.99768 0.60633,-0.56963 0.67074,-0.57675 1.3267,-0.14694 0.37921,0.24845 0.76972,0.81722 0.86785,1.26394 0.32616,1.485 -0.45955,7.25649 -1.27903,9.39517 -0.45051,1.17577 -0.746,1.51115 -1.87057,2.12322 l -1.33553,0.7269 -0.48472,-0.6177 z"
       id="path3816" />
    <path
       inkscape:connector-curvature="0"
       style="fill:#000000"
       d="m 840.93569,501.42137 c -1.12615,-0.58847 -2.46272,-2.15366 -3.29944,-3.86385 -0.38621,-0.78938 -0.85888,-1.56529 -1.05042,-1.72424 -0.19151,-0.15895 -0.49806,-0.82415 -0.68118,-1.47822 -0.2886,-1.03082 -0.27081,-1.28408 0.13357,-1.90122 0.49815,-0.76033 1.26235,-0.92892 1.68415,-0.37156 0.14173,0.18723 0.7985,1.55063 1.45956,3.02976 0.93047,2.08198 1.41687,2.83541 2.15383,3.33618 0.52356,0.35577 1.16037,0.64685 1.41515,0.64685 0.61009,0 2.24936,-2.04785 2.65967,-3.32258 0.35844,-1.11357 1.83774,-2.56826 2.87696,-2.82909 0.8629,-0.21658 2.7711,1.24029 3.30819,2.52571 0.3002,0.71848 0.5333,0.90254 1.14298,0.90254 0.94163,0 1.95021,-1.00593 1.95021,-1.94507 0,-0.91649 -1.25151,-3.96936 -2.07237,-5.05518 -1.8017,-2.38332 -0.37883,-4.96222 1.58467,-2.87211 0.94371,1.00455 1.66558,2.82649 2.66067,6.71529 l 0.82982,3.24294 -0.57197,1.18153 c -0.71335,1.47357 -1.70608,2.27494 -2.80798,2.26668 -1.38088,-0.0107 -3.46665,-1.32696 -4.38881,-2.77035 -0.44936,-0.70336 -1.02996,-1.28549 -1.29021,-1.29362 -0.49362,-0.0154 -1.3221,1.1446 -2.33984,3.27619 -0.32782,0.68661 -0.88236,1.51738 -1.2323,1.84612 -0.85264,0.80103 -3.00951,1.04015 -4.12491,0.4573 z"
       id="path3814" />
    <path
       inkscape:connector-curvature="0"
       style="fill:#000000"
       d="m 879.54006,498.9147 c -0.69562,-0.28068 -0.33512,-1.69133 0.90472,-3.54022 l 1.24512,-1.85681 -0.71337,-0.61362 c -0.39237,-0.33749 -1.0446,-0.69156 -1.44941,-0.78682 -0.4048,-0.0953 -1.04238,-0.4498 -1.41686,-0.78788 -0.37446,-0.33807 -1.08674,-0.81957 -1.58284,-1.07 -0.98604,-0.49776 -1.11334,-1.35486 -0.27887,-1.87778 0.52148,-0.32679 1.72098,0.13835 4.60877,1.7872 0.98663,0.56334 2.16004,1.09748 2.60761,1.18699 0.8908,0.17816 1.48524,-0.30266 4.33467,-3.50603 1.44719,-1.62697 2.09304,-1.89376 2.54412,-1.05091 0.35396,0.66138 -0.22307,1.72013 -2.08874,3.83243 -1.39875,1.58366 -1.78515,2.4723 -1.07496,2.4723 0.71637,0 4.78866,2.15663 5.072,2.68605 0.47976,0.89647 0.33903,1.56271 -0.40135,1.90004 -0.96624,0.44025 -1.32655,0.39793 -1.88727,-0.22166 -0.26765,-0.29576 -0.73777,-0.61744 -1.0447,-0.71486 -0.30693,-0.0974 -1.04445,-0.52947 -1.63898,-0.96014 -0.60187,-0.436 -1.43262,-0.78304 -1.87446,-0.78304 -0.81161,0 -0.96315,0.12999 -3.25478,2.7915 -1.06028,1.23143 -1.67153,1.49211 -2.61042,1.11326 z"
       id="path3812" />
    <path
       inkscape:connector-curvature="0"
       style="fill:#000000"
       d="m 945.94776,498.87568 c -0.36096,-0.11112 -0.8844,-0.50764 -1.16322,-0.88108 -0.49706,-0.66574 -0.49485,-0.71347 0.11303,-2.44459 0.34104,-0.97108 0.82874,-2.06132 1.08382,-2.42275 0.5456,-0.77311 0.41479,-1.11306 -0.42831,-1.11306 -0.73054,0 -1.26394,-0.47622 -1.26394,-1.1284 0,-0.79811 1.08392,-1.32267 2.73305,-1.32267 1.30615,0 1.62403,-0.10647 2.23699,-0.74894 0.86626,-0.90804 1.2938,-1.96967 1.2938,-3.21255 0,-1.26382 -0.73586,-1.41614 -4.05902,-0.84021 -1.43734,0.24912 -2.85492,0.45098 -3.15023,0.44858 -0.29527,-0.002 -1.7356,0.37806 -3.20072,0.84544 -3.00636,0.95906 -3.57586,0.8457 -3.42525,-0.68182 0.0662,-0.67145 0.23938,-0.86864 0.89902,-1.0237 6.81912,-1.60297 11.60464,-2.42925 12.82152,-2.21379 0.43755,0.0775 1.19384,0.51747 1.68065,0.97777 0.78475,0.74199 0.8851,1.00269 0.8851,2.29895 0,0.87808 -0.22669,1.98901 -0.56752,2.78134 -0.44237,1.0283 -0.50245,1.44096 -0.27235,1.87089 0.70994,1.32653 0.018,2.22145 -1.71762,2.22145 -0.71326,0 -1.46376,0.75624 -2.34274,2.36077 -1.07305,1.95872 -0.87552,2.0587 3.63391,1.83946 2.15192,-0.10455 4.36611,-0.10515 4.92046,-0.001 0.93738,0.17585 1.002,0.24992 0.9237,1.05883 -0.0797,0.8237 -0.15629,0.8789 -1.44591,1.04281 -2.34186,0.29763 -9.50022,0.50026 -10.18825,0.2884 z"
       id="path3810" />
    <path
       inkscape:connector-curvature="0"
       style="fill:#000000"
       d="m 198.29582,400.25534 c -2.76379,-1.08068 -4.30662,-2.46694 -4.30662,-3.86963 0,-0.96222 0.59001,-1.03119 1.1756,-0.13743 0.23168,0.35356 1.00998,1.03282 1.72956,1.50945 1.20232,0.7964 1.42998,0.85223 2.81009,0.68929 3.03658,-0.35848 4.81101,-1.63501 6.19721,-4.45822 0.74474,-1.51686 0.82879,-4.37401 0.19173,-6.5192 -0.34422,-1.15907 -0.81694,-1.81858 -2.52444,-3.52177 -1.77068,-1.76625 -2.44252,-2.23539 -4.27437,-2.98473 -2.47202,-1.01121 -6.10842,-1.47161 -7.16347,-0.90697 l -0.59698,0.31949 0.54379,1.01062 c 0.60654,1.12724 1.53998,3.59509 2.43272,6.43151 0.32552,1.03423 0.90136,2.5347 1.27967,3.33436 0.3871,0.81829 0.61697,1.67716 0.52579,1.96452 -0.23678,0.74598 -1.12364,1.46129 -1.67912,1.35432 -0.59224,-0.11411 -1.47579,-1.57638 -1.75903,-2.91123 -0.11578,-0.54593 -0.41734,-1.78921 -0.66996,-2.76284 -0.25265,-0.97362 -0.76999,-2.99575 -1.14969,-4.49362 -0.95215,-3.75643 -0.95226,-3.75663 -2.33219,-3.53474 -1.36603,0.21966 -2.12511,0.67506 -3.45446,2.0725 -0.55133,0.57955 -1.13961,1.05373 -1.30732,1.05373 -0.46178,0 -0.93424,-1.06376 -0.76751,-1.72809 0.24181,-0.96344 2.53223,-2.65069 4.62476,-3.40688 1.74944,-0.63218 2.34581,-0.7042 5.89528,-0.71186 l 3.94896,-0.008 2.58724,1.27373 c 4.89193,2.40834 7.46372,5.29475 8.30975,9.32622 0.44814,2.13535 0.44912,2.38155 0.0172,4.27551 -0.25201,1.10533 -0.7274,2.5145 -1.05645,3.13151 -1.17755,2.20803 -4.93307,4.73996 -6.99827,4.71811 -0.52425,-0.006 -1.52758,-0.23466 -2.2296,-0.50916 z"
       id="path3800" />
    <path
       inkscape:connector-curvature="0"
       style="fill:#000000"
       d="m 167.29978,399.38169 c -1.63662,-0.72474 -2.35622,-1.43885 -3.27343,-3.24842 -1.00076,-1.9743 -1.19083,-3.09531 -0.84344,-4.97443 1.03274,-5.58667 5.59475,-11.62155 8.78518,-11.62155 0.77393,0 1.86787,1.01855 1.86787,1.73918 0,0.32939 -0.19096,0.46306 -0.61276,0.42889 -1.67532,-0.13571 -2.20657,0.0362 -3.12646,1.01154 -1.17292,1.24364 -2.00726,2.55611 -3.40265,5.35247 -0.9861,1.97618 -1.09136,2.39021 -1.12616,4.42945 -0.0415,2.43507 0.25235,3.13239 1.81049,4.29571 1.02981,0.76886 4.61791,0.93325 6.97203,0.31941 1.79537,-0.46814 6.7221,-2.35037 7.62023,-2.91125 0.59611,-0.37228 1.39722,-0.14049 1.39722,0.40426 0,1.98279 -8.46871,5.3643 -13.34472,5.32846 -0.8823,-0.006 -2.00151,-0.23404 -2.7234,-0.55372 z"
       id="path3798" />
    <path
       inkscape:connector-curvature="0"
       style="fill:#000000"
       d="m 222.96323,395.47241 c -0.91536,-0.19913 -2.16666,-0.61832 -2.78063,-0.93154 -0.61396,-0.31323 -1.35933,-0.5695 -1.65641,-0.5695 -1.10556,0 -2.18545,-2.73818 -2.89542,-7.34183 -0.22041,-1.42924 -0.72053,-3.60763 -1.11136,-4.84086 -0.91529,-2.88792 -0.78729,-3.4433 0.91672,-3.97826 0.71147,-0.22335 2.67891,-0.90661 4.37214,-1.51835 2.63833,-0.95319 3.391,-1.11225 5.26351,-1.11225 2.0641,0 2.2301,0.0451 3.00114,0.8162 0.44894,0.44891 0.77479,1.03105 0.72417,1.29363 -0.0811,0.42068 -0.46377,0.47952 -3.22014,0.49514 -1.75933,0.01 -3.60476,0.1715 -4.21745,0.36921 -1.57127,0.50699 -4.41732,1.85649 -4.62542,2.19321 -0.0978,0.15821 -0.0273,0.95985 0.15651,1.78143 0.39114,1.7478 0.70139,1.84368 3.01485,0.93181 0.78413,-0.30908 1.98358,-0.67388 2.6654,-0.81067 0.68186,-0.1368 1.49534,-0.32189 1.80775,-0.41131 0.77059,-0.22055 2.19693,1.0054 2.43595,2.09375 0.24119,1.09811 -0.44244,1.90739 -1.17079,1.38597 -0.90038,-0.6446 -1.20666,-0.68043 -2.74133,-0.3206 -1.92218,0.45069 -4.94719,1.77184 -4.94719,2.16066 0,0.5212 1.83259,3.94116 2.37343,4.42928 0.77043,0.69529 3.83484,1.64968 5.25213,1.63574 1.53725,-0.0152 6.50159,-0.85388 7.1782,-1.21278 0.32937,-0.17471 0.59866,-0.17547 0.77198,-0.002 0.41701,0.41701 0.14039,1.51157 -0.4608,1.82334 -0.29958,0.15535 -0.85106,0.48921 -1.22554,0.74191 -1.77555,1.19814 -5.68607,1.5939 -8.8814,0.89881 z"
       id="path3796" />
    <path
       inkscape:connector-curvature="0"
       style="fill:#000000"
       d="m 273.51284,394.15647 c -3.0993,-0.85972 -4.69413,-2.42728 -5.70732,-5.6097 -1.19138,-3.74204 -0.55716,-6.4616 2.67272,-11.46056 1.66055,-2.57005 3.25778,-4.26494 4.7608,-5.05188 1.7758,-0.92975 2.61703,-0.78944 3.41931,0.5703 0.89463,1.5163 0.99668,2.83684 0.33486,4.33301 -0.65095,1.47155 -1.30149,1.5506 -1.18412,0.14389 0.11841,-1.41929 -0.418,-2.72031 -1.11737,-2.71007 -0.78337,0.0119 -1.13796,0.31061 -3.15958,2.66546 -2.33129,2.71556 -3.64692,5.70821 -3.6754,8.36039 -0.0491,4.56782 2.48979,6.95861 6.98892,6.58142 2.2823,-0.19134 4.29211,-0.90119 4.29428,-1.51672 0.004,-1.04459 -0.64687,-6.17724 -0.80649,-6.36302 -0.0966,-0.11232 -0.90544,0.38391 -1.79758,1.1028 -2.15134,1.73358 -3.23468,2.35087 -3.76714,2.14655 -0.69844,-0.26802 -0.51066,-1.24637 0.39176,-2.04117 0.45686,-0.40237 1.73049,-1.62008 2.83032,-2.70604 1.09982,-1.08597 2.10476,-1.97402 2.2332,-1.97346 0.66331,0.002 2.04255,1.19597 2.42914,2.10128 0.64295,1.50564 1.20865,3.77831 1.20865,4.85569 0,0.80444 0.092,0.9399 0.63864,0.9399 0.35125,0 0.86289,0.24779 1.13697,0.55064 0.46778,0.5169 0.47121,0.6075 0.056,1.47836 -1.14692,2.40514 -8.5763,4.60271 -12.18049,3.60293 z"
       id="path3794" />
    <path
       inkscape:connector-curvature="0"
       style="fill:#000000"
       d="m 306.44262,391.90049 c -0.36967,-0.44542 -0.63695,-1.91424 -1.01081,-5.55468 -0.11542,-1.12341 -0.35878,-2.31024 -0.54092,-2.63742 -0.18214,-0.32717 -0.33116,-0.86417 -0.33116,-1.19331 0,-0.5369 -0.10766,-0.584 -1.04664,-0.45805 -0.57564,0.0772 -1.61735,0.39283 -2.31489,0.70139 -1.49357,0.66067 -1.60638,1.20257 -0.69258,3.32676 0.67256,1.56341 0.53225,2.59083 -0.41258,3.02133 -0.85613,0.39008 -1.73959,-0.0923 -1.95332,-1.06642 -0.0894,-0.4076 -0.34828,-1.2313 -0.57523,-1.83044 -0.25701,-0.67857 -0.40618,-1.9558 -0.39552,-3.38697 0.01,-1.26369 -0.10921,-2.85688 -0.26366,-3.54044 -0.68444,-3.02986 -1.31787,-7.09263 -1.16706,-7.48561 0.0907,-0.23627 0.39519,-0.42958 0.67673,-0.42958 0.59685,0 1.06805,1.01012 1.58801,3.40427 0.19519,0.89872 0.51389,2.18553 0.70823,2.85958 0.19434,0.67404 0.42784,1.56255 0.51888,1.97447 0.19378,0.87679 0.28311,0.8848 2.60621,0.23357 l 1.77023,-0.49622 -0.022,-1.60485 c -0.0121,-0.88266 -0.18401,-2.98935 -0.38207,-4.68152 -0.27678,-2.36462 -0.28572,-3.15106 -0.0387,-3.39813 0.50133,-0.50134 1.21379,0.10157 1.56618,1.32531 0.27057,0.93963 1.13895,5.02385 1.7318,8.14524 1.11945,5.89373 1.47411,7.66887 1.92789,9.64886 0.47518,2.07353 0.48602,2.35679 0.11196,2.92766 -0.48199,0.73562 -1.52829,0.83481 -2.05912,0.1952 z"
       id="path3792" />
    <path
       inkscape:connector-curvature="0"
       style="fill:#000000"
       d="m 244.07017,391.72075 c -1.0831,-0.84187 -1.59837,-2.56636 -2.54182,-8.50686 -0.49438,-3.11297 -1.02046,-4.36553 -2.05909,-4.90262 -0.93906,-0.4856 -1.09525,-1.44764 -0.3395,-2.09113 1.47092,-1.25243 5.13249,-2.6321 8.64683,-3.25809 0.74894,-0.13341 1.85974,-0.37256 2.46843,-0.53146 1.66492,-0.43461 5.00427,0.0833 5.64663,0.87582 0.26922,0.33215 0.45304,0.85892 0.40851,1.17058 -0.0779,0.54514 -0.2362,0.56672 -4.16611,0.56807 -3.51492,0.001 -4.40822,0.0942 -6.40002,0.66628 -2.41313,0.69309 -3.81278,1.43905 -3.81278,2.03206 0,0.19127 0.24512,0.56957 0.54469,0.8407 0.29958,0.27111 0.54468,0.65528 0.54468,0.85371 0,0.19844 0.20265,0.86728 0.45034,1.4863 l 0.45035,1.1255 1.25179,-0.1485 c 0.68848,-0.0816 2.41605,-0.35104 3.83903,-0.59858 2.83722,-0.49356 4.99966,-0.42274 5.60598,0.18359 0.72432,0.72432 -0.0985,1.29618 -2.47493,1.72026 -1.19781,0.21375 -3.28084,0.58484 -4.62893,0.82465 -1.40636,0.25018 -2.58378,0.60949 -2.76244,0.84302 -0.3731,0.48771 0.12552,2.76984 1.05451,4.82626 0.44547,0.98608 0.52143,1.42578 0.30582,1.77023 -0.35659,0.56964 -1.4481,0.70405 -2.03197,0.25021 z"
       id="path3790" />
    <path
       inkscape:connector-curvature="0"
       style="fill:#000000"
       d="m 321.3768,389.87941 c -1.42464,-0.87454 0.22988,-1.84895 4.1532,-2.44595 l 2.85959,-0.43514 -0.0202,-1.09969 c -0.0206,-1.11793 -0.9618,-6.03991 -2.16497,-11.32184 -0.3656,-1.60488 -0.59245,-3.10616 -0.50419,-3.33618 0.24821,-0.64687 1.06946,-0.49438 1.41435,0.26261 0.17062,0.37446 0.41537,0.68086 0.54386,0.68086 0.1285,0 0.44833,1.01107 0.71076,2.24681 0.26239,1.23575 0.6591,2.66809 0.88151,3.183 0.22243,0.51489 0.76615,2.64271 1.20827,4.72848 0.44212,2.08577 0.92768,4.02364 1.07899,4.30639 0.24547,0.45861 0.61936,0.51448 3.46557,0.5178 3.85732,0.005 4.41596,0.12441 4.41596,0.94789 0,1.32435 -1.07948,1.5116 -9.35814,1.62335 -3.31602,0.0448 -6.51935,0.16076 -7.1185,0.25777 -0.62647,0.10146 -1.29188,0.052 -1.56597,-0.11614 z"
       id="path3786" />
    <path
       inkscape:connector-curvature="0"
       style="fill:#000000"
       d="m 364.47479,389.04607 c -0.82383,-0.12296 -3.08516,-0.42122 -5.02518,-0.66279 -1.94003,-0.24157 -3.62514,-0.49967 -3.7447,-0.57355 -0.44778,-0.27675 -0.21646,-1.92503 0.34097,-2.42947 0.5181,-0.46889 0.62113,-0.47478 1.42979,-0.0817 0.4793,0.23305 1.31253,0.56524 1.85165,0.7382 1.21633,0.39026 5.08627,0.30232 5.43978,-0.1236 0.28397,-0.34218 -0.44932,-1.45041 -4.4183,-6.67765 -1.29569,-1.70643 -3.05706,-3.77664 -3.91418,-4.60048 -0.85708,-0.82383 -1.8643,-1.89617 -2.23823,-2.38298 -0.37395,-0.48682 -0.85891,-0.8851 -1.0777,-0.8851 -0.21881,0 -1.19006,0.31693 -2.15834,0.7043 -1.97314,0.78938 -2.65038,0.60805 -2.49939,-0.66923 0.0968,-0.81846 1.24408,-1.34325 6.34571,-2.90254 1.79747,-0.54939 3.73015,-1.17066 4.29489,-1.38062 0.56474,-0.20994 1.49003,-0.38172 2.05617,-0.38172 0.56617,0 1.14582,-0.11184 1.28812,-0.24847 0.24876,-0.2389 1.65624,-0.41829 2.63471,-0.3358 0.67241,0.0567 1.29136,1.38795 1.00225,2.15573 -0.20478,0.5438 -0.40582,0.61308 -1.66935,0.57532 -0.79012,-0.0236 -1.98804,0.0856 -2.66209,0.24253 -0.67404,0.15699 -2.10725,0.42886 -3.18494,0.60415 -2.5044,0.40737 -2.89735,0.82204 -1.82681,1.92777 3.14712,3.25047 4.66049,4.97976 5.70337,6.5171 0.66048,0.97362 1.75142,2.44426 2.4243,3.2681 1.56449,1.91545 3.38354,4.92272 3.58404,5.92512 0.16425,0.82137 -0.14589,1.23621 -1.11696,1.49402 -0.29957,0.0795 -0.72851,0.20361 -0.95319,0.27572 -0.22468,0.0721 -1.08255,0.0306 -1.90639,-0.0925 z"
       id="path3784" />
    <path
       style="fill:#000000"
       d="m 404.43911,389.45109 c -0.3316,-0.13345 -1.27499,-1.25931 -2.09642,-2.50188 -0.82144,-1.24258 -2.49438,-3.26738 -3.71765,-4.49956 -2.36768,-2.38492 -3.06768,-2.71591 -4.88515,-2.3099 -1.28177,0.28633 -1.34482,0.98209 -0.29277,3.23032 1.11557,2.38386 1.08931,2.72046 -0.24327,3.11971 -0.84331,0.25266 -1.16879,0.2507 -1.48159,-0.008 -0.44172,-0.36661 -1.36454,-2.72669 -2.45732,-6.28454 -1.31029,-4.26594 -3.6305,-11.29465 -3.97155,-12.03102 -0.44467,-0.96017 -0.14878,-2.13073 0.53862,-2.13073 1.24157,0 2.19308,1.56412 3.31346,5.44682 0.15128,0.52426 0.40083,1.38214 0.55455,1.90639 0.15369,0.52426 0.52373,1.47405 0.82227,2.11065 0.63121,1.34602 1.24939,1.47793 2.92352,0.62385 1.40205,-0.71525 4.49165,-4.15406 5.35827,-5.96383 0.91906,-1.91936 1.49809,-3.87462 1.31758,-4.44915 -0.20289,-0.64568 1.09664,-1.49759 1.62084,-1.06254 1.45997,1.21165 0.0573,6.21047 -2.83881,10.11712 -0.74304,1.00235 -1.35102,1.98145 -1.35102,2.17579 0,0.19433 0.6434,0.9896 1.42979,1.76729 2.60908,2.58019 4.75526,4.88122 5.49217,5.88842 0.40031,0.54714 1.02059,1.06827 1.37842,1.15808 0.3578,0.0898 0.73165,0.41876 0.83075,0.73101 0.2452,0.77251 -0.0732,2.31713 -0.58253,2.82652 -0.46687,0.46687 -0.7838,0.49359 -1.66216,0.14008 z"
       id="path3778"
       inkscape:connector-curvature="0" />
    <path
       style="fill:#000000"
       d="m 423.37834,386.4626 c -0.57144,-0.34886 -1.21403,-2.29209 -1.57679,-4.76838 -0.15363,-1.04852 -0.39479,-2.33533 -0.53595,-2.85959 -0.14117,-0.52425 -0.46082,-1.74979 -0.71034,-2.7234 -0.66237,-2.58442 -1.59889,-5.17485 -2.2646,-6.26385 -0.81776,-1.33771 -0.77754,-2.3923 0.0997,-2.61246 0.89742,-0.22524 1.3681,0.19552 2.29485,2.05148 0.78623,1.5745 2.29845,6.43072 2.59172,8.3227 0.74926,4.83408 1.06044,5.8005 1.93863,6.02091 0.60392,0.15158 2.3409,-0.19883 6.51599,-1.31446 1.0485,-0.28019 2.51915,-0.6657 3.26808,-0.85673 0.74894,-0.19102 1.64208,-0.49873 1.98477,-0.6838 1.7474,-0.94375 2.89403,1.35266 1.32544,2.65448 -0.2179,0.18083 -1.17438,0.45206 -2.12552,0.60276 -0.95115,0.15069 -2.34214,0.44527 -3.09108,0.65462 -6.93627,1.93888 -8.8689,2.29213 -9.71484,1.77572 z"
       id="path3774"
       inkscape:connector-curvature="0" />
    <path
       style="fill:#000000"
       d="m 449.45379,382.30699 c -0.22052,-0.33702 -0.60459,-1.34809 -0.85349,-2.24682 -0.24893,-0.89872 -0.62282,-2.24288 -0.83088,-2.98701 -0.20807,-0.74414 -0.37922,-1.60202 -0.38031,-1.90639 -0.004,-0.85077 -1.61061,-5.34138 -2.21702,-6.19297 -0.3366,-0.47273 -0.50704,-1.08281 -0.45368,-1.62395 0.0701,-0.71129 0.30077,-0.98029 1.28575,-1.49952 0.66015,-0.34802 1.34021,-0.63275 1.51124,-0.63275 0.36064,0 1.92489,1.02161 4.00889,2.61826 2.82669,2.16563 4.5527,2.69716 6.27103,1.93117 0.7548,-0.33646 2.19061,-2.11214 2.50249,-3.09483 0.0961,-0.30271 0.48704,-0.71752 0.86877,-0.92183 0.96815,-0.51813 1.4905,-0.11661 2.17522,1.67206 0.52132,1.36184 1.14789,2.86396 1.74984,4.19519 0.1355,0.29957 0.62645,1.46383 1.09103,2.58724 0.46461,1.12341 1.13986,2.47149 1.50054,2.99576 0.75976,1.10423 1.49519,3.05585 1.49519,3.96774 0,0.707 -0.9215,1.47907 -1.76532,1.47907 -0.63629,0 -1.12109,-0.67427 -1.63924,-2.27993 -1.15612,-3.5825 -3.79933,-9.70308 -4.19035,-9.70308 -0.12997,0 -0.38425,0.17829 -0.56508,0.39618 -0.18084,0.2179 -0.89713,0.72923 -1.59176,1.13631 -1.07327,0.62898 -1.57982,0.74172 -3.37284,0.75063 -1.95513,0.01 -2.19537,-0.0532 -3.27564,-0.8585 -2.57163,-1.91695 -4.04214,-2.86034 -4.20486,-2.69761 -0.0942,0.0942 0.0191,0.81747 0.25205,1.60726 0.23282,0.78977 0.87081,2.96787 1.41776,4.84022 0.54696,1.87234 1.17071,3.76011 1.38613,4.19504 0.66721,1.34711 0.51206,2.04629 -0.5528,2.49121 -1.19761,0.5004 -1.14816,0.50705 -1.62266,-0.21815 z"
       id="path3772"
       inkscape:connector-curvature="0" />
    <path
       inkscape:connector-curvature="0"
       style="fill:#000000"
       d="m 318.90304,372.00251 c -0.31327,-0.31326 -0.19785,-1.37227 0.18408,-1.68924 0.48514,-0.40265 4.1495,-1.90793 5.35352,-2.19917 0.52425,-0.12681 2.36256,-0.75088 4.08511,-1.38682 1.72257,-0.63593 3.51405,-1.21174 3.98106,-1.27958 1.67343,-0.24309 3.22855,1.21326 2.71753,2.54493 -0.13443,0.35036 -0.40467,0.40418 -1.33145,0.26521 -1.18128,-0.17714 -5.31183,0.71531 -7.31724,1.58098 -4.59602,1.98396 -7.13607,2.70024 -7.67261,2.16369 z"
       id="path3766" />
    <path
       style="fill:#000000"
       d="m 483.75105,380.64674 c -0.2325,-0.35484 -0.59746,-1.63911 -0.81106,-2.85393 -0.2136,-1.21483 -0.5004,-2.42717 -0.63739,-2.69411 -0.13699,-0.26694 -0.32133,-1.12776 -0.40968,-1.91292 -0.0883,-0.78517 -0.58997,-2.31518 -1.11472,-3.40001 -0.94459,-1.9528 -0.94932,-1.98059 -0.47478,-2.7931 0.70248,-1.20281 1.57838,-1.5667 2.55525,-1.06155 0.42999,0.22237 0.85218,0.5876 0.93813,0.81161 0.0859,0.22402 0.89184,0.9223 1.79086,1.55173 0.899,0.62942 2.05974,1.45079 2.57946,1.82526 1.37581,0.99135 4.71161,3.20648 5.64941,3.75152 0.44457,0.25838 1.55796,1.17445 2.4742,2.03573 0.91626,0.86128 1.80869,1.56597 1.98321,1.56597 0.47875,0 0.38281,-1.63235 -0.19356,-3.29355 -0.7284,-2.09937 -3.12533,-7.0225 -3.95806,-8.12961 -1.16195,-1.54477 -0.81275,-3.28327 0.65945,-3.28327 0.96379,0 1.40945,0.59763 2.1674,2.9065 0.48528,1.47821 2.71769,6.49386 3.68063,8.26948 0.20608,0.37995 0.46096,1.75443 0.56644,3.05438 l 0.19179,2.36355 -0.96265,0.96264 c -0.67671,0.67671 -1.2068,0.96265 -1.78462,0.96265 -1.27454,0 -1.56492,-0.19964 -2.90642,-1.99799 -1.43957,-1.92982 -3.48434,-3.59662 -6.26652,-5.1082 -0.59916,-0.32551 -1.51831,-0.91794 -2.04257,-1.3165 -0.95716,-0.72769 -2.25223,-1.3816 -2.73623,-1.3816 -0.14273,0 -0.25951,0.25781 -0.25951,0.5729 0,0.7061 1.35258,5.18515 1.67332,5.54116 0.35366,0.39259 0.27852,2.43962 -0.10731,2.92466 -0.18722,0.23534 -0.67371,0.50527 -1.08106,0.59984 -0.58773,0.13645 -0.82788,0.0388 -1.16335,-0.47324 z"
       id="path3764"
       inkscape:connector-curvature="0" />
    <path
       style="fill:#000000"
       d="m 541.5889,378.0857 c -0.30668,-0.7115 -0.74863,-2.09022 -0.98213,-3.06384 -0.23354,-0.97362 -0.6482,-2.35885 -0.92156,-3.07829 -0.27332,-0.71944 -0.70075,-2.1288 -0.94983,-3.13192 -0.24906,-1.00312 -0.75058,-2.41611 -1.11442,-3.13998 -0.84091,-1.67285 -0.75738,-2.46638 0.27198,-2.58442 0.42096,-0.0482 0.93884,0.0562 1.15086,0.23214 0.44873,0.37241 1.76033,3.05255 1.76033,3.59707 0,1.10883 2.07491,1.36886 3.9887,0.49986 0.99417,-0.45142 1.15228,-0.6498 1.32293,-1.65978 0.16812,-0.99511 0.0902,-1.29625 -0.58809,-2.27283 -1.47059,-2.11729 -3.95515,-2.79516 -7.50163,-2.04666 -2.09703,0.44259 -4.74871,1.73945 -4.92353,2.40795 -0.26469,1.01217 -1.83032,0.51992 -1.83032,-0.57546 0,-1.43816 1.04821,-2.31769 4.22129,-3.54208 1.36576,-0.52699 2.14928,-0.63108 4.77237,-0.63403 2.81775,-0.004 3.27368,0.0661 4.46364,0.67806 0.72895,0.37489 1.81226,1.25607 2.40736,1.95818 0.96241,1.13545 1.11328,1.51336 1.36479,3.41834 0.25112,1.90215 0.22779,2.22563 -0.20853,2.89157 -0.61569,0.93961 -2.27517,1.80832 -4.22088,2.20952 -1.33617,0.27552 -1.49491,0.38076 -1.4704,0.97486 0.0445,1.08065 0.66669,3.2564 1.50482,5.26288 0.43043,1.03041 0.7826,2.02836 0.7826,2.21767 0,0.44275 -0.61977,0.6748 -1.80216,0.6748 -0.86232,0 -0.98702,-0.10766 -1.49819,-1.29361 z"
       id="path3754"
       inkscape:connector-curvature="0" />
    <path
       style="fill:#000000"
       d="m 639.69675,377.70489 c -1.57275,-0.2843 -2.48384,-0.90564 -2.48384,-1.69391 0,-1.17547 1.60379,-1.99981 2.38021,-1.22341 0.41832,0.41833 3.75403,0.37492 5.26199,-0.0685 0.66489,-0.1955 1.90355,-0.75885 2.75261,-1.25188 0.84902,-0.49304 1.65728,-0.89643 1.79609,-0.89643 0.1388,0 0.46507,-0.235 0.72502,-0.52224 0.45647,-0.50442 0.42769,-0.54223 -0.84292,-1.10755 -3.26742,-1.45371 -13.32373,-3.53726 -17.65599,-3.6581 -3.93651,-0.10981 -6.40002,-1.07622 -6.40002,-2.51069 0,-1.30903 2.66647,-2.79686 7.48938,-4.17891 5.38141,-1.5421 7.07693,-1.72969 7.85569,-0.86919 1.03497,1.14364 0.25469,1.95304 -1.88275,1.95304 -1.4277,0 -2.48368,0.23909 -5.76868,1.30612 -1.24193,0.40341 -2.24682,0.88354 -2.24682,1.07355 0,0.18905 0.15319,0.34834 0.34043,0.35397 0.94108,0.0283 5.90886,0.79221 6.74044,1.03654 0.52426,0.15402 2.97534,0.76291 5.44683,1.35308 2.4715,0.59016 5.16768,1.34516 5.9915,1.67779 0.82384,0.33263 1.95245,0.69812 2.50805,0.81222 3.99688,0.82071 2.90032,3.76127 -2.35194,6.30703 -1.50885,0.73134 -2.87772,1.32995 -3.04193,1.33026 -0.16423,2.6e-4 -0.65445,0.17091 -1.08937,0.37912 -0.98512,0.47162 -3.9394,0.68451 -5.52398,0.39806 z"
       id="path3752"
       inkscape:connector-curvature="0" />
    <path
       style="fill:#000000"
       d="m 677.60177,373.9353 c -0.32918,-0.13588 -0.77391,-0.59038 -0.98831,-1.01004 -0.45323,-0.88723 -1.81746,-6.31355 -1.81746,-7.22909 0,-0.68507 -0.77105,-2.87706 -1.4616,-4.1552 -0.24279,-0.44937 -0.4422,-1.10668 -0.4431,-1.46071 -0.002,-0.61208 -0.0643,-0.63431 -1.27622,-0.45257 -0.70097,0.10516 -2.3838,0.55362 -3.73957,0.99667 -1.3558,0.44306 -2.83505,0.76927 -3.28722,0.72492 -0.74057,-0.0727 -0.82211,-0.17406 -0.82211,-1.02253 0,-1.10558 0.002,-1.1069 5.31066,-2.45725 1.87233,-0.47635 4.26213,-1.09274 5.31065,-1.36976 1.81831,-0.48039 4.50158,-1.0621 7.76173,-1.68268 0.82382,-0.15682 2.24692,-0.46047 3.16239,-0.67476 0.91551,-0.21431 2.50619,-0.35303 3.53488,-0.30827 1.76181,0.0766 1.88547,0.12462 2.13134,0.82638 0.33248,0.94898 -0.36496,1.7565 -2.29976,2.66271 l -1.35568,0.63496 -0.61212,-0.5644 c -0.38696,-0.35681 -1.11295,-0.61138 -1.97382,-0.69212 -1.26233,-0.11841 -2.06568,0.0214 -8.44257,1.46861 -1.88079,0.42687 -2.19252,0.71299 -1.56578,1.43721 0.83148,0.96079 1.58944,2.63345 2.35712,5.20168 0.40295,1.34809 0.95306,3.06384 1.22245,3.81279 0.99015,2.75262 1.44553,4.4153 1.3488,4.92465 -0.11219,0.59066 -1.10878,0.77925 -2.0547,0.3888 z"
       id="path3750"
       inkscape:connector-curvature="0" />
    <path
       style="fill:#000000"
       d="m 872.10967,372.57352 c -0.40963,-0.45263 -0.4647,-0.84897 -0.33422,-2.40538 0.12206,-1.45602 0.43757,-2.45397 1.44311,-4.56445 0.70779,-1.48556 1.48924,-3.0074 1.73653,-3.38186 0.24731,-0.37448 0.68314,-1.23235 0.96855,-1.90639 0.28539,-0.67405 0.78633,-1.66162 1.11317,-2.19461 0.79649,-1.29879 2.01507,-4.38043 2.01507,-5.09582 0,-0.31643 -0.12379,-0.65184 -0.27512,-0.74536 -0.32557,-0.20123 -6.24933,0.33474 -7.62277,0.68969 -1.447,0.37398 -6.88773,1.03476 -7.28011,0.88419 -0.44307,-0.17003 -0.44604,-1.20752 -0.005,-1.75274 0.44473,-0.5498 5.98633,-1.40568 12.86812,-1.98742 1.04851,-0.0887 2.48129,-0.23406 3.18397,-0.32317 1.22736,-0.15562 1.29958,-0.12591 1.83729,0.75608 0.75845,1.24408 0.72279,1.54094 -0.49528,4.12368 -0.58137,1.23267 -1.25506,2.7927 -1.49708,3.46675 -0.24204,0.67404 -0.7036,1.65447 -1.02566,2.17873 -0.32211,0.52426 -1.07592,1.87235 -1.67515,2.99575 -0.59924,1.12341 -1.25449,2.34894 -1.45607,2.72342 -0.20159,0.37446 -0.36732,1.03215 -0.36821,1.46155 -0.002,0.68128 0.0764,0.75794 0.61108,0.60197 0.33702,-0.0984 1.47065,-0.36403 2.51916,-0.5905 2.43802,-0.5266 4.94881,-1.30393 5.9915,-1.85494 1.09928,-0.5809 1.82836,-0.54581 2.68667,0.12934 0.94154,0.7406 0.92495,1.72116 -0.0455,2.69162 -0.82402,0.82401 -2.03408,1.07749 -5.09223,1.06667 -2.49278,-0.008 -6.57296,1.44474 -7.81446,2.78387 -0.86324,0.93114 -1.31862,0.98826 -1.98735,0.24933 z"
       id="path3748"
       inkscape:connector-curvature="0" />
    <path
       style="fill:#000000"
       d="m 742.6238,372.23037 c -1.34444,-1.64062 -1.6499,-2.13747 -1.65654,-2.69465 -0.007,-0.61512 -0.66648,-1.91593 -2.70095,-5.33048 -0.51609,-0.8662 -1.91663,-2.51211 -3.11231,-3.65758 -1.82543,-1.7488 -2.24996,-2.03521 -2.64803,-1.7866 -0.66422,0.41481 -1.12295,-0.0354 -1.5664,-1.53725 -0.62249,-2.10826 0.0419,-2.94146 1.76984,-2.21949 1.03216,0.43128 6.32822,5.70667 6.93617,6.90914 0.19936,0.39428 0.64129,1.0633 0.98207,1.48672 0.34078,0.4234 0.6196,0.8884 0.6196,1.03331 0,0.2222 1.44842,2.51599 2.80283,4.43868 0.48665,0.69086 1.00994,0.33662 1.00994,-0.68366 0,-0.44534 0.18711,-1.25752 0.41581,-1.80484 0.45331,-1.08496 0.89437,-4.52748 1.17508,-9.17162 0.14145,-2.34029 0.27519,-3.02744 0.6331,-3.2523 0.32521,-0.20432 0.56827,-0.19007 0.85791,0.0504 0.43602,0.36186 1.03835,3.20676 0.85355,4.03138 -0.0621,0.27707 -0.16834,1.23908 -0.23607,2.13781 -0.0677,0.89874 -0.26336,2.89709 -0.43471,4.4408 -0.20421,1.83969 -0.22164,3.06472 -0.0506,3.55545 0.39216,1.12484 -0.24183,2.12013 -1.61189,2.53062 -0.61283,0.18359 -1.17759,0.49895 -1.25504,0.7008 -0.16323,0.42544 -1.49122,1.16386 -2.0931,1.16386 -0.22621,0 -0.53684,-0.1532 -0.69028,-0.34043 z"
       id="path3746"
       inkscape:connector-curvature="0" />
    <path
       style="fill:#000000"
       d="m 821.45172,371.03906 c -1.04851,-0.53268 -2.3966,-1.3316 -2.99574,-1.77539 -3.2453,-2.40374 -4.5746,-3.25341 -4.97059,-3.17715 -0.24219,0.0467 -0.75479,0.65559 -1.13915,1.35321 -0.38432,0.69763 -1.11234,1.95998 -1.61782,2.80523 -0.90153,1.50759 -0.94035,1.53526 -2.04255,1.45472 -1.07188,-0.0783 -1.12662,-0.12591 -1.19062,-1.03528 -0.0518,-0.73607 0.17566,-1.29438 0.99857,-2.45107 0.5861,-0.82383 1.44942,-2.13591 1.91853,-2.91574 0.83832,-1.39362 0.84513,-1.43292 0.39748,-2.29853 -0.65623,-1.26904 -5.73325,-6.40104 -6.89405,-6.96873 -0.74657,-0.36512 -1.00526,-0.6743 -1.07471,-1.28446 -0.0915,-0.80493 0.47595,-1.5113 1.21429,-1.5113 0.57103,0 5.41708,4.24022 6.44237,5.63696 0.53193,0.72461 1.23632,1.5604 1.56531,1.85729 0.69831,0.63017 0.4782,0.84251 2.69999,-2.60467 1.50313,-2.33213 2.01012,-2.8401 2.60628,-2.61133 0.98954,0.37972 0.88712,0.71475 -1.82516,5.96957 -0.40319,0.78115 -0.74021,1.52636 -0.74893,1.65601 -0.0206,0.30947 2.02172,2.20944 3.33201,3.09944 l 1.03296,0.70163 0.42755,-0.61042 c 0.48812,-0.6969 1.46615,-0.60498 2.40866,0.22637 0.29958,0.26424 0.9952,0.74975 1.54582,1.07892 1.09113,0.65231 2.49194,2.75408 2.25213,3.37908 -0.11805,0.30766 -1.83684,1.04731 -2.33166,1.00341 -0.0575,-0.005 -0.96245,-0.44511 -2.01097,-0.97777 z"
       id="path3744"
       inkscape:connector-curvature="0" />
    <path
       style="fill:#000000"
       d="m 774.94731,371.25247 c -0.21024,-0.24854 -0.7023,-1.01312 -1.09344,-1.69904 -0.94835,-1.66302 -4.97952,-7.02054 -5.92639,-7.87629 -1.18818,-1.07384 -3.80357,-4.05408 -3.80357,-4.3342 0,-0.42952 1.38763,-1.92965 1.78498,-1.92965 0.20616,0 0.94243,0.86953 1.63617,1.93227 0.69376,1.06275 1.72168,2.3802 2.28434,2.92767 1.11641,1.08634 4.91581,5.9995 4.91581,6.35688 0,0.12183 0.16953,0.22151 0.37676,0.22151 0.51653,0 0.70422,-0.86342 0.71046,-3.26809 0.007,-2.64367 0.42681,-5.17118 0.94535,-5.68972 0.74049,-0.74048 1.78628,-0.0671 3.18557,2.05108 1.62743,2.46353 5.83279,6.90673 6.53701,6.90673 0.98993,0 2.08148,-0.78359 2.36444,-1.69739 0.55185,-1.78206 0.61417,-2.64178 0.27389,-3.7776 -0.32496,-1.08459 -0.93053,-1.8558 -3.98323,-5.07275 -1.29115,-1.36064 -1.26582,-1.5277 0.38642,-2.54886 0.82814,-0.51181 0.99571,-0.53264 1.51441,-0.18824 1.10028,0.73056 4.28692,7.02259 4.81753,9.51213 0.31847,1.49436 0.30229,1.59048 -0.57062,3.39238 -1.05979,2.18764 -1.87901,2.86166 -3.68965,3.03564 -2.01194,0.19332 -3.29957,-0.57754 -6.38755,-3.82407 -2.0679,-2.1741 -2.7143,-2.70664 -2.97224,-2.4487 -0.20534,0.20533 -0.38983,1.6634 -0.48929,3.86691 -0.0879,1.9455 -0.29051,3.66784 -0.4504,3.8274 -0.15987,0.15957 -0.67179,0.39942 -1.1376,0.533 -0.66416,0.19048 -0.92936,0.14539 -1.22916,-0.209 z"
       id="path3742"
       inkscape:connector-curvature="0" />
    <path
       style="fill:#000000"
       d="m 709.30631,370.52917 c -1.61591,-0.44359 -1.80652,-0.60254 -3.63276,-3.02902 -1.40433,-1.86592 -3.64343,-6.14701 -3.64343,-6.96612 0,-0.60153 -0.58687,-1.03562 -1.40011,-1.03562 -0.41056,0 -0.80423,-0.0935 -0.87482,-0.20767 -0.34088,-0.55157 1.9924,-3.33277 2.79605,-3.33277 0.98792,0 1.56412,0.89046 2.02655,3.13194 0.33484,1.62311 0.7853,2.73433 1.76634,4.35745 0.72427,1.1983 1.39428,2.39354 1.48892,2.65609 0.0947,0.26255 0.75126,0.84467 1.45918,1.29362 1.42021,0.90067 2.43346,1.00905 4.76289,0.50947 2.07211,-0.44439 2.79937,-1.28482 3.2386,-3.74255 0.33182,-1.8568 0.31608,-2.08769 -0.24924,-3.6589 -0.68367,-1.90013 -1.39363,-2.78522 -2.4444,-3.04741 -0.86193,-0.21507 -1.67632,-0.89697 -1.67632,-1.4036 0,-0.20028 0.45958,-0.60382 1.02129,-0.89674 0.5617,-0.29292 1.29201,-0.67893 1.62287,-0.8578 1.10459,-0.59711 1.81288,0.2122 2.78232,3.17915 0.47465,1.4525 1.03923,2.98182 1.25468,3.39845 0.31163,0.60266 0.33961,1.1686 0.1368,2.76834 -0.63355,4.99681 -2.19295,6.33469 -8.31583,7.13452 -0.44936,0.0587 -1.40316,-0.0542 -2.11958,-0.25083 z"
       id="path3740"
       inkscape:connector-curvature="0" />
    <path
       style="fill:#000000"
       d="m 845.34966,368.57496 c -0.18722,-0.0741 -0.34249,-0.52277 -0.34499,-0.99709 -0.006,-1.08252 -1.67804,-5.2533 -2.39298,-5.96826 -0.34114,-0.34113 -1.45134,-0.72262 -3.06782,-1.05418 -2.94899,-0.60486 -4.24948,-1.29354 -6.05965,-3.20894 -0.86089,-0.91094 -1.53448,-1.38852 -1.95841,-1.38852 -0.95275,0 -0.99175,-0.29271 -0.24635,-1.8502 0.5744,-1.20021 1.29477,-1.96256 1.85443,-1.96256 0.31264,0 1.25404,1.21773 1.25404,1.62217 0,0.84555 1.39338,2.46975 2.66554,3.10709 2.28415,1.14434 6.31579,1.65705 9.03623,1.14917 1.17523,-0.21942 3.20227,-1.2865 3.61326,-1.90212 0.46848,-0.70176 0.20766,-2.03099 -0.50917,-2.59484 -0.99807,-0.78511 -1.57454,-0.71077 -3.01452,0.38874 -1.41715,1.08208 -1.52023,1.10876 -2.08856,0.54044 -0.36877,-0.36878 -0.35777,-0.53562 0.10337,-1.56596 0.28386,-0.63426 0.77251,-1.36097 1.08586,-1.61488 1.27236,-1.03098 4.49737,-0.87588 5.53077,0.26599 0.24382,0.26943 0.71462,1.24392 1.04623,2.16555 0.54781,1.52249 0.56914,1.77807 0.23326,2.79577 -0.5536,1.6774 -1.71385,2.64042 -4.07622,3.3833 -2.47119,0.77709 -2.55485,0.9938 -1.38229,3.57986 0.61911,1.36543 0.79324,2.07212 0.67104,2.72346 -0.19344,1.03119 -1.46162,2.58046 -1.95309,2.38601 z"
       id="path3738"
       inkscape:connector-curvature="0" />
    <path
       inkscape:connector-curvature="0"
       style="fill:#000000"
       d="m 42.74908,294.92996 c -0.374907,-0.37489 -0.161744,-0.90781 0.363114,-0.90781 0.363114,0 0.544683,0.18156 0.544683,0.54469 0,0.52485 -0.532915,0.73802 -0.907797,0.36312 z"
       id="path3050" />
    <path
       style="color:#000000;fill:#000000;fill-opacity:1;stroke:none;stroke-width:1;marker:none;visibility:visible;display:inline;overflow:visible;enable-background:accumulate"
       d="m 92.555458,382.48789 c -0.288681,-0.008 -0.518746,0.0672 -0.629762,0.24681 -0.09131,0.14774 -0.409759,1.71031 -0.70639,3.47236 -0.296607,1.76203 -0.913108,4.42554 -1.370206,5.92341 -1.595078,5.22701 -1.88931,6.2768 -2.289377,8.17022 -0.488393,2.31161 -0.507133,3.19503 -0.07663,3.62557 1.032396,1.03237 2.145097,-0.20357 2.902155,-3.21705 0.31987,-1.2732 0.789787,-2.46339 1.038304,-2.64681 0.77606,-0.57273 3.122086,-1.09851 5.693616,-1.27659 2.930801,-0.20298 2.813041,-0.29097 4.459591,3.10638 1.27695,2.63464 1.81853,3.68613 2.36599,4.56171 0.45355,0.72546 0.96598,0.77816 1.88084,0.17874 0.88911,-0.58259 0.84845,-1.31936 -0.15319,-2.67235 -1.40027,-1.89138 -2.12642,-2.97662 -2.74044,-4.11067 -0.32441,-0.59915 -1.02901,-1.68849 -1.56596,-2.42552 -1.17041,-1.60651 -1.398173,-2.00783 -3.702148,-6.58725 -0.986968,-1.96173 -2.032648,-3.78875 -2.331893,-4.05958 -0.299281,-0.27085 -0.544683,-0.64347 -0.544683,-0.83405 0,-0.67958 -1.363749,-1.42933 -2.229829,-1.45533 z m 0.868122,3.78725 c 0.09262,0 0.196788,0.0908 0.374465,0.27234 0.570644,0.58316 4.006083,7.41521 3.821279,7.60002 -0.08475,0.0847 -1.096909,0.23819 -2.246814,0.3319 -1.14994,0.0937 -2.289198,0.25222 -2.536176,0.35748 -0.246966,0.10527 -0.51587,0.0867 -0.595757,-0.0426 -0.148936,-0.24096 0.215503,-3.65191 0.544683,-5.1149 0.101097,-0.44937 0.155131,-1.24597 0.127679,-1.77022 -0.02745,-0.52426 0.07412,-1.13702 0.221244,-1.36171 0.118881,-0.18155 0.196691,-0.27234 0.289397,-0.27234 z"
       id="rect3976-2"
       inkscape:connector-curvature="0" />
    <path
       style="color:#000000;fill:#000000;fill-opacity:1;stroke:none;stroke-width:1;marker:none;visibility:visible;display:inline;overflow:visible;enable-background:accumulate"
       d="m 604.51827,357.12322 c -2.9287,0.0196 -5.85378,1.19577 -8.15325,3.27659 -1.58714,1.4363 -1.69788,1.60269 -1.55743,2.46812 0.0829,0.51115 0.30513,1.11758 0.49362,1.34465 0.2995,0.36091 0.4142,0.3184 0.91915,-0.31488 0.75003,-0.94063 0.92786,-0.72145 2.13619,2.59575 1.35761,3.7273 3.35178,8.27519 4.29787,9.8128 0.60473,0.98277 0.98797,1.33619 1.45533,1.33619 1.05206,0 1.49789,-0.29767 1.49789,-0.99577 0,-0.71015 -0.90565,-2.67133 -1.36171,-2.95318 -0.15195,-0.0939 -0.27234,-0.52502 -0.27234,-0.96172 0,-0.60375 0.18903,-0.89254 0.79998,-1.20851 1.12803,-0.58333 1.87399,-0.52409 3.50638,0.28936 1.54485,0.76983 4.33682,3.39487 5.39579,5.07235 0.36546,0.57892 0.84327,1.11865 1.05533,1.20002 0.21202,0.0814 0.70231,0.69276 1.08936,1.35318 0.68967,1.17679 0.73015,1.20002 2.12764,1.20002 2.45654,0 3.37526,-1.29774 1.98299,-2.80003 -0.4483,-0.4837 -0.83126,-0.6563 -1.22553,-0.5532 -0.43836,0.1147 -0.95284,-0.23331 -2.20425,-1.48083 -0.89951,-0.89671 -1.63405,-1.816 -1.63405,-2.04255 0,-0.22668 -0.45962,-0.84083 -1.02128,-1.36171 -0.56175,-0.52099 -1.63148,-1.57957 -2.37448,-2.34894 l -1.35321,-1.39575 1.13193,-1.15746 c 1.51293,-1.55669 1.77708,-3.11813 0.85959,-5.02131 -1.20331,-2.49581 -2.1924,-3.64197 -3.91491,-4.52767 -1.41039,-0.72517 -1.91368,-0.83751 -3.6766,-0.82552 z m -0.19576,2.31489 c 0.47373,0 0.96676,0.0273 1.36171,0.0766 1.21145,0.15142 1.65719,0.37338 2.83403,1.45533 1.18875,1.09283 1.42365,1.47645 1.59151,2.59574 0.36475,2.43242 -0.93789,3.65283 -3.54044,3.32768 -1.34248,-0.16773 -1.44855,-0.12987 -2.42552,0.79148 -0.56353,0.5315 -1.18885,0.97025 -1.38725,0.97025 -0.45747,0 -1.88231,-2.24633 -2.33192,-3.67662 -0.18835,-0.5992 -0.69545,-1.49095 -1.12341,-1.98299 -0.42793,-0.49201 -0.77446,-1.08482 -0.77446,-1.31065 0,-0.51951 2.96866,-1.94239 4.54466,-2.17872 0.32387,-0.0486 0.77735,-0.0686 1.25109,-0.0682 z"
       id="rect3976"
       inkscape:connector-curvature="0" />
    <path
       style="fill:#000000"
       d="m 128.47045,371.80701 c -1.43076,0.031 -1.88716,0.20197 -3.47234,1.04682 -2.47619,1.3197 -5.45652,3.80668 -6.25532,5.21702 -0.7009,1.23747 -0.799,2.63545 -0.22128,3.11492 0.54008,0.44821 0.87746,0.17525 1.53191,-1.21704 0.6911,-1.47028 1.8547,-2.68091 4.09362,-4.26383 2.08273,-1.47242 3.80499,-2.00261 5.68512,-1.7532 2.17701,0.28879 3.58715,1.05392 5.09791,2.74895 1.56824,1.75953 1.86558,2.71929 1.42979,4.66383 -0.46069,2.05575 -0.79378,2.28086 -3.40426,2.28086 l -2.23833,0 -0.88511,-2.24682 c -0.95746,-2.42892 -1.7142,-3.47234 -2.51063,-3.47234 -0.78248,0 -0.87591,0.7239 -0.26382,1.98298 0.81961,1.68613 1.41274,3.90477 1.41274,5.27661 0,0.6628 0.24171,1.67809 0.53619,2.25533 0.61718,1.2098 1.70374,6.16932 1.63405,7.45534 -0.0704,1.29926 -0.0421,1.41726 0.57022,2.19575 0.6628,0.84268 1.8507,0.94842 3.11488,0.28085 0.44942,-0.23729 2.16515,-1.041 3.81278,-1.78724 3.96412,-1.79533 4.62726,-2.32201 5.02981,-4.00001 0.61081,-2.5462 -0.5233,-4.63834 -3.4468,-6.37449 -1.38325,-0.82143 -1.46827,-0.94099 -1.31067,-1.70213 0.0931,-0.44936 0.23323,-1.6805 0.31491,-2.74043 0.13167,-1.70821 0.0698,-2.08514 -0.55321,-3.27661 -0.98021,-1.87463 -3.52292,-4.27847 -5.34469,-5.05533 -1.15685,-0.49335 -1.9939,-0.63251 -3.67661,-0.62979 -0.25039,2.8e-4 -0.47641,-0.005 -0.68086,0 z m 8.39155,14.92771 c 1.06188,-0.0368 1.90816,0.40223 2.93616,1.38724 1.18403,1.13448 1.53276,2.22312 0.98724,3.0468 -0.11005,0.16616 -1.49551,0.93212 -3.08086,1.70215 -1.58536,0.77 -3.08342,1.39574 -3.32765,1.39574 -0.55014,0 -0.79548,-0.45055 -1.52343,-2.81704 -0.62681,-2.03767 -0.74183,-3.44681 -0.28084,-3.44681 0.16164,0 1.09283,-0.3111 2.05955,-0.69787 0.88223,-0.35294 1.59263,-0.54815 2.22983,-0.57021 z"
       id="path3050-1-4"
       inkscape:connector-curvature="0" />
    <path
       style="color:#000000;fill:#000000;fill-opacity:1;stroke:none;stroke-width:1;marker:none;visibility:visible;display:inline;overflow:visible;enable-background:accumulate"
       d="m 510.97273,363.03634 c -0.65394,0 -2.23709,1.67917 -3.17449,3.37023 -0.70038,1.26349 -0.76778,1.63857 -0.75747,3.98298 0.0107,2.29279 0.0892,2.7422 0.74894,3.94895 1.4493,2.65083 5.71132,5.80651 9.03836,6.69789 1.1213,0.30045 3.7976,0.0661 4.73193,-0.41702 0.98214,-0.50788 2.44436,-2.17098 2.92766,-3.32767 0.53531,-1.28126 0.46574,-3.80463 -0.15322,-5.49789 -0.61037,-1.66999 -0.73622,-1.85819 -2.58724,-3.82128 -1.80867,-1.91824 -3.57176,-2.75392 -5.81277,-2.75745 -1.25059,-0.002 -1.75173,-0.1079 -1.86382,-0.40001 -0.18715,-0.4877 -2.43497,-1.77873 -3.09788,-1.77873 z m 0.28084,2.97022 c 0.32262,-8.1e-4 0.80853,0.84751 0.80853,1.52341 0,1.42125 0.55075,1.64389 2.09359,0.85107 0.72402,-0.37202 1.61705,-0.70496 1.99152,-0.73192 1.90582,-0.13736 2.22299,0.007 4.10212,1.82128 1.55112,1.49749 1.94438,2.06537 2.3064,3.31065 0.24017,0.82617 0.36619,1.82313 0.27234,2.21278 -0.57265,2.37775 -0.70348,2.64448 -1.55747,3.14894 -2.05928,1.21647 -4.35934,0.98122 -6.86809,-0.70638 -3.82585,-2.57363 -5.04525,-4.35597 -5.05533,-7.35322 -0.005,-1.60657 0.0842,-1.91508 0.83405,-2.85958 0.46232,-0.58229 0.88641,-1.10716 0.94466,-1.16596 0.0375,-0.0378 0.0816,-0.051 0.12768,-0.0511 z"
       id="rect3976-3"
       inkscape:connector-curvature="0" />
    <path
       style="fill:#000000"
       d="m 569.552,352.69407 c -0.0713,-0.001 -0.141,0.004 -0.21278,0.008 -1.26335,0.0783 -2.62442,1.03813 -4.70639,3.14043 -2.85301,2.88089 -3.71914,4.62898 -3.71914,7.50641 0,1.28763 0.16368,2.5375 0.40851,3.12341 0.65018,1.55621 2.27808,2.97984 4.10211,3.5915 3.95197,1.32518 10.18431,1.46879 13.35325,0.30638 2.67131,-0.97985 2.58269,-0.99593 4.31488,0.58723 0.86924,0.79446 2.06261,2.09427 2.64684,2.88513 0.92484,1.25189 1.18305,1.4383 2.00001,1.4383 0.69708,0 1.05154,-0.17301 1.37871,-0.67235 0.24219,-0.36965 0.40047,-0.76795 0.34894,-0.88511 -0.0516,-0.11709 -1.44169,-1.49844 -3.08935,-3.06384 -1.6477,-1.56541 -3.09502,-3.00136 -3.21706,-3.2 -0.13715,-0.22321 0.019,-0.75213 0.40851,-1.37873 0.52699,-0.84753 0.62393,-1.34724 0.58725,-3.04682 -0.0406,-1.87983 -0.27553,-3.05481 -0.97871,-4.97874 -0.15037,-0.41137 -1.00181,-1.46381 -1.88939,-2.34042 -2.06824,-2.04281 -3.72258,-2.58418 -7.11492,-2.32342 -1.80529,0.13877 -2.42773,0.083 -3.11488,-0.27234 -0.51546,-0.26654 -1.00724,-0.41688 -1.50639,-0.42553 z m -0.74042,2.75745 c 0.38948,-0.0382 0.67164,0.23007 0.9532,0.77446 0.62987,1.21808 1.55499,1.55857 2.46806,0.91065 1.89119,-1.34192 2.20087,-1.46112 3.60002,-1.46384 1.06382,-0.001 1.86118,0.21837 3.08086,0.83404 1.45278,0.73337 1.73351,1.00085 2.32343,2.28938 0.87655,1.91472 1.0905,3.84789 0.61277,5.47235 -0.20688,0.70335 -0.51562,1.33211 -0.68086,1.39575 -0.16526,0.0636 -1.06313,-0.39898 -2.00002,-1.02127 -3.42496,-2.27493 -5.77774,-2.79829 -5.94896,-1.32767 -0.0721,0.61968 0.14894,0.81408 1.97447,1.75319 1.13074,0.5817 2.37642,1.38912 2.76598,1.79575 l 0.70637,0.74043 -0.70637,0.46809 c -0.38986,0.25545 -1.5951,0.56354 -2.68085,0.68936 -2.44621,0.28354 -2.81186,0.27471 -5.5149,-0.15319 -4.22494,-0.66884 -5.37379,-1.18897 -6.02555,-2.74894 -1.06984,-2.5604 -0.0679,-5.62782 2.82554,-8.67237 1.07482,-1.13099 1.746,-1.68699 2.24681,-1.73617 z"
       id="path3050-1-45"
       inkscape:connector-curvature="0" />
    <path
       style="color:#000000;fill:#000000;fill-opacity:1;stroke:none;stroke-width:1;marker:none;visibility:visible;display:inline;overflow:visible;enable-background:accumulate"
       d="m 270.85746,522.13319 c -0.90006,0.038 -1.48696,0.50196 -2.27233,1.66809 -0.93496,1.38829 -1.42131,3.40949 -1.42131,5.8979 0,2.48117 1.22617,5.02838 2.85959,5.94042 1.95999,1.09448 6.01702,0.72848 10.62131,-0.96169 1.93748,-0.71119 2.18433,-0.88283 2.26383,-1.54895 0.14881,-1.24729 -0.24533,-1.30529 -2.83407,-0.4085 -1.88623,0.65334 -3.08352,0.87826 -5.37021,1.00426 l -2.94468,0.16171 -0.93617,-0.91065 c -1.38056,-1.33806 -1.16577,-1.89789 0.73191,-1.89789 1.67844,0 3.87656,-1.86974 4.18724,-3.56596 0.3779,-2.06325 -1.96527,-5.03589 -4.20426,-5.33617 -0.24683,-0.0332 -0.47314,-0.0513 -0.68085,-0.0426 z m 0.54468,2.68084 c 0.66464,0 2.00677,0.87098 2.17872,1.41281 0.23858,0.7516 -0.32294,1.48387 -1.59999,2.10211 -1.25243,0.60624 -1.62279,0.68369 -1.91492,0.3915 -0.58074,-0.58069 0.55718,-3.90642 1.33619,-3.90642 z"
       id="rect3976-7"
       inkscape:connector-curvature="0" />
    <path
       style="color:#000000;fill:#000000;fill-opacity:1;stroke:none;stroke-width:1;marker:none;visibility:visible;display:inline;overflow:visible;enable-background:accumulate"
       d="m 92.944175,547.39684 c -1.737235,0.004 -3.507341,0.78715 -4.399991,2.13619 -0.980427,1.48137 -2.051089,4.26816 -2.051089,5.33617 0,2.19381 1.355847,4.07534 3.27662,4.5362 1.66131,0.39851 2.237957,0.29722 5.344693,-0.93621 l 2.399976,-0.95319 0.817024,0.75747 c 0.450807,0.41817 1.36795,1.15061 2.034072,1.62552 1.24941,0.89102 2.38586,1.11556 2.60426,0.51917 0.21964,-0.59982 -0.5863,-2.782 -1.13193,-3.06384 -0.63661,-0.32892 -2.338796,-2.20166 -2.799999,-3.08087 -0.18299,-0.34878 -0.505271,-1.20666 -0.714901,-1.90638 -0.547786,-1.82864 -1.999467,-3.91093 -3.1149,-4.46809 -0.688344,-0.34388 -1.47418,-0.50399 -2.263835,-0.50214 z m 0.510642,2.27236 c 0.905505,-0.045 1.253424,0.33515 1.489373,1.46383 0.121138,0.57995 0.413388,1.58373 0.655317,2.23829 0.404854,1.09538 0.404663,1.24626 0,1.86383 -0.241821,0.36904 -0.949608,0.89926 -1.574465,1.18299 -0.680358,0.30891 -1.752429,0.52412 -2.680863,0.52766 -1.297408,0.005 -1.619725,-0.0978 -1.974484,-0.60424 -0.715522,-1.02161 -0.537295,-2.63069 0.45958,-4.13621 1.073324,-1.62084 1.946232,-2.30962 3.200003,-2.49361 0.153603,-0.0226 0.296177,-0.0362 0.425539,-0.0425 z"
       id="rect3976-7-2"
       inkscape:connector-curvature="0" />
    <path
       style="color:#000000;fill:#000000;fill-opacity:1;stroke:none;stroke-width:1;marker:none;visibility:visible;display:inline;overflow:visible;enable-background:accumulate"
       d="m 140.16449,560.91741 c -0.34593,0.0255 -0.65533,0.30025 -0.85959,0.84256 -0.15395,0.4089 -0.1042,0.86622 0.1447,1.35319 0.20708,0.40547 0.75908,1.79193 1.22553,3.08086 l 0.84254,2.34044 -0.5702,0.61277 c -0.82884,0.88222 -1.01965,2.18762 -0.45108,3.05533 0.39566,0.6038 0.59782,0.68801 1.3617,0.54468 1.01755,-0.19086 1.23407,0.0927 1.23407,1.62554 0,1.78453 2.2007,4.3997 4.62979,5.50639 1.38952,0.63301 4.03812,0.78557 5.41279,0.30638 1.33997,-0.46717 2.2768,-2.52157 2.4085,-5.28512 0.10086,-2.11729 0.0662,-2.24398 -1.07235,-4.49363 -1.00382,-1.98338 -1.36014,-2.43189 -2.51065,-3.13192 -1.23646,-0.75234 -1.53829,-0.81008 -3.81277,-0.8 -1.4606,0.006 -2.72941,0.15377 -3.09789,0.35745 -1.28905,0.7126 -1.60507,0.30215 -3.20851,-4.12767 -0.43119,-1.19106 -1.10007,-1.83025 -1.67658,-1.78725 z m 8.28936,7.67662 c 1.33708,0.0226 2.50551,0.54151 3.48087,1.54043 0.84549,0.86585 1.02757,1.28246 1.25958,2.89363 0.31905,2.21544 0.16672,3.32846 -0.59574,4.29788 -0.46792,0.59474 -0.76892,0.70918 -1.83831,0.68086 -1.54929,-0.0412 -3.66416,-0.5952 -4.58727,-1.20001 -0.51878,-0.33994 -0.63618,-0.58954 -0.49358,-1.03829 0.46196,-1.45404 0.41436,-2.07118 -0.25535,-3.71917 -0.38727,-0.95317 -0.69784,-1.89011 -0.69784,-2.08511 0,-0.49215 1.24988,-1.0803 2.77444,-1.30213 0.32605,-0.0474 0.64466,-0.0732 0.9532,-0.068 z"
       id="rect3976-7-2-1"
       inkscape:connector-curvature="0" />
    <path
       style="color:#000000;fill:#000000;fill-opacity:1;stroke:none;stroke-width:1;marker:none;visibility:visible;display:inline;overflow:visible;enable-background:accumulate"
       d="m 233.91476,526.64587 c -0.0337,0.004 -0.0624,0.0135 -0.0936,0.0255 -0.35325,0.13555 -0.45104,0.54457 -0.45104,1.9149 0,1.93496 0.325,3.04991 1.75319,5.94895 0.53177,1.0794 0.97021,2.11595 0.97021,2.3064 0,0.19041 -0.48855,0.47879 -1.08087,0.6383 -2.0617,0.55514 -4.02098,3.72269 -3.6936,5.97448 0.38973,2.68028 1.86533,3.52513 6.57873,3.76172 2.74913,0.13799 3.17793,0.0935 4.55322,-0.4766 l 1.51488,-0.62979 1.02979,0.69787 c 0.56822,0.3827 1.22214,0.75433 1.44682,0.83404 0.62083,0.22033 2.81827,0.20963 3.15747,-0.0171 0.38517,-0.25717 0.9246,-1.28157 0.91914,-1.74468 -0.0107,-0.94834 -0.42618,-1.11936 -1.83829,-0.75745 -1.26305,0.32371 -1.42843,0.29989 -2.34045,-0.26383 -1.15235,-0.71217 -1.96774,-1.77427 -2.22127,-2.89362 -0.78644,-3.47181 -2.29376,-6.19131 -6.11918,-11.02132 -2.73725,-3.45608 -3.57963,-4.35659 -4.08511,-4.29787 z m 3.89788,7.41279 c 0.20766,-0.11578 1.61744,1.59917 2.34042,2.9532 0.4617,0.86463 0.84256,1.63058 0.84256,1.70213 0,0.78198 -2.63723,-2.86708 -3.16596,-4.38299 -0.0561,-0.16071 -0.0554,-0.25091 -0.0172,-0.27234 z m -1.60853,5.60002 c 0.46652,0 0.95219,0.34669 1.54897,1.08936 0.4792,0.59626 1.1325,1.15684 1.44678,1.25106 0.72012,0.21612 2.34045,1.74445 2.34045,2.20427 0,0.19002 -0.23792,0.46626 -0.52767,0.62127 -0.59342,0.31677 -2.43932,0.31709 -4.62127,0 -1.01458,-0.14738 -1.67465,-0.42357 -2.15321,-0.90212 -0.64251,-0.64254 -0.67018,-0.76621 -0.37448,-1.7532 0.41173,-1.37424 1.47046,-2.51064 2.34043,-2.51064 z"
       id="rect3976-7-2-32"
       inkscape:connector-curvature="0" />
    <path
       style="color:#000000;fill:#000000;fill-opacity:1;stroke:none;stroke-width:1;marker:none;visibility:visible;display:inline;overflow:visible;enable-background:accumulate"
       d="m 397.39206,646.71637 c -0.78133,0.0163 -1.61818,0.13071 -2.17021,0.33191 -2.4862,0.90613 -5.64991,4.07895 -7.93193,7.95747 -1.32448,2.25099 -1.68378,3.66125 -1.86385,7.25958 -0.11089,2.21538 -0.0368,2.93409 0.45106,4.40002 1.01368,3.04602 3.03319,5.10411 5.50641,5.60852 2.12676,0.43386 6.0885,0.22296 8.72341,-0.45956 2.85732,-0.74019 3.17406,-0.88576 4.59575,-2.17023 0.93269,-0.84262 1.06385,-1.11727 1.06385,-2.17024 0,-1.55611 -0.61939,-3.0056 -1.43831,-3.3787 -1.01804,-0.4639 -3.32719,0.0997 -5.92342,1.44681 -3.22077,1.67126 -3.57968,1.93571 -4.45959,3.32764 -0.83503,1.32119 -1.29411,1.47855 -2.82555,0.94471 -1.05586,-0.36811 -2.55082,-2.20545 -3.03828,-3.72767 -0.46445,-1.45046 -0.51291,-4.53846 -0.10217,-6.92768 0.22754,-1.32342 0.56759,-2.16214 1.22554,-3.04682 0.49909,-0.67113 1.45365,-2.01842 2.12766,-2.99574 0.67404,-0.9773 1.30607,-1.78098 1.40428,-1.78725 0.0981,-0.006 0.66848,-0.42672 1.26807,-0.92766 1.36092,-1.13702 3.33329,-1.74703 4.27235,-1.31915 0.39294,0.17901 1.07772,1.08794 1.69361,2.24681 0.56775,1.06827 1.25098,2.20449 1.52343,2.52766 0.49154,0.58333 0.50148,0.5791 0.34892,-0.50212 -0.38114,-2.70216 -0.65512,-3.68289 -1.34467,-4.85959 -0.40629,-0.69316 -0.97454,-1.3794 -1.25957,-1.53191 -0.34116,-0.18258 -1.06548,-0.2631 -1.84683,-0.24681 z m 4.47661,20.16177 c 0.0641,-0.002 0.11804,6e-5 0.17021,0.008 0.45976,0.0654 0.59575,0.26984 0.59575,0.90213 0,0.70362 -0.17422,0.90865 -1.29363,1.46383 -0.83466,0.41396 -1.95526,0.68828 -3.13192,0.76596 l -1.8383,0.11912 1.08936,-0.98724 c 1.21331,-1.0978 3.44689,-2.23283 4.40853,-2.27232 z"
       id="rect4419"
       inkscape:connector-curvature="0" />
    <path
       style="color:#000000;fill:#000000;fill-opacity:1;stroke:none;stroke-width:1;marker:none;visibility:visible;display:inline;overflow:visible;enable-background:accumulate"
       d="m 653.02774,500.41939 c -1.68778,0.004 -2.1833,0.13963 -4.30639,1.17447 -2.74209,1.33657 -4.37538,2.80665 -4.84256,4.36596 -0.40589,1.35463 -0.16087,2.34976 0.8085,3.31916 0.99367,0.99364 2.2802,1.33372 5.75321,1.53193 2.22712,0.12712 3.20744,0.0658 4.40003,-0.28086 2.80304,-0.81487 2.97145,-0.71431 3.79572,2.44257 0.30819,1.18012 0.8462,3.06383 1.20002,4.18724 0.35386,1.12341 0.82403,2.77788 1.0468,3.67661 0.22281,0.89872 0.53163,1.97107 0.68938,2.38297 0.15771,0.41192 0.38609,0.74895 0.50211,0.74895 1.04353,-0.007 2.56025,-0.81093 4.01704,-2.12767 2.3899,-2.16013 3.60897,-3.13572 5.18299,-4.17874 1.00356,-0.665 1.38321,-1.10648 1.44683,-1.65958 0.0573,-0.49873 -0.0637,-0.80645 -0.35746,-0.91915 -0.68352,-0.26229 -3.30238,1.26634 -7.17447,4.18725 -0.64812,0.48888 -1.35365,0.88511 -1.57449,0.88511 -0.4563,0 -1.19148,-1.55596 -1.19148,-2.52767 0,-0.35573 -0.4891,-2.14425 -1.08085,-3.96597 -1.31527,-4.049 -1.77106,-6.2582 -1.55747,-7.57448 0.19062,-1.17456 -0.71446,-3.08937 -1.46383,-3.08937 -0.25207,0 -0.77982,-0.48448 -1.17447,-1.08086 -0.8375,-1.26554 -1.4921,-1.5028 -4.11916,-1.49787 z m 0.2383,2.45106 c 1.59538,-0.007 1.61196,-0.002 1.93191,0.94469 0.24587,0.72721 0.49269,0.98106 1.04683,1.0468 0.4813,0.0571 0.73191,0.24179 0.73191,0.56171 0,0.56239 -1.30989,2.36961 -1.90639,2.6298 -0.22469,0.098 -1.7566,0.23442 -3.40427,0.29787 -3.41722,0.13165 -4.62615,-0.21123 -4.91916,-1.37873 -0.41669,-1.66016 3.44106,-4.08906 6.51917,-4.10214 z"
       id="rect3976-7-2-3-6"
       inkscape:connector-curvature="0" />
    <path
       style="fill:#000000"
       d="m 125.28131,668.46032 c -1.28678,0.0341 -2.61823,0.20238 -3.9149,0.4851 -1.34025,0.29219 -1.51868,0.44157 -3.9234,3.3532 -2.54179,3.07759 -2.91651,3.72061 -4.20429,7.10641 -1.73239,4.55482 -0.90491,8.95897 2.28085,12.14471 1.58271,1.58271 5.51689,3.59752 7.48939,3.83832 2.39644,0.29262 3.22386,0.25994 5.76173,-0.26385 3.63221,-0.74965 4.44314,-1.25603 5.84681,-3.62554 0.64825,-1.09422 1.38738,-2.2366 1.64257,-2.53618 1.4993,-1.76025 2.26032,-5.35054 1.99999,-9.48938 -0.167,-2.65557 -0.29137,-3.17647 -1.19999,-5.05533 -1.69546,-3.50598 -4.06118,-5.06799 -8.71492,-5.77022 -0.80107,-0.1209 -1.64573,-0.18607 -2.51915,-0.18724 -0.18196,-2.7e-4 -0.36085,-0.005 -0.54469,0 z m 1.55747,1.71915 c 0.71664,-0.0612 2.35471,0.49431 2.59574,0.94467 0.18696,0.34934 0.053,0.74514 -0.51914,1.53193 -0.42387,0.58291 -1.23329,1.97447 -1.80426,3.09788 -0.57099,1.1234 -1.48036,2.7166 -2.01703,3.54044 -0.53671,0.82382 -1.57205,2.66213 -2.29789,4.08511 -0.72585,1.42298 -1.54009,2.83235 -1.81276,3.13193 -0.27274,0.29957 -0.86844,1.30266 -1.32766,2.22979 -0.45925,0.92712 -0.95678,1.75959 -1.09789,1.84682 -0.35623,0.22013 -2.12581,-1.39354 -2.65532,-2.41702 -1.13638,-2.19639 -1.3847,-6.06409 -0.49362,-7.78727 0.22427,-0.43363 0.417,-1.00704 0.417,-1.2766 0.004,-0.71425 1.29782,-2.83572 2.7745,-4.53617 1.0175,-1.1717 1.59315,-1.57689 2.74894,-1.94043 0.80289,-0.25258 1.69157,-0.41587 1.97447,-0.36598 0.38678,0.0683 0.55288,-0.11745 0.66384,-0.73191 0.12881,-0.71321 0.28527,-0.83445 1.23403,-0.96169 0.59776,-0.0801 1.21142,-0.22504 1.37023,-0.32341 0.0579,-0.0359 0.14442,-0.0593 0.24682,-0.068 z m 5.26809,2.06808 c 0.38917,-0.0376 0.75993,0.21886 1.09789,0.77448 0.26967,0.44352 0.8016,1.05323 1.18296,1.35319 0.85447,0.67213 1.74072,2.69702 1.97448,4.51065 0.24761,1.92183 -0.23514,5.97639 -0.93617,7.84683 -0.67217,1.79347 -2.79704,4.51187 -4.29788,5.48939 -0.55348,0.36047 -1.57573,0.73494 -2.26386,0.83404 -2.91501,0.41966 -5.04433,0.2785 -6.85108,-0.45108 -0.96596,-0.39006 -0.97282,-1.1886 -0.0255,-2.57871 0.39705,-0.58262 1.06878,-1.89386 1.48938,-2.91065 0.42063,-1.0167 1.01346,-2.20046 1.31916,-2.62981 0.30573,-0.42937 0.55318,-0.86301 0.55318,-0.96169 0,-0.0987 0.74617,-1.48864 1.6596,-3.08938 2.11554,-3.70749 2.28442,-4.00797 2.9787,-5.54895 0.76337,-1.69427 1.47051,-2.57572 2.11917,-2.63831 z"
       id="path3050-1-5-8"
       inkscape:connector-curvature="0" />
    <path
       style="fill:#000000"
       d="m 540.86768,635.02192 c -1.95506,0.0144 -3.87511,0.68998 -5.84684,2.02555 -1.23692,0.83785 -1.83569,1.48911 -2.51915,2.73191 -1.34208,2.44045 -1.18186,4.11735 0.52766,5.4213 0.50928,0.38846 1.59196,0.83398 2.4,0.98723 1.9547,0.37069 6.51596,-0.1091 9.31919,-0.97872 2.57872,-0.79992 2.63828,-0.80264 2.63828,-0.10217 0,0.30701 0.16833,0.88914 0.37447,1.29362 0.20627,0.40446 0.46924,1.8349 0.57873,3.183 0.10957,1.34811 0.38936,2.81872 0.62128,3.26808 0.54074,1.04778 1.11388,3.11096 1.42127,5.12343 0.13315,0.8714 0.38362,1.75992 0.56173,1.97447 0.34596,0.41687 1.0828,0.49246 2.12765,0.21276 0.60377,-0.1616 0.63244,-0.26546 0.47658,-1.59149 -0.15621,-1.32971 -0.56455,-2.49978 -1.83829,-5.21704 -0.29182,-0.62257 -0.71618,-2.27704 -0.93615,-3.6766 -0.22002,-1.39964 -0.57413,-3.64765 -0.7915,-4.99576 -0.21741,-1.34809 -0.31862,-2.96627 -0.22978,-3.60001 0.23176,-1.65385 -0.76193,-3.88937 -1.72767,-3.88937 -0.20328,0 -1.3176,-0.45448 -2.47662,-1.01278 -1.6176,-0.77924 -3.16028,-1.16863 -4.68084,-1.15745 z m -0.11924,2.17022 c 2.09847,0 4.56954,0.7227 5.43833,1.5915 0.77716,0.77718 0.75787,1.7441 -0.0511,2.97872 -0.57445,0.87673 -2.91201,1.88096 -4.89362,2.09363 -0.88932,0.0955 -1.98468,0.2076 -2.43408,0.25532 -1.82759,0.19407 -4.41579,-0.67946 -4.63829,-1.56596 -0.32534,-1.29629 0.96562,-2.98219 3.37022,-4.3915 1.35589,-0.79464 1.9041,-0.96171 3.2085,-0.96171 z"
       id="path3050-1-5-0"
       inkscape:connector-curvature="0" />
    <path
       style="fill:#000000"
       d="m 491.87207,647.29586 c -2.93293,0.0212 -6.21344,0.69734 -8.79153,2 -0.25941,0.13108 -0.93511,0.43984 -1.49787,0.68086 -1.03615,0.44384 -2.10787,1.81291 -2.11065,2.69788 0,0.26545 0.50002,1.01882 1.10642,1.6766 0.83246,0.90317 1.51593,1.32679 2.7915,1.73618 4.22477,1.35606 9.88298,3.37438 10.11916,3.60852 0.16509,0.16368 -0.0219,0.82886 -0.51064,1.82127 -0.48613,0.98665 -0.82122,2.16951 -0.90213,3.20002 -0.12294,1.56507 -0.083,1.68436 0.85959,2.7745 1.25325,1.44959 2.44134,2.17761 4.5787,2.80849 2.87511,0.84865 5.35742,0.59161 6.63832,-0.68936 0.55027,-0.55023 0.64681,-0.9184 0.64681,-2.45957 0,-1.61152 -0.10563,-1.98251 -1.00423,-3.43832 -0.98255,-1.59186 -2.83597,-3.12867 -4.79151,-3.97448 -1.18158,-0.51102 -1.17532,-1.01554 0.0171,-2.57873 2.22025,-2.91149 2.56822,-4.5175 1.14892,-5.31916 -0.54801,-0.3095 -0.91468,-0.8007 -1.09786,-1.47235 -0.15099,-0.55367 -0.59581,-1.25802 -0.98724,-1.56596 -1.30996,-1.0304 -3.62491,-1.52518 -6.21278,-1.50639 z m 0.16169,1.78724 c 0.15493,-0.006 0.29944,-0.005 0.44255,0 0.57269,0.0207 1.09247,0.13037 1.88087,0.34043 1.80192,0.48019 3.20769,1.29662 3.48088,2.00851 0.0806,0.21014 -0.10671,0.73479 -0.42556,1.16596 -0.50909,0.68864 -0.55027,0.92051 -0.29786,1.9149 0.27572,1.08624 0.25088,1.17382 -0.67233,2.19575 -0.86561,0.95816 -1.87417,1.35994 -2.3149,0.91915 -0.1636,-0.16357 -3.20764,-1.29236 -7.58301,-2.80852 -3.28929,-1.13988 -4.41659,-1.78193 -4.28937,-2.44255 0.17023,-0.88389 4.63723,-2.60922 8.01703,-3.09789 0.75447,-0.10909 1.297,-0.17768 1.7617,-0.19574 z m 4.55322,11.84684 c 0.56285,0.002 1.31494,0.411 2.72341,1.23405 2.78036,1.62475 4.40348,4.62222 3.10638,5.73621 -0.78816,0.67688 -0.94674,0.69945 -2.92767,0.34043 -1.04849,-0.19007 -2.14218,-0.35427 -2.43402,-0.36598 -0.29201,-0.0119 -1.11922,-0.6468 -1.83831,-1.41278 -1.65654,-1.76439 -1.69238,-2.43454 -0.21278,-4.30639 0.64561,-0.81678 1.02014,-1.22722 1.58299,-1.22554 z"
       id="path3050-1-5-0-9"
       inkscape:connector-curvature="0" />
  </g>
</svg>
