<?xml version="1.0" encoding="UTF-8" standalone="no"?>
<!-- Created with Inkscape (http://www.inkscape.org/) -->

<svg
   xmlns:dc="http://purl.org/dc/elements/1.1/"
   xmlns:cc="http://creativecommons.org/ns#"
   xmlns:rdf="http://www.w3.org/1999/02/22-rdf-syntax-ns#"
   xmlns:svg="http://www.w3.org/2000/svg"
   xmlns="http://www.w3.org/2000/svg"
   xmlns:sodipodi="http://sodipodi.sourceforge.net/DTD/sodipodi-0.dtd"
   xmlns:inkscape="http://www.inkscape.org/namespaces/inkscape"
   width="2979.9211"
   height="4212.9922"
   id="svg7368"
   version="1.1"
   inkscape:version="0.48.4 r9939"
   sodipodi:docname="alphabet2.svg">
  <defs
     id="defs7370" />
  <sodipodi:namedview
     id="base"
     pagecolor="#ffffff"
     bordercolor="#666666"
     borderopacity="1.0"
     inkscape:pageopacity="0.0"
     inkscape:pageshadow="2"
     inkscape:zoom="0.2864155"
     inkscape:cx="1502.8543"
     inkscape:cy="3109.2308"
     inkscape:document-units="px"
     inkscape:current-layer="layer1"
     showgrid="false"
     inkscape:window-width="1276"
     inkscape:window-height="782"
     inkscape:window-x="0"
     inkscape:window-y="14"
     inkscape:window-maximized="0" />
  <metadata
     id="metadata7373">
    <rdf:RDF>
      <cc:Work
         rdf:about="">
        <dc:format>image/svg+xml</dc:format>
        <dc:type
           rdf:resource="http://purl.org/dc/dcmitype/StillImage" />
        <dc:title></dc:title>
      </cc:Work>
    </rdf:RDF>
  </metadata>
  <g
     inkscape:label="Layer 1"
     inkscape:groupmode="layer"
     id="layer1"
     transform="translate(0,3160.6299)">
    <path
       style="fill:#000000"
       d="M 201.25 2018.8438 C 198.58904 2018.8438 197.96961 2020.881 198.9375 2026.5312 C 199.49054 2029.76 199.55535 2031.9025 199.09375 2032.625 C 198.70264 2033.2372 196.37685 2034.5435 193.9375 2035.5312 C 189.10355 2037.489 187.65625 2038.8957 187.65625 2041.625 C 187.65625 2044.7976 190.06601 2047.736 194.46875 2049.9688 L 198.6875 2052.0938 L 198.6875 2060.9062 C 198.69438 2070.557 198.48816 2071.0667 194.375 2071.4688 C 192.93186 2071.6095 191.53043 2072.2838 191.0625 2073.0625 L 190.25 2074.4062 L 191.96875 2075.6562 C 192.91627 2076.3346 194.67627 2077.7022 195.875 2078.7188 L 198.0625 2080.5625 L 198.5 2085.75 C 198.74737 2088.596 199.26003 2091.5073 199.625 2092.2188 C 201.0927 2095.0799 204.91884 2093.1564 205.9375 2089.0625 L 206.59375 2086.5 L 208.5 2086.25 C 209.78565 2086.0979 210.7754 2086.5592 211.5 2087.5938 C 212.09473 2088.4427 213.64136 2089.4407 214.9375 2089.8125 L 217.3125 2090.4688 L 218.75 2089.0312 C 219.54106 2088.2404 220.1875 2087.1516 220.1875 2086.5938 C 220.1875 2086.0356 221.75635 2084.165 223.6875 2082.4375 C 225.61866 2080.7101 228.16769 2078.4312 229.34375 2077.375 C 231.63586 2075.3165 233.5 2071.6087 233.5 2069.0938 C 233.5 2068.2423 232.2494 2065.0437 230.75 2061.9688 L 228.03125 2056.375 L 224.4375 2054.1562 L 220.84375 2051.9375 L 221 2047.7812 C 221.19583 2041.8159 222.43072 2035.0481 223.40625 2034.6875 C 224.09461 2034.433 227.609 2033.8998 229.96875 2033.6875 C 230.27366 2033.6601 230.53125 2032.9859 230.53125 2032.1875 C 230.53125 2030.4517 225.73981 2027 223.34375 2027 L 221.6875 2027 L 220 2023.4688 L 218.34375 2019.9688 L 216.375 2019.75 L 214.40625 2019.5 L 213.90625 2021.7812 C 213.63324 2023.0245 213.62134 2024.97 213.875 2026.125 C 214.45624 2028.7713 213.20111 2029.8934 209.40625 2030.125 L 206.5625 2030.3125 L 206 2025.9375 C 205.37835 2021.1208 203.84806 2018.8438 201.25 2018.8438 z M 212.625 2036.8438 C 212.88298 2036.8338 213.10941 2036.8525 213.25 2036.9062 C 214.45774 2037.3699 214.65688 2042.9029 213.5625 2045.7812 C 212.79156 2047.8092 210.53409 2048.26 208.15625 2046.875 L 206.875 2046.125 L 206.875 2042.4375 L 206.875 2038.75 L 209.5625 2037.625 C 210.66531 2037.1642 211.85105 2036.873 212.625 2036.8438 z M 206.96875 2054.25 L 208.59375 2054.75 C 209.48375 2055.0209 210.80741 2055.8052 211.5625 2056.4688 L 212.9375 2057.6562 L 212.53125 2061.3438 C 212.29277 2063.3765 212.37723 2066.8083 212.71875 2068.9688 C 213.06026 2071.1289 213.1065 2073.9544 212.84375 2075.25 L 212.375 2077.625 L 210.5625 2077.8125 C 207.70729 2078.1127 206.66716 2076.9399 206.0625 2072.6875 C 205.22354 2066.7873 205.29713 2057.3825 206.1875 2055.7188 L 206.96875 2054.25 z M 221.3125 2061.2188 C 223.14026 2061.0007 226.84375 2066.1033 226.84375 2069.125 C 226.84375 2069.9767 226.02917 2071.4708 225.03125 2072.4688 C 223.23777 2074.2622 221.64449 2074.7696 220.6875 2073.8125 C 219.86727 2072.9923 220.11689 2061.8702 220.96875 2061.3438 C 221.0723 2061.2798 221.19065 2061.2333 221.3125 2061.2188 z "
       transform="translate(0,-3160.6299)"
       id="path8680" />
    <path
       style="fill:#000000"
       d="m 179.72256,-1277.9735 c -2.20151,-2.805 -8.33796,-14.1536 -8.963,-16.5761 -2.78203,-10.7821 -2.98827,-17.3692 -0.80482,-25.7054 2.04464,-7.8062 3.8002,-11.0002 9.05247,-16.4699 l 4.45067,-4.6349 2.04764,0 c 2.18897,0 4.37082,1.6694 4.37082,3.3444 0,2.0812 -1.77854,4.8185 -3.99757,6.1527 -1.50505,0.9049 -2.76554,2.6103 -3.69089,4.9937 -0.7729,1.9907 -1.84257,4.1321 -2.37704,4.7585 -1.61177,1.8892 -2.71179,8.7664 -2.23336,13.9629 0.80553,8.7493 1.59329,11.4346 4.69405,16.0007 5.14751,7.5801 6.4118,11.7496 4.22562,13.9358 -1.38721,1.3872 -5.75215,1.5403 -6.77459,0.2376 z"
       id="path8666" />
    <path
       style="fill:#000000"
       d="m 319.75194,-1281.2154 c -1.26016,-1.2601 -0.36611,-5.3191 1.93394,-8.7799 1.34734,-2.0274 3.67582,-5.9024 5.17439,-8.6111 l 2.72467,-4.9249 0,-4.8418 c 0,-3.1016 -0.55536,-6.3261 -1.54526,-8.9718 -1.87401,-5.0087 -8.57871,-13.1443 -12.4675,-15.1282 -2.9439,-1.5018 -3.72802,-2.6787 -3.72802,-5.5948 0,-2.1035 2.38504,-3.5957 4.78447,-2.9935 2.49026,0.625 8.86554,6.6388 12.52099,11.811 3.0799,4.3578 5.46349,9.7101 7.44581,16.7193 l 0.94076,3.3264 -0.72028,4.0656 c -0.91229,5.1493 -1.9562,7.6437 -8.53883,20.4029 l -1.67745,3.2515 -2.14289,0 c -1.17858,0 -2.60325,0.1766 -3.16595,0.3926 -0.56268,0.2159 -1.25516,0.1604 -1.53885,-0.1233 z"
       id="path8664" />
    <path
       style="fill:#000000"
       d="m 549.36594,-1284.8851 c -0.84774,-2.2092 1.26975,-10.8685 6.12773,-25.0588 l 4.80815,-14.0448 1.0096,-7.6834 c 1.00163,-7.6229 1.60961,-8.9135 4.20997,-8.9372 5.24389,-0.048 4.7656,11.2396 -1.14514,27.0249 -1.38154,3.6895 -3.60602,11.5066 -4.94329,17.3711 -1.33727,5.8647 -2.62313,10.87 -2.85748,11.1228 -0.23434,0.253 -1.8482,0.6741 -3.58637,0.9358 l -3.1603,0.4758 -0.46287,-1.2062 z"
       id="path8662" />
    <path
       style="fill:#000000"
       d="m 1150.3429,-1296.5829 -1.2073,-2.5319 1.2373,-2.6075 c 0.6806,-1.4341 1.3124,-3.8584 1.4041,-5.3873 l 0.1668,-2.7798 -3.3264,-0.5108 c -1.8295,-0.2809 -4.2628,-0.8753 -5.4073,-1.3208 -1.1445,-0.4456 -3.0509,-0.8101 -4.2363,-0.8101 l -2.1554,0 -0.5189,-2.0328 c -0.7576,-2.9679 -0.4958,-4.5999 1.0036,-6.2568 2.1626,-2.3896 5.413,-3.729 8.022,-3.3056 4.1056,0.6662 13.4073,5.3768 14.7927,7.4913 1.8591,2.8374 2.1826,8.3409 0.7749,13.1832 l -1.1978,4.12 -3.0846,2.6403 c -1.6966,1.4522 -3.5291,2.6404 -4.0724,2.6404 -0.5432,0 -1.5309,-1.1393 -2.195,-2.5318 z"
       id="path8652" />
    <path
       style="fill:#000000"
       d="m 805.99864,-1296.4094 c -2.75204,-1.5544 -5.90561,-4.4929 -7.69647,-7.1717 -0.98054,-1.4667 -4.48545,-5.6605 -7.78871,-9.3196 -3.30326,-3.659 -7.71362,-8.8149 -9.80089,-11.4576 -2.08721,-2.6426 -5.48449,-6.6193 -7.54959,-8.8372 l -3.75469,-4.0324 0,-2.2877 c 0,-2.7644 1.15227,-4.0618 3.60737,-4.0618 2.24435,0 6.53023,4.4276 11.59966,11.9836 6.42526,9.5766 18.03357,22.4202 21.61713,23.9176 3.59487,1.502 5.25689,3.8605 5.28557,7.5007 l 0.0244,3.1156 -1.42983,0.7652 c -1.7709,0.9478 -2.25692,0.9342 -4.11416,-0.1147 z"
       id="path8650" />
    <path
       style="fill:#000000"
       d="m 1258.0005,-1315.9056 c -0.3964,-1.0429 -0.7209,-3.2379 -0.7209,-4.8778 l 0,-2.9817 2.1856,-2.0416 c 4.92,-4.596 9.7191,-4.7511 11.5482,-0.3732 l 1.07,2.5608 -1.081,2.5872 c -0.5945,1.423 -1.3848,2.5872 -1.7563,2.5872 -0.3713,0 -1.9309,0.9979 -3.4657,2.2176 -1.6454,1.3077 -3.6663,2.2176 -4.9248,2.2176 l -2.1342,0 -0.7209,-1.8961 z"
       id="path8640" />
    <path
       id="path8632"
       style="fill:#000000"
       d="m 2034.284,-1336.4269 c -2.6859,-3.2363 -3.9972,-11.416 -2.3296,-14.532 0.4035,-0.7538 1.8925,-1.753 3.309,-2.2205 2.8161,-0.9294 7.6873,-5.9917 9.5571,-9.9319 0.6514,-1.3728 1.1844,-4.0513 1.1844,-5.9523 l 0,-3.4563 -2.0941,-2.0941 c -1.1517,-1.1517 -3.4834,-2.5103 -5.1816,-3.0191 l -3.0876,-0.9251 -4.6128,1.2746 c -2.537,0.701 -5.3611,1.7602 -6.2759,2.3539 l -1.6632,1.0792 0,2.5702 c 0,3.0498 -2.2567,5.73 -4.2336,5.0282 -3.4439,-1.2226 -5.1902,-4.6382 -3.9707,-7.766 1.3858,-3.5541 4.9911,-6.1728 11.456,-8.321 l 6.3269,-2.1024 4.3902,0.3981 c 2.9566,0.268 5.8553,1.1789 8.8766,2.7893 l 4.4863,2.3912 1.8573,4.0569 c 2.291,5.004 2.2919,5.4583 0.024,12.4048 l -1.833,5.6155 -4.4859,4.9409 -4.4859,4.941 0.4649,1.848 c 0.2557,1.0164 0.6322,3.0205 0.8367,4.4536 l 0.3718,2.6056 -2.674,1.2752 c -3.2044,1.528 -5.1146,1.6186 -6.2136,0.2945 z m 1.1873,34.9246 c -1.2899,-0.7513 -3.5112,-4.3959 -3.5112,-5.761 0,-2.7227 8.9098,-8.9638 12.7969,-8.9638 1.9389,0 3.7597,1.7005 4.5306,4.2313 1.6876,5.5406 -8.7323,13.4546 -13.8163,10.4935 z" />
    <path
       id="path8628"
       style="fill:#000000"
       d="m 1627.7126,-1341.0896 -2.4929,-1.0875 0.4144,-10.6761 c 0.228,-5.8718 0.5969,-10.9713 0.8199,-11.3321 0.2231,-0.3608 0.452,-5.1024 0.5088,-10.5369 0.057,-5.4344 0.4056,-10.4629 0.775,-11.1744 0.9663,-1.861 3.3444,-1.5929 5.5646,0.6273 l 1.9208,1.9209 -0.6554,10.4607 c -0.3605,5.7534 -0.6579,14.9813 -0.6609,20.5064 l -0.01,10.0457 -1.0145,1.2271 c -1.2033,1.4553 -1.8763,1.4578 -5.1744,0.019 z m -9.3838,39.3051 c -4.3762,-6.6788 0.6465,-18.194 7.1453,-16.3814 2.4784,0.6913 6.5794,6.0604 6.5794,8.6139 l 0,2.0801 -3.1416,2.7312 c -2.9468,2.5619 -6.9546,4.776 -8.6448,4.776 -0.4103,0 -1.2825,-0.819 -1.9383,-1.8198 z" />
    <path
       id="path8620"
       style="fill:#000000"
       d="m 2483.8447,-1354.3823 c -0.7597,-1.9799 0.7371,-4.9247 3.2487,-6.3916 1.5329,-0.8952 5.0452,-1.6498 9.9752,-2.1432 4.185,-0.4188 10.2703,-1.1949 13.5228,-1.7247 l 5.9136,-0.9632 3.0682,1.3301 c 5.979,2.5922 4.7967,6.6395 -2.089,7.1521 -13.1088,0.9759 -21.2057,1.8855 -25.2296,2.8344 -5.9243,1.3969 -7.846,1.3755 -8.4099,-0.094 z m 3.6951,18.1917 c -2.2388,-0.902 -3.4371,-3.3263 -2.505,-5.0678 1.3133,-2.4541 7.1913,-3.9102 19.9762,-4.9486 3.4358,-0.279 7.4123,-0.9109 8.8369,-1.4041 l 2.5902,-0.8967 4.7324,0.992 c 5.9051,1.2378 6.0529,1.3346 6.0529,3.9679 l 0,2.1599 -1.6632,0.3485 c -0.9148,0.1917 -5.4886,0.4997 -10.164,0.6844 l -8.5008,0.3359 -8.5008,2.2655 c -9.5822,2.5538 -8.7083,2.4279 -10.8548,1.5631 z" />
    <path
       id="path8618"
       style="fill:#000000"
       d="m 1360.5058,-1366.8269 -1.9559,-1.8127 0,-2.5543 c 0,-3.3787 3.4608,-9.9955 5.4952,-10.5061 0.866,-0.2174 2.5619,0.1196 3.7685,0.7487 1.2067,0.6292 2.602,1.1461 3.1008,1.1485 1.6358,0.01 3.3628,3.5245 2.8134,5.728 -0.6918,2.7744 -7.2992,9.0606 -9.5236,9.0606 -0.9583,0 -2.6226,-0.8157 -3.6984,-1.8127 z m 2.5471,40.511 -1.7395,-1.2184 0.4355,-4.6645 c 0.4612,-4.9384 2.8399,-10.6394 4.4393,-10.6394 1.0507,0 3.5954,2.5759 6.7272,6.8098 l 2.0299,2.7441 -0.8687,2.6321 -0.8687,2.6322 -2.8643,1.4612 c -3.4885,1.7797 -5.0236,1.8309 -7.2907,0.2429 z" />
    <path
       id="path8616"
       style="fill:#000000"
       d="m 1484.9346,-1369.1279 c -1.2836,-3.3761 -0.8348,-6.5876 1.3119,-9.388 3.6943,-4.8193 8.1925,-5.6224 11.5955,-2.0704 l 2.0777,2.1687 -0.4891,2.6073 c -0.5281,2.815 -4.0081,6.8097 -6.8855,7.9037 -0.9762,0.3711 -2.9256,0.6748 -4.3323,0.6748 l -2.5573,0 -0.7209,-1.8961 z m 13.5087,56.8464 c -1.2803,-0.5166 -1.1565,-4.3086 0.2281,-6.9861 0.6336,-1.2254 1.0494,-3.2856 0.924,-4.5782 l -0.2281,-2.3502 -2.2176,-1.0273 c -3.9819,-1.8445 -4.8048,-3.0104 -4.8048,-6.8065 l 0,-3.5288 2.5702,-2.7253 2.5703,-2.7252 2.7889,0.5097 c 3.7306,0.6818 5.7325,2.071 8.066,5.5972 l 1.9478,2.9434 -0.4948,4.21 c -0.6633,5.6439 -3.1994,13.8019 -5.0036,16.0956 -1.3982,1.7775 -3.9656,2.3324 -6.3464,1.3717 z" />
    <path
       style="fill:#000000"
       d="M 730.6875 1553.8438 C 729.69901 1553.8145 728.762 1553.929 727.875 1554.1562 C 726.894 1554.4076 725.23997 1556.094 724 1558.125 C 722.81318 1560.0691 721.26386 1562.3119 720.5625 1563.125 C 718.58417 1565.4185 714.93345 1575.3338 714.15625 1580.4688 L 713.4375 1585.0938 L 714.71875 1591.5312 C 716.47801 1600.3009 718.75736 1605.3676 722.78125 1609.5625 C 727.68047 1614.6699 734.24633 1619.2543 737.4375 1619.7812 C 742.73724 1620.6561 749.90072 1618.653 754.21875 1615.0938 L 757.09375 1612.7188 L 760.46875 1605.6875 L 763.875 1598.625 L 763.6875 1589.75 C 763.50861 1580.8024 761.79393 1572.2009 759.65625 1569.5938 C 758.57568 1568.2758 746.82811 1560.5625 745.90625 1560.5625 C 745.57679 1560.5625 743.18579 1559.1844 740.59375 1557.5 C 737.03548 1555.188 733.65297 1553.9315 730.6875 1553.8438 z M 735.28125 1564.5625 L 738.125 1565.8125 C 739.68448 1566.5015 743.55137 1568.1517 746.71875 1569.4688 C 753.38987 1572.243 754.55143 1573.6117 756.4375 1580.75 L 757.78125 1585.7812 L 757.375 1590.7188 C 756.99557 1595.6017 753.53665 1605.3118 751.21875 1607.9375 C 750.64572 1608.5866 748.87768 1609.4997 747.3125 1609.9688 C 745.74724 1610.4376 742.64206 1610.8125 740.40625 1610.8125 L 736.34375 1610.8125 L 732.46875 1607.6875 C 727.45428 1603.6123 724.43796 1599.0409 722.78125 1593.0625 L 721.46875 1588.25 L 722.125 1582.9688 C 722.93649 1576.5059 724.11786 1571.6472 725.28125 1570.0938 C 725.76265 1569.451 728.21263 1567.9497 730.71875 1566.75 L 735.28125 1564.5625 z "
       transform="translate(0,-3160.6299)"
       id="path8596" />
    <path
       style="fill:#000000"
       d="m 978.69627,-1550.3762 c -1.0281,-1.9212 -0.1943,-4.9996 1.8842,-6.9562 l 1.8289,-1.7216 6.7817,-0.3696 6.7817,-0.3696 -0.1994,-1.848 c -0.1096,-1.0164 -0.5286,-4.6754 -0.9311,-8.1311 -0.4025,-3.4558 -1.0158,-10.9402 -1.3631,-16.632 -0.3473,-5.6918 -1.0062,-11.2769 -1.4644,-12.4113 l -0.8328,-2.0626 -1.483,0.7937 c -0.8156,0.4365 -2.1463,2.0938 -2.957,3.6829 -0.8106,1.5891 -2.6756,3.8058 -4.1442,4.9259 l -2.6702,2.0367 -1.9566,-1.0946 c -3.9131,-2.189 -3.219,-4.0117 6.9426,-18.2315 l 4.8861,-6.8376 1.8416,0 c 2.3317,0 4.4622,1.1292 5.3854,2.8544 1.3438,2.5107 3.61063,18.9176 4.04833,29.3008 0.8468,20.0827 3.6861,24.3578 16.9516,25.5241 l 5.911,0.5197 0.9864,1.349 c 1.4089,1.9268 1.2922,2.2363 -1.7066,4.5235 l -2.6929,2.054 -3.0358,-0.043 c -1.6698,-0.024 -5.1981,-0.5152 -7.8407,-1.0923 -2.8527,-0.623 -8.4086,-1.012 -13.67523,-0.9574 l -8.8704,0.092 -2.8622,1.2017 c -3.6461,1.5307 -4.6812,1.5121 -5.5439,-0.1 z"
       id="path8592" />
    <path
       style="fill:#000000"
       d="m 1154.1614,-1550.2992 c -1.2197,-0.641 -3.2155,-2.0811 -4.4352,-3.2004 -1.2197,-1.1193 -3.7993,-2.9426 -5.7324,-4.0518 l -3.5149,-2.0167 -7.3811,2.254 -7.3811,2.2541 -2.123,-0.7401 c -2.3258,-0.8108 -3.5541,-2.9023 -4.2462,-7.2305 l -0.4509,-2.82 2.3615,-2.6897 c 2.9414,-3.35 6.8733,-4.517 13.0856,-3.8837 l 4.5761,0.4664 2.5379,-2.2283 c 1.3958,-1.2255 3.3119,-3.977 4.2581,-6.1144 l 1.7203,-3.8862 -0.04,-4.4352 -0.04,-4.4352 -2.4211,-6.2832 c -3.4109,-8.8518 -6.8364,-13.3064 -10.2307,-13.3044 -1.089,6e-4 -3.1443,0.637 -4.5672,1.4142 -1.423,0.7772 -3.6565,1.9191 -4.9633,2.5374 -1.5676,0.7417 -2.5342,1.8325 -2.8407,3.2057 -0.2555,1.1448 -0.6136,2.6358 -0.7957,3.3133 -0.4315,1.6055 -4.0622,2.8832 -5.6568,1.9908 -1.0724,-0.6001 -2.7299,-4.8218 -2.7409,-6.9814 -0.01,-0.886 11.6241,-9.7709 15.175,-11.5944 2.9246,-1.502 7.2687,-2.2955 9.5004,-1.7354 2.7933,0.7011 8.5844,6.9981 8.5844,9.3343 0,1.0896 0.6652,2.5832 1.4784,3.3191 0.8131,0.7359 1.4784,1.6064 1.4784,1.9344 0,0.328 1.2329,3.1871 2.7397,6.3534 l 2.7397,5.757 -0.048,3.746 c -0.027,2.0603 -0.6024,6.2364 -1.2796,9.28 l -1.2312,5.5339 -2.1452,2.3488 c -1.1799,1.2918 -2.3782,3.0827 -2.6629,3.9797 l -0.5177,1.631 1.6543,1.3394 c 0.9098,0.7368 2.0583,1.3396 2.5522,1.3396 0.4939,0 1.7045,0.874 2.6901,1.9422 0.9857,1.0682 2.7667,2.3606 3.958,2.8721 l 2.1658,0.9298 3.1359,-1.1622 3.1359,-1.1623 1.1662,0.9679 c 1.3763,1.1422 1.4952,4.3875 0.2187,5.9657 -4.0009,4.9467 -8.8553,6.3688 -13.4669,3.9453 z"
       id="path8590" />
    <path
       style="fill:#000000"
       d="m 1231.2603,-1562.011 c -1.504,-0.5528 -4.1651,-2.0419 -5.9136,-3.3091 -1.7485,-1.2672 -4.3433,-3.0482 -5.7662,-3.9578 -3.1522,-2.015 -3.6803,-4.3389 -1.356,-5.9668 2.4487,-1.7152 5.2751,-1.4598 10.8417,0.9798 2.7108,1.1879 5.8521,2.3905 6.9808,2.6722 l 2.0523,0.5122 4.6005,-4.7966 c 2.5304,-2.6381 5.5489,-6.3467 6.7078,-8.2414 l 2.1072,-3.445 -1.8973,-3.878 c -2.56,-5.2323 -5.5003,-7.9209 -9.2062,-8.418 l -2.9885,-0.4008 -3.2409,1.5688 c -4,1.9365 -4.6158,1.945 -6.4702,0.091 -1.6714,-1.6713 -2.011,-6.0669 -0.5544,-7.1742 0.5082,-0.3863 2.4829,-1.2781 4.3881,-1.9817 2.0277,-0.7488 4.5746,-2.5082 6.1416,-4.2427 l 2.6773,-2.9635 -0.228,-2.3525 -0.2278,-2.3526 -2.9568,-0.2412 c -1.6263,-0.1327 -4.2874,0.1573 -5.9136,0.6445 -10.2643,3.075 -14.5679,4.6804 -14.9056,5.5607 -1.0521,2.7416 -6.5957,1.4227 -7.3943,-1.7593 -1.1777,-4.6922 2.0461,-7.6874 10.1031,-9.3867 12.7602,-2.6913 20.8519,-3.3274 24.5315,-1.9284 1.9417,0.7382 7.254,8.0366 7.254,9.966 0,0.6979 -0.6652,2.573 -1.4784,4.1668 -2.0279,3.9751 -1.8924,4.8163 1.2936,8.028 1.5246,1.537 4.0986,4.9075 5.72,7.4902 l 2.9478,4.6957 -0.071,4.1226 c -0.086,4.9872 -1.5066,8.5584 -4.9156,12.3571 -1.4085,1.5694 -2.8076,3.6852 -3.109,4.7016 -0.9085,3.0636 -5.5846,7.2943 -9.8096,8.8751 -4.5372,1.6975 -6.1556,1.7569 -9.9442,0.3644 z"
       id="path8588" />
    <path
       style="fill:#000000"
       d="m 1774.6472,-1582.4295 c -4.3389,-0.6299 -7.7121,-2.3417 -11.2011,-5.6845 -3.0619,-2.9335 -3.584,-5.5651 -1.3422,-6.7649 2.1257,-1.1376 4.3859,-0.9317 6.5872,0.6001 1.0792,0.7509 3.0929,1.7489 4.4749,2.2176 2.6472,0.8979 14.6272,1.1783 16.6803,0.3904 1.7777,-0.6821 4.8309,-7.2106 4.8309,-10.3295 0,-4.8172 -5.0049,-10.5841 -11.5639,-13.3247 l -2.824,-1.1799 -3.9576,0.4652 c -4.8888,0.5746 -7.6738,1.9652 -9.7361,4.8613 l -1.587,2.2287 -2.4463,0 c -1.3456,0 -2.7912,-0.4158 -3.2127,-0.924 -0.9341,-1.1262 -2.6967,-8.8752 -4.1458,-18.2266 l -1.0775,-6.9537 1.0655,-2.6632 c 1.3354,-3.3373 5.0187,-6.3245 9.2495,-7.5014 1.7904,-0.4979 7.4834,-0.9958 12.6512,-1.1064 5.1677,-0.1106 9.7347,-0.4103 10.1487,-0.6662 1.3802,-0.8531 3.74,1.0564 3.74,3.0263 0,2.1119 -2.3525,5.811 -4.3886,6.9007 -0.8558,0.458 -3.7435,0.4418 -8.1085,-0.046 l -6.7794,-0.7569 -3.9892,1.1597 c -2.7107,0.788 -4.1395,1.633 -4.4579,2.6363 -0.5067,1.5962 0.8818,9.4832 1.8891,10.7309 0.421,0.5215 3.0609,0.4181 8.3308,-0.3261 l 7.7144,-1.0896 4.7099,2.0978 c 8.3613,3.7241 15.7508,11.2834 18.689,19.1186 l 1.336,3.5627 -1.2755,3.3398 c -1.7283,4.5254 -8.0416,11.9606 -11.3571,13.3751 -2.8895,1.2328 -12.8309,1.6763 -18.647,0.832 z"
       id="path8576" />
    <path
       style="fill:#000000"
       d="m 1669.6533,-1586.2193 c -0.4897,-0.9148 -0.9555,-3.4927 -1.0352,-5.7288 -0.1189,-3.3383 -1.2598,-10.7828 -2.2211,-14.492 -0.1165,-0.4493 -1.3217,-1.0265 -2.6785,-1.2827 -1.3566,-0.2563 -4.7951,-0.9948 -7.6411,-1.6414 -2.8459,-0.6464 -9.7108,-1.4112 -15.2553,-1.6994 -6.1899,-0.3218 -10.5066,-0.8773 -11.1837,-1.4393 -2.6464,-2.1962 -1.7926,-8.1574 2.3239,-16.2265 l 1.5696,-3.0765 0,-5.1779 0,-5.1778 1.528,-0.8178 1.5279,-0.8177 1.7985,1.1784 c 2.5631,1.6794 2.6761,7.7874 0.2946,15.9282 -0.773,2.6427 -1.4643,5.1375 -1.5363,5.544 -0.1394,0.7886 7.3863,2.7295 8.3277,2.1476 0.3076,-0.19 4.9456,0.1904 10.3067,0.8456 l 9.7474,1.1911 0.6591,-0.9833 c 0.7816,-1.1662 0.1529,-7.5024 -1.3048,-13.1507 -1.3498,-5.2301 -1.3167,-7.78 0.1199,-9.2167 4.578,-4.5779 6.5136,1.8464 10.6742,35.4288 l 0.8242,6.6528 1.4316,1.5261 c 0.7874,0.8393 1.4316,2.0977 1.4316,2.7965 0,1.9639 -3.4827,8.3734 -4.831,8.8907 -2.2843,0.8766 -3.9903,0.4565 -4.8779,-1.2013 z"
       id="path8574" />
    <path
       style="fill:#000000"
       d="M 1904.5938 1512.5312 C 1903.1515 1512.4929 1895.4173 1517.433 1892 1520.5625 C 1887.0737 1525.0738 1883.8836 1531.3634 1882.5938 1539.1562 L 1881.9062 1543.25 L 1882.9375 1548.0625 C 1884.1188 1553.7085 1886.2932 1558.6854 1888.7188 1561.2812 C 1892.4378 1565.2613 1898.2358 1568.859 1903.7188 1570.5938 C 1905.3449 1571.1083 1906.991 1571.4405 1907.4062 1571.3125 C 1907.8217 1571.1846 1910.7686 1570.4862 1913.9375 1569.7812 L 1919.6875 1568.5 L 1921.5625 1566.5625 C 1922.5873 1565.4913 1924.2377 1563.3602 1925.2188 1561.8438 L 1927 1559.0938 L 1927 1554.0312 L 1927 1548.9375 L 1925.3125 1546.4375 C 1924.3886 1545.0666 1922.8198 1543.5692 1921.8125 1543.0938 C 1918.9182 1541.7278 1909.9448 1539.8338 1906.375 1539.8438 C 1902.7634 1539.8507 1896.3544 1542.5397 1894.1562 1544.9688 L 1892.7812 1546.5 L 1891.7812 1545.6875 C 1890.1646 1544.3459 1890.5814 1538.6948 1892.625 1534.375 C 1894.776 1529.8282 1902.4476 1522.125 1904.8125 1522.125 C 1905.6769 1522.125 1907.6211 1522.8353 1909.1562 1523.7188 C 1912.5728 1525.6852 1914.4375 1525.173 1914.4375 1522.25 C 1914.4375 1518.0719 1908.9443 1512.6471 1904.5938 1512.5312 z M 1905.8438 1547.8125 L 1910.3438 1548.1562 C 1912.8274 1548.3555 1915.9157 1549.0763 1917.2188 1549.75 L 1919.5938 1550.9688 L 1919.5938 1553.1562 C 1919.5938 1555.8811 1915.8588 1560.2965 1913.0938 1560.8438 C 1909.1632 1561.6218 1905.9134 1561.8526 1904.1562 1561.5 C 1901.0356 1560.8738 1896.6875 1557.6989 1896.6875 1556.0312 C 1896.6875 1554.3109 1900.1918 1550.7278 1903.5938 1548.9688 L 1905.8438 1547.8125 z "
       transform="translate(0,-3160.6299)"
       id="path8572" />
    <path
       style="fill:#000000"
       d="M 2118.1562 1499.7812 C 2117.8899 1499.7851 2117.6192 1499.8063 2117.3438 1499.8438 C 2116.0693 1500.0168 2098.829 1507.9615 2096.5938 1509.4062 C 2089.4225 1514.0416 2086.2069 1516.574 2085.8125 1517.9062 C 2084.9053 1520.9713 2085.202 1524.6881 2086.5 1526.6562 C 2088.036 1528.9853 2094.6997 1533.7387 2098 1534.8438 C 2100.7716 1535.7716 2102.9375 1537.5059 2102.9375 1538.8125 C 2102.9375 1539.7528 2098.4764 1543.6026 2094.625 1546 C 2090.4065 1548.6257 2090.9804 1552.8635 2096.4062 1558.9062 C 2100.9136 1563.9262 2101.321 1564.1974 2106.1875 1565.4062 C 2112.6273 1567.0061 2126.8208 1565.3652 2129.1875 1562.75 C 2131.0421 1560.7007 2132.5523 1554.3856 2131.7812 1551.875 C 2130.4329 1547.4846 2127.9257 1543.7638 2123.875 1540.125 L 2119.625 1536.3438 L 2120.9062 1534.5938 C 2129.3428 1522.9385 2129.6831 1521.9642 2127.75 1516.0312 C 2127.1823 1514.2892 2126.5222 1511.6001 2126.25 1510.0312 C 2125.1046 1503.4302 2122.1524 1499.7251 2118.1562 1499.7812 z M 2112.7812 1511.625 C 2114.2857 1511.657 2115.9401 1511.8566 2117.875 1512.1562 L 2121.3438 1512.6875 L 2122.1562 1515.125 C 2123.8091 1520.133 2120.8592 1527.067 2115.5312 1530.6875 C 2114.0993 1531.6606 2112.0694 1532.4688 2111 1532.4688 C 2109.8652 1532.4688 2106.0833 1530.5395 2101.9375 1527.8438 L 2094.8438 1523.2188 L 2094.8125 1521.75 C 2094.8012 1519.6577 2095.3861 1519.0342 2099.9688 1516.0938 C 2105.119 1512.7887 2108.2684 1511.529 2112.7812 1511.625 z M 2112.625 1542.2188 C 2112.9313 1542.2212 2113.2165 1542.2726 2113.5 1542.3438 C 2116.3827 1543.0673 2121.6017 1547.3867 2123.2188 1550.375 L 2124.6875 1553.0625 L 2123.9375 1555.125 L 2123.2188 1557.2188 L 2119.5312 1557.7188 C 2117.5066 1557.9913 2115.0164 1558.3647 2114 1558.5625 C 2110.8972 1559.1662 2106.1514 1557.9748 2103.0312 1555.8125 C 2098.6037 1552.7444 2098.5948 1551.9126 2103 1548.0312 C 2107.6719 1543.915 2110.4811 1542.2015 2112.625 1542.2188 z "
       transform="translate(0,-3160.6299)"
       id="path8568" />
    <path
       style="fill:#000000"
       d="m 2006.3429,-1598.9492 c -0.854,-0.5981 -1.7043,-1.8805 -1.8896,-2.8498 -0.3192,-1.6698 0.9336,-12.624 1.998,-17.4701 l 0.4938,-2.2482 -1.2872,-0.4939 c -0.7079,-0.2716 -3.2666,0.036 -5.686,0.6847 -2.4194,0.6482 -4.8604,1.0015 -5.4245,0.7851 -1.3357,-0.5126 -1.3578,-5.6923 -0.029,-6.795 0.548,-0.4549 3.9436,-1.341 7.5457,-1.9692 3.6021,-0.6281 6.718,-1.3107 6.9242,-1.5169 0.7635,-0.7635 2.377,-7.4564 2.7722,-11.4989 l 0.4079,-4.1734 -2.2822,-0.5012 c -1.2551,-0.2757 -3.3716,-0.1524 -4.7033,0.274 -3.0244,0.9685 -16.9229,2.2955 -24.0138,2.2928 l -5.3304,0 -1.5072,-1.6178 c -1.7629,-1.8922 -1.9046,-3.4698 -0.4859,-5.4101 l 1.0215,-1.3968 4.3377,0.7934 c 5.4175,0.9909 23.4364,0.082 31.4982,-1.5889 l 5.7235,-1.1863 1.4749,0.7894 c 2.2136,1.1847 2.5049,3.7034 1.4362,12.419 -0.5338,4.354 -0.9891,10.0125 -1.0116,12.5744 l -0.041,4.6579 -1.7635,1.3345 -1.7635,1.3345 -0.5924,6.2044 c -0.3258,3.4124 -0.6133,8.2318 -0.6389,10.7097 l -0.047,4.5054 -1.3517,1.2234 c -1.6722,1.5132 -3.7494,1.562 -5.7855,0.1359 z"
       id="path8562" />
    <path
       style="fill:#000000"
       d="M 2211.2188 1497.5938 L 2207.1562 1499.0312 L 2203.0938 1500.4688 L 2201.0625 1504.4062 L 2199.0312 1508.3438 L 2199.0312 1514.2812 L 2199.0312 1520.25 L 2200.5938 1522.8438 C 2202.4128 1525.8279 2203.2365 1526.5298 2208.25 1529.5 L 2211.9688 1531.7188 L 2218.5938 1531.7188 C 2225.4602 1531.726 2234.5777 1530.2265 2236.2812 1528.8125 L 2237.25 1528 L 2238.0625 1528.9688 C 2238.4982 1529.4938 2239.8558 1533.7426 2241.0938 1538.4062 C 2242.3315 1543.0699 2243.8389 1548.2176 2244.4375 1549.8438 C 2245.0361 1551.4701 2245.5445 1553.2852 2245.5625 1553.9062 C 2245.5803 1554.5272 2246.1171 1555.7839 2246.75 1556.6875 C 2247.9512 1558.4023 2251.6381 1558.9152 2253.625 1557.6562 L 2254.625 1557.0312 L 2253.5 1552.3125 C 2251.7595 1545.006 2249.2888 1536.9343 2247.4375 1532.4688 C 2245.7194 1528.3246 2244.4056 1522.2695 2243.5 1514.3438 L 2243 1509.9375 L 2241.0938 1509 C 2240.0412 1508.4955 2238.2299 1506.5969 2237.0625 1504.75 L 2234.9375 1501.375 L 2229.9688 1499.9062 C 2227.2367 1499.0926 2221.8816 1498.2256 2218.0938 1498 L 2211.2188 1497.5938 z M 2211.5938 1504.1875 L 2218.0625 1504.5312 C 2225.7382 1504.938 2229.2299 1506.3964 2231.1875 1510.0312 C 2231.9468 1511.4413 2233.5163 1513.282 2234.6562 1514.0938 C 2237.0006 1515.7631 2237.1919 1516.8432 2235.6562 1519.8125 L 2234.5625 1521.9062 L 2230.25 1523.125 C 2227.8655 1523.7941 2223.4288 1524.3305 2220.4062 1524.3125 L 2214.9062 1524.25 L 2212.2188 1522.8438 C 2210.7308 1522.0578 2208.8185 1520.5178 2207.9688 1519.4375 L 2206.4062 1517.4688 L 2206.4062 1512.8125 L 2206.4062 1508.1562 L 2209 1506.1562 L 2211.5938 1504.1875 z "
       transform="translate(0,-3160.6299)"
       id="path8560" />
    <path
       style="fill:#000000"
       d="m 978.23197,-1960.4444 c -7.7494,-1.382 -9.4927,-2.2774 -13.5768,-6.9729 -6.1936,-7.1209 -6.6956,-8.2308 -10.05123,-22.22 -0.53636,-2.2361 -1.38556,-5.1732 -1.88718,-6.5269 -0.5048,-1.3622 -0.95305,-6.3132 -1.00398,-11.0879 l -0.0919,-8.6268 1.98305,-0.2291 1.98309,-0.2291 0.8606,1.6081 c 0.4734,0.8845 1.3438,4.6466 1.9343,8.3603 0.5905,3.7137 2.1949,10.0786 3.5651,14.1442 1.3703,4.0656 2.8429,8.7225 3.2725,10.3488 0.4345,1.6455 2.2671,4.6526 4.1322,6.7806 l 3.3514,3.824 3.7505,1.2457 c 2.2211,0.7377 4.6759,1.0606 6.0199,0.7917 3.0909,-0.6182 8.2122,-4.9583 9.8007,-8.3058 l 1.305,-2.7501 -0.399,-5.2754 c -0.2194,-2.9016 -0.978,-6.5849 -1.6856,-8.1852 -0.8304,-1.8778 -1.3244,-5.0189 -1.3933,-8.8584 l -0.1066,-5.9489 -1.6309,-3.129 c -1.9847,-3.8076 -2.042,-5.369 -0.2773,-7.5484 l 1.3537,-1.6717 1.8459,0.4634 c 3.0868,0.7747 6.5199,10.414 6.5291,18.3314 0,2.6931 0.4631,6.1934 1.0223,7.7783 2.65808,7.5338 2.03188,18.4391 -1.3978,24.3444 -1.8188,3.1314 -9.4154,9.9197 -11.101,9.9197 -0.5298,0 -1.4064,0.1233 -1.9478,0.274 -0.5415,0.1506 -3.313,-0.1414 -6.1589,-0.649 z"
       id="path8532" />
    <path
       style="fill:#000000"
       d="m 494.26349,-1964.9138 c -0.22505,-0.225 -3.52373,-1.2007 -7.33039,-2.1681 -3.80665,-0.9673 -8.41806,-2.4391 -10.24758,-3.2705 -1.82952,-0.8314 -4.04711,-1.519 -4.92799,-1.5279 -3.12498,-0.032 -2.73423,-3.854 0.5323,-5.207 2.45561,-1.0171 6.77219,-0.6362 12.52688,1.1056 2.23608,0.6768 6.78381,1.4191 10.10606,1.6496 l 6.04048,0.4191 1.90591,-2.0565 c 1.29911,-1.4018 1.90592,-2.8862 1.90592,-4.6625 l 0,-2.6059 -3.25675,-3.1206 c -3.75213,-3.5951 -9.50337,-6.0014 -16.64009,-6.9623 -2.67648,-0.3602 -5.92936,-0.981 -7.22862,-1.3794 -4.02635,-1.2348 -9.15778,-5.2549 -10.35013,-8.1086 l -1.10733,-2.6502 0.81118,-2.7075 c 0.44614,-1.4891 1.48748,-3.5672 2.31409,-4.6181 2.25936,-2.8723 13.16845,-7.8854 19.02948,-8.7447 l 4.97059,-0.7287 4.06559,0.9072 c 5.13933,1.1469 7.39199,3.079 7.39199,6.34 l 0,2.4583 -1.38813,0 c -0.76346,0 -2.66419,-0.5332 -4.22383,-1.1849 -1.90464,-0.7958 -4.30744,-1.0911 -7.3181,-0.8993 l -4.48239,0.2854 -5.89295,3.0075 c -10.62863,5.4246 -8.3007,7.9412 10.58155,11.4391 4.58312,0.849 11.30507,4.264 14.76927,7.5034 2.4449,2.2862 6.08577,9.9953 6.08577,12.8858 0,3.3764 -3.13446,9.333 -6.10244,11.5968 -3.12175,2.381 -11.22297,4.3223 -12.54034,3.0049 z"
       id="path8524" />
    <path
       style="fill:#000000"
       d="m 1090.9685,-1967.6879 -2.5785,-0.8823 -1.4871,-2.9568 c -0.8178,-1.6262 -2.8846,-4.4359 -4.5929,-6.2437 -1.9156,-2.0273 -3.7251,-5.0017 -4.7219,-7.7616 -0.8889,-2.461 -2.3514,-5.6389 -3.25,-7.0618 -0.8986,-1.423 -2.8037,-4.4167 -4.2334,-6.6528 -3.3003,-5.1617 -5.0168,-8.5194 -5.0168,-9.8136 0,-0.5592 0.8132,-1.7806 1.807,-2.7144 l 1.8072,-1.6976 1.7396,0.4366 c 0.9821,0.2465 2.4171,1.654 3.2952,3.232 3.9809,7.154 8.2313,15.7116 9.0781,18.2772 0.9601,2.909 6.9031,9.2814 8.656,9.2814 0.5423,0 1.8242,-1.8956 2.8488,-4.2124 1.0246,-2.3169 2.6361,-5.2275 3.5811,-6.468 0.9451,-1.2406 3.0132,-4.7298 4.5958,-7.7537 l 2.8775,-5.4981 0,-4.1429 c 0,-2.7209 0.4499,-4.8299 1.3107,-6.1443 l 1.3106,-2.0014 2.5442,0 2.5441,0 0.8561,1.5996 c 1.8792,3.5114 -0.5541,12.7945 -5.3935,20.5764 -1.1378,1.8295 -2.7847,4.8233 -3.66,6.6528 -0.8752,1.8295 -2.2539,4.2234 -3.0639,5.3197 l -1.4727,1.9933 0.47,5.0569 0.47,5.0569 -2.262,2.7441 c -2.4288,2.9466 -3.7762,3.244 -8.0593,1.7785 z"
       id="path8522" />
    <path
       style="fill:#000000"
       d="m 603.10759,-1973.5151 c -1.60861,-2.6384 -1.72904,-3.0753 -1.531,-5.5533 0.0716,-0.8953 -0.60192,-2.618 -1.49659,-3.828 -1.05906,-1.4324 -1.47552,-2.7782 -1.19349,-3.8567 0.23825,-0.9111 -0.0493,-4.178 -0.63906,-7.26 -0.58974,-3.0819 -1.0723,-6.6764 -1.07238,-7.9879 -7e-5,-1.3115 -0.66416,-3.4737 -1.47576,-4.8048 -0.8116,-1.3312 -1.47688,-3.1022 -1.4784,-3.9357 -0.004,-2.6183 -1.17436,-3.0768 -6.11919,-2.3986 -2.53107,0.3471 -6.09883,0.937 -7.92835,1.3108 -6.05908,1.2378 -13.8223,1.6655 -15.35373,0.8459 -1.95724,-1.0475 -2.46578,-3.3453 -1.15462,-5.2173 l 1.06901,-1.5262 4.57807,0 c 2.51795,0 7.57184,-0.513 11.23087,-1.1366 3.65903,-0.6236 10.14551,-1.6228 14.41438,-2.2206 4.26887,-0.5977 9.61595,-1.584 11.88239,-2.1917 l 4.1208,-1.1048 3.6182,0.6759 c 5.84406,1.0918 8.37501,6.033 4.41816,8.6256 l -1.8324,1.2006 -3.47367,-1.1836 c -4.15597,-1.4161 -9.1145,-1.5352 -10.80517,-0.2596 l -1.22466,0.924 1.01699,3.3264 c 0.55933,1.8295 1.40246,5.8212 1.87361,8.8704 0.67609,4.3755 5.21915,20.0565 7.70969,26.6112 0.61531,1.6193 -0.60349,3.112 -2.73192,3.3456 -1.02216,0.1122 -2.54953,0.4234 -3.39417,0.6914 l -1.5357,0.4875 -1.49191,-2.4471 z"
       id="path8520" />
    <path
       style="fill:#000000"
       d="m 1203.4727,-1972.315 c -0.909,-0.6367 -2.3214,-2.383 -3.1386,-3.8808 -0.8173,-1.4977 -2.769,-4.7437 -4.3372,-7.2133 -1.5683,-2.4696 -3.7569,-7.4592 -4.8639,-11.088 -1.1069,-3.6288 -2.6838,-8.261 -3.5043,-10.2938 -2.2255,-5.5138 -2.4312,-7.595 -0.9162,-9.2691 0.7214,-0.7972 1.7245,-1.4493 2.2292,-1.4493 1.6008,0 5.4134,5.0376 5.941,7.8499 0.2793,1.489 1.149,4.4067 1.9327,6.4838 0.7836,2.0772 1.8554,5.1072 2.3817,6.7335 1.5036,4.6455 3.5715,8.5008 4.5596,8.5008 1.2783,0 6.3257,-9.4461 6.7594,-12.6497 l 0.3614,-2.6705 -2.5558,-1.9495 c -1.4058,-1.0722 -3.4831,-1.9495 -4.6163,-1.9495 l -2.0603,0 0.4004,-2.9858 c 0.2203,-1.6422 0.8038,-3.4717 1.2966,-4.0656 1.5431,-1.8592 5.0922,-1.2603 8.9485,1.5102 l 3.605,2.5899 1.4728,-0.9197 c 0.8101,-0.5059 1.4729,-1.1097 1.4729,-1.3418 0,-1.1678 3.2287,-3.6576 4.7431,-3.6576 2.084,0 3.2389,1.2594 3.7926,4.136 l 0.4132,2.1472 -2.9961,3.955 c -4.515,5.9602 -4.2257,6.9069 4.283,14.0131 2.0969,1.7513 4.0612,3.0262 4.3651,2.8332 1.3418,-0.852 7.9438,-15.9063 9.4466,-21.5405 1.7296,-6.4848 2.6077,-8.4723 4.095,-9.2684 1.889,-1.0109 4.9868,0.3435 5.5046,2.4066 0.3772,1.5026 -3.4194,13.5309 -5.4821,17.3687 -2.3177,4.3122 -5.9986,13.0313 -7.1107,16.8435 -2.2909,7.8527 -5.2118,9.1353 -9.2353,4.0552 -2.6695,-3.3704 -12.9671,-12.556 -14.0761,-12.556 -0.4023,0 -1.037,0.7484 -1.4106,1.6632 -3.0571,7.4863 -6.9907,15.8045 -7.6848,16.251 -1.2729,0.8188 -2.1964,0.6827 -4.0161,-0.5919 z"
       id="path8518" />
    <path
       style="fill:#000000"
       d="m 1475.3775,-1972.9689 -1.7018,-1.8116 -0.5937,-5.3956 c -0.3264,-2.9676 -1.2466,-7.3915 -2.0447,-9.8308 -0.7982,-2.4394 -1.8256,-5.8256 -2.2831,-7.5248 l -0.8319,-3.0897 -6.2134,-3.3869 c -7.6843,-4.1888 -11.4063,-8.242 -14.0042,-15.2509 -2.1634,-5.8365 -2.3991,-8.2456 -0.9264,-9.4679 1.1781,-0.9777 5.6633,-0.2753 6.0107,0.9413 0.1286,0.4504 0.6588,2.4581 1.1782,4.4616 l 0.9443,3.6426 4.7022,4.5654 c 5.3686,5.2125 8.3781,6.4327 13.7424,5.5723 4.3532,-0.6982 7.1033,-2.6133 8.8782,-6.1823 l 1.3471,-2.7088 -0.9303,-2.5728 -0.9304,-2.5729 0.6921,-2.8018 0.6921,-2.802 2.3653,-0.2288 2.3653,-0.2289 1.918,3.0383 c 1.0549,1.6711 2.2811,3.8352 2.7248,4.8091 l 0.8068,1.7707 -4.1826,7.3873 c -2.7679,4.8884 -4.7398,7.5569 -5.8294,7.8888 -0.9056,0.2758 -2.2287,1.0127 -2.9402,1.6375 l -1.2936,1.1359 0,4.535 c 0,2.4942 0.5239,6.5174 1.1642,8.9406 0.6402,2.4231 1.3573,6.867 1.5934,9.8754 l 0.4293,5.4698 -1.3651,0.9982 c -1.9981,1.4611 -3.5653,1.2287 -5.4836,-0.8133 z"
       id="path8516" />
    <path
       style="fill:#000000"
       d="m 1562.6976,-1977.3034 c -2.2419,-2.3864 -2.0093,-4.4847 0.8548,-7.7118 2.665,-3.0027 7.8868,-13.0573 7.8868,-15.186 0,-2.6379 2.0541,-6.2364 3.8119,-6.6776 1.9603,-0.492 6.3611,-7.1207 6.6986,-10.0898 l 0.2078,-1.8289 -4.0655,-0.568 c -2.2361,-0.3124 -7.7598,-0.4899 -12.2748,-0.3943 l -8.2092,0.1736 -1.2156,-1.0089 c -2.0038,-1.6629 -1.5132,-4.3319 1.0389,-5.6516 l 2.2544,-1.1658 8.4916,0.7902 c 4.6704,0.4345 11.6884,0.5655 15.5956,0.2908 l 7.1041,-0.4994 0.9024,1.2342 c 1.261,1.7245 0.2621,6.427 -2.5819,12.1552 -1.2711,2.5603 -2.8236,6.7322 -3.4501,9.2707 l -1.139,4.6156 -2.666,1.4478 c -2.9954,1.6265 -7.9548,9.2965 -7.2309,11.1829 l 0.4371,1.1391 6.8309,-0.4739 c 3.757,-0.2606 10.9191,-1.3409 15.916,-2.4005 l 9.085,-1.9268 1.8181,0.8284 1.8181,0.8284 0,2.1457 0,2.1457 -2.5367,1.9348 c -3.4428,2.626 -6.023,3.5836 -10.3993,3.8598 -8.009,0.5053 -20.9582,1.7366 -25.8719,2.4601 -7.0779,1.0421 -7.2881,1.0209 -9.1112,-0.9197 z"
       id="path8514" />
    <path
       style="fill:#000000"
       d="m 1335.1607,-1978.9245 c -0.7327,-1.9095 0.4515,-6.1374 2.3514,-8.3954 1.0002,-1.1887 1.8222,-2.4459 1.8264,-2.7938 0.01,-0.3478 1.3314,-2.2956 2.949,-4.3284 1.6176,-2.0328 2.9446,-4.0686 2.949,-4.5239 0.01,-0.4554 -1.5203,-2.1186 -3.3879,-3.696 -4.561,-3.8523 -10.5982,-9.8786 -11.9394,-11.9179 -1.5018,-2.2835 -0.6564,-5.2189 1.6712,-5.8031 3.1309,-0.7857 5.4279,0.3018 7.4704,3.5374 2.8104,4.452 9.0565,10.2067 11.0782,10.2067 2.0231,0 4.8857,-3.8744 8.355,-11.3078 2.4299,-5.2064 3.8555,-6.4594 5.8951,-5.1815 2.619,1.6409 2.073,4.0357 -3.4042,14.9333 -1.7155,3.413 -2.9629,6.4582 -2.772,6.767 0.1909,0.3088 2.1765,1.594 4.4126,2.8559 2.236,1.262 4.0656,2.5989 4.0656,2.9708 0,0.3719 1.1642,2.2015 2.5872,4.0657 2.9711,3.8924 3.3481,7.0508 1.1088,9.2902 -0.826,0.8259 -2.464,1.4784 -3.7119,1.4784 l -2.2334,0 -0.6981,-1.6632 c -0.384,-0.9148 -1.0475,-3.0492 -1.4744,-4.743 l -0.7764,-3.0798 -3.4851,-2.3085 c -1.9168,-1.2696 -4.1483,-2.2122 -4.959,-2.0946 -1.9926,0.2891 -6.8751,7.7105 -7.1802,10.9139 l -0.2447,2.5687 -2.9568,1.6695 c -3.4192,1.9305 -6.8754,2.1977 -7.4964,0.5794 z"
       id="path8512" />
    <path
       style="fill:#000000"
       d="m 347.96427,-2235.1725 c -4.68007,-0.061 -14.19947,2.0097 -20.125,4.5313 -2.94437,1.2529 -5.79063,2.2812 -6.34375,2.2812 -1.81163,0 -6.21875,4.5034 -6.21875,6.3438 0,0.9582 0.5525,3.5786 1.25,5.8437 1.57943,5.1294 2.8703,5.0926 4.875,-0.1875 0.81569,-2.1484 1.8328,-3.8195 2.28125,-3.6875 0.44845,0.1321 1.73877,2.0616 2.84375,4.2813 l 2,4.0312 0.0313,4.5 0,4.4688 1.78125,1.5625 c 0.97093,0.8442 2.17636,2.8082 2.6875,4.375 0.51115,1.5669 1.5585,3.6242 2.3125,4.5937 0.75399,0.9696 1.375,2.8393 1.375,4.1563 0,3.4726 1.94055,8.5237 4.25,10.9687 1.10225,1.167 3.68595,2.9048 5.71875,3.8438 l 3.6875,1.6875 2.59375,-0.4063 c 3.82896,-0.601 6.1474,-1.9774 8.53125,-5.125 1.17288,-1.5486 3.94555,-4.5003 6.15625,-6.5312 9.10367,-8.3635 8.87372,-15.986 -0.6875,-22.4063 -3.15368,-2.1176 -5.71415,-3.2301 -8.21875,-3.5625 -2.00309,-0.2656 -4.38998,-1.0803 -5.28125,-1.8125 l -1.625,-1.3125 0.9375,-1.3437 c 2.01474,-2.9426 4.43254,-8.1221 4.875,-10.4375 0.93935,-4.9156 -2.33582,-9.2226 -8,-10.5 -0.44705,-0.1008 -1.01892,-0.1475 -1.6875,-0.1563 z m -3.5,5.9063 2.59375,0.6562 2.59375,0.625 -0.0937,3.1875 c -0.0817,3.9031 -1.70673,6.2583 -6.9375,9.9375 -2.16753,1.5246 -4.37523,2.75 -4.90625,2.75 -1.3511,0 -2.85166,-2.5965 -4.40625,-7.625 l -1.34375,-4.2812 0.78125,-1.25 c 0.44303,-0.7146 3.10644,-1.8351 6.25,-2.625 l 5.46875,-1.375 z m -1,26.7812 6.5625,0 6.59375,0 3.90625,1.7188 c 2.63481,1.1652 4.24147,2.422 4.875,3.8125 l 0.9375,2.0625 -1.875,2.6562 c -1.01885,1.4689 -3.03156,3.802 -4.46875,5.1563 -1.43718,1.3543 -2.59375,2.7205 -2.59375,3.0625 0,0.342 -1.08494,0.9659 -2.40625,1.375 -5.20437,1.6108 -8.65674,1.621 -10.65625,0 l -0.875,-0.7188 0.78125,-2.25 0.78125,-2.25 -0.90625,-4.1562 c -0.50898,-2.2942 -1.4094,-5.0955 -1.96875,-6.1875 l -1,-1.9688 1.15625,-1.1562 1.15625,-1.1563 z"
       id="path8510"
       inkscape:connector-curvature="0" />
    <path
       style="fill:#000000"
       d="M 179.125 932.53125 C 178.97955 932.54795 178.82927 932.58992 178.71875 932.625 C 176.53918 933.3167 174.63231 938.2579 174.09375 944.5 C 173.84545 947.3779 172.7718 952.02975 171.71875 954.84375 C 169.45948 960.88105 167.85632 966.06265 166.84375 970.65625 C 166.44046 972.48575 165.56025 975.73315 164.90625 977.84375 L 163.71875 981.65625 L 164.59375 983.5625 C 166.3281 987.3689 170.70701 985.26555 173.09375 979.46875 L 174.1875 976.78125 L 178.25 974.46875 C 182.19256 972.21295 192.50663 968.4375 194.75 968.4375 C 195.84382 968.4375 200.21775 976.6444 200.21875 978.6875 C 200.21907 979.2387 201.0461 980.69835 202.0625 981.90625 C 203.0789 983.11415 203.90625 984.57765 203.90625 985.15625 C 203.90625 985.73495 204.59313 986.84315 205.40625 987.65625 C 206.31728 988.56735 207.85488 989.15625 209.4375 989.15625 L 212 989.15625 L 213.15625 986.96875 C 213.77653 985.76925 214.28125 983.06185 214.28125 980.96875 L 214.28125 977.1875 L 212.15625 975.1875 C 209.18729 972.4141 206.875 967.5502 206.875 964.0625 C 206.875 962.2024 206.41854 960.75585 205.65625 960.15625 C 202.50653 957.67915 199.17186 953.8313 198.25 951.625 C 197.69032 950.2855 196.15626 947.75405 194.84375 945.96875 C 193.53124 944.18335 191.19255 940.88965 189.625 938.65625 L 186.75 934.59375 L 183.53125 933.34375 C 181.93717 932.73519 180.14316 932.41433 179.125 932.53125 z M 182.28125 947.40625 C 182.43272 947.36948 182.59708 947.37881 182.75 947.4375 C 183.89269 947.876 192.09375 959.20655 192.09375 960.34375 C 192.09375 960.72765 191.18054 961.22955 190.0625 961.46875 C 188.94446 961.70785 187.2039 962.2631 186.1875 962.6875 C 181.9703 964.4486 179.08822 965.27035 178.21875 964.96875 C 176.88888 964.50745 177.12996 961.92665 178.8125 958.21875 C 179.61669 956.44645 180.28125 954.05505 180.28125 952.90625 C 180.28125 950.14405 181.22095 947.66364 182.28125 947.40625 z "
       transform="translate(0,-3160.6299)"
       id="path8504" />
    <path
       style="fill:#000000"
       d="M 554.625 931.4375 C 551.73022 931.47695 548.7872 931.73305 545.8125 932.21875 C 539.71248 933.21475 537.40792 934.30035 536.125 936.78125 L 535.03125 938.90625 L 535.8125 940.375 C 536.83487 942.2853 537.91451 942.2325 543.21875 940 C 545.63361 938.9836 548.61182 938.15625 549.84375 938.15625 L 552.09375 938.15625 L 552.09375 940.03125 C 552.09375 941.06785 552.56069 942.80845 553.125 943.90625 C 553.83092 945.27965 554.31828 950.40655 554.6875 960.34375 L 555.21875 974.78125 L 553.65625 977.34375 C 551.90564 980.21555 551.61103 982.8966 553 983.5 C 555.46342 984.5702 569.5974 981.27865 574.875 978.40625 C 583.64003 973.63575 592.75 962.3622 592.75 956.25 C 592.75 953.1417 589.02393 945.99235 585.5 942.34375 C 578.59008 935.18928 567.16905 931.26656 554.625 931.4375 z M 559.3125 938.15625 L 562.1875 938.15625 C 563.77379 938.15625 567.44528 938.9256 570.34375 939.875 C 582.08573 943.721 589.30514 954.40865 584.46875 960.78125 C 579.96078 966.72105 575.87478 970.4129 571.6875 972.3125 C 569.24815 973.4191 566.31329 974.33275 565.1875 974.34375 L 563.15625 974.375 L 563.625 972.5 C 563.88357 971.4697 563.704 968.04325 563.25 964.90625 C 562.796 961.76925 561.92344 955.22245 561.3125 950.34375 C 560.70156 945.46505 559.99971 940.7273 559.75 939.8125 L 559.3125 938.15625 z "
       transform="translate(0,-3160.6299)"
       id="path8490" />
    <path
       style="fill:#000000"
       d="m 940.40452,-2177.4267 c -9.70191,-1.9183 -15.2768,-10.5175 -16.16872,-24.9398 -0.42319,-6.8441 0.23344,-10.0572 3.444,-16.8524 l 2.17051,-4.5939 4.20124,-3.172 c 4.87701,-3.6822 8.20851,-5.032 12.53156,-5.0773 4.24944,-0.044 6.77646,1.0622 7.64583,3.3489 l 0.73358,1.9295 -0.9373,1.9555 c -1.16623,2.4333 -2.89396,2.8055 -6.05655,1.3048 l -2.45333,-1.1643 -2.49125,0.8449 c -4.20234,1.425 -6.3251,3.3885 -9.17752,8.4892 l -2.73859,4.8969 0.33649,7.5651 0.33648,7.565 2.23364,3.9768 c 2.8003,4.9855 5.78933,7.0565 11.17558,7.7434 4.78535,0.6102 14.6395,-1.073 17.5866,-3.004 1.811,-1.1866 2.3814,-3.6301 1.0408,-4.4586 -0.4065,-0.2513 -0.7392,-1.7186 -0.7392,-3.2607 0,-3.0744 -2.605,-7.6682 -4.5621,-8.0451 -0.6511,-0.1254 -3.26893,1.1198 -5.8174,2.7669 -2.54853,1.6472 -5.06218,2.9949 -5.5859,2.9949 -1.15988,0 -3.25876,-2.8597 -3.24043,-4.4149 0.0318,-2.7052 11.92733,-10.333 16.14963,-10.3557 l 2.4878,-0.013 2.912,3.1416 c 1.6015,1.7278 3.7493,4.9711 4.7729,7.2072 1.0235,2.236 2.6684,5.6457 3.6554,7.5771 0.987,1.9314 1.7945,4.2934 1.7945,5.2489 0,2.3691 -1.4412,6.4781 -2.8381,8.0912 l -1.1502,1.3286 -3.7346,-0.454 c -2.5757,-0.3132 -5.7506,0.02 -10.2313,1.0738 -6.71869,1.5802 -11.95872,1.8093 -17.28605,0.7559 z"
       id="path8486" />
    <path
       style="fill:#000000"
       d="m 455.61835,-2183.0989 c -4.03404,-0.98 -9.81699,-7.7468 -11.54258,-13.5064 l -0.89099,-2.9738 0.89587,-6.4634 0.89586,-6.4633 3.10333,-6.2819 3.10332,-6.2818 2.51171,-1.6645 c 4.44226,-2.944 9.7431,-1.8573 13.66261,2.8008 2.12254,2.5225 2.46104,4.5275 0.9729,5.7625 l -0.96316,0.7994 -2.17844,-1.323 c -1.19814,-0.7276 -3.07791,-1.548 -4.17726,-1.8232 l -1.99883,-0.5002 -1.60517,1.6688 c -2.90466,3.0197 -5.20651,9.098 -5.60354,14.7969 -0.46959,6.7404 0.76058,10.4256 4.48716,13.4418 l 2.76211,2.2355 5.34928,0.2702 c 3.24699,0.1639 7.80116,-0.2342 11.58813,-1.0132 3.43137,-0.7057 7.40309,-1.321 8.82605,-1.3673 l 2.5872,-0.084 0.2291,1.983 0.2291,1.9831 -1.69431,0.9068 c -0.93188,0.4988 -4.02873,1.5133 -6.88189,2.2546 l -5.18758,1.3479 -8.50079,-0.073 c -4.67544,-0.04 -9.16607,-0.2347 -9.97919,-0.4323 z"
       id="path8484" />
    <path
       style="fill:#000000"
       d="m 811.22766,-2187.1882 c -0.59853,-0.9148 -1.57242,-3.4928 -2.1643,-5.7288 -0.5918,-2.2361 -2.39375,-8.5563 -4.00432,-14.0448 -1.61056,-5.4886 -3.66576,-13.0552 -4.56714,-16.8147 l -1.6388,-6.8355 1.60103,-2.5906 c 0.88061,-1.4248 2.32197,-2.7475 3.20317,-2.9395 13.73003,-2.991 22.01165,-3.1928 25.47198,-0.6208 3.68728,2.7407 2.54248,7.7574 -1.42599,6.2486 -1.85775,-0.7063 -17.05553,0.085 -19.30225,1.005 -1.62314,0.6646 -1.6034,3.1567 0.0673,8.5027 l 1.27054,4.0656 2.04691,0.2374 c 1.12588,0.1306 4.19185,-0.3005 6.81327,-0.9579 6.68214,-1.6758 12.27219,-0.5803 13.2826,2.6032 0.63416,1.9981 -0.8282,3.657 -3.24309,3.6789 -3.08401,0.028 -13.65988,3.3496 -14.01011,4.4003 -0.3458,1.0374 0.77394,6.7932 2.62829,13.5098 l 1.17407,4.2526 -0.84106,1.8458 -0.84098,1.8459 -2.21642,0 c -1.48327,0 -2.5764,-0.5502 -3.30466,-1.6632 z"
       id="path8482" />
    <path
       style="fill:#000000"
       d="m 1105.4277,-2186.686 c -0.6393,-0.6392 -1.1623,-2.1793 -1.1623,-3.4224 0,-2.589 -2.7637,-10.6277 -5.532,-16.0906 -2.1309,-4.2053 -2.0084,-4.1744 -10.3607,-2.6099 -8.9925,1.6844 -9.8672,1.9303 -10.7798,3.0298 l -0.8457,1.0191 1.666,4.719 c 1.8997,5.3813 1.6033,8.1932 -0.9357,8.8736 -3.2737,0.8772 -5.0133,0.51 -5.6624,-1.1952 -2.0573,-5.4048 -4.0046,-14.5169 -4.5692,-21.382 -0.357,-4.3403 -1.1501,-9.3299 -1.7624,-11.0879 -2.0716,-5.948 -1.2159,-9.2921 2.161,-8.4446 2.3663,0.5939 3.6618,3.2997 5.8748,12.2705 l 1.5499,6.2832 3.3254,-0.07 c 4.7068,-0.1 15.7088,-1.9078 16.8485,-2.7687 1.0607,-0.8011 0.9363,-1.746 -1.5497,-11.7685 l -1.6064,-6.4765 0.8106,-1.2851 c 0.4569,-0.7243 1.7186,-1.285 2.8917,-1.285 l 2.0812,0 0.9474,3.696 c 2.4633,9.6096 4.0237,14.6982 4.7906,15.6224 0.4609,0.5553 2.211,1.0101 3.889,1.0108 5.5552,0 10.3468,3.7172 7.9219,6.1421 -0.4465,0.4465 -2.3904,0.9935 -4.3197,1.2155 l -3.5079,0.4037 0.073,2.6461 c 0.04,1.4554 0.9886,4.6152 2.1073,7.0219 1.2145,2.6128 2.1932,6.2312 2.4291,8.9807 l 0.3952,4.6048 -1.0239,0.3231 c -3.4833,1.0988 -5.0646,1.1051 -6.145,0.025 z"
       id="path8480" />
    <path
       style="fill:#000000"
       d="m 1176.8917,-2186.0146 c -1.3309,-0.537 -1.1377,-4.324 0.2816,-5.5184 0.6631,-0.5579 2.9084,-1.357 4.9896,-1.7756 l 3.784,-0.7611 -0.073,-2.9349 c -0.1892,-7.574 -2.0582,-19.5243 -3.7504,-23.9799 -1.0082,-2.6547 -2.0788,-5.8248 -2.3791,-7.0445 -0.579,-2.3517 -0.8201,-2.4017 -5.6243,-1.1656 -1.6262,0.4184 -4.1978,0.7687 -5.7147,0.7784 l -2.7579,0.018 -0.4504,-1.7946 c -0.753,-3.0001 0.2771,-4.7634 3.2388,-5.5442 1.5,-0.3954 7.717,-1.5927 13.8154,-2.6607 l 11.088,-1.9417 4.4352,0.4777 4.4352,0.4777 2.0328,1.9352 c 1.118,1.0644 2.0327,2.5145 2.0327,3.2225 0,1.8872 -2.1812,3.7973 -3.6064,3.1583 -1.6935,-0.7593 -13.3594,-1.6533 -15.7975,-1.2106 -2.4114,0.4379 -2.5176,1.1233 -0.5926,3.8267 2.148,3.0166 4.5617,9.5041 5.2455,14.0985 0.3328,2.2361 0.9523,5.5624 1.3766,7.392 0.4245,1.8295 0.9569,4.55 1.1831,6.0456 0.2262,1.4956 0.9829,3.4233 1.6813,4.2838 l 1.2701,1.5646 4.0163,-0.863 c 4.6288,-0.9945 12.8555,-0.5385 14.4708,0.8021 1.5038,1.248 1.3862,3.4857 -0.2283,4.3498 -0.7315,0.3915 -4.8064,1.0907 -9.0552,1.5538 -4.2489,0.4631 -12.006,1.485 -17.2381,2.271 -9.9484,1.4945 -10.6067,1.5455 -12.1087,0.9395 z"
       id="path8478" />
    <path
       style="fill:#000000"
       d="m 671.09484,-2188.4818 c -1.00148,-1.4065 -2.2262,-2.2176 -3.34824,-2.2176 l -1.76917,0 -0.73535,-2.772 c -0.40444,-1.5246 -1.10889,-6.5974 -1.56545,-11.2728 -0.45655,-4.6754 -1.48113,-10.9603 -2.27683,-13.9663 l -1.44673,-5.4654 2.00604,-2.8947 c 1.10332,-1.5921 2.61245,-3.2193 3.35363,-3.6159 0.74117,-0.3967 5.08963,-1.0536 9.66323,-1.4599 4.57361,-0.4063 11.44427,-1.1089 15.26815,-1.5613 l 6.9525,-0.8228 0.99389,1.3593 c 1.80622,2.4702 1.18098,3.8814 -2.42648,5.4772 -2.15716,0.9543 -4.99473,1.513 -7.68326,1.513 -5.64186,0 -19.44401,1.4286 -20.05756,2.0761 -0.74438,0.7854 1.3727,9.8905 2.47087,10.6265 0.5337,0.3577 3.46515,0.4737 6.51435,0.2579 l 5.54399,-0.3925 3.68687,1.2928 3.68687,1.2928 0.70756,2.0366 0.70755,2.0366 -0.92497,0.9202 c -0.64687,0.6435 -3.14653,0.8534 -8.31403,0.6979 -4.06398,-0.1223 -8.07726,-0.01 -8.91839,0.2631 l -1.52933,0.4853 0.45356,3.3091 c 0.24945,1.82 1.03828,4.3142 1.75294,5.5428 l 1.29938,2.2336 4.43519,-0.4592 c 2.43936,-0.2526 8.33433,-0.6684 13.09995,-0.924 l 8.66475,-0.4649 1.12963,0.9376 c 1.5805,1.3117 1.40973,4.2505 -0.30016,5.1656 -0.78639,0.4209 -3.53067,0.7758 -6.09839,0.7887 -2.56773,0.013 -8.16131,0.5013 -12.43018,1.0854 -10.61309,1.452 -10.75156,1.4398 -12.56638,-1.1088 z"
       id="path8476" />
    <path
       style="fill:#000000"
       d="m 1329.5239,-2188.0688 c -1.8636,-0.9253 -2.5544,-3.6838 -1.3008,-5.1942 0.4583,-0.5522 2.5628,-1.214 4.6768,-1.4708 2.114,-0.2568 5.8394,-0.9281 8.2788,-1.4918 7.0197,-1.6222 12.1532,-2.4836 17.9256,-3.0077 2.9475,-0.2676 5.3592,-0.7613 5.3592,-1.0971 0,-0.3358 -0.7995,-1.2394 -1.7766,-2.0079 -2.9251,-2.3009 -11.2895,-14.0255 -15.2591,-21.389 l -3.7136,-6.8889 -2.3766,0.039 c -1.3071,0.021 -4.9388,0.4592 -8.0705,0.9726 l -5.6941,0.9334 -2.4122,-0.7878 -2.4123,-0.7878 -0.6881,-2.4088 -0.688,-2.4088 1.2306,-1.3598 1.2306,-1.3597 8.6725,-0.4558 c 8.4554,-0.4442 21.1882,-2.0107 28.631,-3.5224 2.0328,-0.4128 8.3041,-1.4731 13.9364,-2.3563 l 10.2403,-1.6056 0.973,1.3307 0.973,1.3307 -0.7658,2.1968 c -1.4758,4.2337 -7.5727,6.3694 -18.3345,6.4224 -8.439,0.041 -13.2706,0.8538 -14.2424,2.3944 l -0.7188,1.1395 1.8402,4.5556 c 2.0489,5.0729 7.6859,13.7121 11.6426,17.8434 3.5531,3.7101 6.5079,7.7242 7.3862,10.0341 l 0.7353,1.9339 -1.0553,2.5255 c -1.3334,3.1913 -2.934,3.6072 -12.1691,3.1625 -3.9576,-0.1906 -8.0043,-0.046 -8.9928,0.3215 -6.0054,2.232 -20.4257,3.7728 -23.0615,2.464 z"
       id="path8474" />
    <path
       style="fill:#000000"
       d="m 1722.3808,-2191.7651 c -1.6013,-1.4467 -3.2038,-2.6209 -3.561,-2.6095 -0.3573,0.012 -2.6455,-0.9737 -5.0848,-2.1894 -2.4394,-1.2157 -6.0984,-2.914 -8.1312,-3.7741 -2.0328,-0.86 -4.5865,-2.0413 -5.6749,-2.6252 -1.0883,-0.5838 -4.5327,-2.3676 -7.6542,-3.964 -3.1216,-1.5964 -6.2647,-3.4356 -6.9847,-4.0872 -0.7201,-0.6517 -2.5148,-1.3805 -3.9881,-1.6196 l -2.6789,-0.4347 0,1.1115 c 0,0.6114 0.6916,2.675 1.5368,4.5858 0.8453,1.9108 1.3626,3.9282 1.1497,4.4831 -0.213,0.5549 -1.6529,1.365 -3.2,1.8002 l -2.8129,0.7912 -1.6789,-2.0388 c -0.9235,-1.1213 -1.8533,-2.8704 -2.0665,-3.8868 -0.2131,-1.0164 -0.7467,-3.1786 -1.1858,-4.8048 -0.4391,-1.6262 -1.0732,-5.9506 -1.409,-9.6096 -1.0253,-11.1684 -1.9155,-17.0106 -2.8616,-18.7783 -1.1804,-2.2055 -0.4332,-5.0206 1.4949,-5.6326 3.1512,-1.0002 4.642,2.0754 6.6368,13.6925 1.8979,11.0528 2.429,13.3729 3.1649,13.8277 0.4261,0.2634 0.9244,0.01 1.1073,-0.576 0.183,-0.5802 3.8909,-4.7139 8.2399,-9.1861 9.462,-9.73 10.9235,-11.7514 11.2351,-15.5392 l 0.2381,-2.8943 2.0264,-1.132 2.0264,-1.132 1.3,0.8157 c 2.1784,1.367 2.7909,4.2875 1.6342,7.7923 -1.1952,3.6213 -4.5023,8.0057 -10.9403,14.504 -2.5011,2.5245 -4.5475,4.8971 -4.5475,5.2725 0,1.9632 14.3171,10.963 22.0422,13.8558 2.7162,1.0171 5.2546,2.1578 5.6408,2.5349 0.3862,0.377 1.15,0.6855 1.6973,0.6855 0.5474,0 3.4664,1.157 6.4869,2.5711 l 5.4917,2.5711 0.5014,1.9977 c 0.7429,2.9602 -1.0818,5.7434 -3.9496,6.024 l -2.3294,0.2279 -2.9115,-2.6303 z"
       id="path8460" />
    <path
       style="fill:#000000"
       d="M 2574.1562 910.65625 L 2569.3125 912.84375 C 2563.5802 915.43085 2559.8122 919.14905 2556.7812 925.15625 L 2554.5625 929.5 L 2554.5938 935.5 C 2554.6046 942.3443 2556.5579 949.6815 2559.375 953.375 C 2565.1616 960.9617 2578.8549 966.0352 2591.5312 965.3125 L 2598 964.9375 L 2601.7812 962.875 L 2605.5625 960.8125 L 2610.3125 965.375 C 2616.506 971.3223 2619.625 971.3731 2619.625 965.5 L 2619.625 962.8125 L 2615.125 958.0625 L 2610.6562 953.3125 L 2611 951.4375 C 2611.1892 950.4211 2612.5579 946.45605 2614.0625 942.59375 L 2616.8125 935.5625 L 2616.4688 932.21875 C 2616.2855 930.38925 2615.4198 927.70205 2614.5312 926.21875 L 2612.9062 923.5 L 2605.7188 920.75 C 2601.7708 919.2401 2597.6095 917.65125 2596.4375 917.21875 C 2595.2655 916.78635 2593.311 915.61805 2592.0938 914.59375 C 2589.9013 912.74895 2586.7184 911.925 2578.2188 911.0625 L 2574.1562 910.65625 z M 2581.5625 917.625 L 2584.1562 918.9375 C 2589.7908 921.7844 2603.898 927.78125 2604.9688 927.78125 C 2606.7298 927.78125 2609.7081 930.45325 2610.75 932.96875 L 2611.6875 935.25 L 2608.9062 941.5 L 2606.125 947.75 L 2604.4062 947.75 C 2603.3216 947.75 2601.9742 946.82375 2600.75 945.21875 C 2599.6855 943.82315 2597.6458 941.76855 2596.1875 940.65625 L 2593.5312 938.625 L 2592.1562 940.3125 C 2591.4059 941.2392 2590.7812 942.4828 2590.7812 943.0625 C 2590.7812 944.2577 2598.1315 953.65625 2599.0625 953.65625 C 2600.6546 953.65625 2599.468 956.68495 2597.4688 957.71875 C 2593.3031 959.87285 2584.8747 959.64905 2577.375 957.15625 C 2572.2437 955.45055 2570.0701 954.14905 2566.3125 950.53125 L 2562.9062 947.25 L 2561.9688 942.28125 C 2560.3928 933.92925 2561.9079 927.9726 2566.8125 923 C 2570.5611 919.1996 2571.4391 918.7494 2576.5625 918.1875 L 2581.5625 917.625 z "
       transform="translate(0,-3160.6299)"
       id="path8456" />
    <path
       style="fill:#000000"
       d="M 2693.1562 900.625 C 2692.2037 900.63925 2691.2545 900.71626 2690.3125 900.84375 C 2685.4157 901.50655 2677.9001 904.5302 2675.4375 906.8125 L 2673.5 908.59375 L 2673.7188 910.96875 L 2673.9688 913.375 L 2676 914.34375 C 2677.1256 914.88055 2678.5105 916.0473 2679.0938 916.9375 C 2680.8075 919.5531 2683.9938 932.35255 2683.5 934.65625 C 2683.2453 935.84415 2683.5334 937.73565 2684.1562 939.09375 C 2684.753 940.39485 2685.4477 944.2975 2685.7188 947.75 C 2686.2604 954.654 2687.3834 957.10075 2690.3438 957.84375 C 2694.6359 958.92105 2695.294 956.6636 2693.7812 946.0625 C 2693.3868 943.2988 2693.2654 940.92295 2693.5 940.78125 C 2693.7346 940.63965 2696.2023 940.94055 2699 941.46875 L 2704.0938 942.4375 L 2710.3125 948.59375 C 2713.7414 951.98735 2717.7454 956.3663 2719.1875 958.3125 C 2721.6466 961.6312 2724.9262 963.9555 2730.125 966 C 2731.3446 966.4796 2733.077 966.87525 2733.9688 966.90625 C 2735.8717 966.97225 2737.9062 964.4144 2737.9062 961.9375 C 2737.9062 959.7524 2734.1053 955.875 2731.9688 955.875 C 2727.5376 955.875 2714.9688 943.3579 2714.9688 938.9375 C 2714.9688 938.1226 2715.6557 937.09135 2716.4688 936.65625 C 2718.8745 935.36875 2722.365 928.57215 2722.375 925.15625 C 2722.4041 912.55297 2707.4448 900.41131 2693.1562 900.625 z M 2693.9375 907.28125 C 2694.6271 907.29702 2695.3317 907.34195 2696.0312 907.40625 L 2701.125 907.875 L 2705.8438 910.53125 C 2713.6496 914.89665 2718.1957 922.4655 2715.6562 926.9375 C 2715.0882 927.9379 2713.6802 929.4599 2712.5312 930.3125 L 2710.4375 931.875 L 2700.7812 931.875 C 2695.0172 931.875 2691.0308 931.5668 2690.875 931.125 C 2690.7316 930.7185 2690.136 928.5486 2689.5625 926.3125 C 2687.9392 919.9837 2686.0087 914.28595 2684.8438 912.46875 C 2684.2589 911.55725 2683.9604 910.31045 2684.1875 909.71875 C 2684.7744 908.18934 2689.1106 907.17088 2693.9375 907.28125 z "
       transform="translate(0,-3160.6299)"
       id="path8452" />
    <path
       style="fill:#000000"
       d="m 1850.0562,-2198.9349 c -3.1651,-3.3827 -5.2457,-9.5838 -8.5095,-25.3632 -0.5947,-2.8751 -1.7091,-5.8272 -2.5295,-6.7005 -1.7377,-1.8497 -1.8702,-4.6122 -0.391,-8.1525 3.3272,-7.9633 9.2346,0.035 10.6767,14.4551 0.3452,3.4521 0.9928,7.2745 1.4391,8.4942 0.4463,1.2197 1.0043,3.175 1.2399,4.3451 0.2358,1.1701 1.3839,3.0828 2.5515,4.2504 l 2.1229,2.1229 6.8944,-0.013 c 7.0701,-0.014 15.9977,-1.3244 22.2505,-3.2659 4.2598,-1.3225 5.1364,-1.0513 6.843,2.1175 1.617,3.0027 1.1487,4.4052 -2.0179,6.0427 -3.2364,1.6736 -17.4849,3.6065 -30.8996,4.1916 l -7.0223,0.3063 -2.6482,-2.8301 z"
       id="path8448" />
    <path
       style="fill:#000000"
       d="m 2369.4062,912.3125 -5.9374,0.5625 -5.9063,0.53125 -3.4687,2.03125 c -4.0122,2.3513 -5.5982,4.4176 -8.8438,11.375 l -2.375,5.0625 0.1562,7.5625 0.1563,7.5625 2.1563,3.15625 c 4.2833,6.3015 9.2486,9.91735 17.0312,12.40625 2.646,0.8468 9.5014,0.82185 14,-0.0313 4.5056,-0.8544 12.0432,-5.24695 14.5,-8.46875 6.9204,-9.0755 4.8115,-24.8784 -4.5312,-34 l -3.8438,-3.71875 -6.5312,-2.03125 z m -0.9687,8.71875 4.1875,0.34375 c 7.0224,0.6224 8.6854,1.27445 11.7812,4.46875 3.3929,3.5008 4.5525,6.9588 4.5626,13.4375 l 0.031,4.46875 -1.6562,3.28125 -1.6876,3.3125 -4.4374,2.375 -4.4376,2.375 -6.2812,0 c -6.4546,-0.008 -9.2879,-0.7994 -13.3438,-3.6875 L 2355,949.875 c -1.6659,-2.51691 -1.2844,-1.55255 -3.625,-4.25 l -0.875,-3.1875 c -1.5005,-5.5631 0.2746,-12.489 4.7188,-18.5 1.8859,-2.551 2.9722,-2.61185 4.0624,-0.21875 1.0982,2.41 2.2184,2.35565 6.0313,-0.40625 z"
       transform="translate(0,-3160.6299)"
       id="path8446"
       inkscape:connector-curvature="0"
       sodipodi:nodetypes="ccccccccccssccccccsccccccccccccccc" />
    <path
       style="fill:#000000"
       d="M 2460.375 901.25 C 2450.3664 901.26901 2448.4269 903.15876 2447.6562 910.53125 L 2447.2188 914.96875 L 2449.5 915.9375 C 2452.683 917.256 2454.0312 916.52615 2454.0312 913.53125 C 2454.0312 910.72195 2456.198 908.24135 2459.3125 907.46875 C 2461.8667 906.83505 2462.2988 907.67915 2461.125 911.09375 L 2460.1562 913.90625 L 2461.5 918.96875 C 2463.0754 924.96935 2462.7058 928.6915 2460.4375 929.6875 C 2459.3619 930.1598 2458.7841 931.18575 2458.625 932.84375 C 2458.3348 935.86585 2459.5087 937.40625 2462.125 937.40625 L 2464.125 937.40625 L 2465.0938 943.3125 C 2465.62 946.5561 2465.8398 949.7335 2465.5938 950.375 C 2465.0802 951.7128 2466.8272 956.2981 2468.5938 958.25 C 2470.07 959.8813 2472.7653 959.95335 2474.3125 958.40625 C 2475.8851 956.83365 2475.79 953.7863 2473.9375 947.6875 C 2473.0831 944.8745 2472.5426 942.1031 2472.75 941.5625 C 2473.0066 940.8937 2475.3331 940.42425 2480.0312 940.09375 L 2486.9375 939.625 L 2488.7812 938.28125 C 2489.7976 937.54945 2491.5383 935.1866 2492.6562 933 L 2494.6875 929 L 2494.6875 924.90625 L 2494.6875 920.78125 L 2492.5938 916.28125 C 2490.0684 910.94335 2485.9346 907.16845 2479.1875 903.96875 L 2474.375 901.6875 L 2465.1875 901.34375 C 2463.4081 901.2808 2461.8048 901.24728 2460.375 901.25 z M 2466.5938 907.84375 L 2469.5625 907.84375 C 2473.0884 907.84375 2479.0354 909.99555 2482.875 912.65625 C 2489.2055 917.04335 2490.8233 929.6425 2485.375 932.125 C 2484.3597 932.5876 2482.9736 932.935 2482.2812 932.875 C 2475.8212 932.3172 2472.4608 931.71085 2471.7812 931.03125 C 2471.3369 930.58685 2470.4676 927.0071 2469.875 923.0625 C 2469.2825 919.1178 2468.3248 914.7006 2467.7188 913.25 C 2467.1127 911.7994 2466.5938 909.98215 2466.5938 909.21875 L 2466.5938 907.84375 z "
       transform="translate(0,-3160.6299)"
       id="path8442" />
    <path
       style="fill:#000000"
       d="m 2002.7923,-2204.9635 c -1.5405,-2.3511 -2.6189,-10.9563 -2.8187,-22.4928 -0.098,-5.6851 -0.4971,-10.0686 -0.9575,-10.5284 l -0.7887,-0.7879 -2.8307,2.0454 c -1.5569,1.125 -5.2189,4.2907 -8.1376,7.035 -7.3559,6.9161 -7.7783,6.8562 -17.9732,-2.55 -2.5558,-2.3582 -4.9319,-4.2876 -5.2801,-4.2876 -1.4561,0 -1.463,2.7558 -0.021,8.407 4.4712,17.5215 4.8978,20.0449 3.6436,21.5562 -1.2303,1.4824 -4.6712,1.3635 -6.0907,-0.2104 -1.5295,-1.6958 -3.4383,-9.9433 -4.2668,-18.4355 -0.3646,-3.7363 -1.5446,-9.4611 -2.6223,-12.722 l -1.9595,-5.9289 0.5096,-3.3986 c 0.8391,-5.5958 1.0501,-5.5369 14.1481,3.9432 2.0694,1.4979 5.6706,4.3655 8.0026,6.3724 l 4.2398,3.6491 2.7159,-1.4137 c 1.4936,-0.7775 5.8447,-4.4986 9.6691,-8.269 3.8244,-3.7704 7.5279,-6.8553 8.23,-6.8553 0.7021,0 2.4374,1.2849 3.8562,2.8553 l 2.5797,2.8554 0.8328,4.782 c 0.458,2.63 0.84,9.2453 0.8489,14.7006 l 0.016,9.9186 1.4622,3.2223 c 0.8042,1.7723 1.4516,3.7682 1.4386,4.4352 -0.044,2.2934 -1.8925,3.8001 -4.6609,3.8001 l -2.6735,0 -1.1123,-1.6977 z"
       id="path8438" />
    <path
       style="fill:#000000"
       d="m 2099.1808,-2211.7503 c -1.1941,-2.6338 -2.1712,-5.4294 -2.1712,-6.2125 0,-0.783 -0.8511,-3.8673 -1.8913,-6.8538 -1.0403,-2.9865 -2.8446,-9.2167 -4.0097,-13.845 -2.2623,-8.9874 -2.1573,-10.8447 0.7278,-12.8654 2.1086,-1.4769 4.0697,-0.8413 7.2629,2.354 5.0938,5.0974 10.1343,9.0572 14.5008,11.3919 2.7364,1.4632 7.0774,5.033 11.5088,9.4644 3.9134,3.9133 7.7896,7.4761 8.6139,7.9172 l 1.4986,0.8021 0.8525,-0.8524 c 1.4289,-1.4289 0.9895,-3.631 -2.436,-12.208 -3.6603,-9.1649 -5.2669,-12.5474 -6.7845,-14.284 -1.6255,-1.8602 -5.4502,-10.1578 -5.4502,-11.8243 0,-3.7278 3.1175,-6.3176 6.1961,-5.1471 2.7775,1.056 4.4477,4.1046 4.2579,7.772 l -0.1633,3.1535 3.8199,9.5225 c 2.1009,5.2375 4.2761,10.0478 4.8338,10.6896 0.5576,0.6419 1.0139,1.421 1.0139,1.7314 0,0.3105 0.6653,1.4102 1.4784,2.4439 1.6188,2.058 1.8604,4.8665 0.7729,8.9864 -0.3881,1.4701 -0.8734,3.5078 -1.0785,4.5284 -0.7004,3.4865 -6.5646,5.5293 -10.2765,3.5797 -0.8881,-0.4664 -4.8135,-4.0782 -8.7232,-8.0262 -3.9097,-3.948 -9.0656,-8.4362 -11.4575,-9.9737 -2.392,-1.5376 -5.7341,-3.747 -7.4268,-4.9098 -3.0692,-2.1085 -5.4231,-2.7286 -5.4231,-1.4287 0,0.3772 1.032,3.4541 2.2933,6.8376 5.1126,13.7151 5.8005,15.8595 5.8188,18.138 0.021,2.5382 -1.5258,3.9068 -4.4139,3.9068 l -1.5733,0 -2.1713,-4.7885 z"
       id="path8436" />
    <path
       style="fill:#000000"
       d="m 1465.297,-2474.8297 c -0.6262,-1.632 0.207,-2.4652 1.3361,-1.336 l 0.8747,0.8747 -0.8628,0.8628 -0.8628,0.8628 -0.4852,-1.2643 z"
       id="path8434" />
    <path
       style="fill:#000000"
       d="m 1552.4952,-2593.8282 c -3.3044,-0.9151 -6.8984,-2.2472 -7.9868,-2.9603 l -1.9787,-1.2965 0.2251,-3.0981 0.2252,-3.0981 1.8991,-0.221 c 1.0445,-0.1216 4.4965,0.6269 7.6711,1.6631 6.5968,2.1535 10.6217,2.3749 13.7513,0.7565 3.4899,-1.8047 2.4712,-6.3111 -2.8817,-12.747 -2.7309,-3.2834 -6.7646,-10.7845 -6.7646,-12.5793 0,-1.4219 -1.6053,-1.8735 -6.0847,-1.7119 l -4.3686,0.1576 -3.2989,-1.5968 c -2.23,-1.0796 -3.7404,-2.4699 -4.6614,-4.2911 -2.6919,-5.3223 -3.965,-15.871 -2.1361,-17.6998 1.2461,-1.2462 3.9267,-1.1035 5.0662,0.2696 0.5279,0.6361 1.2048,2.9608 1.5041,5.1659 0.2992,2.2052 1.1553,5.2605 1.9025,6.7898 l 1.3585,2.7804 3.8685,0.223 3.8683,0.2231 1.4999,-2.4407 c 0.8249,-1.3423 1.8358,-3.6679 2.2465,-5.168 1.8347,-6.7025 8.1992,-2.7849 7.0943,4.367 -0.2375,1.5376 -0.639,4.1878 -0.8922,5.8895 -0.5988,4.0245 0.5407,7.3215 4.634,13.4077 4.4365,6.5966 5.3427,8.4332 6.9723,14.1316 1.8641,6.5183 1.8048,6.9444 -1.3868,9.9717 -3.1077,2.9475 -5.3588,3.8238 -11.2728,4.3879 l -4.0656,0.3879 -6.008,-1.6637 z"
       id="path8432" />
    <path
       style="fill:#000000"
       d="m 1649.4247,-2616.9414 c -4.8646,-1.2238 -6.3994,-2.0522 -7.4049,-3.9964 -1.3953,-2.6983 -1.391,-6.1669 0.013,-10.7609 l 1.1092,-3.6287 -1.8484,-1.5062 c -3.7064,-3.02 -1.284,-6.9946 4.2633,-6.9946 l 2.8258,0 1.8145,-1.8144 c 2.263,-2.2631 2.4069,-5.2899 0.2834,-5.9639 -1.6818,-0.5337 -9.3835,0.1291 -12.8834,1.1088 -1.2197,0.3415 -3.483,0.7996 -5.0296,1.018 l -2.812,0.3972 -1.4384,-1.4385 c -1.62,-1.6201 -1.9151,-5.3099 -0.5144,-6.4342 0.5082,-0.408 6.2462,-0.9629 12.7512,-1.2332 l 11.8271,-0.4915 2.4469,1.5285 c 3.0058,1.8775 4.5755,5.4321 4.5755,10.361 l 0,3.738 1.7763,0.6754 c 4.3523,1.6547 2.749,4.4624 -2.5484,4.4624 l -3.5479,0 -2.672,3.1218 c -2.8037,3.2754 -3.8041,5.7343 -3.09,7.595 0.4701,1.2251 3.4994,1.5249 11.9679,1.1841 l 5.2122,-0.2097 0.7842,0.992 c 0.4314,0.5456 1.0064,1.9211 1.2779,3.0566 l 0.4936,2.0646 -3.1637,1.3887 c -3.1452,1.3806 -13.5758,2.508 -16.4692,1.7801 z"
       id="path8408" />
    <path
       style="fill:#000000"
       d="m 551.71421,-2618.6159 c -1.62624,-0.7795 -4.16702,-1.6234 -5.64618,-1.8752 -6.23462,-1.0615 -9.8753,-6.027 -6.86104,-9.3576 1.63223,-1.8037 4.16864,-1.7863 9.55043,0.065 4.88743,1.6815 7.91803,1.8482 11.53208,0.6345 5.40578,-1.8155 6.4764,-4.5192 2.96085,-7.4774 l -2.13903,-1.7999 -5.98412,-0.1137 -5.98412,-0.1137 -4.74473,-1.8995 c -2.60959,-1.0446 -5.24598,-2.4584 -5.85864,-3.1416 -2.6871,-2.9967 -2.72133,-9.7517 -0.0699,-13.7983 1.49832,-2.2867 8.84285,-6.6265 12.53968,-7.4095 1.60729,-0.3404 4.41922,-0.6421 6.24873,-0.6702 l 3.3264,-0.051 3.30636,2.2271 c 1.81851,1.2249 3.79825,3.1034 4.39945,4.1745 l 1.09307,1.9475 -0.97876,1.1794 c -1.11566,1.3443 -4.893,1.5881 -5.64914,0.3647 -0.2769,-0.4481 -1.64788,-1.2928 -3.04661,-1.8772 l -2.54314,-1.0626 -4.70714,1.5899 c -7.76421,2.6227 -10.08839,6.7814 -4.80107,8.5908 1.41801,0.4852 5.23931,0.9083 8.49179,0.9402 10.01026,0.098 15.68385,4.0945 17.37449,12.2382 1.50862,7.267 -0.25627,10.0865 -8.99522,14.3699 -7.72183,3.7849 -9.20778,4.0546 -12.81447,2.3257 z"
       id="path8406" />
    <path
       style="fill:#000000"
       d="m 672.2224,-2620.6894 c -2.47392,-0.6711 -6.50299,-3.7565 -8.95962,-6.8609 -2.48161,-3.1359 -3.95238,-7.0605 -5.48468,-14.6351 l -0.93873,-4.6404 -2.11225,-1.2478 -2.11226,-1.2477 0,-2.565 c 0,-1.6016 0.59269,-3.1959 1.57799,-4.2447 l 1.57799,-1.6796 -0.82101,-5.76 c -0.45155,-3.1679 -1.20854,-7.5206 -1.6822,-9.6724 l -0.8612,-3.9125 0.84967,-1.8648 0.84966,-1.8648 1.95345,0.2333 c 3.10879,0.3713 4.52584,3.1995 5.85762,11.6909 0.66952,4.2688 1.4967,8.4929 1.83816,9.3869 l 0.62085,1.6253 4.20698,0.2227 4.20699,0.2226 0.81193,1.2936 0.81193,1.2936 -0.78823,1.2497 c -0.43352,0.6872 -2.18199,1.7142 -3.88548,2.2819 -1.70349,0.5679 -3.43759,1.6684 -3.85356,2.4456 -0.96699,1.8069 -0.10956,8.5066 1.23106,9.6192 0.55549,0.461 1.35809,2.131 1.78357,3.7112 l 0.7736,2.8728 2.3733,0.9876 c 1.30532,0.5432 4.25633,1.1804 6.55781,1.416 6.64739,0.6805 9.56787,3.4797 7.98212,7.6505 l -0.67245,1.7687 -3.99149,0 c -2.19532,0 -4.94783,0.1394 -6.11669,0.3098 -1.16886,0.1704 -2.78203,0.1316 -3.58483,-0.086 z"
       id="path8404" />
    <path
       style="fill:#000000"
       d="m 1310.1323,-2625.7631 c -2.2746,-1.1492 -6.2001,-5.8281 -8.0866,-9.6386 -1.6656,-3.3645 -4.2048,-13.6168 -3.7372,-15.0898 0.2324,-0.7322 0.8257,-1.4846 1.3184,-1.672 1.4251,-0.5421 4.2167,0.7856 4.6662,2.2192 0.2262,0.7212 1.0347,2.8082 1.7966,4.6377 0.762,1.8295 1.592,4.3985 1.8444,5.7089 0.5365,2.7846 4.1354,6.1183 6.6051,6.1183 1.8494,0 3.711,-2.2826 4.5331,-5.5579 0.2782,-1.1088 1.3604,-3.321 2.4048,-4.916 l 1.8987,-2.9002 1.8791,0.219 1.879,0.2191 2.333,3.696 c 3.3838,5.3608 5.8169,7.7616 7.866,7.7616 l 1.7926,0 1.581,-4.1314 c 2.1976,-5.7427 2.0639,-7.7999 -0.6366,-9.7965 -2.6055,-1.9263 -2.8109,-3.9394 -0.7473,-7.3241 l 1.4648,-2.4023 1.9074,0 c 4.3686,0 6.2388,3.2145 6.2358,10.7183 -0.01,13.0351 -4.6523,22.533 -11.0297,22.5429 -3.0145,0.01 -7.6941,-2.7928 -9.891,-5.9127 -1.1443,-1.6252 -2.4755,-2.955 -2.958,-2.955 -0.4825,0 -1.6725,1.499 -2.6445,3.3311 -2.9506,5.5621 -7.582,7.4955 -12.2751,5.1244 z"
       id="path8402" />
    <path
       style="fill:#000000"
       d="m 1467.4943,-2629.9682 c -2.9726,-2.9475 -5.8028,-5.3592 -6.2892,-5.3592 -0.4864,0 -2.1907,1.9127 -3.7874,4.2504 -1.5966,2.3377 -3.3944,4.2504 -3.9949,4.2504 -1.9917,0 -3.7751,-1.4141 -4.2699,-3.3857 l -0.4885,-1.9464 2.2515,-4.326 c 1.2383,-2.3794 2.2514,-4.6143 2.2514,-4.9665 0,-0.3522 -2.1621,-2.3947 -4.8048,-4.5388 l -4.8047,-3.8983 0,-1.9798 c 0,-2.3313 1.8614,-5.2657 3.3403,-5.2657 0.5714,0 3.0735,1.8154 5.5602,4.0343 2.4867,2.2188 5.2365,4.2612 6.1107,4.5387 l 1.5894,0.5044 2.2333,-2.8668 c 3.9935,-5.1264 7.2395,-7.7709 9.25,-7.5359 l 1.8536,0.2166 0.2461,1.7383 c 0.394,2.7836 -0.4303,4.9223 -3.1534,8.1816 -1.4012,1.6771 -2.7731,3.7596 -3.0486,4.6278 l -0.501,1.5785 3.0758,2.84 c 1.6917,1.5621 3.5473,2.8401 4.1236,2.8401 1.7313,0 4.0623,3.0897 4.0623,5.3846 0,2.8838 -2.1922,6.4426 -3.9686,6.4426 -0.7881,0 -3.8628,-2.41 -6.8372,-5.3592 z"
       id="path8400" />
    <path
       style="fill:#000000"
       d="m 813.02103,-2629.1453 c -3.0492,-1.6711 -6.39378,-3.8288 -7.43242,-4.795 -1.03865,-0.9662 -2.15521,-1.7567 -2.48127,-1.7567 -0.32606,0 -2.15432,1.6632 -4.06286,3.696 l -3.46995,3.696 -4.39757,-0.026 c -2.41858,-0.015 -5.14179,-0.4396 -6.05145,-0.945 -2.97202,-1.6512 -8.86573,-9.332 -9.65113,-12.5777 -2.65306,-10.9635 -2.65498,-15.9571 -0.007,-17.8118 3.69976,-2.5914 6.86923,1.1046 7.44203,8.6788 0.69078,9.1342 3.81656,13.3417 8.9537,12.0524 3.02901,-0.7603 4.31884,-3.785 4.90229,-11.4966 0.70534,-9.3226 1.05935,-10.0985 4.42839,-9.7051 1.7383,0.2029 3.696,2.9633 3.696,5.2115 0,1.1248 0.46414,2.4304 1.03148,2.9012 0.56733,0.4708 1.24119,1.974 1.49754,3.3404 0.79094,4.2161 10.86275,11.99 17.29193,13.3467 2.60575,0.5498 4.3734,3.0796 3.58578,5.132 -0.66779,1.7404 -5.01029,4.1124 -7.51396,4.1045 -1.21967,0 -4.71239,-1.3743 -7.76158,-3.0454 z"
       id="path8398" />
    <path
       style="fill:#000000"
       d="m 917.65619,-2627.0114 c -0.15656,-0.5082 -0.47545,-1.8005 -0.70867,-2.8717 -0.23329,-1.0713 -1.62705,-3.7324 -3.09739,-5.9136 -1.47027,-2.1812 -3.68188,-5.9617 -4.91457,-8.4011 -1.23276,-2.4393 -3.35943,-5.7424 -4.72599,-7.3402 -3.98635,-4.6608 -3.00484,-8.5525 2.15698,-8.5525 1.75841,0 3.70147,1.6166 5.27189,4.3864 0.44264,0.7807 2.01632,3.5227 3.49701,6.0933 1.48076,2.5706 2.81132,5.3039 2.95679,6.0739 0.27979,1.4802 4.03041,4.6901 4.69902,4.0215 0.21614,-0.2161 0.88201,-2.1897 1.47972,-4.3857 0.59772,-2.196 1.75775,-6.4684 2.57789,-9.4943 1.55106,-5.7224 2.24886,-6.6649 4.94856,-6.6838 2.21243,-0.016 2.75485,2.2161 1.47197,6.0559 -0.58301,1.745 -1.29071,5.8339 -1.57264,9.0863 -0.80041,9.2341 -3.32463,16.5086 -6.27654,18.0885 -2.01092,1.0762 -7.4172,0.9628 -7.76403,-0.1629 z"
       id="path8396" />
    <path
       style="fill:#000000"
       d="m 183.24323,-2645.3868 c -1.34579,-2.0769 -2.99923,-5.5613 -3.67429,-7.7431 -0.67505,-2.1818 -2.00002,-4.7894 -2.94438,-5.7946 -0.94435,-1.0052 -1.717,-2.6716 -1.717,-3.7032 0,-2.5949 2.05206,-5.4779 4.30067,-6.0423 l 1.87958,-0.4717 1.81243,1.7026 1.81244,1.7028 5.72343,-1.2984 c 3.14788,-0.714 7.2203,-1.7433 9.04982,-2.2872 1.82951,-0.5438 5.54247,-1.1904 8.25102,-1.4367 l 4.92464,-0.4478 4.12416,1.5431 c 6.19567,2.318 8.33806,6.3542 4.26775,8.0402 l -2.08678,0.8643 -7.46548,-1.1162 c -8.59858,-1.2857 -14.27274,-0.8866 -17.83123,1.2542 l -2.48954,1.4977 0.51039,7.1991 0.51039,7.199 -1.67143,1.5572 c -2.74303,2.5556 -4.54921,2.0056 -7.28659,-2.219 z"
       id="path8392" />
    <path
       style="fill:#000000"
       d="M 1096.9375 235.90625 C 1091.7928 235.91245 1088.6921 237.07805 1085.1875 240.34375 C 1081.5562 243.72745 1078.5837 249.79385 1077.5938 255.84375 L 1076.9375 259.9375 L 1078.4062 264.375 L 1079.875 268.8125 L 1082.3125 270.46875 C 1086.5268 273.33715 1095.3601 272.0428 1101.7812 267.625 L 1104.8438 265.5 L 1105.75 266.59375 C 1107.2723 268.42795 1111.6891 281.83215 1112.8125 288.03125 C 1113.4018 291.28365 1113.8745 295.79955 1113.875 298.09375 L 1113.875 302.28125 L 1112.7188 302.71875 C 1109.1866 304.07425 1103.6834 301.4618 1101.5312 297.375 C 1100.0751 294.6097 1097.2134 293.0111 1095.125 293.8125 L 1093.9062 294.25 L 1093.9062 297.875 C 1093.9062 303.2015 1096.03 305.90055 1102.7812 309.21875 C 1108.9837 312.26735 1112.3065 312.6528 1116.0938 310.75 C 1121.8517 307.8571 1123.079 302.94845 1120.9062 291.59375 C 1120.2965 288.40715 1119.7813 284.48795 1119.7812 282.90625 C 1119.7812 281.32445 1119.1747 278.6707 1118.4062 277 C 1116.8209 273.5529 1113.3893 263.6147 1112.2812 259.1875 L 1111.5625 256.21875 L 1112.4375 253.5 C 1112.9287 251.9996 1113.1488 249.51755 1112.9062 247.96875 L 1112.4688 245.125 L 1109.6562 242.6875 C 1108.1153 241.3381 1105.3927 239.2541 1103.5938 238.0625 L 1100.3125 235.90625 L 1096.9375 235.90625 z M 1095.8125 243.3125 C 1099.5936 243.3079 1103.5312 248.4062 1103.5312 253.3125 L 1103.5312 256 L 1101.125 258.40625 C 1099.8036 259.72355 1096.7905 261.52815 1094.4375 262.40625 C 1089.1274 264.38745 1088.397 264.3969 1086.4375 262.4375 L 1084.8438 260.84375 L 1085.25 257.0625 C 1086.1209 248.8143 1090.3544 243.3225 1095.8125 243.3125 z "
       transform="translate(0,-3160.6299)"
       id="path8390" />
    <path
       style="fill:#000000"
       d="M 2522.9062 226.375 C 2522.067 226.38125 2521.2285 226.4367 2520.3438 226.5 C 2514.986 226.8833 2512.6998 227.99825 2509.9688 231.65625 L 2508.5 233.625 L 2511.2188 236.625 C 2512.7067 238.2718 2513.9062 239.88395 2513.9062 240.21875 C 2513.9062 243.92055 2515.6986 257.5693 2516.4375 259.5625 C 2516.9911 261.0556 2517.4443 265.9943 2517.5312 271.25 C 2517.6145 276.2588 2518.0206 281.20435 2518.4062 282.21875 C 2518.7919 283.23315 2519.0938 285.1789 2519.0938 286.5625 L 2519.0938 289.09375 L 2521.125 290.1875 C 2523.6695 291.568 2524.6033 291.6061 2525.625 290.375 C 2526.711 289.0669 2526.7366 286.648 2525.7188 276.1875 C 2525.2441 271.3088 2524.6917 265.1223 2524.5 262.4375 L 2524.1562 257.5625 L 2527.7188 257.0625 C 2529.6809 256.796 2532.8922 256.05175 2534.8438 255.40625 L 2538.375 254.25 L 2540.3125 251.34375 C 2542.7926 247.59625 2543.294 242.57495 2541.7188 237.15625 L 2540.5 233 L 2537.125 230.4375 C 2533.5403 227.70032 2528.7809 226.33123 2522.9062 226.375 z M 2530.875 234.0625 L 2533.1875 236.34375 C 2535.5866 238.74135 2536.7681 243.48305 2535.4688 245.40625 C 2535.0989 245.95375 2532.6881 246.85005 2530.0938 247.40625 C 2524.173 248.67575 2523.133 248.7109 2522.2188 247.5625 C 2521.2717 246.3728 2520.5972 236.321 2521.375 235.0625 C 2521.7514 234.4535 2523.6032 234.11075 2526.4375 234.09375 L 2530.875 234.0625 z "
       transform="translate(0,-3160.6299)"
       id="path8378" />
    <path
       style="fill:#000000"
       d="M 828.59375 233.84375 C 826.99608 233.82423 825.3897 233.9908 823.8125 234.34375 C 818.27221 235.58365 815.73912 237.459 812.96875 242.3125 C 811.61336 244.6872 809.69079 247.79585 808.71875 249.21875 L 806.96875 251.8125 L 807.40625 256.15625 C 808.03265 262.31795 810.56401 267.23085 816.25 273.34375 L 821.15625 278.625 L 823.9375 279.40625 C 827.45417 280.40585 840.41892 279.848 844.8125 278.5 C 846.64202 277.9386 849.29579 276.82405 850.71875 276.03125 L 853.3125 274.59375 L 853.5625 272.5625 C 854.10884 267.9224 849.85907 266.64125 840.75 268.71875 C 833.822 270.29885 828.87493 270.75295 826.8125 269.96875 C 823.95505 268.88235 819.7104 263.9437 819.6875 261.6875 L 819.6875 259.75 L 821.71875 259.34375 C 822.84551 259.11835 826.75594 258.7055 830.40625 258.4375 C 841.54177 257.6198 846.00616 255.05735 847.375 248.65625 L 847.875 246.21875 L 845.84375 242.96875 C 842.29973 237.36689 835.51698 233.92834 828.59375 233.84375 z M 824.21875 242.5625 L 827.59375 242.5625 C 832.52886 242.5625 836.6942 244.0196 837.625 246.0625 L 838.40625 247.78125 L 837.375 248.78125 C 836.04156 250.03705 819.28853 251.1241 818.59375 250 C 817.93513 248.9343 819.27106 246.7436 821.9375 244.5 L 824.21875 242.5625 z "
       transform="translate(0,-3160.6299)"
       id="path8364" />
    <path
       style="fill:#000000"
       d="m 955.10186,-2887.9486 c -0.42105,-0.5082 -1.45016,-3.7514 -2.28693,-7.2072 -0.8367,-3.4558 -2.14353,-8.1127 -2.90402,-10.3488 l -1.38267,-4.0656 -3.49478,-0.4093 c -4.50912,-0.5281 -5.9102,-2.5495 -4.105,-5.9224 0.42083,-0.7865 1.50191,-1.435 2.4024,-1.4412 0.90042,-0.01 2.10191,-0.3056 2.66991,-0.6652 l 1.03274,-0.6539 -0.5235,-2.846 c -0.54295,-2.9521 -1.47071,-9.4589 -2.61899,-18.3691 -0.41883,-3.2496 -0.39635,-6.4043 0.0606,-8.4806 0.86102,-3.9146 4.53728,-9.0509 7.73113,-10.8016 l 2.27925,-1.2493 4.31295,0.3576 4.313,0.3577 2.0779,2.3256 c 2.6972,3.0187 3.3725,5.7691 2.013,8.1993 -1.6135,2.8847 -3.77,2.7851 -6.1095,-0.282 -4.15,-5.441 -9.31777,-1.9187 -9.31777,6.3508 0,3.7319 1.70252,16.3106 2.83734,20.9632 l 0.54087,2.2176 6.77046,0.212 6.7706,0.212 0.4275,1.3471 c 0.9127,2.8757 -1.1172,4.6358 -6.5143,5.6483 -1.4325,0.2687 -3.1352,1.0748 -3.7836,1.7914 l -1.179,1.3028 1.5286,6.2008 c 0.8409,3.4104 1.8486,7.2223 2.2395,8.4709 1.0503,3.3543 0.8912,4.3251 -1.0001,6.1018 -1.9245,1.8081 -3.6511,2.0545 -4.78724,0.6833 z"
       id="path8350" />
    <path
       style="fill:#000000"
       d="m 1615.6888,-2889.6193 c -1.866,-3.1626 -12.8625,-12.1202 -18.2224,-14.8437 -2.1508,-1.0929 -5.1446,-2.0238 -6.6528,-2.0687 l -2.7425,-0.082 0.1804,1.4784 c 0.099,0.8131 0.2424,3.7144 0.3182,6.4472 l 0.1377,4.9689 -1.3567,1.4991 c -1.8353,2.0281 -3.7968,1.886 -5.2833,-0.3826 l -1.2329,-1.8817 -0.3297,-9.0215 c -0.3372,-9.2274 -1.7945,-18.109 -5.1189,-31.1973 -1.0327,-4.0656 -2.3216,-9.3927 -2.8643,-11.8382 -0.5427,-2.4453 -1.3409,-5.3776 -1.7738,-6.5161 -0.4329,-1.1384 -0.787,-2.9797 -0.787,-4.0916 0,-3.9673 3.5208,-5.1392 5.6549,-1.8821 1.2739,1.9442 7.2222,23.9277 8.4828,31.3503 0.9206,5.4199 2.076,8.8704 2.9705,8.8704 2.9141,0 10.2421,-9.9905 10.2421,-13.9634 l 0,-1.5597 1.822,0 c 3.9894,0 4.1138,5.8336 0.2467,11.5635 -1.1868,1.7586 -2.3467,4.3609 -2.5775,5.783 l -0.4195,2.5857 1.3881,0.4779 c 3.0859,1.0623 9.4877,4.3592 11.2934,5.8158 1.0571,0.8528 2.6195,2.0367 3.472,2.631 0.8526,0.5944 3.1891,2.3052 5.1924,3.8021 l 3.6423,2.7215 0.9223,3.4482 0.9222,3.4482 -1.5549,2.5158 c -2.0263,3.2788 -4.0063,3.2527 -5.9718,-0.079 z"
       id="path8348" />
    <path
       style="fill:#000000"
       d="m 431.10164,-2889.5843 c -5.92471,-1.3243 -7.24444,-2.0842 -9.83805,-5.6646 -4.32494,-5.9704 -4.73898,-15.5936 -1.00273,-23.3059 l 2.09354,-4.3215 4.1739,-2.1107 4.1739,-2.1108 3.1483,0.532 3.1483,0.5319 2.46865,2.6876 c 1.35777,1.4782 2.47025,3.3738 2.47219,4.2125 0.005,2.1617 -3.72892,5.4975 -6.1536,5.4975 l -2.01065,0 -0.7026,-1.848 c -0.87662,-2.3058 -2.94925,-2.383 -4.95885,-0.1848 l -1.52054,1.6632 -0.34977,5.7986 -0.34977,5.7987 1.75255,2.0828 1.75255,2.0828 5.21895,0.8803 5.21894,0.8803 6.69786,-0.792 c 3.9874,-0.4715 7.20415,-1.2501 7.94896,-1.9241 1.83851,-1.6639 3.66364,-1.3817 4.45056,0.6881 0.91103,2.3962 -0.30862,5.8595 -2.42724,6.8925 -5.33627,2.6018 -18.24183,3.6349 -25.40535,2.0336 z"
       id="path8346" />
    <path
       style="fill:#000000"
       d="m 1714.2897,-2889.319 c -3.1669,-1.1715 -5.7829,-13.476 -6.4574,-30.3712 -0.4573,-11.4553 -1.9759,-26.0286 -3.0281,-29.0581 -2.1357,-6.1493 -0.9469,-9.5792 3.1572,-9.1086 l 2.0776,0.2382 1.4407,2.9524 1.4407,2.9525 0.9209,11.6909 c 0.5065,6.43 1.258,14.0827 1.6701,17.0059 0.4121,2.9233 1.0968,8.5737 1.5217,12.5566 0.8618,8.0794 2.575,12.3255 5.513,13.6641 l 1.9072,0.869 0,2.143 c 0,1.1785 -0.5166,2.5717 -1.1481,3.0957 -1.4811,1.2292 -7.0912,2.0815 -9.0155,1.3696 z"
       id="path8344" />
    <path
       style="fill:#000000"
       d="M 571.21875 218.0625 L 569.28125 218.3125 L 567.3125 218.53125 L 566.375 222.21875 L 565.40625 225.9375 L 566.46875 228.5 C 567.06364 229.9229 567.89436 233.06835 568.3125 235.46875 L 569.0625 239.84375 L 568.28125 240.8125 L 567.46875 241.78125 L 563.28125 241.34375 C 557.70429 240.76585 553.68122 241.9674 549.40625 245.5 C 544.98151 249.1564 544.00175 250.8977 543.96875 255.1875 L 543.9375 258.59375 L 546.15625 261.65625 C 548.926 265.47975 553.36117 268.3412 559.09375 270 C 561.53311 270.7058 564.79575 271.31475 566.34375 271.34375 C 569.58789 271.40445 575.3087 268.5382 577.625 265.6875 L 579.15625 263.8125 L 580.65625 264.28125 C 581.48558 264.54445 583.23063 266.10035 584.53125 267.71875 C 585.83187 269.33725 587.5189 270.65625 588.28125 270.65625 C 590.33609 270.65625 595.9296 266.07975 596.46875 263.96875 C 596.72625 262.96045 596.63828 261.55525 596.28125 260.84375 L 595.65625 259.5625 L 592.53125 259.5625 L 589.40625 259.5625 L 586.40625 256.0625 C 581.82395 250.6994 578.79977 244.7843 577.15625 238 C 573.93282 224.694 573.2423 222.15905 572.25 220.15625 L 571.21875 218.0625 z M 563.46875 248.5 C 567.57713 248.43442 571.25923 249.85879 572.8125 252.40625 C 574.81918 255.69725 574.61845 258.37305 572.1875 261.09375 L 570.15625 263.40625 L 566.84375 263.6875 C 565.02742 263.8402 563.04734 263.781 562.4375 263.5625 C 550.88267 259.4229 548.65462 252.77505 557.75 249.53125 C 559.62438 248.86275 561.6013 248.52981 563.46875 248.5 z "
       transform="translate(0,-3160.6299)"
       id="path8342" />
    <path
       style="fill:#000000"
       d="M 288 207.75 C 287.20783 207.79716 286.33872 208.40747 285.5 209.6875 L 284.28125 211.5625 L 284.75 216.40625 C 284.99824 219.06455 285.89566 223.73655 286.75 226.78125 L 288.28125 232.3125 L 287.125 234.09375 C 285.35301 236.79815 285.64399 240.52335 287.78125 242.53125 C 290.59558 245.17515 292.74466 258.89935 290.75 261.53125 C 289.33782 263.39465 289.40295 266.59045 290.90625 268.09375 L 292.15625 269.34375 L 295.90625 269 C 297.9628 268.8084 301.13923 269.0541 302.96875 269.5625 C 308.98349 271.2338 313.21722 269.7128 319.75 263.4375 C 323.50939 259.8264 324.70274 255.9769 323.96875 250.0625 L 323.46875 245.875 L 320.6875 243.3125 C 313.30058 236.4584 308.70027 234.08695 300.96875 233.21875 C 294.79514 232.52545 294.27812 232.12115 293.6875 227.21875 C 293.40569 224.87955 292.71699 221.83975 292.15625 220.46875 C 291.5955 219.09775 291.15625 216.53455 291.15625 214.78125 C 291.15625 210.29298 289.74277 207.64626 288 207.75 z M 299.53125 240.28125 C 302.95307 240.23967 310.7529 243.30495 314.25 246.3125 L 317.75 249.3125 L 317.75 252.3125 L 317.75 255.3125 L 314.53125 258.5625 L 311.3125 261.78125 L 307.90625 261.78125 L 304.53125 261.78125 L 302.53125 260.0625 L 300.53125 258.3125 L 299.9375 253.59375 C 299.62332 250.98405 298.85386 247.843 298.21875 246.625 C 296.69731 243.7071 296.74371 241.2999 298.34375 240.5 C 298.62853 240.35766 299.04242 240.28719 299.53125 240.28125 z "
       transform="translate(0,-3160.6299)"
       id="path8338" />
    <path
       style="fill:#000000"
       d="M 2798.4375 214.21875 C 2796.2937 214.21834 2794.1196 214.48309 2792.1562 215.0625 C 2785.5042 217.0254 2779.9653 223.4471 2779.4375 229.8125 L 2779.0938 233.71875 L 2781.125 236.625 L 2783.1562 239.5625 L 2787.3125 241.125 C 2790.0615 242.1661 2793.3708 242.7475 2797.0312 242.8125 L 2802.5625 242.90625 L 2806.875 240.8125 C 2809.2467 239.6521 2811.4452 238.99205 2811.75 239.34375 C 2812.0549 239.69545 2812.9127 241.62345 2813.6562 243.65625 C 2814.3998 245.68905 2816.0205 249.2015 2817.25 251.4375 L 2819.5 255.5 L 2819.3125 262.28125 L 2819.1562 269.0625 L 2820.4688 269.84375 C 2822.7425 271.16715 2824.7762 270.725 2826.375 268.5625 C 2827.7913 266.6468 2838.8513 260.65015 2843.5938 259.21875 C 2847.7355 257.96865 2849.4131 254.4465 2846.5938 252.9375 C 2844.3881 251.757 2841.8931 252.02155 2835.9062 254.03125 C 2830.2088 255.94385 2826.5938 256.36395 2826.5938 255.15625 C 2826.5938 254.77335 2825.3196 251.72145 2823.75 248.34375 C 2820.0922 240.47225 2817 229.2676 2817 223.9375 C 2817 221.782 2814.0278 218.90625 2811.8125 218.90625 C 2811.104 218.90625 2810.0909 218.3867 2809.5625 217.75 C 2807.7128 215.52126 2803.1538 214.21965 2798.4375 214.21875 z M 2798.1875 221.15625 C 2800.1668 221.08466 2802.0774 221.40338 2803.5938 222.1875 L 2805.625 223.25 L 2806.5 227.09375 L 2807.4062 230.96875 L 2806.0938 232.40625 C 2805.3762 233.19925 2803.9113 234.3068 2802.8125 234.875 C 2799.5521 236.561 2791.1831 235.79175 2787.5938 233.46875 C 2786.4079 232.70125 2786.4281 228.678 2787.625 226.3125 C 2789.1332 223.33184 2793.8331 221.31374 2798.1875 221.15625 z "
       transform="translate(0,-3160.6299)"
       id="path8332" />
    <path
       style="fill:#000000"
       d="M 178.71875 225.71875 C 176.07987 225.5597 173.352 226.62495 169.15625 229.34375 C 165.11834 231.96015 162.83934 234.8768 159.78125 241.4375 L 157.71875 245.875 L 157.75 249.6875 C 157.82785 258.0056 162.89385 263.22575 171.4375 263.84375 C 176.75813 264.22855 185.70543 262.27305 189.3125 259.90625 C 190.82839 258.91165 192.30629 258.09375 192.59375 258.09375 C 192.88123 258.09375 194.66008 259.3958 196.5625 261 C 199.78628 263.7184 201.75164 264.88675 208.34375 267.90625 C 211.33994 269.27865 215.5584 269.4966 218.34375 268.4375 L 220.28125 267.6875 L 220.03125 265.28125 L 219.8125 262.875 L 213.53125 260.71875 L 207.25 258.53125 L 202.4375 253.59375 C 199.78358 250.87595 197.16929 247.69775 196.625 246.53125 C 193.66869 240.19565 192.1586 237.72565 189.3125 234.46875 C 187.58463 232.49145 186.1875 230.5381 186.1875 230.125 C 186.1875 228.8567 182.47572 226.3688 179.84375 225.875 C 179.46598 225.80412 179.09573 225.74147 178.71875 225.71875 z M 177.5 232.03125 L 180.40625 232.4375 C 181.99203 232.6503 184.14606 233.3801 185.1875 234.0625 L 187.0625 235.3125 L 186.5 237.28125 C 186.19176 238.36335 186.0055 241.21695 186.0625 243.65625 C 186.11947 246.09565 185.96447 249.1774 185.75 250.5 L 185.375 252.90625 L 182.375 254.4375 C 180.67912 255.3026 177.23256 256.1354 174.375 256.375 L 169.3125 256.8125 L 167.40625 253.75 C 165.09792 250.0934 165.02907 248.27805 166.96875 243.09375 C 168.42935 239.18995 171.23598 235.9455 175.375 233.375 L 177.5 232.03125 z "
       transform="translate(0,-3160.6299)"
       id="path8328" />
    <path
       style="fill:#000000"
       d="m 2032.4555,-2894.0244 c -0.6575,-0.6576 -1.5168,-2.428 -1.9095,-3.9343 -2.3717,-9.0976 -3.1528,-12.6091 -4.5672,-20.5323 -2.3604,-13.223 -2.3915,-13.5494 -1.4023,-14.7414 0.5015,-0.6042 1.664,-1.0986 2.5835,-1.0986 l 1.6716,0 1.5289,3.8808 c 0.841,2.1345 1.6281,4.7124 1.7491,5.7288 0.4005,3.3628 2.8551,2.6787 7.907,-2.2036 4.4695,-4.3194 9.2236,-7.406 11.4071,-7.406 0.5734,0 2.333,1.3303 3.9102,2.9562 1.5773,1.6258 3.3187,2.9564 3.8698,2.9568 0.5512,3e-4 1.9905,-0.831 3.1984,-1.8474 l 2.1962,-1.848 2.9459,0 c 3.1709,0 10.036,2.879 11.8958,4.9887 1.8924,2.1467 8.4069,15.1586 8.9486,17.8738 0.2781,1.394 0.2913,4.1503 0.03,6.1252 -0.5145,3.8782 -2.139,5.4631 -4.75,4.6344 -1.5474,-0.4911 -3.66,-3.9106 -3.66,-5.9241 0,-0.6624 -0.8568,-3.4231 -1.9041,-6.1351 -1.0472,-2.712 -2.2221,-5.7625 -2.6109,-6.7789 -0.3887,-1.0164 -2.0534,-2.9703 -3.6992,-4.342 l -2.9925,-2.494 -1.7106,0.7795 c -2.2797,1.0386 -5.6504,8.2476 -5.5178,11.8009 0.1453,3.8945 -1.1819,9.8438 -2.3692,10.619 -0.5511,0.36 -2.1663,0.5676 -3.5892,0.4615 l -2.5872,-0.1929 -0.066,-5.544 c -0.1051,-8.7342 -1.1597,-17.0135 -2.3145,-18.1682 l -1.0499,-1.05 -3.1454,2.164 c -4.1547,2.8585 -11.534,10.8788 -11.534,12.5358 0,0.7211 0.84,2.9475 1.8667,4.9475 2.3241,4.5278 3.0433,9.0917 1.7024,10.8032 -1.484,1.8939 -4.6107,2.4044 -6.0305,0.9847 z"
       id="path8324" />
    <path
       style="fill:#000000"
       d="m 1250.2358,-2897.4125 c -0.6425,-1.2424 -1.4597,-5.3173 -1.8161,-9.0552 -0.7914,-8.3021 -2.548,-16.3949 -4.0592,-18.7013 -0.6191,-0.9449 -1.8453,-2.1031 -2.7248,-2.5738 l -1.5991,-0.8558 -3.8998,0.8727 c -7.4107,1.6585 -9.3391,4.9652 -7.6091,13.0482 0.5145,2.4039 0.9127,5.8438 0.8849,7.6442 l -0.05,3.2734 -1.3789,1.0083 c -2.1415,1.5659 -4.8404,0.8603 -6.2797,-1.6416 -0.7503,-1.3041 -1.4652,-4.6536 -1.7356,-8.1312 -0.4904,-6.3056 -3.4666,-23.5632 -5.2338,-30.3479 -0.587,-2.2534 -1.0671,-4.7876 -1.0671,-5.6316 0,-0.8441 -0.8669,-3.4664 -1.9264,-5.8273 l -1.9263,-4.2925 0.6906,-2.0831 c 0.9339,-2.8166 3,-2.956 6.8131,-0.4594 l 3.1532,2.0644 -0.3688,3.272 c -0.3611,3.2039 0.991,13.6108 2.3539,18.117 0.3781,1.2503 0.89,3.188 1.1375,4.306 l 0.4501,2.0328 1.5491,0 c 0.852,0 3.0909,-0.8021 4.9755,-1.7825 4.8396,-2.5177 7.9222,-3.3919 11.9609,-3.3919 l 3.5091,0 2.2609,2.575 c 2.235,2.5455 2.6219,3.5506 4.9829,12.9482 4.0565,16.1454 4.9304,23.1649 3.1104,24.9849 -0.4879,0.4879 -1.8099,0.8871 -2.9378,0.8871 l -2.0508,0 -1.1682,-2.2591 z"
       id="path8322" />
    <path
       style="fill:#000000"
       d="M 2438.1562 226.75 L 2428.625 226.90625 L 2419.0938 227.0625 L 2416.4062 228.59375 C 2412.7881 230.65145 2411.2927 232.88715 2409.625 238.71875 C 2407.1033 247.53675 2407.8724 251.7686 2412.7812 256.3125 C 2415.605 258.9265 2419.9359 260.663 2427.1875 262.125 C 2429.9722 262.6869 2433.0774 262.98305 2434.0938 262.78125 C 2437.9029 262.02485 2442.8704 258.05755 2445.2812 253.84375 L 2447.625 249.71875 L 2447.9688 244.46875 L 2448.3125 239.21875 L 2445.9688 234.3125 L 2443.6562 229.40625 L 2440.9062 228.09375 L 2438.1562 226.75 z M 2423.5312 235.53125 C 2425.2719 235.53431 2427.555 235.60295 2429.9062 235.71875 L 2438.4375 236.125 L 2438.8438 237.1875 C 2439.068 237.7721 2439.459 240.54975 2439.7188 243.34375 C 2440.3022 249.62205 2439.3049 252.48525 2436.125 253.59375 C 2434.883 254.02665 2433.3383 254.33 2432.6875 254.25 C 2432.0367 254.1704 2429.3302 253.99055 2426.6875 253.84375 L 2421.875 253.5625 L 2418.9375 251.5 L 2415.9688 249.46875 L 2416.125 245.65625 C 2416.2924 241.65755 2418.4972 236.3721 2420.2812 235.6875 C 2420.5709 235.57645 2421.7906 235.52819 2423.5312 235.53125 z "
       transform="translate(0,-3160.6299)"
       id="path8320" />
    <path
       style="fill:#000000"
       d="m 2341.7575,-2900.0332 c -0.8319,-1.0576 -1.7181,-3.1366 -1.9692,-4.62 -0.2512,-1.4834 -0.757,-3.8612 -1.1242,-5.2842 -0.367,-1.423 -0.6693,-3.785 -0.6715,-5.2489 -0.01,-4.2685 -1.3848,-7.1364 -4.293,-8.9338 -1.4738,-0.9109 -3.2739,-2.2504 -4.0002,-2.9767 -1.7137,-1.7138 -4.0654,-1.6696 -7.0198,0.1317 -3.8502,2.3476 -6.1033,6.5209 -7.1921,13.3212 -0.5335,3.3316 -1.4583,6.5458 -2.0551,7.1426 -1.3394,1.3394 -4.691,0.6565 -5.4001,-1.1005 -0.479,-1.1868 -2.1232,-12.4663 -3.0372,-20.8369 l -0.4463,-4.0871 1.1872,-0.9852 c 1.7833,-1.4801 3.3343,-0.4708 4.9744,3.2369 0.8114,1.8343 1.7725,3.3351 2.1359,3.3351 0.3633,0 2.0905,-1.6958 3.8381,-3.7684 3.4687,-4.1136 5.5356,-5.4508 9.6055,-6.2143 l 2.6647,-0.4999 4.3321,3.8375 c 8.6658,7.6762 9.8421,8.8699 11.0841,11.2477 1.2559,2.4047 2.862,9.9419 3.7101,17.4119 l 0.4433,3.9041 -1.3168,1.4551 c -1.7964,1.9849 -3.6454,1.8262 -5.4499,-0.4679 z"
       id="path8316" />
    <path
       id="path8312"
       style="fill:#000000"
       d="m 1483.7916,-2943.5473 -1.1953,-1.8243 0.6705,-2.0115 c 0.3688,-1.1063 1.5244,-2.649 2.5681,-3.4282 l 1.8976,-1.4169 2.2343,0.4908 c 2.7985,0.6146 4.2777,3.6359 3.186,6.5072 -0.8851,2.3282 -2.8743,3.5072 -5.9167,3.5072 l -2.2491,0 -1.1954,-1.8243 z m 8.1313,92.1277 c -9.215,-3.7736 -17.0301,-13.2513 -13.4065,-16.2586 l 0.9554,-0.793 4.7734,3.0737 c 6.4252,4.1373 10.0015,5.7232 12.9061,5.7232 2.7968,0 3.3248,-0.8828 3.3248,-5.5591 0,-3.6605 -3.4216,-24.2863 -4.334,-26.1259 -0.3299,-0.6651 -1.0051,-3.2051 -1.5005,-5.6445 -3.2978,-16.2394 -5.0562,-22.5456 -6.2865,-22.5456 -0.5267,0 -2.0065,0.5234 -3.2887,1.163 -1.2822,0.6396 -2.9019,1.0531 -3.5993,0.9188 -1.8358,-0.3536 -3.4818,-3.6835 -2.9225,-5.9122 l 0.4719,-1.88 4.3963,-1.9066 c 5.1042,-2.2136 8.9484,-3.0608 10.9732,-2.4182 2.017,0.6402 3.0474,3.3326 4.2365,11.0703 1.3191,8.5821 2.0568,12.3096 4.3308,21.8801 2.2652,9.5336 4.7193,23.7074 5.3336,30.8038 l 0.4588,5.3016 -1.2072,4.1526 -1.2072,4.1527 -1.634,0.6108 c -0.8988,0.336 -3.4636,0.794 -5.6996,1.018 l -4.0656,0.4073 -3.0092,-1.2322 z" />
    <path
       id="path8304"
       style="fill:#000000"
       d="m 1378.2101,-2997.7866 c -0.2559,-0.4139 -0.1049,-0.9752 0.3353,-1.2472 1.1365,-0.7024 1.8698,0.2597 0.921,1.2085 -0.5309,0.5309 -0.9443,0.5436 -1.2563,0.038 z m -15.0096,60.5619 c -6.1209,-0.7439 -10.0661,-4.346 -8.5072,-7.7672 1.131,-2.4825 3.7946,-2.5032 7.3938,-0.058 1.4958,1.0164 3.2336,1.848 3.8619,1.848 1.9764,0 4.4281,2.2304 4.4281,4.0284 0,1.5294 -1.4428,2.8131 -2.8325,2.5203 -0.2717,-0.057 -2.2265,-0.3146 -4.3441,-0.572 z m 3.8082,46.4357 c -0.2579,-0.4173 -0.4557,-2.4625 -0.4395,-4.5449 0.035,-4.5845 -2.4282,-17.2792 -3.6358,-18.7343 -1.2216,-1.4719 -2.7339,-1.3008 -3.8159,0.4319 -1.7923,2.87 -7.9596,0.8278 -7.9596,-2.6358 0,-3.0758 3.9753,-6.0464 11.2366,-8.3967 4.002,-1.2953 5.1852,-0.3045 7.1486,5.9869 0.9295,2.9783 2.1413,6.7457 2.693,8.3719 0.5516,1.6263 1.5297,4.7855 2.1736,7.0204 l 1.1707,4.0637 -0.8159,3.9298 c -0.4487,2.1614 -1.2036,4.0462 -1.6776,4.1884 -2.7427,0.8229 -5.6717,0.9765 -6.0782,0.3187 z" />
    <path
       style="fill:#000000"
       d="m 989.45857,-3044.2098 c -1.0463,-1.0463 -0.4542,-2.4794 1.0244,-2.4794 1.0334,0 1.4547,0.4015 1.2936,1.2323 -0.2638,1.3605 -1.5257,2.0394 -2.318,1.2471 z"
       id="path8300" />
  </g>
</svg>
