<?xml version="1.0" encoding="UTF-8" standalone="no"?>
<!-- Created with Inkscape (http://www.inkscape.org/) -->

<svg
   xmlns:dc="http://purl.org/dc/elements/1.1/"
   xmlns:cc="http://creativecommons.org/ns#"
   xmlns:rdf="http://www.w3.org/1999/02/22-rdf-syntax-ns#"
   xmlns:svg="http://www.w3.org/2000/svg"
   xmlns="http://www.w3.org/2000/svg"
   xmlns:sodipodi="http://sodipodi.sourceforge.net/DTD/sodipodi-0.dtd"
   xmlns:inkscape="http://www.inkscape.org/namespaces/inkscape"
   width="2000"
   height="2000"
   id="svg2"
   version="1.1"
   inkscape:version="0.48.4 r9939"
   sodipodi:docname="board6x6.svg"
   inkscape:export-filename="/home/nathan/documents/bee_line/svgs/board6x6.png"
   inkscape:export-xdpi="46.080002"
   inkscape:export-ydpi="46.080002">
  <defs
     id="defs4" />
  <sodipodi:namedview
     id="base"
     pagecolor="#ffffff"
     bordercolor="#666666"
     borderopacity="1.0"
     inkscape:pageopacity="1"
     inkscape:pageshadow="2"
     inkscape:zoom="0.2805"
     inkscape:cx="1000"
     inkscape:cy="1000"
     inkscape:document-units="px"
     inkscape:current-layer="layer1"
     showgrid="false"
     inkscape:window-width="1276"
     inkscape:window-height="782"
     inkscape:window-x="0"
     inkscape:window-y="14"
     inkscape:window-maximized="0" />
  <metadata
     id="metadata7">
    <rdf:RDF>
      <cc:Work
         rdf:about="">
        <dc:format>image/svg+xml</dc:format>
        <dc:type
           rdf:resource="http://purl.org/dc/dcmitype/StillImage" />
        <dc:title></dc:title>
      </cc:Work>
    </rdf:RDF>
  </metadata>
  <g
     inkscape:label="Layer 1"
     inkscape:groupmode="layer"
     id="layer1"
     transform="translate(0,947.63782)">
    <path
       style="fill:#000000;stroke:none"
       d="M 639.90625 203.28125 C 636.66117 203.23741 633.42701 203.30418 630.1875 203.5 C 603.05979 206.23097 575.7206 204.74775 548.53125 206.625 C 516.76822 208.13852 484.96522 208.54185 453.1875 208.46875 C 440.13359 206.62208 426.8595 209.11025 413.65625 207.78125 C 407.42611 206.88145 401.15567 204.62372 394.8125 206.53125 C 374.35869 207.51161 353.84083 205.84131 333.40625 207.375 C 324.39357 206.72384 315.19842 206.34342 306.46875 208.375 C 291.4364 207.82265 276.17266 209.18071 261.34375 206.5625 C 253.73313 207.20784 246.04128 206.90169 238.59375 208.5 C 229.26989 208.86702 219.8312 208.65497 210.6875 209.21875 C 203.04593 211.52705 201.57316 221.31799 203.46875 228.0625 C 204.53901 242.05042 199.69682 256.50918 203.25 270.4375 C 203.62961 281.41855 202.14627 292.34907 203.65625 303.28125 C 203.09092 324.09629 207.51065 344.9377 204.78125 365.6875 C 206.50329 381.48121 204.01879 397.14614 204.125 413 C 203.56825 457.57393 202.77887 502.19877 204.40625 546.75 C 204.47565 565.06053 202.08843 583.59784 203.5625 601.75 C 206.17121 610.81772 203.22204 620.50023 203.9375 629.8125 C 204.94274 663.46746 205.70423 697.11493 204.46875 730.78125 C 204.84502 739.65717 204.02946 748.47425 204.46875 757.28125 C 205.88169 762.38668 204.82196 767.3695 203.25 772.25 C 202.4016 780.09902 205.80885 788.13284 202.34375 795.625 C 200.93756 801.27772 205.01418 806.12206 203.75 811.875 C 203.31775 835.78686 201.91951 859.7645 204.28125 883.625 C 204.70896 893.49245 201.97707 904.0186 204.53125 913.5 C 206.04844 918.35952 203.27075 924.09188 204.28125 929.34375 C 204.28825 952.05388 205.8119 975.04846 201.125 997.375 C 200.85506 1000.8898 201.54421 1005.0993 204.75 1007.125 C 207.35793 1032.2519 204.30194 1057.6162 205.28125 1082.6875 C 207.01616 1088.1808 206.10751 1094.091 203.875 1099.2812 C 203.19347 1106.8358 204.35746 1114.4643 203.96875 1122.0625 C 204.80884 1132.0663 201.76048 1141.7257 203.65625 1151.5938 C 204.53537 1171.344 202.551 1191.0836 202.21875 1210.8125 C 200.05411 1215.0515 204.18657 1217.7322 205.25 1221.1562 C 204.05527 1236.6962 205.16061 1252.5867 205.65625 1268.1875 C 204.84714 1287.289 204.15224 1306.6266 203.4375 1325.5938 C 204.308 1327.5717 207.37334 1328.5756 204.625 1330.4688 C 199.4373 1340.1514 204.99022 1351.3541 203.28125 1361.6875 C 202.24597 1367.4591 204.6079 1374.248 200.5 1379.0312 C 198.44068 1384.3966 201.86059 1390.1606 201.1875 1395.7812 C 204.2002 1438.9343 200.12523 1482.2951 202.40625 1525.4375 C 200.29391 1529.7529 198.71789 1534.4836 200.6875 1539.25 C 202.40952 1544.4371 197.52321 1548.2866 199.09375 1553.4375 C 199.99355 1571.0147 202.89664 1588.7419 200.75 1606.375 C 200.93564 1609.4544 205.93675 1610.2373 204 1613.625 C 203.50718 1626.5062 204.94373 1639.2514 204.1875 1652.0938 C 204.52367 1670.2114 204.84068 1688.5154 203.34375 1706.5312 C 200.41491 1719.3465 201.34994 1732.7305 199.75 1745.5625 C 199.33542 1750.4124 202.26994 1756.2179 199.75 1760.5 C 195.90283 1764.5389 198.2479 1771.0691 202.25 1773.9688 C 204.29343 1778.8589 210.20266 1780.37 212.25 1785.4688 C 217.77545 1792.6498 228.16626 1789.0413 235.875 1790.5625 C 261.44738 1791.8701 287.05032 1790.1682 312.59375 1789.6562 C 318.96747 1789.238 325.48549 1792.8713 331.6875 1791.25 C 333.71223 1789.9108 335.02632 1787.3161 337.90625 1788.5938 C 354.52624 1788.1339 371.3033 1791.7608 387.78125 1790 C 390.7327 1788.7798 389.54777 1783.2962 394.03125 1786.0625 C 412.52779 1789.3418 431.75157 1784.9152 449.96875 1790.4062 C 467.96488 1791.8007 485.97992 1793.7034 503.9375 1795.0625 C 508.0471 1794.0077 511.27796 1790.388 515.90625 1792.3438 C 533.63471 1792.6165 551.35352 1790.7941 569.09375 1792.125 C 584.63295 1792.7641 600.55446 1793.0218 615.90625 1792 C 619.62845 1794.906 624.1153 1794.7344 628.53125 1794.0938 C 646.8719 1794.26 665.24792 1796.2793 683.53125 1793.7812 C 698.73647 1792.4848 714.06043 1793.7482 729.21875 1793.9062 C 732.80306 1791.9232 736.52114 1791.6296 740.4375 1792.5938 C 748.88632 1792.5132 756.55298 1795.9053 765.0625 1794.375 C 783.22348 1793.5535 801.45588 1793.3711 819.59375 1793.8125 C 823.00896 1792.6109 826.4415 1791.0733 830 1792.7188 C 840.1696 1794.6812 850.76665 1789.9679 860.65625 1792.2812 C 867.86169 1796.1178 876.38515 1793.2077 884.15625 1794.125 C 889.3798 1793.344 894.76653 1793.691 899.5 1795.7188 C 911.79238 1795.5861 923.97202 1793.4374 936.3125 1793.9375 C 949.43425 1793.2729 962.5359 1792.9741 975.65625 1793.1875 C 981.22109 1791.9281 986.81758 1794.4245 992.4375 1792.7188 C 1008.5809 1792.0471 1025.0792 1792.9117 1041.3438 1792.4375 C 1063.4171 1792.2947 1085.5167 1792.0781 1107.5312 1791.0312 C 1111.9587 1790.5733 1114.7243 1795.877 1119.5 1794.5312 C 1123.7057 1793.7659 1126.7639 1790.2023 1131.5 1791.0938 C 1143.4863 1793.1274 1155.8244 1792.7211 1168.0312 1793.125 C 1177.3462 1793.835 1186.4588 1796.1317 1195.9062 1794.6562 C 1201.9693 1794.58 1208.4636 1793.2108 1213.9688 1796.0625 C 1224.1264 1797.0627 1234.3285 1794.0609 1244.5625 1794.5 C 1262.7597 1794.3515 1280.9087 1792.6899 1299.0625 1794.6875 C 1307.6178 1794.6051 1316.6193 1796.3324 1324.9688 1794.3438 C 1328.2973 1791.7855 1332.1417 1791.1989 1336.125 1792.625 C 1355.5141 1794.7558 1374.9817 1791.2861 1394.4062 1793.2188 C 1403.3588 1793.1324 1412.7086 1794.9598 1421.4688 1793.4375 C 1423.3528 1791.9441 1423.9418 1789.8288 1426.9375 1791.125 C 1444.4756 1790.0306 1461.9361 1791.982 1479.4688 1791.4062 C 1490.3559 1791.5965 1501.4502 1792.7654 1512.1562 1790.7188 C 1524.4796 1792.0268 1536.478 1788.6645 1548.8125 1789.8125 C 1559.0408 1789.7512 1569.2043 1791.9628 1579.2812 1792.2812 C 1583.0792 1790.7879 1586.8177 1789.3191 1590.9062 1789.7812 C 1605.8726 1788.9101 1620.8635 1790.7025 1635.8438 1790.5 C 1658.8742 1791.5597 1681.9614 1790.6147 1704.9688 1790.8125 C 1715.4952 1792.4042 1726.2266 1793.4817 1736.8438 1791.8125 C 1749.3019 1791.7094 1762.1442 1793.2208 1774.2188 1789.875 C 1779.6035 1790.3175 1784.4809 1784.5559 1782.6875 1779.4062 C 1785.5722 1773.7489 1782.2722 1766.2441 1787.0625 1761.5312 C 1789.8645 1754.4912 1786.0023 1747.0161 1787.3125 1739.6875 C 1787.8144 1733.435 1786.2894 1727.3748 1784.3438 1721.625 C 1783.7936 1710.9814 1785.3709 1700.0743 1783.2812 1689.625 C 1783.2952 1679.3214 1784.3052 1668.7772 1782.9062 1658.625 C 1786.3788 1650.1513 1781.2917 1640.6469 1785.2812 1632.4062 C 1785.6652 1625.0409 1784.0136 1617.7662 1784.9375 1610.4062 C 1784.9215 1586.9919 1785.2106 1563.541 1786.7188 1540.2188 C 1786.3151 1529.7815 1785.0888 1519.1971 1787.5 1509.0312 C 1786.5345 1501.4716 1785.9369 1494.0429 1786.1562 1486.375 C 1784.9642 1455.2352 1785.8124 1424.0373 1785.4375 1392.9062 C 1784.5687 1385.7161 1785.4796 1378.4942 1788.625 1372.0312 C 1790.0121 1368.29 1787.0779 1365.1778 1786.375 1362 C 1786.9694 1357.6192 1790.1167 1354.3552 1789 1349.625 C 1789.5861 1331.4076 1788.0097 1312.9025 1790.0312 1294.875 C 1792.919 1287.6186 1790.485 1279.5613 1790.9688 1271.9688 C 1791.1084 1266.705 1789.4252 1260.3489 1791.5938 1255.625 C 1795.3635 1252.6666 1795.6683 1245.1953 1790.4375 1243.625 C 1789.8042 1235.4246 1792.6297 1226.933 1790.625 1218.9375 C 1786.4748 1212.1846 1789.9325 1203.7157 1789.2812 1196.1875 C 1789.755 1187.4491 1788.855 1178.6116 1786.4062 1170.3125 C 1788.0823 1166.3519 1788.7305 1162.1968 1787.75 1158 C 1788.2096 1151.5356 1789.5114 1145.3981 1788.25 1138.875 C 1787.331 1121.1124 1792.0139 1103.1322 1789.5312 1085.5625 C 1785.9497 1079.9296 1791.1106 1072.5603 1787.5 1066.6875 C 1783.7217 1062.1362 1786.2947 1056.9736 1788.1875 1052.4062 C 1787.5525 1039.9511 1786.465 1027.3092 1787.0938 1014.75 C 1787.554 996.29791 1788.1964 977.34858 1785.5625 959.25 C 1791.6526 955.9971 1788.2794 947.55281 1787.5938 942.0625 C 1785.7607 925.18792 1786.8986 908.05631 1787.7812 891.25 C 1784.599 884.29744 1787.9214 876.5321 1787 869.1875 C 1787.3837 855.01157 1789.1496 840.81842 1788.6562 826.6875 C 1793.3403 820.97501 1791.0239 813.17913 1790.9375 806.375 C 1790.9895 784.97216 1791.2103 763.52067 1792.4688 742.125 C 1788.1945 735.12347 1791.6462 726.51043 1790.375 718.78125 C 1789.8253 698.73247 1789.8373 678.47146 1791.1875 658.5625 C 1789.9953 655.66566 1786.4888 653.63727 1788.1875 650.15625 C 1790.3512 620.67931 1788.28 590.90667 1791.3438 561.5625 C 1793.8985 547.91377 1791.8355 533.80562 1792.9062 519.96875 C 1793.6285 486.27931 1796.2498 452.58875 1794.4062 418.90625 C 1794.5085 387.65696 1797.665 356.48053 1797.0625 325.21875 C 1798.2158 306.88567 1799.7254 288.43896 1799.0625 270.125 C 1799.5641 261.28161 1800.6615 252.27739 1800.7812 243.59375 C 1798.8472 237.86253 1797.445 231.71474 1798.5 225.71875 C 1797.8089 221.99149 1792.6535 221.32921 1793.2812 217.03125 C 1792.2202 213.08361 1794.0796 207.22417 1788.9375 205.53125 C 1783.3467 203.26422 1778.6333 208.79051 1772.9688 207.28125 C 1751.4028 207.81985 1729.8661 206.03818 1708.2812 206.03125 C 1711.1787 210.44673 1708.0232 209.23926 1705.0312 208.84375 C 1695.7387 208.62029 1686.1979 208.09633 1677.375 211.34375 C 1659.7641 211.40755 1641.7548 209.85023 1624.0312 211.0625 C 1612.9169 211.7737 1601.1287 213.98952 1590.4375 210.375 C 1584.1038 210.21602 1577.992 212.47967 1571.625 211.90625 C 1563.5886 213.27846 1556.2886 209.33592 1548.2188 210.5625 C 1528.2022 210.37121 1508.07 211.26967 1488.125 210.53125 C 1482.6929 208.13697 1477.1088 210.65962 1471.4688 209.4375 C 1450.9233 208.8607 1430.3235 208.90176 1409.875 206.71875 C 1398.397 205.92275 1386.7179 206.13121 1375.7188 209.1875 C 1359.3334 207.96255 1342.4841 211.25042 1326.4062 207.46875 C 1320.8519 208.36911 1315.602 208.83934 1310 208.40625 C 1300.5115 208.63533 1290.6858 207.05658 1281.4062 208.375 C 1279.2942 210.31136 1277.6111 212.48726 1274.375 211.1875 C 1259.8057 211.0971 1245.0738 209.89248 1230.5938 210.46875 C 1227.6561 206.27027 1221.5312 204.30534 1217.2812 207.78125 C 1215.014 211.28539 1210.4911 210.26361 1207.5938 213.15625 C 1202.9797 214.20004 1197.4842 211.46776 1192.5 212.875 C 1166.1794 210.13514 1139.3406 209.31801 1113.2188 213.40625 C 1097.7448 214.70321 1082.3578 212.54447 1066.9062 214.40625 C 1063.1356 215.00981 1059.9076 214.69015 1057.5625 211.625 C 1052.4908 208.32278 1046.4691 212.10909 1040.9062 211.03125 C 1007.6464 212.37257 974.42788 209.00623 941.15625 209.3125 C 912.56545 208.62474 883.98383 209.48621 855.40625 210 C 833.27392 208.58934 811.10741 208.57499 788.9375 209.25 C 783.33251 208.95138 776.71989 209.90287 771.65625 208.53125 C 769.99799 204.01841 763.70814 202.06057 759.90625 205.15625 C 750.65012 206.65772 741.2512 208.87844 732 205.9375 C 722.20416 204.03087 711.97116 203.89233 702.25 205.5625 C 691.2495 203.84759 680.18294 204.23546 669.125 204.53125 C 659.39707 204.37803 649.6415 203.41276 639.90625 203.28125 z M 671.1875 219.90625 C 682.86986 220.19335 694.55766 224.1188 706.21875 221.6875 C 716.97962 224.38492 727.94785 225.63477 739.03125 224.78125 C 746.24606 223.72539 753.0346 225.71069 759.8125 227.5 C 767.42347 227.5282 774.77079 225.86132 782.375 227.03125 C 793.54863 227.66977 805.2556 226.38293 816.125 228.71875 C 822.65856 232.84856 829.85371 226.93249 836.8125 228.40625 C 857.36435 228.08876 878.01483 228.07632 898.5 227.0625 C 910.46201 229.771 922.93063 227.08524 935.03125 229.28125 C 949.53085 229.942 964.03618 229.04677 978.5625 229.4375 C 995.00881 229.69694 1011.4582 227.32582 1027.8125 229.875 C 1029.8693 230.9107 1035.4292 228.20147 1034.3438 231.84375 C 1034.1434 233.69496 1036.7269 236.51006 1033.25 235.5 C 1012.0931 236.33395 990.97213 237.74195 969.78125 237.90625 C 943.80871 238.87944 917.80835 237.96597 891.90625 236.09375 C 885.13605 235.78127 879.24415 239.44116 872.40625 238.1875 C 852.10865 237.78873 831.72856 236.16084 811.5 235.8125 C 798.67007 232.04105 784.9402 233.95961 771.71875 232.90625 C 759.62919 232.43332 746.90997 233.82912 735.1875 231.25 C 726.05036 226.80143 715.63648 231.43467 705.90625 229.8125 C 695.38044 228.42929 684.80446 230.05027 674.28125 228.21875 C 668.9909 228.43448 662.25961 226.62351 657.96875 230.25 C 657.04961 232.23469 656.64814 233.4243 654.15625 232.40625 C 635.86193 233.10461 617.46124 233.65308 599.21875 233.625 C 583.57961 237.16937 567.28443 234.60754 551.40625 235.96875 C 541.76372 234.16426 531.8343 234.98524 522.1875 234.90625 C 514.31545 230.92234 505.17164 235.28714 496.6875 233.625 C 480.10119 233.14738 463.42455 232.73115 446.875 232.4375 C 443.19209 233.82967 439.56925 235.04743 435.625 234.21875 C 411.45859 234.83116 387.26239 234.3418 363.125 235.875 C 337.99862 236.4255 312.68468 234.08994 287.6875 236.21875 C 285.98261 238.24589 284.15941 239.0321 281.5625 237.78125 C 276.72569 234.96379 271.5099 234.98478 266.1875 235.75 C 257.26256 235.3752 247.64705 233.45589 239.0625 236.375 C 232.50331 240.16673 237.88773 248.43945 237.3125 254.28125 C 238.46558 269.66572 234.6316 284.99345 234.65625 300.21875 C 236.94149 311.70063 232.60012 323.73608 235.78125 335.28125 C 238.1208 354.71659 236.15011 374.5009 234.5 393.90625 C 235.16131 405.09467 234.6096 416.19398 235.09375 427.40625 C 233.59036 441.60874 231.72376 455.96127 232.90625 470.28125 C 238.2023 472.9889 233.78946 479.82568 235.15625 484.34375 C 234.8513 499.60646 235.34346 515.19752 230.65625 529.8125 C 230.69415 543.87489 233.85876 557.86941 231.9375 571.96875 C 231.9897 576.7969 230.66551 582.79992 234.375 586.03125 C 233.36706 606.24174 230.92232 626.62888 231.65625 646.875 C 235.42798 653.07573 229.05483 660.32944 232.75 666.71875 C 235.01641 673.11692 232.44326 680.75292 232.625 687.625 C 231.8834 700.80649 229.75209 714.06094 229.59375 727.1875 C 229.91265 731.17899 235.25994 732.27156 233.5625 736.625 C 233.35801 752.78091 232.67106 768.95521 233.78125 785.09375 C 239.13433 788.92488 234.80633 796.3457 236.4375 801.71875 C 237.12314 822.05696 233.07789 842.58659 236.53125 862.71875 C 237.03147 882.73902 235.59277 902.75015 236.53125 922.78125 C 236.83257 935.90425 234.02012 948.86473 235.46875 962 C 235.77151 966.76217 235.54274 971.32785 233.09375 975.34375 C 232.42201 981.56345 235.9716 987.19664 235.0625 993.53125 C 234.66198 1001.7911 233.78739 1010.3034 235.59375 1018.3438 C 233.12045 1035.7105 233.98541 1053.3996 232.40625 1070.875 C 230.61808 1103.0396 235.77016 1135.1776 232.875 1167.3125 C 232.14927 1174.9231 232.50032 1182.373 233.71875 1189.8438 C 233.18101 1205.7791 231.69573 1221.822 232.78125 1237.75 C 232.96827 1241.777 234.23966 1246.0304 235.40625 1249.4688 C 233.83273 1256.8552 236.16385 1264.503 235.46875 1272.0625 C 235.07673 1286.8981 235.9567 1301.6649 236.84375 1316.4375 C 236.02931 1342.2753 229.85473 1368.6823 234.5 1394.2812 C 236.14214 1409.974 233.84299 1426.1257 234.71875 1442.0625 C 235.86552 1468.5938 233.84632 1495.1549 234.4375 1521.6875 C 232.627 1565.2759 236.54881 1609.0201 232.125 1652.5312 C 229.29755 1672.2819 229.60011 1692.3738 231.09375 1712.1875 C 234.96551 1724.1732 228.55012 1737.3573 234.25 1748.9688 C 230.44808 1752.2411 232.1848 1757.6286 235.0625 1760.5 C 236.43095 1765.0468 229.67472 1761.7577 226.53125 1762.5 C 222.26964 1763.5561 224.29443 1756.9941 222.125 1754.9375 C 219.83472 1752.5558 218.71215 1749.6298 220.0625 1746.625 C 220.69964 1742.2737 215.62984 1739.6941 217.4375 1735.2188 C 218.33151 1715.181 219.33513 1694.9575 221.71875 1675.125 C 223.97194 1668.5818 219.7551 1661.8133 221.625 1655.125 C 222.60093 1625.8039 222.64093 1596.3207 220.15625 1567.125 C 217.27783 1554.3688 215.67842 1540.9958 219 1528.1875 C 217.72306 1523.0701 222.88942 1518.693 221.4375 1513.3438 C 222.26913 1487.5955 225.11757 1461.2976 218.84375 1436.0312 C 219.41875 1426.7216 220.15272 1417.3335 218.65625 1408.125 C 218.82215 1399.6163 217.67701 1390.6811 221.125 1382.7812 C 222.12376 1373.9667 219.38498 1365.1469 220.28125 1356.25 C 220.47108 1350.0191 220.3719 1343.5021 221.0625 1337.4688 C 227.11721 1333.3295 222.97214 1325.3663 223.8125 1319.5 C 222.89769 1290.4447 223.48744 1261.3143 221.875 1232.3125 C 219.62856 1216.8429 221.77302 1201.2462 221 1185.6875 C 220.68895 1179.8224 221.40613 1174.1895 223.4375 1168.8125 C 224.12457 1155.4495 223.11725 1141.9593 222.625 1128.5625 C 222.03991 1108.2894 219.45673 1087.3359 224.125 1067.4688 C 228.32197 1065.6103 230.35214 1059.8899 227.625 1055.8125 C 226.46446 1053.755 224.39649 1052.1679 222.03125 1051.875 C 221.64449 1043.9057 219.72345 1036.2302 221.5 1028.2812 C 222.18927 1014.6026 219.87841 1000.9718 220.4375 987.25 C 220.4696 961.65525 220.28863 936.00126 220.15625 910.4375 C 222.33844 887.82456 217.96275 864.83695 222.28125 842.46875 C 222.28725 824.44912 223.0629 806.41193 221.03125 788.4375 C 219.60719 775.62529 219.95148 762.78342 220.90625 750 C 220.70613 742.88877 220.30638 735.67639 222.65625 728.9375 C 222.38377 718.22172 221.01583 707.5314 222.09375 696.71875 C 222.52623 682.57929 220.51107 668.54812 220.9375 654.375 C 220.01785 620.6878 221.27687 587.01475 222.75 553.375 C 222.7841 546.05461 222.7397 538.72674 222.75 531.40625 C 218.0069 532.09394 222.75185 526.58382 221.34375 524.0625 C 221.75735 502.30115 218.64359 480.53892 221.03125 458.84375 C 222.67701 425.25564 221.20595 391.6132 222.375 358.03125 C 223.07316 345.54106 224.11902 332.99619 222.28125 320.625 C 222.81602 292.87188 221.66495 265.03446 222.3125 237.3125 C 223.39064 233.72083 222.01528 228.11878 224.21875 225.65625 C 239.7998 224.22584 255.38791 224.99816 270.96875 225.71875 C 289.46035 226.00949 307.92644 223.79844 326.375 225.875 C 337.23768 226.8021 347.96179 225.02484 358.5625 223.1875 C 386.59015 221.90823 414.61583 224.95623 442.65625 223.75 C 464.66995 223.97877 486.87375 223.26983 508.78125 224.78125 C 518.4841 225.94476 528.25788 223.37479 538.03125 224.28125 C 570.09392 224.34135 602.17183 223.90875 634.125 221.125 C 646.43661 220.34246 659.07333 221.16167 671.1875 219.90625 z M 1322.4688 225.125 C 1335.8559 226.36001 1349.4802 225.73688 1362.7812 226.75 C 1365.177 230.53255 1370.6994 231.03496 1375 229.78125 C 1387.4196 228.50759 1400.1439 230.14409 1412.6562 228.625 C 1419.0276 228.061 1424.9912 225.31287 1431.5 226.96875 C 1458.6751 228.3927 1485.9997 225.70765 1513.125 226.90625 C 1525.2358 229.7351 1537.664 226.91904 1549.9688 227.875 C 1588.6207 228.29926 1627.3086 227.15476 1665.9375 227.46875 C 1670.7995 226.29714 1675.4333 225.09215 1680.5625 226.0625 C 1697.5592 226.90809 1715.2081 225.54446 1731.7812 227.875 C 1737.8355 233.81358 1747.1169 229.889 1754.5938 231.46875 C 1762.1463 231.88035 1769.7083 232.99954 1776.9375 235.03125 C 1776.7358 241.23527 1775.6374 250.38559 1783.1562 252.75 C 1784.9541 252.91109 1782.7546 256.89975 1783.5312 258.59375 C 1781.1309 298.51142 1775.176 338.29634 1777.0625 378.375 C 1777.962 408.07423 1772.8571 437.93392 1776.375 467.5 C 1778.7143 473.07955 1775.8626 479.30264 1776.5 485.15625 C 1775.6946 504.25969 1777.4213 523.56742 1774.4688 542.46875 C 1774.4848 550.72913 1776.954 559.3774 1773.625 567.1875 C 1774.2779 570.1011 1776.4825 572.65317 1774.3125 575.6875 C 1768.8633 599.07825 1773.5683 623.33177 1771.6562 647.09375 C 1770.9534 666.24582 1774.3723 685.19569 1773.0312 704.34375 C 1772.2267 723.07766 1775.0232 741.7269 1772.9688 760.4375 C 1771.5505 777.94969 1773.1543 795.45394 1774.4062 812.90625 C 1772.6293 842.20435 1770.1239 871.46639 1768.125 900.75 C 1767.4262 911.70813 1768.1692 922.68012 1770.4688 933.28125 C 1768.9534 965.00547 1770.8809 996.89001 1769.5 1028.5938 C 1766.6988 1036.2303 1771.4698 1043.5701 1770.1562 1051.2812 C 1769.8929 1064.3576 1770.8444 1077.5304 1773 1090.3438 C 1770.7885 1103.843 1774.1285 1118.1142 1769.75 1131.1562 C 1769.4483 1139.0251 1770.6085 1146.8619 1769.75 1154.75 C 1769.6362 1169.3112 1767.2012 1184.609 1770.75 1198.75 C 1772.694 1200.285 1773.9115 1201.8884 1772.7812 1204.3438 C 1772.2394 1219.6501 1773.5857 1235.6017 1771.9375 1250.5 C 1767.6262 1252.2825 1761.0699 1256.4413 1764.4062 1261.9375 C 1766.0898 1265.0282 1770.0733 1265.8836 1773.3125 1265.2188 C 1772.6761 1277.6169 1775.5376 1290.4448 1773.25 1302.5938 C 1769.3363 1310.3962 1773.031 1319.5428 1772.125 1327.875 C 1772.919 1349.2106 1769.0503 1370.312 1768.4062 1391.5625 C 1769.4614 1413.0564 1767.7144 1434.561 1769.6875 1456.0312 C 1768.8273 1471.5052 1769.5398 1487.0555 1770.6562 1502.5312 C 1771.3874 1509.1275 1770.5179 1515.4924 1768.75 1521.75 C 1768.1888 1534.2385 1769.5325 1546.7754 1768.2812 1559.2812 C 1767.5568 1571.0532 1770.478 1582.4349 1768.7812 1594.1875 C 1767.899 1607.0802 1768.5441 1620.2715 1767.375 1633.0312 C 1766.2106 1637.0971 1764.7372 1642.2056 1768.0312 1645.7188 C 1766.6668 1678.9854 1767.2642 1712.3005 1769.2188 1745.5312 C 1762.0631 1754.1635 1770.3062 1767.1108 1763.3438 1775.6875 C 1759.1779 1777.2491 1754.7094 1775.6234 1750.8125 1773.6875 C 1743.7219 1773.6945 1737.0322 1776.371 1729.9062 1775.4688 C 1703.6769 1776.3059 1677.4581 1773.7776 1651.25 1774.7812 C 1645.6251 1774.0796 1640.3438 1771.5902 1634.3438 1772.4375 C 1614.2823 1770.816 1594.2692 1773.506 1574.2188 1773.0312 C 1560.0664 1771.7688 1545.9397 1771.6729 1531.75 1772.5312 C 1522.0533 1772.9824 1512.2063 1772.9556 1502.875 1775.3125 C 1490.0111 1774.5627 1477.2006 1776.3361 1464.2812 1775.4375 C 1432.7532 1774.9051 1401.1596 1774.4479 1369.6875 1773.4375 C 1360.193 1772.1642 1350.6057 1774.7452 1341.0312 1774.0312 C 1317.5989 1774.3618 1293.8072 1775.4826 1270.625 1776.1562 C 1265.3109 1771.195 1258.3778 1777.1712 1252.3438 1776.0938 C 1233.7738 1776.2971 1215.1483 1775.0423 1196.625 1776.875 C 1193.6965 1780.1769 1188.8949 1776.6462 1185.0938 1778.0312 C 1179.4878 1778.774 1174.0443 1777.3027 1169.1562 1775.25 C 1153.5977 1774.2613 1138.0628 1775.035 1122.5312 1775.9062 C 1111.823 1774.4291 1101.0287 1776.2732 1090.25 1775.625 C 1071.308 1776.3542 1052.312 1775.428 1033.4062 1775.7188 C 1019.9873 1777.4929 1006.7948 1773.6024 993.40625 1775.7812 C 966.44616 1777.7815 939.32947 1776.9941 912.34375 1778.375 C 907.57541 1778.0696 902.28551 1779.2886 898.3125 1776.1875 C 889.70404 1775.0209 880.93164 1776.7049 872.25 1776 C 838.49155 1776.0448 804.71429 1777.7188 770.96875 1777.3438 C 743.00653 1774.3872 714.90454 1776.9448 686.90625 1777.6562 C 681.64415 1778.6711 676.22041 1774.8874 671.0625 1777.5938 C 646.16884 1779.8828 621.29325 1775.2995 596.375 1775.9375 C 578.73659 1775.6462 561.05707 1775.1125 543.46875 1774.375 C 533.31134 1776.9352 522.60174 1775.405 512.15625 1775.5312 C 494.7008 1774.2694 477.25858 1777.6897 459.875 1774.8125 C 432.27887 1771.6932 404.47251 1771.0096 376.75 1770.0312 C 365.01111 1768.7114 353.15152 1769.9794 341.46875 1769.4375 C 322.7385 1767.5784 303.83205 1770.2007 285.09375 1768.8438 C 281.55939 1767.5941 277.79811 1766.9773 274.09375 1767.625 C 272.20412 1763.8825 277.84918 1766.5735 280.03125 1766.2188 C 284.15982 1766.9948 287.76279 1765.6268 291.1875 1763.6875 C 298.77773 1761.6677 307.29788 1765.8699 314.65625 1762.6875 C 320.59293 1760.477 327.78259 1762.9935 334.15625 1762.875 C 369.84297 1767.1722 406.08827 1762.4123 441.59375 1767.9688 C 452.88695 1768.494 464.03021 1770.32 475.15625 1771.7812 C 479.57029 1770.3982 483.8584 1768.8406 488.5625 1769.625 C 509.26302 1768.5039 530.01044 1770.2896 550.65625 1768.375 C 570.0503 1767.2456 589.59797 1770.9549 608.875 1768.5312 C 618.13156 1765.167 628.50705 1767.5941 638.21875 1767.4688 C 653.66475 1767.9635 669.12564 1770.885 684.53125 1770.625 C 687.44109 1769.9714 688.66942 1766.5119 692.1875 1768.375 C 709.07701 1769.2317 726.11942 1770.6944 742.96875 1770.5625 C 745.81577 1769.5171 747.83885 1767.084 751.09375 1768.5 C 758.46971 1768.5541 766.0678 1768.4435 773.25 1769.1562 C 782.74201 1767.7664 792.04765 1772.3126 801.59375 1770.4688 C 826.47331 1771.1128 851.34678 1770.2639 876.15625 1768.75 C 886.25726 1768.269 896.15527 1770.8237 906.125 1769.25 C 917.97349 1768.8216 929.78884 1771.3468 941.5625 1769.4688 C 953.31811 1769.5101 965.20437 1770.4061 976.6875 1767.7188 C 1002.4192 1766.1354 1028.1876 1768.2727 1053.9375 1767.3438 C 1064.8421 1766.8186 1076.3844 1767.9996 1086.875 1765.8125 C 1091.7752 1763.2865 1097.7458 1766.1785 1103.0938 1765.125 C 1107.7013 1763.6165 1108.3244 1769.2618 1112.5938 1769.1562 C 1119.2393 1769.54 1125.6823 1767.6535 1132.375 1768.4062 C 1163.323 1767.2863 1194.2913 1767.3779 1225.2188 1768.7188 C 1241.7331 1768.6687 1258.4763 1768.1632 1274.75 1765.9375 C 1284.781 1768.727 1295.3824 1766.5254 1305.6875 1767.5 C 1320.8721 1768.0284 1336.1937 1766.9225 1351.2812 1767.4062 C 1359.4263 1770.447 1368.408 1766.7548 1377 1767.625 C 1388.7203 1767.186 1400.8314 1768.0136 1412.3125 1765.8438 C 1419.9315 1762.8292 1428.2394 1766.4912 1436.2812 1765.1875 C 1444.5645 1764.3472 1452.6676 1762.1535 1461.0938 1763.4688 C 1467.925 1764.3526 1475.9884 1763.9351 1482.2188 1764.875 C 1483.3435 1772.0891 1492.4726 1771.7336 1497.8438 1770.2188 C 1509.1498 1769.066 1521.2225 1771.7697 1532.1875 1767.75 C 1533.0706 1763.755 1538.2115 1766.9901 1540.9062 1765.5312 C 1567.582 1762.8499 1594.1492 1767.5952 1620.7188 1769 C 1639.4464 1769.9035 1657.9673 1765.4425 1676.6875 1767.25 C 1693.0647 1766.9722 1709.4237 1765.8375 1725.8125 1766.25 C 1723.7547 1762.3963 1729.4603 1764.4361 1731.4688 1763.5938 C 1737.9199 1764.0182 1744.7795 1763.8904 1750.6562 1761.4062 C 1755.2082 1762.6807 1760.3524 1758.9614 1758.9062 1754.0312 C 1758.8492 1750.341 1755.1861 1747.8334 1757.1562 1744 C 1759.311 1723.8919 1755.5475 1703.5977 1757.5625 1683.4688 C 1755.7396 1661.9335 1755.1744 1640.3298 1755.4688 1618.7188 C 1755.704 1584.784 1755.817 1550.1376 1756.4062 1516.6562 C 1763.4451 1516.0216 1765.03 1505.4483 1758.4688 1502.7188 C 1757.2515 1481.0795 1757.6623 1459.0791 1759.5625 1437.6562 C 1763.101 1431.6511 1759.4829 1424.3637 1760.5625 1417.8125 C 1760.4785 1398.3975 1763.9415 1379.1497 1763.3125 1359.75 C 1764.0395 1349.6635 1763.8683 1339.2476 1760.5625 1329.7188 C 1758.4457 1306.7314 1761.3751 1283.6199 1759.9375 1260.5938 C 1759.6056 1238.7819 1761.8978 1216.8587 1760.6562 1195.125 C 1759.5886 1192.4652 1756.4492 1190.4449 1758.1875 1187.3125 C 1759.7519 1174.8513 1754.6415 1162.6218 1757.5 1150.3438 C 1758.6518 1131.7002 1758.5019 1112.9938 1760.0312 1094.375 C 1760.9625 1090.3673 1757.5694 1087.1659 1757.75 1083.5 C 1761.3708 1074.2429 1757.9116 1063.7125 1761 1054.2812 C 1763.0451 1039.4381 1762.139 1024.183 1762.3438 1009.3438 C 1759.3042 996.86663 1767.6486 983.79636 1762.875 971.5625 C 1759.621 968.52796 1761.2044 963.25123 1762.0312 959.3125 C 1764.5647 955.21382 1760.4677 950.7713 1762.5625 946.4375 C 1762.8084 943.1979 1760.9289 940.14061 1759.3438 937.75 C 1761.9259 928.75045 1758.4962 919.27824 1759.2812 910.0625 C 1758.1528 882.65011 1761.1856 855.32844 1763.5938 828.09375 C 1764.4117 823.32417 1759.0833 820.94243 1760 816.375 C 1758.1148 790.61071 1760.2371 764.62656 1760.7188 739 C 1761.02 716.14729 1761.3242 692.82827 1762.8125 669.84375 C 1763.3823 652.90859 1765.1768 635.82664 1764.75 618.9375 C 1764.0348 615.8704 1760.2505 614.74435 1762.1875 611.03125 C 1763.8559 582.5459 1766.2212 554.07063 1768.75 525.6875 C 1768.863 521.66387 1764.0891 519.89987 1764.9688 516.03125 C 1763.6001 510.98202 1760.4533 506.55546 1760.625 501.03125 C 1759.6417 475.09425 1760.7704 449.05835 1763.5 423.25 C 1764.3804 412.84624 1763.4734 402.36683 1761.875 392.25 C 1764.3639 387.0398 1765.046 381.44743 1763.9375 375.78125 C 1762.916 364.2737 1761.4691 352.54925 1764.0625 341.1875 C 1764.295 333.524 1763.0258 325.6761 1764.8125 318.28125 C 1763.7877 311.64241 1764.6791 304.90501 1766.8438 298.75 C 1766.8947 284.3834 1766.8268 269.95497 1768.8125 255.8125 C 1768.9898 253.00898 1767.2049 250.28696 1765.25 248.9375 C 1765.7123 242.83639 1759.4087 236.68073 1753.2188 239.28125 C 1733.2698 235.27909 1712.9533 240.14728 1692.8125 239.25 C 1673.4006 238.80501 1653.9846 239.43542 1634.5938 239.5625 C 1605.9613 239.26269 1577.315 238.44657 1548.7188 237.40625 C 1534.1933 237.62216 1519.3829 238.56739 1505.0312 236.625 C 1500.8384 232.9997 1495.2337 234.27332 1490.5312 235.5 C 1476.8948 235.71598 1462.8607 232.35712 1449.5938 236.71875 C 1426.278 235.3763 1402.8304 236.08372 1379.4688 236.96875 C 1362.6492 237.62314 1345.7399 236.70071 1329.1562 234.5 C 1326.2821 234.71687 1323.385 236.51862 1322.625 239.40625 C 1298.8323 239.14676 1275.0272 237.5728 1251.25 239.15625 C 1241.5478 239.59825 1231.6688 240.17051 1222.25 237.875 C 1201.1052 240.67195 1179.431 236.20026 1158.1875 238.5 C 1150.5175 241.59098 1142.0019 238.49474 1133.9688 239.34375 C 1119.0876 239.28715 1104.1095 238.74453 1089.3438 237.59375 C 1080.3541 238.93706 1072.6296 232.75265 1063.75 232 C 1056.4692 230.63627 1070.5906 231.11343 1073.2812 230.625 C 1097.5126 229.58278 1121.9296 228.58348 1146.0938 229 C 1153.5097 233.13907 1162.2971 228.90911 1170.0625 230.84375 C 1185.2963 229.31256 1200.6753 230.00863 1215.9062 229.96875 C 1224.9975 227.49419 1234.4453 224.28678 1243.9375 226.875 C 1252.1056 228.89973 1261.077 226.49393 1269.5625 226.84375 C 1287.197 226.14457 1304.8284 225.64695 1322.4688 225.125 z M 255 255 L 495 255 L 495 495 L 255 495 L 255 255 z M 505 255 L 745 255 L 745 495 L 505 495 L 505 255 z M 755 255 L 995 255 L 995 495 L 755 495 L 755 255 z M 1005 255 L 1245 255 L 1245 495 L 1005 495 L 1005 255 z M 1255 255 L 1495 255 L 1495 495 L 1255 495 L 1255 255 z M 1505 255 L 1745 255 L 1745 495 L 1505 495 L 1505 255 z M 255 505 L 495 505 L 495 745 L 255 745 L 255 505 z M 505 505 L 745 505 L 745 745 L 505 745 L 505 505 z M 755 505 L 995 505 L 995 745 L 755 745 L 755 505 z M 1005 505 L 1245 505 L 1245 745 L 1005 745 L 1005 505 z M 1255 505 L 1495 505 L 1495 745 L 1255 745 L 1255 505 z M 1505 505 L 1745 505 L 1745 745 L 1505 745 L 1505 505 z M 255 755 L 495 755 L 495 995 L 255 995 L 255 755 z M 505 755 L 745 755 L 745 995 L 505 995 L 505 755 z M 755 755 L 995 755 L 995 995 L 755 995 L 755 755 z M 1005 755 L 1245 755 L 1245 995 L 1005 995 L 1005 755 z M 1255 755 L 1495 755 L 1495 995 L 1255 995 L 1255 755 z M 1505 755 L 1745 755 L 1745 995 L 1505 995 L 1505 755 z M 255 1005 L 495 1005 L 495 1245 L 255 1245 L 255 1005 z M 505 1005 L 745 1005 L 745 1245 L 505 1245 L 505 1005 z M 755 1005 L 995 1005 L 995 1245 L 755 1245 L 755 1005 z M 1005 1005 L 1245 1005 L 1245 1245 L 1005 1245 L 1005 1005 z M 1255 1005 L 1495 1005 L 1495 1245 L 1255 1245 L 1255 1005 z M 1505 1005 L 1745 1005 L 1745 1245 L 1505 1245 L 1505 1005 z M 255 1255 L 495 1255 L 495 1495 L 255 1495 L 255 1255 z M 505 1255 L 745 1255 L 745 1495 L 505 1495 L 505 1255 z M 755 1255 L 995 1255 L 995 1495 L 755 1495 L 755 1255 z M 1005 1255 L 1245 1255 L 1245 1495 L 1005 1495 L 1005 1255 z M 1255 1255 L 1495 1255 L 1495 1495 L 1255 1495 L 1255 1255 z M 1505 1255 L 1745 1255 L 1745 1495 L 1505 1495 L 1505 1255 z M 255 1505 L 495 1505 L 495 1745 L 255 1745 L 255 1505 z M 505 1505 L 745 1505 L 745 1745 L 505 1745 L 505 1505 z M 755 1505 L 995 1505 L 995 1745 L 755 1745 L 755 1505 z M 1005 1505 L 1245 1505 L 1245 1745 L 1005 1745 L 1005 1505 z M 1255 1505 L 1495 1505 L 1495 1745 L 1255 1745 L 1255 1505 z M 1505 1505 L 1745 1505 L 1745 1745 L 1505 1745 L 1505 1505 z "
       transform="translate(0,-947.63782)"
       id="path3998" />
  </g>
</svg>
