<?xml version="1.0" encoding="UTF-8" standalone="no"?>
<!-- Created with Inkscape (http://www.inkscape.org/) -->

<svg
   xmlns:dc="http://purl.org/dc/elements/1.1/"
   xmlns:cc="http://creativecommons.org/ns#"
   xmlns:rdf="http://www.w3.org/1999/02/22-rdf-syntax-ns#"
   xmlns:svg="http://www.w3.org/2000/svg"
   xmlns="http://www.w3.org/2000/svg"
   xmlns:sodipodi="http://sodipodi.sourceforge.net/DTD/sodipodi-0.dtd"
   xmlns:inkscape="http://www.inkscape.org/namespaces/inkscape"
   width="2000"
   height="2000"
   id="svg2"
   version="1.1"
   inkscape:version="0.48.4 r9939"
   sodipodi:docname="board5x5.svg"
   inkscape:export-filename="/home/nathan/documents/bee_puzzled/svgs/board3.png"
   inkscape:export-xdpi="90"
   inkscape:export-ydpi="90">
  <defs
     id="defs4" />
  <sodipodi:namedview
     id="base"
     pagecolor="#ffffff"
     bordercolor="#666666"
     borderopacity="1.0"
     inkscape:pageopacity="0"
     inkscape:pageshadow="2"
     inkscape:zoom="0.42121978"
     inkscape:cx="1001.4622"
     inkscape:cy="999.95207"
     inkscape:document-units="px"
     inkscape:current-layer="layer1"
     showgrid="false"
     inkscape:window-width="1276"
     inkscape:window-height="782"
     inkscape:window-x="0"
     inkscape:window-y="14"
     inkscape:window-maximized="0" />
  <metadata
     id="metadata7">
    <rdf:RDF>
      <cc:Work
         rdf:about="">
        <dc:format>image/svg+xml</dc:format>
        <dc:type
           rdf:resource="http://purl.org/dc/dcmitype/StillImage" />
        <dc:title></dc:title>
      </cc:Work>
    </rdf:RDF>
  </metadata>
  <g
     inkscape:label="Layer 1"
     inkscape:groupmode="layer"
     id="layer1"
     transform="translate(0,947.63782)">
    <path
       style="fill:#000000;stroke:none"
       d="M 758.96875 332.15625 C 736.53383 334.97872 713.67696 333.39645 691.09375 334.875 C 661.24188 335.7715 631.40868 337.76823 601.53125 337.03125 C 591.49882 337.35456 581.33722 338.12917 571.5 336.25 C 560.76982 337.24495 549.87072 336.97865 539.15625 336.625 C 534.58005 335.82677 530.17362 333.34775 525.34375 335 C 506.14386 336.91499 486.53193 334.28217 467.21875 336.0625 C 457.73522 336.65127 447.78603 334.59564 438.59375 336.4375 C 431.98305 338.23696 424.85932 336.5136 418.0625 337 C 408.38431 337.19214 398.64668 337.22617 389.25 335.28125 C 383.20839 336.54712 377.35376 334.89675 371.34375 336.75 C 362.04292 338.06207 352.42924 337.13286 343.0625 338.03125 C 338.82316 336.73802 333.87626 339.21284 333.34375 343.65625 C 329.96581 349.27637 334.40339 355.63153 332.84375 361.625 C 332.82795 373.425 329.45522 385.57139 332.71875 397.09375 C 332.04308 404.6519 333.52312 412.32894 331.90625 419.75 C 334.36178 434.43032 332.54965 449.69857 334.65625 464.5625 C 335.94765 474.10611 335.04537 483.62155 334.125 493.0625 C 336.29444 509.99211 332.80236 526.99837 333.4375 544 C 333.04193 577.99276 332.49512 611.98422 333 645.96875 C 335.67407 680.72433 330.09519 715.56621 333.1875 750.28125 C 333.1425 759.98906 334.09797 769.60093 332.6875 779.28125 C 332.19403 785.73604 335.57691 791.75126 333.75 798.28125 C 333.07264 822.94096 335.87404 847.99038 330.40625 872.25 C 330.00148 875.10038 330.74445 878.6281 333.625 879.90625 C 334.32655 885.96159 335.12958 892.19372 332.75 897.90625 C 331.52602 904.62646 334.62369 911.74302 333 918.25 C 330.40085 922.04591 331.52514 927.30336 332.96875 931.25 C 333.61418 955.75168 330.73317 980.29748 333.40625 1004.75 C 333.72948 1010.619 331.1782 1015.8319 332.65625 1021.6875 C 332.93258 1037.0445 333.56917 1052.4033 332.0625 1067.75 C 331.47301 1074.5097 332.78224 1081.3848 331.09375 1087.9062 C 331.35967 1091.3191 335.7141 1093.0952 333.9375 1097.0312 C 333.49839 1105.6033 331.6449 1113.9404 330.59375 1122.4688 C 330.12571 1125.9984 330.67845 1130.0386 334.0625 1131.5938 C 335.59726 1150.6998 333.82843 1170.2625 333.09375 1189.5 C 332.7021 1193.521 331.48201 1198.0472 334.28125 1201.3125 C 333.79396 1207.0443 330.07946 1212.5778 332.125 1218.6875 C 332.96561 1229.3801 332.89693 1240.3582 331.71875 1250.9062 C 326.49394 1255.02 331.35302 1261.9788 330.3125 1267.3438 C 333.94118 1310.1232 329.28891 1353.0964 331.78125 1395.9062 C 332.34333 1399.6838 330.55198 1402.3921 329.34375 1405.6562 C 328.62508 1411.0765 332.48718 1416.88 328.53125 1421.6562 C 327.60859 1425.5941 329.56823 1429.519 328.75 1433.5938 C 329.60676 1448.2775 332.70726 1463.3534 329.8125 1477.9062 C 330.0181 1481.9337 335.25986 1483.5076 333.375 1488.0312 C 332.68202 1496.9024 333.99591 1505.7853 333.96875 1514.5312 C 332.869 1524.9677 334.46538 1535.4499 333.84375 1545.9688 C 333.46768 1559.0612 334.37009 1572.5636 331.84375 1585.375 C 329.60514 1595.771 331.03801 1606.614 329.1875 1617.0625 C 328.82551 1622.7653 331.00145 1629.0354 329.65625 1634.3438 C 325.12273 1637.1456 327.31293 1643.893 331.28125 1645.7188 C 332.25458 1650.5486 338.07644 1651.1987 339.90625 1655.5938 C 343.17416 1663.2922 353.09107 1660.9611 359.90625 1661.7812 C 384.22858 1662.8545 408.79536 1662.3952 433.15625 1661 C 440.86835 1660.6731 448.4846 1661.7303 455.9375 1663.125 C 459.78165 1663.3099 461.00462 1658.4385 465.03125 1660.0312 C 481.17328 1659.7214 497.41598 1662.3629 513.4375 1661.875 C 516.73169 1661.2035 515.00009 1655.626 518.6875 1657 C 527.68075 1658.6133 536.73867 1659.1269 545.9375 1658.7188 C 556.29725 1658.4593 566.69924 1658.8479 576.625 1661.6875 C 594.57115 1663.1531 612.674 1664.9161 630.53125 1666.4062 C 634.27659 1666.3891 636.19098 1662.3418 640.21875 1663.4062 C 655.06741 1664.5725 670.05083 1662.3785 685.03125 1663.125 C 704.0926 1663.668 723.13458 1664.735 742.1875 1663.4688 C 746.00154 1663.9354 749.49429 1667.0282 753.65625 1665.5938 C 764.00349 1664.5277 774.29977 1666.5779 784.5625 1666.8125 C 802.21813 1665.3847 820.02653 1665.113 837.6875 1664.6562 C 844.73778 1664.8608 852.59397 1666.2242 859.09375 1664.6562 C 864.03233 1665.8695 868.96638 1662.7924 874.09375 1664.375 C 881.02985 1666.1672 888.19395 1666.1622 895.46875 1665.5938 C 912.08923 1665.2054 928.7157 1664.409 945.3125 1665.3125 C 948.79505 1665.4037 951.44009 1662.0373 955.21875 1663.6562 C 965.95354 1666.2266 977.24593 1661.7842 987.8125 1663.2188 C 993.59851 1668.1061 1001.5227 1664.4743 1008.2812 1665.5 C 1014.6068 1665.4251 1021.1706 1664.2964 1026.9062 1667.1875 C 1036.2145 1667.2821 1045.6402 1665.0125 1055.0938 1665.8125 C 1065.6741 1666.985 1076.7579 1665.3966 1087.3125 1665.7188 C 1092.4938 1670.4009 1099.7606 1666.2331 1105.8125 1666.6875 C 1122.0041 1665.4075 1138.4391 1665.8812 1154.6875 1664.7188 C 1168.9447 1665.6344 1183.2737 1666.7061 1197.5312 1666.4375 C 1201.0466 1666.7299 1203.0874 1664.1816 1205.9688 1663.3125 C 1215.9534 1664.0838 1225.9893 1665.7119 1236.0938 1664.375 C 1240.6941 1663.0465 1244.6931 1667.8746 1249.0312 1665.0312 C 1252.9372 1662.6786 1257.6026 1664.7375 1262 1664.0312 C 1273.8277 1663.8233 1286.0554 1666.8848 1297.6562 1664.7812 C 1299.0521 1662.437 1300.7233 1661.9505 1303.625 1662.5 C 1315.1413 1662.0774 1326.6724 1661.8246 1338.0938 1663 C 1346.9729 1662.7768 1356.0728 1662.4754 1364.7812 1663.1562 C 1371.9307 1662.6059 1379.3517 1664.5431 1386.25 1662.0938 C 1394.7371 1662.5167 1403.1685 1662.3326 1411.5625 1661.2812 C 1425.9631 1660.4073 1440.3314 1662.0151 1454.5 1663.7812 C 1458.2681 1663.4312 1460.9342 1660.6557 1464.9688 1661.4688 C 1475.2776 1660.1147 1485.6007 1661.3158 1495.8125 1661.625 C 1520.8482 1661.5883 1545.8749 1663.3664 1570.9062 1662.0312 C 1582.7273 1660.7507 1594.0834 1665.4664 1605.9062 1663.75 C 1619.6236 1661.8317 1633.9697 1665.4301 1647.2812 1661.8438 C 1650.1572 1660.4037 1654.0395 1662.0694 1656.1875 1658.9062 C 1658.9657 1656.1843 1656.2206 1652.5419 1658.1562 1649.7188 C 1659.8867 1644.637 1657.2192 1638.0942 1661.8125 1634.375 C 1664.2602 1628.6405 1661.1438 1622.4008 1661.9375 1616.375 C 1662.4283 1609.5892 1661.9016 1602.5892 1659.0312 1596.5 C 1658.3292 1585.7689 1660.152 1574.9595 1657.9062 1564.375 C 1657.8633 1553.6103 1659.1793 1542.7591 1657.375 1532.1562 C 1659.5048 1526.5 1658.9256 1520.4001 1658.1875 1514.4062 C 1657.4491 1509.4977 1661.641 1505.4342 1659.8438 1500.4062 C 1658.7291 1476.5816 1660.3834 1452.2878 1660.0312 1428.2812 C 1663.1733 1414.7636 1659.2788 1400.6376 1661.25 1387.1562 C 1663.6555 1381.039 1659.9352 1374.5202 1661.0312 1368.1562 C 1659.9673 1335.9798 1659.8746 1303.7584 1660.3125 1271.5938 C 1659.8548 1268.7459 1659.5896 1266.577 1662.25 1265.3438 C 1664.4063 1260.8493 1661.7575 1255.5041 1663.1562 1250.7188 C 1663.4763 1237.7852 1666.3825 1224.505 1664.3125 1211.7188 C 1662.5316 1203.3806 1664.5983 1194.6102 1663.8125 1186.0938 C 1663.9364 1179.0937 1663.0053 1171.7898 1665.875 1165.375 C 1666.7376 1153.2744 1664.2345 1140.7298 1665.875 1128.875 C 1669.6803 1127.0986 1670.965 1120.2884 1665.8438 1119.5 C 1664.3233 1118.2838 1665.8048 1114.3161 1665.0625 1111.9688 C 1664.7857 1105.3349 1668.0816 1097.025 1664.1562 1091.4062 C 1661.8274 1087.7979 1664.2631 1082.65 1663.625 1078.5 C 1664.0225 1067.7092 1664.9117 1056.4751 1661.3438 1046.2188 C 1661.6781 1041.3155 1663.7385 1036.821 1662.4375 1031.7812 C 1661.7927 1026.6327 1664.9879 1022.4065 1663.2812 1017.2812 C 1661.575 998.66858 1666.1001 979.98037 1664.6875 961.46875 C 1662.8224 958.50746 1662.3288 953.95169 1663.8125 950.875 C 1668.7518 945.57451 1664.7913 936.92153 1665.8438 930.21875 C 1665.2691 909.82308 1666.0546 889.27473 1667.1562 869 C 1666.0864 865.97755 1663.9593 863.43842 1665.2188 860 C 1665.3008 835.63096 1663.4278 811.14145 1666.125 786.875 C 1666.6066 782.99278 1661.2231 782.23653 1662.7812 778.34375 C 1663.5135 760.38357 1664.4799 742.45782 1664.1875 724.46875 C 1664.7895 710.17074 1664.088 695.56952 1667.2188 681.65625 C 1666.9288 644.21328 1669.2536 606.77786 1670 569.34375 C 1668.7584 549.62047 1668.6206 529.87375 1670.2812 510.15625 C 1671.9273 480.75406 1671.1348 451.25494 1673.5 421.875 C 1674.9641 411.29009 1672.4632 400.70788 1674.2812 390.15625 C 1673.7051 383.80687 1675.6587 377.58108 1675.6875 371.375 C 1673.832 365.56801 1671.7904 359.82943 1673.1875 353.625 C 1673.2936 350.71443 1669.7082 349.71314 1668.8125 347.96875 C 1668.3812 344.50669 1666.808 341.74543 1667.5312 338.1875 C 1667.193 332.17879 1659.3714 333.15483 1656.1875 336.09375 C 1646.7738 335.87411 1636.9756 337.00357 1627.5312 335.78125 C 1614.1981 336.00814 1600.8941 334.70234 1587.5625 334.8125 C 1588.3554 336.96556 1588.2393 339.01694 1585.625 338.0625 C 1578.5483 337.13622 1571.2913 337.70616 1564.125 337.71875 C 1558.9374 338.23373 1554.4954 341.71687 1549.0625 340.0625 C 1530.2432 339.93668 1511.3125 338.40981 1492.5625 340.65625 C 1485.3034 340.65825 1477.3584 342.17657 1470.5 340.34375 C 1464.5858 337.11312 1458.0394 341.70182 1451.75 340.53125 C 1445.8801 340.8781 1439.9151 341.71107 1434.4062 339.40625 C 1410.9095 339.13133 1387.321 339.91634 1363.7812 339.53125 C 1360.0784 336.4088 1355.5354 340.26737 1351.5312 338.3125 C 1330.8238 337.63495 1310.0041 338.17981 1289.4688 335.59375 C 1277.7585 335.23641 1265.2622 334.03849 1254.25 337.96875 C 1238.4992 337.29553 1222.4887 339.06772 1206.8438 337.375 C 1202.5175 334.44831 1197.4878 338.64601 1192.7812 337.15625 C 1181.6723 337.54746 1170.3336 336.45724 1159.375 336.75 C 1157.2976 338.12078 1156.1441 341.01067 1153.1875 339.96875 C 1138.6716 340.27115 1124.1828 338.64154 1109.6562 339 C 1106.3814 339.73795 1104.9295 337.61431 1102.75 335.90625 C 1099.3261 333.6804 1094.4288 335.3349 1092.9062 338.8125 C 1074.6735 337.88127 1056.0124 338.1349 1037.5938 337.78125 C 1014.1499 337.3593 990.76128 340.17484 967.34375 338.125 C 944.11143 336.6835 920.18609 338.93929 897.375 337.75 C 897.26239 333.19416 891.35337 330.91046 887.96875 333.84375 C 879.67982 334.6394 871.64508 338.03828 863.375 335.40625 C 852.94213 333.77202 842.22834 331.94818 831.8125 334.34375 C 823.18062 334.47788 814.78719 332.16359 806.09375 333.46875 C 790.377 333.60551 774.69109 331.88344 758.96875 332.15625 z M 759.875 345.84375 C 761.86257 345.83643 763.24626 346.32911 762.96875 348.09375 C 762.86501 354.16527 770.33412 351.97726 773.90625 351.3125 C 782.09476 354.67706 791.41777 352.12701 800.09375 353.25 C 809.33933 353.3442 818.27744 355.54539 827.5 354.03125 C 846.10332 354.07305 864.6996 354.77222 883.28125 353.4375 C 892.50475 352.19936 901.29748 355.71789 910.5 354.5 C 912.54563 354.62455 917.42881 353.52156 913.875 355.875 C 912.45082 357.81986 913.21326 360.50354 914.53125 362.28125 C 897.35351 361.04306 879.66873 362.58634 862.78125 360.5625 C 856.25782 355.89682 847.75922 359.18603 840.34375 358.65625 C 833.66911 359.66099 827.41924 357.02685 820.78125 358.125 C 809.78524 358.53066 798.57135 355.59799 787.71875 357.34375 C 785.2506 358.25534 787.03908 362.63061 783.53125 361.1875 C 764.90198 361.51207 746.23512 362.95675 727.625 362.125 C 712.28889 366.17055 696.13634 363.04469 680.46875 364.875 C 672.68156 364.43255 664.95882 362.59987 657.0625 363.78125 C 652.59549 364.18836 648.38005 363.74953 644.4375 361.9375 C 637.94098 362.14204 631.5232 363.24667 624.90625 362.53125 C 608.40488 361.81951 591.87458 361.95225 575.40625 361.09375 C 572.04783 361.31923 569.47829 364.29047 565.71875 362.875 C 542.40142 363.94771 518.89312 362.69181 495.5625 364.53125 C 469.12121 365.36811 442.46151 363.09392 416.15625 364.75 C 414.38978 365.97379 414.08597 367.88413 411.5625 367.125 C 406.42923 366.62075 402.19766 362.55468 396.65625 364.34375 C 390.26551 365.02105 383.62069 363.14773 377.59375 363.625 C 373.29568 364.36114 366.97148 362.41007 364.96875 367.84375 C 369.21631 387.33144 365.00325 407.16606 363.71875 426.75 C 366.90348 438.22203 361.56625 450.49931 365.375 461.90625 C 367.13455 476.36411 365.56533 491.15636 365.46875 505.71875 C 364.13865 514.66646 363.07454 523.86988 364.59375 532.875 C 362.96218 541.57158 365.64242 550.12224 363.90625 558.78125 C 362.72474 571.00644 361.31983 583.29956 362.21875 595.59375 C 367.20359 599.04166 363.59223 605.92429 364.53125 610.96875 C 364.13409 626.0682 364.85988 641.59827 360.03125 656 C 359.61698 666.99902 362.558 677.79363 361.71875 688.90625 C 362.17243 695.76666 359.95071 703.18286 361.75 709.75 C 365.85045 711.74934 362.18984 717.54929 363.03125 721.28125 C 362.67392 737.9479 360.29453 754.64122 360.84375 771.28125 C 361.38524 774.16879 363.5999 776.345 361.96875 779.59375 C 361.95665 784.07694 358.78655 790.05106 363.09375 793.375 C 363.00245 813.476 359.38621 833.47607 359.125 853.5 C 359.80444 856.90679 364.50598 857.10723 362.90625 861.09375 C 362.39745 880.26629 362.56969 899.44379 363.28125 918.59375 C 361.18995 945.00472 360.74459 971.52566 362.71875 997.96875 C 364.14555 1016.887 362.30383 1035.7764 361.78125 1054.6562 C 362.36966 1058.6553 364.27417 1062.5117 362.78125 1066.6562 C 363.18464 1084.7303 359.47221 1103.4637 363.9375 1121.1562 C 365.34445 1124.971 363.19043 1129.508 363.71875 1133.625 C 364.008 1139.5694 365.38604 1145.2315 364 1151.125 C 363.34951 1179.8937 359.64043 1208.7687 362.375 1237.5 C 363.05686 1245.2403 361.37506 1253.0548 362.6875 1260.8125 C 362.5546 1265.3669 364.94116 1269.2213 364.25 1273.6875 C 365.71747 1286.5263 362.8063 1299.7541 364.125 1312.75 C 365.17663 1334.0023 363.94921 1355.4721 363.6875 1376.5938 C 363.7328 1384.4845 364.41693 1392.5647 363.53125 1400.5625 C 362.3756 1445.4842 366.09718 1490.6201 360.46875 1535.375 C 358.93835 1549.2255 359.20775 1563.1784 360 1576.9688 C 358.89188 1584.611 363.25452 1591.5075 361.5 1599.125 C 361.2911 1606.3154 360.36066 1614.1734 363.03125 1620.9375 C 365.69126 1622.9874 362.30951 1623.6139 361.6875 1625.75 C 360.61865 1628.3563 362.6744 1630.9478 364.03125 1632.5938 C 363.32847 1638.3304 370.97168 1639.4603 375.25 1638.1562 C 380.30244 1637.9111 386.72567 1637.5259 390.78125 1637.5312 C 379.59297 1640.7066 367.55409 1638.1435 356.03125 1637.9688 C 351.75676 1638.5116 349.02054 1637.3222 349 1632.6875 C 348.69748 1628.4843 343.61828 1626.1706 345.1875 1621.8125 C 346.12081 1618.5464 344.77831 1615.7924 342.75 1613.6562 C 343.03658 1592.2949 345.39596 1570.7925 346.53125 1549.4062 C 350.21829 1543.8944 345.29169 1537.5365 346.96875 1531.5938 C 347.87542 1505.8874 348.27211 1480.1293 346.40625 1454.4688 C 347.16852 1444.6364 344.14777 1435.323 343 1425.75 C 342.08599 1417.7069 342.69787 1409.6535 344.40625 1401.9062 C 343.53764 1398.7822 344.75425 1396.3108 346 1393.9062 C 348.06944 1375.3843 348.13334 1356.6084 348.09375 1337.9688 C 348.31728 1328.2191 345.59355 1318.6735 344.25 1309.3125 C 344.6558 1301.1233 346.05619 1292.9207 344.09375 1284.8438 C 344.40106 1276.4605 343.38838 1267.5758 345.21875 1259.5 C 350.06477 1252.1958 343.06157 1243.1418 346.71875 1235.5625 C 348.01914 1227.1579 345.59247 1217.8877 347.34375 1209.75 C 353.2246 1205.1275 346.80625 1196.3912 350.0625 1190.7812 C 356.51294 1190.5421 355.1425 1180.3749 349.4375 1179.6562 C 347.99386 1174.0608 349.19582 1166.3836 348.75 1160.0312 C 348.7708 1142.3833 347.69422 1124.7808 347.46875 1107.1562 C 344.94114 1092.7641 347.19509 1078.0802 346.5 1063.5 C 347.23105 1057.3951 344.73851 1050.4862 348.4375 1045.2188 C 350.30746 1029.5022 347.95627 1013.4864 347.84375 997.65625 C 347.15826 979.65866 346.96902 961.50965 348.90625 943.59375 C 348.40657 940.03718 350.53122 939.40701 353.09375 938.25 C 357.05608 934.20373 352.08438 927.71795 347.65625 928 C 347.07885 918.32698 345.53582 908.63726 347.21875 899 C 347.01871 889.43946 345.31003 879.93799 346.375 870.375 C 345.77556 865.26821 345.94765 860.334 348.28125 855.8125 C 348.50466 848.81313 346.41988 841.90202 347.15625 834.8125 C 348.71377 815.14218 345.9674 795.50839 346.4375 775.8125 C 346.68601 758.41788 344.83863 740.77208 346.96875 723.53125 C 348.74399 719.60852 345.56467 716.04704 347.0625 711.96875 C 348.09476 694.60675 348.52778 677.20308 348.15625 659.8125 C 343.47739 658.95664 348.30544 652.81597 346.5625 649.71875 C 347.36591 633.25639 345.35284 616.79596 345.40625 600.40625 C 348.06719 570.84419 346.94846 541.05979 347.53125 511.4375 C 346.35977 492.86301 349.16829 474.07894 348.78125 455.6875 C 346.61875 448.01163 348.52581 439.76687 347.6875 431.875 C 348.1645 409.45136 347.17096 386.90788 347.65625 364.5625 C 348.6443 360.0381 347.82877 354.38745 349.71875 350.5625 C 362.09958 350.0017 374.45207 348.85409 386.84375 350.125 C 402.85378 351.2371 418.8648 350.12075 434.84375 349.53125 C 450.40192 350.36051 466.35811 352.74163 481.5625 348.34375 C 507.54996 346.35125 533.56816 349.59605 559.59375 348.625 C 584.54267 348.48414 609.51043 348.62603 634.4375 349.09375 C 642.61589 351.47339 650.86973 348.3146 659.21875 349.1875 C 689.34607 348.7453 719.5326 349.61143 749.5625 346.65625 C 751.55081 347.28174 756.56239 345.85595 759.875 345.84375 z M 1550.5625 350.3125 C 1569.9061 351.77385 1589.6836 350.89797 1609 352.09375 C 1612.6236 358.32537 1620.9157 355.16719 1626.6875 356.125 C 1636.4109 356.24167 1646.2612 357.69345 1655.4688 360.28125 C 1656.1175 365.81402 1653.4797 374.52122 1659.875 377.46875 C 1662.3648 377.01533 1662.8225 377.7849 1662.3125 380.4375 C 1660.9685 411.79224 1656.7869 442.95277 1655.4688 474.3125 C 1655.5657 496.33206 1656.4074 518.37107 1654.8125 540.375 C 1654.263 557.8111 1652.8401 575.63897 1654.6875 592.875 C 1657.6237 598.04812 1654.557 604.37727 1655.3125 610.03125 C 1653.9759 628.01604 1656.3532 646.39596 1653.625 664.15625 C 1651.6311 673.26503 1656.017 682.80793 1652.7812 691.6875 C 1649.6854 694.43667 1654.6107 694.94589 1653.7188 698.15625 C 1652.6094 706.03522 1649.7696 713.53966 1650.4688 721.75 C 1649.2946 734.50287 1651.5016 747.77111 1650.5 760.1875 C 1644.5417 762.5658 1648.2445 770.25191 1646.875 774.875 C 1646.975 784.56118 1645.1033 794.60744 1648.625 803.875 C 1649.4543 828.80158 1647.5492 853.74839 1648.6562 878.6875 C 1648.8354 889.03329 1649.1353 899.49324 1647.0938 909.5625 C 1647.4317 914.05919 1650.0175 917.85403 1648.7188 922.59375 C 1648.2976 937.43085 1649.8528 952.27788 1651.4062 966.90625 C 1649.5085 996.74856 1644.3536 1026.8531 1647.7812 1056.6875 C 1646.8928 1065.7389 1649.6573 1074.3454 1648.5312 1083.375 C 1648.2803 1097.9226 1648.7966 1112.5814 1648.25 1127.0625 C 1644.2838 1127.8835 1639.5744 1133.3113 1644.125 1136.4688 C 1645.9797 1138.6475 1650.2012 1135.9678 1648.7812 1140.3125 C 1649.5473 1147.7537 1647.9227 1155.0452 1647.0938 1162.2812 C 1648.3075 1165.7626 1649.6083 1168.9938 1648.625 1172.75 C 1648.343 1193.427 1651.8812 1214.0061 1649.5312 1234.6562 C 1648.5117 1248.4582 1645.8805 1262.0681 1647.4062 1276 C 1647.4713 1294.7138 1646.7467 1313.5423 1648.4688 1332.125 C 1646.3103 1351.0576 1650.0885 1370.0051 1649.2812 1388.9062 C 1645.218 1397.7057 1648.2062 1407.8275 1647.4688 1417.1875 C 1647.4068 1429.1061 1645.6704 1441.2349 1648.125 1452.9375 C 1647.1379 1469.8417 1646.7739 1486.781 1646.4062 1503.7188 C 1646.5412 1508.493 1642.1639 1514.4946 1646.7188 1518.4688 C 1645.2644 1552.1793 1645.9357 1586.0331 1647.875 1619.6562 C 1642.4817 1625.1483 1645.8515 1633.5605 1644.8125 1640.3438 C 1644.5042 1644.7027 1643.6069 1652.1784 1637.625 1651.2188 C 1633.6304 1652.6146 1630.5074 1650.2169 1627.0625 1649 C 1621.5228 1648.4636 1616.4007 1651.7944 1610.7812 1650.625 C 1588.595 1651.4445 1566.3997 1650.4418 1544.25 1649.6562 C 1535.8269 1649.9733 1526.962 1651.3961 1519.0312 1648 C 1504.7562 1647.8445 1490.4418 1646.6239 1476.125 1647.7812 C 1461.077 1649.0318 1446.0349 1648.3795 1431.0312 1647.0312 C 1415.5179 1648.0745 1399.7257 1647.3773 1384.375 1649.625 C 1377.9585 1651.7909 1370.9079 1649.4132 1364.2812 1650.8438 C 1345.1574 1651.3098 1326.0307 1650.0999 1306.9062 1650.3438 C 1287.0971 1649.6498 1267.1422 1649.2221 1247.4062 1649.0938 C 1240.5095 1646.9928 1233.1832 1649.8507 1226.0625 1649.1875 C 1199.7894 1649.8508 1173.416 1650.3299 1147.2188 1651.5625 C 1144.6011 1650.0625 1141.664 1648.0545 1138.5625 1650.0625 C 1134.0382 1651.2447 1128.8707 1649.906 1124.0625 1650.8438 C 1108.7144 1652.4071 1093.2959 1650.5798 1077.9688 1651.4688 C 1069.2224 1653.8161 1059.4879 1652.8763 1050.7188 1652.8438 C 1044.8208 1647.8356 1036.5341 1651.4975 1029.5625 1650.0938 C 1015.2278 1649.9991 1000.9185 1651.8144 986.625 1650.5938 C 965.71778 1651.1622 944.74382 1651.3664 923.84375 1651.0938 C 911.91237 1649.2701 899.7283 1653.4796 887.90625 1650.5 C 876.59759 1649.7025 865.34396 1652.2715 854.03125 1651.5312 C 838.6722 1652.1393 823.09723 1653.0628 807.84375 1652.5625 C 801.60302 1650.6516 795.45363 1655.0648 789.0625 1653.6562 C 765.92791 1653.4764 742.85829 1651.1078 719.71875 1651.1875 C 703.61914 1650.4422 687.16463 1650.9116 671.3125 1649.5625 C 663.78431 1652.1038 655.20031 1650.4931 647.15625 1651.1562 C 631.74506 1649.5572 616.33196 1651.461 600.90625 1651.4375 C 576.18392 1648.7681 551.13115 1646.9738 526.21875 1646.0938 C 508.19418 1646.5569 490.04419 1643.3283 472.125 1645.3125 C 458.2848 1642.8988 444.14969 1645.0833 430.1875 1644.4062 C 422.66074 1644.6806 414.90284 1645.35 407.6875 1643.0312 C 405.23502 1642.2057 400.58422 1644.0282 399.5625 1642.2812 C 399.6541 1640.1785 398.36164 1638.2311 396.5625 1637.2188 C 402.42379 1636.4933 408.67773 1638.5647 414.21875 1637.1875 C 418.32353 1633.5186 423.82755 1635.0427 428.84375 1634.6875 C 433.76413 1634.8106 439.26456 1636.7747 443 1632.875 C 467.74028 1634.7503 492.72412 1637.3291 517.65625 1636.25 C 541.53386 1635.7697 565.10635 1639.1651 588.75 1641.0625 C 594.62741 1641.3595 601.71848 1645.663 606.9375 1641.2812 C 624.78594 1640.7085 642.81015 1640.2722 660.5625 1640.9062 C 678.78483 1639.1625 697.22759 1639.517 715.46875 1640.6562 C 722.49709 1641.2688 729.57457 1640.8696 736.5 1640.0312 C 742.52541 1636.6637 750.25344 1639.1045 756.96875 1638.4688 C 765.18248 1639.0414 773.77254 1638.39 781.53125 1640.875 C 791.96435 1639.5553 802.73824 1643.5348 812.9375 1641.6562 C 817.38258 1639.2324 822.99402 1642.1139 827.875 1640.9062 C 842.49858 1640.2039 857.60593 1643.1834 871.9375 1641.3125 C 874.5032 1637.3121 878.97292 1640.9801 882.71875 1639.9375 C 888.5866 1638.8843 894.3148 1640.703 900.0625 1640.5938 C 906.98617 1638.5099 913.82864 1642.5518 920.9375 1641.9062 C 946.53218 1641.6619 972.20184 1642.7094 997.71875 1640.3125 C 1007.6152 1639.3857 1017.4147 1641.0472 1027.2188 1641.2812 C 1038.1083 1639.2699 1048.9552 1641.6139 1059.8438 1641.7812 C 1072.023 1639.6374 1084.5809 1642.0025 1096.9062 1640.4062 C 1112.9752 1640.5086 1129.1079 1638.743 1145.0938 1638.875 C 1159.9193 1639.6306 1174.962 1638.3602 1189.875 1638.875 C 1202.9453 1639.1546 1216.4177 1638.4259 1229.25 1638.9062 C 1232.8058 1641.5575 1237.6463 1639.2032 1241.375 1640.5 C 1254.2222 1639.384 1267.3621 1640.3633 1280 1638.0625 C 1284.1856 1638.728 1288.2121 1637.516 1291.9688 1636.1875 C 1302.9193 1636.093 1314.127 1637.9253 1324.75 1634.6562 C 1336.5913 1633.9578 1348.3942 1636.2932 1360.25 1635.7188 C 1360.7775 1637.6244 1361.3339 1641.2525 1364.3125 1641.9375 C 1369.9129 1643.5401 1375.788 1640.5627 1381.625 1641.4375 C 1390.1036 1641.0441 1399.5065 1642.4045 1407.4062 1639.5312 C 1409.0783 1635.3988 1414.626 1638.1457 1418.125 1636.8438 C 1440.4888 1635.149 1462.8336 1637.1 1485.0312 1639.75 C 1500.4543 1641.1374 1516.0672 1640.399 1531.375 1638.5938 C 1540.9624 1637.5049 1550.9621 1639.3003 1560.7188 1638.4688 C 1573.8944 1638.1503 1587.0663 1637.3466 1600.25 1637.6875 C 1598.7483 1634.7998 1603.7066 1635.6831 1605.5625 1635 C 1612.3482 1634.6261 1620.6137 1636.4008 1626.1875 1632.5312 C 1629.2561 1633.797 1634.5203 1633.008 1633.4062 1628.5938 C 1634.5194 1624.9544 1629.9861 1622.8316 1631.6875 1619.4062 C 1634.3367 1599.1175 1629.8429 1578.6275 1632.4375 1558.3125 C 1630.3523 1532.2425 1629.6089 1506.0001 1630.1875 1479.8125 C 1630.9665 1449.4908 1630.2677 1419.1585 1631 1388.8438 C 1636.3518 1389.4102 1640.2937 1381.1624 1634.6875 1378.6562 C 1631.4766 1377.5821 1634.0783 1372.5474 1632.8125 1369.9688 C 1631.8654 1350.4377 1632.9493 1330.7332 1633.9062 1311.3125 C 1637.9315 1307.3087 1634.3775 1301.417 1635.3125 1296.5 C 1634.3912 1278.9425 1637.7465 1261.488 1638 1244.0312 C 1637.3142 1230.5531 1640.4608 1215.9433 1634.8125 1203.4375 C 1633.2886 1192.6095 1635.4521 1181.9293 1636.6562 1171.25 C 1637.1525 1159.6474 1636.6153 1147.8881 1637.375 1136.375 C 1634.1613 1126.6594 1639.1869 1116.6005 1638.8125 1106.6562 C 1639.2089 1102.911 1639.2849 1097.9334 1635.6562 1096.375 C 1636.1745 1091.7627 1635.0958 1086.8745 1637.6562 1082.9375 C 1638.1626 1079.8797 1635.3093 1077.4817 1637.0312 1074.4375 C 1637.9578 1070.6416 1636.2553 1066.4831 1633.5625 1064.3438 C 1637.2832 1057.1027 1633.4555 1048.5939 1634.1562 1040.8125 C 1633.1424 1013.184 1634.5566 985.37759 1638.3438 958.09375 C 1638.3727 954.33315 1638.2659 949.67641 1635.0312 947.59375 C 1633.7381 938.77323 1635.1818 929.95271 1636.625 921.3125 C 1636.437 908.82461 1637.6503 896.00894 1636.875 883.71875 C 1634.9054 872.50075 1639.9655 861.27008 1638.7812 849.90625 C 1639.9914 846.31111 1634.2731 846.41133 1635.7812 843.25 C 1636.0147 839.25524 1635.3075 835.10241 1637.5938 831.78125 C 1638.273 828.4698 1634.9933 825.73414 1637.0625 822.46875 C 1637.3313 817.66969 1635.8364 812.99653 1636.75 808.0625 C 1637.4867 787.23303 1640.0123 766.26369 1639.4375 745.5 C 1638.7772 742.78893 1634.9458 742.7672 1636.625 739.34375 C 1638.836 710.91991 1640.1622 682.2685 1643.5625 654.0625 C 1643.6245 650.96549 1641.9547 647.56481 1639.2188 646.25 C 1640.4518 643.29711 1639.2788 640.07588 1637.5312 637.9375 C 1635.6061 632.14438 1634.6601 626.24252 1635.25 620.03125 C 1634.4562 597.89358 1635.2817 575.71759 1638.0625 553.8125 C 1638.8037 542.80982 1638.8105 531.64019 1636.5625 520.875 C 1635.9754 516.07165 1640.2476 512.32178 1638.8438 507.34375 C 1638.5751 495.6954 1635.8192 483.72298 1637.9688 472.21875 C 1640.5611 464.04244 1636.4531 455.11394 1639.625 447.125 C 1639.0715 440.18363 1638.2091 432.76949 1641.4688 426.4375 C 1641.8206 415.78977 1641.122 405.0568 1642.3438 394.375 C 1641.6801 389.23342 1645.6506 382.47073 1641.8438 378.15625 C 1638.4841 377.28935 1640.9176 373.27416 1638.5312 371.0625 C 1637.0349 368.17245 1633.5081 366.18964 1630.5625 368.125 C 1611.6537 364.07561 1592.2497 368.64656 1573.0938 367.90625 C 1555.4924 368.24257 1537.895 367.21426 1520.3438 368.53125 C 1489.824 367.72568 1459.2594 367.82896 1428.7812 366.0625 C 1413.1623 366.53911 1397.448 367.22487 1381.9062 365.5625 C 1378.552 363.86848 1374.6206 361.49365 1370.75 363.6875 C 1357.9535 365.41592 1344.8443 361.8743 1332.1562 363.75 C 1326.1822 366.94669 1318.6877 364.51521 1312.0938 365.03125 C 1280.5025 363.22964 1248.8214 368.33998 1217.2812 364.46875 C 1212.5911 364.34265 1207.4489 362.23525 1202.8438 364.0625 C 1192.3938 360.22859 1180.7975 359.68597 1170.7188 354.71875 C 1175.2897 354.30096 1180.3057 353.89015 1184.2188 356.34375 C 1204.0555 355.41829 1224.1764 353.61016 1243.9062 354.75 C 1249.6698 356.18891 1255.4545 352.87575 1261.3438 354.28125 C 1272.7571 354.05813 1284.6759 354.4126 1295.7188 352.59375 C 1301.5059 349.74932 1308.7321 352.61565 1315.0625 352.03125 C 1340.1991 352.92873 1365.3597 350.73122 1390.4688 351.5 C 1397.7199 354.46749 1405.9493 352.18091 1413.625 352.6875 C 1437.0939 352.85894 1460.5636 352.51997 1484.0312 352.75 C 1503.8085 351.81539 1523.7742 352.50788 1543.5 352.28125 C 1545.8635 351.92938 1548.1108 350.4103 1550.5625 350.3125 z M 1022.3438 353.25 C 1025.3834 355.08075 1028.7014 356.44094 1032.4062 355.46875 C 1040.6198 354.88163 1048.5561 356.28501 1056.75 355.03125 C 1072.5893 354.07253 1088.3889 355.60745 1104.2188 354.1875 C 1120.3899 354.78933 1136.8274 351.65193 1152.7812 354.6875 C 1156.8101 355.02071 1162.6464 353.94518 1165.4688 354.65625 C 1161.6608 357.48939 1163.8125 363.20348 1167.7812 364.625 C 1152.4849 362.92599 1137.1965 366.359 1121.8438 366.0625 C 1089.1754 366.95734 1056.4552 367.89649 1023.8438 365.125 C 1017.9299 363.8898 1012.4339 365.59417 1006.8438 367.125 C 988.88434 366.07288 970.29978 367.1595 952.5625 364.09375 C 942.027 360.19115 930.49126 359.7559 920.34375 354.71875 C 924.88858 354.3297 929.92148 353.84274 933.78125 356.34375 C 963.24575 354.30394 992.93055 354.26978 1022.3438 353.25 z M 380 380 L 620 380 L 620 620 L 380 620 L 380 380 z M 630 380 L 870 380 L 870 620 L 630 620 L 630 380 z M 880 380 L 1120 380 L 1120 620 L 880 620 L 880 380 z M 1130 380 L 1370 380 L 1370 620 L 1130 620 L 1130 380 z M 1380 380 L 1620 380 L 1620 620 L 1380 620 L 1380 380 z M 380 630 L 620 630 L 620 870 L 380 870 L 380 630 z M 630 630 L 870 630 L 870 870 L 630 870 L 630 630 z M 880 630 L 1120 630 L 1120 870 L 880 870 L 880 630 z M 1130 630 L 1370 630 L 1370 870 L 1130 870 L 1130 630 z M 1380 630 L 1620 630 L 1620 870 L 1380 870 L 1380 630 z M 380 880 L 620 880 L 620 1120 L 380 1120 L 380 880 z M 630 880 L 870 880 L 870 1120 L 630 1120 L 630 880 z M 880 880 L 1120 880 L 1120 1120 L 880 1120 L 880 880 z M 1130 880 L 1370 880 L 1370 1120 L 1130 1120 L 1130 880 z M 1380 880 L 1620 880 L 1620 1120 L 1380 1120 L 1380 880 z M 380 1130 L 620 1130 L 620 1370 L 380 1370 L 380 1130 z M 630 1130 L 870 1130 L 870 1370 L 630 1370 L 630 1130 z M 880 1130 L 1120 1130 L 1120 1370 L 880 1370 L 880 1130 z M 1130 1130 L 1370 1130 L 1370 1370 L 1130 1370 L 1130 1130 z M 1380 1130 L 1620 1130 L 1620 1370 L 1380 1370 L 1380 1130 z M 380 1380 L 620 1380 L 620 1620 L 380 1620 L 380 1380 z M 630 1380 L 870 1380 L 870 1620 L 630 1620 L 630 1380 z M 880 1380 L 1120 1380 L 1120 1620 L 880 1620 L 880 1380 z M 1130 1380 L 1370 1380 L 1370 1620 L 1130 1620 L 1130 1380 z M 1380 1380 L 1620 1380 L 1620 1620 L 1380 1620 L 1380 1380 z "
       transform="translate(0,-947.63782)"
       id="path4110" />
  </g>
</svg>
