<?xml version="1.0" encoding="UTF-8" standalone="no"?>
<!-- Created with Inkscape (http://www.inkscape.org/) -->

<svg
   xmlns:dc="http://purl.org/dc/elements/1.1/"
   xmlns:cc="http://creativecommons.org/ns#"
   xmlns:rdf="http://www.w3.org/1999/02/22-rdf-syntax-ns#"
   xmlns:svg="http://www.w3.org/2000/svg"
   xmlns="http://www.w3.org/2000/svg"
   xmlns:sodipodi="http://sodipodi.sourceforge.net/DTD/sodipodi-0.dtd"
   xmlns:inkscape="http://www.inkscape.org/namespaces/inkscape"
   width="512"
   height="512"
   id="svg2"
   version="1.1"
   inkscape:version="0.48.4 r9939"
   sodipodi:docname="border_E.svg"
   inkscape:export-filename="/home/nathan/documents/bee_puzzled/svgs/border_N.png"
   inkscape:export-xdpi="90"
   inkscape:export-ydpi="90">
  <defs
     id="defs4" />
  <sodipodi:namedview
     id="base"
     pagecolor="#ffffff"
     bordercolor="#666666"
     borderopacity="1.0"
     inkscape:pageopacity="0.0"
     inkscape:pageshadow="2"
     inkscape:zoom="0.75225237"
     inkscape:cx="39.853321"
     inkscape:cy="220.86115"
     inkscape:document-units="px"
     inkscape:current-layer="layer1"
     showgrid="false"
     inkscape:window-width="1276"
     inkscape:window-height="782"
     inkscape:window-x="0"
     inkscape:window-y="14"
     inkscape:window-maximized="0" />
  <metadata
     id="metadata7">
    <rdf:RDF>
      <cc:Work
         rdf:about="">
        <dc:format>image/svg+xml</dc:format>
        <dc:type
           rdf:resource="http://purl.org/dc/dcmitype/StillImage" />
        <dc:title></dc:title>
      </cc:Work>
    </rdf:RDF>
  </metadata>
  <g
     inkscape:label="Layer 1"
     inkscape:groupmode="layer"
     id="layer1"
     transform="translate(0,-540.36218)">
    <path
       style="fill:#000000"
       d="m 86.40623,597.98718 c 1.3729,0.078 7.3876,-0.51036 13.3438,-1.3125 5.9562,-0.80216 11.2586,-1.16005 11.8125,-0.78125 0.5539,0.37879 3.2833,0.23301 6.0625,-0.34375 3.8949,-0.80826 6.2705,-0.70949 10.3437,0.34375 3.4296,0.88678 6.651,1.06559 9.1875,0.59375 2.4697,-0.45941 5.8236,-0.215 9.0625,0.59375 4.4841,1.11967 5.6338,1.01372 9.25,-0.625 3.6643,-1.66047 5.5294,-1.77903 16.3438,-0.9375 6.7101,0.52216 15.1315,0.74596 18.7187,0.46875 3.8805,-0.29983 8.5236,-0.019 11.5,0.71875 3.8767,0.96079 6.9544,0.95126 13.5938,-0.0313 10.1892,-1.50771 22.4285,-2.43205 37.3437,-2.875 1.0744,0.0541 2.1541,0.1007 3.4375,0.15625 4.5123,0.19534 10.3653,0.38795 18.0625,0.65625 17.73601,0.61825 35.18512,0.84314 38.78129,0.46875 3.59616,-0.37439 14.68401,-1.2188 24.625,-1.875 9.941,-0.65617 21.67291,-1.49545 26.09375,-1.84375 4.42085,-0.3485 14.56344,-0.3401 22.53125,0 7.96782,0.3396 20.9725,0.5276 28.90625,0.4375 11.83671,-0.1344 15.07253,0.15881 17.90625,1.5 2.06326,0.97653 4.67999,1.41531 6.53125,1.125 1.7042,-0.26723 8.96614,-1.04949 16.15625,-1.75 11.28024,-1.099 18.86517,-1.00383 55.28125,0.78125 0.28386,0.0139 0.43821,0.0175 0.71875,0.0313 l 0,-12.03125 c -3.70354,-0.0867 -7.51704,-0.1621 -10.90625,-0.25 -14.02318,-0.3639 -30.17645,-0.3919 -35.90625,-0.0937 -5.7298,0.2983 -14.52305,0.2976 -19.53125,0.0313 -5.0082,-0.2661 -14.98726,-0.2441 -22.15625,0 -7.16898,0.2445 -25.39794,0.2953 -40.53125,0.125 -15.1333,-0.1706 -32.0444,-0.10725 -37.5625,0.15625 -15.14124,0.7233 -61.3772,0.48705 -67.03124,-0.34375 -3.6755,-0.54001 -9.4154,-0.43336 -14.6563,0.0625 -7.0994,-0.15968 -17.5299,0.1198 -23.875,0.65625 -6.633,0.561 -21.4158,0.99685 -32.8437,0.96875 -11.4279,-0.028 -21.1876,0.1591 -21.6875,0.4375 -0.5,0.2779 -7.8684,0.8856 -16.3438,1.3125 -8.4753,0.427 -18.7932,1.02415 -22.9375,1.34375 -10.0978,0.7785 -56.1991,0.9445 -68.0625,0.25 -5.2164,-0.3055 -14.6484,-1.29555 -20.9375,-2.21875 C 50.463,582.92943 39.0026,582.14008 30.0937,582.04978 23.6252,581.98458 11.6202,581.72796 0,581.45603 l 0,12.03125 c 30.8983,1.50932 41.8239,1.75043 42.75,0.90625 1.8705,-1.70494 4.6013,-1.24894 7.75,1.3125 2.71263,2.2067 3.37513,2.29277 18.12503,2.21875 8.4209,-0.0422 16.4084,-0.0158 17.7812,0.0625 z m -0.3437,-31.34375 c 1.163,-0.0543 2.5186,-0.5604 4.0625,-1.5 1.9222,-1.1698 7.5826,-2.9984 12.5625,-4.0625 4.9799,-1.0642 11.2013,-2.4759 13.8125,-3.125 2.6112,-0.649 7.5632,-1.0326 11.0312,-0.875 5.9522,0.2706 10.9718,-0.15875 23.9375,-2.03125 9.5106,-1.3733 31.9091,-1.54239 71.7813,-2.71875 36.7466,-1.08415 38.9576,-5.22417 73.81249,-6.78125 3.58501,-0.1335 15.61578,-0.5435 24.71875,-0.9375 9.10296,-0.394 17.15694,1.6613 17.875,1.6875 1.99249,0.072 8.75493,2.2724 10.625,7.125 1.15254,2.9907 2.46633,4.5179 4.28125,4.5625 1.81494,0.044 4.14081,-1.39435 7.21875,-4.28125 4.2267,-3.9643 4.92893,-4.277 9.5625,-4.0625 2.75967,0.1278 6.97666,-0.0852 9.34375,-0.5 8.75884,-1.5335 24.59449,-3.24655 29.9375,-3.21875 10.26912,0.053 23.49626,0.3709 26.25,0.625 2.15258,0.1987 2.70325,0.7364 2.59375,2.5 -0.0767,1.2353 -0.81735,3.34495 -1.625,4.65625 -2.7557,4.4742 -0.19878,6.1543 6.6875,4.4375 1.71061,-0.4265 5.60746,-1.1187 8.65625,-1.5625 3.04879,-0.4438 9.61901,-1.7181 14.625,-2.8125 5.00598,-1.0944 12.48677,-2.15345 16.625,-2.34375 4.13823,-0.1901 11.17985,-1.064 15.625,-1.9375 3.35575,-0.65942 7.46419,-1.21567 11.9375,-1.65625 l 0,-7.46875 -512.00002,0 0,7.46875 c 21.0271,-2.071 50.7232,-1.69993 54.84373,1.28125 1.6402,1.1866 4.3148,1.75945 8.3125,1.84375 5.8239,0.1228 18.6038,1.7476 21.1563,2.6875 1.0067,0.3707 0.7611,1.25185 -0.9688,3.78125 -1.7627,2.5774 -2.0331,3.83805 -1.375,5.84375 0.7622,2.32294 2.1554,3.46555 4.0938,3.375 z m 16.9375,-14.71875 c -0.7917,-0.037 -1.4005,-0.5131 -1.375,-1.0625 0.025,-0.5495 0.9625,-0.95865 2.0937,-0.90625 1.1313,0.053 1.7713,0.5288 1.4063,1.0625 -0.365,0.5337 -1.3333,0.94295 -2.125,0.90625 z"
       id="path3060"
       inkscape:connector-curvature="0" />
  </g>
</svg>
