<?xml version="1.0" encoding="UTF-8" standalone="no"?>
<!-- Created with Inkscape (http://www.inkscape.org/) -->

<svg
   xmlns:dc="http://purl.org/dc/elements/1.1/"
   xmlns:cc="http://creativecommons.org/ns#"
   xmlns:rdf="http://www.w3.org/1999/02/22-rdf-syntax-ns#"
   xmlns:svg="http://www.w3.org/2000/svg"
   xmlns="http://www.w3.org/2000/svg"
   xmlns:sodipodi="http://sodipodi.sourceforge.net/DTD/sodipodi-0.dtd"
   xmlns:inkscape="http://www.inkscape.org/namespaces/inkscape"
   width="512"
   height="512"
   id="svg2"
   version="1.1"
   inkscape:version="0.48.4 r9939"
   sodipodi:docname="border_W.svg"
   inkscape:export-filename="/home/nathan/documents/bee_puzzled/svgs/border_N.png"
   inkscape:export-xdpi="90"
   inkscape:export-ydpi="90">
  <defs
     id="defs4" />
  <sodipodi:namedview
     id="base"
     pagecolor="#ffffff"
     bordercolor="#666666"
     borderopacity="1.0"
     inkscape:pageopacity="0.0"
     inkscape:pageshadow="2"
     inkscape:zoom="2.2148437"
     inkscape:cx="358.9418"
     inkscape:cy="83.517806"
     inkscape:document-units="px"
     inkscape:current-layer="layer1"
     showgrid="false"
     inkscape:window-width="1276"
     inkscape:window-height="782"
     inkscape:window-x="0"
     inkscape:window-y="14"
     inkscape:window-maximized="0" />
  <metadata
     id="metadata7">
    <rdf:RDF>
      <cc:Work
         rdf:about="">
        <dc:format>image/svg+xml</dc:format>
        <dc:type
           rdf:resource="http://purl.org/dc/dcmitype/StillImage" />
        <dc:title></dc:title>
      </cc:Work>
    </rdf:RDF>
  </metadata>
  <g
     inkscape:label="Layer 1"
     inkscape:groupmode="layer"
     id="layer1"
     transform="translate(0,-540.36218)">
    <path
       style="fill:#000000"
       d="M 459.625 455.40625 C 459.6457 455.61712 459.667 455.78911 459.6875 456 C 460.10681 460.30386 460.36214 464.09042 460.40625 469.125 C 460.41994 470.68812 460.40095 472.35697 460.375 474.21875 C 460.36648 474.84408 460.35697 475.33275 460.34375 476 C 460.31484 477.51019 460.27215 478.98929 460.21875 480.75 C 460.17752 482.11636 460.15044 483.26721 460.09375 484.8125 C 460.04516 486.16097 459.9982 487.37271 459.9375 488.875 C 459.9161 489.40394 459.89795 489.98168 459.875 490.53125 C 459.63468 496.287 459.32139 502.81241 458.90625 511.28125 C 458.89235 511.56515 458.8888 511.7194 458.875 512 L 470.90625 512 C 470.99295 508.2964 471.06835 504.48295 471.15625 501.09375 C 471.44654 489.90707 471.5073 477.46241 471.375 469.9375 C 474.98943 470.13544 478.61312 470.27912 481.90625 470.3125 C 488.37475 470.3775 500.3798 470.63435 512 470.90625 L 512 458.875 C 505.79423 458.57186 500.3911 458.32478 495.71875 458.125 C 491.0464 457.92522 487.11494 457.75732 483.8125 457.65625 C 480.74173 457.56227 478.27275 457.51251 476.25 457.5 C 474.9753 457.49095 473.89884 457.50829 473 457.53125 C 472.2229 457.55039 471.5891 457.58379 471.0625 457.625 C 470.03145 457.70568 469.43209 457.80277 469.25 457.96875 C 467.3795 459.67372 464.6487 459.21769 461.5 456.65625 C 460.83456 456.11492 460.28193 455.72129 459.625 455.40625 z M 512 504.53125 C 509.35263 504.79199 506.57261 505.00451 503.71875 505.1875 C 504.02052 507.32117 504.2944 509.59519 504.53125 512 L 512 512 L 512 504.53125 z "
       transform="translate(0,540.36218)"
       id="path3216" />
  </g>
</svg>
