<?xml version="1.0" encoding="UTF-8" standalone="no"?>
<!-- Created with Inkscape (http://www.inkscape.org/) -->

<svg
   xmlns:dc="http://purl.org/dc/elements/1.1/"
   xmlns:cc="http://creativecommons.org/ns#"
   xmlns:rdf="http://www.w3.org/1999/02/22-rdf-syntax-ns#"
   xmlns:svg="http://www.w3.org/2000/svg"
   xmlns="http://www.w3.org/2000/svg"
   xmlns:sodipodi="http://sodipodi.sourceforge.net/DTD/sodipodi-0.dtd"
   xmlns:inkscape="http://www.inkscape.org/namespaces/inkscape"
   width="512"
   height="512"
   id="svg2"
   version="1.1"
   inkscape:version="0.48.4 r9939"
   sodipodi:docname="border_N.svg"
   inkscape:export-filename="/home/nathan/documents/bee_puzzled/svgs/border_N.png"
   inkscape:export-xdpi="90"
   inkscape:export-ydpi="90">
  <defs
     id="defs4" />
  <sodipodi:namedview
     id="base"
     pagecolor="#ffffff"
     bordercolor="#666666"
     borderopacity="1.0"
     inkscape:pageopacity="0.0"
     inkscape:pageshadow="2"
     inkscape:zoom="0.75225237"
     inkscape:cx="39.853321"
     inkscape:cy="220.86115"
     inkscape:document-units="px"
     inkscape:current-layer="layer1"
     showgrid="false"
     inkscape:window-width="1276"
     inkscape:window-height="782"
     inkscape:window-x="0"
     inkscape:window-y="14"
     inkscape:window-maximized="0" />
  <metadata
     id="metadata7">
    <rdf:RDF>
      <cc:Work
         rdf:about="">
        <dc:format>image/svg+xml</dc:format>
        <dc:type
           rdf:resource="http://purl.org/dc/dcmitype/StillImage" />
        <dc:title></dc:title>
      </cc:Work>
    </rdf:RDF>
  </metadata>
  <g
     inkscape:label="Layer 1"
     inkscape:groupmode="layer"
     id="layer1"
     transform="translate(0,-540.36218)">
    <path
       style="fill:#000000"
       d="m 57.625,965.95597 c 0.078,-1.3729 -0.51036,-7.3876 -1.3125,-13.3438 -0.80216,-5.9562 -1.16005,-11.2586 -0.78125,-11.8125 0.37879,-0.5539 0.23301,-3.2833 -0.34375,-6.0625 -0.80826,-3.8949 -0.70949,-6.2705 0.34375,-10.3437 0.88678,-3.4296 1.06559,-6.651 0.59375,-9.1875 -0.45941,-2.4697 -0.215,-5.8236 0.59375,-9.0625 1.11967,-4.4841 1.01372,-5.6338 -0.625,-9.25 -1.66047,-3.6643 -1.77903,-5.5294 -0.9375,-16.3438 0.52216,-6.7101 0.74596,-15.1315 0.46875,-18.7187 -0.29983,-3.8805 -0.019,-8.5236 0.71875,-11.5 0.96079,-3.8767 0.95126,-6.9544 -0.0313,-13.5938 -1.50771,-10.1892 -2.43205,-22.4285 -2.875,-37.3437 0.0541,-1.0744 0.1007,-2.1541 0.15625,-3.4375 0.19534,-4.5123 0.38795,-10.3653 0.65625,-18.0625 0.61825,-17.73601 0.84314,-35.18512 0.46875,-38.78129 -0.37439,-3.59616 -1.2188,-14.68401 -1.875,-24.625 -0.65617,-9.941 -1.49545,-21.67291 -1.84375,-26.09375 -0.3485,-4.42085 -0.3401,-14.56344 0,-22.53125 0.3396,-7.96782 0.5276,-20.9725 0.4375,-28.90625 -0.1344,-11.83671 0.15881,-15.07253 1.5,-17.90625 0.97653,-2.06326 1.41531,-4.67999 1.125,-6.53125 -0.26723,-1.7042 -1.04949,-8.96614 -1.75,-16.15625 -1.099,-11.28024 -1.00383,-18.86517 0.78125,-55.28125 0.0139,-0.28386 0.0175,-0.43821 0.0313,-0.71875 l -12.03125,0 c -0.0867,3.70354 -0.1621,7.51704 -0.25,10.90625 -0.3639,14.02318 -0.3919,30.17645 -0.0937,35.90625 0.2983,5.7298 0.2976,14.52305 0.0313,19.53125 -0.2661,5.0082 -0.2441,14.98726 0,22.15625 0.2445,7.16898 0.2953,25.39794 0.125,40.53125 -0.1706,15.1333 -0.10725,32.0444 0.15625,37.5625 0.7233,15.14124 0.48705,61.3772 -0.34375,67.03124 -0.54001,3.6755 -0.43336,9.4154 0.0625,14.6563 -0.15968,7.0994 0.1198,17.5299 0.65625,23.875 0.561,6.633 0.99685,21.4158 0.96875,32.8437 -0.028,11.4279 0.1591,21.1876 0.4375,21.6875 0.2779,0.5 0.8856,7.8684 1.3125,16.3438 0.427,8.4753 1.02415,18.7932 1.34375,22.9375 0.7785,10.0978 0.9445,56.1991 0.25,68.0625 -0.3055,5.2164 -1.29555,14.6484 -2.21875,20.9375 -0.9641,6.56823 -1.75345,18.02863 -1.84375,26.93753 -0.0652,6.4685 -0.32182,18.4735 -0.59375,30.0937 l 12.03125,0 c 1.50932,-30.8983 1.75043,-41.8239 0.90625,-42.75 -1.70494,-1.8705 -1.24894,-4.6013 1.3125,-7.75 2.2067,-2.71263 2.29277,-3.37513 2.21875,-18.12503 -0.0422,-8.4209 -0.0158,-16.4084 0.0625,-17.7812 z m -31.34375,0.3437 c -0.0543,-1.163 -0.5604,-2.5186 -1.5,-4.0625 -1.1698,-1.9222 -2.9984,-7.5826 -4.0625,-12.5625 -1.0642,-4.9799 -2.4759,-11.2013 -3.125,-13.8125 -0.649,-2.6112 -1.0326,-7.5632 -0.875,-11.0312 0.2706,-5.9522 -0.15875,-10.9718 -2.03125,-23.9375 -1.3733,-9.5106 -1.54239,-31.9091 -2.71875,-71.7813 C 10.8846,792.36557 6.74458,790.15457 5.1875,755.29968 5.054,751.71467 4.644,739.6839 4.25,730.58093 c -0.394,-9.10296 1.6613,-17.15694 1.6875,-17.875 0.072,-1.99249 2.2724,-8.75493 7.125,-10.625 2.9907,-1.15254 4.5179,-2.46633 4.5625,-4.28125 0.044,-1.81494 -1.39435,-4.14081 -4.28125,-7.21875 -3.9643,-4.2267 -4.277,-4.92893 -4.0625,-9.5625 0.1278,-2.75967 -0.0852,-6.97666 -0.5,-9.34375 -1.5335,-8.75884 -3.24655,-24.59449 -3.21875,-29.9375 0.053,-10.26912 0.3709,-23.49626 0.625,-26.25 0.1987,-2.15258 0.7364,-2.70325 2.5,-2.59375 1.2353,0.0767 3.34495,0.81735 4.65625,1.625 4.4742,2.7557 6.1543,0.19878 4.4375,-6.6875 -0.4265,-1.71061 -1.1187,-5.60746 -1.5625,-8.65625 -0.4438,-3.04879 -1.7181,-9.61901 -2.8125,-14.625 -1.0944,-5.00598 -2.15345,-12.48677 -2.34375,-16.625 -0.1901,-4.13823 -1.064,-11.17985 -1.9375,-15.625 -0.65942,-3.35575 -1.21567,-7.46419 -1.65625,-11.9375 l -7.46875,0 0,512.00002 7.46875,0 c -2.071,-21.0271 -1.69993,-50.7232 1.28125,-54.84373 1.1866,-1.6402 1.75945,-4.3148 1.84375,-8.3125 0.1228,-5.8239 1.7476,-18.6038 2.6875,-21.1563 0.3707,-1.0067 1.25185,-0.7611 3.78125,0.9688 2.5774,1.7627 3.83805,2.0331 5.84375,1.375 2.32294,-0.7622 3.46555,-2.1554 3.375,-4.0938 z M 11.5625,949.36217 c -0.037,0.7917 -0.5131,1.4005 -1.0625,1.375 -0.5495,-0.025 -0.95865,-0.9625 -0.90625,-2.0937 0.053,-1.1313 0.5288,-1.7713 1.0625,-1.4063 0.5337,0.365 0.94295,1.3333 0.90625,2.125 z"
       id="path3060"
       inkscape:connector-curvature="0" />
  </g>
</svg>
