<?xml version="1.0" encoding="UTF-8" standalone="no"?>
<!-- Created with Inkscape (http://www.inkscape.org/) -->

<svg
   xmlns:dc="http://purl.org/dc/elements/1.1/"
   xmlns:cc="http://creativecommons.org/ns#"
   xmlns:rdf="http://www.w3.org/1999/02/22-rdf-syntax-ns#"
   xmlns:svg="http://www.w3.org/2000/svg"
   xmlns="http://www.w3.org/2000/svg"
   xmlns:sodipodi="http://sodipodi.sourceforge.net/DTD/sodipodi-0.dtd"
   xmlns:inkscape="http://www.inkscape.org/namespaces/inkscape"
   width="512"
   height="512"
   id="svg2"
   version="1.1"
   inkscape:version="0.48.4 r9939"
   sodipodi:docname="border_NW.svg"
   inkscape:export-filename="/home/nathan/documents/bee_puzzled/svgs/border_N.png"
   inkscape:export-xdpi="90"
   inkscape:export-ydpi="90">
  <defs
     id="defs4" />
  <sodipodi:namedview
     id="base"
     pagecolor="#ffffff"
     bordercolor="#666666"
     borderopacity="1.0"
     inkscape:pageopacity="0.0"
     inkscape:pageshadow="2"
     inkscape:zoom="1.1074219"
     inkscape:cx="256"
     inkscape:cy="256"
     inkscape:document-units="px"
     inkscape:current-layer="layer1"
     showgrid="false"
     inkscape:window-width="1276"
     inkscape:window-height="782"
     inkscape:window-x="0"
     inkscape:window-y="14"
     inkscape:window-maximized="0" />
  <metadata
     id="metadata7">
    <rdf:RDF>
      <cc:Work
         rdf:about="">
        <dc:format>image/svg+xml</dc:format>
        <dc:type
           rdf:resource="http://purl.org/dc/dcmitype/StillImage" />
        <dc:title></dc:title>
      </cc:Work>
    </rdf:RDF>
  </metadata>
  <g
     inkscape:label="Layer 1"
     inkscape:groupmode="layer"
     id="layer1"
     transform="translate(0,-540.36218)">
    <path
       style="fill:#000000"
       d="m 56.59375,999.98719 c -0.21087,0.0207 -0.38285,0.042 -0.59375,0.0625 -4.30385,0.4193 -8.09042,0.6746 -13.125,0.7187 -1.56312,0.014 -3.23197,-0 -5.09375,-0.031 -0.62533,-0.01 -1.11399,-0.018 -1.78125,-0.031 -1.51019,-0.029 -2.98928,-0.072 -4.75,-0.125 -1.36635,-0.041 -2.5172,-0.068 -4.0625,-0.125 -1.34847,-0.049 -2.5602,-0.096 -4.0625,-0.1562 -0.52893,-0.021 -1.10667,-0.04 -1.65625,-0.063 -5.75574,-0.24033 -12.28116,-0.55362 -20.75,-0.96876 C 0.43485,999.25444 0.2806,999.25094 0,999.23704 l 0,12.03126 c 3.7036,0.087 7.51705,0.1622 10.90625,0.25 11.18669,0.2903 23.63135,0.351 31.15625,0.2188 -0.19794,3.6144 -0.34161,7.2381 -0.375,10.5312 -0.065,6.4686 -0.32184,18.4736 -0.59375,30.0938 l 12.03125,0 c 0.30314,-6.2058 0.55023,-11.6089 0.75,-16.2812 0.19978,-4.6724 0.36768,-8.6039 0.46875,-11.9063 0.094,-3.0708 0.14374,-5.5398 0.15625,-7.5625 0.009,-1.2748 -0.008,-2.3512 -0.0313,-3.25 -0.0191,-0.7772 -0.0525,-1.4109 -0.0937,-1.9375 -0.0807,-1.031 -0.17777,-1.6305 -0.34375,-1.8125 -1.70497,-1.8705 -1.24894,-4.6014 1.3125,-7.75 0.54134,-0.6655 0.93497,-1.2181 1.25,-1.87506 z m -49.125,52.37501 c -0.26074,-2.6474 -0.47325,-5.4274 -0.65625,-8.2812 -2.13367,0.3017 -4.40769,0.5756 -6.8125,0.8125 l 0,7.4687 7.46875,0 z"
       id="path3216"
       inkscape:connector-curvature="0" />
  </g>
</svg>
