<?xml version="1.0" encoding="UTF-8" standalone="no"?>
<!-- Created with Inkscape (http://www.inkscape.org/) -->

<svg
   xmlns:dc="http://purl.org/dc/elements/1.1/"
   xmlns:cc="http://creativecommons.org/ns#"
   xmlns:rdf="http://www.w3.org/1999/02/22-rdf-syntax-ns#"
   xmlns:svg="http://www.w3.org/2000/svg"
   xmlns="http://www.w3.org/2000/svg"
   xmlns:sodipodi="http://sodipodi.sourceforge.net/DTD/sodipodi-0.dtd"
   xmlns:inkscape="http://www.inkscape.org/namespaces/inkscape"
   width="512"
   height="512"
   id="svg2"
   version="1.1"
   inkscape:version="0.48.4 r9939"
   sodipodi:docname="New document 1">
  <defs
     id="defs4" />
  <sodipodi:namedview
     id="base"
     pagecolor="#ffffff"
     bordercolor="#666666"
     borderopacity="1.0"
     inkscape:pageopacity="0.0"
     inkscape:pageshadow="2"
     inkscape:zoom="0.75225237"
     inkscape:cx="201.36827"
     inkscape:cy="25.619076"
     inkscape:document-units="px"
     inkscape:current-layer="layer1"
     showgrid="false"
     inkscape:window-width="1276"
     inkscape:window-height="782"
     inkscape:window-x="0"
     inkscape:window-y="14"
     inkscape:window-maximized="0" />
  <metadata
     id="metadata7">
    <rdf:RDF>
      <cc:Work
         rdf:about="">
        <dc:format>image/svg+xml</dc:format>
        <dc:type
           rdf:resource="http://purl.org/dc/dcmitype/StillImage" />
        <dc:title></dc:title>
      </cc:Work>
    </rdf:RDF>
  </metadata>
  <g
     inkscape:label="Layer 1"
     inkscape:groupmode="layer"
     id="layer1"
     transform="translate(0,-540.36218)">
    <path
       style="fill:#000000"
       d="m -86.40625,454.375 c -1.37285,-0.078 -7.38756,0.51036 -13.34375,1.3125 -5.95621,0.80216 -11.25863,1.16005 -11.8125,0.78125 -0.55386,-0.37879 -3.28333,-0.23301 -6.0625,0.34375 -3.89488,0.80826 -6.27046,0.70949 -10.34375,-0.34375 -3.4296,-0.88678 -6.65095,-1.06559 -9.1875,-0.59375 -2.4697,0.45941 -5.82357,0.215 -9.0625,-0.59375 -4.48408,-1.11967 -5.63371,-1.01372 -9.25,0.625 -3.66426,1.66047 -5.52939,1.77903 -16.34375,0.9375 -6.71014,-0.52216 -15.13154,-0.74596 -18.71875,-0.46875 -3.88044,0.29983 -8.5236,0.019 -11.5,-0.71875 -3.87669,-0.96079 -6.95436,-0.95121 -13.59375,0.0313 -13.18525,1.95104 -29.76625,2.97047 -51.1875,3.15625 -24.42001,0.21174 -25.81408,0.9185 -15.78125,8.3125 l 4.96875,3.65625 12.875,0.40625 c 7.07859,0.2087 18.27319,-0.0955 24.90625,-0.65625 6.63306,-0.561 21.41586,-0.99685 32.84375,-0.96875 11.42789,0.028 21.18756,-0.1591 21.6875,-0.4375 0.49995,-0.2779 7.86844,-0.8856 16.34375,-1.3125 8.47531,-0.427 18.79329,-1.02415 22.9375,-1.34375 10.09787,-0.7785 56.19918,-0.9445 68.0625,-0.25 5.21645,0.3055 14.64847,1.29555 20.9375,2.21875 6.56824,0.9641 18.02865,1.75345 26.9375,1.84375 8.53014,0.086 26.97682,0.48005 41,0.84375 14.02318,0.3639 30.17645,0.39185 35.90625,0.0937 5.7298,-0.2983 14.52305,-0.29765 19.53125,-0.0313 5.0082,0.2661 14.98726,0.2441 22.15625,0 7.16898,-0.2445 25.39794,-0.2953 40.53125,-0.125 15.1333,0.1706 32.0444,0.10725 37.5625,-0.15625 15.14124,-0.7233 61.3772,-0.48705 67.03125,0.34375 3.67554,0.54001 9.41539,0.43336 14.65625,-0.0625 7.09945,0.15968 17.52992,-0.1198 23.875,-0.65625 6.63306,-0.561 21.41586,-0.99685 32.84375,-0.96875 11.42789,0.028 21.18757,-0.1591 21.6875,-0.4375 0.49995,-0.2779 7.86844,-0.8856 16.34375,-1.3125 8.47531,-0.427 18.79329,-1.02415 22.9375,-1.34375 10.09787,-0.7785 56.19918,-0.9445 68.0625,-0.25 5.21645,0.3055 14.64847,1.29555 20.9375,2.21875 6.56824,0.9641 18.02865,1.75345 26.9375,1.84375 8.53014,0.086 26.97682,0.48005 41,0.84375 14.02318,0.3639 30.17645,0.39185 35.90625,0.0937 5.7298,-0.2983 14.52305,-0.29765 19.53125,-0.0313 5.0082,0.2661 14.98726,0.2441 22.15625,0 7.16898,-0.2445 25.39794,-0.2953 40.53125,-0.125 15.1333,0.1706 32.0444,0.10725 37.5625,-0.15625 15.14124,-0.7233 61.3772,-0.48705 67.03125,0.34375 6.9637,1.0231 21.36125,-0.2158 25.71875,-2.1875 2.5855,-1.1716 4.85145,-1.4069 7.78125,-0.875 6.8509,1.2438 9.85545,-3.11125 5.03125,-7.28125 -1.713,-1.48075 -3.0257,-1.94533 -16.5625,-2.53125 -4.5122,-0.19534 -10.3652,-0.38795 -18.0625,-0.65625 -17.73596,-0.61825 -35.18508,-0.84314 -38.78125,-0.46875 -3.59616,0.37439 -14.68401,1.2188 -24.625,1.875 -9.941,0.65617 -21.67291,1.49545 -26.09375,1.84375 -4.42085,0.3485 -14.56344,0.3401 -22.53125,0 -7.96782,-0.3396 -20.9725,-0.5276 -28.90625,-0.4375 -11.83671,0.1344 -15.07253,-0.15881 -17.90625,-1.5 -2.06326,-0.97653 -4.67999,-1.41531 -6.53125,-1.125 -1.7042,0.26723 -8.96614,1.04949 -16.15625,1.75 -11.28024,1.099 -18.86517,1.00383 -55.28125,-0.78125 -31.54801,-1.54647 -42.5342,-1.78934 -43.46875,-0.9375 -1.87048,1.70494 -4.60128,1.24894 -7.75,-1.3125 -2.71263,-2.2067 -3.3751,-2.29277 -18.125,-2.21875 -8.42091,0.0422 -16.40838,0.0158 -17.78125,-0.0625 -1.37285,-0.078 -7.38756,0.51036 -13.34375,1.3125 -5.95621,0.80216 -11.25863,1.16005 -11.8125,0.78125 -0.55386,-0.37879 -3.28333,-0.23301 -6.0625,0.34375 -3.89488,0.80826 -6.27046,0.70949 -10.34375,-0.34375 -3.4296,-0.88678 -6.65095,-1.06559 -9.1875,-0.59375 -2.4697,0.45941 -5.82357,0.215 -9.0625,-0.59375 -4.48408,-1.11967 -5.63371,-1.01372 -9.25,0.625 -3.66426,1.66047 -5.52939,1.77903 -16.34375,0.9375 -6.71013,-0.52216 -15.13154,-0.74596 -18.71875,-0.46875 -3.88044,0.29983 -8.5236,0.019 -11.5,-0.71875 -3.87669,-0.96079 -6.95436,-0.95121 -13.59375,0.0313 -10.18918,1.50771 -22.42851,2.43205 -37.34375,2.875 -1.07438,-0.0541 -2.15402,-0.1007 -3.4375,-0.15625 -4.51225,-0.19534 -10.36522,-0.38795 -18.0625,-0.65625 -17.73597,-0.61825 -35.18508,-0.84314 -38.78125,-0.46875 -3.59616,0.37439 -14.68401,1.2188 -24.625,1.875 -9.941,0.65617 -21.67291,1.49545 -26.09375,1.84375 -4.42085,0.3485 -14.56344,0.3401 -22.53125,0 -7.96782,-0.3396 -20.9725,-0.5276 -28.90625,-0.4375 -11.83671,0.1344 -15.07253,-0.15881 -17.90625,-1.5 -2.06326,-0.97653 -4.67999,-1.41531 -6.53125,-1.125 -1.7042,0.26723 -8.96614,1.04949 -16.15625,1.75 -11.28024,1.099 -18.86517,1.00383 -55.28125,-0.78125 -31.54801,-1.54647 -42.5342,-1.78934 -43.46875,-0.9375 -1.87048,1.70494 -4.60128,1.24894 -7.75,-1.3125 -2.71263,-2.2067 -3.3751,-2.29277 -18.125,-2.21875 -8.42091,0.0422 -16.40838,0.0158 -17.78125,-0.0625 z m 0.34375,31.34375 c -1.165776,0.0534 -2.518621,0.5604 -4.0625,1.5 -1.92219,1.1698 -7.5826,2.9984 -12.5625,4.0625 -4.9799,1.0642 -11.20133,2.4759 -13.8125,3.125 -2.61116,0.649 -7.56317,1.0326 -11.03125,0.875 -5.95216,-0.2706 -10.97172,0.15875 -23.9375,2.03125 -9.51056,1.3733 -32.1623,1.4054 -72.03125,0.125 -43.0282,-1.382 -44.6351,-1.20695 -44.0625,4.53125 0.24129,2.4183 -0.24408,3.31215 -2.375,4.53125 -4.68497,2.6799 -5.6269,5.7289 -3,9.875 1.68742,2.6633 3.349,2.6648 23.3125,0.125 6.92991,-0.8817 17.77637,-1.30435 27.59375,-1.09375 8.89238,0.1907 17.51765,0.0467 19.1875,-0.34375 2.81324,-0.6579 18.09498,0.72175 30.03125,2.71875 3.72369,0.6229 7.23,0.3465 13.0625,-1 7.36342,-1.7047 11.21276,-1.78105 50.46875,-0.78125 43.38984,1.105 50.96847,1.19285 75.53125,0.71875 7.71515,-0.1486 16.99898,0.12315 20.625,0.59375 3.62601,0.4706 11.72194,0.5795 18,0.25 20.48038,-1.074 110.41431,-1.5279 147.5625,-0.75 7.15073,0.1497 14.36762,0.0364 16.03125,-0.21875 3.07887,-0.4735 13.98957,-0.85495 50.65625,-1.78125 5.92326,-0.14965 12.68005,-0.3486 18.90625,-0.53125 0.24077,0.66636 0.56831,1.36308 1.03125,2.09375 1.68742,2.6633 3.349,2.6648 23.3125,0.125 6.92991,-0.8817 17.77637,-1.30435 27.59375,-1.09375 8.89238,0.1907 17.51765,0.0467 19.1875,-0.34375 2.81324,-0.6579 18.09498,0.72175 30.03125,2.71875 3.72369,0.6229 7.23,0.3465 13.0625,-1 7.36342,-1.7047 11.21276,-1.78105 50.46875,-0.78125 43.38984,1.105 50.96847,1.19285 75.53125,0.71875 7.71515,-0.1486 16.99898,0.12315 20.625,0.59375 3.62601,0.4706 11.72194,0.5795 18,0.25 20.48038,-1.074 110.41431,-1.5279 147.5625,-0.75 7.15073,0.1497 14.36762,0.0364 16.03125,-0.21875 3.07887,-0.4735 13.98957,-0.85495 50.65625,-1.78125 11.3003,-0.2855 26.1681,-0.70975 33.0625,-0.96875 6.8943,-0.2591 15.38785,-0.49545 18.84375,-0.53125 7.3556,-0.075 9.26735,-1.2133 9.46875,-5.5625 0.2689,-5.8066 -1.41085,-7.0483 -9.28125,-6.75 -3.8048,0.1442 -10.7795,0.96935 -15.5,1.84375 -11.8492,2.1947 -36.44705,5.3324 -44.3125,5.625 -3.58501,0.1335 -13.95953,0.5435 -23.0625,0.9375 -9.10296,0.394 -17.15694,0.68245 -17.875,0.65625 -1.99249,-0.072 -6.87993,-6.2724 -8.75,-11.125 -1.15254,-2.9907 -2.46633,-4.5179 -4.28125,-4.5625 -1.81494,-0.044 -4.14081,1.39435 -7.21875,4.28125 -4.2267,3.9643 -4.92893,4.277 -9.5625,4.0625 -2.75967,-0.1278 -6.97666,0.0852 -9.34375,0.5 -8.75884,1.5335 -24.59449,3.24655 -29.9375,3.21875 -10.26912,-0.053 -23.49626,-0.3709 -26.25,-0.625 -2.15258,-0.1987 -2.70325,-0.7364 -2.59375,-2.5 0.0767,-1.2353 0.81735,-3.34495 1.625,-4.65625 2.7557,-4.4742 0.19878,-6.1543 -6.6875,-4.4375 -1.71061,0.4265 -5.60746,1.1187 -8.65625,1.5625 -3.04879,0.4438 -9.61901,1.7181 -14.625,2.8125 -5.00598,1.0944 -12.48677,2.15345 -16.625,2.34375 -4.13823,0.1901 -11.17985,1.064 -15.625,1.9375 -19.12971,3.7591 -61.78413,3.9904 -66.78125,0.375 -1.64015,-1.1866 -4.31474,-1.75945 -8.3125,-1.84375 -5.82386,-0.1228 -18.60376,-1.7476 -21.15625,-2.6875 -1.00673,-0.3707 -0.76109,-1.25185 0.96875,-3.78125 1.76271,-2.5774 2.0331,-3.83805 1.375,-5.84375 -1.2195,-3.7167 -4.03924,-4.3806 -8.15625,-1.875 -1.92219,1.1698 -7.5826,2.9984 -12.5625,4.0625 -4.9799,1.0642 -11.20133,2.4759 -13.8125,3.125 -2.61116,0.649 -7.56317,1.0326 -11.03125,0.875 -5.95216,-0.2706 -10.97172,0.15875 -23.9375,2.03125 -9.51056,1.3733 -31.9241,1.5336 -71.79625,2.70996 -36.74662,1.08415 -38.94886,5.24423 -73.8038,6.80131 -3.58501,0.1335 -15.60451,0.5435 -24.70748,0.9375 -9.10296,0.394 -17.15694,-1.66751 -17.875,-1.69371 -1.99249,-0.072 -8.7599,-2.27746 -10.62997,-7.13006 -1.15254,-2.9907 -2.46633,-4.5179 -4.28125,-4.5625 -1.81494,-0.044 -4.14081,1.39435 -7.21875,4.28125 -4.2267,3.9643 -4.92893,4.277 -9.5625,4.0625 -2.75967,-0.1278 -6.97666,0.0852 -9.34375,0.5 -8.75884,1.5335 -24.59449,3.24655 -29.9375,3.21875 -10.26912,-0.053 -23.49626,-0.3709 -26.25,-0.625 -2.15258,-0.1987 -2.70325,-0.7364 -2.59375,-2.5 0.0767,-1.2353 0.81735,-3.34495 1.625,-4.65625 2.7557,-4.4742 0.19878,-6.1543 -6.6875,-4.4375 -1.71061,0.4265 -5.60746,1.1187 -8.65625,1.5625 -3.04879,0.4438 -9.61901,1.7181 -14.625,2.8125 -5.00598,1.0944 -12.48677,2.15345 -16.625,2.34375 -4.13823,0.1901 -11.17985,1.064 -15.625,1.9375 -19.12971,3.7591 -61.78413,3.9904 -66.78125,0.375 -1.64015,-1.1866 -4.31474,-1.75945 -8.3125,-1.84375 -5.82386,-0.1228 -18.60376,-1.7476 -21.15625,-2.6875 -1.00673,-0.3707 -0.76109,-1.25185 0.96875,-3.78125 1.76271,-2.5774 2.0331,-3.83805 1.375,-5.84375 -0.762187,-2.32294 -2.15079,-3.46406 -4.09375,-3.375 z M -103,500.4375 c 0.7917,0.037 1.40045,0.5131 1.375,1.0625 -0.0254,0.5495 -0.9625,0.95865 -2.09375,0.90625 -1.13124,-0.053 -1.77125,-0.5288 -1.40625,-1.0625 0.36499,-0.5337 1.3333,-0.94295 2.125,-0.90625 z m 512,0 c 0.7917,0.037 1.40045,0.5131 1.375,1.0625 -0.0254,0.5495 -0.9625,0.95865 -2.09375,0.90625 -1.13124,-0.053 -1.77125,-0.5288 -1.40625,-1.0625 0.36499,-0.5337 1.3333,-0.94295 2.125,-0.90625 z"
       transform="translate(0,540.36218)"
       id="path3060"
       inkscape:connector-curvature="0"
       sodipodi:nodetypes="csscsssssccssccccscccccccccccccccsccccccccccccccscssssccsscssssscsscsssssccsccsssccsscssssscscccccsccssssccscscscscssssccscscscsccssccscscsccccsscsscscsssscccccscscscsccccsscsscscssssscccccccccc" />
  </g>
</svg>
