<?xml version="1.0" encoding="UTF-8" standalone="no"?>
<!-- Created with Inkscape (http://www.inkscape.org/) -->

<svg
   xmlns:dc="http://purl.org/dc/elements/1.1/"
   xmlns:cc="http://creativecommons.org/ns#"
   xmlns:rdf="http://www.w3.org/1999/02/22-rdf-syntax-ns#"
   xmlns:svg="http://www.w3.org/2000/svg"
   xmlns="http://www.w3.org/2000/svg"
   xmlns:sodipodi="http://sodipodi.sourceforge.net/DTD/sodipodi-0.dtd"
   xmlns:inkscape="http://www.inkscape.org/namespaces/inkscape"
   width="512"
   height="512"
   id="svg3165"
   version="1.1"
   inkscape:version="0.48.4 r9939"
   sodipodi:docname="New document 13">
  <defs
     id="defs3167" />
  <sodipodi:namedview
     id="base"
     pagecolor="#ffffff"
     bordercolor="#666666"
     borderopacity="1.0"
     inkscape:pageopacity="0.0"
     inkscape:pageshadow="2"
     inkscape:zoom="0.39153274"
     inkscape:cx="256.00001"
     inkscape:cy="256.00001"
     inkscape:document-units="px"
     inkscape:current-layer="layer1"
     showgrid="false"
     showborder="true"
     borderlayer="false"
     inkscape:window-width="1276"
     inkscape:window-height="782"
     inkscape:window-x="0"
     inkscape:window-y="14"
     inkscape:window-maximized="0" />
  <metadata
     id="metadata3170">
    <rdf:RDF>
      <cc:Work
         rdf:about="">
        <dc:format>image/svg+xml</dc:format>
        <dc:type
           rdf:resource="http://purl.org/dc/dcmitype/StillImage" />
        <dc:title></dc:title>
      </cc:Work>
    </rdf:RDF>
  </metadata>
  <g
     inkscape:label="Layer 1"
     inkscape:groupmode="layer"
     id="layer1"
     transform="translate(0,-540.36218)">
    <path
       style="color:#000000;fill:#000000;fill-opacity:1;fill-rule:nonzero;stroke:none;stroke-width:9.80000019000000044;marker:none;visibility:visible;display:inline;overflow:visible;enable-background:accumulate"
       d="M 0 0 L 0 512 L 512 512 L 512 478.96875 C 511.99022 478.92697 511.9783 478.88596 511.96875 478.84375 C 511.43172 476.47011 511.36523 475.15264 512 474.375 L 512 0 L 0 0 z M 333.6875 7 C 341.11688 6.9255156 349.24695 7.515675 349.21875 8.34375 C 349.20401 8.77695 348.30939 9.1005 347.25 9.0625 C 345.34188 8.9941492 343.3668 9.4001793 341.625 10.03125 C 339.94338 9.874854 338.73858 9.7646435 336.9375 9.59375 L 325.21875 8.46875 L 325.25 7.5 C 325.74986 7.4370009 326.27403 7.3625616 326.8125 7.3125 C 328.80476 7.127275 331.21104 7.0248281 333.6875 7 z M 430.4375 12.5625 C 434.45293 12.555386 438.08273 12.603032 441.21875 12.6875 C 438.91794 12.892228 436.81451 13.098242 435.4375 13.34375 C 431.9947 13.95767 428.89312 14.28891 428.5625 14.0625 C 428.03822 13.703449 420.22902 13.249111 411.125 12.875 C 418.01701 12.693769 424.62015 12.572806 430.4375 12.5625 z M 63.78125 22.875 C 65.704495 22.848948 68.422928 23.026353 72.75 23.3125 C 162.75932 29.26476 174.20576 29.80851 199.375 29.15625 C 213.05589 28.80173 227.10102 28.17535 230.59375 27.78125 C 242.97039 26.38475 258.41839 25.21043 259.4375 25.59375 C 260.00591 25.80753 263.50396 26.30353 267.21875 26.6875 C 270.93354 27.07149 277.23296 27.92069 281.1875 28.5625 C 285.14203 29.20431 295.34007 30.26489 303.875 30.9375 C 318.29888 32.07419 319.709 32.04648 323.78125 30.4375 C 327.86761 28.82294 329.05427 28.80556 341.65625 30.03125 C 349.08738 30.75403 363.79748 31.90165 374.3125 32.59375 L 393.40625 33.84375 L 394.09375 31.46875 C 394.85616 28.75628 395.72071 28.55948 408.9375 28.125 C 413.6012 27.97169 419.33425 27.32828 421.65625 26.6875 C 424.89403 25.79398 431.56193 25.72906 450.25 26.46875 C 463.65223 26.99918 475.31794 27.66207 476.1875 27.9375 C 477.90002 28.47991 487.50199 49.86853 489.65625 57.9375 C 491.52449 64.93529 491.81806 75.70691 490.9375 103.90625 C 490.09275 130.95851 490.47772 140.64572 492.5625 145.21875 C 493.62053 147.53969 493.72205 153.29843 493.15625 177.25 C 492.75426 194.26748 492.84888 207.68976 493.34375 209.4375 C 493.90984 211.43679 493.84501 213.50795 493.1875 215.65625 C 492.56946 217.67568 492.27886 225.02763 492.40625 235.375 C 492.51803 244.45237 492.62525 258.12931 492.65625 265.78125 C 492.68728 273.43317 492.85482 280.96352 493.03125 282.5 C 493.20766 284.03649 493.67763 294.69747 494.0625 306.1875 C 494.44737 317.67753 495.0359 330.83485 495.375 335.4375 C 495.9452 343.17677 493.69949 378.34672 492.03125 387.6875 C 490.03972 398.83853 488.8937 366.90088 490 330.78125 C 490.44559 316.23356 490.32876 313.29584 489.21875 312.8125 C 487.43058 312.03385 487.35984 312.15716 486.28125 317.96875 C 484.84285 325.71898 482.03597 417.97081 482.71875 435.15625 C 483.79753 462.30865 484.30787 470.368 485.53125 480.5 C 487.08325 493.3539 487.06308 493.33975 474.78125 493.90625 C 469.919 494.13065 461.47746 494.55145 456 494.84375 C 450.52252 495.13565 442.1543 495.2629 437.40625 495.125 C 428.91492 494.8783 428.73697 494.84535 426.9375 492.15625 C 424.44146 488.42615 420.97426 487.8148 408.65625 489 C 391.28213 490.6713 358.85966 490.65475 358.375 488.96875 C 358.22682 488.45325 360.60426 487.4337 363.625 486.6875 C 366.93585 485.8695 369.13015 484.79865 369.15625 484.03125 C 369.22135 482.11785 364.3411 480.1837 361.375 480.9375 C 359.98646 481.2904 358.02941 481.66195 357.03125 481.78125 C 339.54335 483.87035 329.07005 484.7787 320.03125 484.9375 C 313.97989 485.0438 303.50739 485.49875 296.78125 485.96875 C 290.05512 486.43865 277.63815 486.85 269.1875 486.875 C 257.401 486.9095 253.08992 487.27425 250.625 488.40625 C 244.07032 491.41615 239.15946 491.7228 195.4375 492.0625 C 154.69619 492.379 137.89203 492.7729 100.84375 494.25 C 78.97144 495.122 50.168115 493.25145 37.90625 490.15625 C 35.541121 489.55925 31.880349 489.0125 29.78125 488.9375 C 25.390991 488.78027 22.940082 487.1455 21.6875 483.5 C 21.576678 481.43708 21.463095 479.41004 21.375 477.40625 C 21.834946 476.93205 22.587275 476.66916 23.71875 476.5 C 25.395832 476.2492 25.563865 475.50725 25.8125 466.96875 C 26.320128 449.53665 26.03698 424.35552 25.28125 419.46875 C 24.865538 416.78096 24.765808 413.96746 25.0625 413.25 C 25.359162 412.53252 25.34933 405.55036 25.03125 397.71875 C 24.713171 389.88715 24.4263 380.75469 24.375 377.4375 C 24.130746 361.64075 23.34977 342.05989 22.875 339.6875 C 22.584675 338.23676 21.581577 335.8392 20.65625 334.375 C 19.522084 332.58034 18.444318 327.30965 17.84375 322.1875 C 17.882639 317.86328 18.011918 313.86904 18.21875 310.4375 C 18.844845 309.28022 18.988965 309.55349 19.8125 311.90625 C 20.354918 313.45585 21.115818 317.45213 21.5 320.78125 C 22.718714 331.34208 26.906272 332.3057 26.25 321.875 C 26.073105 319.06337 25.66462 313.40444 25.34375 309.3125 C 24.709145 301.21975 24.065742 289.64515 22.84375 263.78125 C 22.409252 254.5847 21.876506 242.80064 21.625 237.59375 C 21.13632 227.47718 22.050957 219.23633 23.21875 223.25 C 23.984279 225.88116 27.847264 228.88295 29.03125 227.75 C 29.786411 227.02736 28.578793 214.1656 27.3125 209.46875 C 26.80377 207.58174 26.054511 194.40025 25.40625 175.78125 C 25.157336 168.63156 24.682403 158.18524 24.34375 152.5625 C 23.547089 139.33503 23.616932 124.65357 24.46875 123.34375 C 24.83673 122.77795 25.686584 122.40698 26.375 122.53125 C 27.063434 122.65569 28.158621 122.7257 28.78125 122.6875 C 30.12369 122.6053 30.450696 117.69364 29.28125 115.25 C 28.833087 114.31349 28.166183 111.08741 27.8125 108.09375 C 27.306037 103.80672 27.478133 102.23172 28.5625 100.65625 C 29.646125 99.08192 29.847099 96.81534 29.59375 90 C 29.302603 82.16802 29.478878 81.10714 31.1875 79.09375 C 32.819478 77.17069 33.028892 75.94267 32.84375 69.90625 C 32.633817 63.06124 34.991834 49.73988 38.46875 38.0625 C 39.789342 33.62722 40.033401 33.39117 46.1875 30.625 C 49.688042 29.05157 54.502149 26.58957 56.875 25.15625 C 59.565663 23.530937 60.575841 22.91842 63.78125 22.875 z M 34.125 23.59375 C 34.38556 23.60303 34.548711 23.63794 34.59375 23.6875 C 34.773879 23.88572 34.481842 25.70251 33.9375 27.71875 C 33.393149 29.73497 32.129255 34.46418 31.125 38.21875 C 29.414039 44.61546 27.512521 47.32243 26.75 44.46875 C 26.308809 42.8176 25.51373 31.98534 25.53125 27.90625 C 25.544771 24.76326 25.660454 24.64828 29.90625 24 C 31.704759 23.72535 33.34332 23.56591 34.125 23.59375 z M 503.78125 201.09375 C 503.82808 202.27806 503.86436 203.39885 503.90625 204.5625 C 503.81857 203.61422 503.80572 202.40975 503.78125 201.09375 z "
       transform="translate(0,540.36218)"
       id="rect3308" />
  </g>
</svg>
