<?xml version="1.0" encoding="UTF-8" standalone="no"?>
<!-- Created with Inkscape (http://www.inkscape.org/) -->

<svg
   xmlns:dc="http://purl.org/dc/elements/1.1/"
   xmlns:cc="http://creativecommons.org/ns#"
   xmlns:rdf="http://www.w3.org/1999/02/22-rdf-syntax-ns#"
   xmlns:svg="http://www.w3.org/2000/svg"
   xmlns="http://www.w3.org/2000/svg"
   xmlns:sodipodi="http://sodipodi.sourceforge.net/DTD/sodipodi-0.dtd"
   xmlns:inkscape="http://www.inkscape.org/namespaces/inkscape"
   width="128"
   height="128"
   id="svg2"
   version="1.1"
   inkscape:version="0.48.4 r9939"
   sodipodi:docname="check.svg">
  <defs
     id="defs4" />
  <sodipodi:namedview
     id="base"
     pagecolor="#ffffff"
     bordercolor="#666666"
     borderopacity="1.0"
     inkscape:pageopacity="0.0"
     inkscape:pageshadow="2"
     inkscape:zoom="1.1074219"
     inkscape:cx="64"
     inkscape:cy="64"
     inkscape:document-units="px"
     inkscape:current-layer="layer1"
     showgrid="false"
     inkscape:window-width="1276"
     inkscape:window-height="782"
     inkscape:window-x="0"
     inkscape:window-y="14"
     inkscape:window-maximized="0" />
  <metadata
     id="metadata7">
    <rdf:RDF>
      <cc:Work
         rdf:about="">
        <dc:format>image/svg+xml</dc:format>
        <dc:type
           rdf:resource="http://purl.org/dc/dcmitype/StillImage" />
        <dc:title></dc:title>
      </cc:Work>
    </rdf:RDF>
  </metadata>
  <g
     inkscape:label="Layer 1"
     inkscape:groupmode="layer"
     id="layer1"
     transform="translate(0,-924.36215)">
    <path
       inkscape:connector-curvature="0"
       style="fill:#000000"
       d="m 123.97567,928.45666 c -0.7021,0.0251 -1.89237,1.10173 -3.46447,3.16321 -1.12275,1.47224 -2.46533,2.90498 -2.97911,3.17994 -0.51378,0.27496 -2.11379,1.97641 -3.54815,3.78246 -1.43434,1.80605 -3.63518,4.50978 -4.88707,6.00843 -1.2519,1.49864 -2.27617,3.00715 -2.27617,3.3473 0,0.34016 -0.48356,1.05981 -1.08787,1.60671 -0.60432,0.5469 -3.15403,3.65776 -5.65696,6.9122 -2.502936,3.25443 -5.677984,7.2954 -7.062817,8.97079 -1.384833,1.67538 -4.559475,5.58236 -7.046087,8.68625 -2.486616,3.1039 -4.628252,5.5476 -4.753178,5.42265 -0.348136,-0.34813 2.354155,-4.33261 7.665338,-11.3139 2.651069,-3.4847 5.162484,-6.9462 5.57327,-7.68208 0.410788,-0.73586 2.820852,-4.07295 5.355687,-7.41429 10.757777,-14.18045 12.269107,-16.50102 11.364117,-17.40601 -0.9841,-0.9841 -11.486117,10.51349 -20.452054,22.37677 -5.203118,6.8845 -12.582611,16.40124 -20.853739,26.92909 -3.682041,4.68672 -7.297136,9.32925 -8.033544,10.30971 -0.736408,0.98052 -1.837486,2.40569 -2.460273,3.16328 -0.622781,0.7575 -2.01161,2.69793 -3.079523,4.31803 -1.067909,1.62 -3.263606,4.7532 -4.870336,6.9624 -1.606725,2.2092 -3.474149,4.9766 -4.167401,6.159 -1.690209,2.8829 -6.82644,9.3726 -7.414291,9.3726 -0.708361,0 -6.078024,-7.6545 -8.468694,-12.0672 -7.64652,-14.11333 -16.353806,-25.33495 -19.230296,-24.7868 -1.264378,0.24095 -1.456798,2.35538 -0.368204,4.01677 0.716822,1.09402 0.788754,1.62786 0.317994,2.66109 -0.869203,1.90769 -0.802176,2.12171 1.623446,4.75321 3.781233,4.10213 0.952574,3.81133 -3.581622,-0.3682 -2.2953335,-2.1158 -2.545354,-2.20337 -4.4184497,-1.74062 -2.7818899,0.68722 -2.8866328,2.21342 -0.3179944,4.46865 2.0819405,1.828 6.6276741,7.6101 6.6276741,8.4185 0,0.2596 0.964025,1.637 2.142278,3.0628 1.178253,1.4259 2.142278,2.7897 2.142278,3.0294 0,0.2396 1.747296,2.4546 3.882881,4.9205 4.186781,4.8345 4.338242,4.9886 10.32645,11.3976 2.201781,2.3565 3.996287,4.5255 4.000036,4.8201 0.0038,0.2946 0.844963,2.178 1.874494,4.1842 1.029536,2.0061 1.874493,3.9362 1.874493,4.3013 0,0.3649 0.29925,0.952 0.652725,1.3054 1.148717,1.1487 1.951214,0.6922 4.016773,-2.2762 1.117128,-1.6054 2.288194,-3.0279 2.610901,-3.1632 0.322708,-0.1352 1.707262,0.4739 3.062788,1.3556 1.669312,1.0859 2.820289,1.4916 3.564885,1.2553 1.45381,-0.4614 1.489232,-2.7567 0.05018,-3.2134 -1.376966,-0.437 -3.78246,-3.3029 -3.78246,-4.5189 0,-0.5268 0.497582,-1.5881 1.104612,-2.3598 l 1.104612,-1.4059 1.589972,1.1715 c 1.510178,1.1167 1.664926,1.1335 3.046053,0.3013 0.806117,-0.4857 1.788159,-1.7944 2.192486,-2.9288 2.183389,-6.1262 3.498651,-9.1973 4.636024,-10.8788 0.697338,-1.031 2.053567,-3.3561 3.029315,-5.1549 2.511468,-4.63 5.603135,-9.368 8.937318,-13.7408 1.580423,-2.0726 4.205035,-6.08023 5.82432,-8.90381 1.619283,-2.82357 3.360714,-5.6201 3.882879,-6.20923 0.522167,-0.58913 2.537628,-3.4812 4.468657,-6.42684 3.625511,-5.53044 3.939199,-5.98327 6.895457,-9.72396 0.967513,-1.22421 3.149271,-4.27223 4.8536,-6.76155 1.70433,-2.48932 5.14788,-6.64029 7.6486,-9.23857 2.50073,-2.59828 4.67673,-5.35116 4.83686,-6.10885 0.53797,-2.54536 1.22571,-3.67859 5.59001,-9.43941 4.10502,-5.41857 6.86991,-10.13442 6.29294,-10.71139 -0.10835,-0.10835 -0.23965,-0.15645 -0.40167,-0.15063 z m -43.648919,52.10089 c 0.257962,-0.054 0.241365,0.4021 -0.251049,1.32216 -0.328797,0.61435 -0.847094,1.12137 -1.138085,1.12137 -0.290985,0 -0.120337,-0.61006 0.368204,-1.35568 0.454356,-0.6934 0.820289,-1.04591 1.02093,-1.08785 z m -9.523097,13.30553 c 0.08567,-5.3e-4 0.133892,0.0568 0.133892,0.18413 0,0.80502 -2.894893,5.15326 -4.200874,6.30969 -0.633702,0.5611 -1.154822,1.332 -1.154822,1.7071 0,0.3752 -0.328694,1.0149 -0.736408,1.4226 -0.407707,0.4077 -1.261984,1.7457 -1.89123,2.9792 -0.629246,1.2333 -1.368343,2.2427 -1.656918,2.2427 -1.013844,0 -0.519262,-1.5862 1.071139,-3.3976 0.883689,-1.0064 1.606708,-2.0666 1.606708,-2.3598 0,-0.2933 0.366035,-0.8421 0.803355,-1.2051 0.437314,-0.3629 1.31718,-1.7123 1.958176,-2.99583 1.011734,-2.02581 3.467299,-4.88334 4.066982,-4.88709 z"
       id="path3060" />
  </g>
</svg>
