<?xml version="1.0" encoding="UTF-8" standalone="no"?>
<!-- Created with Inkscape (http://www.inkscape.org/) -->

<svg
   xmlns:dc="http://purl.org/dc/elements/1.1/"
   xmlns:cc="http://creativecommons.org/ns#"
   xmlns:rdf="http://www.w3.org/1999/02/22-rdf-syntax-ns#"
   xmlns:svg="http://www.w3.org/2000/svg"
   xmlns="http://www.w3.org/2000/svg"
   xmlns:sodipodi="http://sodipodi.sourceforge.net/DTD/sodipodi-0.dtd"
   xmlns:inkscape="http://www.inkscape.org/namespaces/inkscape"
   width="2048"
   height="2048"
   id="svg3489"
   version="1.1"
   inkscape:version="0.48.4 r9939"
   sodipodi:docname="dialog_box.svg"
   inkscape:export-filename="/home/nathan/documents/bee_line/svgs/dialog_box.png"
   inkscape:export-xdpi="45"
   inkscape:export-ydpi="45">
  <defs
     id="defs3491" />
  <sodipodi:namedview
     id="base"
     pagecolor="#ffffff"
     bordercolor="#666666"
     borderopacity="1.0"
     inkscape:pageopacity="0"
     inkscape:pageshadow="2"
     inkscape:zoom="0.27392578"
     inkscape:cx="1024"
     inkscape:cy="1024"
     inkscape:document-units="px"
     inkscape:current-layer="g6657"
     showgrid="false"
     inkscape:window-width="1276"
     inkscape:window-height="782"
     inkscape:window-x="0"
     inkscape:window-y="14"
     inkscape:window-maximized="0" />
  <metadata
     id="metadata3494">
    <rdf:RDF>
      <cc:Work
         rdf:about="">
        <dc:format>image/svg+xml</dc:format>
        <dc:type
           rdf:resource="http://purl.org/dc/dcmitype/StillImage" />
        <dc:title></dc:title>
      </cc:Work>
    </rdf:RDF>
  </metadata>
  <g
     inkscape:label="Layer 1"
     inkscape:groupmode="layer"
     id="layer1"
     transform="translate(0,995.63782)">
    <g
       id="g3921"
       transform="matrix(0.98657869,0,0,0.98657869,13.748204,0.13217134)">
      <g
         id="g6657"
         transform="matrix(1.2508952,0,0,1.2508952,-257.34802,-13.269362)">
        <path
           inkscape:connector-curvature="0"
           id="path6653"
           d="m 1544.3615,-485.6721 c -57.4322,-0.0639 -104.3773,3.51647 -117.9221,9.48761 -8.3454,3.679 -18.5613,4.84316 -60.7995,6.92694 -48.9236,2.41358 -51.0033,2.35493 -58.3374,-2.00257 -10.4149,-6.18827 -47.0859,-7.6673 -88.3101,-3.54555 -29.6523,2.96473 -76.9768,4.2996 -140.1804,3.9395 -26.2903,-0.14979 -28.8876,-0.58438 -39.1651,-6.36886 l -10.9978,-6.17187 -54.03666,0.98487 c -57.8869,1.06532 -175.31038,5.43019 -214.8337,7.97748 -18.89574,1.21785 -25.54859,0.84117 -30.76088,-1.73994 -5.55964,-2.75305 -17.42626,-3.06807 -72.32252,-1.8056 -36.12243,0.83055 -90.39985,1.82287 -120.61414,2.19955 -30.21428,0.37669 -62.49849,1.55274 -71.7316,2.59349 -20.12261,2.26829 -76.57584,0.9934 -95.17158,-2.13389 -7.32137,-1.23125 -15.10046,-3.78973 -17.30094,-5.71226 -3.30621,-2.88869 -9.87758,-3.3684 -37.81914,-2.72482 -18.59624,0.42837 -38.59186,1.93999 -44.41778,3.3814 -5.82574,1.44139 -20.6885,3.13481 -33.05891,3.74252 -15.92298,0.78225 -22.05078,1.65657 -28.56133,4.79305 l 0,23.86676 2.72482,-2.8233 4.53042,4.72738 c 4.5542,4.7204 4.5868,4.72102 63.68846,1.14902 40.12755,-2.42525 73.60468,-3.15931 104.26525,-2.2652 24.84198,0.72442 50.94309,0.42819 58.00904,-0.65658 7.06593,-1.08478 35.68122,-2.69759 63.55715,-3.57837 l 50.65531,-1.57581 3.18443,6.3032 c 2.74529,5.47126 4.11262,6.13017 10.20985,4.95719 14.68579,-2.82523 122.0807,-8.41474 139.26108,-7.25523 9.87966,0.6668 34.11672,0.58382 53.83973,-0.16415 19.72305,-0.74796 50.42859,-1.6258 68.2517,-1.93691 l 32.40238,-0.5581 1.47723,5.58094 c 1.42281,5.44253 1.89149,5.56082 19.23794,4.62892 9.78392,-0.52562 36.93988,-2.66092 60.33982,-4.76023 27.31827,-2.45082 55.37849,-3.53329 78.42877,-2.98744 l 35.9151,0.85355 0.099,5.61378 c 0.097,5.59273 0.136,5.60918 19.1394,4.59607 10.4752,-0.55842 22.0575,-1.97261 25.738,-3.11876 3.6808,-1.14617 15.9772,-2.91395 27.3138,-3.9395 l 20.5839,-1.87125 1.5758,5.81075 c 1.0769,3.99397 3.0678,5.80043 6.3688,5.74509 5.2527,-0.0881 41.4316,-4.04111 76.1307,-8.30576 20.9705,-2.57732 22.3146,-2.48477 27.1169,1.87126 4.8896,4.43554 6.0453,4.50024 36.2105,1.70711 17.1455,-1.58752 60.9172,-4.41852 97.2726,-6.30319 36.3558,-1.88466 73.6661,-4.54359 82.8935,-5.90924 9.2275,-1.36561 26.3208,-3.5747 38.0162,-4.89153 11.6953,-1.31678 25.0052,-3.1634 29.5461,-4.10364 12.4825,-2.58468 27.8067,0.25415 35.6196,6.59865 6.5593,5.3262 8.1323,5.55623 32.0412,4.8587 13.8349,-0.40358 33.217,-1.33936 43.0717,-2.10105 9.855,-0.76174 47.6758,-2.40763 84.0425,-3.64404 36.3671,-1.23641 70.1288,-2.9843 75.0476,-3.87384 2.54,-0.4594 7.1529,-0.96253 12.4421,-1.41165 l 0,-23.60412 c -19.1485,-0.37243 -61.543,-0.47566 -108.1719,-0.22981 -59.8196,0.31553 -120.3739,0.22604 -134.5666,-0.19698 -14.0868,-0.41985 -27.914,-0.60899 -41.1677,-0.62374 z"
           style="fill:#000000" />
        <path
           inkscape:connector-curvature="0"
           id="path6651"
           d="m 211.14941,-472.99085 c -1.59333,9.40888 -2.70074,26.71638 -3.29845,51.23288 -0.69227,28.38144 -2.05303,83.98335 -3.02913,123.54582 -0.97608,39.56251 -1.76102,103.55043 -1.71344,142.21132 0.0478,38.66091 -0.15409,82.260007 -0.46792,96.878979 -0.31389,14.619002 0.30954,66.6033925 1.39598,115.531332 1.3874,62.504289 0.88677,93.231049 -1.73321,103.217759 -8.76713,33.42201 -9.80627,56.20057 -4.40254,96.74481 2.86541,21.4975 7.80847,88.51871 11.0181,148.90049 5.41567,101.88267 5.48576,110.85086 0.61524,124.92146 -0.0931,0.26905 -0.16607,0.51728 -0.25552,0.78319 l 50.98746,-1.22135 c -11.08335,-3.90626 -10.40839,-9.52395 -11.09176,-26.01989 -0.51742,-12.49039 -2.56825,-27.57075 -4.59645,-33.48954 -2.93625,-8.56821 -16.44482,-234.73256 -14.19645,-237.69221 0.29656,-0.3911 -0.15994,-37.94779 -0.99322,-83.44996 -1.38967,-75.900233 -0.44655,-131.662048 2.90647,-174.468129 1.19205,-15.216444 2.03598,-16.750514 10.29337,-18.760701 12.94639,-3.151737 14.59963,-9.299229 10.16559,-37.454634 -5.48923,-34.854886 -6.87466,-76.757736 -6.93313,-207.375076 -0.06,-134.07488 -0.7199,-175.87218 -3.19217,-184.79059 l -31.47882,0.75404 z"
           style="fill:#000000" />
        <path
           inkscape:connector-curvature="0"
           id="path6649"
           d="m 1813.0395,-486.25025 c -2.0229,14.73285 -2.801,40.26093 -3.312,94.87827 -0.4752,50.83547 -2.043,112.53043 -3.4984,137.09304 -7.2635,122.58159 -7.5672,137.27842 -3.4518,174.1301 6.2276,55.755334 11.6491,363.58678 6.7171,381.89208 -2.6459,9.81988 -3.732,42.79326 -3.3585,103.60103 0.2917,47.33339 0.4895,105.08313 0.4663,132.80169 l 38.9962,0 c -0.5291,-5.85667 -1.0986,-11.74991 -1.7259,-17.63225 -3.4794,-32.63381 -4.1208,-51.31003 -2.099,-62.13268 2.9543,-15.82283 3.2618,-36.0683 3.172,-212.38002 -0.075,-146.877772 0.9575,-179.265878 5.9706,-189.52325 3.3232,-6.800196 3.8643,-20.453116 2.4256,-58.261052 -1.0332,-27.148208 -3.0706,-53.212624 -4.5713,-57.934537 -3.6551,-11.500564 -2.4389,-158.083981 1.3994,-168.252671 1.9719,-5.22415 1.8109,-17.974 -0.4665,-36.61725 -1.9229,-15.74036 -4.5328,-77.54845 -5.8308,-137.32625 -0.9251,-42.62694 -1.4918,-68.38399 -1.3993,-84.33625 l -29.4337,0 z"
           style="fill:#000000" />
        <path
           inkscape:connector-curvature="0"
           id="path4058"
           d="m 1836.5957,491.42421 c -1.4379,4.47903 -2.5159,9.24261 -3.1616,14.12875 -0.757,5.72746 -2.6746,10.94378 -4.2815,11.59277 -1.6069,0.64899 -7.7447,-1.52634 -13.6346,-4.84124 -12.4488,-7.00679 -20.1991,-7.31274 -84.2452,-3.26053 -83.6171,5.29042 -191.0912,8.27219 -247.3675,6.88316 -15.4747,-0.38183 -77.7347,-0.0337 -138.3557,0.75754 -60.6211,0.79126 -111.5267,0.6279 -113.1285,-0.36233 -1.6013,-0.98992 -40.6047,-1.20175 -86.6493,-0.46098 -46.0445,0.74058 -98.2405,1.11639 -115.9935,0.82331 l -32.27547,-0.52695 -2.37116,-6.45507 c -1.35614,-3.68208 -4.47834,-6.92141 -7.24549,-7.50895 -14.19812,-3.01455 -240.40526,0.20424 -300.62171,4.28142 -52.45869,3.55192 -169.8973,5.38538 -209.16394,3.26042 -15.4827,-0.83775 -42.86829,-2.36914 -60.82912,-3.39216 -59.61801,-3.39572 -151.946,1.0422 -198.36158,9.51798 -2.36276,0.43104 -5.15522,0.65784 -7.7395,0.69157 l 0,24.43704 c 0.53887,-0.11045 0.94717,-0.17959 1.51497,-0.29646 30.07157,-6.18349 64.02824,-11.06942 80.39193,-11.55979 7.56111,-0.22648 19.17883,-1.54901 25.82028,-2.93117 6.64144,-1.38176 14.85097,-1.94011 18.27836,-1.2514 l 6.25747,1.2514 -5.00596,4.24854 c -4.05975,3.4538 -4.54169,5.03104 -2.47007,8.29936 3.62103,5.71271 29.56411,5.93729 71.03868,0.59282 41.7623,-5.38157 119.48582,-7.81121 123.60136,-3.85323 3.60071,3.46266 24.91295,3.19729 73.54166,-0.95514 35.7215,-3.05027 36.98397,-2.99715 43.17649,1.41611 6.09905,4.34698 7.74196,4.40567 37.47891,1.81143 17.10743,-1.49242 40.46723,-2.20822 51.904,-1.61371 13.1047,0.6808 21.81155,0.20698 23.58077,-1.28448 3.76101,-3.17052 45.60086,-5.45525 45.2513,-2.47012 -0.14515,1.24023 -0.86964,4.39019 -1.61368,7.015 -0.86059,3.03563 0.19828,6.6296 2.89818,9.84722 3.99626,4.76306 4.89335,4.87635 15.28133,2.20663 17.37755,-4.46605 62.46178,-8.35521 121.98764,-10.53888 53.07068,-1.94685 54.94404,-1.85716 59.18235,2.53586 2.4077,2.49583 4.7033,4.51824 5.1048,4.51202 0.4016,-0.0105 6.1747,-1.12408 12.8115,-2.50299 18.9328,-3.93406 161.4776,-5.55841 226.4871,-2.56885 17.2872,0.79496 21.7451,1.78445 25.425,5.59878 4.0167,4.16319 6.6026,4.52446 26.2814,3.65562 12.0145,-0.5302 22.4437,-1.35593 23.1526,-1.81132 4.0098,-2.57591 86.6681,-7.20501 180.9066,-10.14366 59.3651,-1.85116 110.5181,-3.33673 113.6552,-3.29341 8.8018,0.12183 17.9824,4.14862 18.0478,7.90416 0.078,4.42201 8.9177,6.35758 20.8802,4.57778 13.604,-2.02378 69.3242,-7.77264 74.6944,-7.70645 2.4755,0.0306 18.163,0.46212 34.8771,0.95503 21.2925,0.62801 50.3644,-0.93132 71.0057,-3.52399 l 0,-47.68846 z"
           style="fill:#000000" />
      </g>
    </g>
  </g>
</svg>
