<?xml version="1.0" encoding="UTF-8" standalone="no"?>
<!-- Created with Inkscape (http://www.inkscape.org/) -->

<svg
   xmlns:dc="http://purl.org/dc/elements/1.1/"
   xmlns:cc="http://creativecommons.org/ns#"
   xmlns:rdf="http://www.w3.org/1999/02/22-rdf-syntax-ns#"
   xmlns:svg="http://www.w3.org/2000/svg"
   xmlns="http://www.w3.org/2000/svg"
   xmlns:sodipodi="http://sodipodi.sourceforge.net/DTD/sodipodi-0.dtd"
   xmlns:inkscape="http://www.inkscape.org/namespaces/inkscape"
   width="512"
   height="512"
   id="svg3331"
   version="1.1"
   inkscape:version="0.48.4 r9939"
   sodipodi:docname="dots_end_left.svg">
  <defs
     id="defs3333" />
  <sodipodi:namedview
     id="base"
     pagecolor="#ffffff"
     bordercolor="#666666"
     borderopacity="1.0"
     inkscape:pageopacity="0.0"
     inkscape:pageshadow="2"
     inkscape:zoom="1.0957031"
     inkscape:cx="379.66488"
     inkscape:cy="256"
     inkscape:document-units="px"
     inkscape:current-layer="layer1"
     showgrid="false"
     inkscape:window-width="636"
     inkscape:window-height="782"
     inkscape:window-x="640"
     inkscape:window-y="14"
     inkscape:window-maximized="0" />
  <metadata
     id="metadata3336">
    <rdf:RDF>
      <cc:Work
         rdf:about="">
        <dc:format>image/svg+xml</dc:format>
        <dc:type
           rdf:resource="http://purl.org/dc/dcmitype/StillImage" />
        <dc:title></dc:title>
      </cc:Work>
    </rdf:RDF>
  </metadata>
  <g
     inkscape:label="Layer 1"
     inkscape:groupmode="layer"
     id="layer1"
     transform="translate(0,-540.36218)">
    <g
       id="g6596">
      <rect
         y="540.36224"
         x="0"
         height="512"
         width="512"
         id="rect5826"
         style="color:#000000;fill:none;fill-opacity:1;fill-rule:nonzero;stroke:none;stroke-width:6;marker:none;visibility:visible;display:inline;overflow:visible;enable-background:accumulate" />
      <path
         inkscape:connector-curvature="0"
         id="path5806"
         d="m 47.187745,807.58186 c -3.677657,-3.86153 -4.216212,-4.07389 -6.526048,-2.57338 -3.720826,2.4171 -6.772441,-1.87287 -6.907854,-9.7111 -0.04905,-2.83901 -0.281706,-5.49914 -0.517025,-5.91141 -0.777364,-1.36189 0.450668,-3.29406 2.347407,-3.69338 1.026584,-0.21613 2.724315,-1.26253 3.772752,-2.32534 2.333615,-2.36562 3.778561,-2.3926 5.454411,-0.10189 0.704687,0.96323 1.85033,1.7712 2.545878,1.79549 0.695548,0.0243 1.841189,0.83227 2.545876,1.79549 1.456042,1.99026 2.541037,2.18784 4.490339,0.81773 0.857605,-0.60279 2.927894,-0.9 5.615444,-0.80614 4.881564,0.17046 7.128095,-0.44657 10.098085,-2.77357 1.157582,-0.90696 2.749479,-1.5339 3.537554,-1.39319 1.213468,0.21666 2.985847,2.87242 3.841419,5.75601 0.105793,0.35657 1.406896,0.21245 2.913585,-0.32275 3.633986,-1.29086 5.411133,-0.35112 7.384184,3.90469 2.086862,4.50131 1.927673,7.10566 -0.522753,8.55227 -1.054217,0.62235 -2.310825,1.62559 -2.792465,2.22943 -0.481639,0.60385 -1.687725,1.27183 -2.680196,1.48439 -0.992464,0.21257 -2.645721,0.96416 -3.673902,1.67019 -3.111102,2.13634 -6.639194,0.76207 -8.49423,-3.30867 -1.048572,-2.30102 -2.657617,-2.1931 -5.312688,0.35638 -1.921136,1.8447 -2.968827,2.32238 -4.942577,2.25345 -2.239416,-0.0782 -2.712281,0.23061 -4.465019,2.91594 -1.127022,1.72667 -2.468197,2.98567 -3.155024,2.96167 -0.657074,-0.023 -2.707793,-1.63048 -4.557153,-3.5723 z"
         style="fill:#000000" />
      <path
         inkscape:connector-curvature="0"
         id="path5804"
         d="m 114.25595,806.73375 c -0.49577,-1.04668 -0.87044,-3.06918 -0.8326,-4.49443 0.0379,-1.42525 -0.36089,-3.20266 -0.88602,-3.9498 -1.46894,-2.08989 -1.07115,-3.69467 1.18014,-4.76097 1.88155,-0.89119 3.56937,-4.04084 3.681,-6.86917 0.0181,-0.46001 0.79656,-1.29943 1.72977,-1.86535 2.13887,-1.29706 3.48151,-0.5951 7.53038,3.9371 l 2.92885,3.2785 1.41475,-1.6528 c 0.77809,-0.90904 2.23498,-2.81291 3.23749,-4.23083 1.73893,-2.45945 1.95265,-2.55542 4.6466,-2.08673 1.55311,0.27021 3.80149,0.18162 4.99641,-0.19685 2.67991,-0.84884 5.78142,0.36569 7.29108,2.85511 1.1505,1.89715 2.74432,2.15229 4.72936,0.75705 3.469,-2.43828 11.05894,1.1933 12.94638,6.19446 0.51504,1.36471 1.50181,2.90748 2.19283,3.42835 3.11605,2.34882 -0.1163,7.64805 -4.57017,7.49251 -1.09906,-0.0384 -2.60001,0.22572 -3.33545,0.58688 -0.98227,0.48238 -1.863,0.36103 -3.31843,-0.4572 -2.52766,-1.42104 -4.34846,-1.46934 -8.01827,-0.21276 -2.61215,0.89443 -3.42574,0.88541 -7.16468,-0.0796 -2.38645,-0.61591 -4.91398,-1.77981 -5.82096,-2.68048 -0.88166,-0.87555 -1.85796,-1.60081 -2.16955,-1.61168 -0.7362,-0.0257 -2.45829,2.51964 -3.1583,4.66814 -0.30238,0.92806 -1.1843,2.33435 -1.95981,3.12511 -1.29654,1.32203 -2.01191,1.40918 -8.88971,1.08307 -7.42581,-0.3521 -7.48622,-0.36838 -8.38109,-2.25772 z"
         style="fill:#000000" />
      <path
         inkscape:connector-curvature="0"
         id="path4066"
         d="m 254.89092,735.72815 c -4.95342,-0.29152 -10.52035,-0.0813 -14.05694,3.93251 -1.51699,1.48233 -2.07257,3.92759 -4.63972,3.5531 -6.25281,0.64671 -11.05759,5.09819 -16.43713,7.95431 -8.50211,5.19593 -16.56889,12.98604 -18.07578,23.19521 -2.16864,5.55934 -4.98041,10.94986 -5.5883,17.04086 -1.29725,8.75109 -1.09309,17.91372 1.17286,26.45822 3.7358,7.63281 11.15313,12.46092 15.4886,19.64523 3.94619,3.35944 7.83393,7.09933 12.81509,8.76192 7.83776,3.63218 14.53103,10.31854 23.54332,10.65914 8.7114,0.7371 17.28834,-1.29875 25.86098,-2.43673 8.27293,-1.69541 16.58064,-4.6713 22.51915,-10.8958 6.61802,-6.28379 12.32216,-13.82432 14.92337,-22.73816 3.29166,-8.83585 3.43719,-18.32697 4.2907,-27.6255 -0.96521,-5.62484 -0.68075,-11.40365 -1.4661,-17.00642 -1.90956,-6.97937 -8.43062,-11.11217 -11.81473,-17.28225 -3.15461,-4.4134 -6.86125,-8.67204 -12.28221,-10.23322 -11.56559,-5.47135 -22.90223,-13.4813 -36.25316,-12.98242 z m 9.31381,21.47358 c 5.72071,-5e-4 10.17964,4.22817 15.67831,5.27784 8.21929,1.97496 13.932,9.06964 15.35052,17.2306 2.09688,7.06211 5.02007,14.28804 3.51856,21.83568 -1.80047,7.94687 -7.98926,13.98168 -12.41845,20.55942 -3.46633,3.81135 -5.02025,9.45175 -10.08028,11.58132 -4.46975,2.93622 -9.46356,4.9965 -14.87728,4.9076 -7.42004,0.11433 -15.31012,0.0408 -21.62431,-4.32835 -6.9673,-3.95447 -11.21192,-10.86525 -17.24016,-15.91977 -5.11385,-5.52477 -5.86912,-13.61971 -6.25585,-20.81894 -0.19368,-10.00069 2.31408,-20.28668 9.07235,-27.90697 5.67214,-7.09931 14.45038,-11.64959 23.57506,-12.04218 5.08869,-0.49272 10.20998,0.0249 15.30153,-0.37625 z"
         style="fill:#000000" />
    </g>
  </g>
</svg>
