<?xml version="1.0" encoding="UTF-8" standalone="no"?>
<!-- Created with Inkscape (http://www.inkscape.org/) -->

<svg
   xmlns:dc="http://purl.org/dc/elements/1.1/"
   xmlns:cc="http://creativecommons.org/ns#"
   xmlns:rdf="http://www.w3.org/1999/02/22-rdf-syntax-ns#"
   xmlns:svg="http://www.w3.org/2000/svg"
   xmlns="http://www.w3.org/2000/svg"
   xmlns:sodipodi="http://sodipodi.sourceforge.net/DTD/sodipodi-0.dtd"
   xmlns:inkscape="http://www.inkscape.org/namespaces/inkscape"
   width="512"
   height="512"
   id="svg3331"
   version="1.1"
   inkscape:version="0.48.4 r9939"
   sodipodi:docname="New document 20">
  <defs
     id="defs3333" />
  <sodipodi:namedview
     id="base"
     pagecolor="#ffffff"
     bordercolor="#666666"
     borderopacity="1.0"
     inkscape:pageopacity="0.0"
     inkscape:pageshadow="2"
     inkscape:zoom="1.1074219"
     inkscape:cx="408.6067"
     inkscape:cy="256"
     inkscape:document-units="px"
     inkscape:current-layer="layer1"
     showgrid="false"
     inkscape:window-width="1276"
     inkscape:window-height="782"
     inkscape:window-x="0"
     inkscape:window-y="14"
     inkscape:window-maximized="0" />
  <metadata
     id="metadata3336">
    <rdf:RDF>
      <cc:Work
         rdf:about="">
        <dc:format>image/svg+xml</dc:format>
        <dc:type
           rdf:resource="http://purl.org/dc/dcmitype/StillImage" />
        <dc:title></dc:title>
      </cc:Work>
    </rdf:RDF>
  </metadata>
  <g
     inkscape:label="Layer 1"
     inkscape:groupmode="layer"
     id="layer1"
     transform="translate(0,-540.36218)">
    <path
       style="fill:#000000"
       d="m 47.187745,808.02558 c -3.677657,-3.86153 -4.216212,-4.07389 -6.526048,-2.57338 -3.720826,2.4171 -6.772441,-1.87287 -6.907854,-9.7111 -0.04905,-2.83901 -0.281706,-5.49914 -0.517025,-5.91141 -0.777364,-1.36189 0.450668,-3.29406 2.347407,-3.69338 1.026584,-0.21613 2.724315,-1.26253 3.772752,-2.32534 2.333615,-2.36562 3.778561,-2.3926 5.454411,-0.10189 0.704687,0.96323 1.85033,1.7712 2.545878,1.79549 0.695548,0.0243 1.841189,0.83227 2.545876,1.79549 1.456042,1.99026 2.541037,2.18784 4.490339,0.81773 0.857605,-0.60279 2.927894,-0.9 5.615444,-0.80614 4.881564,0.17046 7.128095,-0.44657 10.098085,-2.77357 1.157582,-0.90696 2.749479,-1.5339 3.537554,-1.39319 1.213468,0.21666 2.985847,2.87242 3.841419,5.75601 0.105793,0.35657 1.406896,0.21245 2.913585,-0.32275 3.633986,-1.29086 5.411133,-0.35112 7.384184,3.90469 2.086862,4.50131 1.927673,7.10566 -0.522753,8.55227 -1.054217,0.62235 -2.310825,1.62559 -2.792465,2.22943 -0.481639,0.60385 -1.687725,1.27183 -2.680196,1.48439 -0.992464,0.21257 -2.645721,0.96416 -3.673902,1.67019 -3.111102,2.13634 -6.639194,0.76207 -8.49423,-3.30867 -1.048572,-2.30102 -2.657617,-2.1931 -5.312688,0.35638 -1.921136,1.8447 -2.968827,2.32238 -4.942577,2.25345 -2.239416,-0.0782 -2.712281,0.23061 -4.465019,2.91594 -1.127022,1.72667 -2.468197,2.98567 -3.155024,2.96167 -0.657074,-0.023 -2.707793,-1.63048 -4.557153,-3.5723 z m 111.068205,-3.73892 c -0.49577,-1.04668 -0.87044,-3.06918 -0.8326,-4.49443 0.0379,-1.42525 -0.36089,-3.20266 -0.88602,-3.9498 -1.46894,-2.08989 -1.07115,-3.69467 1.18014,-4.76097 1.88155,-0.89119 3.56937,-4.04084 3.681,-6.86917 0.0181,-0.46001 0.79656,-1.29943 1.72977,-1.86535 2.13887,-1.29706 3.48151,-0.5951 7.53038,3.9371 l 2.92885,3.2785 1.41475,-1.6528 c 0.77809,-0.90904 2.23498,-2.81291 3.23749,-4.23083 1.73893,-2.45945 1.95265,-2.55542 4.6466,-2.08673 1.55311,0.27021 3.80149,0.18162 4.99641,-0.19685 2.67991,-0.84884 5.78142,0.36569 7.29108,2.85511 1.1505,1.89715 2.74432,2.15229 4.72936,0.75705 3.469,-2.43828 11.05894,1.1933 12.94638,6.19446 0.51504,1.36471 1.50181,2.90748 2.19283,3.42835 3.11605,2.34882 -0.1163,7.64805 -4.57017,7.49251 -1.09906,-0.0384 -2.60001,0.22572 -3.33545,0.58688 -0.98227,0.48238 -1.863,0.36103 -3.31843,-0.4572 -2.52766,-1.42104 -4.34846,-1.46934 -8.01827,-0.21276 -2.61215,0.89443 -3.42574,0.88541 -7.16468,-0.0796 -2.38645,-0.61591 -4.91398,-1.77981 -5.82096,-2.68048 -0.88166,-0.87555 -1.85796,-1.60081 -2.16955,-1.61168 -0.7362,-0.0257 -2.45829,2.51964 -3.1583,4.66814 -0.30238,0.92806 -1.1843,2.33435 -1.95981,3.12511 -1.29654,1.32203 -2.01191,1.40918 -8.88971,1.08307 -7.42581,-0.3521 -7.48622,-0.36838 -8.38109,-2.25772 z m 155.18363,1.23963 c -5.88838,-5.2153 -6.65386,-5.60752 -10.26141,-5.25789 -2.2208,0.21525 -4.06706,0.88824 -5.23106,1.90681 -2.36732,2.07162 -3.7436,1.93423 -6.2921,-0.62807 -1.15915,-1.16543 -3.10343,-2.34368 -4.32064,-2.6183 -2.87548,-0.64882 -4.53139,-2.99349 -4.93784,-6.99168 -0.36433,-3.58389 0.43074,-5.03371 2.72023,-4.96039 0.79789,0.0258 2.38527,-0.40006 3.52748,-0.94582 1.3449,-0.64258 2.87012,-0.81455 4.32811,-0.48798 1.6021,0.35885 3.15424,0.10534 5.38206,-0.87856 l 3.13069,-1.38284 1.91204,1.51963 c 2.2782,1.81065 4.84509,2.04371 6.16665,0.55989 0.76881,-0.86317 1.77742,-0.96932 5.1208,-0.53896 2.28988,0.29476 4.44783,0.29512 4.79546,6.8e-4 0.34762,-0.29432 1.62395,-0.6847 2.83627,-0.8675 1.72253,-0.25972 2.62766,0.0499 4.14178,1.41704 1.75626,1.58572 2.33062,1.72211 6.13955,1.45798 3.78215,-0.26227 4.36473,-0.12748 5.83049,1.34916 0.89564,0.90231 1.6088,2.20335 1.58479,2.8912 -0.0241,0.68787 0.83239,2.55344 1.90312,4.14571 2.01916,3.00261 2.45381,6.32657 0.94283,7.21015 -0.47909,0.28014 -3.33256,0.33081 -6.34104,0.11257 -3.60105,-0.26124 -6.50387,-0.0805 -8.49602,0.52894 -1.66434,0.50917 -3.81268,0.74643 -4.77412,0.52727 -1.41641,-0.3229 -1.98216,-0.0112 -2.98217,1.64256 -1.51582,2.50692 -4.1933,2.62001 -6.82595,0.2883 z m 122.11242,0.96668 c -0.64495,-0.39506 -3.09004,-0.74994 -5.43352,-0.78863 -10.53346,-0.17389 -12.40283,-1.6096 -11.67579,-8.96714 0.33955,-3.43611 0.79268,-4.76877 2.0067,-5.90156 0.86247,-0.80476 2.25016,-2.31246 3.08377,-3.35047 1.6174,-2.01399 1.78768,-2.01818 8.01927,-0.19772 2.76609,0.80809 3.10484,0.75511 4.80466,-0.75124 1.64724,-1.45975 2.33911,-1.58952 6.96985,-1.30733 4.11713,0.25089 5.50645,0.62193 6.97551,1.86289 2.2795,1.92554 3.50856,1.54946 4.60033,-1.40765 0.93935,-2.54426 3.10029,-4.27059 5.25161,-4.19547 0.79614,0.0278 2.91714,1.69044 4.89165,3.83454 2.11816,2.30009 4.48952,4.12471 6.04345,4.65004 3.19711,1.08082 7.99356,6.45914 7.90942,8.86889 -0.0456,1.30662 -0.71581,2.0123 -2.86333,3.01502 -1.54207,0.72004 -3.10411,2.02306 -3.47121,2.89563 -0.88487,2.10332 -3.40997,3.67639 -5.76908,3.59401 -1.54308,-0.0539 -2.26847,-0.70036 -3.7867,-3.37474 -3.65799,-6.44362 -3.51691,-6.32408 -5.46554,-4.6318 -0.93284,0.8101 -3.18315,1.69734 -5.00076,1.97164 -2.17778,0.32867 -3.91353,1.11101 -5.0901,2.29423 -1.58371,1.59268 -2.12309,1.73715 -4.77472,1.27891 -2.043,-0.35305 -3.47421,-0.22491 -4.52106,0.40482 -1.08617,0.65336 -1.87289,0.71246 -2.70441,0.20314 z"
       id="path3404"
       inkscape:connector-curvature="0" />
  </g>
</svg>
