<?xml version="1.0" encoding="UTF-8" standalone="no"?>
<!-- Created with Inkscape (http://www.inkscape.org/) -->

<svg
   xmlns:dc="http://purl.org/dc/elements/1.1/"
   xmlns:cc="http://creativecommons.org/ns#"
   xmlns:rdf="http://www.w3.org/1999/02/22-rdf-syntax-ns#"
   xmlns:svg="http://www.w3.org/2000/svg"
   xmlns="http://www.w3.org/2000/svg"
   xmlns:sodipodi="http://sodipodi.sourceforge.net/DTD/sodipodi-0.dtd"
   xmlns:inkscape="http://www.inkscape.org/namespaces/inkscape"
   width="512"
   height="512"
   id="svg3331"
   version="1.1"
   inkscape:version="0.48.4 r9939"
   sodipodi:docname="dots_h.svg">
  <defs
     id="defs3333" />
  <sodipodi:namedview
     id="base"
     pagecolor="#ffffff"
     bordercolor="#666666"
     borderopacity="1.0"
     inkscape:pageopacity="0.0"
     inkscape:pageshadow="2"
     inkscape:zoom="1.1074219"
     inkscape:cx="408.6067"
     inkscape:cy="256"
     inkscape:document-units="px"
     inkscape:current-layer="layer1"
     showgrid="false"
     inkscape:window-width="1276"
     inkscape:window-height="782"
     inkscape:window-x="0"
     inkscape:window-y="14"
     inkscape:window-maximized="0" />
  <metadata
     id="metadata3336">
    <rdf:RDF>
      <cc:Work
         rdf:about="">
        <dc:format>image/svg+xml</dc:format>
        <dc:type
           rdf:resource="http://purl.org/dc/dcmitype/StillImage" />
        <dc:title></dc:title>
      </cc:Work>
    </rdf:RDF>
  </metadata>
  <g
     inkscape:label="Layer 1"
     inkscape:groupmode="layer"
     id="layer1"
     transform="translate(0,-540.36218)">
    <path
       style="fill:#000000"
       d="m 244.3366,587.54992 c 3.86153,-3.67765 4.07389,-4.21621 2.57338,-6.52605 -2.4171,-3.72082 1.87287,-6.77244 9.7111,-6.90785 2.83901,-0.0491 5.49914,-0.28171 5.91141,-0.51702 1.36189,-0.77737 3.29406,0.45066 3.69338,2.3474 0.21613,1.02659 1.26253,2.72432 2.32534,3.77275 2.36562,2.33362 2.3926,3.77857 0.10189,5.45442 -0.96323,0.70468 -1.7712,1.85033 -1.79549,2.54587 -0.0243,0.69555 -0.83227,1.84119 -1.79549,2.54588 -1.99026,1.45604 -2.18784,2.54104 -0.81773,4.49034 0.60279,0.8576 0.9,2.92789 0.80614,5.61544 -0.17046,4.88157 0.44657,7.1281 2.77357,10.09809 0.90696,1.15758 1.5339,2.74948 1.39319,3.53755 -0.21666,1.21347 -2.87242,2.98585 -5.75601,3.84142 -0.35657,0.10579 -0.21245,1.4069 0.32275,2.91359 1.29086,3.63398 0.35112,5.41113 -3.90469,7.38418 -4.50131,2.08686 -7.10566,1.92767 -8.55227,-0.52275 -0.62235,-1.05422 -1.62559,-2.31083 -2.22943,-2.79247 -0.60385,-0.48164 -1.27183,-1.68772 -1.48439,-2.68019 -0.21257,-0.99247 -0.96416,-2.64573 -1.67019,-3.67391 -2.13634,-3.1111 -0.76207,-6.63919 3.30867,-8.49423 2.30102,-1.04857 2.1931,-2.65761 -0.35638,-5.31268 -1.8447,-1.92114 -2.32238,-2.96883 -2.25345,-4.94258 0.0782,-2.23942 -0.23061,-2.71228 -2.91594,-4.46502 -1.72667,-1.12702 -2.98567,-2.4682 -2.96167,-3.15502 0.023,-0.65708 1.63048,-2.7078 3.5723,-4.55716 z m 3.73892,111.06821 c 1.04668,-0.49577 3.06918,-0.87044 4.49443,-0.8326 1.42525,0.0379 3.20266,-0.36089 3.9498,-0.88602 2.08989,-1.46894 3.69467,-1.07115 4.76097,1.18014 0.89119,1.88155 4.04084,3.56937 6.86917,3.681 0.46001,0.0181 1.29943,0.79656 1.86535,1.72977 1.29706,2.13887 0.5951,3.48151 -3.9371,7.53038 l -3.2785,2.92885 1.6528,1.41475 c 0.90904,0.77809 2.81291,2.23498 4.23083,3.23749 2.45945,1.73893 2.55542,1.95265 2.08673,4.6466 -0.27021,1.55311 -0.18162,3.80149 0.19685,4.99641 0.84884,2.67991 -0.36569,5.78142 -2.85511,7.29108 -1.89715,1.1505 -2.15229,2.74432 -0.75705,4.72936 2.43828,3.469 -1.1933,11.05894 -6.19446,12.94638 -1.36471,0.51504 -2.90748,1.50181 -3.42835,2.19283 -2.34882,3.11605 -7.64805,-0.1163 -7.49251,-4.57017 0.0384,-1.09906 -0.22572,-2.60001 -0.58688,-3.33545 -0.48238,-0.98227 -0.36103,-1.863 0.4572,-3.31843 1.42104,-2.52766 1.46934,-4.34846 0.21276,-8.01827 -0.89443,-2.61215 -0.88541,-3.42574 0.0796,-7.16468 0.61591,-2.38645 1.77981,-4.91398 2.68048,-5.82096 0.87555,-0.88166 1.60081,-1.85796 1.61168,-2.16955 0.0257,-0.7362 -2.51964,-2.45829 -4.66814,-3.1583 -0.92806,-0.30238 -2.33435,-1.1843 -3.12511,-1.95981 -1.32203,-1.29654 -1.40918,-2.01191 -1.08307,-8.88971 0.3521,-7.42581 0.36838,-7.48622 2.25772,-8.38109 z m -1.23963,155.18363 c 5.2153,-5.88838 5.60752,-6.65386 5.25789,-10.26141 -0.21525,-2.2208 -0.88824,-4.06706 -1.90681,-5.23106 -2.07162,-2.36732 -1.93423,-3.7436 0.62807,-6.2921 1.16543,-1.15915 2.34368,-3.10343 2.6183,-4.32064 0.64882,-2.87548 2.99349,-4.53139 6.99168,-4.93784 3.58389,-0.36433 5.03371,0.43074 4.96039,2.72023 -0.0258,0.79789 0.40006,2.38527 0.94582,3.52748 0.64258,1.3449 0.81455,2.87012 0.48798,4.32811 -0.35885,1.6021 -0.10534,3.15424 0.87856,5.38206 l 1.38284,3.13069 -1.51963,1.91204 c -1.81065,2.2782 -2.04371,4.84509 -0.55989,6.16665 0.86317,0.76881 0.96932,1.77742 0.53896,5.1208 -0.29476,2.28988 -0.29512,4.44783 -6.8e-4,4.79546 0.29432,0.34762 0.6847,1.62395 0.8675,2.83627 0.25972,1.72253 -0.0499,2.62766 -1.41704,4.14178 -1.58572,1.75626 -1.72211,2.33062 -1.45798,6.13955 0.26227,3.78215 0.12748,4.36473 -1.34916,5.83049 -0.90231,0.89564 -2.20335,1.6088 -2.8912,1.58479 -0.68787,-0.0241 -2.55344,0.83239 -4.14571,1.90312 -3.00261,2.01916 -6.32657,2.45381 -7.21015,0.94283 -0.28014,-0.47909 -0.33081,-3.33256 -0.11257,-6.34104 0.26124,-3.60105 0.0805,-6.50387 -0.52894,-8.49602 -0.50917,-1.66434 -0.74643,-3.81268 -0.52727,-4.77412 0.3229,-1.41641 0.0112,-1.98216 -1.64256,-2.98217 -2.50692,-1.51582 -2.62001,-4.1933 -0.2883,-6.82595 z m -0.96668,122.11242 c 0.39506,-0.64495 0.74994,-3.09004 0.78863,-5.43352 0.17389,-10.53346 1.6096,-12.40283 8.96714,-11.67579 3.43611,0.33955 4.76877,0.79268 5.90156,2.0067 0.80476,0.86247 2.31246,2.25016 3.35047,3.08377 2.01399,1.6174 2.01818,1.78768 0.19772,8.01927 -0.80809,2.76609 -0.75511,3.10484 0.75124,4.80466 1.45975,1.64724 1.58952,2.33911 1.30733,6.96985 -0.25089,4.11713 -0.62193,5.50645 -1.86289,6.97551 -1.92554,2.2795 -1.54946,3.50856 1.40765,4.60033 2.54426,0.93935 4.27059,3.10029 4.19547,5.25164 -0.0278,0.7961 -1.69044,2.9171 -3.83454,4.8916 -2.30009,2.1182 -4.12471,4.4895 -4.65004,6.0435 -1.08082,3.1971 -6.45914,7.9935 -8.86889,7.9094 -1.30662,-0.046 -2.0123,-0.7158 -3.01502,-2.8633 -0.72004,-1.5421 -2.02306,-3.1042 -2.89563,-3.4713 -2.10332,-0.8848 -3.67639,-3.4099 -3.59401,-5.769 0.0539,-1.5431 0.70036,-2.2685 3.37474,-3.7867 6.44362,-3.65802 6.32408,-3.51694 4.6318,-5.46557 -0.8101,-0.93284 -1.69734,-3.18315 -1.97164,-5.00076 -0.32867,-2.17778 -1.11101,-3.91353 -2.29423,-5.0901 -1.59268,-1.58371 -1.73715,-2.12309 -1.27891,-4.77472 0.35305,-2.043 0.22491,-3.47421 -0.40482,-4.52106 -0.65336,-1.08617 -0.71246,-1.87289 -0.20314,-2.70441 z"
       id="path3404"
       inkscape:connector-curvature="0" />
  </g>
</svg>
