<?xml version="1.0" encoding="UTF-8" standalone="no"?>
<!-- Created with Inkscape (http://www.inkscape.org/) -->

<svg
   xmlns:dc="http://purl.org/dc/elements/1.1/"
   xmlns:cc="http://creativecommons.org/ns#"
   xmlns:rdf="http://www.w3.org/1999/02/22-rdf-syntax-ns#"
   xmlns:svg="http://www.w3.org/2000/svg"
   xmlns="http://www.w3.org/2000/svg"
   xmlns:sodipodi="http://sodipodi.sourceforge.net/DTD/sodipodi-0.dtd"
   xmlns:inkscape="http://www.inkscape.org/namespaces/inkscape"
   width="512"
   height="512"
   id="svg4566"
   version="1.1"
   inkscape:version="0.48.4 r9939"
   sodipodi:docname="New document 47">
  <defs
     id="defs4568" />
  <sodipodi:namedview
     id="base"
     pagecolor="#ffffff"
     bordercolor="#666666"
     borderopacity="1.0"
     inkscape:pageopacity="0.0"
     inkscape:pageshadow="2"
     inkscape:zoom="1.0957031"
     inkscape:cx="256"
     inkscape:cy="256"
     inkscape:document-units="px"
     inkscape:current-layer="layer1"
     showgrid="false"
     inkscape:window-width="1276"
     inkscape:window-height="782"
     inkscape:window-x="0"
     inkscape:window-y="14"
     inkscape:window-maximized="0" />
  <metadata
     id="metadata4571">
    <rdf:RDF>
      <cc:Work
         rdf:about="">
        <dc:format>image/svg+xml</dc:format>
        <dc:type
           rdf:resource="http://purl.org/dc/dcmitype/StillImage" />
        <dc:title></dc:title>
      </cc:Work>
    </rdf:RDF>
  </metadata>
  <g
     inkscape:label="Layer 1"
     inkscape:groupmode="layer"
     id="layer1"
     transform="translate(0,-540.36218)">
    <path
       style="fill:#000000"
       d="m 241.30237,999.313 c -22.63903,-2.97705 -31.70448,-6.36238 -41.30669,-15.42536 -6.76621,-6.38619 -12.30216,-13.92625 -12.30216,-16.75569 0,-2.82945 -4.01568,-8.8856 -8.92373,-13.45819 -4.90808,-4.57255 -7.78874,-10.15018 -6.40152,-12.39472 1.38719,-2.24459 -0.13048,-6.28256 -3.37266,-8.97334 -8.42377,-6.99113 -2.2367,-27.482 8.78935,-29.10928 5.8314,-0.86066 12.48602,3.89609 20.74414,14.82805 21.80811,28.86914 21.73342,28.83296 58.75782,28.46514 40.36067,-0.4012 56.72973,-4.15736 67.62012,-15.5175 7.11835,-7.42534 7.61323,-11.90337 4.50112,-40.72684 -1.92311,-17.81128 -3.18062,-42.57089 -2.79445,-55.02133 1.0139,-32.6891 -10.05342,-41.49666 -35.83968,-28.52165 -23.72297,11.93674 -47.72165,16.50564 -82.12882,15.6357 -15.77691,-0.39866 -22.24812,-3.19201 -35.48436,-15.31589 -8.9036,-8.15542 -17.58318,-14.82804 -19.28789,-14.82804 -2.4601,0 -10.49343,-19.85696 -22.28139,-55.0756 -0.38976,-1.16506 0.71853,-15.28695 2.46328,-31.38203 2.94697,-27.18531 6.35183,-35.20881 25.98615,-61.23601 20.30921,-26.9218 59.75541,-54.59479 76.38824,-53.58923 14.87816,0.89951 51.84579,10.00482 62.41713,15.37363 4.04611,2.05487 10.89984,3.73612 15.23056,3.73612 4.33073,0 10.88294,3.33631 14.56047,7.41402 7.24477,8.03316 20.76782,80.76514 22.4808,120.9097 0.60782,14.24577 4.03831,29.09347 8.18359,35.41996 3.92541,5.99091 6.33806,15.07237 5.36149,20.18101 -0.97662,5.10869 0.84117,11.73297 4.03949,14.72061 4.14631,3.87325 5.67465,15.96684 5.32569,42.14156 -0.26903,20.19016 1.56677,43.38203 4.07991,51.53745 4.72456,15.33182 1.97929,60.10963 -4.45061,72.59375 -1.96218,3.8097 -8.61434,8.19334 -14.78259,9.74147 -6.16826,1.54813 -13.98056,5.58034 -17.36072,8.9605 -3.90977,3.90978 -14.89837,6.16678 -30.20345,6.20355 -13.23175,0.0339 -27.87067,0.78338 -32.53091,1.67018 -4.66025,0.8868 -21.52524,-0.1042 -37.47772,-2.2017 z M 262.8929,765.86504 c 12.23313,-4.49484 22.24206,-8.539 22.24206,-8.98702 0,-0.44798 3.76878,-11.12552 8.37509,-23.72779 6.99088,-19.12619 7.93631,-29.09437 5.72049,-60.31151 l -2.65464,-37.39828 -21.60764,-0.84579 c -40.9587,-1.60325 -46.40847,-0.37197 -58.56209,13.23017 -6.40576,7.16932 -13.10359,13.11583 -14.88401,13.21446 -8.06828,0.44692 -22.72165,32.25053 -25.02855,54.32187 -2.14054,20.47981 -1.05915,26.16722 7.52756,39.58859 16.33563,25.53334 32.8625,27.82055 78.87173,10.9153 z"
       id="path4677"
       inkscape:connector-curvature="0" />
  </g>
</svg>
