<?xml version="1.0" encoding="UTF-8" standalone="no"?>
<!-- Created with Inkscape (http://www.inkscape.org/) -->

<svg
   xmlns:dc="http://purl.org/dc/elements/1.1/"
   xmlns:cc="http://creativecommons.org/ns#"
   xmlns:rdf="http://www.w3.org/1999/02/22-rdf-syntax-ns#"
   xmlns:svg="http://www.w3.org/2000/svg"
   xmlns="http://www.w3.org/2000/svg"
   xmlns:sodipodi="http://sodipodi.sourceforge.net/DTD/sodipodi-0.dtd"
   xmlns:inkscape="http://www.inkscape.org/namespaces/inkscape"
   width="512"
   height="512"
   id="svg2"
   version="1.1"
   inkscape:version="0.48.4 r9939"
   sodipodi:docname="New document 1">
  <defs
     id="defs4" />
  <sodipodi:namedview
     id="base"
     pagecolor="#ffffff"
     bordercolor="#666666"
     borderopacity="1.0"
     inkscape:pageopacity="0.0"
     inkscape:pageshadow="2"
     inkscape:zoom="0.35"
     inkscape:cx="375"
     inkscape:cy="520"
     inkscape:document-units="px"
     inkscape:current-layer="layer1"
     showgrid="false"
     inkscape:window-width="1276"
     inkscape:window-height="782"
     inkscape:window-x="0"
     inkscape:window-y="14"
     inkscape:window-maximized="0" />
  <metadata
     id="metadata7">
    <rdf:RDF>
      <cc:Work
         rdf:about="">
        <dc:format>image/svg+xml</dc:format>
        <dc:type
           rdf:resource="http://purl.org/dc/dcmitype/StillImage" />
        <dc:title></dc:title>
      </cc:Work>
    </rdf:RDF>
  </metadata>
  <g
     inkscape:label="Layer 1"
     inkscape:groupmode="layer"
     id="layer1"
     transform="translate(0,-540.36218)">
    <path
       style="fill:#000000"
       d="m 251.49476,1050.3043 c -4.19985,-1.9508 -9.84834,-9.3831 -9.84834,-12.9582 0,-1.5164 -3.82919,-6.7079 -9.44303,-12.8026 -2.00608,-2.1779 -4.37702,-5.2447 -5.26875,-6.8151 -3.9098,-6.8851 -7.47645,-11.5701 -9.22152,-12.1131 -4.85659,-1.5111 -27.06832,-4.9749 -31.90137,-4.9749 -5.90737,0 -14.77701,3.2548 -18.84517,6.9153 -1.37387,1.2363 -3.39051,4.3529 -4.48143,6.9258 -2.65432,6.2602 -14.16863,18.4993 -17.40385,18.4993 -1.79841,0 -2.63194,-0.7861 -3.14375,-2.9646 -1.08255,-4.6078 -4.35517,-10.718 -6.10947,-11.4067 -1.18235,-0.4641 -1.58421,-2.3527 -1.57661,-7.4095 0.0115,-7.6012 -1.77681,-23.00931 -2.88292,-24.84023 -0.39645,-0.65623 -0.9966,-4.1392 -1.33368,-7.73995 -0.5708,-6.0974 -0.79372,-6.54681 -3.24725,-6.54681 -2.10942,0 -2.70248,-0.60837 -2.97615,-3.05302 -0.25398,-2.26865 -1.22306,-3.42973 -3.77202,-4.51926 -1.88662,-0.80644 -4.06765,-2.25198 -4.84673,-3.21233 -0.77907,-0.96033 -3.87262,-3.41388 -6.87453,-5.45231 -5.18353,-3.51985 -5.79704,-3.67412 -12.198376,-3.0673 -7.78209,0.73771 -17.337473,3.75744 -23.515949,7.43159 -2.364658,1.4062 -7.756552,3.40296 -11.981985,4.43725 -7.116609,1.74198 -7.809766,1.75044 -9.408622,0.11477 -1.424407,-1.45721 -1.528728,-2.42341 -0.596981,-5.52923 0.876626,-2.92209 0.808427,-4.19596 -0.30505,-5.69793 -3.197469,-4.31305 -1.722861,-8.15451 8.605021,-22.41668 3.005454,-4.15034 6.517298,-9.69162 7.804107,-12.31393 2.352245,-4.79354 2.363646,-5.2644 0.390014,-16.10156 -0.561818,-3.08498 -0.228105,-3.9731 2.253624,-5.99752 2.505123,-2.04351 2.745105,-2.69747 1.713493,-4.66944 -0.659795,-1.26121 -2.317681,-6.56714 -3.684206,-11.79094 -2.324584,-8.88623 -4.753626,-13.91846 -10.177101,-21.08388 -1.7252,-2.27932 -2.828687,-2.81432 -4.77429,-2.31477 -3.188828,0.81877 -18.52077,-4.73568 -27.868053,-10.09605 -6.240299,-3.57861 -7.521228,-3.91353 -14.404715,-3.76641 -6.7172588,0.14357 -7.7239798,-0.10176 -9.0756578,-2.21224 -2.00291593,-3.1272 -1.12097893,-9.09362 1.561258,-10.56217 1.138156,-0.62314 2.6821,-2.62382 3.431011,-4.44594 0.748901,-1.82212 4.3852668,-5.80509 8.0808008,-8.85104 3.695545,-3.04596 7.667552,-7.26399 8.826678,-9.37339 3.286247,-5.98038 5.960191,-9.87781 8.619415,-12.56336 1.629604,-1.64573 2.444964,-3.72414 2.444964,-6.2324 0,-4.45705 2.037195,-5.68033 6.554697,-3.93591 3.863649,1.49195 5.218003,0.9641 7.45168,-2.9043 1.664367,-2.88242 1.665442,-3.87725 0.01697,-15.73296 -1.431182,-10.29275 -1.544566,-14.18431 -0.607181,-20.84079 1.398948,-9.93415 0.738679,-11.62801 -7.21367,-18.50595 -10.88657,-9.41574 -13.231101,-10.76434 -19.965578,-11.48442 -4.752362,-0.50817 -6.742538,-1.2441 -7.887733,-2.91673 -2.088944,-3.05105 -1.92537,-4.96269 0.666139,-7.78473 1.743409,-1.89851 1.968269,-2.83202 1.08766,-4.51534 -0.880587,-1.68329 -0.678794,-2.5214 0.975973,-4.05342 1.264121,-1.17035 1.977363,-3.02906 1.810154,-4.71724 -0.254102,-2.56531 0.08377,-2.81236 4.267015,-3.12059 2.498632,-0.18408 8.066986,0.41086 12.374117,1.3221 8.079958,1.70944 12.029583,1.50185 18.383562,-0.9662 2.028469,-0.7879 5.334232,-1.85684 7.346136,-2.3754 2.554228,-0.65833 4.693099,-2.3971 7.08839,-5.76238 9.437705,-13.25961 13.787334,-17.74503 23.558123,-24.29359 11.587806,-7.76639 12.712196,-8.91757 12.757136,-13.06109 0.0547,-5.03701 -3.986796,-19.96339 -6.806456,-25.1385 -1.4537,-2.66808 -2.96314,-6.88483 -3.35433,-9.37055 -0.39117,-2.48572 -1.38544,-5.09193 -2.20948,-5.79156 -0.82404,-0.69963 -1.49825,-1.89957 -1.49825,-2.66651 0,-0.76693 -1.89675,-2.93127 -4.215006,-4.80963 -4.512012,-3.65586 -5.135474,-5.42257 -2.656389,-7.5274 1.179789,-1.00169 2.368725,-1.0344 4.891699,-0.13464 2.431506,0.86714 4.386586,0.86576 7.227786,-0.005 3.5279,-1.08133 4.7167,-0.82403 12.621876,2.73169 4.79993,2.159 10.68544,5.56675 13.07891,7.57279 6.00142,5.02995 17.76698,9.46531 22.69734,8.5564 2.08075,-0.38359 4.65717,-1.15993 5.72538,-1.72523 3.14142,-1.66238 6.69195,-0.10847 7.90831,3.4611 0.60733,1.7823 1.64128,3.24054 2.29766,3.24054 0.65639,0 3.69524,-1.69884 6.75301,-3.7752 3.05776,-2.07637 7.16872,-4.32972 9.13545,-5.00747 5.0834,-1.75176 6.21025,-2.92056 6.21025,-6.44149 0,-1.75975 0.56997,-3.10464 1.31719,-3.10806 4.66468,-0.0212 9.26427,-2.50551 11.52454,-6.22437 2.08291,-3.42705 2.46199,-5.57954 2.60482,-14.79085 0.0919,-5.92906 0.50465,-12.56792 0.91713,-14.75299 0.42143,-2.2325 0.25229,-5.43342 -0.38614,-7.30696 -1.60292,-4.70398 -0.73269,-6.07134 5.10771,-8.02563 9.11525,-3.05009 10.17457,-2.66396 19.69157,7.17783 4.73006,4.89148 10.93693,11.80423 13.79306,15.36167 2.85613,3.55744 6.22407,7.40611 7.48433,8.55259 1.26024,1.14649 3.70136,4.6057 5.4247,7.68713 3.62144,6.47534 5.72533,7.60938 16.82112,9.06688 14.35295,1.88535 26.03589,1.41325 31.27562,-1.26385 4.60938,-2.35475 14.0356,-12.74828 14.0356,-15.47565 0,-0.78465 1.39334,-2.98727 3.09629,-4.8947 1.75888,-1.97006 3.39587,-5.28198 3.78982,-7.66754 0.76281,-4.619 3.97535,-8.40169 7.13532,-8.40169 1.11803,0 3.82731,1.83587 6.02065,4.07971 5.65587,5.78609 9.48932,18.90675 9.96704,34.114 0.19274,6.13569 0.82591,12.05851 1.40703,13.16184 1.74024,3.30399 5.52265,6.32634 14.64684,11.70364 7.10366,4.1865 9.27554,4.98775 12.11813,4.47058 1.90481,-0.34655 5.34515,-0.95226 7.6452,-1.34602 2.30005,-0.39375 6.80483,-2.42886 10.01063,-4.52246 3.20579,-2.09357 8.31192,-5.42455 11.34694,-7.40215 3.03502,-1.97759 6.77299,-5.53537 8.3066,-7.90615 2.12758,-3.28901 3.47384,-4.31051 5.6809,-4.31051 1.59089,0 4.59487,-0.72766 6.6755,-1.61703 4.79015,-2.04753 4.55928,-2.08002 6.4751,0.91121 1.44964,2.26337 1.45218,2.93734 0.0242,6.43345 -2.1826,5.34397 -2.01948,6.84516 1.0394,9.56606 1.44891,1.28882 2.63438,3.12308 2.63438,4.07615 0,2.06348 -5.94381,19.81552 -8.02459,23.9666 -1.69468,3.38084 -1.91661,12.71969 -0.42842,18.02819 0.84909,3.02878 0.6539,4.30057 -1.10763,7.21639 -2.0461,3.38687 -2.06141,3.69314 -0.35488,7.09624 0.98093,1.95615 2.66483,4.71353 3.74202,6.12752 1.07717,1.414 1.9585,3.52365 1.9585,4.68813 0,4.79804 3.42187,9.64105 8.33393,11.7951 4.4644,1.95772 6.3691,2.06151 25.38042,1.383 21.7647,-0.77678 26.88591,-1.90752 32.32818,-7.13798 1.96348,-1.88707 2.92986,-2.07906 6.33562,-1.25868 4.71653,1.13609 5.76151,4.22678 2.92597,8.65398 -1.89359,2.95653 -1.68816,4.3412 2.39528,16.14461 0.85599,2.4743 1.28952,4.9404 0.96338,5.48025 -0.32612,0.53983 -2.62902,2.3836 -5.11755,4.09726 -8.6683,5.96921 -20.36568,17.52924 -25.4527,25.15382 -3.05515,4.57918 -6.58954,11.91523 -8.75918,18.18077 -3.30182,9.53507 -3.57809,11.23068 -2.99518,18.38264 0.87593,10.74693 1.51038,12.00989 8.59494,17.10959 3.39558,2.44427 7.32336,5.70478 8.7284,7.24562 1.40505,1.54082 3.16675,2.80149 3.9149,2.80149 0.74816,0 2.91789,1.35535 4.82163,3.0119 4.23752,3.68728 8.2535,6.3934 14.72696,9.92363 2.7187,1.4826 6.42028,4.61577 8.22575,6.9626 3.41748,4.44222 3.52798,6.36291 0.71422,12.41407 -1.44395,3.10543 -13.80544,10.80828 -17.34499,10.80828 -1.32968,0 -4.27659,0.97021 -6.54866,2.15603 -2.27207,1.1858 -4.64332,2.15602 -5.26943,2.15602 -1.82279,0 -7.41197,4.30949 -14.22495,10.96804 -3.47737,3.39856 -8.9846,7.42003 -12.23828,8.93661 -5.90883,2.75419 -5.91906,2.76736 -8.72698,11.22051 -1.99871,6.01705 -2.74753,10.29769 -2.59083,14.81075 0.16441,4.7355 -0.36196,7.49962 -2.07247,10.88327 -2.04688,4.04906 -2.1713,5.14769 -1.15993,10.24112 1.09475,5.51335 6.94489,25.97464 9.95313,34.81183 0.80732,2.37163 1.78746,6.87108 2.17807,9.99879 0.5789,4.63528 0.36202,6.08036 -1.173,7.81558 -2.47348,2.79608 -3.29789,2.71142 -10.62841,-1.09153 -3.41416,-1.77121 -7.86722,-3.23717 -9.89569,-3.2577 -2.02847,-0.0204 -5.73427,-0.9873 -8.2351,-2.14837 -3.46848,-1.61031 -6.84267,-2.10746 -14.22563,-2.09597 -5.32326,0.009 -11.57541,-0.47483 -13.89366,-1.0736 -6.7279,-1.73773 -9.80452,-1.35088 -16.93178,2.12896 -8.6406,4.21873 -9.46773,5.15306 -12.0069,13.56322 -1.73575,5.74909 -1.93106,7.91025 -1.07009,11.84057 0.8273,3.77649 0.71601,5.47499 -0.51882,7.9179 -0.86463,1.7104 -1.88271,5.9411 -2.26242,9.4013 -0.3797,3.4604 -1.04517,6.7766 -1.47882,7.3696 -0.43365,0.5929 -1.11078,2.621 -1.50474,4.5071 -1.4152,6.7748 -5.91473,7.2138 -7.9905,0.7794 -1.37218,-4.2536 -3.66643,-5.8157 -8.59074,-5.8496 -1.92168,-0.013 -4.67943,-0.9726 -6.12834,-2.132 -1.69701,-1.358 -4.29907,-2.1166 -7.31281,-2.132 -2.57316,-0.013 -7.49083,-0.6183 -10.92818,-1.3446 -5.05425,-1.0679 -6.7569,-2.0008 -8.90116,-4.8769 -2.96335,-3.9745 -3.59514,-3.9586 -12.37349,0.3132 -2.89781,1.4101 -7.33679,3.1017 -9.8644,3.7589 -7.56461,1.9671 -13.955,10.9227 -16.71734,23.428 -2.67602,12.1147 -6.26463,17.5476 -11.54744,17.4821 -1.05234,-0.013 -3.88311,-0.9386 -6.29062,-2.0569 z m 18.08065,-45.3595 c 0.86786,-1.4365 -2.15657,-2.5685 -4.45351,-1.6668 -1.55441,0.6103 -1.59218,0.8563 -0.26344,1.7158 2.03659,1.3177 3.90301,1.2982 4.71695,-0.049 z m 2.07234,-31.99593 c 3.46058,-0.87855 7.32929,-2.64778 8.59713,-3.93164 3.08713,-3.12612 8.46134,-5.78914 13.37039,-6.62527 3.11342,-0.53029 4.50512,-1.52085 6.15431,-4.38038 1.46828,-2.54583 3.33055,-4.03725 5.98743,-4.79504 6.83468,-1.94939 8.57996,-4.19318 11.14446,-14.32769 2.59612,-10.25947 2.29984,-12.29306 -2.70417,-18.56041 -3.84705,-4.8183 -8.92208,-13.34527 -11.52344,-19.3615 -1.267,-2.93018 -4.10517,-7.65921 -6.30706,-10.50894 -2.20188,-2.84973 -4.30328,-6.14785 -4.66978,-7.32917 -0.36649,-1.1813 -1.04557,-2.14783 -1.50906,-2.14783 -0.4635,0 -2.04844,-1.81914 -3.5221,-4.04254 -8.02573,-12.10888 -29.12739,-30.21406 -33.76774,-28.97265 -2.32317,0.62153 -6.96277,-1.48724 -9.11842,-4.14444 -4.20068,-5.17805 -26.05753,-13.50693 -35.44521,-13.50693 -1.59865,0 -4.00533,-1.05594 -5.34819,-2.34653 -2.32473,-2.23426 -2.83215,-2.28887 -10.60541,-1.14144 -16.3501,2.4135 -25.15473,4.49583 -31.34638,7.41352 -4.63093,2.18224 -8.19963,3.03174 -13.33855,3.17515 -8.32923,0.23242 -9.31709,0.7212 -9.31709,4.61 0,3.78385 -4.58036,11.14372 -14.15637,22.74691 -4.17683,5.06104 -7.87105,9.96956 -8.20938,10.90784 -0.33834,0.93828 0.0448,7.19163 0.85143,13.89634 1.08906,9.05226 2.12447,13.33072 4.0222,16.62024 4.22255,7.3193 14.31786,17.03486 23.64553,22.75607 4.83328,2.96453 10.76063,6.63865 13.17188,8.1647 4.81265,3.04586 16.05571,8.88698 37.05036,19.24882 7.53432,3.71854 17.14898,8.95318 21.36591,11.63255 4.59423,2.91911 10.08455,5.39726 13.69875,6.18319 7.74043,1.68317 33.311,0.92947 41.82857,-1.23293 z m -112.19387,-3.02512 c 0,-1.74322 -7.24419,-7.56153 -10.88748,-8.74448 -1.234,-0.40068 -3.67537,-1.72018 -5.42527,-2.93222 -1.7499,-1.21205 -4.52292,-3.12698 -6.16228,-4.25541 -1.63936,-1.12843 -3.26137,-1.76451 -3.60447,-1.41351 -0.98568,1.00836 4.15267,6.15579 7.68271,7.69628 1.76279,0.76928 3.82071,2.57548 4.57314,4.01377 0.75242,1.43828 3.57782,3.60864 6.27866,4.823 6.04815,2.71938 7.54499,2.88058 7.54499,0.81257 z m 210.53934,-11.54149 c 2.01462,-2.061 1.46433,-3.16437 -0.843,-1.69025 -2.12902,1.36022 -2.8171,2.98387 -1.2645,2.98387 0.46365,0 1.41202,-0.58213 2.1075,-1.29362 z m -194.73308,-1.77334 c 0,-1.8401 -4.14867,-4.66971 -9.06652,-6.18384 -2.77794,-0.85528 -7.92031,-3.45531 -11.42746,-5.77783 -11.28651,-7.47417 -14.81564,-8.26318 -12.36682,-2.76484 1.06405,2.38907 9.01092,7.04633 17.58142,10.30355 1.15912,0.44053 4.47844,1.7816 7.37625,2.98017 5.86363,2.42526 7.90313,2.7976 7.90313,1.44279 z m 170.11209,-2.29642 c 3.43731,-1.33695 3.49965,-3.26072 0.10567,-3.26072 -1.51883,0 -3.06563,0.89524 -3.72519,2.15603 -1.27463,2.4365 -0.45091,2.6879 3.61952,1.10469 z m 8.84564,-6.87454 c 0.26809,-1.42413 -0.16433,-1.86652 -1.55642,-1.59225 -1.06021,0.20887 -2.09472,1.2672 -2.2989,2.35182 -0.26809,1.42414 0.16434,1.86652 1.55642,1.59225 1.06021,-0.20887 2.09472,-1.26719 2.2989,-2.35182 z m 60.7751,-1.78385 c 0.3607,-0.5971 -0.10595,-1.38468 -1.03702,-1.7502 -2.01755,-0.79203 -3.14198,0.0808 -2.17217,1.6861 0.87501,1.44839 2.35504,1.47796 3.20919,0.0642 z m -12.91305,-7.03667 c 3.06461,-2.30018 5.00531,-4.58867 5.00531,-5.90234 0,-2.77475 -1.40046,-2.70928 -5.57485,0.2606 -5.50652,3.91763 -8.1239,6.50246 -8.1239,8.02287 0,2.47309 3.50509,1.51305 8.69344,-2.38113 z m -28.18783,-6.96987 c 0,-0.87313 -0.82982,-1.75098 -1.84406,-1.95081 -1.29385,-0.2549 -1.84406,0.32716 -1.84406,1.95081 0,1.62365 0.55021,2.2057 1.84406,1.9508 1.01424,-0.19982 1.84406,-1.07768 1.84406,-1.9508 z m 44.26335,-6.47773 c 0.96435,-1.59626 -0.45708,-5.38041 -2.02102,-5.38041 -1.93084,0 -5.16913,3.9635 -4.34834,5.32214 0.87929,1.45547 5.49973,1.49776 6.36936,0.0583 z m -62.70398,-24.78462 c 0,-0.59291 -0.73927,-1.07801 -1.64282,-1.07801 -0.90355,0 -1.34975,0.4851 -0.99155,1.07801 0.35819,0.59291 1.09746,1.07801 1.64281,1.07801 0.54536,0 0.99156,-0.4851 0.99156,-1.07801 z m 79.89159,-4.66469 c 0.36099,-3.11953 -1.28697,-3.95207 -2.32819,-1.17621 -1.05275,2.80659 -0.72674,4.97182 0.67757,4.50008 0.72445,-0.24335 1.46723,-1.73909 1.65062,-3.32387 z m -44.08904,-1.56594 c 2.61358,-2.16507 6.34747,-12.02322 6.34747,-16.75847 0,-3.64556 4.12257,-11.71848 5.70811,-11.17779 1.63923,0.55899 2.51342,5.07579 1.93895,10.01813 -0.39236,3.37556 -0.11904,4.57345 1.15793,5.07475 2.41626,0.94855 4.89376,-2.10115 4.89376,-6.02403 0,-2.95043 2.44478,-11.6061 6.91729,-24.49052 1.4793,-4.26158 5.11887,-36.03925 4.86471,-42.47454 -0.0914,-2.31282 0.51099,-6.92132 1.33851,-10.24111 2.90181,-11.64113 -1.66281,-32.96553 -9.63144,-44.99504 -2.30167,-3.4746 -7.39194,-11.41107 -11.31171,-17.63659 -12.83829,-20.39021 -23.72506,-37.11307 -27.01921,-41.50346 -8.01764,-10.68578 -20.85393,-22.97371 -25.38888,-24.30425 -8.35552,-2.45151 -26.96703,-0.33863 -33.07364,3.7547 -1.51961,1.01862 -3.44499,3.3909 -4.27862,5.27173 -0.83362,1.88083 -3.15385,5.60266 -5.15605,8.27074 -5.04791,6.72669 -8.52562,12.79861 -9.87895,17.24819 -0.63117,2.07518 -2.29978,7.41134 -3.70804,11.85814 -2.48889,7.85901 -3.29293,12.02374 -6.45177,33.41837 -1.61146,10.91429 -2.82777,16.13982 -5.44425,23.38957 -0.90552,2.50902 -1.3887,6.11046 -1.08472,8.08509 2.22989,14.4853 3.28689,19.11183 7.07288,30.95854 4.6301,14.48793 5.10918,15.30097 25.14499,42.67297 13.91423,19.009 17.24206,23.13354 18.68456,23.15782 0.6346,0.0108 4.08847,1.95986 7.67526,4.33148 3.58677,2.37163 7.57234,4.31386 8.8568,4.31608 1.28446,0.002 3.99504,1.05049 6.02351,2.32949 4.41384,2.78304 18.8462,5.44197 24.82352,4.57335 3.17013,-0.46068 4.63364,-0.17969 5.66122,1.08697 1.76307,2.17328 2.47441,2.14516 5.31781,-0.21031 z M 117.95207,857.00452 c 7.06549,-5.61592 8.55504,-9.44189 3.67596,-9.44189 -2.17452,0 -3.99243,1.09565 -6.32251,3.81056 -5.60992,6.53646 -3.6742,10.65531 2.64655,5.63133 z M 94.805224,840.60899 c 3.42654,-3.60944 4.47106,-5.98251 2.63322,-5.98251 -2.18227,0 -8.09016,5.14647 -8.39568,7.31362 -0.48712,3.45522 1.69779,2.95051 5.76246,-1.33111 z m 178.453706,2.13643 c 0,-0.27784 -1.99049,-3.47249 -4.42333,-7.09921 -4.06496,-6.05981 -4.67324,-6.54291 -7.50797,-5.9629 -1.69655,0.34711 -4.68503,0.63113 -6.64105,0.63113 -4.95481,0 -4.43624,1.69602 1.4489,4.7388 2.75293,1.42333 7.33808,3.85 10.18922,5.3926 5.01975,2.71594 6.93423,3.35082 6.93423,2.29958 z m 4.48195,-16.29744 c 1.08223,-1.10715 -2.76667,-10.1477 -4.32024,-10.1477 -1.12281,0 -1.33958,0.95591 -0.87745,3.86923 0.82704,5.21379 3.30846,8.21118 5.19769,6.27847 z M 170.78219,817.6478 c 0.25725,-0.79038 -0.46908,-1.34752 -1.75674,-1.34752 -1.29436,0 -2.19531,0.69606 -2.19531,1.69606 0,1.98125 3.28816,1.69126 3.95205,-0.34854 z m 84.86029,-5.17329 c 3.88779,-3.81116 4.97471,-5.70154 5.5552,-9.66168 0.82395,-5.621 -0.49881,-7.8408 -6.371,-10.6915 -5.54961,-2.69409 -9.92237,-2.10793 -15.49816,2.07752 -3.74997,2.81492 -5.1212,4.63871 -5.64815,7.51227 -1.10991,6.0525 0.16426,9.12722 4.56117,11.00667 2.143,0.91602 4.97688,2.53499 6.29752,3.59773 3.18644,2.56416 5.32369,1.82482 11.10342,-3.84101 z m -62.01138,2.22033 c 2.27992,-0.83095 4.52137,-1.27306 4.98099,-0.98246 1.22004,0.7714 9.31431,-1.6367 9.31431,-2.77106 0,-1.97761 -4.19262,-2.22277 -8.08922,-0.47302 -2.2159,0.99504 -5.59374,1.70483 -7.50632,1.5773 -3.59646,-0.23979 -6.94534,1.62236 -5.93255,3.29882 0.77519,1.28317 2.30731,1.14557 7.23279,-0.64958 z m 23.77906,-4.32362 c 0,-0.88936 -0.65322,-1.61702 -1.45161,-1.61702 -0.79837,0 -2.0419,0.72766 -2.7634,1.61702 -1.10933,1.36743 -0.88527,1.61701 1.45161,1.61701 1.75385,0 2.7634,-0.59073 2.7634,-1.61701 z m -82.19254,-9.38521 c 2.02847,-0.87997 4.33893,-2.40274 5.13434,-3.38396 1.60508,-1.97997 4.92185,-2.37484 5.93004,-0.70599 1.08042,1.78841 6.85322,1.22114 16.86001,-1.65678 20.64369,-5.93704 19.20156,-5.39284 30.55876,-11.53152 1.73869,-0.93977 5.68911,-2.82412 8.7787,-4.18742 5.01049,-2.21091 15.24608,-9.51009 24.00921,-17.12138 1.70704,-1.48268 4.58039,-4.89146 6.38522,-7.57508 1.80482,-2.68361 5.22826,-6.8709 7.60764,-9.30505 2.37937,-2.43416 4.32613,-5.3876 4.32613,-6.5632 0,-1.17562 0.94837,-3.37091 2.1075,-4.87842 1.15912,-1.50751 2.1075,-3.21141 2.1075,-3.78642 0,-0.57502 0.72877,-1.66425 1.6195,-2.4205 0.89072,-0.75625 4.21676,-6.75819 7.3912,-13.33764 3.17445,-6.57945 6.46927,-13.17539 7.32185,-14.65767 0.85258,-1.48226 1.55713,-3.80208 1.56567,-5.15518 0.008,-1.35308 0.72682,-4.20168 1.59616,-6.33022 0.86935,-2.12854 1.58063,-5.81525 1.58063,-8.19267 0,-3.51158 0.66604,-4.96524 3.54981,-7.74761 4.78352,-4.61531 8.26992,-12.81363 7.42001,-17.4483 -1.1422,-6.22863 -14.10771,-15.49469 -21.68094,-15.49469 -3.05563,0 -4.36907,-0.62963 -5.83626,-2.79772 -3.90352,-5.76836 -5.69106,-7.13709 -8.58349,-6.57241 -3.06668,0.59869 -14.66187,4.51246 -19.65353,6.63373 -1.73868,0.73888 -7.19184,2.93296 -12.11813,4.87574 -4.92628,1.94278 -12.03909,5.58145 -15.80625,8.08593 -3.76716,2.50449 -7.91886,4.90018 -9.22601,5.32376 -1.30713,0.42357 -3.76108,1.9619 -5.45319,3.4185 -4.00759,3.4498 -4.88096,1.82943 -1.64212,-3.04669 1.79391,-2.70077 5.14809,-5.17415 11.28121,-8.3188 4.80053,-2.46139 11.57336,-5.96657 15.05074,-7.78929 6.79532,-3.56187 8.92535,-4.51304 19.49438,-8.70537 6.83066,-2.70946 9.06713,-5.30508 5.70743,-6.624 -4.62479,-1.81556 -32.58977,4.12283 -36.60106,7.77227 -1.05352,0.95849 -3.47779,2.72925 -5.38725,3.93503 -7.58474,4.78955 -15.37693,10.4051 -18.18823,13.10759 -1.62816,1.56516 -4.38285,3.46524 -6.12154,4.22242 -1.73869,0.75717 -4.9185,2.75454 -7.06623,4.43862 -6.87276,5.38899 -14.7881,11.12427 -25.60003,18.54919 -9.54563,6.55529 -10.88467,7.89788 -14.22563,14.26343 -2.02847,3.86484 -4.68822,8.45411 -5.91057,10.19839 -3.41875,4.87852 -11.04524,22.98049 -11.99031,28.45978 -0.46446,2.69277 -3.358796,11.09852 -6.431856,18.67943 -5.39076,13.29834 -5.54166,13.94335 -4.28777,18.3262 0.7148,2.4985 1.76626,8.36465 2.33658,13.03588 0.57032,4.67123 1.24299,8.83421 1.49483,9.25107 0.25182,0.41686 3.39424,1.9311 6.983136,3.36498 4.50086,1.79825 7.11626,3.5906 8.43022,5.77729 1.04773,1.74363 2.99315,3.78488 4.32316,4.5361 3.13756,1.7722 15.95484,1.20605 20.85883,-0.92135 z m 71.20097,-3.13246 c 1.05179,-1.74101 -1.83735,-3.22135 -3.51204,-1.79949 -1.14468,0.97187 -1.15117,1.35374 -0.0353,2.07786 1.8553,1.204 2.69147,1.13839 3.54737,-0.27837 z m 46.02877,-31.99588 c 3.46332,-3.07279 0.98547,-8.17603 -2.85754,-5.88523 -2.20296,1.31316 -6.88526,7.46246 -6.20899,8.15429 1.00298,1.02607 7.0616,-0.49021 9.06653,-2.26906 z M 70.921047,726.35136 c 1.331108,-4.86371 0.757878,-9.40056 -0.950388,-7.52192 -1.301825,1.43165 -2.607285,13.77505 -1.374439,12.99557 0.549889,-0.34767 1.596053,-2.81082 2.324827,-5.47365 z m 15.411489,-32.13593 c 3.997378,-4.42901 8.842578,-11.84434 8.842578,-13.5331 0,-0.70927 -0.502,-1.28957 -1.11555,-1.28957 -1.4688,0 -9.421953,6.55885 -9.421953,7.77016 0,0.51768 -1.012244,2.34189 -2.249431,4.05381 -2.085867,2.88623 -2.140283,6.50223 -0.09789,6.50223 0.484061,0 2.303055,-1.57659 4.042207,-3.50353 z m 3.202258,-23.43756 c 6.57823,-3.43974 14.070316,-9.67613 14.070316,-11.71209 0,-0.67829 -0.94838,-1.23326 -2.1075,-1.23326 -1.15913,0 -2.107496,0.50881 -2.107496,1.13071 0,0.6219 -1.78409,1.95594 -3.96463,2.96453 -4.63086,2.14198 -14.894265,12.07494 -12.476635,12.07494 0.230297,0 3.19397,-1.45116 6.585945,-3.22483 z M 293.6483,668.10816 c 0.63368,-1.68935 -0.67766,-3.13155 -1.80176,-1.98158 -1.00424,1.02737 -0.8141,3.56407 0.26716,3.56407 0.51756,0 1.20812,-0.71213 1.5346,-1.58249 z m 107.11443,-4.33678 c 0,-3.15021 -5.87266,-7.90828 -7.59104,-6.15033 -1.74728,1.7875 -0.14491,5.97115 3.04176,7.94178 3.43947,2.12696 4.54928,1.68992 4.54928,-1.79145 z m -46.36502,-8.09488 c -3.07268,-2.45883 -5.26875,-2.75838 -5.26875,-0.71869 0,2.20023 1.10474,2.87692 4.65407,2.85073 l 3.24906,-0.024 -2.63438,-2.10808 z m -54.79502,-14.07779 c 0,-3.21478 -0.41584,-5.19076 -1.01294,-4.81323 -1.31899,0.83396 -2.5599,7.63549 -1.66369,9.11895 1.57117,2.60077 2.67663,0.82249 2.67663,-4.30572 z m 78.99421,3.36854 c 1.8934,-3.61932 1.30841,-6.44201 -1.48366,-7.1589 -3.64129,-0.93495 -5.10193,0.32774 -4.27556,3.69606 1.34094,5.46576 3.90491,7.00739 5.75922,3.46284 z m 12.78293,-12.70044 c 3.06859,-1.8544 4.15255,-4.61863 1.81112,-4.61863 -1.44697,0 -6.12698,4.26065 -6.12698,5.57797 0,1.30545 0.89874,1.10568 4.31586,-0.95934 z m -116.0134,-33.30128 c 0,-1.72104 -4.9237,-2.03278 -7.34672,-0.46515 -1.64907,1.06689 -1.61496,1.09403 3.13172,2.4923 2.25737,0.66497 4.215,-0.27652 4.215,-2.02715 z m -34.77376,-14.79642 c 0,-1.26926 -7.47602,-8.26551 -8.83232,-8.26551 -0.28923,0 0.51279,2.18146 1.78227,4.84768 1.71694,3.60597 2.91548,4.84854 4.67911,4.85106 1.30401,0.002 2.37094,-0.6431 2.37094,-1.43323 z"
       id="path3050"
       inkscape:connector-curvature="0" />
  </g>
</svg>
