<?xml version="1.0" encoding="UTF-8" standalone="no"?>
<!-- Created with Inkscape (http://www.inkscape.org/) -->

<svg
   xmlns:dc="http://purl.org/dc/elements/1.1/"
   xmlns:cc="http://creativecommons.org/ns#"
   xmlns:rdf="http://www.w3.org/1999/02/22-rdf-syntax-ns#"
   xmlns:svg="http://www.w3.org/2000/svg"
   xmlns="http://www.w3.org/2000/svg"
   xmlns:sodipodi="http://sodipodi.sourceforge.net/DTD/sodipodi-0.dtd"
   xmlns:inkscape="http://www.inkscape.org/namespaces/inkscape"
   width="512"
   height="512"
   id="svg2"
   version="1.1"
   inkscape:version="0.48.4 r9939"
   sodipodi:docname="New document 1">
  <defs
     id="defs4" />
  <sodipodi:namedview
     id="base"
     pagecolor="#ffffff"
     bordercolor="#666666"
     borderopacity="1.0"
     inkscape:pageopacity="0.0"
     inkscape:pageshadow="2"
     inkscape:zoom="1.1074219"
     inkscape:cx="256"
     inkscape:cy="256"
     inkscape:document-units="px"
     inkscape:current-layer="layer1"
     showgrid="false"
     inkscape:window-width="1276"
     inkscape:window-height="782"
     inkscape:window-x="0"
     inkscape:window-y="14"
     inkscape:window-maximized="0" />
  <metadata
     id="metadata7">
    <rdf:RDF>
      <cc:Work
         rdf:about="">
        <dc:format>image/svg+xml</dc:format>
        <dc:type
           rdf:resource="http://purl.org/dc/dcmitype/StillImage" />
        <dc:title></dc:title>
      </cc:Work>
    </rdf:RDF>
  </metadata>
  <g
     inkscape:label="Layer 1"
     inkscape:groupmode="layer"
     id="layer1"
     transform="translate(0,-540.36218)">
    <path
       style="fill:#000000"
       d="m 230.21623,1046.7578 c -2.82677,-2.1092 -10.00859,-4.5788 -15.95961,-5.488 -5.95103,-0.9092 -15.38963,-2.4313 -20.97469,-3.3825 -6.1233,-1.0429 -12.6105,-1.0514 -16.34077,-0.021 -4.94879,1.3664 -8.33082,0.8036 -16.90858,-2.8136 -8.74862,-3.6893 -11.90701,-4.1946 -17.15732,-2.7449 -8.3259,2.2989 -10.94211,1.1557 -12.29839,-5.3737 -0.68798,-3.312 -3.28192,-6.5389 -6.86228,-8.5368 l -5.7562,-3.2121 8.63265,-10.8699 c 13.42013,-16.89817 21.33945,-41.90428 21.97419,-69.38589 l 0.42094,-18.22474 -6.23975,-4.25066 c -10.6851,-7.27889 -19.84028,-7.43276 -41.85074,-0.70335 -27.97634,8.55341 -29.54581,9.28517 -34.86107,16.25383 -2.64139,3.46304 -6.47351,6.29645 -8.51583,6.29645 -2.04231,0 -8.68385,-3.16845 -14.75897,-7.041 -9.95112,-6.34326 -11.05777,-7.69221 -11.16754,-13.6126 -0.067,-3.61438 -1.20371,-10.67615 -2.52599,-15.69279 C 26.94106,889.89128 25.15334,887.70883 13.65894,879.14487 5.7574898,873.25785 0.42710983,867.86378 0.07295983,865.39658 -1.3644402,855.38275 18.73679,836.66911 34.00392,833.80789 c 3.88395,-0.72791 7.52472,-2.07259 8.0906,-2.9882 0.56589,-0.91561 3.47401,-1.66476 6.46251,-1.66476 2.98852,0 7.37448,-0.74805 9.7466,-1.66235 2.37212,-0.9143 9.24089,-3.09173 15.26395,-4.83874 6.66434,-1.93303 13.73562,-5.69214 18.06477,-9.60325 7.56479,-6.83434 11.16573,-7.74798 16.76218,-4.25294 1.91455,1.19566 4.71901,1.69886 6.23213,1.11823 3.41913,-1.31205 11.37068,-24.2623 9.81276,-28.32219 -1.89819,-4.9466 -66.64113,-35.05317 -75.38038,-35.05317 -6.28121,0 -15.54527,-6.27473 -15.54527,-10.52913 0,-1.51041 -1.29797,-4.72712 -2.88435,-7.14827 -3.2603,-4.97584 -7.00914,-24.73621 -6.71916,-35.41713 0.1059,-3.90133 1.88759,-10.4158 3.95924,-14.4766 2.07167,-4.0608 3.76667,-8.38887 3.76667,-9.61793 0,-4.10154 9.65023,-22.0226 12.43409,-23.09088 4.07296,-1.56293 19.50149,2.9419 26.85826,7.84212 8.96992,5.97471 13.11294,6.66516 24.74161,4.12332 12.68715,-2.7732 18.92687,-2.79278 30.78484,-0.0967 5.1634,1.17401 16.99228,2.5851 26.2864,3.1358 9.29412,0.55068 22.23158,2.21961 28.74991,3.70871 6.51833,1.48909 12.65268,2.70745 13.63189,2.70745 2.8799,0 14.32973,-26.25818 16.78383,-38.49081 5.0148,-24.99656 6.14998,-32.32656 6.39715,-41.3072 0.14213,-5.1634 0.77192,-10.65538 1.39956,-12.2044 0.62766,-1.54902 2.11653,-6.40731 3.30862,-10.7962 1.19206,-4.38889 3.18962,-8.10849 4.43902,-8.26578 1.24939,-0.15734 3.11655,-0.4823 4.14923,-0.72224 1.03268,-0.23992 2.82814,-0.53369 3.9899,-0.6528 1.16177,-0.11904 2.61475,-2.72881 3.22885,-5.79933 0.7788,-3.89393 2.52143,-5.93534 5.76078,-6.74836 2.55435,-0.64108 5.32769,-0.74323 6.163,-0.22698 0.83531,0.51625 1.75922,9.24495 2.05312,19.39709 0.29392,10.15215 1.22613,19.15021 2.07157,19.99566 2.05643,2.05642 11.38042,-0.39159 11.8028,-3.09881 0.18401,-1.17889 0.39518,-8.03534 0.4694,-15.23652 0.11473,-11.12137 0.65217,-13.19636 3.56928,-13.77888 6.15846,-1.22979 12.52531,1.39402 12.52531,5.16175 0,6.7115 2.35323,9.68357 11.22818,14.18083 5.68845,2.88257 9.68879,6.44866 11.12592,9.91822 2.48658,6.00312 7.43723,24.54596 8.88676,33.28555 0.51382,3.09804 1.65602,7.32264 2.5382,9.388 4.44595,10.40874 10.11728,33.37833 11.10749,44.98667 l 1.11465,13.06744 8.18735,2.36363 c 6.88233,1.9869 9.04694,1.91913 13.58025,-0.42513 2.96608,-1.53383 9.42082,-3.34077 14.34385,-4.01545 8.32949,-1.14152 41.91287,-17.58956 55.12954,-27.00066 2.80297,-1.99589 6.23325,-3.64769 7.62287,-3.67065 1.38961,-0.0229 4.63885,-1.69401 7.22055,-3.71344 5.63145,-4.40499 11.82297,-4.79196 15.0208,-0.93881 1.28558,1.54903 3.07887,2.81641 3.9851,2.81641 2.801,0 1.81624,-7.96728 -1.42782,-11.55194 -2.50731,-2.77053 -2.63828,-3.92529 -0.70891,-6.25004 1.30165,-1.5684 3.17714,-2.85163 4.16775,-2.85163 3.87007,0 18.79812,14.17327 26.92854,25.56706 7.70304,10.79483 9.20127,11.98495 15.08794,11.98495 7.92875,0 9.77346,3.50914 5.37422,10.22321 -2.89774,4.4225 -2.92712,5.20563 -0.30528,8.13149 2.25804,2.51987 2.6725,6.0437 1.86943,15.89376 -1.22151,14.98233 -3.48133,17.74557 -12.06538,14.75315 -5.00326,-1.74414 -7.27409,-1.4669 -13.77958,1.68236 -9.77185,4.73047 -31.20075,25.88186 -37.83505,37.34506 -2.75893,4.76706 -7.84247,11.83827 -11.29679,15.71379 -3.45431,3.87553 -6.28057,8.72169 -6.28057,10.76925 0,2.04756 -0.98362,7.40045 -2.18581,11.89531 -1.98393,7.41771 -1.76718,8.92037 2.347,16.27063 4.94232,8.82975 4.20187,8.53074 56.16682,22.68077 19.11635,5.20537 30.69955,10.88314 31.58525,15.48222 0.38979,2.02396 -2.79595,7.05929 -7.95721,12.57711 -9.54599,10.20543 -10.68616,15.52657 -4.41499,20.60465 l 4.19225,3.39468 -6.68426,12.86588 c -8.87175,17.07644 -11.41622,18.1794 -31.74184,13.75921 -22.69993,-4.93651 -78.4373,-6.49475 -83.08381,-2.32274 -5.43703,4.88178 -4.22361,15.58706 2.84486,25.09884 3.37187,4.53739 7.61883,11.20702 9.4377,14.8214 1.81887,3.61438 6.67091,12.06358 10.78233,18.776 6.54439,10.68463 13.03221,23.14305 19.24508,36.95594 1.01377,2.25385 1.29397,5.52925 0.62267,7.27865 -1.01304,2.6399 -2.78996,2.9724 -10.45226,1.956 -10.0657,-1.3353 -9.35062,-1.8448 -19.46629,13.871 -3.69493,5.7405 -6.02839,7.0189 -18.88045,10.3437 -10.46033,2.706 -16.22789,5.357 -20.11792,9.247 -4.22244,4.2225 -7.25612,5.4902 -13.4393,5.616 -7.88421,0.1604 -7.98735,0.079 -8.10494,-6.4091 -0.21698,-11.9697 -0.7572,-13.2225 -9.26889,-21.495 -5.78192,-5.6193 -8.4492,-9.7673 -8.4492,-13.1396 0,-7.40913 -9.23186,-22.11972 -24.31107,-38.73871 -9.15321,-10.08784 -14.84131,-14.87384 -17.6774,-14.87384 -7.37863,0 -50.37863,48.09525 -54.98842,61.50425 -3.12515,9.0904 -1.76421,11.1342 9.61775,14.443 8.32717,2.4208 10.45388,3.9745 13.1143,9.581 5.2883,11.1442 -2.12107,15.9499 -12.57032,8.153 z m 133.24282,-29.8429 c 2.62568,-2.0653 6.28433,-3.7552 8.13035,-3.7552 5.03618,0 8.03583,-10.697 5.29624,-18.88687 -2.88959,-8.63831 -4.31611,-9.93386 -8.46828,-7.69071 -1.92895,1.04209 -5.07813,2.38777 -6.99821,2.99038 -2.83367,0.88938 -3.26848,2.28194 -2.3092,7.39542 1.4757,7.86608 -0.17725,12.43658 -4.49753,12.43658 -5.53477,0 -8.19242,4.7116 -4.65372,8.2503 4.00597,4.006 7.72619,3.8021 13.50035,-0.7399 z m -209.26479,-7.018 c 8.53841,-5.3159 19.3629,-20.92151 26.38869,-38.04436 1.90678,-4.64706 4.66043,-11.22387 6.11923,-14.61511 3.61677,-8.40776 3.59552,-21.30335 -0.0328,-19.91103 -1.47687,0.56671 -3.61016,3.70865 -4.74066,6.98206 -2.09362,6.06225 -6.54274,13.7207 -27.62799,47.55714 -15.57281,24.9904 -15.58864,27.6703 -0.10646,18.0313 z M 401.5234,988.04203 c 0,-4.66056 -4.13812,-9.54791 -6.27496,-7.41107 -1.97843,1.97842 -1.42874,7.17564 1.01768,9.62206 3.45754,3.45754 5.25728,2.70066 5.25728,-2.21099 z M 247.56018,948.18165 c 0,-1.43852 -1.68984,-2.61552 -3.7552,-2.61552 -3.53473,0 -5.10546,3.65669 -2.63283,6.1293 1.82717,1.82719 6.38803,-0.68155 6.38803,-3.51378 z m 0,-30.39163 c 0,-0.81932 -3.16845,-2.41035 -7.041,-3.53559 -3.87255,-1.12525 -12.28885,-4.03645 -18.70291,-6.46931 -8.83484,-3.35109 -12.18896,-3.89636 -13.83599,-2.24933 -1.64705,1.64705 -0.18551,3.20978 6.0291,6.4464 10.13082,5.27627 33.5508,9.3304 33.5508,5.80783 z m -68.81906,-7.29872 c 1.5662,-1.56618 -8.01589,-11.86517 -11.03922,-11.86517 -1.19577,0 -3.70339,-1.68984 -5.57253,-3.7552 -3.84583,-4.24959 -10.3268,-5.0367 -10.3268,-1.25418 0,2.77691 19.81456,18.15258 23.39317,18.15258 1.24705,0 2.84248,-0.57511 3.54538,-1.27803 z m 133.83638,-3.85897 7.27029,-3.25938 -6.67763,-0.58749 c -7.44943,-0.65539 -16.79237,2.22789 -16.79237,5.1822 0,2.95641 8.11959,2.28712 16.19971,-1.33533 z M 56.04497,887.24971 c 0,-0.97173 -1.26738,-1.76678 -2.8164,-1.76678 -2.90354,0 -3.73023,2.21549 -1.61571,4.33003 1.50007,1.50007 4.43211,-0.19563 4.43211,-2.56325 z m 415.73487,-1.02887 c 6.51546,-2.50021 0.24491,-19.64865 -10.3296,-28.24894 -4.30247,-3.49921 -18.34936,-6.62363 -21.60006,-4.80444 -2.25889,1.26413 -0.31741,2.8804 8.47683,7.05694 12.11892,5.75548 14.79966,9.52195 11.35635,15.95579 -1.71631,3.207 -1.49714,4.68302 1.12579,7.58134 3.41299,3.77131 6.02552,4.35695 10.97069,2.45931 z M 170.57857,875.298 c 0,-0.43831 -2.40841,-6.98644 -5.35202,-14.5514 -2.94363,-7.56497 -6.81565,-17.76785 -8.6045,-22.67308 -3.61533,-9.91363 -6.71236,-11.65772 -6.66826,-3.7552 0.0473,8.48131 7.30601,34.71531 10.61791,38.37492 2.67021,2.95056 10.00687,4.86024 10.00687,2.60476 z m -111.7172,-8.45311 c 14.23848,-1.95315 27.73725,-9.98949 20.21147,-12.03267 -13.20702,-3.58558 -17.53855,-3.38098 -45.53913,2.15109 -7.50244,1.48227 -9.31579,5.81235 -4.46533,10.6628 2.61208,2.61209 4.94138,2.98221 11.82879,1.87959 4.71691,-0.75516 12.8008,-1.95252 17.9642,-2.66081 z m 220.18641,-8.55986 c 8.28294,-6.38212 19.20761,-18.91354 19.20761,-22.03257 0,-2.1298 9.61406,-24.40349 17.1267,-39.67882 2.97248,-6.0439 5.4045,-12.26 5.4045,-13.81358 0,-5.1256 -10.91408,-25.7995 -16.30268,-30.88121 -7.96729,-7.51354 -17.65901,-9.49193 -30.3306,-6.19139 -13.62163,3.54799 -22.8405,3.45873 -28.16789,-0.27272 -3.9417,-2.76088 -4.56657,-2.75121 -7.73874,0.11961 -1.89793,1.7176 -6.58688,10.46217 -10.41987,19.43237 -3.83299,8.9702 -8.35406,18.84421 -10.04685,21.94225 -2.35186,4.30425 -3.07224,10.72557 -3.05433,27.22521 0.0131,11.87582 0.67092,23.94871 1.46226,26.82865 1.0192,3.7092 5.31086,7.74106 14.71614,13.82532 15.46848,10.0065 19.18847,11.23858 31.21903,10.33994 6.5433,-0.48878 11.03488,-2.30481 16.92472,-6.84301 z m 26.65195,2.91253 c 2.82151,-5.27204 2.41567,-6.14097 -1.81154,-3.87863 -2.06536,1.10534 -3.7552,3.24736 -3.7552,4.76005 0,3.91966 3.27478,3.40114 5.56674,-0.88142 z M 96.41338,853.56372 c 1.48174,-2.3975 -4.73933,-2.3975 -8.4492,0 -2.20286,1.4236 -1.71572,1.82637 2.23618,1.84886 2.77892,0.015 5.57478,-0.81618 6.21302,-1.84886 z m 224.57841,-19.18413 c 6.01441,-11.96204 7.01562,-15.40062 5.37619,-18.46391 -2.19566,-4.10265 -5.58139,-3.2943 -5.58139,1.33257 0,1.59089 -2.95722,9.71653 -6.5716,18.057 -3.61438,8.34046 -6.5716,15.96408 -6.5716,16.94138 0,4.39412 6.59222,-4.42966 13.3484,-17.86704 z m 112.45081,17.30653 c -3.70054,-2.39148 -11.2656,-2.39148 -11.2656,0 0,1.03268 3.16845,1.86467 7.041,1.84886 5.23734,-0.0214 6.31953,-0.49501 4.2246,-1.84886 z m -314.01841,-5.1624 c 0.4243,-1.29031 -0.58136,-2.86514 -2.23479,-3.49962 -3.46984,-1.3315 -14.20442,2.63042 -14.20442,5.24258 0,2.6264 15.54433,0.97832 16.43921,-1.74296 z M 378.9922,796.40773 c 0,-2.99032 -3.40665,-5.77923 -5.05088,-4.135 -1.54459,1.54459 0.86655,6.84059 3.11436,6.84059 1.06508,0 1.93652,-1.21751 1.93652,-2.70559 z m 31.9192,-22.28315 c 0,-3.37532 -5.05118,-10.01555 -6.50947,-8.55727 -2.03119,2.0312 1.14686,11.01481 3.89662,11.01481 1.43706,0 2.61285,-1.10589 2.61285,-2.45754 z M 145.38454,752.17331 c 0.43187,0 0.78523,-1.28829 0.78523,-2.86287 0,-1.57457 -2.16729,-3.68687 -4.81623,-4.694 -6.33919,-2.41016 -6.44937,-2.3837 -6.44937,1.54855 0,4.4109 3.90374,8.23069 7.14172,6.98817 1.40438,-0.53893 2.90677,-0.97985 3.33865,-0.97985 z m 244.33118,-18.194 c 0.74615,-1.9444 0.17799,-3.515 -1.46712,-4.05586 -1.47664,-0.48547 -5.21956,-3.55681 -8.3176,-6.82521 -7.77426,-8.20175 -23.10673,-18.09413 -24.5144,-15.81649 -0.62996,1.01929 1.51535,4.14383 4.76734,6.94341 3.252,2.79957 10.29281,9.087 15.64628,13.97204 10.77792,9.83486 12.11644,10.39224 13.8855,5.78211 z M 143.26045,705.38365 c 0.58712,-0.94997 -1.18415,-3.4984 -3.93616,-5.66313 -7.6083,-5.9847 -23.38932,-2.59187 -20.68796,4.44778 0.85084,2.21724 3.89346,2.94261 12.34291,2.94261 6.16754,0 11.69408,-0.77727 12.28121,-1.72726 z m -48.72467,-7.7915 c 0,-1.44881 -1.47861,-2.91897 -3.2858,-3.267 -3.2365,-0.62329 -4.57448,3.36081 -1.99495,5.94035 1.96812,1.9681 5.28075,0.29112 5.28075,-2.67335 z m -26.42574,-1.12201 c 1.59874,-4.16625 -1.93179,-7.75395 -4.80397,-4.88176 -2.29869,2.29869 -0.96727,8.01213 1.8671,8.01213 0.95459,0 2.2762,-1.40867 2.93687,-3.13037 z m 400.58918,-3.54769 c 6.78291,-4.75095 4.35173,-13.97554 -3.68331,-13.97554 -5.19049,0 -15.52418,10.09942 -14.10849,13.78864 1.54419,4.02409 12.15433,4.13553 17.7918,0.18682 z"
       id="path3050"
       inkscape:connector-curvature="0" />
  </g>
</svg>
