<?xml version="1.0" encoding="UTF-8" standalone="no"?>
<!-- Created with Inkscape (http://www.inkscape.org/) -->

<svg
   xmlns:dc="http://purl.org/dc/elements/1.1/"
   xmlns:cc="http://creativecommons.org/ns#"
   xmlns:rdf="http://www.w3.org/1999/02/22-rdf-syntax-ns#"
   xmlns:svg="http://www.w3.org/2000/svg"
   xmlns="http://www.w3.org/2000/svg"
   xmlns:sodipodi="http://sodipodi.sourceforge.net/DTD/sodipodi-0.dtd"
   xmlns:inkscape="http://www.inkscape.org/namespaces/inkscape"
   width="512"
   height="512"
   id="svg3071"
   version="1.1"
   inkscape:version="0.48.4 r9939"
   sodipodi:docname="New document 7">
  <defs
     id="defs3073" />
  <sodipodi:namedview
     id="base"
     pagecolor="#ffffff"
     bordercolor="#666666"
     borderopacity="1.0"
     inkscape:pageopacity="0.0"
     inkscape:pageshadow="2"
     inkscape:zoom="1.1074219"
     inkscape:cx="256"
     inkscape:cy="256"
     inkscape:document-units="px"
     inkscape:current-layer="layer1"
     showgrid="false"
     inkscape:window-width="1276"
     inkscape:window-height="782"
     inkscape:window-x="0"
     inkscape:window-y="14"
     inkscape:window-maximized="0" />
  <metadata
     id="metadata3076">
    <rdf:RDF>
      <cc:Work
         rdf:about="">
        <dc:format>image/svg+xml</dc:format>
        <dc:type
           rdf:resource="http://purl.org/dc/dcmitype/StillImage" />
        <dc:title></dc:title>
      </cc:Work>
    </rdf:RDF>
  </metadata>
  <g
     inkscape:label="Layer 1"
     inkscape:groupmode="layer"
     id="layer1"
     transform="translate(0,-540.36218)">
    <path
       style="fill:#000000"
       d="m 191.40534,1050.805 c -2.14929,-2.2197 -1.29362,-13.0823 1.8131,-23.0169 2.26473,-7.2421 2.50418,-10.2132 0.95227,-11.816 -2.99095,-3.0889 -8.37668,2.4974 -10.94586,11.3535 -1.13874,3.9253 -4.86398,10.4619 -8.2783,14.5256 l -6.20786,7.3886 -1.88724,-4.6954 c -1.038,-2.5825 -2.37068,-7.7827 -2.96154,-11.556 -0.69305,-4.4258 -2.67026,-7.9404 -5.57155,-9.9037 -4.56399,-3.0884 -6.00814,-9.2834 -2.662,-11.4192 2.95132,-1.8837 17.71187,-35.0276 18.95915,-42.57151 1.43991,-8.70886 -0.5474,-10.0877 -13.52005,-9.38062 -18.55491,1.01136 -55.3079,-14.84751 -75.310855,-32.49653 -5.3052,-4.68087 -10.61314,-8.5107 -11.79543,-8.5107 -1.1823,0 -5.35788,1.69037 -9.27909,3.75636 -3.92122,2.066 -10.4528,3.75637 -14.51464,3.75637 -4.06183,0 -13.55813,1.87563 -21.10287,4.16806 -12.38309,3.76255 -14.18084,3.89959 -18.47799,1.40864 -6.6610302,-3.86126 -6.1449102,-5.95027 2.53788,-10.27216 10.57862,-5.26553 14.6875,-9.61994 15.61838,-16.55165 0.44217,-3.2926 1.13949,-7.20238 1.54962,-8.6884 0.46009,-1.66709 -1.86618,-4.01052 -6.07406,-6.11887 -6.9234,-3.46897 -8.16926,-6.46221 -5.13388,-12.33431 0.9272,-1.79374 2.12908,-4.7404 2.67082,-6.54816 0.54172,-1.80774 2.6155,-3.28681 4.60838,-3.28681 1.99289,0 5.10535,-1.64279 6.9166,-3.65065 1.81124,-2.00785 6.81705,-4.46834 11.124,-5.46776 4.30695,-0.9994 8.22604,-2.22529 8.70909,-2.72416 0.48304,-0.49888 2.09309,-7.96928 3.57788,-16.60088 1.48481,-8.63162 5.1177,-27.59377 8.0731,-42.13812 2.95541,-14.54436 5.37346,-28.15036 5.37346,-30.23556 0,-2.57617 -2.18576,-4.78784 -6.81972,-6.90061 -3.75084,-1.71012 -9.27482,-4.51097 -12.27549,-6.22409 -9.16926,-5.23484 -12.02905,-6.53816 -22.54549,-10.2749 -11.46295,-4.07307 -23.8286102,-12.23776 -23.8286102,-15.73335 0,-1.28251 1.2585,-3.41055 2.79668,-4.72894 2.31867,-1.98739 5.8155102,-1.22053 20.4591602,4.48671 9.71436,3.78612 18.27625,6.87427 19.02642,6.86258 0.75017,-0.0113 1.36395,-1.71593 1.36395,-3.7872 0,-4.97627 -20.95271,-20.8715 -35.10281,-26.62984 -13.02596029,-5.30086 -16.3275802,-10.06933 -10.4026202,-15.0243 2.24441,-1.87696 5.36844,-3.41265 6.94229,-3.41265 1.5738502,0 6.2854702,-1.71181 10.4703102,-3.80403 9.34989,-4.67452 13.54696,-3.39235 26.93053,8.22707 5.14029,4.46269 13.84698,10.8081 19.34822,14.10089 5.50124,3.29277 11.76644,7.28357 13.92265,8.86846 3.62214,2.66236 4.22286,2.55163 7.89656,-1.45585 2.1869,-2.38559 7.6805,-11.91549 12.207985,-21.17757 13.52744,-27.67355 30.16857,-45.95209 52.87719,-58.07994 4.19649,-2.24119 7.18038,-6.07207 10.09726,-12.96339 5.67835,-13.41546 10.93725,-34.45708 9.54697,-38.1988 -1.05029,-2.82669 -1.44134,-2.80863 -4.67764,0.21615 -4.8885,4.56899 -9.51945,2.3629 -8.78992,-4.18736 0.46701,-4.19326 1.95722,-5.62594 7.8508,-7.54777 4.00091,-1.30466 9.32029,-4.78532 11.82085,-7.73479 5.49753,-6.48448 14.54388,-11.49223 20.76034,-11.49223 2.5155,0 8.35931,-2.47946 12.9862,-5.50991 4.62692,-3.03045 9.39771,-5.11949 10.60172,-4.64234 2.75533,1.09198 12.0281,15.71189 12.0281,18.9641 0,1.33399 -1.63673,3.48107 -3.63719,4.7713 -4.9629,3.20095 -4.68314,4.82443 3.37506,19.58645 3.85672,7.06523 8.7828,18.76216 10.94683,25.99316 5.92199,19.7881 4.59631,18.86156 26.10882,18.24762 17.1065,-0.4882 24.89578,0.56277 48.36537,6.5258 2.75309,0.69949 6.06316,-0.32344 9.47397,-2.92778 6.8364,-5.21998 9.02689,-5.05194 9.02689,0.69255 0,6.11415 2.64956,5.96538 6.73483,-0.37817 1.79708,-2.7905 7.21848,-9.19559 12.04756,-14.23355 8.08798,-8.43782 9.37744,-9.11129 16.3575,-8.54319 7.28767,0.59314 7.78636,0.27493 13.04298,-8.3229 10.93403,-17.88389 18.68518,-5.54074 8.76293,13.95435 -2.80229,5.50589 -5.37256,10.64462 -5.71169,11.41937 -1.49581,3.41711 4.91527,0.96118 8.88606,-3.40404 7.62199,-8.37908 15.66715,-12.52407 21.66694,-11.16311 3.6172,0.8205 6.7724,0.24673 9.50218,-1.72793 5.41651,-3.91818 10.01855,-3.73852 12.20274,0.47641 1.47224,2.84103 -0.22233,5.46141 -9.83151,15.20292 -6.91236,7.00754 -12.08326,13.99386 -12.77905,17.26559 -0.69938,3.28853 -4.43076,8.30843 -9.29175,12.50029 -4.46768,3.85267 -12.16062,11.93229 -17.09544,17.95471 l -8.97239,10.94982 2.93586,5.86337 c 1.61473,3.22485 6.05973,10.5898 9.87778,16.36652 8.66483,13.10993 13.75676,25.22908 15.42375,36.70976 0.70887,4.88188 2.87509,10.51436 4.81385,12.51666 3.08031,3.18125 5.05714,3.47486 15.66975,2.32746 6.67962,-0.72218 15.13855,-2.87352 18.79759,-4.78074 3.65906,-1.90723 10.0014,-4.02067 14.09409,-4.69657 6.6772,-1.1027 7.44126,-0.83337 7.44126,2.62305 0,2.11857 -2.45399,6.38635 -5.45332,9.48394 -5.88707,6.08 -5.76381,10.25435 0.40349,13.66314 2.74313,1.51619 7.55563,0.93725 19.94996,-2.3999 l 16.33474,-4.3981 3.47778,4.43397 c 4.02369,5.12999 4.60155,15.74198 1.02416,18.80823 -1.3495,1.15668 -6.69091,2.93298 -11.86979,3.94731 -10.62018,2.08006 -17.13703,5.12768 -15.78741,7.38298 0.49891,0.83373 5.10949,2.02987 10.24574,2.6581 9.82733,1.20206 14.40931,3.77003 14.40931,8.07576 0,3.11192 1.75541,2.84366 -22.7324,3.474 -30.11773,0.77525 -30.00677,0.7619 -30.00677,3.60782 0,3.60387 3.78983,4.79886 19.59507,6.17867 10.3339,0.90216 14.73471,2.19311 18.31319,5.37205 3.87242,3.44006 4.31043,4.68231 2.46197,6.98254 -3.26804,4.06682 -15.14911,5.47695 -28.13667,3.3395 -11.52342,-1.89647 -32.36658,-2.69055 -42.24033,-1.60928 -4.85444,0.53162 -5.56593,1.42552 -6.45519,8.1102 -1.39251,10.46784 -10.04166,32.9964 -16.37036,42.64016 -7.62752,11.6229 -7.03157,16.72732 3.27568,28.05634 4.75107,5.22204 12.11637,13.33242 16.36733,18.02303 7.78889,8.59444 9.5826,14.7322 5.52887,18.91876 -1.72116,1.77755 -1.48869,3.51615 1.06773,7.98563 3.54771,6.20258 2.87339,11.15341 -1.51914,11.15341 -1.52115,0 -7.26041,-4.01462 -12.75392,-8.92137 -16.42596,-14.6715 -22.25949,-19.25137 -24.52104,-19.25137 -3.3239,0 -0.38882,7.66618 5.39311,14.08637 7.50906,8.33801 14.52889,19.77266 14.52889,23.66621 0,1.88162 -1.47357,4.9331 -3.27459,6.78108 -1.80102,1.84801 -4.68417,5.68425 -6.40699,8.525 -1.72283,2.84076 -4.1563,5.16506 -5.40773,5.16506 -1.25143,0 -5.85967,-5.0834 -10.24053,-11.29641 -4.38086,-6.21298 -12.54472,-16.29289 -18.14191,-22.39979 -5.59719,-6.10688 -11.95612,-13.27869 -14.13093,-15.93729 -4.7388,-5.79298 -8.75505,-5.96965 -23.94133,-1.05327 -6.61195,2.14055 -16.6941,3.74164 -23.6417,3.75443 -6.66241,0.0131 -16.6145,1.27046 -22.11574,2.79601 -6.09557,1.69036 -13.28519,2.33319 -18.40755,1.64585 -5.33204,-0.71549 -8.8622,-0.36435 -9.65492,0.96035 -0.68732,1.14853 -4.05597,2.08823 -7.48591,2.08823 -5.91925,0 -6.30273,0.40576 -7.54394,7.98228 -0.71922,4.39025 -1.15424,8.56607 -0.96671,9.27961 0.97684,3.71669 -3.64831,42.0436 -5.32556,44.1307 -1.31136,1.6319 -4.24556,2.0626 -8.86026,1.3004 -6.5937,-1.0889 -7.12413,-0.7761 -11.96379,7.0561 -9.29284,15.0388 -15.2793,19.763 -19.50856,15.3952 z M 153.82109,943.25718 c 0,-0.83701 -4.78228,-3.66382 -10.6273,-6.2818 -9.15262,-4.09944 -27.46653,-17.8193 -41.72138,-31.25556 -5.197445,-4.89898 -8.026845,-4.93628 -12.211335,-0.16096 -3.17928,3.62818 -3.17337,3.89257 0.17277,7.74764 7.87265,9.06991 31.033305,23.14296 46.197655,28.07095 14.86939,4.83216 18.18959,5.17526 18.18959,1.87973 z m 0,-29.15882 c 0,-1.50127 -1.84132,-4.06846 -4.09183,-5.70487 -7.40263,-5.38268 -18.55393,-13.96386 -23.61193,-18.16996 -6.27389,-5.21717 -7.79183,-3.74336 -4.46251,4.33276 3.17353,7.69825 9.85684,14.27927 18.95789,18.66777 8.52894,4.11264 13.20838,4.42239 13.20838,0.8743 z m 121.07623,-13.27404 c 37.43172,-13.18046 43.11616,-16.56634 65.93962,-39.27614 14.13026,-14.05991 15.65565,-16.64153 19.49533,-32.99481 2.08223,-8.86832 2.03153,-11.91834 -0.3583,-21.55521 -1.53105,-6.17384 -3.62263,-12.84406 -4.64798,-14.82269 -1.02532,-1.97865 -3.36872,-9.03077 -5.20752,-15.67142 -1.83879,-6.64065 -6.24881,-16.59472 -9.80001,-22.12015 -3.55122,-5.52542 -6.45674,-11.24062 -6.45674,-12.70042 0,-1.45981 -3.11065,-5.23589 -6.91255,-8.39128 -7.90674,-6.56225 -31.58912,-19.30797 -35.87545,-19.30797 -1.57838,0 -5.8806,-2.11295 -9.56053,-4.69546 -3.6799,-2.5825 -8.20952,-4.69546 -10.06579,-4.69546 -1.8563,0 -9.77385,-2.90556 -17.59456,-6.4568 -17.83102,-8.09673 -30.63965,-10.61326 -42.68032,-8.38546 -5.0373,0.93203 -13.25057,2.18838 -18.2517,2.79192 -8.478,1.0231 -9.98512,2.07105 -22.28481,15.49519 -12.35764,13.48744 -27.72647,38.30288 -27.72647,44.76886 0,1.56689 1.63673,3.29093 3.63718,3.8312 4.6301,1.25048 4.74476,4.30058 0.16168,4.30058 -6.01567,0 -12.42637,10.26022 -15.59181,24.95443 -2.21963,10.30373 -2.47682,15.00061 -1.03573,18.91516 1.05444,2.86423 1.92942,8.74468 1.94444,13.0677 0.0358,10.29346 7.15118,33.6755 14.69779,48.29833 7.58729,14.70166 17.74702,25.53487 31.65865,33.75729 16.42831,9.70989 24.18828,11.37097 49.2322,10.53851 20.50297,-0.68153 23.64612,-1.32273 47.2834,-9.6459 z m 112.90297,-14.51683 c 9.71857,-11.24583 21.21382,-40.9923 17.37368,-44.95827 -1.18125,-1.21995 -2.33175,-0.99513 -3.36392,0.65733 -3.90701,6.25484 -6.20819,10.43295 -8.6453,15.69678 -1.44453,3.11998 -4.44366,7.34589 -6.66472,9.39091 -6.02318,5.54579 -9.5122,15.1697 -7.15129,19.7257 2.47005,4.76652 3.96799,4.6757 8.45155,-0.51245 z M 91.988965,842.92 c 0,-4.32492 -4.01494,-15.14178 -6.89865,-18.58591 -2.08374,-2.48872 -3.33799,-2.77311 -5.19824,-1.17866 -2.75584,2.36209 -3.28316,8.402 -0.86815,9.94347 0.87104,0.55597 2.07813,3.564 2.68243,6.68448 0.87438,4.51514 2.03635,5.67363 5.69066,5.67363 2.64387,0 4.59195,-1.07629 4.59195,-2.53701 z m 298.249105,-4.14747 c 0,-0.45553 -0.81836,-0.82825 -1.81859,-0.82825 -1.00023,0 -1.81859,0.89507 -1.81859,1.98904 0,1.09397 0.81836,1.46667 1.81859,0.82824 1.00023,-0.63843 1.81859,-1.5335 1.81859,-1.98903 z m 3.63719,-24.41895 c 0,-7.2458 -4.60039,-28.76093 -7.60676,-35.57543 -2.31754,-5.25309 -6.23486,-6.55251 -4.23639,-1.40525 0.70187,1.80774 2.0104,12.44224 2.90784,23.63219 0.89744,11.18997 2.12031,21.16189 2.71752,22.15985 2.04761,3.42168 6.21779,-2.48799 6.21779,-8.81136 z M 101.79664,799.28792 c 1.69939,-4.57362 1.30717,-28.95821 -0.46577,-28.95821 -2.421965,0 -7.804085,19.53064 -6.506865,23.61208 0.63309,1.99185 1.45605,4.67804 1.82883,5.96929 0.94638,3.27824 3.823725,2.92967 5.143805,-0.62316 z m 301.29113,-38.4152 c 2.53028,-1.39855 3.51763,-3.94736 3.51763,-9.08073 0,-8.47767 -6.06822,-28.57841 -11.41381,-37.80776 -4.03944,-6.97424 -17.2075,-20.66001 -19.87849,-20.66001 -3.45276,0 -12.35391,8.41901 -12.35391,11.68474 0,4.27699 8.06504,20.96929 14.05075,29.08105 2.44299,3.31067 5.59594,9.98005 7.00658,14.82085 1.41065,4.84077 3.48777,9.94997 4.61584,11.35376 2.43477,3.02985 9.53361,3.32847 14.45541,0.6081 z m -45.58436,-8.96586 c 0,-4.66731 -4.56208,-10.8846 -6.10048,-8.31385 -1.53355,2.56262 1.77623,11.71124 4.23688,11.71124 1.02498,0 1.8636,-1.52883 1.8636,-3.39739 z M 77.376245,742.28044 c 2.76946,-5.34437 2.30969,-7.6362 -1.53194,-7.6362 -5.20085,0 -8.51105,4.92692 -5.67845,8.45182 3.02696,3.76677 4.94841,3.54942 7.21039,-0.81562 z M 321.13157,712.43343 c 0,-4.12246 -5.87238,-9.95835 -14.54874,-14.45831 -3.50079,-1.81567 -8.67837,-5.29526 -11.50574,-7.73242 -2.82735,-2.43716 -5.96449,-4.43121 -6.97141,-4.43121 -1.00692,0 -8.10483,-2.59621 -15.77314,-5.76937 -7.66833,-3.17315 -20.0303,-6.84766 -27.47105,-8.16559 -13.62351,-2.41301 -20.21294,-1.53945 -36.17084,4.79515 -5.75475,2.28438 -3.93697,6.42195 2.59363,5.90353 2.90303,-0.23045 8.20601,-0.55699 11.78438,-0.72565 6.37933,-0.30071 20.88628,4.38261 35.32148,11.40287 4.0009,1.94575 15.4957,6.17769 25.54398,9.40427 10.04831,3.2266 20.68707,7.51228 23.6417,9.52376 6.9492,4.73088 13.55575,4.85416 13.55575,0.25297 z m 28.06044,-37.2854 c 0.64387,-1.7329 0.0473,-4.31086 -1.32561,-5.72881 -2.11598,-2.18533 -2.8498,-2.13816 -4.81676,0.30954 -2.74085,3.41075 -1.30729,8.57 2.38129,8.57 1.4247,0 3.11719,-1.41783 3.76108,-3.15073 z m -24.42326,-17.62014 c 0,-1.09396 -0.81836,-1.46666 -1.81859,-0.82823 -1.00022,0.63843 -1.81859,1.5335 -1.81859,1.98903 0,0.45554 0.81837,0.82824 1.81859,0.82824 1.00023,0 1.81859,-0.89507 1.81859,-1.98904 z m -18.11959,-7.47037 c 2.03695,-2.1037 3.28792,-4.51937 2.77997,-5.36821 -0.50797,-0.84882 -6.93751,-2.54525 -14.28786,-3.76984 -13.4931,-2.248 -23.11169,-0.78075 -23.11169,3.52551 0,1.05857 0.20459,1.94847 0.45465,1.97757 0.25006,0.0291 4.95566,1.66017 10.4569,3.62464 13.10142,4.67845 19.18544,4.68111 23.70803,0.009 z"
       id="path3144"
       inkscape:connector-curvature="0" />
  </g>
</svg>
