<?xml version="1.0" encoding="UTF-8" standalone="no"?>
<!-- Created with Inkscape (http://www.inkscape.org/) -->

<svg
   xmlns:dc="http://purl.org/dc/elements/1.1/"
   xmlns:cc="http://creativecommons.org/ns#"
   xmlns:rdf="http://www.w3.org/1999/02/22-rdf-syntax-ns#"
   xmlns:svg="http://www.w3.org/2000/svg"
   xmlns="http://www.w3.org/2000/svg"
   xmlns:sodipodi="http://sodipodi.sourceforge.net/DTD/sodipodi-0.dtd"
   xmlns:inkscape="http://www.inkscape.org/namespaces/inkscape"
   width="512"
   height="512"
   id="svg3071"
   version="1.1"
   inkscape:version="0.48.4 r9939"
   sodipodi:docname="New document 7">
  <defs
     id="defs3073" />
  <sodipodi:namedview
     id="base"
     pagecolor="#ffffff"
     bordercolor="#666666"
     borderopacity="1.0"
     inkscape:pageopacity="0.0"
     inkscape:pageshadow="2"
     inkscape:zoom="1.1074219"
     inkscape:cx="256"
     inkscape:cy="256"
     inkscape:document-units="px"
     inkscape:current-layer="layer1"
     showgrid="false"
     inkscape:window-width="636"
     inkscape:window-height="782"
     inkscape:window-x="640"
     inkscape:window-y="14"
     inkscape:window-maximized="0" />
  <metadata
     id="metadata3076">
    <rdf:RDF>
      <cc:Work
         rdf:about="">
        <dc:format>image/svg+xml</dc:format>
        <dc:type
           rdf:resource="http://purl.org/dc/dcmitype/StillImage" />
        <dc:title></dc:title>
      </cc:Work>
    </rdf:RDF>
  </metadata>
  <g
     inkscape:label="Layer 1"
     inkscape:groupmode="layer"
     id="layer1"
     transform="translate(0,-540.36218)">
    <path
       style="fill:#000000"
       d="m 206.20516,1041.6565 c -4.01069,-4.2692 -3.92431,-4.9542 1.30511,-10.3496 4.91636,-5.0724 4.69064,-6.2745 -3.04397,-16.2113 -2.12993,-2.7363 -8.42237,-15.0126 -13.98324,-27.28073 -11.01629,-24.30363 -15.38435,-32.51928 -18.21959,-34.26828 -2.42117,-1.49355 -2.33361,-4.61072 0.23983,-8.53829 1.89434,-2.89112 1.75859,-3.72168 -1.50204,-9.18951 -1.97153,-3.30612 -4.42824,-6.01112 -5.45935,-6.01112 -1.03112,0 -5.49071,1.59915 -9.91022,3.55366 -4.41951,1.95452 -8.89143,3.55367 -9.93759,3.55367 -1.04615,0 -5.02579,1.21929 -8.84363,2.70951 -9.60781,3.75027 -24.84028,7.29349 -37.503035,8.72355 -12.6413,1.42764 -22.3086,2.72859 -26.47254,3.56245 -1.69475,0.33939 -3.80147,2.49504 -4.80415,4.91571 -3.97258,9.59068 -15.14802,14.54145 -18.81795,8.33643 -0.98388,-1.66352 -5.14708,-4.53392 -9.25157,-6.37867 l -7.46269,-3.35408 0,-6.8871 c 0,-6.12325 -1.04434,-8.45066 -9.41608,-20.98455 -5.17886,-7.7536 -11.25562,-16.1986 -13.5039304,-18.76668 -2.24832,-2.56806 -4.09024,-5.76636 -4.09317,-7.10733 -0.003,-1.34095 -1.28223,-4.53245 -2.84293,-7.09222 -3.74805,-6.14737 -3.58121001,-9.7185 0.58148,-12.446 3.09866,-2.03032 3.91422,-2.03339 8.7023904,-0.0328 2.90581,1.21413 6.46808,2.2075 7.91613,2.2075 2.81099,0 6.97024,-6.59571 6.97024,-11.05336 0,-3.17788 4.52444,-7.56724 11.37173,-11.0322 8.21234,-4.15569 18.73005,-12.56195 26.81545,-21.43212 11.52212,-12.6405 27.78842,-28.96506 28.86802,-28.97143 0.52639,-0.003 2.92511,-1.66166 5.3305,-3.68567 6.901765,-5.8074 5.034975,-16.22045 -2.90793,-16.22045 -1.8449,0 -3.49493,-1.62988 -4.79147,-4.73293 -1.08765,-2.6031 -3.01736,-5.59589 -4.28823,-6.65061 -1.27088,-1.05475 -3.38673,-3.94521 -4.70189,-6.42325 -1.31517,-2.47806 -5.77676,-7.48634 -9.91467,-11.12954 -6.03462,-5.31313 -8.21942,-6.44931 -11.04031,-5.7413 -3.0359,0.76194 -5.60866,-1.18039 -18.81226,-14.20251 -22.34245,-22.03533 -23.35888,-22.52832 -25.02079,-12.13531 -0.51507,3.22104 -1.84578,8.03267 -2.95712,10.69249 -1.75128,4.19139 -2.68231,4.83604 -6.9844004,4.83604 -2.73007,0 -5.37909,-0.67201 -5.88671,-1.49335 -0.50762,-0.82133 -1.03640001,-8.977 -1.17508001,-18.12369 -0.22831,-15.05979 0.05,-17.10332 2.94696001,-21.63868 1.75949,-2.75459 3.83304,-8.35121 4.60788,-12.43694 1.6808,-8.86279 4.2186404,-14.07304 9.0553204,-18.59079 1.99483,-1.86329 4.71033,-7.12145 6.13641,-11.88223 2.76629,-9.2349 5.07785,-11.07254 13.92807,-11.07254 2.58971,0 5.50485,-0.95949 6.47811,-2.1322 2.66569,-3.21196 8.16164,-2.63369 10.13244,1.0661 2.10225,3.94657 4.59771,5.90325 11.90029,9.331 7.18767,3.37382 22.64412,6.61819 24.89682,5.22593 2.05089,-1.2675 -4.09982,-6.90365 -10.86593,-9.95687 -6.05034,-2.73024 -13.32016,-9.0192 -13.32016,-11.523 0,-5.24447 7.88698,-3.15745 29.85079,7.899 4.299925,2.16457 13.255165,5.9753 19.900515,8.46833 6.64536,2.49301 15.0398,6.05995 18.6543,7.92651 3.61452,1.86657 11.73021,4.18341 18.03489,5.14855 15.60624,2.38904 16.95286,1.43192 20.30285,-14.43032 3.35258,-15.87462 10.92713,-50.15765 12.85787,-58.19581 0.84505,-3.51813 1.44536,-10.17022 1.33404,-14.78244 -0.19052,-7.89364 0.0923,-8.65579 4.8186,-12.98491 4.09947,-3.75496 5.02102,-5.61463 5.02102,-10.13229 0,-9.64073 2.43153,-11.44769 16.68326,-12.39804 6.85124,-0.45686 15.65509,-1.20755 19.56412,-1.66819 10.81841,-1.27487 32.95837,2.72138 37.21104,6.71657 2.68097,2.51864 5.20214,3.27552 11.23816,3.37386 10.39521,0.16937 13.2883,2.83197 10.73858,9.88308 -1.66141,4.59455 -1.47158,5.64676 2.37477,13.16255 2.2993,4.49284 5.65439,12.96626 7.45577,18.82981 3.54677,11.54485 7.86227,19.9706 15.16274,29.6043 5.57911,7.3622 5.89306,12.0332 1.10691,16.46885 -4.41127,4.08823 -4.51225,8.09109 -0.32687,12.95688 2.72416,3.16701 3.77594,3.53644 6.75197,2.37153 3.39851,-1.33026 7.96284,-2.36135 26.26862,-5.93416 13.99899,-2.73225 49.35329,-14.41728 55.08181,-18.20525 6.71567,-4.4407 6.77615,-7.39554 0.35536,-17.36163 -5.49911,-8.53549 -5.61136,-8.94835 -3.50365,-12.88664 2.93545,-5.48492 10.33997,-3.13915 14.24348,4.51237 1.54038,3.01937 4.42844,6.55632 6.41794,7.85989 1.9895,1.30357 4.79166,4.67113 6.22706,7.48348 1.43538,2.81235 4.03928,6.39268 5.78643,7.9563 3.22578,2.8869 13.02259,16.79733 20.3436,28.88574 2.21536,3.658 6.76657,9.52938 10.11377,13.04751 3.34721,3.51812 7.26958,8.47549 8.71637,11.01636 2.50016,4.39079 2.50966,4.82437 0.19186,8.74811 -4.45249,7.53745 -2.42197,12.92925 4.86905,12.92925 2.14291,0 4.25586,0.58193 4.69545,1.29319 1.90559,3.0833 -1.87976,6.23199 -17.10734,14.23003 -8.91508,4.6825 -18.50467,10.30152 -21.31019,12.48671 -7.54603,5.87748 -27.3132,29.9497 -30.75598,37.45424 -2.87844,6.27442 -9.88719,12.52044 -15.90065,14.17025 -4.45038,1.22098 -5.55453,4.40832 -3.79317,10.94955 1.85803,6.90021 5.46349,11.23605 7.58182,9.11773 0.92589,-0.92589 0.85373,-2.98696 -0.21157,-6.04288 -2.48538,-7.12958 0.12182,-7.60202 7.26302,-1.31611 3.5691,3.14165 8.92215,6.51759 11.89565,7.5021 3.66813,1.21449 7.44641,4.30366 11.75142,9.60807 8.8313,10.88148 19.05481,17.56674 27.21208,17.79424 3.90256,0.10889 10.98624,2.18211 18.16791,5.31744 l 11.77132,5.13905 5.9126,-2.64715 c 5.0635,-2.267 6.53712,-2.39016 10.26141,-0.85763 4.78661,1.96967 4.80383,2.0943 2.82744,20.46871 -0.77561,7.21067 -1.61313,9.39224 -4.27547,11.13668 -2.10274,1.37775 -4.16066,5.09243 -5.63959,10.17973 -1.28077,4.40569 -3.54923,10.40283 -5.04101,13.327 -1.4918,2.92415 -2.71236,7.33416 -2.71236,9.80001 0,3.30688 -1.80296,6.58561 -6.87064,12.49446 -3.77885,4.4061 -8.37907,11.70094 -10.22272,16.21077 -4.34755,10.63478 -7.30237,13.38075 -12.4451,11.56553 -3.36436,-1.18751 -3.86599,-2.12784 -3.86599,-7.24681 0,-7.0719 -1.09166,-8.44201 -5.24847,-6.5872 -2.357,1.05173 -5.82794,0.54617 -13.87291,-2.02063 -10.12099,-3.22918 -13.1371,-3.45694 -53.18907,-4.01649 -24.40239,-0.34093 -44.65389,-1.2463 -47.61911,-2.12889 -6.88254,-2.04854 -17.37182,-1.19467 -18.72199,1.52407 -0.58237,1.17271 -1.8035,6.28999 -2.71359,11.37173 -1.84012,10.27477 -11.14552,44.43952 -15.64389,57.43654 -1.59824,4.6178 -2.9059,10.5346 -2.9059,13.1486 0,4.1037 0.47836,4.7526 3.50365,4.7526 2.00791,0 4.1312,1.1725 4.97361,2.7466 0.80849,1.5107 2.90989,3.1855 4.66979,3.7218 1.75989,0.5364 4.31921,1.9581 5.68737,3.1595 2.9703,2.6083 3.30706,10.0473 0.50356,11.1232 -1.09122,0.4187 -7.84117,0.1074 -14.99988,-0.6919 -8.08736,-0.9029 -14.32345,-0.956 -16.46908,-0.1403 -1.89928,0.7221 -12.89989,2.0012 -24.4458,2.8425 -32.40296,2.3609 -42.9951,3.6476 -44.78801,5.4405 -2.71007,2.7101 -8.89824,1.8779 -12.2042,-1.6411 z m 55.1894,-28.777 c 0,-1.2188 -0.63966,-1.8207 -1.42146,-1.3375 -0.78181,0.4832 -1.42147,1.4804 -1.42147,2.2161 0,0.7356 0.63966,1.3375 1.42147,1.3375 0.7818,0 1.42146,-0.9972 1.42146,-2.2161 z m -11.39944,-32.60979 c 0.0163,-4.42727 -6.3799,-18.6713 -7.51538,-16.73608 -1.19871,2.04296 5.10755,24.77079 6.3359,22.83465 0.64001,-1.0088 1.17078,-3.75315 1.17948,-6.09857 z m -7.85234,-33.94573 c -0.92034,-4.90578 -2.8688,-7.66276 -4.36099,-6.17056 -0.37408,0.37409 0.0746,3.67798 0.9973,7.34196 1.96575,7.80671 4.85897,6.79914 3.36369,-1.1714 z m -49.80558,-7.42887 c 3.40934,-1.30829 2.69548,-4.16303 -1.52146,-6.0844 -4.74745,-2.16309 -7.08973,-0.25094 -4.84056,3.95168 1.69752,3.17183 2.74186,3.52191 6.36202,2.13272 z M 85.029935,932.44743 c 9.52425,-4.09088 6.00888,-6.17691 -7.00627,-4.15755 -7.75412,1.2031 -11.38685,1.18168 -14.89764,-0.0879 -2.55362,-0.92339 -5.72789,-1.26258 -7.05392,-0.75373 -3.6437,1.39821 -2.23046,7.02253 2.05281,8.16972 5.58459,1.49573 19.99457,-0.20241 26.90502,-3.17061 z m 223.252185,-1.63739 c 1.68023,-2.9801 1.75137,-4.10481 0.34843,-5.50775 -1.40293,-1.40293 -2.97786,-1.31996 -7.71252,0.40634 -6.57671,2.39792 -8.46674,5.08147 -4.46039,6.33305 1.43318,0.44772 3.56526,1.3676 4.73797,2.04417 3.03839,1.75295 4.67876,0.99467 7.08651,-3.27581 z m -152.07605,-10.3258 c 0,-0.34476 -0.99724,-0.62684 -2.21609,-0.62684 -1.21885,0 -1.8143,0.6501 -1.32324,1.44465 0.81138,1.31284 3.53933,0.68252 3.53933,-0.81781 z m 39.1288,-0.6891 c 1.80213,-2.91592 -2.46371,-5.6236 -8.85979,-5.6236 -7.86662,0 -7.64989,2.77692 0.40644,5.20768 7.17541,2.16497 7.36657,2.17438 8.45335,0.41592 z m 146.79976,-5.85489 c 0.67386,-5.62407 -2.5655,-7.27775 -8.26672,-4.22015 -6.5739,3.52562 -6.65798,5.09751 -0.36621,6.84642 7.03888,1.95658 8.12335,1.62667 8.63293,-2.62627 z m 79.17486,-1.30863 c 0,-4.90369 -31.61039,-8.95297 -41.89708,-5.36701 -4.04433,1.40985 -4.32567,1.80473 -2.15227,3.02102 1.37511,0.76956 8.0108,1.6388 14.74597,1.93165 6.73519,0.29285 15.44409,1.08219 19.35312,1.7541 8.55584,1.47062 9.95026,1.28288 9.95026,-1.33976 z m -152.09686,-6.75196 c 0,-2.78264 -2.76977,-2.54684 -3.31459,0.28216 -0.3325,1.72651 0.15651,2.4289 1.402,2.01373 1.05192,-0.35063 1.91259,-1.38379 1.91259,-2.29589 z m 101.63482,1.69662 c 0,-1.53931 -4.84414,-4.68349 -7.28932,-4.73127 -1.2728,-0.0249 -3.25964,-1.46914 -4.4152,-3.2095 -1.86161,-2.80372 -2.52927,-2.96918 -5.85924,-1.45194 -5.4017,2.46117 -4.89734,6.02528 0.86153,6.08808 2.54087,0.0277 6.21892,0.96452 8.17343,2.08183 3.69176,2.11039 8.5288,2.80389 8.5288,1.2228 z M 103.50307,884.37225 c 4.38021,-1.15528 7.04293,-5.05765 4.90784,-7.19273 -1.09717,-1.09717 -3.31297,-0.84734 -7.78611,0.87793 -7.411075,2.85838 -10.504555,5.40475 -9.176505,7.55358 0.90888,1.47059 2.3399,1.32354 12.054775,-1.23878 z m 28.53808,-1.98987 c 0,-2.12586 -6.75694,-9.43336 -8.72263,-9.43336 -1.86124,0 -1.5082,1.34266 1.73123,6.58419 2.97714,4.81709 6.9914,6.45302 6.9914,2.84917 z m 290.74516,-2.41559 c 1.79055,-2.89718 -3.79643,-7.01777 -9.51519,-7.01777 -6.68099,0 -6.97262,1.96585 -0.84579,5.70145 5.12602,3.12539 8.9432,3.61035 10.36098,1.31632 z m -194.08547,-3.58911 c 0,-1.07415 -1.56279,-2.34526 -3.47287,-2.82466 -6.25473,-1.56984 -9.13181,2.7653 -3.27909,4.94089 3.8687,1.43808 6.75196,0.5344 6.75196,-2.11623 z m 167.13853,-13.37892 c 3.25264,0 2.31537,-4.00266 -1.52676,-6.52012 -4.45979,-2.92217 -7.82903,-1.71573 -7.82903,2.80338 0,3.6143 2.18515,5.34534 5.44676,4.31485 1.04119,-0.32895 2.80026,-0.59811 3.90903,-0.59811 z m -271.56453,-8.61253 c 1.51948,-2.45857 -5.19003,-38.29585 -7.1698,-38.29585 -2.39871,0 -3.60791,10.72889 -2.08268,18.47906 0.69237,3.51813 1.28671,9.32837 1.32076,12.91164 0.034,3.58329 0.48834,6.94151 1.00955,7.4627 1.47197,1.47199 5.88767,1.11631 6.92217,-0.55755 z m -31.667715,-1.99647 c 5.81573,-2.42997 12.426175,-9.72315 12.426175,-13.7096 0,-5.45291 -4.09245,-4.53582 -11.139105,2.4962 -6.87921,6.86492 -9.33468,10.82504 -7.71583,12.44389 1.09443,1.09445 0.67002,1.17567 6.42876,-1.23049 z m 188.712715,-3.75595 c 7.49014,-4.60874 14.68759,-11.59608 20.94068,-20.32938 2.6354,-3.6807 3.33771,-7.0081 3.99742,-18.93864 0.71936,-13.00955 0.50981,-14.87507 -2.0719,-18.44444 -1.57971,-2.18407 -4.16851,-8.76847 -5.75288,-14.63202 -3.1687,-11.72691 -6.66873,-15.99567 -15.00164,-18.2965 -2.73142,-0.75417 -7.64294,-3.66242 -10.91451,-6.46275 -3.27156,-2.80035 -6.97016,-5.09154 -8.21909,-5.09154 -1.24893,0 -3.76251,-1.04485 -5.58572,-2.32186 -2.9288,-2.05142 -4.24886,-2.1038 -11.33265,-0.4497 -4.40975,1.02971 -10.05726,3.22623 -12.55003,4.88118 -5.94389,3.9461 -17.498,18.89863 -17.50916,22.65913 -0.004,1.62242 -0.9464,4.74751 -2.09241,6.94466 -1.146,2.19714 -3.14009,8.91357 -4.43133,14.92539 -1.29121,6.01182 -2.63347,12.21536 -2.98281,13.78565 -0.34934,1.57029 0.74331,7.64706 2.4281,13.50393 1.68481,5.85686 3.59202,12.77451 4.23825,15.37254 1.60274,6.44339 4.83063,9.64101 12.30226,12.18684 4.89711,1.66862 7.11128,1.79529 9.8187,0.56169 2.60956,-1.18898 4.30344,-1.16911 6.68189,0.0785 13.23783,6.94338 26.82281,6.96746 38.03683,0.0674 z M 334.78245,806.742 c 0.97443,-8.34114 -0.96885,-16.94874 -3.82641,-16.94874 -1.65514,0 -1.9441,2.28825 -1.52573,12.08246 0.28385,6.64535 0.83579,12.61794 1.22652,13.27241 1.40815,2.35859 3.32414,-1.54533 4.12562,-8.40613 z m 19.77514,6.41321 c 1.20982,-1.95753 -0.52532,-11.27949 -2.09952,-11.27949 -0.66162,0 -1.61797,1.65355 -2.1252,3.67455 -1.55954,6.21369 1.58556,11.87521 4.22472,7.60494 z M 119.77586,794.41302 c 0.49369,-3.32267 1.4576,-9.96238 2.14201,-14.75491 1.27576,-8.93339 3.31609,-18.39312 6.7523,-31.30615 2.29303,-8.61701 2.49141,-13.28515 0.56455,-13.28515 -1.98446,0 -5.31239,6.97106 -6.47009,13.55306 -0.5453,3.1002 -2.42954,8.19538 -4.18721,11.3226 -2.46408,4.38407 -3.3977,8.94034 -4.07776,19.90053 -0.4851,7.81806 -0.50007,15.65389 -0.0333,17.41296 1.39407,5.25322 4.34096,3.67532 5.30947,-2.84294 z m 74.5172,-10.41889 c 1.02892,-3.84674 3.84699,-11.64569 6.2624,-17.33101 2.41541,-5.68532 4.00688,-10.72171 3.53662,-11.19197 -1.97112,-1.97112 -5.30674,1.28219 -10.09681,9.84763 -4.3278,7.73883 -5.09548,10.44729 -5.09548,17.97757 0,10.81453 2.59739,11.15057 5.39327,0.69778 z m -90.96979,-15.00734 c 0.41022,-6.1893 0.18209,-6.57837 -8.061195,-13.74818 -9.24938,-8.04487 -12.98825,-9.25226 -12.94488,-4.1803 0.0328,3.83479 16.64805,25.59219 18.962565,24.83116 0.89173,-0.2932 1.81131,-3.39941 2.04351,-6.90268 z m 298.79643,1.4489 c 0,-0.78181 -0.63966,-1.02614 -1.42146,-0.54296 -0.78181,0.48319 -1.42147,1.51817 -1.42147,2.29998 0,0.7818 0.63966,1.02614 1.42147,0.54296 0.7818,-0.48319 1.42146,-1.51817 1.42146,-2.29998 z m -1.74689,-16.62426 c 0.34624,-1.03873 -0.30361,-1.35642 -1.68799,-0.82517 -1.23804,0.47508 -2.25098,1.4883 -2.25098,2.25161 0,1.86836 3.23068,0.69843 3.93897,-1.42644 z M 290.2753,745.89099 c 1.44577,-3.76762 -2.97982,-7.45846 -11.13039,-9.28248 -8.7382,-1.95551 -11.37851,-1.35634 -6.145,1.39453 1.82603,0.9598 5.4212,3.57027 7.98928,5.80103 5.11787,4.44566 8.12191,5.12079 9.28611,2.08692 z m 120.3732,-0.87391 c 0,-0.78181 -0.60191,-1.42147 -1.33757,-1.42147 -0.73567,0 -1.73291,0.63966 -2.2161,1.42147 -0.48318,0.7818 0.1187,1.42146 1.33758,1.42146 1.21885,0 2.21609,-0.63966 2.21609,-1.42146 z m -340.015275,-6.9634 c 0.7601,-2.28031 -20.59744,-23.32689 -22.48667,-22.15929 -2.17761,1.34585 -1.69206,2.88321 2.51567,7.96516 12.40098,14.9775 18.30996,19.17724 19.971,14.19413 z m 190.761335,-7.25126 c 0,-0.78181 -1.31707,-1.42147 -2.92682,-1.42147 -1.60976,0 -2.53149,0.63966 -2.04831,1.42147 0.48319,0.7818 1.80026,1.42146 2.92683,1.42146 1.12657,0 2.0483,-0.63966 2.0483,-1.42146 z m 116.08848,-9.12931 c -1.21437,-3.16461 -6.63559,-2.90626 -6.63559,0.31622 0,1.40725 0.77215,3.33079 1.71591,4.27454 2.2651,2.26511 6.15692,-1.36654 4.91968,-4.59076 z m 81.27569,-7.14368 c 0.31414,-1.6205 -0.19811,-2.30398 -1.42147,-1.89662 -1.05191,0.35028 -2.13359,1.77693 -2.4037,3.17034 -0.31414,1.6205 0.19811,2.30398 1.42147,1.89662 1.05191,-0.35028 2.13359,-1.77693 2.4037,-3.17034 z m -178.88511,-1.45884 c 0,-2.8749 -8.39607,-7.13441 -10.30337,-5.22711 -0.9829,0.9829 0.0967,2.38958 3.36163,4.38005 5.72109,3.48785 6.94174,3.6368 6.94174,0.84706 z m -147.2493,-7.324 c 1.19169,-3.10548 -0.78603,-5.20466 -7.03105,-7.4629 -7.21409,-2.60864 -8.95814,-0.3875 -4.16683,5.30665 4.09386,4.86528 9.74105,5.9527 11.19788,2.15625 z m 243.55363,-4.40036 c 9.68958,-4.22102 12.24796,-8.4135 4.2644,-6.9882 -15.13074,2.70128 -15.74642,2.71651 -17.41763,0.43102 -0.91103,-1.24592 -4.52204,-3.49365 -8.02444,-4.99496 -3.50241,-1.50131 -8.08445,-4.76952 -10.18232,-7.26269 -4.0046,-4.75919 -8.42405,-5.34393 -9.21831,-1.21968 -0.31357,1.62823 2.5467,4.12101 9.22322,8.0382 5.32275,3.12293 11.8821,7.97036 14.57633,10.77208 2.69424,2.80171 5.5727,5.09411 6.3966,5.0942 0.8239,1e-4 5.49586,-1.74138 10.38215,-3.86997 z M 40.571965,693.10195 c 2.22696,-2.7537 6.24651,-7.60004 8.93232,-10.76961 3.97554,-4.6916 4.50401,-6.00285 2.84293,-7.05394 -4.04959,-2.56249 -6.77023,-1.20685 -12.29845,6.12807 -9.39885,12.47051 -10.97698,16.70223 -6.22877,16.70223 1.48661,0 4.525,-2.25304 6.75197,-5.00675 z m 242.633315,-4.29872 c -1.18823,-3.0965 -13.75248,-9.17359 -18.96618,-9.17359 -6.00269,0 -14.21627,3.65379 -14.21627,6.32406 0,1.80577 2.12214,2.22282 11.7271,2.30465 6.4499,0.0549 13.00641,0.64964 14.57003,1.32155 4.72816,2.03176 7.82882,1.68201 6.88532,-0.77667 z m 5.45774,-10.90305 c -1.01999,-1.01998 -1.68207,-1.10391 -1.68207,-0.21322 0,1.89735 1.68104,3.57839 2.62971,2.62972 0.40394,-0.40393 -0.0225,-1.49135 -0.94764,-2.4165 z m 130.54279,-21.75909 c 0.98894,-1.1916 1.37462,-2.59001 0.85705,-3.10758 -1.33741,-1.33739 -8.35537,1.37127 -9.0613,3.4973 -0.85467,2.57402 6.01541,2.24768 8.20425,-0.38972 z M 227.56563,611.39927 c 0.47349,-11.89205 -1.85787,-15.81482 -3.37919,-5.68587 -1.3299,8.85453 -1.40012,29.14677 -0.10533,30.45025 1.28718,1.29585 2.90461,-10.1991 3.48455,-24.76438 z m 28.96075,-13.8708 c -1.71502,-1.71504 -2.53231,1.11095 -1.42298,4.92044 l 1.15759,3.97523 0.54154,-4.03899 c 0.29785,-2.22144 0.17359,-4.40694 -0.27615,-4.85668 z"
       id="path3144"
       inkscape:connector-curvature="0" />
  </g>
</svg>
