<?xml version="1.0" encoding="UTF-8" standalone="no"?>
<!-- Created with Inkscape (http://www.inkscape.org/) -->

<svg
   xmlns:dc="http://purl.org/dc/elements/1.1/"
   xmlns:cc="http://creativecommons.org/ns#"
   xmlns:rdf="http://www.w3.org/1999/02/22-rdf-syntax-ns#"
   xmlns:svg="http://www.w3.org/2000/svg"
   xmlns="http://www.w3.org/2000/svg"
   xmlns:sodipodi="http://sodipodi.sourceforge.net/DTD/sodipodi-0.dtd"
   xmlns:inkscape="http://www.inkscape.org/namespaces/inkscape"
   width="512"
   height="512"
   id="svg2"
   version="1.1"
   inkscape:version="0.48.4 r9939"
   sodipodi:docname="hand.svg"
   inkscape:export-filename="/home/nathan/documents/bee_line/svgs/hand3.png"
   inkscape:export-xdpi="45"
   inkscape:export-ydpi="45">
  <defs
     id="defs4" />
  <sodipodi:namedview
     id="base"
     pagecolor="#ffffff"
     bordercolor="#666666"
     borderopacity="1.0"
     inkscape:pageopacity="0.0"
     inkscape:pageshadow="2"
     inkscape:zoom="1.0957031"
     inkscape:cx="256"
     inkscape:cy="256"
     inkscape:document-units="px"
     inkscape:current-layer="layer1"
     showgrid="false"
     inkscape:window-width="1276"
     inkscape:window-height="782"
     inkscape:window-x="0"
     inkscape:window-y="14"
     inkscape:window-maximized="0" />
  <metadata
     id="metadata7">
    <rdf:RDF>
      <cc:Work
         rdf:about="">
        <dc:format>image/svg+xml</dc:format>
        <dc:type
           rdf:resource="http://purl.org/dc/dcmitype/StillImage" />
        <dc:title></dc:title>
      </cc:Work>
    </rdf:RDF>
  </metadata>
  <g
     inkscape:label="Layer 1"
     inkscape:groupmode="layer"
     id="layer1"
     transform="translate(0,-540.36218)">
    <path
       style="fill:#000000"
       d="m 410.66186,967.26222 c -4.05635,1.78995 -12.47038,5.14172 -18.69785,7.44835 -6.22742,2.30663 -15.81751,6.32353 -21.31129,8.92644 -5.49378,2.60289 -13.00201,5.53888 -16.68495,6.52442 -3.68294,0.98553 -7.92654,2.40285 -9.43023,3.14962 -1.50368,0.74676 -5.87922,1.80406 -9.72341,2.34956 -3.84418,0.5455 -7.46129,1.30843 -8.038,1.69545 -0.57674,0.38702 -3.88378,0.2403 -7.34901,-0.32604 -3.46524,-0.56634 -6.67169,-0.78426 -7.12544,-0.48421 -0.45413,0.29951 -2.32425,0.25043 -4.15666,-0.11033 -1.83242,-0.36067 -4.874,0.29811 -6.75905,1.46401 -2.61353,1.61637 -3.63254,1.5331 -4.29122,-0.35089 -0.48181,-1.37809 -1.89376,-2.23538 -3.19271,-1.93859 -1.2809,0.2927 -5.28249,-0.69982 -8.89245,-2.20552 -3.60996,-1.50569 -10.78462,-3.39002 -15.94372,-4.18741 -6.28828,-0.97191 -10.52534,-2.61558 -12.85449,-4.98665 -1.9109,-1.94527 -5.98182,-4.54865 -9.04652,-5.78528 -3.06469,-1.23662 -11.2004,-5.53244 -18.07937,-9.54625 -6.87898,-4.01382 -13.54724,-7.38979 -14.81837,-7.50219 -1.27114,-0.11237 -5.03159,-2.31424 -8.35653,-4.89302 -3.32496,-2.57878 -6.9026,-4.65655 -7.95034,-4.61728 -1.04773,0.0392 -2.5535,-0.5439 -3.34613,-1.29594 -8.40682,-7.97605 -12.2916,-12.78173 -20.14731,-24.92324 l -9.1632,-14.16234 -1.89892,-15.44954 c -1.82451,-14.84444 -1.91716,-19.868 -0.55929,-30.32982 0.35881,-2.76458 -0.23441,-5.39913 -1.40055,-6.22 -1.40994,-0.99249 -1.36663,-1.44866 0.14298,-1.50524 1.29347,-0.0486 2.92336,-2.20125 4.04623,-5.34434 1.03415,-2.89474 3.73132,-7.76926 5.99373,-10.83227 4.71588,-6.38476 5.62508,-13.70931 2.31775,-18.67228 -8.35781,-12.54178 -22.1032,-27.86315 -23.90958,-26.65097 -0.59512,0.39936 -1.59843,-0.71023 -2.2296,-2.46578 -0.63116,-1.75552 -5.22068,-7.44583 -10.19898,-12.64513 -4.97828,-5.1993 -9.07651,-10.12242 -9.10716,-10.94025 -0.0306,-0.81783 -1.85818,-2.24842 -4.06115,-3.1791 -3.09037,-1.30558 -4.57617,-3.02652 -6.50382,-7.53318 -3.44371,-8.05106 -3.77952,-8.45978 -5.96582,-7.26111 -1.05865,0.58035 -2.34933,1.24907 -2.86825,1.48594 -0.51887,0.23692 -1.83863,-2.47642 -2.93268,-6.02955 -1.66442,-5.40538 -3.62595,-8.31644 -12.013204,-17.82864 -13.625837,-15.45321 -34.160416,-45.72565 -36.253705,-53.44584 -0.88586,-3.26712 -1.482113,-9.75967 -1.324993,-14.42789 0.225578,-6.70213 1.238023,-9.63078 4.812887,-13.92174 7.194589,-8.63582 23.563866,-16.17696 31.656733,-14.5839 1.290844,0.25409 4.871377,0.73689 7.956752,1.07287 7.29341,0.79423 18.63486,9.75214 28.68034,22.65285 4.19677,5.3896 10.35694,12.70889 13.68927,16.26508 3.33234,3.5562 7.81063,8.4497 9.95174,10.87448 2.14111,2.42478 6.17888,6.66544 8.97278,9.42372 2.79393,2.75827 7.44891,8.54534 10.34439,12.86017 6.3671,9.48813 8.36385,9.54014 12.44258,0.32419 2.03923,-4.60764 3.85322,-6.81103 6.13392,-7.45067 1.78111,-0.49955 5.11005,-2.35139 7.39765,-4.11521 3.1183,-2.40435 5.75854,-3.04343 10.54953,-2.55354 3.51463,0.35936 7.98792,0.76607 9.94065,0.90377 4.21452,0.29722 13.15943,2.28665 20.60927,4.5837 l 5.35965,1.65257 1.48297,-9.15445 c 1.285,-7.93232 2.12852,-9.58923 6.31857,-12.41122 2.65932,-1.79158 8.64916,-4.63614 13.31021,-6.32204 4.66104,-1.68591 9.80306,-3.55507 11.4267,-4.15368 1.62363,-0.59862 5.36285,-0.80061 8.30932,-0.44886 6.52282,0.77869 10.46769,-1.6167 11.22434,-6.81556 0.68641,-4.71619 7.30361,-12.64123 11.57403,-13.86154 1.70345,-0.48676 6.11134,-2.27869 9.79527,-3.98206 9.16874,-4.23937 24.04948,-7.41026 30.82275,-6.56792 3.08496,0.38366 8.78207,2.48334 12.66025,4.66597 3.87817,2.18265 8.31392,4.08453 9.85725,4.22644 1.54333,0.14196 2.43857,0.52973 1.9894,0.86185 -0.44913,0.33211 1.80644,2.77353 5.01241,5.42541 3.20598,2.65187 8.47254,8.79361 11.70348,13.64831 10.29001,15.46138 16.55933,23.23779 19.41366,24.08033 1.52638,0.45058 3.46557,2.17498 4.30935,3.83201 0.84377,1.65705 3.08191,3.81526 4.97364,4.79603 2.29439,1.18957 6.09332,5.945 11.41061,14.28367 4.3841,6.87523 11.31224,16.18236 15.39586,20.68249 9.08446,10.01101 21.07067,25.73935 20.77194,27.25693 -0.12068,0.61316 3.00582,6.2484 6.9478,12.52278 10.57703,16.83516 13.67432,23.08621 14.35504,28.97184 0.33633,2.90764 2.01598,9.07887 3.7326,13.71386 3.29289,8.89101 4.53564,18.83844 2.79319,22.35766 -0.57244,1.15616 -0.38467,3.07989 0.41728,4.27491 0.80194,1.19507 1.03033,3.8895 0.50753,5.98769 -0.52279,2.09817 -0.5869,4.35672 -0.14254,5.019 0.44442,0.66228 -0.23542,5.93277 -1.51078,11.71219 -1.27533,5.77942 -2.1483,12.17084 -1.93988,14.20311 0.20841,2.03228 -0.63286,4.37403 -1.86951,5.2039 -1.23665,0.82988 -2.01374,2.53615 -1.72686,3.79174 0.28688,1.25557 -0.18434,2.75659 -1.04714,3.33556 -2.0764,1.3934 -7.76892,11.95898 -8.02514,14.89504 -0.11107,1.27308 -2.25169,5.14552 -4.75686,8.60543 -2.50518,3.45992 -4.86547,7.18759 -5.24508,8.28372 -0.67329,1.94406 -5.03252,5.63254 -22.77753,19.27272 -22.55686,17.3389 -29.044,21.83108 -35.88695,24.85069 z m 32.26519,-44.27657 c 11.1284,-8.64879 14.0101,-11.54415 15.42138,-15.49454 0.95458,-2.67199 2.70917,-5.51489 3.8991,-6.31753 1.19021,-0.80222 3.52098,-4.73315 5.18015,-8.73448 1.65917,-4.00131 3.50262,-7.6046 4.09657,-8.00732 1.79874,-1.21934 6.8206,-29.65202 6.18217,-35.00113 -0.32781,-2.74653 -0.21816,-6.27377 0.24368,-7.83834 0.46184,-1.56455 0.24657,-3.73218 -0.4784,-4.81692 -0.72458,-1.085 -1.93332,-7.08851 -2.6853,-13.34168 -1.41003,-11.7257 -1.93,-13.71745 -5.65387,-21.65728 -1.20538,-2.57003 -2.43624,-5.6934 -2.73527,-6.94082 -1.04344,-4.35291 -28.31784,-46.72783 -30.80206,-47.8557 -0.75435,-0.34248 -4.13382,-4.13262 -7.50994,-8.42253 -3.3761,-4.28987 -9.05342,-10.18791 -12.61625,-13.10674 -7.61353,-6.23732 -6.50525,-4.91052 -27.71655,-33.18095 -20.24725,-26.98554 -20.50053,-27.25798 -31.82922,-34.23711 l -9.10151,-5.60704 -7.70169,3.13296 c -4.23594,1.72313 -8.25401,3.91759 -8.92906,4.87658 -0.67506,0.95898 -2.2447,1.4433 -3.48806,1.0763 -3.75149,-1.1074 -10.17467,5.3881 -8.8383,8.93781 1.68261,4.46934 5.51242,8.45096 11.02741,11.46418 2.69859,1.47446 6.71187,5.02377 8.91839,7.88736 2.2065,2.86358 7.67224,9.46407 12.14604,14.66777 4.47383,5.20368 9.00413,11.45321 10.06734,13.88784 1.06324,2.43465 2.93918,4.7302 4.16879,5.10122 8.50656,2.5668 8.41982,19.40653 -0.11004,21.35545 -3.96671,0.90635 -19.96348,-13.12708 -32.17929,-28.2298 -13.58565,-16.7963 -20.4332,-23.55884 -27.51458,-27.17306 -7.06929,-3.60807 -9.4071,-4.2189 -11.29583,-2.95147 -0.8836,0.59297 -5.27033,1.06842 -9.74833,1.05661 -7.20902,-0.0191 -8.72997,0.50142 -13.27576,4.54274 -3.31433,2.94652 -5.21015,5.90359 -5.34889,8.34308 -0.25386,4.46406 5.72555,19.8161 8.14618,20.91508 0.92482,0.41989 9.12814,11.68075 18.22956,25.02415 18.71207,27.4334 19.69053,30.05063 12.93036,34.58711 -6.53612,4.38611 -8.99545,2.72732 -25.43777,-17.15749 -8.21429,-9.93409 -15.37997,-18.75076 -15.92376,-19.5926 -4.77428,-7.39118 -11.837,-15.06269 -13.79965,-14.98913 -0.84225,0.0316 -2.63023,-1.58012 -3.97329,-3.58155 -2.84826,-4.24441 -5.6388,-5.87596 -16.1826,-9.46145 -4.25004,-1.44527 -8.15859,-3.27036 -8.68565,-4.05577 -0.94958,-1.41505 -10.85153,0.84566 -14.53726,3.319 -1.05338,0.70688 -2.84553,4.0177 -3.98257,7.35739 -1.63409,4.79954 -1.52222,6.56383 0.5338,8.41811 1.43064,1.29028 2.06336,2.70686 1.40603,3.14798 -1.52831,1.02557 19.28117,29.49902 24.8762,34.03786 2.21589,1.79761 7.83291,7.90163 12.48226,13.56452 4.64938,5.66289 10.23602,12.27508 12.41475,14.69374 3.20028,3.5527 3.77346,5.1516 2.98345,8.32223 -0.84942,3.40897 -1.58766,4.04722 -5.61853,4.85734 -5.8476,1.17524 -10.8137,0.54597 -15.44761,-1.95744 -1.99248,-1.07643 -5.10307,-1.99585 -6.91241,-2.04316 -2.78765,-0.0729 -4.43006,-1.78534 -10.76148,-11.22033 -4.10947,-6.12386 -9.30488,-12.66348 -11.54537,-14.53249 -2.2405,-1.86902 -7.25814,-7.58019 -11.15032,-12.69149 -3.89216,-5.1113 -10.50478,-13.70671 -14.6947,-19.10091 -4.18993,-5.39418 -11.65861,-15.38979 -16.59711,-22.21243 -4.93848,-6.82266 -12.16764,-15.94994 -16.06478,-20.28284 -3.89714,-4.33292 -7.31646,-8.88799 -7.59852,-10.12239 -0.28204,-1.23439 -1.84009,-2.94949 -3.46224,-3.81138 -1.62219,-0.86184 -6.49017,-6.32084 -10.81775,-12.13111 -4.32758,-5.81026 -9.02049,-11.19782 -10.42869,-11.97232 -1.40822,-0.77451 -5.27653,-4.63495 -8.59624,-8.57873 -4.88162,-5.7993 -7.140905,-7.38806 -11.814468,-8.30804 -5.150548,-1.01386 -6.618975,-0.57354 -13.51081,4.05127 -7.286194,4.88948 -7.747365,5.52109 -7.995112,10.95029 -0.383981,8.41436 9.168291,26.05648 22.704534,41.93299 5.627136,6.60004 11.672436,13.79743 13.433986,15.99423 5.77002,7.19568 11.40426,12.46147 15.0916,14.10467 2.90108,1.29282 3.90577,2.62553 5.03886,6.68386 0.77839,2.788 2.55511,5.97665 3.94827,7.0859 1.39316,1.10927 5.86138,6.66443 9.92936,12.34482 4.06798,5.6804 8.91443,11.13454 10.76991,12.12031 3.95933,2.10356 5.66771,3.91626 17.3552,18.41496 4.83005,5.99184 9.61833,11.27401 10.64061,11.73812 1.02229,0.46414 4.58336,4.34284 7.91351,8.61933 3.33015,4.27649 7.70945,9.21303 9.73181,10.9701 4.07812,3.54315 6.19794,8.31835 5.43081,12.23365 -0.339,1.73014 1.00887,4.33365 4.12394,7.96569 2.54512,2.96755 4.34393,6.02014 3.99732,6.78354 -0.8008,1.76384 9.83771,14.65475 19.7825,23.97257 15.14735,14.19118 16.03906,15.59216 14.59457,22.93027 -1.22635,6.22997 -1.50408,6.56761 -5.67869,6.90392 -7.53765,0.60723 -20.63037,-12.06777 -36.23954,-35.08342 -10.92033,-16.10196 -12.78864,-17.8582 -16.41139,-15.42714 -1.55267,1.04193 -2.79635,2.60564 -2.76378,3.4749 0.0325,0.86926 -1.32848,3.03018 -3.02458,4.80204 -1.93435,2.02075 -2.57421,3.98097 -1.71662,5.25895 0.75196,1.12054 0.50257,3.39727 -0.55419,5.0594 -1.05677,1.66211 -1.34857,3.87565 -0.64846,4.91894 0.70011,1.04329 0.96093,3.49178 0.57956,5.44108 -0.38136,1.9493 -0.33636,4.07619 0.1,4.72644 0.43636,0.65026 1.17216,4.24688 1.63513,7.99253 0.6558,5.30583 2.61574,9.66877 8.8724,19.75055 8.5611,13.79507 8.42046,13.67874 30.52908,25.25109 3.82735,2.00337 20.42257,12.43459 20.88959,13.13054 0.24583,0.36632 2.77912,1.26637 5.6295,2.00008 2.85039,0.73371 5.65699,1.80549 6.23692,2.38171 0.57991,0.57625 3.60441,2.69953 6.7211,4.71841 5.5584,3.60054 7.58871,4.45168 14.99487,6.2861 2.02623,0.50187 3.89064,1.22033 4.14312,1.59657 0.47628,0.70975 16.00579,3.59155 30.08976,5.58372 4.45564,0.63026 8.75253,0.7088 9.54866,0.17455 0.79612,-0.53423 4.37854,-1.26639 7.96091,-1.627 14.5492,-1.46455 18.29936,-2.13366 20.47,-3.65232 3.0359,-2.12399 14.03173,-6.63081 24.64603,-10.10143 4.75012,-1.55318 9.56765,-3.20206 10.70563,-3.66418 1.13799,-0.46212 2.1168,-0.76908 2.17511,-0.68219 0.0583,0.0869 3.72987,-1.87664 8.15897,-4.36346 4.42909,-2.48683 9.56125,-4.84393 11.40478,-5.238 3.29412,-0.70414 9.55488,-5.18942 36.80256,-26.36587 z"
       id="path3050"
       inkscape:connector-curvature="0" />
    <path
       style="fill:#000000"
       d="m -155.53807,743.41487 c -4.34777,1.43541 -7.66834,1.40974 -14.96926,-0.11571 -5.16015,-1.07817 -10.92227,-2.89645 -12.80471,-4.04063 -1.88243,-1.1442 -3.78525,-1.82735 -4.22849,-1.51813 -1.61087,1.12382 -10.54635,-6.65853 -12.20618,-10.63096 -0.87413,-2.09203 -1.97834,-4.46031 -2.45379,-5.26282 -2.16197,-3.64925 -3.21672,-8.67102 -3.33422,-15.87451 -0.07,-4.29043 -0.46503,-8.28497 -0.87789,-8.87676 -1.27912,-1.83349 6.17218,-37.08217 8.55139,-40.45262 1.23678,-1.75206 2.03729,-3.48856 1.77893,-3.85889 -0.25836,-0.37033 1.4366,-3.0398 3.76658,-5.93214 4.4707,-5.54969 14.13076,-11.95112 20.41365,-13.52748 1.7406,-0.43672 3.36523,-1.25774 3.61026,-1.82451 0.24503,-0.56676 1.00197,-0.78989 1.68201,-0.49589 0.68007,0.29402 2.43577,-0.30207 3.90153,-1.32466 1.46577,-1.02258 3.14036,-1.65374 3.72132,-1.40257 0.58096,0.25118 3.29476,-0.70092 6.03067,-2.11575 2.73593,-1.41484 5.57581,-2.16517 6.31086,-1.66741 0.73506,0.49775 2.81715,0.25837 4.62691,-0.53197 4.45753,-1.94666 14.03966,-1.14192 18.67843,1.56868 2.08823,1.22023 7.13803,3.29021 11.22178,4.59997 4.08376,1.30976 8.61526,3.40699 10.06999,4.66054 4.456643,3.84025 19.426113,24.47798 19.096683,26.3277 -0.16288,0.91454 0.59728,2.94342 1.68924,4.50864 1.09198,1.56522 1.98309,4.08527 1.98026,5.60009 -0.003,1.51486 0.56736,3.88402 1.26709,5.26485 1.09465,2.16014 0.75099,2.93326 -2.46201,5.53872 -3.37917,2.74018 -3.99613,2.8496 -6.48796,1.15096 -2.43898,-1.66262 -3.84604,-3.94592 -7.61495,-12.35711 -3.4212,-7.63521 -4.8865,-9.75095 -8.117333,-11.72043 -1.941,-1.18324 -5.72062,-3.71574 -8.39917,-5.62778 -9.94242,-7.09723 -18.42005,-9.95358 -26.38837,-8.89096 -3.84596,0.51287 -4.90577,1.10998 -7.0492,3.9716 -1.50662,2.01144 -8.59109,7.60573 -17.58906,13.88929 -17.69178,12.35499 -20.34787,15.44172 -21.1268,24.55477 -0.28642,3.35091 -0.78165,7.71386 -1.1005,9.69545 -0.31887,1.9816 -0.33371,3.9556 -0.0329,4.38668 0.30073,0.43105 0.0897,1.45874 -0.46897,2.28372 -0.55866,0.82499 -0.35724,2.45197 0.4476,3.61555 0.80486,1.16353 1.89139,4.91023 2.41457,8.32595 1.14908,7.50231 4.82932,13.49529 7.80148,12.70414 3.37072,-0.89725 10.8986,1.33487 12.56695,3.72627 1.14378,1.63948 1.84627,1.82982 2.60704,0.70638 0.59257,-0.87506 1.6806,-1.10496 2.5245,-0.5335 0.81572,0.55238 2.06279,0.59993 2.77129,0.10565 1.78704,-1.24673 5.18106,3.87608 4.62743,6.98451 -0.24164,1.35681 -0.53389,2.48978 -0.64942,2.51772 -0.11552,0.028 -2.72429,0.88086 -5.79722,1.89538 z"
       id="path3121"
       inkscape:connector-curvature="0" />
    <path
       inkscape:connector-curvature="0"
       style="fill:#000000"
       d="m 62.298432,596.46532 c -2.582797,1.60184 -2.618733,2.79764 -2.210429,10.10885 0.266552,4.77299 1.182914,9.70222 2.038266,10.94005 0.855352,1.23783 2.093133,3.72359 2.74375,5.52703 0.784481,2.17449 2.325082,3.76721 4.571607,4.72988 6.907846,2.96012 10.369907,-4.45346 6.704656,-14.3392 -0.648608,-1.7494 -1.010731,-4.17096 -0.800384,-5.38413 0.2183,-1.25901 -1.365609,-4.84312 -3.698981,-8.35909 l -4.088041,-6.15992 -3.998708,2.19161 c -0.478485,0.26312 -0.89279,0.51604 -1.261736,0.74492 z m -33.525767,26.91695 c -1.010418,0.80499 -1.874955,2.02339 -2.570701,3.64701 -1.829114,4.26848 0.187576,6.97273 8.168484,10.84607 2.743732,1.33161 5.387925,2.98813 5.887299,3.71809 0.499271,0.73003 2.504147,1.1968 4.429821,1.03449 4.394046,-0.37036 5.584338,-1.02909 8.040289,-4.45789 2.184303,-3.04954 0.722516,-6.50468 -2.911762,-6.89435 -1.257214,-0.1348 -3.498269,-1.39466 -4.960086,-2.8084 -1.461801,-1.41372 -3.033338,-2.33097 -3.509336,-2.01508 -0.476009,0.31591 -2.473924,-0.68696 -4.438,-2.23061 -3.027481,-2.37942 -5.913045,-2.61023 -8.136008,-0.83933 z m 76.582745,-35.85108 c -1.99331,1.43703 -3.47292,3.90323 -3.80586,7.00846 -0.14596,1.3613 -1.4278,3.33268 -2.881904,4.36188 -1.45411,1.0292 -1.923232,1.69795 -1.028396,1.51434 2.52382,-0.51787 3.06755,1.233 2.73678,8.85901 -0.448322,10.33614 0.42509,12.31082 5.53768,12.592 5.58946,0.30741 5.79151,0.0902 6.72983,-5.94508 0.43964,-2.82793 1.4886,-5.14862 2.29623,-5.17474 0.80889,-0.0262 0.85933,-1.60718 0.12479,-3.50261 -0.73339,-1.89251 -0.81941,-4.13678 -0.21384,-4.98777 0.60558,-0.85098 0.46983,-2.49527 -0.29141,-3.64231 -0.76124,-1.14705 -0.79283,-2.4777 -0.0365,-2.97965 2.2677,-1.50496 0.78095,-7.47538 -2.21353,-8.83656 -2.43748,-1.10796 -4.96056,-0.70402 -6.95388,0.73303 z M 12.355495,660.4805 c -3.0908572,2.15787 -4.487127,5.82672 -3.0854278,9.76527 1.0560228,2.96727 1.6520838,3.18993 7.0863208,2.32158 3.277262,-0.52367 6.291617,-1.17157 6.67766,-1.42776 0.386032,-0.25619 3.575596,-0.0101 7.090094,0.51676 6.232453,0.93431 6.439656,0.86053 8.399638,-2.66299 1.531199,-2.75268 1.545573,-4.35607 0.03522,-6.63188 -3.499833,-5.27361 -6.956045,-6.89933 -11.159745,-5.25628 -2.137677,0.83552 -5.693374,1.46829 -7.895071,1.40386 -2.82964,-0.0828 -5.294162,0.67673 -7.148694,1.97144 z M 135.71337,614.89141 c -1.09634,0.71013 -2.4153,1.65704 -4.14979,2.93886 -3.87154,2.86131 -7.29165,5.78015 -7.61735,6.48788 -0.91293,1.98375 3.93688,5.80981 7.76186,6.12489 1.98776,0.16374 5.22679,-0.8999 7.73726,-2.5469 3.16499,-2.07634 5.52097,-2.67204 8.79369,-2.13887 4.97361,0.81028 6.63241,0.16999 7.24668,-2.86831 0.87183,-4.31224 -3.32597,-8.06936 -10.25445,-9.18443 -4.90587,-0.78955 -6.22901,-0.94367 -9.5179,1.18688 z M 26.126269,698.98746 c -0.780153,0.56122 -1.584667,1.31557 -2.525214,2.32284 -3.081513,3.30013 -3.1823,3.91489 -1.114093,6.7471 1.275562,1.74667 4.605129,3.8524 7.583051,4.81094 3.785275,1.21842 5.435543,1.18905 5.831261,-0.12664 0.370548,-1.23199 1.045113,-1.63786 1.967561,-1.21334 0.758856,0.34924 4.356968,-1.36647 8.017546,-3.79581 4.944944,-3.28172 6.812209,-5.18609 7.309638,-7.439 0.646139,-2.92641 0.514422,-3.13583 -4.206452,-5.71164 -4.507302,-2.45926 -5.338758,-2.4243 -10.402237,0.20252 -3.022379,1.56794 -6.844566,2.86746 -8.528261,2.88699 -1.418303,0.0165 -2.632561,0.38062 -3.9328,1.31604 z M 158.13831,641.37001 c -1.18695,0.82484 -2.64276,1.90116 -4.43882,3.26932 -4.50473,3.43168 -8.39667,6.87341 -8.68775,7.66038 -0.29108,0.78697 -1.55377,2.54912 -2.81687,3.9028 -1.85015,1.98286 -1.90272,2.8288 -0.22278,4.39948 1.14688,1.0723 3.16447,2.06872 4.50216,2.18803 2.95253,0.26336 12.07193,-6.99617 15.06176,-11.98293 1.10852,-1.84888 2.55689,-3.3903 3.18962,-3.41076 1.67875,-0.0543 5.24383,-5.39879 4.42449,-6.63339 -0.38401,-0.57863 -2.19493,-1.33266 -3.99058,-1.6957 -2.14778,-0.43423 -3.46036,-0.17173 -7.02123,2.30277 z M 53.457292,723.45789 c -0.714999,0.49669 -1.602742,1.21926 -2.738423,2.14085 -3.155719,2.56082 -5.067701,5.14332 -5.536897,7.46406 -0.815198,4.03213 2.119001,9.34569 5.777117,10.44593 2.898714,0.87184 5.738732,-2.05784 6.314486,-6.50128 0.220594,-1.70242 1.12796,-3.56759 2.00574,-4.15013 2.23437,-1.48284 1.494901,-6.46747 -1.337376,-9.04831 -1.672473,-1.52399 -2.339723,-1.84133 -4.484647,-0.35112 z"
       id="path3231" />
  </g>
</svg>
