<?xml version="1.0" encoding="UTF-8" standalone="no"?>
<!-- Created with Inkscape (http://www.inkscape.org/) -->

<svg
   xmlns:dc="http://purl.org/dc/elements/1.1/"
   xmlns:cc="http://creativecommons.org/ns#"
   xmlns:rdf="http://www.w3.org/1999/02/22-rdf-syntax-ns#"
   xmlns:svg="http://www.w3.org/2000/svg"
   xmlns="http://www.w3.org/2000/svg"
   xmlns:sodipodi="http://sodipodi.sourceforge.net/DTD/sodipodi-0.dtd"
   xmlns:inkscape="http://www.inkscape.org/namespaces/inkscape"
   width="512"
   height="512"
   id="svg4408"
   version="1.1"
   inkscape:version="0.48.4 r9939">
  <defs
     id="defs4410" />
  <sodipodi:namedview
     id="base"
     pagecolor="#ffffff"
     bordercolor="#666666"
     borderopacity="1.0"
     inkscape:pageopacity="0.0"
     inkscape:pageshadow="2"
     inkscape:zoom="1.0957031"
     inkscape:cx="132.33512"
     inkscape:cy="256"
     inkscape:document-units="px"
     inkscape:current-layer="layer1"
     showgrid="false"
     inkscape:window-width="1276"
     inkscape:window-height="782"
     inkscape:window-x="0"
     inkscape:window-y="14"
     inkscape:window-maximized="0" />
  <metadata
     id="metadata4413">
    <rdf:RDF>
      <cc:Work
         rdf:about="">
        <dc:format>image/svg+xml</dc:format>
        <dc:type
           rdf:resource="http://purl.org/dc/dcmitype/StillImage" />
        <dc:title></dc:title>
      </cc:Work>
    </rdf:RDF>
  </metadata>
  <g
     inkscape:label="Layer 1"
     inkscape:groupmode="layer"
     id="layer1"
     transform="translate(0,-540.36218)">
    <path
       style="color:#000000;fill:#000000;fill-opacity:1;fill-rule:nonzero;stroke-width:1;stroke-linecap:butt;stroke-linejoin:miter;stroke-miterlimit:4;stroke-opacity:1;stroke-dasharray:none;stroke-dashoffset:0;marker:none;visibility:visible;display:inline;overflow:visible;enable-background:accumulate"
       d="m 126.5683,715.3768 c -2.44003,0.16918 -4.7053,0.39445 -6.79479,0.70746 -7.81708,1.171 -17.62157,2.54588 -21.764963,2.99477 -4.496351,0.48716 -11.251172,3.78939 -16.735971,8.17823 -5.054228,4.04426 -11.089471,7.38661 -13.387309,7.48872 -2.297816,0.1022 -9.212287,6.00554 -15.367445,13.11881 -10.483196,12.11504 -11.133742,13.54637 -10.214088,22.62228 0.645382,6.36928 -0.201804,11.69598 -2.489897,15.45279 -2.112671,3.4689 -3.689526,12.03851 -4.032354,21.80688 l -0.571229,16.0434 16.627875,16.76601 c 9.139387,9.20494 18.144447,17.56399 20.02001,18.5753 12.363361,6.66612 27.098301,11.38709 38.329901,12.35471 7.17292,0.61799 18.41606,1.9481 25.00267,2.94413 16.73799,2.53108 61.38915,-2.34263 64.56937,-7.05964 0.55799,-0.82761 8.14809,-5.23542 16.86641,-9.8061 18.71028,-9.80912 34.82792,-13.08966 46.82317,-9.44764 4.60706,1.39881 10.83555,1.99217 13.84441,1.27721 3.00884,-0.71495 6.1441,-0.29032 7.00464,0.9729 0.86056,1.26328 3.49692,2.21011 5.83845,2.10608 2.34155,-0.10415 4.84512,1.24455 5.60759,2.99496 0.76251,1.7504 2.77004,3.12107 4.46089,3.04592 4.815,-0.2139 38.42032,14.73146 36.88787,16.40641 -0.75328,0.82333 4.54894,1.21717 11.79982,0.89496 7.25086,-0.3222 13.68204,0.19856 14.31059,1.12132 1.49931,2.20104 28.43647,-0.0523 44.64363,-3.7411 13.88646,-3.16064 30.41514,-10.39076 32.55309,-14.22042 0.73732,-1.32074 3.71835,-2.53076 6.57296,-2.65761 3.71198,-0.16486 8.11563,-4.04383 15.47539,-13.73189 5.65992,-7.45039 10.20285,-15.27062 10.11062,-17.34592 -0.0923,-2.07529 0.87914,-4.92173 2.15255,-6.31362 1.27346,-1.39188 2.26347,-11.57926 2.23663,-22.67329 l -0.0194,-20.20753 -9.16758,-8.58162 c -5.0437,-4.74945 -12.02258,-9.18232 -15.5067,-9.78685 -3.48409,-0.60452 -6.98849,-2.86411 -7.79458,-5.06053 -0.80607,-2.19642 -4.97844,-7.55467 -9.24701,-11.88986 -4.26858,-4.33517 -7.78763,-8.56984 -7.8515,-9.38356 -0.17501,-2.23514 -41.22377,-12.26881 -53.98056,-13.21372 -12.35422,-0.91514 -29.03458,4.82606 -44.13106,15.27562 -6.07154,4.20261 -8.62139,5.00377 -9.93366,3.07728 -3.09223,-4.53954 -11.61439,0.0445 -15.64474,8.40009 -2.59736,5.38482 -5.79552,8.42592 -9.85423,9.4269 -3.30448,0.81499 -5.95582,2.85738 -5.88197,4.51934 0.18733,4.2143 -23.61738,29.23995 -32.09153,33.73243 -6.27819,3.32844 -7.48613,3.3704 -12.13859,0.6071 -6.17273,-3.66637 -21.58198,-20.06731 -21.42603,-22.83835 0.0603,-1.07232 -1.85912,-2.59737 -4.27052,-3.32472 -2.41135,-0.72738 -4.43449,-2.4517 -4.49684,-3.85538 -0.0624,-1.40368 -2.59502,-3.64296 -5.63008,-5.02156 -3.03507,-1.37861 -5.35953,-4.05523 -5.12942,-5.92243 0.23013,-1.86723 -1.10519,-4.53985 -2.9679,-5.95092 -1.86268,-1.41109 -3.40857,-3.70018 -3.46855,-5.05001 -0.0601,-1.34984 -2.10455,-3.55734 -4.54484,-4.93464 -2.44024,-1.3773 -4.49572,-3.8302 -4.56579,-5.40678 -0.20008,-4.50052 -21.77024,-12.94379 -38.24443,-14.99439 -6.60364,-0.82201 -15.07282,-0.9994 -22.39301,-0.49182 z m -2.7778,33.30843 c 2.25664,-0.17999 4.67177,-0.26578 7.08259,-0.31472 9.64331,-0.19619 19.73062,0.66493 23.91145,2.72227 3.52218,1.73322 9.73756,4.56921 13.7964,6.28076 9.30196,3.9225 18.19974,12.59429 18.43862,17.96969 0.26585,5.98259 9.38929,22.96604 12.96886,24.16038 1.68123,0.56088 4.68115,3.26852 6.68981,6.05585 3.32852,4.61817 3.36119,5.6653 0.52456,11.80434 -5.31731,11.50773 -15.32169,19.86216 -26.00267,21.70179 -1.77073,0.30499 -7.05696,1.80398 -11.74889,3.29315 -4.69191,1.48914 -16.79166,3.73304 -26.88092,4.97936 -14.8653,1.83629 -18.85467,1.68038 -21.12339,-0.81857 -1.53977,-1.6961 -8.30963,-3.96886 -15.02407,-5.00966 -23.045382,-3.57222 -35.882916,-16.07464 -33.912285,-33.09733 0.504444,-4.35742 1.387194,-12.19572 1.930767,-17.38797 0.806285,-7.70139 3.37081,-12.14466 13.864096,-24.13619 7.695542,-8.79431 13.898152,-14.1113 15.428912,-13.25672 1.40725,0.78563 4.03311,0.0583 5.87594,-1.61283 1.8125,-1.64366 7.41036,-2.79355 14.18022,-3.3336 z m 266.35063,7.42623 c 8.94346,-0.40607 19.57943,0.17696 20.76364,1.84839 0.77149,1.089 3.65636,2.58433 6.36456,3.29925 2.70819,0.71491 4.96331,2.18457 5.01251,3.29177 0.0493,1.10715 1.13729,1.97705 2.38333,1.92167 1.24604,-0.0553 5.82661,3.11648 10.17792,6.98225 6.37168,5.66063 7.47177,7.82172 5.89984,11.09237 -1.07349,2.23358 -5.08251,11.32515 -8.96695,20.26891 -3.88441,8.94377 -9.60092,18.44363 -12.71436,21.11131 -3.11343,2.66765 -7.14637,6.37332 -8.89339,8.23522 -1.74701,1.86193 -7.29209,6.3819 -12.32905,10.01 -7.27182,5.23794 -10.83037,6.41631 -17.31306,5.83834 -4.49032,-0.40039 -8.93248,0.013 -9.89466,0.91279 -2.18159,2.03825 -8.88564,0.94972 -14.84271,-2.44941 -2.4918,-1.42185 -7.76561,-3.09293 -11.72336,-3.737 -9.06374,-1.47491 -46.63614,-18.28339 -46.75249,-20.90187 -0.0478,-1.07235 -1.57412,-1.89006 -3.39214,-1.80927 -1.81803,0.0808 -3.95924,-1.26285 -4.73072,-3.03393 -0.77145,-1.77107 -2.98072,-2.88946 -4.90907,-2.48531 -2.1927,0.45954 -3.82148,-1.04024 -4.36496,-3.92882 -0.95185,-5.05931 6.03848,-11.82562 12.50594,-12.11303 2.11018,-0.0938 3.80557,-1.05452 3.7549,-2.19445 -0.16658,-3.74724 19.71128,-24.18237 27.08197,-27.83255 3.96911,-1.96562 17.18046,-5.11423 29.36023,-6.98197 12.17981,-1.86772 23.73605,-4.36507 25.70724,-5.53549 1.68398,-0.99983 6.44877,-1.56553 11.81484,-1.80917 z"
       id="path4489"
       inkscape:connector-curvature="0" />
  </g>
</svg>
