<?xml version="1.0" encoding="UTF-8" standalone="no"?>
<!-- Created with Inkscape (http://www.inkscape.org/) -->

<svg
   xmlns:dc="http://purl.org/dc/elements/1.1/"
   xmlns:cc="http://creativecommons.org/ns#"
   xmlns:rdf="http://www.w3.org/1999/02/22-rdf-syntax-ns#"
   xmlns:svg="http://www.w3.org/2000/svg"
   xmlns="http://www.w3.org/2000/svg"
   xmlns:sodipodi="http://sodipodi.sourceforge.net/DTD/sodipodi-0.dtd"
   xmlns:inkscape="http://www.inkscape.org/namespaces/inkscape"
   width="512"
   height="512"
   id="svg4408"
   version="1.1"
   inkscape:version="0.48.4 r9939"
   sodipodi:docname="inifity.svg">
  <defs
     id="defs4410" />
  <sodipodi:namedview
     id="base"
     pagecolor="#ffffff"
     bordercolor="#666666"
     borderopacity="1.0"
     inkscape:pageopacity="0.0"
     inkscape:pageshadow="2"
     inkscape:zoom="0.38738956"
     inkscape:cx="256"
     inkscape:cy="256"
     inkscape:document-units="px"
     inkscape:current-layer="layer1"
     showgrid="false"
     inkscape:window-width="1276"
     inkscape:window-height="782"
     inkscape:window-x="0"
     inkscape:window-y="14"
     inkscape:window-maximized="0" />
  <metadata
     id="metadata4413">
    <rdf:RDF>
      <cc:Work
         rdf:about="">
        <dc:format>image/svg+xml</dc:format>
        <dc:type
           rdf:resource="http://purl.org/dc/dcmitype/StillImage" />
        <dc:title />
      </cc:Work>
    </rdf:RDF>
  </metadata>
  <g
     inkscape:label="Layer 1"
     inkscape:groupmode="layer"
     id="layer1"
     transform="translate(0,-540.36218)">
    <path
       style="fill:#000000"
       d="m 358.19358,684.14538 c -0.79138,0.0127 -1.38168,0.1942 -1.76301,0.47784 -1.5253,1.13457 -6.06248,2.4339 -10.06622,2.96266 -11.10153,1.46613 -19.10875,4.29636 -19.10875,6.68985 0,1.1853 -1.84263,2.33418 -4.09473,2.58037 -10.40275,1.13719 -26.73212,11.6757 -30.48301,19.68727 -0.50046,1.06898 -7.32604,7.20216 -15.12776,13.57083 -7.8017,6.36871 -15.00013,14.23131 -16.0377,17.48919 -1.03755,3.25789 -2.33334,5.25359 -2.84356,4.39619 -0.51024,-0.8574 -4.60939,3.12856 -9.0994,8.88794 -8.58005,11.00576 -12.24158,12.81391 -14.38844,6.97657 -0.92705,-2.52069 -1.86405,-2.24537 -3.29853,1.05125 -5.27249,12.11697 -14.43322,8.82988 -26.10392,-9.36578 -3.23455,-5.04295 -7.45587,-9.96225 -9.38376,-10.99048 -1.92791,-1.02825 -3.93132,-3.94412 -4.49283,-6.40314 -0.56152,-2.45899 -2.48228,-4.45445 -4.26535,-4.49176 -1.78304,-0.0375 -5.28902,-2.73162 -7.79136,-6.02086 -2.50234,-3.28923 -5.62298,-6.07913 -6.9383,-6.11643 -4.07351,-0.11593 -22.1798,-15.09335 -22.1798,-18.3493 0,-1.69429 -3.40996,-7.17626 -7.56388,-12.23287 -6.49,-7.90036 -9.15694,-9.17466 -18.995,-9.17466 -6.29683,0 -11.91127,1.19803 -12.45481,2.67593 -0.54355,1.47793 -5.71663,3.25921 -11.488,4.01391 -13.1951,1.72558 -29.036745,13.02358 -30.710489,21.88538 -0.679926,3.60002 -3.889632,10.72178 -7.165781,15.76892 -3.276132,5.04717 -6.588497,13.30326 -7.336395,18.34932 -0.747898,5.04605 -3.247796,16.05564 -5.573385,24.46573 -4.758934,17.20979 -5.444665,36.67968 -1.819881,51.32071 1.340014,5.41253 2.029713,11.58478 1.592395,13.76198 -0.437299,2.17718 1.175698,6.97065 3.52602,10.70376 2.350321,3.73308 6.499286,12.46567 9.270018,19.305 4.928055,12.16449 21.018168,28.0941 26.388273,26.18599 1.251168,-0.44457 2.274851,0.82487 2.274851,2.7715 0,2.25474 2.146731,2.93989 5.914613,2.00697 3.253037,-0.80548 9.061391,0.39771 12.909781,2.67593 3.84839,2.27825 10.19259,3.9847 14.10408,3.72721 3.91148,-0.25757 7.63855,0.41218 8.3032,1.5291 2.78296,4.67665 20.81873,-0.91466 37.93314,-11.75501 6.00561,-3.80401 14.19507,-8.36976 18.19881,-10.22593 4.00374,-1.85612 15.33101,-12.32513 25.19398,-23.22334 9.86295,-10.89819 19.54501,-20.65293 21.49734,-21.69422 3.07329,-1.63914 10.69972,3.11244 21.55422,13.47528 9.02799,8.61906 14.61701,12.66942 17.57322,12.7107 5.00169,0.0697 8.03286,4.26438 8.36008,11.56389 0.42065,9.3841 6.37357,12.06204 33.21282,14.90881 43.14179,4.57592 52.16418,3.46765 74.61512,-9.3658 24.46672,-13.98568 33.00187,-19.39502 39.69615,-25.03914 2.83368,-2.38914 6.31421,-4.30062 7.7345,-4.30062 1.42029,0 2.61607,-1.37621 2.61607,-3.05822 0,-1.68202 1.23181,-3.05822 2.7867,-3.05822 3.5523,0 15.41204,-15.66131 15.41211,-20.35626 4e-5,-1.92257 1.08436,-4.18747 2.44547,-5.06518 3.1366,-2.02263 7.11841,-28.05696 5.63026,-36.79417 -1.87947,-11.0345 -6.70947,-27.61725 -9.32689,-32.01571 -1.36017,-2.28568 -5.32438,-5.54803 -8.81505,-7.16771 -6.7956,-3.1531 -26.04574,-23.22546 -33.72467,-35.16949 -5.55237,-8.63628 -22.8434,-19.44965 -31.22233,-19.49613 -3.27804,-0.0182 -10.03324,-2.04853 -15.01402,-4.58733 -3.73556,-1.90347 -7.69211,-3.09449 -10.06621,-3.05822 z m 26.16078,51.22515 c 3.14015,0.0164 6.08547,0.24239 8.75818,0.86011 12.601,2.91238 19.33623,14.83796 19.33623,34.02268 0,10.71072 -1.02896,15.20441 -5.28902,22.3632 -9.25246,15.54832 -21.70121,23.46342 -48.16998,30.77331 -6.94836,1.91896 -15.08226,4.78325 -18.08506,6.30758 -10.91841,5.5426 -32.48382,5.18088 -36.62511,-0.5734 -1.1243,-1.56221 -3.42052,-1.91834 -5.06154,-0.86013 -1.641,1.0582 -3.99375,0.54296 -5.23216,-1.05126 -1.23843,-1.5942 -6.72218,-5.18812 -12.22732,-8.02782 -14.50915,-7.4843 -15.78852,-9.29209 -10.6918,-15.2911 2.32652,-2.73839 5.46623,-5.01777 6.99517,-5.06516 2.8185,-0.0872 14.87173,-10.96123 34.06589,-30.67775 18.45443,-18.95666 50.24546,-32.89338 72.22652,-32.78026 z m -269.62672,9.36578 c 2.59072,-0.2182 5.08307,0.39906 7.45013,1.91139 2.80408,1.79154 10.79921,4.17169 17.74384,5.2563 6.94463,1.08462 12.62543,3.09331 12.62543,4.49176 0,1.39843 3.48052,5.3566 7.73449,8.79239 7.77014,6.27566 8.79992,7.37237 22.23667,21.59866 4.02026,4.25648 9.69476,9.69295 12.56855,12.13729 2.87378,2.44434 5.66347,6.3518 6.19897,8.69681 1.03529,4.53374 -6.70866,16.24495 -9.0994,13.76198 -0.77869,-0.80872 -1.42179,-0.0269 -1.42179,1.72024 0,5.12979 -12.28197,14.04003 -32.75785,23.79676 -19.43436,9.26043 -37.06042,12.70637 -38.95683,7.54998 -0.57643,-1.56734 -3.86577,-3.79786 -7.27952,-4.87404 -3.41375,-1.07619 -7.19288,-3.92465 -8.41695,-6.40315 -1.22407,-2.47853 -3.638578,-4.49175 -5.402771,-4.49175 -4.716166,0 -9.099404,-13.28431 -9.099404,-27.61953 0,-6.89784 -0.836581,-15.07067 -1.819881,-18.15816 -2.801597,-8.7969 0.986958,-22.14647 9.78186,-34.50052 6.071126,-8.52799 12.214856,-13.18636 17.914456,-13.66641 z"
       id="path4783"
       inkscape:connector-curvature="0" />
  </g>
</svg>
