<?xml version="1.0" encoding="UTF-8" standalone="no"?>
<!-- Created with Inkscape (http://www.inkscape.org/) -->

<svg
   xmlns:dc="http://purl.org/dc/elements/1.1/"
   xmlns:cc="http://creativecommons.org/ns#"
   xmlns:rdf="http://www.w3.org/1999/02/22-rdf-syntax-ns#"
   xmlns:svg="http://www.w3.org/2000/svg"
   xmlns="http://www.w3.org/2000/svg"
   xmlns:sodipodi="http://sodipodi.sourceforge.net/DTD/sodipodi-0.dtd"
   xmlns:inkscape="http://www.inkscape.org/namespaces/inkscape"
   width="512"
   height="512"
   id="svg2"
   version="1.1"
   inkscape:version="0.48.4 r9939"
   sodipodi:docname="menu_circle_light_grey.svg"
   inkscape:export-filename="/home/nathan/documents/bee_puzzled/svgs/menu_circle_light_grey.png"
   inkscape:export-xdpi="22.5"
   inkscape:export-ydpi="22.5">
  <defs
     id="defs4" />
  <sodipodi:namedview
     id="base"
     pagecolor="#ffffff"
     bordercolor="#666666"
     borderopacity="1.0"
     inkscape:pageopacity="0.0"
     inkscape:pageshadow="2"
     inkscape:zoom="1.1074219"
     inkscape:cx="256"
     inkscape:cy="256"
     inkscape:document-units="px"
     inkscape:current-layer="layer1"
     showgrid="false"
     inkscape:window-width="1276"
     inkscape:window-height="782"
     inkscape:window-x="0"
     inkscape:window-y="14"
     inkscape:window-maximized="0" />
  <metadata
     id="metadata7">
    <rdf:RDF>
      <cc:Work
         rdf:about="">
        <dc:format>image/svg+xml</dc:format>
        <dc:type
           rdf:resource="http://purl.org/dc/dcmitype/StillImage" />
        <dc:title />
      </cc:Work>
    </rdf:RDF>
  </metadata>
  <g
     inkscape:label="Layer 1"
     inkscape:groupmode="layer"
     id="layer1"
     transform="translate(0,-540.36215)">
    <path
       style="fill:#000000;fill-opacity:1"
       d="m 216.59465,540.36229 -6.9746,5.60269 c -3.85797,3.04841 -8.91245,9.54971 -11.23602,14.46701 -5.63177,11.91691 -8.23149,13.33163 -24.56593,13.37983 l -13.94857,0 -13.3293,8.1116 c -7.34983,4.4555 -19.24378,11.08868 -26.42503,14.71783 -33.117593,16.7421 -75.073476,55.9166 -84.93318,79.35885 -2.670581,6.35349 -4.904924,15.75467 -4.95937,20.90594 -0.06561,5.67327 -2.7434,13.71105 -6.897201,20.32044 -3.772009,6.00111 -8.313507,16.23667 -10.074215,22.7457 -1.763332,6.50894 -5.4520286,19.35812 -8.2144519,28.5158 L 3.6905616e-6,785.129 0.61664489,801.93751 c 0.3476807,9.23956 0.41984171,26.62579 0.15744071,38.71766 -0.29520121,13.74456 0.9899068,27.60524 3.4873044,36.87824 l 4.0298174,14.80155 26.6579326,28.76653 c 14.674753,15.80882 30.226583,34.2673 34.484037,41.05918 4.258108,6.79161 11.393434,14.25295 15.886384,16.55749 4.496234,2.30455 11.416398,7.85877 15.421289,12.37631 4.00751,4.51758 8.49653,8.19516 9.99679,8.19516 6.59872,0 43.8478,18.85027 60.13501,30.43907 20.39903,14.5104 27.35526,17.2589 51.53352,20.2369 25.90615,3.1846 38.80708,3.2062 48.4339,0 4.76323,-1.5868 19.20248,-3.3396 32.1598,-3.8467 14.22607,-0.557 29.94058,-3.038 39.67629,-6.2716 8.86522,-2.9448 25.04614,-8.1783 35.95742,-11.7073 10.91126,-3.5294 23.03615,-8.2511 26.89016,-10.4531 3.85597,-2.2021 20.78409,-18.70797 37.66236,-36.71075 l 30.6871,-32.78052 6.04439,-13.8818 c 3.30822,-7.65409 7.42397,-20.58811 9.22207,-28.68287 1.80006,-8.09474 5.50845,-18.13948 8.21446,-22.41113 l 4.95936,-7.77719 2.092,-27.01032 c 1.17818,-14.86145 3.38956,-36.78003 4.8826,-48.66905 L 512,778.10457 508.66818,767.65173 c -1.98637,-6.26549 -3.05632,-18.89041 -2.63517,-31.27531 0.90529,-26.57525 -2.63647,-37.64274 -16.81595,-52.68292 -6.30154,-6.6865 -15.50589,-18.83211 -20.45872,-26.92687 -11.64205,-19.04134 -43.79793,-53.51924 -49.90595,-53.51924 -2.60106,0 -7.69293,-2.24807 -11.31341,-5.01741 -3.62113,-2.76937 -11.83165,-6.92511 -18.28868,-9.28212 -6.45767,-2.357 -17.61692,-7.87058 -24.79815,-12.20932 -13.76751,-8.32038 -43.05733,-21.42377 -67.03221,-30.02084 l -14.33626,-5.18469 -33.24485,-0.58543 -33.24485,-0.58543 z m 43.70676,47.8328 c 8.66184,-0.0962 17.51918,0.1685 26.57987,0.66897 30.87601,1.70538 33.47773,2.29994 53.62616,13.04527 9.79474,5.22376 25.62472,11.22967 35.18201,13.37983 9.55466,2.15007 19.68398,5.829 22.55071,8.1116 2.8641,2.28289 9.70815,7.36692 15.18904,11.37289 19.24054,14.06749 43.31842,47.34201 43.31842,59.79083 0,7.48441 10.55834,44.57562 15.42127,54.18819 1.58754,3.13463 4.32371,17.12616 6.04506,31.1081 l 3.09961,25.42159 -2.78997,17.39374 -2.78932,17.39381 -11.31473,18.14648 c -6.24382,9.96977 -13.23482,22.11758 -15.49867,26.92659 -2.26386,4.80921 -8.99444,14.695 -14.9562,21.9932 -19.71416,24.13689 -31.02033,39.85335 -35.41424,49.338 -6.36584,13.73142 -18.26503,26.27685 -28.36287,29.7701 -4.87343,1.68557 -10.5636,4.66842 -12.63196,6.60613 -2.06511,1.93709 -11.46691,7.38939 -20.84577,12.12559 l -17.04883,8.6131 -20.07035,2.0907 c -21.13047,2.183 -59.5997,2.3915 -72.22446,0.4184 -12.26001,-1.9165 -33.04346,-8.231 -39.44407,-11.9583 -3.29837,-1.9206 -16.31016,-9.53313 -28.90539,-16.89204 l -22.86034,-13.37982 -11.93397,-15.805 C 117.66305,949.32763 105.51457,936.53145 97.254839,929.63097 73.560084,909.84408 60.760827,887.9657 52.230844,852.61356 l -4.881964,-20.57145 0.150881,-23.58187 c 0.223041,-34.26836 4.692378,-72.77359 10.306437,-88.47396 6.304173,-17.63137 15.321574,-36.45999 17.513938,-36.45999 0.944633,0 7.498748,-9.03138 14.568473,-20.0697 7.072359,-11.03833 13.629091,-20.06972 14.491731,-20.06972 0.86263,0 7.69751,-5.51514 15.18906,-12.29257 29.9458,-27.08982 80.08204,-42.2272 140.72807,-42.89914 z M 25.727726,854.78772 c 1.021394,-0.11457 2.084118,0.58543 2.944791,2.09076 0.642883,1.11479 1.907653,6.53415 2.867382,12.04176 l 1.704293,9.95115 -3.874345,0 c -5.353629,0 -9.801974,-9.81946 -7.98157,-17.64453 0.91709,-3.94673 2.63319,-6.24511 4.339449,-6.43914 z m 444.581414,35.62376 c 0.82591,-0.1876 1.63279,0.21379 2.32487,1.42145 0.73144,1.27909 -0.28865,4.65028 -2.24747,7.44263 l -3.56471,5.01743 -0.0787,-5.85365 c -0.0655,-4.30243 1.74694,-7.61579 3.56473,-8.02786 z m -5.50188,17.9792 c 7.39246,-0.13372 -4.97579,26.69808 -19.99362,43.40063 -6.2858,6.99095 -12.81302,12.7108 -14.56848,12.7108 -4.96003,0 -3.83236,-8.83302 2.32486,-17.72822 9.25225,-13.36433 30.25087,-38.34574 32.23724,-38.38321 z"
       id="path3618-9-1"
       inkscape:connector-curvature="0" />
    <path
       style="color:#000000;fill:#d6d6d6;fill-opacity:1;stroke:none;stroke-width:6.69999980999999867;marker:none;visibility:visible;display:inline;overflow:visible;enable-background:accumulate"
       d="m 260.0858,583.64149 c -46.98909,0.66 -96.34571,8.53154 -135.71091,37.79237 -14.3118,10.44769 -28.529546,21.97415 -37.429027,38.25159 -10.330948,14.65612 -22.283213,28.38215 -28.447129,45.74298 -14.280338,33.9345 -14.220294,72.06724 -15.661593,108.68046 -0.52588,11.20918 -0.308308,22.38449 3.196243,33.07665 6.5596,28.28062 17.395255,56.58736 38.163147,76.05218 16.088409,16.15904 33.517199,31.07852 46.025909,50.80492 9.01783,9.6276 21.84178,13.18742 32.28896,20.67927 19.9531,12.61759 41.27938,22.93859 64.49329,25.91769 20.66509,3.0541 41.70298,0.5775 62.5165,0.4884 11.94285,-1.0735 24.43756,-0.5871 35.79238,-4.8654 18.2992,-9.1716 35.84504,-20.26024 53.99211,-29.66532 18.59093,-12.41996 25.65061,-36.40501 39.92951,-53.21122 15.15981,-19.6755 31.20767,-38.93015 42.40207,-61.75283 6.2282,-11.19966 14.53893,-21.33876 19.01471,-33.43732 2.08497,-15.79793 7.45154,-31.67151 3.47092,-47.68451 -2.19288,-21.3294 -6.30898,-42.62452 -14.42745,-62.1121 -6.76353,-19.76866 -7.4126,-42.4072 -19.51309,-59.7467 -12.50415,-19.75677 -30.05275,-35.4193 -48.43905,-48.48537 -16.07684,-9.42809 -34.97352,-10.43166 -51.41364,-19.11632 -14.90048,-6.83722 -29.63746,-15.10856 -46.09982,-15.85031 -14.66831,-1.32655 -29.43511,-1.29872 -44.14404,-1.55911 z"
       id="path3047"
       inkscape:connector-curvature="0" />
  </g>
</svg>
