<?xml version="1.0" encoding="UTF-8" standalone="no"?>
<!-- Created with Inkscape (http://www.inkscape.org/) -->

<svg
   xmlns:dc="http://purl.org/dc/elements/1.1/"
   xmlns:cc="http://creativecommons.org/ns#"
   xmlns:rdf="http://www.w3.org/1999/02/22-rdf-syntax-ns#"
   xmlns:svg="http://www.w3.org/2000/svg"
   xmlns="http://www.w3.org/2000/svg"
   xmlns:sodipodi="http://sodipodi.sourceforge.net/DTD/sodipodi-0.dtd"
   xmlns:inkscape="http://www.inkscape.org/namespaces/inkscape"
   width="512"
   height="512"
   id="svg2"
   version="1.1"
   inkscape:version="0.48.4 r9939"
   sodipodi:docname="menu_circle_blue_border.svg"
   inkscape:export-filename="/home/nathan/documents/bee_puzzled/svgs/menu_circle_blue.png"
   inkscape:export-xdpi="22.5"
   inkscape:export-ydpi="22.5">
  <defs
     id="defs4" />
  <sodipodi:namedview
     id="base"
     pagecolor="#ffffff"
     bordercolor="#666666"
     borderopacity="1.0"
     inkscape:pageopacity="0.0"
     inkscape:pageshadow="2"
     inkscape:zoom="1.1074219"
     inkscape:cx="255.99999"
     inkscape:cy="255.99999"
     inkscape:document-units="px"
     inkscape:current-layer="layer1"
     showgrid="false"
     inkscape:window-width="1276"
     inkscape:window-height="782"
     inkscape:window-x="0"
     inkscape:window-y="14"
     inkscape:window-maximized="0" />
  <metadata
     id="metadata7">
    <rdf:RDF>
      <cc:Work
         rdf:about="">
        <dc:format>image/svg+xml</dc:format>
        <dc:type
           rdf:resource="http://purl.org/dc/dcmitype/StillImage" />
        <dc:title></dc:title>
      </cc:Work>
    </rdf:RDF>
  </metadata>
  <g
     inkscape:label="Layer 1"
     inkscape:groupmode="layer"
     id="layer1"
     transform="translate(0,-540.36215)">
    <path
       style="fill:#216778;fill-opacity:1"
       d="m 217.29505,563.34505 -6.85063,5.0997 c -3.78939,2.77473 -8.75403,8.69237 -11.0363,13.16821 -5.53167,10.84705 -8.08519,12.13476 -24.12929,12.17864 l -13.70064,0 -13.09238,7.38337 c -7.2192,4.0555 -18.90174,10.09317 -25.95535,13.39651 -32.528946,15.23906 -73.73909,50.89661 -83.423544,72.2343 -2.623113,5.78309 -4.817742,14.34027 -4.871221,19.02908 -0.06444,5.16394 -2.694637,12.48012 -6.774607,18.49614 -3.704964,5.46235 -8.16574,14.779 -9.895153,20.70367 -1.73199,5.92459 -5.355122,17.62022 -8.068445,25.95575 l -4.9472529,15.14705 0.6056808,15.2995 c 0.3415009,8.41007 0.4123793,24.23543 0.1546423,35.24173 -0.2899542,12.51062 0.9723118,25.12694 3.4253198,33.56744 l 3.95819,13.47272 26.184105,26.18398 c 14.413919,14.38956 29.689325,31.1909 33.871106,37.37303 4.182422,6.18188 11.190923,12.97337 15.604013,15.07102 4.416317,2.09765 11.213479,7.15323 15.147186,11.26521 3.93628,4.112 8.34551,7.45942 9.8191,7.45942 6.48144,0 43.06844,17.15797 59.06615,27.70638 20.03645,13.2077 26.86904,15.7094 50.61755,18.4201 25.44568,2.8987 38.11731,2.9183 47.57302,0 4.67856,-1.4444 18.86116,-3.0398 31.58818,-3.5014 13.97321,-0.507 29.4084,-2.7652 38.97107,-5.7085 8.70764,-2.6805 24.60096,-7.4441 35.3183,-10.6563 10.71732,-3.2125 22.62669,-7.51034 26.4122,-9.51469 3.78743,-2.00435 20.41467,-17.02839 36.99294,-33.41495 l 30.14165,-29.8376 5.93696,-12.63554 c 3.24942,-6.96693 7.29201,-18.73978 9.05815,-26.10782 1.76807,-7.36803 5.41054,-16.51099 8.06845,-20.39914 l 4.87122,-7.07898 2.05481,-24.58543 c 1.15724,-13.52725 3.32931,-33.47805 4.79582,-44.29972 l 2.66371,-19.71426 -3.2726,-9.51442 c -1.95106,-5.703 -3.00199,-17.1945 -2.58833,-28.46752 0.8892,-24.18942 -2.58961,-34.26331 -16.51705,-47.95324 -6.18954,-6.08621 -15.23029,-17.14143 -20.09508,-24.50947 -11.43512,-17.33188 -43.01945,-48.71447 -49.01891,-48.71447 -2.55483,0 -7.55619,-2.04625 -11.11232,-4.56697 -3.55677,-2.52074 -11.62135,-6.3034 -17.96361,-8.4488 -6.34289,-2.1454 -17.30379,-7.16399 -24.35738,-11.11321 -13.5228,-7.57341 -42.29201,-19.50042 -65.84075,-27.32568 l -14.08145,-4.71923 -32.65394,-0.53287 -32.65394,-0.53287 z m 42.9299,43.53854 c 8.50789,-0.0876 17.20779,0.15337 26.10743,0.60891 30.32721,1.55228 32.88269,2.09346 52.67299,11.87411 9.62065,4.75479 25.16926,10.22151 34.55668,12.17864 9.38483,1.95704 19.33411,5.30569 22.14988,7.38337 2.81319,2.07794 9.5356,6.70554 14.91907,10.35187 18.89855,12.80456 42.54846,43.09181 42.54846,54.42302 0,6.81249 10.37067,40.57378 15.14717,49.32337 1.55932,2.85321 4.24685,15.58863 5.93761,28.31533 l 3.04452,23.13933 -2.74038,15.83219 -2.73975,15.83225 -11.11361,16.51736 c -6.13284,9.07472 -12.99958,20.13194 -15.2232,24.50921 -2.22362,4.37746 -8.83457,13.37574 -14.69036,20.01873 -19.36375,21.96997 -30.46896,36.27546 -34.78477,44.90861 -6.25269,12.49866 -17.94038,23.91781 -27.85874,27.09745 -4.78681,1.53424 -10.37584,4.2493 -12.40744,6.01305 -2.0284,1.76319 -11.26309,6.72597 -20.47525,11.03701 l -16.74579,7.83981 -19.71362,1.90307 c -20.75489,1.98702 -58.54035,2.17677 -70.94071,0.38081 -12.0421,-1.74449 -32.45614,-7.49202 -38.74298,-10.88473 -3.23974,-1.74817 -16.02026,-8.67729 -28.39162,-15.37554 L 138.28653,957.93219 126.56468,943.54611 C 120.1219,935.59493 108.18935,923.94755 100.07643,917.66657 76.802834,899.65608 64.231076,879.74186 55.852708,847.56351 l -4.79519,-18.72462 0.148199,-21.46477 c 0.219076,-31.19187 4.608974,-66.24024 10.123247,-80.53109 6.19212,-16.04848 15.049242,-33.18674 17.202639,-33.18674 0.927842,0 7.365462,-8.22057 14.309527,-18.26791 6.946653,-10.04735 13.38684,-18.26793 14.23415,-18.26793 0.8473,0 7.56069,-5.02001 14.91908,-11.18899 29.41354,-24.65779 78.65864,-38.43619 138.22672,-39.04781 z M 29.820666,849.54248 c 1.003239,-0.10428 2.047074,0.53287 2.892449,1.90306 0.631456,1.01471 1.873746,5.94754 2.816416,10.96069 l 1.674,9.05777 -3.805481,0 c -5.258471,0 -9.62775,-8.9379 -7.839702,-16.06046 0.900789,-3.59241 2.586386,-5.68445 4.262318,-5.86106 z m 436.679264,32.42559 c 0.81123,-0.17076 1.60377,0.19459 2.28355,1.29383 0.71844,1.16426 -0.28352,4.2328 -2.20752,6.77446 l -3.50135,4.56698 -0.0773,-5.32813 c -0.0643,-3.91617 1.71588,-6.93207 3.50136,-7.30714 z m -5.40409,16.36509 c 7.26107,-0.12172 -4.88734,24.30122 -19.63824,39.50427 -6.17408,6.36333 -12.58528,11.56967 -14.30954,11.56967 -4.87187,0 -3.76424,-8.04002 2.28354,-16.13664 9.0878,-12.16453 29.71318,-34.9032 31.66424,-34.9373 z"
       id="path3618-9-1"
       inkscape:connector-curvature="0" />
    <path
       style="color:#000000;fill:#ffffff;fill-opacity:1;stroke:none;stroke-width:6.69999980999999867;marker:none;visibility:visible;display:inline;overflow:visible;enable-background:accumulate"
       d="m 260.01318,602.73879 c -46.15389,0.60075 -94.63323,7.76561 -133.29874,34.39951 -14.05742,9.50973 -28.022452,20.00139 -36.76375,34.8175 -10.147322,13.34034 -21.887143,25.8341 -27.9415,41.63634 -14.026514,30.88798 -13.967537,65.5973 -15.383218,98.92351 -0.516533,10.20286 -0.302828,20.37489 3.139432,30.10715 6.443007,25.74168 17.086065,51.50715 37.484821,69.22448 15.802445,14.70834 32.921455,28.2884 45.207825,46.24384 8.85755,8.76327 21.45356,12.0035 31.71505,18.82276 19.59844,11.48487 40.54566,20.87922 63.34696,23.59092 20.29778,2.7799 40.96174,0.5256 61.40531,0.4445 11.73057,-0.97712 24.0032,-0.5344 35.15619,-4.42856 17.97395,-8.3482 35.20792,-18.44137 53.03244,-27.00209 18.26049,-11.30494 25.19469,-33.1367 39.21979,-48.43411 14.89035,-17.9091 30.65297,-35.43514 41.6484,-56.20888 6.1175,-10.19419 14.28051,-19.42304 18.67673,-30.43544 2.04792,-14.37964 7.3191,-28.82815 3.40923,-43.40356 -2.1539,-19.41452 -6.19684,-38.79784 -14.17101,-56.5359 -6.64331,-17.9939 -7.28085,-38.60003 -19.16626,-54.38285 -12.28189,-17.98308 -29.51858,-32.23948 -47.57807,-44.13253 -15.79109,-8.58167 -34.35189,-9.49514 -50.4998,-17.40012 -14.63563,-6.2234 -29.11067,-13.75217 -45.28043,-14.42733 -14.40759,-1.20745 -28.91192,-1.18212 -43.3594,-1.41914 z"
       id="path3047"
       inkscape:connector-curvature="0" />
  </g>
</svg>
