<?xml version="1.0" encoding="UTF-8" standalone="no"?>
<!-- Created with Inkscape (http://www.inkscape.org/) -->

<svg
   xmlns:dc="http://purl.org/dc/elements/1.1/"
   xmlns:cc="http://creativecommons.org/ns#"
   xmlns:rdf="http://www.w3.org/1999/02/22-rdf-syntax-ns#"
   xmlns:svg="http://www.w3.org/2000/svg"
   xmlns="http://www.w3.org/2000/svg"
   xmlns:sodipodi="http://sodipodi.sourceforge.net/DTD/sodipodi-0.dtd"
   xmlns:inkscape="http://www.inkscape.org/namespaces/inkscape"
   width="512"
   height="512"
   id="svg5488"
   version="1.1"
   inkscape:version="0.48.4 r9939"
   sodipodi:docname="revert.svg"
   inkscape:export-filename="/home/nathan/documents/bee_line/svgs/revert.png"
   inkscape:export-xdpi="45"
   inkscape:export-ydpi="45">
  <defs
     id="defs5490" />
  <sodipodi:namedview
     id="base"
     pagecolor="#ffffff"
     bordercolor="#666666"
     borderopacity="1.0"
     inkscape:pageopacity="0.0"
     inkscape:pageshadow="2"
     inkscape:zoom="1.0957031"
     inkscape:cx="256"
     inkscape:cy="256"
     inkscape:document-units="px"
     inkscape:current-layer="layer1"
     showgrid="false"
     inkscape:window-width="1276"
     inkscape:window-height="782"
     inkscape:window-x="0"
     inkscape:window-y="14"
     inkscape:window-maximized="0" />
  <metadata
     id="metadata5493">
    <rdf:RDF>
      <cc:Work
         rdf:about="">
        <dc:format>image/svg+xml</dc:format>
        <dc:type
           rdf:resource="http://purl.org/dc/dcmitype/StillImage" />
        <dc:title></dc:title>
      </cc:Work>
    </rdf:RDF>
  </metadata>
  <g
     inkscape:label="Layer 1"
     inkscape:groupmode="layer"
     id="layer1"
     transform="translate(0,-540.3622)">
    <path
       style="fill:#000000"
       d="m 148.67692,991.36229 c -2.62627,-1.0175 -6.90067,-3.40768 -9.49866,-5.31149 -7.26726,-5.32553 -14.503,-8.80977 -18.29524,-8.80977 -2.73451,0 -3.06954,-0.4597 -1.6361,-2.24478 1.4312,-1.78228 0.81879,-2.66593 -2.97238,-4.28891 -2.62622,-1.12428 -4.77982,-2.50705 -4.78577,-3.07278 -0.006,-0.56574 -2.67745,-2.86931 -5.93666,-5.11905 -3.25921,-2.24973 -7.298134,-5.37048 -8.975375,-6.935 -1.677224,-1.56451 -4.389533,-3.28415 -6.027339,-3.82138 -1.637805,-0.53725 -3.645329,-2.79132 -4.461169,-5.00907 -0.830499,-2.25758 -3.577604,-4.78679 -6.241755,-5.74665 -2.617116,-0.94291 -4.758398,-2.19683 -4.758398,-2.7865 0,-0.58968 -5.328079,-3.64683 -11.840198,-6.79367 -6.512102,-3.14683 -11.855095,-6.61048 -11.873316,-7.69698 -0.01821,-1.0865 -2.627866,-4.03161 -5.799229,-6.54467 -3.171363,-2.51308 -8.600255,-7.33026 -12.064208,-10.70485 -3.463953,-3.3746 -7.910114,-6.13564 -9.88034,-6.13564 -3.745414,0 -5.482908,-3.61774 -5.500655,-11.45317 -0.01108,-4.62691 6.038563,-8.55882 9.810764,-6.37703 1.257146,0.72713 8.640655,0.493 16.407783,-0.52024 17.670851,-2.30523 21.431986,-1.39306 24.856171,6.0282 1.732934,3.75581 3.76886,5.77758 5.818036,5.77758 2.700926,0 3.012704,-0.76134 2.177519,-5.31756 -0.53612,-2.92464 -1.666602,-6.22851 -2.512204,-7.34192 -0.845602,-1.1134 -1.14959,-3.06899 -0.675544,-4.34573 0.474046,-1.27675 -0.403693,-3.50509 -1.950517,-4.95186 -6.535469,-6.11275 -9.700943,-45.79844 -5.590306,-70.08587 1.408049,-8.31936 2.569164,-17.57723 2.580262,-20.57307 0.01266,-3.58347 1.515985,-7.2219 4.39243,-10.6351 3.768559,-4.47176 6.164832,-12.35186 7.050661,-23.18598 0.264078,-3.22986 5.188877,-15.22764 16.790168,-40.90421 3.252759,-7.19914 6.444029,-15.66632 7.091729,-18.81594 1.4159,-6.88522 7.30063,-18.16144 13.59967,-26.05938 2.53253,-3.17537 4.60459,-6.71007 4.60459,-7.85486 0,-1.14481 0.69884,-2.08147 1.55296,-2.08147 0.85411,0 1.99994,-1.84068 2.54628,-4.09042 0.54633,-2.24973 1.94147,-4.09042 3.10028,-4.09042 1.15882,0 6.95889,-2.57336 12.88903,-5.71861 5.93015,-3.14522 11.99338,-5.72218 13.47385,-5.72659 1.48048,-0.005 3.26148,-0.92832 3.95778,-2.05319 1.20226,-1.94226 8.63791,-5.42361 15.51397,-7.26362 1.74142,-0.466 9.57781,-3.24603 17.4142,-6.17787 18.44874,-6.90223 27.81761,-9.15295 30.83513,-7.40766 1.5595,0.90198 3.37463,0.4889 5.15057,-1.17217 1.94385,-1.81812 7.24536,-2.79703 18.20674,-3.36182 8.5054,-0.43823 16.17675,-1.37186 17.04746,-2.0747 0.87071,-0.70284 5.04576,-1.81076 9.2779,-2.46202 5.65745,-0.87059 8.03567,-0.61408 8.98223,0.96879 1.03627,1.73292 1.75447,1.75231 3.68154,0.0993 1.79616,-1.54063 3.21019,-1.60216 5.66154,-0.24627 2.28304,1.26281 4.18995,1.29702 6.32956,0.11356 4.41378,-2.44136 13.06261,-2.08358 19.78268,0.81834 3.19951,1.38167 11.58337,2.97164 18.63079,3.53333 9.63444,0.76785 13.43246,1.76833 15.30828,4.03258 1.37213,1.65626 3.35706,3.01137 4.41094,3.01137 1.05389,0 2.36784,1.47084 2.9199,3.26853 0.55206,1.7977 2.65921,3.69794 4.68254,4.2228 2.02334,0.52485 5.67112,3.10351 8.10621,5.73038 2.43509,2.62688 6.07515,4.77614 8.08902,4.77614 2.01387,0 3.66159,0.73628 3.66159,1.63617 0,0.8999 1.2467,1.65057 2.77044,1.66816 1.52374,0.0177 6.52122,3.69896 11.10551,8.18084 4.58429,4.48187 9.10219,8.14885 10.03982,8.14885 0.93761,0 3.81357,1.65662 6.39103,3.68138 9.35226,7.34685 33.01755,30.68572 33.01755,32.56215 0,1.35908 9.81503,12.95279 16.22687,19.16753 2.39445,2.32084 4.35355,5.07639 4.35355,6.12347 0,4.55506 8.57877,28.18206 12.28719,33.8404 3.89169,5.93802 5.39261,11.76052 7.67969,29.79196 0.57071,4.49947 1.95212,9.28526 3.06978,10.6351 3.24084,3.91404 4.28419,30.31428 1.61656,40.90421 -3.23985,12.8615 -7.045,24.63045 -9.69724,29.99268 -1.26011,2.54763 -2.30696,5.49272 -2.32632,6.54467 -0.0193,1.05194 -1.42831,3.7533 -3.13101,6.00303 -1.70269,2.24974 -3.11164,5.28876 -3.13101,6.75339 -0.0193,1.46461 -1.1038,3.57953 -2.40987,4.6998 -1.50158,1.28796 -2.37466,4.89736 -2.37466,9.81701 0,4.89723 -0.87426,8.53005 -2.35936,9.80389 -1.39829,1.19937 -2.00671,3.47589 -1.49363,5.58868 1.0948,4.50822 -4.67639,12.42229 -9.0587,12.42229 -1.87179,0 -2.88924,0.84259 -2.46962,2.04521 0.8826,2.52943 -3.484,11.14728 -7.04501,13.90395 -4.20657,3.25641 -18.63364,18.55052 -24.61345,26.09266 -3.01511,3.80287 -7.02209,7.39853 -8.90442,7.99038 -1.88231,0.59184 -4.66909,2.20752 -6.19283,3.5904 -1.52375,1.38286 -2.77044,1.9037 -2.77044,1.15742 0,-0.74628 -1.6029,0.16214 -3.562,2.01882 -1.9591,1.85662 -6.70094,4.83898 -10.53743,6.62744 -5.63779,2.6282 -8.06646,2.94563 -12.66487,1.65542 -3.12919,-0.87801 -6.75804,-2.5689 -8.0641,-3.75755 -1.97094,-1.79376 -3.2803,-1.76611 -7.70152,0.16264 -6.68712,2.9172 -5.57958,3.21302 -11.20822,-2.99375 -2.65223,-2.92465 -4.82554,-7.02675 -4.82956,-9.1158 -0.005,-2.08902 -1.07593,-4.90267 -2.382,-6.2525 -1.30606,-1.34984 -2.37466,-5.25266 -2.37466,-8.67294 0,-5.98296 0.23845,-6.2581 6.29006,-7.25822 5.54344,-0.91614 8.93098,-3.23916 18.24813,-12.51365 0.87071,-0.86673 3.31205,-3.2358 5.42522,-5.2646 2.11316,-2.0288 7.09996,-7.01067 11.08176,-11.07084 3.9818,-4.06015 11.3514,-10.18438 16.37686,-13.6094 12.25621,-8.353 16.98409,-13.08866 16.98409,-17.01207 0,-1.79782 2.15329,-6.06914 4.7851,-9.49183 2.63179,-3.42271 5.16246,-8.12566 5.62368,-10.45105 0.46122,-2.32537 1.86992,-7.80983 3.13044,-12.18763 1.26053,-4.37783 2.29187,-10.68196 2.29187,-14.00917 0,-3.3272 1.48772,-9.23192 3.30607,-13.12158 2.69627,-5.76769 3.15219,-9.06862 2.47178,-17.89614 -1.36901,-17.76113 -2.97884,-26.97359 -5.38453,-30.81363 -2.9023,-4.63274 -11.76864,-21.71325 -16.94044,-32.63479 -2.20022,-4.64633 -4.60133,-8.69584 -5.33582,-8.99893 -0.73448,-0.30308 -3.9468,-5.40598 -7.13849,-11.33979 -3.19169,-5.9338 -7.22874,-12.12219 -8.97124,-13.75199 -1.7425,-1.62976 -3.16816,-3.95353 -3.16816,-5.16391 0,-1.21035 -1.0686,-2.20065 -2.37467,-2.20065 -1.46135,0 -2.37466,-1.53393 -2.37466,-3.98831 0,-3.09203 -1.74767,-4.97139 -7.77698,-8.36293 -4.27733,-2.40604 -8.12883,-5.76525 -8.55888,-7.46487 -0.43006,-1.69964 -2.13943,-3.09026 -3.79863,-3.09026 -1.65919,0 -4.59199,-2.2021 -6.51736,-4.89356 -3.0355,-4.24334 -4.23201,-4.77344 -9.00481,-3.98951 -4.76959,0.78342 -5.50417,0.45891 -5.50417,-2.43146 0,-3.95432 -6.45404,-8.78108 -10.73844,-8.03092 -1.66272,0.29113 -4.08966,-0.38548 -5.39319,-1.50356 -4.99246,-4.28225 -41.75556,-8.41548 -81.22938,-9.13253 -14.94162,-0.27143 -16.40894,0.009 -26.12129,5.00245 -5.65971,2.90952 -11.11349,5.30241 -12.11951,5.31755 -2.28311,0.0343 -13.09188,9.02604 -23.50063,19.54986 -4.35355,4.40168 -9.4028,8.44801 -11.22054,8.99183 -1.81774,0.54382 -5.68615,3.18593 -8.59646,5.87132 -2.91029,2.68542 -6.23175,4.88256 -7.38099,4.88256 -1.14924,0 -2.08953,1.31616 -2.08953,2.9248 0,1.60864 -3.46704,6.45416 -7.70453,10.76783 -4.28063,4.35758 -8.60106,10.65053 -9.72189,14.16052 -1.10954,3.4746 -3.67902,7.81069 -5.70994,9.63575 -2.03094,1.82505 -4.1659,5.36487 -4.74439,7.86626 -0.57848,2.50139 -1.81441,5.54457 -2.74652,6.76263 -2.49786,3.26419 -5.37142,43.80762 -3.72787,52.59699 0.75723,4.04952 1.60113,18.05292 1.8753,31.11865 0.52862,25.18944 2.03292,42.26578 3.96093,44.96319 0.64321,0.89989 1.59297,3.47686 2.11057,5.72659 0.51761,2.24973 1.95217,5.51912 3.18795,7.2653 2.15599,3.0465 2.35551,2.95776 4.93354,-2.1947 2.42006,-4.83676 5.23037,-25.72908 6.18452,-45.97695 0.42214,-8.95821 2.03761,-11.98569 5.84633,-10.95632 1.58691,0.42891 3.25701,-0.22128 3.71131,-1.44486 1.38305,-3.72498 8.18192,-4.50458 12.68579,-1.45464 3.7179,2.51772 4.10688,3.78079 4.10688,13.33561 0,5.80496 0.73746,11.97863 1.6388,13.71925 1.28946,2.49012 1.12072,3.16478 -0.79155,3.16478 -2.59096,0 -3.19864,1.93296 -1.24303,3.95403 0.65304,0.67488 1.27949,5.76746 1.39211,11.31682 0.11272,5.54938 0.74059,14.13928 1.39548,19.08868 0.65488,4.94942 1.16898,13.41659 1.14243,18.81595 -0.0266,5.39936 0.60749,10.64779 1.40899,11.6632 0.89835,1.1381 0.78261,3.64826 -0.30174,6.54467 -2.26052,6.0381 -2.42678,29.3591 -0.26153,36.68581 4.10497,13.89033 4.04155,14.64347 -1.23326,14.64347 -3.15441,0 -5.18367,0.993 -5.85135,2.8633 -0.56219,1.57482 -1.78653,3.40424 -2.72076,4.06538 -2.38919,1.6908 -10.32465,1.19981 -15.97228,-0.98825 z M 84.223927,900.03433 c -0.978472,-3.03382 -4.386526,-3.53701 -4.386526,-0.64765 0,1.42483 1.127965,2.59059 2.506584,2.59059 1.378634,0 2.2246,-0.87433 1.879942,-1.94294 z M 342.9501,625.13756 c -1.47756,-1.52708 -2.3219,-1.52708 -3.79946,0 -1.47756,1.52709 -1.05541,1.96341 1.89973,1.96341 2.95514,0 3.37729,-0.43632 1.89973,-1.96341 z m -28.51575,-5.69895 c -1.14281,-0.47266 -2.50824,-0.41452 -3.0343,0.12925 -0.52605,0.54369 0.40899,0.93039 2.07784,0.85935 1.84424,-0.0785 2.21936,-0.46622 0.95646,-0.98852 z M 187.48881,923.24747 c 0,-0.89989 1.11064,-1.63617 2.4681,-1.63617 1.35745,0 2.0278,0.73628 1.48967,1.63617 -0.53813,0.89989 -1.64878,1.63617 -2.4681,1.63617 -0.81932,0 -1.48967,-0.73628 -1.48967,-1.63617 z m -11.47754,-32.1708 c 1.08839,-0.45389 2.86938,-0.45389 3.95777,0 1.08839,0.45389 0.19789,0.82526 -1.97888,0.82526 -2.17678,0 -3.06728,-0.37137 -1.97889,-0.82526 z"
       id="path5577"
       inkscape:connector-curvature="0" />
  </g>
</svg>
