<?xml version="1.0" encoding="UTF-8" standalone="no"?>
<!-- Created with Inkscape (http://www.inkscape.org/) -->

<svg
   xmlns:dc="http://purl.org/dc/elements/1.1/"
   xmlns:cc="http://creativecommons.org/ns#"
   xmlns:rdf="http://www.w3.org/1999/02/22-rdf-syntax-ns#"
   xmlns:svg="http://www.w3.org/2000/svg"
   xmlns="http://www.w3.org/2000/svg"
   xmlns:sodipodi="http://sodipodi.sourceforge.net/DTD/sodipodi-0.dtd"
   xmlns:inkscape="http://www.inkscape.org/namespaces/inkscape"
   width="512"
   height="512"
   id="svg3242"
   version="1.1"
   inkscape:version="0.48.4 r9939"
   sodipodi:docname="speaker.svg"
   inkscape:export-filename="/home/nathan/documents/bee_line/svgs/speaker2_mute.png"
   inkscape:export-xdpi="45"
   inkscape:export-ydpi="45">
  <defs
     id="defs3244" />
  <sodipodi:namedview
     id="base"
     pagecolor="#ffffff"
     bordercolor="#666666"
     borderopacity="1.0"
     inkscape:pageopacity="0.0"
     inkscape:pageshadow="2"
     inkscape:zoom="0.38738956"
     inkscape:cx="256"
     inkscape:cy="256"
     inkscape:document-units="px"
     inkscape:current-layer="layer1"
     showgrid="false"
     inkscape:window-width="1276"
     inkscape:window-height="782"
     inkscape:window-x="0"
     inkscape:window-y="14"
     inkscape:window-maximized="0" />
  <metadata
     id="metadata3247">
    <rdf:RDF>
      <cc:Work
         rdf:about="">
        <dc:format>image/svg+xml</dc:format>
        <dc:type
           rdf:resource="http://purl.org/dc/dcmitype/StillImage" />
        <dc:title />
      </cc:Work>
    </rdf:RDF>
  </metadata>
  <g
     inkscape:label="Layer 1"
     inkscape:groupmode="layer"
     id="layer1"
     transform="translate(0,-540.36218)">
    <path
       style="fill:#000000;stroke-width:12;stroke-miterlimit:4;stroke-dasharray:none"
       d="m 837.24772,1015.0312 c -33.34446,-26.86681 -49.23814,-46.63326 -52.36153,-65.12032 -1.13071,-6.69268 -4.74338,-14.43802 -8.26851,-17.72717 -6.44801,-6.01634 -10.12335,-14.5782 -11.47657,-26.73507 -1.7945,-16.12122 -5.11738,-27.06244 -11.1016,-36.55382 -7.74548,-12.28494 -12.04159,-31.41622 -15.05422,-67.0391 -1.25504,-14.84041 -2.99986,-28.14423 -3.87737,-29.56409 -2.12058,-3.43114 5.73502,-49.49958 10.54688,-61.85123 2.08918,-5.36273 7.19015,-19.1526 11.33549,-30.64416 13.32962,-36.95172 22.9715,-58.50247 26.1742,-58.50247 1.39064,0 4.44068,-4.70109 6.77785,-10.44687 2.3372,-5.74578 7.17441,-12.91665 10.74936,-15.93527 39.41389,-33.28035 45.04952,-36.64113 54.34255,-32.40694 3.70878,1.68983 10.75855,3.08595 15.66613,3.10247 6.61081,0.0223 11.99075,2.96393 20.76267,11.3528 6.51188,6.22753 11.83978,12.93601 11.83978,14.90776 0,4.50826 -24.90612,32.19971 -29.00313,32.24662 -5.52391,0.0632 -26.95437,22.14795 -31.08504,32.03403 -2.2334,5.34529 -5.13462,9.71871 -6.44714,9.71871 -1.31251,0 -4.03318,5.95472 -6.04592,13.2327 -2.01274,7.27799 -6.44842,19.59012 -9.85708,27.3603 -12.28781,28.0106 -20.13087,67.06969 -22.05624,109.84193 -2.86838,63.72145 -2.85292,64.07414 2.81168,64.07414 4.89159,0 5.55102,4.39473 1.07455,7.16134 -7.96725,4.92405 8.58624,49.0141 26.4753,70.51671 4.76628,5.72907 12.18239,16.00812 16.48026,22.84235 4.29784,6.8342 12.4464,14.94836 18.1079,18.03144 8.63193,4.70061 10.19403,6.93621 9.67665,13.84841 -0.65824,8.7937 -7.0627,15.2489 -15.12916,15.2489 -2.71192,0 -12.1879,-5.8474 -21.05774,-12.9941 z m -33.2274,-339.41371 c 0.88194,-2.29831 0.38924,-4.17874 -1.09486,-4.17874 -1.48413,0 -2.69841,1.88043 -2.69841,4.17874 0,2.29832 0.4927,4.17875 1.09486,4.17875 0.60218,0 1.81644,-1.88043 2.69841,-4.17875 z m 201.75658,264.06075 c -4.6255,-0.7039 -10.9423,-5.41407 -16.25259,-12.11884 -10.61138,-13.39796 -17.16563,-14.6137 -14.79163,-2.74368 1.41743,7.08724 0.6793,8.46603 -5.34128,9.97709 -8.40212,2.10882 -24.30109,-5.34651 -24.30109,-11.39522 0,-2.30706 -1.88275,-4.91714 -4.18384,-5.80016 -3.62796,-1.39216 -20.88865,-24.1898 -20.88865,-27.58935 0,-0.67762 -2.76635,-4.41365 -6.14746,-8.30228 -6.83488,-7.86075 -15.80264,-28.88696 -17.79562,-41.72421 -0.71362,-4.59663 -3.05751,-19.64012 -5.20867,-33.42999 -7.22759,-46.33245 -5.28319,-60.41372 13.46368,-97.50412 11.63065,-23.011 20.68575,-33.72592 38.6455,-45.72921 14.66975,-9.80446 29.27121,-12.10113 42.78673,-6.72996 5.39716,2.14487 9.61778,2.4483 11.2568,0.80929 3.57912,-3.57907 14.96832,4.66749 14.80102,10.71681 -0.072,2.5945 -6.4451,9.10494 -14.16281,14.46766 -28.67859,19.92745 -36.32519,41.30682 -36.86631,103.07579 -0.31918,36.43322 0.49231,45.7922 5.19337,59.89539 3.06442,9.19325 6.9443,17.96862 8.62199,19.50082 1.67765,1.53221 5.89298,6.93829 9.36736,12.01352 3.95443,5.77647 12.08363,11.77794 21.7355,16.04644 8.4801,3.75032 17.0746,9.00005 19.0988,11.66607 5.4298,7.15134 5.0257,33.05417 -0.549,35.19338 -4.4951,1.72494 -5.29,1.71223 -18.4818,-0.29524 z m 113.2164,-34.57181 c -0.8306,-1.344 -3.1484,-2.44362 -5.1505,-2.44362 -2.0022,0 -10.5991,-6.68622 -19.1042,-14.85827 -11.5547,-11.10226 -16.2378,-17.9685 -18.5256,-27.16186 -1.684,-6.76698 -4.239,-16.69128 -5.6778,-22.05401 -8.4831,-31.61814 -5.2725,-57.79206 10.0451,-81.8912 9.2777,-14.59648 12.6332,-16.54676 21.5104,-12.50207 4.4547,2.02973 9.6816,2.08272 16.6145,0.16855 14.451,-3.99012 19.9555,-1.58592 26.7891,11.7008 7.4705,14.52499 5.8966,18.96304 -8.5583,24.13277 -10.0451,3.59258 -12.1914,6.01932 -18.3809,20.78253 -8.8497,21.10839 -9.604,40.78096 -2.1361,55.71664 4.4292,8.85836 7.3078,11.31335 14.0384,11.9725 9.541,0.93437 17.1991,10.12859 12.8334,15.40766 -1.4846,1.79519 -3.1236,6.98026 -3.6422,11.5224 -0.7767,6.80205 -2.5479,8.58401 -10.044,10.10465 -5.0056,1.01544 -9.7807,0.74661 -10.6113,-0.59736 z"
       id="path3315"
       inkscape:connector-curvature="0" />
    <path
       style="fill:#000000"
       d="M 258.5 83.8125 C 255.61312 83.7366 252.61558 85.57678 250.34375 89.3125 C 247.46138 94.05218 247.00327 97.06202 247.84375 106.0625 C 248.62653 114.44517 248.16058 118.6422 245.78125 123.65625 C 242.96643 129.58804 242.90345 131.62118 245 144.53125 C 246.78843 155.54397 246.78291 159.31093 245.15625 160.9375 C 242.37558 163.71816 242.49352 167.99562 245.65625 182 C 251.31915 207.07485 252.62515 244.45286 248.5 262.8125 C 246.84117 270.19541 250.26518 302.34828 253.9375 314.1875 C 255.00409 317.62609 256.22071 323.24891 256.71875 326.6875 C 257.21678 330.12609 258.79421 336.38399 260.1875 340.59375 C 261.58078 344.80351 262.6875 355.04522 262.6875 363.3125 C 262.6875 377.11691 263.14756 378.98476 268.15625 386.40625 C 271.1559 390.85087 274.33291 394.90934 275.1875 395.4375 C 276.04208 395.96567 277.27322 398.85049 277.9375 401.875 C 278.78829 405.74856 280.81678 408.11886 284.78125 409.84375 C 291.6543 412.83412 292.53533 412.89377 293.9375 410.625 C 294.5447 409.64254 296.95695 408.84375 299.25 408.84375 C 301.54305 408.84375 303.87198 407.62994 304.4375 406.15625 C 305.003 404.68257 306.65505 403.5 308.125 403.5 C 309.59495 403.5 311.76774 401.67928 312.9375 399.46875 C 314.10726 397.25823 317.66223 392.24232 320.8125 388.3125 C 323.96274 384.38269 328.65399 376.80932 331.28125 371.5 C 338.61565 356.67816 357.37427 334.74976 361.5 336.125 C 364.36121 337.07875 371.65625 330.14542 371.65625 326.5 C 371.65625 323.26642 386.76991 316.17618 388.96875 318.375 C 389.59328 318.99954 391.02091 318.78868 392.09375 317.90625 C 395.73442 314.91179 420.2544 314.26965 427.90625 316.96875 C 431.83607 318.35496 439.13568 319.51696 444.0625 319.53125 C 449.34234 319.54735 455.58062 320.91094 459.25 322.875 C 466.73896 326.88352 476.36613 326.01519 479 321.09375 C 481.12612 317.12107 479.39674 306.00978 475.8125 300.5 C 473.33852 296.69694 473.42297 293.53785 476.59375 261.71875 C 477.07054 256.93395 476.65002 251.27988 475.65625 249.1875 C 468.63934 234.41477 467.99613 230.03012 468.5 199.1875 C 468.98317 169.61093 468.84883 168.35129 464.65625 161 C 461.12438 154.80718 459.62366 153.63088 456.625 154.59375 C 454.59959 155.24412 450.39907 156.3209 447.28125 157.03125 C 444.16344 157.74162 439.29615 159.9867 436.46875 162 C 431.86907 165.27525 427.68415 165.74577 396.71875 166.75 L 362.09375 167.9375 L 356.53125 161.625 C 353.44252 158.15317 346.10765 152.74057 340.28125 149.65625 C 326.49485 142.35812 325.53028 141.54754 324.875 136 C 324.44329 132.34511 323.0208 130.93187 318.1875 129.6875 C 314.78479 128.81145 309.96077 126.67989 307.46875 124.9375 C 304.97671 123.19511 300.47862 120.98575 297.53125 120.03125 C 294.58389 119.07673 291.35746 116.75145 290.375 114.84375 C 286.00946 106.36685 279.8167 99.53676 274.34375 97.25 C 271.08411 95.88803 267.30115 92.51119 265.96875 89.71875 C 264.13468 85.87494 261.38688 83.88849 258.5 83.8125 z M 288.6875 156.65625 L 297.53125 161.34375 C 302.36411 163.9134 311.22731 171.23445 317.28125 177.59375 C 323.33518 183.95305 329.55838 189.125 331.0625 189.125 C 332.56663 189.125 334.24698 190.33882 334.8125 191.8125 C 336.12788 195.24037 344.61539 195.27732 348.375 191.875 C 350.92252 189.56954 352.24834 189.72939 359.8125 193.375 C 367.97696 197.3099 368.68567 197.36688 374.125 194.59375 C 378.7128 192.25476 385.03726 191.76727 406.53125 191.9375 C 435.28316 192.16524 440.35827 193.00205 442.15625 197.6875 C 443.35176 200.80292 445.81447 216.43472 448.46875 238.25 C 449.3055 245.12718 450.70837 253.56142 451.59375 257 C 453.53058 264.52208 451.23076 276.73877 447.34375 279.6875 C 445.38522 281.17326 437.75865 281.50875 421.5 280.84375 C 405.37187 280.18409 398.4375 280.47092 398.4375 281.84375 C 398.4375 282.92299 397.6356 283.8125 396.5625 283.8125 C 395.48939 283.8125 392.634 285.34348 390.25 287.21875 C 387.86597 289.09401 381.76819 291.21178 376.71875 291.90625 C 368.41735 293.04798 367.25287 292.77386 364.40625 289 C 361.70531 285.4193 360.55306 285.08043 356.25 286.59375 C 353.49141 287.56388 350.39448 290.0176 349.375 292.0625 C 347.01398 296.79822 340.08506 305.8831 333.59375 312.78125 C 329.77156 316.84303 328.78417 319.24353 329.625 322.59375 C 330.26154 325.12989 329.78237 328.20478 328.5 329.75 C 327.26798 331.23447 325.41013 334.14249 324.375 336.21875 C 322.11426 340.75333 311.13294 348.43866 308.90625 347.0625 C 308.03615 346.52474 306.72925 347.71614 306 349.6875 C 304.74157 353.08936 304.47814 353.1191 300.875 350.25 C 296.8924 347.07873 296.27895 339.70177 293.90625 273.09375 C 293.53878 262.77798 291.92367 245.4945 290.375 234.6875 C 288.82635 223.88051 286.77578 204.5844 285.84375 191.8125 C 284.91171 179.0406 283.79325 167.6488 283.34375 166.46875 C 282.89424 165.28868 283.92469 162.59979 285.625 160.5 L 288.6875 156.65625 z "
       transform="translate(0,540.36218)"
       id="path3000" />
    <path
       style="fill:#000000"
       d="m -522.56173,560.60054 c -2.84251,0.26668 -5.652,1.97694 -9.06953,4.93382 -3.25272,2.8143 -5.24928,2.97495 -9.86764,0.87068 -5.5615,-2.53399 -19.73146,-1.32355 -19.80785,1.66879 -0.11609,4.53865 -21.39709,23.02495 -30.32849,26.3379 -2.04016,0.75677 -6.02421,6.18314 -8.7793,12.04433 -2.75509,5.86119 -6.00951,10.66576 -7.25562,10.66576 -1.24611,0 -2.98063,2.87323 -3.84548,6.38495 -0.86482,3.51172 -2.87947,8.47456 -4.49848,11.02854 -1.61901,2.55398 -3.65934,8.82283 -4.49849,13.93079 -0.83914,5.10796 -2.92934,13.98884 -4.71615,19.73529 -4.62446,14.87246 -9.41018,45.42141 -15.16425,97.15275 -2.15005,19.32974 -2.28597,28.18274 -0.43533,33.08563 1.72876,4.58024 1.78729,7.18392 0.14511,8.19885 -3.04808,1.88382 -0.77469,22.19138 3.99059,35.69765 1.94718,5.51885 4.10041,13.26318 4.78871,17.19582 0.6883,3.93264 2.32173,11.3623 3.62781,16.47026 1.30608,5.10796 3.31128,14.51124 4.42593,20.89619 3.36628,19.28258 8.44756,35.28527 14.80146,46.65364 3.31379,5.92901 6.02217,12.58054 6.02217,14.80146 0,2.22094 2.08962,6.69335 4.64359,9.9402 2.55398,3.24685 4.6436,6.61125 4.6436,7.40073 0,2.47174 17.08839,24.52403 19.00973,24.52403 1.00441,0 1.88646,1.0448 1.88646,2.3218 0,2.3374 8.27881,11.609 10.37554,11.609 0.61929,0 6.10454,3.0101 12.18944,6.7477 8.55808,5.2566 15.57019,7.3099 30.83638,8.997 29.84779,3.2984 32.44108,3.2018 38.81757,-1.8139 3.24685,-2.554 8.97041,-4.6436 12.69734,-4.6436 11.01842,0 36.30015,-21.9795 44.5495,-38.6725 3.69763,-7.48232 8.22265,-16.461 10.01276,-19.95296 1.79011,-3.49196 2.94044,-7.6712 2.61202,-9.28719 -1.40037,-6.89019 4.9788,-12.80609 15.38192,-14.36613 5.75218,-0.86259 11.08303,-2.56972 11.82666,-3.77292 0.74363,-1.2032 9.59755,-2.17669 19.66273,-2.17669 10.06518,0 18.94434,-1.04202 19.73529,-2.3218 0.82721,-1.33844 5.26628,-1.71088 10.52065,-0.87067 5.71148,0.9133 10.39905,0.42076 12.47966,-1.30601 1.83018,-1.5189 10.0037,-2.75714 18.13905,-2.75714 16.94187,0 20.28293,-2.90656 21.40408,-18.64694 0.35649,-5.00499 2.16919,-10.42562 4.06315,-11.97178 6.01434,-4.90995 9.54429,-16.77817 6.60262,-22.27475 -1.42886,-2.66984 -3.81785,-4.89342 -5.36916,-4.93382 -1.55131,-0.0404 -5.70292,-2.64107 -9.21464,-5.73194 -5.42994,-4.77921 -6.39644,-7.4604 -6.4575,-17.92138 -0.0395,-6.76547 -1.17321,-20.09807 -2.46691,-29.67549 -1.29371,-9.57742 -2.32303,-22.11513 -2.3218,-27.86158 0.001,-5.74645 -0.98087,-16.19455 -2.17669,-23.21799 -1.19582,-7.02344 -2.66535,-22.69558 -3.26503,-34.82697 -1.13759,-23.01372 -2.87529,-32.50518 -6.02216,-32.50518 -1.02361,0 -3.44135,-0.59408 -5.29661,-1.30601 -1.85527,-0.71194 -5.06732,0.42372 -7.18306,2.53946 -3.22865,3.22865 -4.43635,3.37878 -7.54584,0.79812 -2.03766,-1.6911 -9.57559,-3.83932 -16.76049,-4.71615 -24.50045,-2.98997 -33.95412,-4.92437 -37.439,-7.69096 -1.91548,-1.52066 -8.10008,-4.18 -13.71312,-5.94961 -8.25053,-2.60115 -11.80871,-5.65827 -18.57439,-15.81725 -4.60287,-6.91141 -9.40521,-14.50534 -10.66576,-16.90559 -1.26055,-2.40028 -3.03747,-4.35338 -3.91803,-4.35338 -0.88057,0 -4.1853,-5.74645 -7.40074,-12.76989 -3.21543,-7.02344 -6.96894,-12.76989 -8.34396,-12.76989 -1.37499,0 -3.75551,-2.65396 -5.22405,-5.87705 -1.46853,-3.22308 -5.34139,-6.50882 -8.63418,-7.32818 -3.2928,-0.81936 -11.16823,-6.59641 -17.48605,-12.76989 -6.31782,-6.17345 -13.11124,-11.17366 -15.16425,-11.17366 -2.053,0 -8.65366,-5.12785 -14.65635,-11.39132 -6.47505,-6.75636 -10.8877,-10.09592 -15.09169,-10.30298 -0.40873,-0.0209 -0.82737,-0.0381 -1.23345,0 z m -14.72891,36.64088 c 1.18623,-0.0276 2.70396,0.17274 4.49848,0.5079 7.96036,1.4865 20.31574,11.27349 20.31574,16.10747 0,1.57095 -4.69161,4.64959 -10.37554,6.82029 -5.68392,2.17071 -12.11765,5.86704 -14.29357,8.2714 -2.17592,2.40436 -5.70452,4.42593 -7.83607,4.42593 -4.67566,0 -29.71918,26.02759 -35.40743,36.786 -2.23473,4.22667 -4.06314,9.58535 -4.06314,11.89921 0,2.31388 -1.56722,4.77922 -3.4827,5.51427 -2.11237,0.81059 -3.54829,4.37597 -3.55526,8.99697 -0.007,4.19029 -0.92279,11.27524 -2.10413,15.7447 -2.35525,8.91097 -5.1927,33.28047 -4.71615,40.63147 0.16555,2.55398 0.14488,6.73322 -0.0727,9.2872 -2.35335,27.6723 -2.93942,77.23495 -0.94323,80.46482 0.85398,1.38178 2.00682,8.93603 2.53947,16.76049 0.53264,7.82448 2.91053,18.00436 5.2966,22.63753 2.38604,4.63315 5.03637,13.35506 5.94961,19.44506 1.17392,7.82816 3.98242,13.62258 9.50486,19.73529 4.29628,4.75546 7.83607,9.53962 7.83607,10.59321 0,3.0954 12.44923,20.54123 16.25259,22.78264 1.91917,1.13102 9.90686,8.65137 17.77627,16.68793 13.01287,13.28926 23.67568,20.98514 29.8206,21.62175 1.27699,0.13234 2.3218,2.11864 2.3218,4.35337 0,3.39758 -2.47214,4.11978 -15.09169,4.57108 -14.83994,0.5307 -30.18338,-3.66822 -30.18338,-8.27145 0,-1.18971 -2.09608,-2.74394 -4.6436,-3.41014 -2.54755,-0.66619 -5.36956,-3.08574 -6.23984,-5.44171 -0.87027,-2.35598 -5.04306,-8.61877 -9.28719,-13.85824 -4.24413,-5.23946 -7.69096,-10.70739 -7.69096,-12.18944 0,-1.48203 -1.02846,-4.53029 -2.24924,-6.74773 -9.23623,-16.77682 -18.60283,-41.44565 -20.89618,-55.07015 -1.50467,-8.93893 -4.1667,-19.90945 -5.94961,-24.37889 -1.78294,-4.46946 -3.76192,-11.26072 -4.35338,-15.09169 -0.59143,-3.83096 -3.21425,-14.83715 -5.80449,-24.45144 -4.04251,-15.00474 -4.53352,-22.07995 -3.4827,-49.84611 0.67334,-17.79124 1.90822,-33.4277 2.75714,-34.75442 0.84891,-1.32672 2.32214,-10.23042 3.26503,-19.80784 0.94285,-9.57742 2.79463,-22.63754 4.06314,-29.02248 1.26852,-6.38495 3.29185,-16.83304 4.49849,-23.21799 3.91801,-20.73245 7.90365,-31.93761 11.68155,-32.94051 3.17645,-0.84323 14.27529,-15.15779 22.34731,-28.73226 7.26808,-12.22248 20.57048,-20.21738 26.04767,-15.67214 2.02182,1.67766 2.90225,1.62997 2.90225,-0.14511 0,-1.00994 1.07033,-1.55031 3.04736,-1.59624 z m 39.54313,38.38223 c 5.33421,-0.35653 10.59611,3.99563 13.13267,11.68155 3.06062,9.27378 2.9791,9.53686 -4.20826,15.7447 -9.02262,7.79297 -32.9671,45.89167 -33.01307,52.53069 -0.0186,2.67838 -1.59357,9.30607 -3.4827,14.72891 -1.88911,5.42286 -4.11279,19.00538 -4.93382,30.18338 -0.82104,11.17802 -2.51446,22.40535 -3.84548,24.95933 -2.91379,5.59096 -2.27643,37.2905 0.87067,43.17094 1.23081,2.29981 2.49255,8.14652 2.8297,12.98756 0.33717,4.84102 2.81209,13.5535 5.51427,19.29995 2.70215,5.74645 5.49672,13.06012 6.23983,16.25259 1.12988,4.854 27.17124,33.61226 35.26232,38.96268 1.3445,0.88909 5.3588,5.43129 8.85185,10.08531 3.49303,4.654 9.50161,9.79711 13.35034,11.39133 4.55084,1.88502 6.4931,4.06721 5.65939,6.23983 -0.70509,1.8374 -1.23346,4.65532 -1.23346,6.31239 0,1.65704 -4.18065,7.36284 -9.28719,12.62478 -11.28935,11.63291 -20.01045,11.98347 -34.60931,1.45112 -6.63486,-4.78673 -39.68824,-38.32699 -39.68824,-40.26869 0,-1.10617 -2.06585,-3.82755 -4.57104,-6.09472 -5.67571,-5.13645 -12.6268,-18.39682 -20.09807,-38.23712 -4.80422,-12.75786 -5.95337,-20.597 -6.89284,-47.74198 -0.61876,-17.87785 -1.00046,-34.5948 -0.87068,-37.14878 0.12979,-2.55397 0.42907,-15.61409 0.72557,-29.02248 0.29647,-13.40838 1.39862,-28.81644 2.39435,-34.17397 0.99573,-5.35752 2.23496,-13.19359 2.75714,-17.41349 2.13354,-17.24241 4.35727,-24.52492 11.53643,-37.80178 4.14302,-7.66193 8.67157,-14.06151 10.08531,-14.22101 1.41375,-0.15974 4.05038,-0.42095 5.87706,-0.58045 1.82667,-0.15974 3.65509,-2.6541 4.06314,-5.51427 0.43072,-3.01904 2.7459,-5.528 5.44172,-6.02217 5.17543,-0.94876 21.20406,-8.36077 26.91835,-12.40711 1.71135,-1.21182 3.44597,-1.84016 5.22405,-1.95902 z m 110.35798,75.16823 c 2.71444,-0.0885 5.17596,0.78871 7.11051,2.53947 2.18514,1.97752 5.52196,3.62781 7.40073,3.62781 5.40654,0 8.95831,4.9445 9.06953,12.62477 0.10378,7.1683 4.59114,26.06424 7.18306,30.3285 0.77618,1.27699 3.78576,9.63546 6.74773,18.57439 4.78151,14.4302 5.48279,21.26043 5.94961,61.01976 l 0.50789,44.76718 -10.30298,4.86126 c -10.96595,5.15461 -17.12326,11.922 -17.12326,18.79206 0,2.30991 -1.30602,4.58699 -2.90225,5.07893 -1.59624,0.49197 -7.31852,1.49694 -12.69734,2.24925 l -9.79509,1.37856 1.08835,-34.24652 c 0.58904,-18.84295 1.10982,-35.55254 1.1609,-37.14878 0.0513,-1.59624 0.091,-9.95471 0.0727,-18.57439 -0.0186,-8.61967 0.19619,-23.50821 0.50789,-33.08562 0.31161,-9.57742 -0.18063,-19.09998 -1.08834,-21.11386 -0.90778,-2.01386 -0.0397,-8.19523 1.88646,-13.78568 4.04214,-11.73237 2.31274,-32.06849 -3.04736,-35.98787 -4.62256,-3.38012 -1.57899,-9.68358 5.51427,-11.46388 0.95918,-0.24075 1.85233,-0.40585 2.75714,-0.43534 z"
       id="path4403"
       inkscape:connector-curvature="0" />
    <path
       style="fill:#000000;stroke:#ffffff;stroke-width:12;stroke-miterlimit:4;stroke-opacity:1;stroke-dasharray:none"
       d="m -229.27722,1012.7209 c -3.08772,-0.5927 -7.42539,-3.842 -9.63915,-7.2206 -3.44628,-5.2596 -5.3008,-5.9282 -12.89719,-4.6494 -6.70533,1.1286 -11.88613,-0.037 -21.21308,-4.77401 -6.78753,-3.447 -14.21908,-6.27196 -16.51459,-6.27769 -2.29551,-0.01 -4.86011,-1.12097 -5.69911,-2.47849 -0.83899,-1.35754 -4.29172,-2.46817 -7.6728,-2.46817 -7.03769,0 -19.1574,-5.76457 -26.49798,-12.60337 -2.75932,-2.57069 -5.83069,-4.67397 -6.82526,-4.67397 -4.51758,0 -81.20077,-79.11385 -107.23855,-110.63775 -10.49653,-12.70809 -20.95047,-22.64438 -23.82416,-22.64438 -4.51485,0 -31.56671,35.27882 -31.56671,41.1667 0,1.14028 -2.22137,3.46053 -4.93637,5.15608 -2.715,1.69553 -4.93638,4.60342 -4.93638,6.46196 0,1.85852 -1.75265,4.83371 -3.89482,6.61156 -2.14214,1.77783 -6.48641,8.30026 -9.65387,14.4943 -3.16747,6.19402 -7.94303,13.56862 -10.61234,16.38797 -2.66932,2.81939 -5.61938,7.5398 -6.55569,10.48981 -0.93631,2.95002 -2.7382,5.36369 -4.00423,5.36369 -1.26602,0 -2.30185,1.66603 -2.30185,3.70228 0,2.03626 -0.97595,3.70228 -2.16876,3.70228 -1.1928,0 -3.55727,3.35219 -5.25434,7.44931 -1.69708,4.09709 -7.37371,13.57079 -12.61478,21.05259 -5.24101,7.4819 -11.23522,16.9025 -13.32042,20.93483 -4.97925,9.62887 -14.75026,10.20057 -17.0599,0.99819 -1.15925,-4.61881 0.57338,-10.13147 6.39979,-20.36258 4.39416,-7.71602 9.38462,-15.44961 11.08992,-17.18578 3.303,-3.36286 1.76074,-11.27749 -1.77212,-9.09408 -1.15327,0.7128 -5.10082,6.81517 -8.77228,13.56087 -3.67148,6.74568 -8.02891,12.26491 -9.68319,12.26491 -1.65431,0 -4.27939,1.53214 -5.83356,3.40482 -1.55417,1.87268 -6.22299,4.08424 -10.37518,4.9147 -4.15218,0.83046 -10.35473,3.71649 -13.78347,6.41354 -7.45943,5.86768 -14.67455,3.30577 -17.02114,-6.04369 -1.47824,-5.88983 8.02513,-30.076 15.05207,-38.30763 1.73826,-2.03626 5.77352,-8.38576 8.96723,-14.11003 6.71929,-12.04331 23.57531,-36.30895 29.87161,-43.00269 2.37562,-2.52558 4.31934,-5.54729 4.31934,-6.71492 0,-1.16761 3.88738,-6.24477 8.63865,-11.28257 4.75125,-5.03781 8.63865,-9.94374 8.63865,-10.90203 0,-0.95832 3.35806,-5.59964 7.46237,-10.31405 4.10427,-4.71442 8.27034,-9.68237 9.25791,-11.03986 0.98756,-1.35751 4.57129,-5.92341 7.9638,-10.14646 3.39256,-4.22304 7.8343,-10.18835 9.87054,-13.25626 2.03627,-3.06791 8.42269,-11.3873 14.19208,-18.48756 5.76939,-7.10024 10.4898,-13.96358 10.4898,-15.25182 0,-1.28824 -7.21944,-9.96323 -16.04323,-19.27775 -8.82376,-9.31454 -16.04321,-17.79174 -16.04321,-18.83823 0,-1.04649 -2.16865,-2.59097 -4.8192,-3.43223 -2.65057,-0.84125 -11.25837,-8.27074 -19.12846,-16.50998 -45.07303,-47.18714 -71.29451,-71.50349 -84.65259,-78.50206 -11.78207,-6.17285 -24.68188,-17.76695 -24.68188,-22.1836 0,-2.44599 2.34537,-5.05443 5.22079,-5.80636 5.17524,-1.35335 14.52471,2.71454 14.52471,6.31962 0,1.03097 1.68111,1.87448 3.73578,1.87448 2.05466,0 5.97594,1.38835 8.71396,3.08522 3.56618,2.21014 5.48189,2.31494 6.75402,0.3695 2.10793,-3.22359 11.46156,-8.3911 15.18862,-8.3911 1.44675,0 2.63044,1.66602 2.63044,3.70227 0,2.03626 0.97468,3.70228 2.16598,3.70228 2.51257,0 9.1294,-7.4596 8.5465,-9.63507 -0.21696,-0.80946 0.52572,-3.11593 1.65033,-5.12545 1.76027,-3.1455 3.36004,-3.19487 11.5012,-0.35514 12.03282,4.19713 24.69822,12.59226 27.23488,18.05227 1.81457,3.90582 17.47178,21.42278 54.1814,60.61701 7.9454,8.48318 18.32924,20.38519 23.07515,26.44891 4.85276,6.20023 10.07907,10.51724 11.94261,9.86478 1.86029,-0.65133 3.881,1.00938 4.60718,3.78638 2.15061,8.2239 1.81837,8.48791 27.94037,-22.2035 25.57883,-30.0532 58.28841,-70.43754 64.10039,-79.14054 2.03626,-3.04912 6.27309,-7.85555 9.4152,-10.681 3.1421,-2.82543 8.09596,-9.03951 11.00856,-13.80906 2.91261,-4.76955 8.98857,-12.29987 13.50213,-16.73403 6.9025,-6.78107 8.99928,-7.63781 13.19568,-5.39196 6.94215,3.7153 8.3368,8.82797 4.18018,15.32426 -7.42771,11.60865 -6.71115,14.61529 1.37839,5.78358 l 8.39587,-9.16619 1.35857,6.92668 c 0.7472,3.80968 0.3333,7.98182 -0.91976,9.27145 -1.25309,1.28962 -2.27832,4.4606 -2.27832,7.0466 0,2.58601 -3.49618,9.861 -7.76929,16.16663 -4.27312,6.30565 -10.51876,16.46288 -13.87925,22.57164 -3.36049,6.10878 -8.55788,13.88356 -11.54976,17.27732 -2.99189,3.39374 -9.45002,12.27923 -14.35141,19.7455 -4.90137,7.46626 -15.06687,21.34982 -22.58996,30.85234 -7.52311,9.50252 -18.71959,24.84087 -24.8811,34.08523 -11.06112,16.59543 -11.15484,16.9089 -7.41269,24.79491 5.00743,10.55236 13.91251,19.92806 33.15855,34.91098 8.7188,6.78752 20.74067,17.06136 26.71529,22.83073 5.97459,5.76939 11.81643,10.4898 12.98183,10.4898 1.16539,0 7.46417,6.09476 13.99722,13.54389 6.53306,7.44912 12.93492,13.5579 14.22637,13.57502 1.29147,0.0172 7.12255,5.08546 12.95799,11.26293 5.83544,6.1775 10.60989,10.73031 10.60989,10.11733 0,-0.61295 4.9981,3.60667 11.10685,9.37694 8.32528,7.86395 11.10685,12.33092 11.10685,17.8366 0,4.64358 2.26955,9.4773 6.17047,13.14204 3.39374,3.18827 6.17047,7.19443 6.17047,8.90259 0,1.70813 2.25097,3.82013 5.00213,4.69333 2.75116,0.87317 6.85796,4.55775 9.12616,8.1879 4.40311,7.04701 24.98191,27.57989 27.64139,27.57989 0.87645,0 3.59219,3.38363 6.03496,7.51915 3.52482,5.96712 3.82716,8.25952 1.46413,11.10672 -1.63765,1.9733 -3.67464,3.4365 -4.52666,3.2518 -0.85177,-0.1849 -4.07522,-0.8211 -7.16316,-1.4138 z"
       id="path4209"
       inkscape:connector-curvature="0" />
  </g>
</svg>
