<?xml version="1.0" encoding="UTF-8" standalone="no"?>
<!-- Created with Inkscape (http://www.inkscape.org/) -->

<svg
   xmlns:dc="http://purl.org/dc/elements/1.1/"
   xmlns:cc="http://creativecommons.org/ns#"
   xmlns:rdf="http://www.w3.org/1999/02/22-rdf-syntax-ns#"
   xmlns:svg="http://www.w3.org/2000/svg"
   xmlns="http://www.w3.org/2000/svg"
   xmlns:sodipodi="http://sodipodi.sourceforge.net/DTD/sodipodi-0.dtd"
   xmlns:inkscape="http://www.inkscape.org/namespaces/inkscape"
   width="512"
   height="512"
   id="svg2"
   version="1.1"
   inkscape:version="0.48.4 r9939"
   sodipodi:docname="star.svg"
   inkscape:export-filename="/home/nathan/documents/bee_line/svgs/star.png"
   inkscape:export-xdpi="45"
   inkscape:export-ydpi="45">
  <defs
     id="defs4" />
  <sodipodi:namedview
     id="base"
     pagecolor="#ffffff"
     bordercolor="#666666"
     borderopacity="1.0"
     inkscape:pageopacity="0.0"
     inkscape:pageshadow="2"
     inkscape:zoom="1.0957031"
     inkscape:cx="256"
     inkscape:cy="256"
     inkscape:document-units="px"
     inkscape:current-layer="layer1"
     showgrid="false"
     inkscape:window-width="1276"
     inkscape:window-height="782"
     inkscape:window-x="0"
     inkscape:window-y="14"
     inkscape:window-maximized="0" />
  <metadata
     id="metadata7">
    <rdf:RDF>
      <cc:Work
         rdf:about="">
        <dc:format>image/svg+xml</dc:format>
        <dc:type
           rdf:resource="http://purl.org/dc/dcmitype/StillImage" />
        <dc:title></dc:title>
      </cc:Work>
    </rdf:RDF>
  </metadata>
  <g
     inkscape:label="Layer 1"
     inkscape:groupmode="layer"
     id="layer1"
     transform="translate(0,-540.36218)">
    <g
       id="g5480">
      <path
         id="path3082"
         d="m 32.135603,842.57293 c 2.42351,-2.3155 4.258484,-3.03288 8.248521,-3.22479 2.822392,-0.13573 6.522965,-0.90834 8.223493,-1.7169 1.70054,-0.80857 3.782082,-1.2913 4.625661,-1.07275 1.992411,0.51617 9.056978,-0.47057 17.854417,-2.49386 3.860157,-0.88777 8.588786,-1.77001 10.50806,-1.96051 1.919285,-0.19051 5.113493,-0.84137 7.098246,-1.44635 1.984758,-0.605 6.954909,-2.10094 11.044782,-3.32435 6.351407,-1.89987 7.919737,-2.8493 10.751317,-6.50851 4.15141,-5.36482 8.87935,-7.67279 13.45547,-6.56833 3.20496,0.77353 3.43371,1.08267 2.41937,3.26986 -0.61613,1.32857 -0.77217,3.14761 -0.34675,4.04233 0.42542,0.89472 0.0476,2.38968 -0.83967,3.32213 -0.88723,0.93246 -2.12539,3.57154 -2.75147,5.86462 -0.90335,3.30869 -2.19526,4.67179 -6.25917,6.60408 -2.81648,1.33917 -6.6388,2.45973 -8.49405,2.49013 -1.85527,0.0304 -6.3436,0.50694 -9.974091,1.05899 -18.745124,2.85028 -23.35815,3.50182 -33.776703,4.77058 -6.22802,0.75844 -12.188934,1.79039 -13.246477,2.29322 -1.057543,0.50284 -2.902901,0.45972 -4.100813,-0.0958 -1.197906,-0.55554 -5.235914,-0.26451 -8.973345,0.64671 -5.507359,1.34275 -6.964831,1.21806 -7.689517,-0.65787 -0.566847,-1.46726 0.246873,-3.40482 2.222719,-5.2926 z"
         style="fill:#000000;fill-opacity:1;stroke:none;stroke-opacity:1;stroke-width:5;stroke-miterlimit:4;stroke-dasharray:none"
         inkscape:connector-curvature="0" />
      <path
         id="path3080"
         d="m 438.90516,734.42505 c -0.46601,-0.78527 -1.43556,-1.27644 -3.30015,-2.10264 -2.14146,-0.9489 -5.84507,-1.51522 -8.24927,-1.25356 -2.40418,0.26166 -4.71868,-0.24796 -5.14206,-1.13839 -0.42337,-0.89041 -1.71133,-1.17703 -2.82864,-0.64578 -1.1173,0.53126 -3.16472,0.23069 -4.56176,-0.66224 -1.62051,-1.03576 -3.80144,-1.02377 -6.00501,0.024 -1.89971,0.90326 -3.67476,1.11022 -3.9767,0.47519 -0.30194,-0.63502 -1.32834,-0.78403 -2.28089,-0.33112 -0.95254,0.45291 -1.96655,0.32995 -2.24657,-0.25896 -0.472,-0.9927 -14.85262,-1.52018 -16.75042,-0.61782 -0.46561,0.22138 -2.0007,0.092 -3.40771,-0.28197 -2.48693,-0.66097 -8.41989,-0.33562 -26.0666,1.46716 -4.70715,0.48087 -10.73326,0.53493 -13.38765,0.12789 -7.39044,-1.13328 -27.49785,-2.0385 -32.63844,-1.46875 l -4.6037,0.55212 -4.03459,-9.22971 c -2.22959,-5.06536 -3.99378,-10.87988 -3.92596,-12.90891 0.0678,-2.02902 -0.93548,-6.8362 -2.21814,-10.71273 -1.28265,-3.87652 -2.02132,-7.5501 -1.62532,-8.16335 0.39601,-0.61325 -0.0625,-2.82955 -1.04664,-4.89942 -0.98417,-2.06986 -2.25797,-6.67719 -2.83507,-10.24245 -0.57711,-3.56523 -1.706,-7.77107 -2.49549,-9.34218 -2.06806,-4.11544 -5.26709,-16.68128 -5.10699,-20.04483 0.0751,-1.57776 -0.99736,-5.26097 -2.37595,-8.16035 -1.77453,-3.73214 -2.15102,-6.26285 -1.2935,-8.67502 1.26491,-3.55817 -1.64266,-11.95961 -3.78625,-10.94038 -0.63503,0.30194 -1.49626,-0.16957 -1.90945,-1.03859 -0.95936,-2.01768 -12.41274,3.11033 -14.15392,6.33169 -0.66024,1.22154 -0.38573,4.89494 0.60674,8.16104 1.37906,4.53837 1.30276,6.42941 -0.30361,8.10726 -1.15605,1.20749 -2.39687,3.38549 -2.75795,4.80617 -0.36108,1.42069 -1.10912,2.78352 -1.68683,3.0582 -1.99293,0.94759 -10.35981,25.38308 -9.38935,27.42411 0.53506,1.12532 0.50991,2.27914 -0.0324,2.53699 -1.40975,0.6703 -4.48846,8.79594 -3.84664,10.14579 0.29601,0.62256 -0.32605,1.97193 -1.38102,2.95704 -1.05496,0.9851 -3.01314,6.42485 -4.33216,12.10194 -1.31903,5.67708 -3.4332,13.31056 -4.71462,16.97305 -1.2814,3.66249 -2.08835,7.14484 -1.79777,7.75598 0.29059,0.61116 -1.39847,1.07814 -3.75545,1.03357 -2.35696,-0.0445 -4.45078,-0.42884 -4.66469,-0.87873 -0.21391,-0.44988 -3.04551,-0.40231 -6.27474,0.10799 -3.22924,0.5103 -6.82522,0.48782 -7.98717,-0.051 -1.16196,-0.53887 -2.84896,-0.63612 -3.73067,-0.21689 -0.88171,0.41923 -4.58582,0.83085 -8.23851,0.909 -9.53767,0.20406 -16.36437,0.41422 -28.19962,0.88878 -15.21563,0.61009 -19.9901,0.59361 -22.65958,-0.0201 -1.31122,-0.30144 -6.93869,-0.0789 -12.50155,0.50286 -5.56284,0.58176 -11.87974,0.74427 -14.03534,0.34737 -2.15559,-0.3969 -5.86504,-0.15979 -8.24858,0.51565 -2.38353,0.67544 -6.21323,1.69985 -8.479776,2.26239 -3.456173,0.85781 -4.407886,1.83793 -5.94495,6.01184 -1.55482,4.22213 -1.428878,5.39207 0.718518,7.93093 1.433265,1.69452 4.56901,3.25829 7.237918,3.59245 2.59237,0.32458 6.00413,1.74276 7.60403,3.15293 1.59992,1.41018 4.12781,2.61394 5.6118,2.68457 1.484,0.0706 3.05873,0.85057 3.46871,1.71283 0.40999,0.86226 1.69378,1.47032 2.86772,1.37925 1.17392,-0.0911 2.04648,0.51672 1.95738,1.32547 -0.13797,1.25226 4.7917,3.80126 13.63765,7.0968 1.18275,0.44063 2.51545,1.56877 2.95296,2.48892 0.4375,0.92015 1.87886,1.94188 3.20729,2.27951 1.32842,0.33763 3.1276,2.11192 3.99645,3.93924 0.86886,1.82734 2.16955,3.03836 2.91334,2.68471 2.17289,-1.03315 7.31927,0.97236 8.42328,3.29427 1.54581,3.25107 16.91501,15.0143 29.34544,22.45512 3.18203,1.90476 5.58237,4.08685 5.30138,4.82289 -0.281,0.73605 -2.54794,4.10685 -5.00969,7.51364 -3.89832,5.39478 -9.86511,18.18107 -15.69512,33.6075 -0.95646,2.53083 -2.55147,5.36159 -3.51974,6.27434 -0.96828,0.91277 -1.89302,3.6497 -2.06819,6.07078 -0.17517,2.42107 -1.02635,4.73489 -1.88901,5.14506 -0.86266,0.41018 -1.96363,2.84476 -2.4663,5.41955 -0.50268,2.5748 -1.68562,5.04835 -2.61064,5.48818 -0.92501,0.43982 -1.58623,3.04638 -1.4548,5.77913 0.13142,2.73277 -0.65697,5.7419 -1.77654,6.68417 -1.11957,0.94226 -1.84561,2.07297 -1.62297,2.54121 0.7983,1.67896 -6.00514,22.59078 -9.34374,28.72957 -2.49518,4.58798 -2.32113,5.12677 2.6906,7.6126 3.68295,1.82674 4.00974,1.74851 5.77722,-1.15435 1.03055,-1.69255 3.08864,-3.63625 4.57155,-4.34134 1.48291,-0.70509 3.00454,-2.1262 3.36848,-3.14997 0.45356,-1.27592 1.51458,-1.82664 3.37628,-1.73798 1.57342,0.0749 7.6816,-2.51598 14.54373,-6.16314 6.51496,-3.46264 14.40205,-7.46907 17.52893,-8.90967 3.12689,-1.44061 6.11725,-3.54589 6.63295,-4.65791 0.51571,-1.11203 1.93931,-2.07551 3.17038,-2.17102 1.23109,-0.0955 2.66744,-1.08653 3.17038,-2.17101 0.50295,-1.08448 3.79316,-3.52636 7.31019,-5.46654 3.51702,-1.94016 6.47445,-4.17344 6.58502,-4.94479 0.11055,-0.77134 3.03145,-2.85396 6.47147,-4.62536 3.44001,-1.7714 8.72896,-4.7156 11.74586,-6.55812 3.0169,-1.84251 7.22045,-4.38991 9.35089,-5.64055 3.95945,-2.32434 10.96037,-7.24932 13.95498,-9.82041 1.19278,-1.02409 2.30785,-0.58218 3.97207,1.56197 1.28201,1.6517 3.69493,3.58809 5.34808,4.26982 1.65316,0.68172 6.52294,4.01203 10.82563,7.41637 4.30268,3.40435 9.17973,6.65389 10.82917,7.23774 1.64941,0.58385 3.0683,1.97955 3.15528,3.10053 0.087,1.12096 0.74461,1.76939 1.43685,1.44025 0.69227,-0.32916 3.68492,1.27382 6.64877,3.5629 2.96386,2.28909 6.9829,4.6307 8.93919,5.21665 1.95627,0.58593 5.12401,2.35237 7.03504,3.91009 1.91103,1.55773 4.82225,3.40606 6.49559,4.07812 1.67333,0.67206 6.39857,4.25744 10.4749,7.98128 8.4534,7.72246 18.69912,11.47858 20.527,7.53711 0.54207,-1.16897 1.61559,-2.05645 2.38013,-1.97222 0.76453,0.0842 1.66844,-0.93547 2.01101,-2.28334 0.50401,-1.98303 -0.59911,-4.10487 -5.74948,-11.06863 -6.63684,-8.97359 -11.79105,-20.12699 -15.64372,-33.92465 -1.15159,-4.12401 -3.75763,-10.46982 -5.81471,-14.09006 -2.05707,-3.62022 -4.95044,-10.25435 -6.42755,-14.72767 -1.47707,-4.47334 -3.61638,-10.36371 -4.72627,-13.10348 -1.59566,-3.93887 -1.56097,-5.18574 0.11857,-5.98432 1.16825,-0.55547 3.02925,-2.48638 4.14212,-4.3141 1.33609,-2.19437 4.07845,-4.24045 8.08858,-5.96937 3.34012,-1.44004 7.65981,-4.02413 9.56738,-5.74349 1.90756,-1.71937 6.82153,-5.3367 10.936,-8.07529 4.11446,-2.73858 7.56416,-5.53166 7.68162,-6.17401 0.11744,-0.64233 4.47714,-4.3166 9.65123,-8.17223 10.22766,-7.62145 15.86453,-12.78234 15.30577,-13.95751 -0.58147,-1.22293 24.87041,-13.40799 26.91836,-12.88749 2.11839,0.53841 7.76999,-1.44541 15.33344,-5.43266 4.34429,-2.2902 5.12253,-3.31837 5.39242,-6.9878 0.15155,-2.06034 0.18662,-3.15181 -0.2794,-3.93708 z m -92.82722,27.41497 -3.07752,1.99415 c -3.4322,2.24772 -19.80193,3.41914 -24.51743,1.74804 -1.64189,-0.58186 -3.76062,-0.68927 -4.71316,-0.23635 -0.95255,0.45291 -2.1212,0.005 -2.60685,-1.01667 -0.6885,-1.44804 -0.10878,-2.03214 2.66048,-2.59214 5.21069,-1.05375 12.67605,-0.88017 13.23624,0.298 0.26754,0.56267 1.74461,0.40916 3.2947,-0.32787 1.5501,-0.73703 3.39718,-0.9458 4.1021,-0.49058 0.70493,0.45521 3.59482,0.74961 6.43744,0.69941 l 5.184,-0.076 z m -76.00037,-91.27014 c 2.78336,4.7132 8.41239,31.12898 6.75029,32.71195 -1.58675,1.5112 -2.56374,-0.82219 -2.7633,-6.64903 -0.0883,-2.57785 -0.72416,-5.89591 -1.42653,-7.3731 -0.70237,-1.47719 -0.9407,-3.18403 -0.53197,-3.81699 0.43723,-0.67707 -0.43962,-2.26523 -2.10362,-3.86599 -2.12362,-2.04295 -2.87544,-3.80636 -3.04133,-7.04769 -0.21496,-4.19994 0.72858,-5.86909 2.59294,-4.59499 0.15725,0.10743 0.33796,0.32164 0.52352,0.63584 z m 10.77289,38.93915 c 1.51624,3.18889 1.92609,5.45452 1.09934,5.84762 -0.74089,0.35227 -1.18596,0.21551 -0.99434,-0.32351 0.19161,-0.53901 -0.67776,-2.196 -1.96461,-3.66667 -2.58137,-2.95006 -3.32672,-5.76179 -1.69325,-6.53846 0.58212,-0.27678 2.19413,1.82339 3.55286,4.68102 z m -30.24155,0.22285 c 0.1275,0.19698 0.18472,0.48941 0.14379,0.86064 -0.10544,0.95705 1.03322,4.61125 2.50134,8.14496 1.4681,3.53371 2.56134,6.79546 2.41256,7.21393 -0.14875,0.41848 -2.98268,0.65714 -6.2475,0.53743 -3.26482,-0.11972 -6.04165,-0.55922 -6.21742,-0.98098 -0.6298,-1.51126 0.82984,-6.27827 2.1202,-6.89181 0.72378,-0.34414 1.06154,-1.2099 0.7174,-1.93368 -0.76227,-1.60317 1.39315,-6.04186 3.44635,-7.07998 0.53118,-0.26856 0.91075,-0.1988 1.12328,0.12949 z m 24.1962,119.08691 c 0.27768,0.62808 0.24044,0.82352 -0.18749,0.44305 -0.85585,-0.76096 -3.08714,-1.98457 -4.93157,-2.74257 -3.0128,-1.23815 -3.2449,-1.6352 -2.26687,-3.74414 1.41693,-3.05531 1.95331,-2.76472 5.64081,3.02468 0.84929,1.3334 1.46739,2.39091 1.74512,3.01898 z m -24.74692,-20.04083 c 0.3303,0.48506 0.0161,1.00982 -1.04866,1.5161 -0.85413,0.40612 -2.9889,0.14708 -4.74217,-0.57647 -3.76808,-1.55504 -1.69894,-3.14313 2.84919,-2.19525 1.64276,0.34236 2.61131,0.77059 2.94164,1.25562 z m -19.20412,-13.87285 c 2.00997,4.22729 1.48114,4.52394 -3.95709,2.19117 -4.93355,-2.11626 -5.56676,-2.88157 -3.89475,-4.5627 2.29334,-2.30586 6.18585,-1.13229 7.85184,2.37153 z m -26.0449,-23.98021 c 1.14549,2.27726 -0.2859,5.44901 -3.72438,6.68131 -2.05073,0.73495 -4.53464,0.75817 -5.50519,0.0517 -3.31224,-2.41079 -10.90696,-8.97028 -10.57729,-9.12703 1.56361,-0.74345 15.96083,-0.30856 17.77078,0.53082 0.97504,0.45219 1.65424,1.10406 2.03608,1.86315 z m 23.69673,59.51414 c 0.74328,1.28665 -1.41032,3.95927 -7.18396,9.91884 -4.71213,4.86387 -8.91109,8.73517 -9.31997,8.58982 -0.40889,-0.14536 0.4513,-1.61594 1.88793,-3.28653 1.43662,-1.67059 4.18077,-6.08078 6.09144,-9.79752 2.60948,-5.07607 4.01312,-6.70652 5.758,-6.49805 1.4602,0.17446 2.4287,0.48861 2.76656,1.07344 z m -53.60405,-69.84623 c 0.59423,1.24976 -2.27238,4.09059 -3.93748,3.90714 -0.7475,-0.0824 -1.56922,-0.60215 -1.83552,-1.16222 -0.2663,-0.56007 -0.15076,-1.5255 0.25719,-2.15725 0.90876,-1.40726 4.92158,-1.83743 5.51581,-0.58767 z"
         style="fill:#000000;fill-opacity:1;stroke:none;stroke-opacity:1;stroke-width:5;stroke-miterlimit:4;stroke-dasharray:none"
         inkscape:connector-curvature="0" />
      <path
         id="path3058"
         d="m 244.72772,998.29014 c 0.77875,-0.81845 1.1476,-2.08863 0.81965,-2.82265 -0.32791,-0.73402 0.48775,-5.03515 1.81263,-9.55807 1.32489,-4.52293 2.24736,-8.57559 2.04993,-9.00593 -0.19752,-0.43031 0.19844,-2.91489 0.87971,-5.52124 0.68128,-2.60634 1.33137,-9.49391 1.44468,-15.3057 0.11329,-5.81179 0.46263,-11.64446 0.77631,-12.96151 0.31367,-1.31703 -0.21475,-4.77828 -1.17427,-7.69166 -1.95967,-5.95005 -0.66243,-9.72513 4.1518,-12.08221 2.38126,-1.16593 3.82651,-0.94704 5.72048,0.86625 4.01668,3.84557 5.6966,8.57879 4.27092,12.0334 -0.72355,1.75327 -1.04173,3.76364 -0.70707,4.46748 0.97713,2.05506 -2.68889,23.90408 -6.35366,37.86711 -0.3581,1.36435 -1.08936,5.21572 -1.62504,8.55861 -1.47893,9.22918 -5.6526,19.37018 -8.04857,19.55608 -2.73366,0.2121 -5.90421,-6.4171 -4.01748,-8.39997 z"
         style="fill:#000000;fill-opacity:1;stroke:none;stroke-opacity:1;stroke-width:5;stroke-miterlimit:4;stroke-dasharray:none"
         inkscape:connector-curvature="0" />
      <path
         inkscape:connector-curvature="0"
         id="path3056"
         d="m 148.96865,624.64867 c 0.0919,-0.34845 -1.61572,-4.1923 -3.79477,-8.54189 -8.81208,-17.58978 -10.32823,-21.85497 -8.97599,-25.25169 0.86399,-2.17037 1.88636,-3.11367 3.04583,-2.81029 0.98621,0.25806 6.07055,7.71854 11.69004,17.15334 5.46959,9.18318 13.29961,21.06753 17.39996,26.40971 4.10037,5.34218 8.00106,10.43467 8.66824,11.31666 0.66716,0.88199 2.70185,2.73688 4.52151,4.12199 5.12431,3.9006 5.35808,8.61688 0.62143,12.5379 -2.87707,2.38167 -4.79977,3.05734 -7.77349,2.7317 -3.92641,-0.42996 -4.01806,-0.54628 -14.76042,-18.73326 -5.94517,-10.06536 -10.73422,-18.58574 -10.64234,-18.93417 z"
         style="fill:#000000;fill-opacity:1;stroke:none;stroke-opacity:1;stroke-width:5;stroke-miterlimit:4;stroke-dasharray:none" />
      <path
         id="path3054"
         d="m 397.38421,838.84053 c -0.73076,-4.16779 2.61074,-8.15763 8.41543,-10.04821 3.96527,-1.29149 5.19443,-0.96453 9.56961,2.54551 2.76096,2.21504 9.37761,5.85024 14.70365,8.07824 5.32603,2.228 13.05124,5.79415 17.16713,7.92476 4.1159,2.13062 7.90559,3.67313 8.42153,3.42782 0.51593,-0.24532 1.66395,0.32364 2.55112,1.26435 0.88718,0.94071 4.37296,2.82243 7.74617,4.18161 3.37321,1.35919 6.32185,2.86821 6.55254,3.35338 0.23068,0.48516 2.25535,1.39391 4.49926,2.01944 4.26467,1.18885 5.58661,2.72423 5.18447,6.02152 -0.26215,2.1495 -6.73255,4.12041 -7.59213,2.31259 -0.26921,-0.56618 -1.52861,-0.53535 -2.79867,0.0685 -1.53946,0.73198 -2.67519,0.32823 -3.40716,-1.21123 -0.60388,-1.27006 -1.61754,-2.06215 -2.25257,-1.76021 -0.63503,0.30194 -1.50723,-0.19266 -1.93823,-1.09912 -0.43099,-0.90645 -2.56836,-2.05222 -4.7497,-2.54615 -2.18134,-0.49394 -4.10496,-1.19017 -4.27471,-1.54717 -0.16974,-0.357 -4.4371,-2.0585 -9.48301,-3.78108 -28.76676,-9.82052 -34.52295,-11.60596 -35.66561,-11.06265 -0.69385,0.32991 -1.61548,-0.14451 -2.04804,-1.05425 -0.43256,-0.90976 -2.12898,-1.46307 -3.7698,-1.2296 -2.78733,0.3966 -5.67541,-0.53788 -6.08143,-1.96773 -0.0974,-0.34299 -0.43483,-2.09364 -0.74985,-3.89035 z"
         style="fill:#000000;fill-opacity:1;stroke:none;stroke-opacity:1;stroke-width:5;stroke-miterlimit:4;stroke-dasharray:none"
         inkscape:connector-curvature="0" />
      <path
         inkscape:connector-curvature="0"
         id="path3050"
         d="m 339.84911,658.9511 c 0.67777,-1.38829 2.37087,-2.74921 3.76244,-3.02424 1.39157,-0.27504 3.0654,-1.48555 3.71964,-2.68999 0.65423,-1.20444 1.82356,-2.32748 2.5985,-2.49564 0.77497,-0.16814 3.37959,-3.68754 5.78806,-7.82086 2.40847,-4.13332 6.27703,-10.52243 8.59679,-14.198 2.31976,-3.67559 4.09318,-7.31305 3.94097,-8.08324 -0.15223,-0.77019 4.76053,-8.7129 10.91724,-17.65048 8.05008,-11.68613 12.05557,-16.42044 14.26155,-16.85645 3.71104,-0.73348 4.79702,2.54799 2.25132,6.8027 -0.94286,1.57585 -2.23147,4.65112 -2.86356,6.83394 -0.63208,2.18282 -1.94255,4.45379 -2.91215,5.04661 -1.95034,1.19246 -6.23596,8.09654 -5.9456,9.57831 0.10137,0.51754 -0.6622,1.10827 -1.69692,1.31279 -1.03472,0.20452 -1.75551,1.0083 -1.60175,1.78619 0.15374,0.77789 -1.6788,5.68499 -4.07232,10.9047 -2.39353,5.21969 -5.72117,12.69318 -7.39474,16.60777 -3.00752,7.03466 -7.13334,13.7903 -8.599,14.07998 -0.41567,0.0821 -2.1936,2.70308 -3.95102,5.82429 -3.16909,5.62838 -3.24153,5.67225 -8.84085,5.35374 -3.10507,-0.17665 -6.17371,-0.81338 -6.81921,-1.41497 -1.86277,-1.73604 -2.48501,-7.14094 -1.13939,-9.89715 z"
         style="fill:#000000;fill-opacity:1;stroke:none;stroke-opacity:1;stroke-width:5;stroke-miterlimit:4;stroke-dasharray:none" />
    </g>
  </g>
</svg>
