<?xml version="1.0" encoding="UTF-8" standalone="no"?>
<!-- Created with Inkscape (http://www.inkscape.org/) -->

<svg
   xmlns:dc="http://purl.org/dc/elements/1.1/"
   xmlns:cc="http://creativecommons.org/ns#"
   xmlns:rdf="http://www.w3.org/1999/02/22-rdf-syntax-ns#"
   xmlns:svg="http://www.w3.org/2000/svg"
   xmlns="http://www.w3.org/2000/svg"
   xmlns:sodipodi="http://sodipodi.sourceforge.net/DTD/sodipodi-0.dtd"
   xmlns:inkscape="http://www.inkscape.org/namespaces/inkscape"
   width="256"
   height="256"
   id="svg10562"
   version="1.1"
   inkscape:version="0.48.4 r9939"
   sodipodi:docname="temp.svg">
  <defs
     id="defs10564" />
  <sodipodi:namedview
     id="base"
     pagecolor="#ffffff"
     bordercolor="#666666"
     borderopacity="1.0"
     inkscape:pageopacity="0.0"
     inkscape:pageshadow="2"
     inkscape:zoom="1.566131"
     inkscape:cx="128"
     inkscape:cy="128"
     inkscape:document-units="px"
     inkscape:current-layer="layer1"
     showgrid="false"
     inkscape:window-width="1276"
     inkscape:window-height="782"
     inkscape:window-x="0"
     inkscape:window-y="14"
     inkscape:window-maximized="0" />
  <metadata
     id="metadata10567">
    <rdf:RDF>
      <cc:Work
         rdf:about="">
        <dc:format>image/svg+xml</dc:format>
        <dc:type
           rdf:resource="http://purl.org/dc/dcmitype/StillImage" />
        <dc:title />
      </cc:Work>
    </rdf:RDF>
  </metadata>
  <g
     inkscape:label="Layer 1"
     inkscape:groupmode="layer"
     id="layer1"
     transform="translate(0,-796.36218)">
    <path
       style="fill:#000000"
       d="m 108.46893,832.92363 c -29.966572,-8.72 -76.043884,6.50227 -81.87798,27.7484 -4.420279,16.09744 8.03011,28.79614 38.44349,39.19618 16.652037,5.69428 21.722522,6.48739 45.80358,7.25956 7.44503,0.2387 7.77259,0.52152 8.65258,6.98908 1.26488,16.08639 0.63344,5.70222 1.34199,21.84516 0.36206,7.99298 0.42398,20.46542 0.14156,27.71756 -0.28251,7.25216 -0.27852,15.78753 0.0429,18.97683 0.68249,6.7715 0.89789,6.8435 13.31971,6.0922 6.26908,-0.3791 12.26115,-2.5777 17.67125,-6.4881 14.37019,-7.41484 3.37928,-2.70401 17.64322,-6.42209 15.08235,-3.86066 18.45378,-5.83803 20.11912,-11.90272 1.23011,-4.47969 0.68516,-5.64231 -3.15838,-6.69774 -2.5595,-0.70282 -5.39397,-0.61446 -6.26992,0.20043 -0.87615,0.81486 -6.68953,2.44189 -12.91396,3.62986 -11.85139,0.52347 -16.8039,5.78228 -25.62676,4.22984 -3.81197,-1.03076 -6.11591,-12.72693 -4.0288,-20.32761 1.71805,-26.45289 -3.45565,-28.23144 1.69205,-52.72724 4.11354,-19.06979 3.30967,-29.28677 -2.59445,-31.85096 -2.29544,-0.99695 -4.56839,-4.40168 -5.17233,-7.76334 -1.58861,-8.84388 -7.30671,-14.07684 -20.35851,-18.72492 -0.93117,-0.33164 -1.90362,-0.6991 -2.87026,-0.98038 z m -7.59833,16.23786 c 0.90161,0.2487 1.81847,0.50093 2.78384,0.8285 9.05745,3.07336 9.56052,3.61908 9.86022,10.52425 0.26432,6.08581 1.29035,7.63261 6.3451,9.55899 3.31767,1.26439 5.7873,3.19047 5.49269,4.26334 -0.85171,3.1017 -16.65544,15.19753 -20.44535,15.65738 -4.47708,0.54315 -44.700695,-9.13682 -49.279892,-11.86617 -5.382095,-3.20793 -8.711692,-9.40568 -7.416006,-13.8255 2.018668,-6.88626 11.849689,-11.85956 29.162653,-14.73729 11.877997,-1.97428 17.185417,-2.14451 23.496745,-0.4035 z"
       id="path3263"
       inkscape:connector-curvature="0"
       sodipodi:nodetypes="cssscccscccsscccccscccccscsscsssc" />
  </g>
</svg>
