<?xml version="1.0" encoding="UTF-8" standalone="no"?>
<!-- Created with Inkscape (http://www.inkscape.org/) -->

<svg
   xmlns:dc="http://purl.org/dc/elements/1.1/"
   xmlns:cc="http://creativecommons.org/ns#"
   xmlns:rdf="http://www.w3.org/1999/02/22-rdf-syntax-ns#"
   xmlns:svg="http://www.w3.org/2000/svg"
   xmlns="http://www.w3.org/2000/svg"
   xmlns:xlink="http://www.w3.org/1999/xlink"
   xmlns:sodipodi="http://sodipodi.sourceforge.net/DTD/sodipodi-0.dtd"
   xmlns:inkscape="http://www.inkscape.org/namespaces/inkscape"
   width="2048"
   height="2048"
   id="svg2"
   version="1.1"
   inkscape:version="0.48.4 r9939"
   sodipodi:docname="title_no_alpha.svg"
   inkscape:export-filename="/home/nathan/documents/bee_puzzled/svgs/title_no_alpha.png"
   inkscape:export-xdpi="45"
   inkscape:export-ydpi="45">
  <defs
     id="defs4">
    <linearGradient
       id="linearGradient4060">
      <stop
         id="stop4070"
         offset="0"
         style="stop-color:#ffffff;stop-opacity:0.52631581;" />
      <stop
         style="stop-color:#ffffff;stop-opacity:0.49803922;"
         offset="0.75555557"
         id="stop4423" />
      <stop
         style="stop-color:#ffffff;stop-opacity:0;"
         offset="1"
         id="stop4072" />
    </linearGradient>
    <radialGradient
       inkscape:collect="always"
       xlink:href="#linearGradient4060"
       id="radialGradient4074"
       cx="1024"
       cy="28.3622"
       fx="1024"
       fy="28.3622"
       r="1024"
       gradientUnits="userSpaceOnUse"
       gradientTransform="matrix(0.44227037,0,0,0.30027746,90.720093,301.16506)" />
    <radialGradient
       inkscape:collect="always"
       xlink:href="#linearGradient4060-2"
       id="radialGradient4074-0"
       cx="1024"
       cy="28.3622"
       fx="1024"
       fy="28.3622"
       r="1024"
       gradientUnits="userSpaceOnUse"
       gradientTransform="matrix(1,0,0,0.68253968,0,334.08324)" />
    <linearGradient
       id="linearGradient4060-2">
      <stop
         id="stop4070-9"
         offset="0"
         style="stop-color:#ffffff;stop-opacity:1;" />
      <stop
         style="stop-color:#ffffff;stop-opacity:0.49803922;"
         offset="0.75555557"
         id="stop4423-2" />
      <stop
         style="stop-color:#ffffff;stop-opacity:0;"
         offset="1"
         id="stop4072-5" />
    </linearGradient>
    <radialGradient
       r="1024"
       fy="28.3622"
       fx="1024"
       cy="28.3622"
       cx="1024"
       gradientTransform="matrix(0.452615,0,0,0.25442208,1046.4613,313.25293)"
       gradientUnits="userSpaceOnUse"
       id="radialGradient4441"
       xlink:href="#linearGradient4060"
       inkscape:collect="always" />
    <filter
       inkscape:collect="always"
       id="filter5018">
      <feGaussianBlur
         inkscape:collect="always"
         stdDeviation="3.8015157"
         id="feGaussianBlur5020" />
    </filter>
  </defs>
  <sodipodi:namedview
     id="base"
     pagecolor="#ffffff"
     bordercolor="#666666"
     borderopacity="1.0"
     inkscape:pageopacity="0"
     inkscape:pageshadow="2"
     inkscape:zoom="0.27685547"
     inkscape:cx="1024"
     inkscape:cy="1024"
     inkscape:document-units="px"
     inkscape:current-layer="layer1"
     showgrid="false"
     inkscape:window-width="1276"
     inkscape:window-height="782"
     inkscape:window-x="0"
     inkscape:window-y="14"
     inkscape:window-maximized="0" />
  <metadata
     id="metadata7">
    <rdf:RDF>
      <cc:Work
         rdf:about="">
        <dc:format>image/svg+xml</dc:format>
        <dc:type
           rdf:resource="http://purl.org/dc/dcmitype/StillImage" />
        <dc:title></dc:title>
      </cc:Work>
    </rdf:RDF>
  </metadata>
  <g
     inkscape:label="Layer 1"
     inkscape:groupmode="layer"
     id="layer1"
     transform="translate(0,995.63782)">
    <g
       id="g5053">
      <path
         inkscape:connector-curvature="0"
         id="rect5032-4"
         d="m 33.671986,-240.65412 2004.656014,0 0,1082.1595 -2004.656014,0 z"
         style="color:#000000;fill:#999999;fill-opacity:1;fill-rule:nonzero;stroke:none;stroke-width:1;marker:none;visibility:visible;display:inline;overflow:visible;enable-background:accumulate" />
      <path
         inkscape:connector-curvature="0"
         id="rect5032"
         d="m 21.671986,-252.65408 2004.656014,0 0,1082.15948 -2004.656014,0 z"
         style="color:#000000;fill:#f2f2f2;fill-opacity:1;fill-rule:nonzero;stroke:none;stroke-width:1;marker:none;visibility:visible;display:inline;overflow:visible;enable-background:accumulate" />
      <g
         transform="matrix(0.91533365,0,0,0.91533365,94.128623,25.547337)"
         id="g5022">
        <g
           id="g4977"
           style="filter:url(#filter5018)">
          <path
             inkscape:connector-curvature="0"
             id="path3120-4"
             d="m 301.53125,150.21875 c -14.23673,0.30985 -29.20602,-0.62274 -42.4375,5.15625 -18.4436,3.83269 -37.37957,6.15594 -54.66902,13.78699 -6.74469,1.00393 -12.64417,4.57764 -17.29973,9.27551 -13.07471,8.31509 -26.34147,19.91539 -28.9375,35.96875 -1.48797,8.42864 7.03237,16.85759 15.375,13.65625 6.1236,-1.79385 9.18913,-8.07482 9.96875,-13.875 8.43639,-16.49638 28.16138,-21.52233 44.625,-26.46875 3.17522,-0.91902 6.7732,-1.95256 5.0625,2.59375 -0.57134,14.03302 2.20666,27.94451 2.64062,41.95697 2.11626,27.77148 7.27435,55.49322 6.76563,83.35553 -4.24612,28.8032 -2.91238,58.53284 -9.71875,86.875 -1.5397,9.38013 -6.42377,21.2319 0.8125,29.46875 7.26394,8.19993 19.06323,11.41944 29.71875,10.71875 3.32563,-0.34408 5.44672,-3.99972 6.75,-5.875 23.15795,3.09729 46.93327,0.65126 69.78125,-3.6875 18.76608,-4.13091 37.7892,-12.39111 49.6875,-27.90625 8.07355,-6.88801 17.14488,-14.31203 18.75,-25.46875 3.57927,-8.76794 6.26956,-18.73983 2.23909,-27.87161 -3.21548,-15.24692 -7.32984,-31.67614 -20.20784,-41.65964 -11.82306,-9.77061 -20.55262,-24.07524 -35.48558,-29.75962 -2.72076,-1.62037 -7.10714,-1.28438 -9.04567,-3.05288 0.42771,-3.50501 -4.08325,-6.13155 -0.78125,-8.90625 7.92218,-14.89667 8.96813,-32.29325 13.65625,-48.25 4.5748,-22.40752 -4.94499,-48.96092 -26.71875,-58.6875 -7.23235,-3.30638 -13.90637,-8.41266 -21.12233,-11.22923 -3.12694,-0.25558 -6.27556,-0.19472 -9.40892,-0.11452 z M 298.25,177.5625 c 10.73586,0.38908 21.00036,6.70987 28.0625,14.59375 4.92426,6.20455 3.13024,14.58285 3.78125,21.9375 -1.03027,9.83981 -4.22734,19.49096 -7.34375,28.875 -3.26827,9.92627 -13.70526,13.20798 -21.625,18.40625 -6.06872,3.23823 -13.4391,0.23577 -19.53125,3.71875 -3.43287,1.37583 -0.99603,-4.74612 -2.58132,-6.10667 -5.30824,-26.00399 -10.65641,-52.32543 -14.41868,-78.42458 9.73514,-0.67457 19.21943,-3.89345 29.125,-2.9375 1.51128,0.0188 3.02106,-0.006 4.53125,-0.0625 z m 467.71875,109.53125 c -9.17276,1.61983 -19.43202,-1.39221 -27.60153,4.26375 -11.2039,3.33864 -21.62157,8.69198 -30.85207,15.65304 C 696.38413,313.32067 687.45396,323.7395 685,336.5 c -4.61742,17.40055 -2.72763,35.89706 -0.0937,53.4375 4.29032,13.43324 13.85225,24.62101 23.71875,34.28125 16.10218,10.25013 35.65182,12.0403 54.3418,12.32693 19.84207,1.45613 42.43434,1.83947 58.25195,-12.17068 7.25253,-7.17581 11.09784,-17.27806 19.375,-23.5 5.8618,-7.06688 0.29632,-20.64633 -9.59375,-18.75 -14.18478,1.91158 -23.47363,15.0407 -37.40625,17.875 -17.79488,5.90775 -39.07128,9.7322 -56.40625,0.5 -5.61137,-3.3395 -8.09363,-10.14401 -14.67168,-12.17386 -4.68861,-1.99615 -9.81374,-5.62148 -9.01582,-11.41989 -1.68806,-11.37308 9.47262,-20.86708 20.40625,-20.125 17.02773,0.10919 33.80292,-3.31944 50.83433,-3.6806 10.53184,0.66776 19.39712,-6.28293 29.72817,-6.7569 9.1881,-2.21721 14.24601,-13.10869 10.09375,-21.625 -5.1558,-13.32391 -19.7876,-18.75642 -29.34375,-28.28125 -8.55492,-6.02027 -18.96369,-8.55528 -29.25,-9.34375 z M 544.375,295.875 c -13.37771,0.82143 -27.75157,-0.37556 -39.53125,6.90625 -18.16883,5.86734 -32.77712,21.25342 -36.59375,40.09375 -8.28089,32.56923 5.25409,70.3081 33.71875,88.53125 11.76894,7.075 25.96854,7.46995 39.11276,10.46846 9.31524,1.95197 19.03096,1.44711 28.35599,1.84404 5.0899,2.46262 11.11387,2.94382 16.03125,-0.3125 5.61854,-3.57292 12.13457,-5.02869 18,-7.625 8.61736,-5.76079 7.8004,-17.57536 13.75,-25.1875 5.04108,-9.99252 -6.02681,-21.90565 -16.34375,-18.4375 -6.94956,2.1657 -10.39542,9.48365 -16.8125,12.75 -9.01149,6.90349 -20.28399,8.66128 -31.34375,8.09375 -14.4152,-0.35046 -29.73676,-1.91149 -42.09375,-9.75 -10.63146,-8.6472 -16.59927,-24.06089 -12.1875,-37.125 7.57937,-5.59231 17.84734,-2.7968 26.4375,-5.53125 25.91065,-3.72556 52.80037,-1.90714 78.3125,-8.15625 8.51097,-4.65462 8.60011,-16.4016 4.375,-24.0625 -6.44796,-16.20566 -22.85809,-25.62652 -38.75,-30.5625 -7.95292,-1.87512 -16.24068,-2.19492 -24.4375,-1.9375 z m -230.25,5.3125 c 9.04858,2.10023 19.8589,-0.40692 27.26788,6.60129 12.40438,7.19348 27.1652,13.53579 32.88837,27.64871 4.98475,8.75107 13.62747,17.29433 11,28.28125 -1.6719,11.29596 -10.01796,20.0096 -19.5,25.625 -6.99264,6.54903 -15.81292,11.31813 -25.09375,13.1875 -15.23224,-4.25947 -31.72463,0.3985 -47.03125,-3.1875 -4.00387,-0.68958 -8.69579,0.15658 -12.125,-1.96875 -6.65642,-20.58491 0.65855,-42.18763 0.0331,-63.24793 0.59653,-8.74016 0.32185,-17.60629 1.74812,-26.22082 10.56469,-0.77757 20.29976,-6.18127 30.8125,-6.71875 z m 438.5,17.15625 c 11.47995,0.009 23.04935,1.72149 33.40625,6.78125 -20.51781,7.10472 -42.9069,4.7285 -64.09375,8.125 -3.55237,0.93934 -3.75458,-1.10912 -0.625,-2.03125 11.10489,-2.66929 19.58175,-12.27071 31.3125,-12.875 z m -223.5,6.4375 c 12.31695,0.39423 24.79937,0.17141 36.71875,3.59375 -18.55745,2.05355 -37.36601,6.41194 -55.96875,5.40625 -0.19679,-4.40213 5.99526,-4.80648 8.8125,-6.75 3.31996,-1.17166 6.88687,-2.06885 10.4375,-2.25 z"
             style="fill:#999999;stroke:none" />
          <path
             inkscape:connector-curvature="0"
             id="path3096-4"
             d="m 1187.0625,180.53125 c -13.5954,0.33407 -29.2021,9.94021 -28.75,24.9375 -0.199,8.56605 10.0649,15.93342 17.5937,11.40625 10.8495,41.83661 4.227,85.50882 5.4169,128.21853 0.068,27.83056 -1.3179,55.85591 1.0831,83.56272 2.689,9.68279 15.7891,14.88391 23.625,7.875 5.0254,-3.8363 8.844,-11.25663 16.25,-9.9375 14.0625,-0.39962 28.3323,1.46561 42.1563,-1.71875 12.628,-0.58073 25.3452,-1.80045 37.9063,-2.15625 11.7292,2.68937 24.7384,6.47528 36.125,0.5 12.4077,-5.36952 22.162,-20.90982 15.2187,-33.96875 -3.9003,-7.28747 -15.1489,-8.48119 -19.9977,-1.48988 -2.2805,3.40868 -6.246,3.61027 -9.8445,2.87999 -33.9104,1.145 -68.3109,-2.50845 -101.7515,4.32864 -4.4554,2.36758 -2.774,-4.50693 -4,-7 -4.8967,-31.6499 -1.9915,-63.96732 -2.6563,-95.90625 0.5236,-22.2574 -1.8943,-44.43371 -2.066,-66.65606 -0.5506,-8.22884 2.6728,-16.79008 0.4097,-24.75019 -3.4359,-7.89999 -11.4899,-12.32139 -17.7812,-17.75 -2.6779,-1.5856 -5.7875,-2.60207 -8.9375,-2.375 z m 231.0313,66.65625 c -10.9347,1.75108 -14.8093,16.03664 -11.4376,25.1875 1.707,6.28546 8.4456,10.69249 14.8126,8.28125 9.4258,-0.94446 15.2848,-10.55535 14.3437,-19.5 0.1344,-7.80339 -6.6719,-14.29509 -14.4687,-13.875 -1.0804,-0.1253 -2.1643,-0.16857 -3.25,-0.0937 z m 194.7187,38.53125 c -15.3622,3.94369 -31.0121,9.91258 -43.9687,18.53125 -1.1434,-11.64936 -15.8887,-16.08118 -25.6922,-12.73971 -8.949,2.64968 -19.5907,5.76362 -24.6204,14.23971 -4.2734,8.95493 0.3223,22.99002 10.75,24.8125 3.9215,0.54605 7.7827,-2.70261 10.5938,-3.6875 4.5506,17.00104 -2.0931,34.3604 -1.7812,51.625 -0.8073,14.634 -0.8067,32.14924 10.7812,42.78125 4.7099,4.6352 13.7956,4.19192 16.3438,-2.625 5.9289,-7.49284 9.7763,-16.80434 8.5,-26.625 -0.9319,-18.08807 -8.6681,-37.91089 1.4062,-54.75 7.7254,-11.48903 20.7285,-19.09307 33.8125,-23 3.5067,0.29687 4.02,5.98189 5.9063,8.40625 4.5917,9.95583 -0.2978,20.91584 1.0624,31.375 0.2633,14.72054 4.8319,28.75994 6.1876,43.3125 1.8568,11.27069 8.4224,24.85242 21.1874,26.125 10.6248,0.22587 15.9554,-11.48431 16.4376,-20.625 3.6561,-22.24108 6.6158,-45.50221 0.8862,-67.72107 -4.2045,-14.36365 -8.0807,-30.02124 -19.355,-40.56018 -8.3342,-5.07011 -18.2227,-7.62828 -27.7812,-8.90625 l -0.6563,0.0313 z m 188.4687,0.46875 c -8.8343,0.27402 -18.5374,-1.33946 -26.0505,4.41143 -8.2317,5.0006 -17.6608,8.624 -24.1369,16.08857 -15.2136,15.26411 -21.7052,37.35359 -21.125,58.65625 -0.3165,11.18308 -1.1625,23.03451 2.7187,33.5625 8.5399,7.92736 17.201,16.44551 27.375,21.96875 7.7461,2.20157 15.9899,2.90736 23.375,6.0625 28.5357,4.88989 60.1311,-1.10358 82.4687,-19.875 6.7824,-5.89885 8.4367,-17.55225 1.1563,-23.65625 -6.1857,-6.00347 -16.5773,-4.57229 -21.8125,1.9375 -11.2661,9.07535 -25.5877,13.35901 -40.0312,12.9375 -14.0253,0.17799 -29.7847,-1.56628 -40.2813,-11.71875 -3.1173,-5.10029 -3.5997,-11.84601 -4.625,-17.375 10.6806,-2.67486 22.4093,-4.12341 33.2465,-1.04195 12.1,1.19117 24.8549,0.42094 35.3785,-5.9268 9.0677,-2.92427 19.1148,-0.29492 27.9375,-4.5625 6.54,-2.01812 14.4577,-4.54313 16.3125,-12.0625 2.9236,-10.49097 -6.9913,-18.35204 -12.3125,-26.03125 -5.0576,-10.48948 -17.6317,-12.93835 -25.455,-20.71394 -10.0549,-6.88305 -21.5449,-13.14784 -34.1388,-12.66106 z m -362.375,7.75 c -3.3802,-0.008 -4.7347,5.56806 -8.125,3.25 -10.4037,-0.73347 -19.6409,5.2889 -29.8809,5.84838 -7.6937,1.07206 -17.1066,7.35056 -14.9003,16.30787 1.7789,7.67965 11.3487,11.62304 18.1562,7.875 3.7277,-0.91259 7.2599,-2.41796 10.9376,-3.5 1.4163,21.56352 -3.1103,43.01524 -3.1563,64.46875 0.8993,10.58916 2.6134,21.57997 8.5625,30.59375 2.9667,8.19196 12.8446,12.45272 20.6875,8.46875 6.6964,-2.78041 9.1268,-10.30657 8.4063,-17.03125 1.5378,-15.06339 7.0689,-31.05366 1.4374,-45.90625 1.5777,-21.41233 6.8018,-44.07437 -0.5312,-64.875 -2.3592,-4.03126 -7.036,-5.98531 -11.5938,-5.5 z m 356.4376,18.34375 c 13.6777,1.07884 28.9415,7.43638 34.25,20.9375 0.3228,1.51198 -6.125,0.7363 -8.0313,1.46875 -17.7481,1.45696 -35.9385,-0.47266 -53.4375,-0.71875 1.3887,-13.4333 16.6831,-17.84889 27.2188,-21.6875 z"
             style="fill:#999999" />
          <path
             inkscape:connector-curvature="0"
             id="path3050-7"
             d="m 1443.625,-201.03125 c -14.7238,0.30175 -29.7533,2.67403 -43.3125,8.3125 -7.4912,5.945 -1.1453,20.11422 8.3437,17.9375 13.0559,-1.90096 26.2068,-2.13366 39.3371,-2.803 6.7022,-0.19858 14.8693,-5.83063 12.1942,-13.35325 -2.1534,-6.7365 -9.779,-10.58327 -16.5625,-10.09375 z m 59.375,0.375 c -8.3314,-0.62291 -15.9205,10.5849 -9.0312,17 8.4122,8.03293 21.2963,3.96046 31.44,7.42537 7.3601,1.57378 17.7047,6.24204 23.5912,-0.86287 5.9411,-7.90072 -0.3241,-21.38466 -10.4817,-21.00298 -11.6742,-2.29616 -23.6355,-2.74877 -35.5183,-2.55952 z m 90.5625,11.09375 c -9.6348,-1.37401 -16.3296,13.28285 -7.8125,18.78125 10.8679,5.44239 23.5228,6.09533 35.4062,7.625 7.1231,0.43736 16.3421,-4.79461 14.5313,-13.03125 -1.6081,-8.3453 -10.9081,-10.59047 -18.1375,-11.0365 -7.9084,-1.47174 -15.9063,-2.49806 -23.9875,-2.3385 z m -235.5937,0.75 c -14.6128,1.8178 -30.1543,4.99239 -42.125,13.9375 -6.0786,7.55461 2.2192,21.82288 11.9062,17.40625 12.5462,-6.76259 27.847,-4.90084 40.5938,-10.625 8.6627,-7.33102 -0.2706,-21.62608 -10.375,-20.71875 z m 323.9374,6.1875 c -8.882,0.23048 -20.9268,2.87384 -22.9374,13.03125 -0.9849,8.15917 8.6076,13.8469 15.7812,10.90625 11.6478,-1.25174 23.8229,3.1795 35.125,-0.0625 8.5879,-5.93255 2.8187,-20.47539 -6.8125,-21.3125 -6.7508,-2.41274 -14.0131,-3.1656 -21.1563,-2.5625 z m 66.3438,13.875 c -11.0301,0.38598 -13.3495,17.48998 -4.0625,22.21875 8.7671,6.71957 19.5434,13.78921 31.125,12.28125 5.1235,-0.70292 11.8189,-6.42857 7.125,-11.5625 -5.8705,-7.89369 -16.0112,-10.95134 -22.1563,-18.5 -3.3739,-2.73418 -7.5847,-4.81456 -12.0312,-4.4375 z m -475.5,2.0625 c -17.1926,3.19447 -33.7363,12.4201 -44.1562,26.4375 -2.8933,8.27597 8.8746,15.45639 15.5,10.1875 11.8109,-5.27299 23.3422,-11.50867 35.9062,-14.65625 8.1031,-3.99382 8.8245,-18.41281 -0.5625,-21.09375 -2.1357,-0.78583 -4.4196,-1.02341 -6.6875,-0.875 z M 1812.0312,-133 c -9.4026,0.29612 -13.0932,14.43942 -5.1874,19.4375 11.043,12.43492 25.1383,21.907737 38.4062,31.875 6.699,3.626347 18.1643,0.479425 17.9375,-8.34375 -2.5544,-12.48007 -16.9094,-15.4819 -24.5937,-24.0625 -7.0646,-6.20655 -12.3219,-15.91754 -21.7188,-18.6875 -1.593,-0.27691 -3.2256,-0.28762 -4.8438,-0.21875 z m -612.7187,1.65625 c -15.3245,2.69311 -29.3112,12.76312 -36.9687,26.09375 -2.6764,7.344469 5.3836,15.416647 12.7187,12 8.3153,-3.228686 14.5204,-10.26205 23.1875,-12.96875 6.4746,-2.28474 16.1433,-5.89807 14.5625,-14.53125 -0.988,-6.24843 -7.1188,-11.31938 -13.5,-10.59375 z m -62.75,40.65625 c -14.7238,1.891121 -25.1792,14.854235 -31.0313,27.53125 -2.1252,7.239714 4.8614,16.563166 12.6563,13.09375 7.6098,-3.304678 11.3147,-11.581617 18.8534,-15.25671 6.5672,-3.461897 13.4286,-10.582146 10.1466,-18.58704 -1.6128,-4.239981 -6.0438,-7.246606 -10.625,-6.78125 z m 758.2813,23.75 c -9.0718,0.330308 -12.9484,14.164277 -5.25,19.0625 9.1491,9.53796 17.353,20.407925 27.75,28.40625 9.7725,3.379018 18.3173,-11.088174 11.0937,-18.21875 -8.1218,-11.075572 -16.8464,-22.88804 -29.3125,-29.09375 -1.4108,-0.272756 -2.8529,-0.193124 -4.2812,-0.15625 z m -811.9063,19.84375 c -10.4082,1.922413 -12.1746,14.204607 -16.0313,22.15625 -4.9854,9.150917 -15.2202,18.6329633 -11.0937,30 3.3725,8.79464 18.3191,9.150734 21.0625,-0.28125 0.8663,-5.9563611 5.6209,-9.5553634 8.625,-14.375 5.7564,-9.326533 10.7916,-21.272413 6.9688,-32.1875 -2.0021,-3.243918 -5.6207,-5.630637 -9.5313,-5.3125 z m 865.4063,47.0625 c -10.5459,1.0411157 -13.178,15.846789 -6.186,22.58389 7.6651,12.797533 16.0045,25.690068 27.186,35.63486 5.9999,4.003952 16.719,0.659343 15.875,-7.625 -0.9384,-10.359351 -10.3491,-17.063956 -14.5626,-26.09375 -5.5761,-8.424445 -9.5227,-19.5932612 -19.0937,-24.25 -1.0528,-0.27099672 -2.135,-0.34490311 -3.2187,-0.25 z M 1047.4062,29 c -9.9222,2.08437 -12.177,14.061707 -13.7187,22.5 -1.7184,11.589956 -8.4369,24.178636 -3.0625,35.75 6.1254,7.789298 19.5402,2.399111 20.5938,-6.90625 3.9974,-12.105127 6.7784,-24.783075 8.4374,-37.4375 -0.078,-6.743242 -4.592,-14.547072 -12.25,-13.90625 z m 950.125,56.03125 c -8.9361,0.469606 -10.8262,11.975671 -7.3124,18.59375 4.4351,12.49728 3.5754,27.57701 12.3124,38.1875 7.3056,5.69993 19.5819,-2.46683 16.8126,-11.46875 -2.0373,-13.84025 -3.7401,-28.72437 -11.5938,-40.65625 -2.5087,-2.976883 -6.2515,-5.017247 -10.2188,-4.65625 z m -972.25,27.09375 c -10.4293,0.83312 -13.4985,13.03382 -13.0312,21.75 0.013,11.16886 -5.5532,23.55478 0.2812,34.0625 7.6442,9.34823 25.664,1.36625 22.875,-10.75 -0.6858,-12.67676 4.7051,-25.52949 1.1563,-38 -1.9297,-4.29896 -6.5176,-7.38323 -11.2813,-7.0625 z m 992.75,65.3125 c -9.4816,0.5057 -12.1785,12.53149 -8.9374,19.90625 4.575,14.47122 -2.5011,29.24983 -2.1563,43.71875 2.3379,8.64403 16.5625,11.58415 20.4063,2.625 4.7378,-9.81942 4.3264,-21.23646 6.2414,-31.74854 0.5445,-11.89531 -1.1979,-25.91945 -10.9914,-33.75146 -1.4449,-0.55293 -3.0044,-0.87553 -4.5626,-0.75 z M 1011.3438,192.25 c -9.7344,2.10355 -11.89726,13.82055 -11.7188,22.34375 -1.26226,7.83952 -1.35096,19.06729 7.4688,22.4375 8.4569,2.92258 15.2393,-6.25314 15.9062,-13.84375 1.1771,-9.9576 2.7507,-23.41477 -6.875,-29.78125 -1.4165,-0.95552 -3.0851,-1.35483 -4.7812,-1.15625 z m -7.1563,61.53125 c -9.55715,1.47707 -11.5339,13.81892 -8.21875,21.40625 4.50735,7.4786 4.87315,16.65705 1.65625,24.6875 -2.13129,8.15421 2.7603,19.01032 12.2812,18.5625 8.8164,0.54865 15.7097,-8.21788 14.9688,-16.625 3.2005,-15.49438 0.5066,-33.69589 -11.0625,-44.96875 -2.7423,-2.10604 -6.1003,-3.43726 -9.625,-3.0625 z m 994.9063,21.34375 c -10.0297,2.28867 -11.6295,14.29851 -12.6563,22.8125 0.02,6.23927 -4.7118,10.65532 -9.3125,14.0625 -5.0998,7.20188 3.6649,17.9289 11.75,14.34375 14.8736,-3.07603 23.2878,-19.42217 21.4688,-33.78125 0.4562,-7.30895 -1.8686,-18.18474 -11.25,-17.4375 z M 134.8125,313.5625 c -11.46954,-0.16071 -26.05315,4.56681 -28.40625,17.3125 -0.78258,8.14118 8.76662,13.16485 15.8125,10.40625 7.26505,-2.27215 15.08515,-1.69367 22.28125,-3.78125 7.27435,-2.35018 10.98439,-12.19638 5.1875,-18 -3.61255,-4.25173 -9.37216,-6.25035 -14.875,-5.9375 z m 1816.5313,14.15625 c -11.2839,2.28321 -20.0928,11.82065 -32,12.0625 -7.8188,2.44196 -10.5069,14.78838 -2.375,18.65625 11.5329,6.74528 25.3715,0.045 35.4374,-6.1875 6.9388,-4.41896 12.3173,-15.33853 5.75,-22.21875 -1.8317,-1.64512 -4.3479,-2.5324 -6.8124,-2.3125 z m -1876.2188,5.875 c -11.273045,2.75086 -19.646601,11.80218 -29.039019,18.21502 -6.345073,4.80217 -11.403162,15.50967 -4.304731,21.87873 5.201327,4.69014 13.786465,3.23823 17.75,-2.25 10.106348,-7.37774 24.137492,-14.04813 26.375,-27.71875 -0.284895,-5.49774 -5.182653,-10.4877 -10.78125,-10.125 z m 934.0938,4.59375 c -9.62169,0.17296 -14.06053,11.54576 -11.5938,19.71875 0.0589,9.33121 4.048,19.09028 1.15625,28.125 -7.58007,7.69634 0.20393,22.13583 10.74995,20.71875 11.2557,0.12206 19.3271,-12.92869 15.0938,-23.125 -2.1421,-13.43371 -0.7621,-27.83677 -5.3125,-40.78125 -2.227,-3.17041 -6.2254,-5.03972 -10.0937,-4.65625 z M 23.125,408.78125 C 9.488875,413.21876 3.3130696,428.01053 -0.87482107,440.60623 -4.6878885,449.69854 2.4799646,463.69694 13.375,461.125 22.505451,458.23708 21.515815,447.00453 25.53125,440 c 3.564637,-7.63509 12.493855,-15.54137 8.28125,-24.65625 -1.928002,-3.92967 -6.156271,-6.91811 -10.6875,-6.5625 z m 981.75,11.28125 c -9.71529,1.39695 -11.07995,12.9626 -12.5,20.75 -3.90383,10.25832 -9.74577,22.19328 -5.25,33.125 5.17811,8.43633 20.4138,6.02657 21.6875,-4.09375 3.6142,-11.56348 5.8514,-23.66286 9,-35.21875 0.4271,-7.28777 -4.9305,-15.40423 -12.9375,-14.5625 z m -23.71875,66.90625 c -7.83083,0.44832 -11.12684,9.63487 -9.4375,16.3125 -1.649,12.33839 -11.82524,23.74088 -8.09375,36.59375 3.75971,8.33732 18.39791,8.51822 20.84375,-0.84375 6.41645,-14.41018 14.2929,-30.53202 9.75,-46.625 -2.52105,-4.55179 -8.24914,-5.74663 -13.0625,-5.4375 z M 16.625,497.3125 c -9.4315319,0.8394 -11.2842655,12.26301 -10.0625,19.90625 0.8680759,12.21062 -4.8549402,25.84442 1.9375,37.0625 5.370457,6.76487 19.05458,5.00591 20.125,-4.34375 2.217872,-15.40874 3.784119,-31.91275 -0.65625,-47 -2.385007,-3.7244 -6.906197,-6.03749 -11.34375,-5.625 z m 937.6875,58.59375 c -9.08591,0.45938 -10.61786,10.98634 -14.625,17.03125 -8.50671,10.14307 -17.06279,24.07528 -12.125,37.65625 6.3396,9.11248 21.79858,2.88668 22.53125,-7.46875 3.18917,-11.82472 12.27351,-21.01029 16.71875,-32.28125 1.94245,-7.60165 -4.43571,-15.86217 -12.5,-14.9375 z M 45.15625,589.1875 c -10.537518,0.87515 -13.335802,15.00445 -8.21875,22.75 7.064138,11.85377 13.596697,24.43055 22.71875,34.8125 6.164357,4.75363 16.364846,0.22706 16.09375,-7.875 0.360409,-6.64624 -2.489467,-13.14317 -4.766236,-19.10491 -5.28738,-7.24706 -12.117423,-13.8699 -13.921264,-22.83259 -1.797833,-5.08223 -6.41019,-8.48018 -11.90625,-7.75 z m 859.375,35 c -11.71866,1.82764 -13.98648,15.38116 -20.5,23.15625 -5.59793,6.22017 -16.73692,10.25775 -15.5625,20.34375 0.82668,8.5412 11.74784,11.84711 18.40625,7.65625 14.14902,-4.92218 20.78974,-19.75514 25.90625,-32.59375 4.98778,-6.4039 2.0927,-18.54462 -7.125,-18.59375 -0.37499,0.0105 -0.75132,-0.0212 -1.125,0.0313 z M 100.75,666.625 c -11.101598,-0.18285 -14.479147,16.31813 -6.15625,22.34375 8.86871,7.1778 19.06377,12.67857 29.375,17.4375 8.23072,3.92906 17.4331,-5.38157 14.09375,-13.625 -4.42347,-10.80982 -17.04936,-13.43602 -26.125,-19.0625 -2.80244,-3.43851 -6.21574,-7.57045 -11.1875,-7.09375 z m 756.09375,17.3125 c -8.47397,1.89937 -14.26223,9.70043 -23,10.9375 -8.82199,3.6139 -20.25822,9.79788 -19.875,20.84375 2.13809,10.10437 16.37907,12.40439 23.0899,5.35274 11.53089,-6.55916 26.18508,-13.382 29.1601,-27.69649 0.2176,-5.03328 -4.10034,-10.05071 -9.375,-9.4375 z m -675.5625,39.84375 c -10.00369,0.9215 -13.73896,17.43492 -3.75,21.1875 11.63168,3.24589 22.68523,13.78139 35.4375,9.375 7.47936,-2.70425 9.42527,-14.49183 1.90625,-18.40625 -9.43413,-6.46083 -20.83926,-9.53698 -31.8125,-12.15625 -0.59214,-0.0421 -1.18963,-0.0563 -1.78125,0 z m 585.15625,5.65625 c -10.32738,4.18839 -20.35677,9.27522 -31.49986,10.81108 -8.74921,2.17255 -20.65151,5.09383 -22.96889,15.15767 -1.23258,10.07895 12.39383,18.48708 20.375,11.59375 13.47789,-7.95339 32.13751,-7.60596 42.65625,-20.34375 4.11179,-5.78607 2.43196,-16.42124 -5.78125,-17.125 -0.91969,-0.13421 -1.85469,-0.16895 -2.78125,-0.0937 z M 253.875,752.59375 c -10.70175,-0.24112 -13.26349,17.22644 -3.46875,20.59375 12.46581,5.47801 27.14219,13.71916 40.8125,7.125 9.51184,-3.84019 6.09143,-19.66717 -3.78125,-20.46875 -8.93141,-1.72426 -18.52982,-1.06234 -26.46875,-6.125 -2.28921,-0.74693 -4.65851,-1.3322 -7.09375,-1.125 z m 421.78125,11.46875 c -12.02523,0.595 -28.01226,-0.8407 -35.375,10.8125 -4.00383,9.59266 9.09037,18.34506 17.28125,13.1875 9.61134,-1.64575 23.24439,-0.47246 28.4375,-10.78125 2.05385,-6.41808 -3.52128,-13.85843 -10.34375,-13.21875 z m -86.5625,7.125 c -9.51788,-0.0734 -22.15885,5.07476 -22.1875,16.0625 1.39324,10.16046 15.48386,13.69096 22.6875,7.125 7.59082,-2.3864 18.97534,-0.87624 22.59375,-9.75 1.8033,-8.09187 -7.33896,-13.06277 -14.21875,-12.90625 -2.91846,-0.51903 -5.9033,-0.63924 -8.875,-0.53125 z m -228.75,3.0625 c -9.77803,0.92171 -23.09478,-3.19804 -29.75,6.375 -4.534,7.31811 2.77441,16.01502 10.5,16.15625 8.17633,0.15985 16.20407,2.58361 24.375,1.875 8.00003,-0.39956 12.9117,-10.02972 8.46875,-16.78125 -2.66801,-4.74545 -8.11761,-7.92312 -13.59375,-7.625 z m 168.8125,3.9375 c -12.20257,2.43134 -26.8285,-1.79239 -37,7.125 -5.62414,7.56747 2.93372,19.2536 11.8125,16.46875 11.64633,0.0673 26.31273,2.69841 35,-7.03125 4.49992,-6.86136 -1.48687,-17.40359 -9.8125,-16.5625 z m -74.25,1.84375 c -12.35204,3.14427 -25.41664,-0.37098 -37.875,1.5 -8.20789,2.8331 -10.6665,16.78233 -1.6875,20.125 9.67546,2.95925 20.06874,0.68749 29.90625,2.78125 8.43937,0.90178 19.29316,-3.3513 19.75,-13 0.47989,-5.66302 -3.98928,-11.87185 -10.09375,-11.40625 z"
             style="fill:#999999" />
        </g>
        <g
           id="g4015"
           transform="translate(0.08988088,265.32147)"
           style="color:#000000;fill:#000000;fill-opacity:1;fill-rule:nonzero;stroke-width:1;stroke-linecap:butt;stroke-linejoin:miter;stroke-miterlimit:4;stroke-opacity:1;stroke-dasharray:none;stroke-dashoffset:0;marker:none;visibility:visible;display:inline;overflow:visible;enable-background:accumulate">
          <path
             sodipodi:nodetypes="cccccccccccccccccccccccccccccccccccccccccccccccccccccccccccccccccccccccccccccccccccccccccccccccccccccccccccccccccccc"
             inkscape:connector-curvature="0"
             d="m 774.46875,17.75 c -8.04014,2.219344 -17.28749,-1.926181 -24.53125,3.25 -9.54057,3.739931 -20.10999,6.107108 -27.75,13.40625 -9.88823,5.685918 -20.56111,12.546138 -23.5,24.34375 -6.83913,16.236917 -4.14944,34.586944 -3.125,51.6875 1.82618,13.7826 11.85192,24.05763 20.0625,34.4375 4.92307,5.69126 12.61748,6.51847 18.875,10 13.27619,4.39736 27.65212,3.28724 41.40625,4.71875 13.64101,0.62939 27.82482,0.9927 40.375,-5.15625 10.71398,-3.26549 15.84581,-13.65519 21.78125,-22.125 2.36795,-3.78238 7.74365,-5.25449 8.40625,-10.3125 2.11023,-5.39672 -3.50658,-11.32632 -9,-8.875 -11.48146,2.50577 -19.12472,12.95986 -30.46875,15.75 -11.73028,5.01981 -24.75026,7.08128 -37.5,7.9375 -11.15126,-0.1267 -23.51881,-2.41943 -31.8125,-10.21875 -3.6465,-8.57025 -15.94094,-8.31417 -19.35988,-16.76628 -1.61175,-7.68104 -1.80853,-17.29033 5.01613,-22.51497 4.81682,-7.091432 13.4928,-7.631486 21.28125,-7.84375 14.71455,-0.429678 29.26282,-2.896336 43.875,-3.53125 7.77235,0.440932 15.56055,-1.146996 22.25,-4.9375 6.80094,-1.264205 17.11607,-1.421331 18.78125,-10 1.85501,-11.839424 -9.09087,-19.938582 -17.8125,-25.59375 -6.31026,-4.514156 -11.29295,-11.047231 -19.0625,-13.3125 -5.83236,-1.997683 -11.98592,-4.147925 -18.1875,-4.34375 z M 761.375,41.03125 c 14.67081,0.03884 29.8037,3.145305 42,11.6875 -8.43488,2.322437 -16.23491,6.489303 -25.20804,6.989711 -15.66692,1.859898 -31.77778,1.875638 -47.32321,4.322789 -2.57031,-0.819654 -7.97518,1.314148 -8.78125,-1.875 0.1196,-3.977294 2.10703,-7.22475 6.19352,-8.03459 8.93948,-2.893011 16.56441,-8.974154 25.30648,-11.99666 2.52724,-0.792395 5.1612,-1.137948 7.8125,-1.09375 z M 299.46875,-118.875 c -9.46482,0.003 -19.21024,-0.19348 -27.86218,3.88631 -10.37837,3.03043 -21.06936,4.12867 -31.59934,6.20091 -7.9035,2.166 -15.89164,3.89214 -23.28848,7.53778 -5.63184,2.204533 -12.62394,1.905278 -16.28125,7.53125 -9.63881,6.968792 -21.09093,13.251699 -26.15625,24.625 -3.6941,5.358075 -7.19545,14.759989 -0.5,19.28125 5.59408,3.479941 13.13827,-1.51523 12.78125,-7.90625 5.15441,-15.703016 21.6845,-22.845952 35.95009,-28.09322 7.75924,-2.350904 16.33531,-5.408011 24.23741,-5.09428 -3.99448,10.892152 -0.18764,22.698944 -0.24594,33.943177 2.33305,31.777798 6.8387,63.3870466 8.71469,95.181823 -1.82084,12.099282 -3.41204,24.277254 -3.79739,36.618097 -0.55547,20.714816 -3.78127,41.003583 -7.94779,61.204613 -0.74766,6.84069 -4.54427,15.58785 1.93268,20.70854 4.60022,4.473 10.3369,7.66958 16.79308,7.78987 3.93104,1.24314 10.60191,2.72947 11.89442,-2.82112 0.0707,-5.17618 5.92529,-0.89801 8.96875,-1.5 20.29571,1.58423 40.8699,-0.17543 60.875,-3.53125 16.36088,-3.71896 33.24985,-9.51229 45.46875,-21.375 5.46883,-8.76658 15.90915,-12.81986 20.46875,-22.28125 2.50053,-5.85365 3.6709,-12.19774 6.125,-18.125 2.39083,-8.540205 -2.69202,-16.689545 -3.625,-25.125 C 409.72984,57.299479 403.79406,45.034944 392.91729,37.826246 385.51587,30.644448 379.54588,22.047295 370.6875,16.375 c -5.10528,-4.832465 -11.7824,-6.7510162 -18.5,-7.6875 -4.17718,-0.9710872 -0.7824,-6.1150616 -4,-8.25 -3.95291,-2.4541366 1.23385,-5.2471732 1.90625,-8.03125 6.37292,-13.248992 7.77812,-28.144569 11.76415,-42.166957 3.7999,-15.712849 1.88502,-33.46663 -8.38357,-46.266779 -8.34554,-11.393354 -23.02366,-14.623954 -33.94308,-22.878764 -6.47695,-0.67296 -13.4337,0.14374 -20.0625,0.0313 z m 6.59375,19.125 c 7.63118,-0.36608 14.54615,3.334617 20.78125,7.28125 6.39859,2.806077 11.09168,9.021051 14.1875,14.875 0.49582,6.427839 0.42956,13.081116 1.38679,19.3221 -2.76706,11.275194 -5.10045,23.058778 -9.88679,33.64665 -5.38057,8.283414 -15.14227,12.094291 -23.25,16.9375 -5.38339,3.3369447 -11.85663,-0.4433596 -17.28125,3.03125 -3.19937,1.4479886 -8.6022,0.6930426 -8,-3.96875 -6.29317,-28.936343 -11.32723,-58.665789 -16.53125,-87.59375 4.58564,-1.702433 10.1615,0.246351 14.6875,-2.125 7.8012,-1.73061 15.92915,-1.158439 23.90625,-1.40625 z m 15.34375,123.34375 c 8.01763,1.910022 16.66487,1.118123 24.40625,3.5 9.62162,7.965787 22.47567,11.591234 31.21875,20.53125 6.68145,7.194367 10.59578,16.406209 16.0625,24.4375 6.27462,7.452385 5.0416,18.80857 1.59375,27.34375 -3.29265,8.54447 -10.47157,14.41614 -18,19.0625 -4.97025,4.87715 -10.46223,9.25644 -17.35242,11.15364 -4.78419,2.17093 -10.335,5.62024 -15.46008,2.37761 -11.14793,-1.96359 -22.65022,0.78109 -33.90345,-0.98104 -7.78212,-0.74033 -15.79978,-1.46286 -23.28405,-2.86271 -8.24416,-19.22401 -1.40351,-40.48112 -1.62909,-60.583917 0.62182,-12.27885 1.18579,-24.563124 2.12909,-36.822333 11.844,0.03928 22.83683,-5.854082 34.21875,-7.15625 z m 232.53125,2.8125 c -12.36176,1.774814 -25.96056,-1.42732 -37,5.875 -14.2571,4.543094 -27.93313,13.661173 -33.34375,28.1875 -7.25288,16.320086 -7.7894,35.23498 -2.0625,52.15625 3.2019,12.42632 9.87531,23.66837 19.00503,32.72139 6.4134,7.25721 14.90984,12.55462 24.58872,14.30986 13.26563,3.07419 26.82228,5.86218 40.40625,6.75 5.75422,-0.31184 12.06946,-1.53684 17.09375,1.875 8.17461,1.41992 14.20246,-6.42296 22.0625,-7.3125 9.37781,-1.91464 11.22314,-12.6141 13.34375,-20.28125 2.16613,-3.62942 6.08567,-7.5355 3.59375,-12.125 -2.33317,-5.91944 -11.6529,-9.05406 -15.71875,-3.15625 -9.87327,8.73449 -21.10485,17.90075 -34.9375,17.8125 -16.49198,1.69701 -33.28255,-0.77444 -48.71875,-6.25 -16.10069,-7.86087 -24.67284,-28.1806 -20.25,-45.25 4.31318,-6.831882 14.39305,-5.969266 21.5,-7.03125 27.60709,-4.821524 56.16496,-3.707266 83.84375,-8.28125 6.23751,-2.040669 8.56757,-9.578707 5.90625,-15.25 -3.18305,-12.749317 -13.26813,-22.612376 -25.1875,-27.4375 -9.85911,-6.811025 -22.50541,-7.190507 -34.125,-7.3125 z m -17.25,21.0625 c 17.33996,0.482969 36.06404,0.03162 51.25,9.4375 -0.15288,1.65928 -6.13911,1.527748 -8.4375,2 -14.248,-0.231411 -27.73645,4.401069 -41.90337,4.919618 -7.60466,0.378189 -16.23675,1.497339 -23.28413,0.517882 0.002,-3.635768 -1.78617,-7.565383 2.21875,-9.75 5.63939,-4.13354 13.24211,-6.697967 20.15625,-7.125 z"
             style="color:#000000;fill:#000000;fill-opacity:1;fill-rule:nonzero;stroke:none;stroke-width:1;marker:none;visibility:visible;display:inline;overflow:visible;enable-background:accumulate"
             id="path3120" />
          <path
             sodipodi:nodetypes="csscscccccccccccccccccccccccccccccccccccccccccccccccccccccccccccccccccccccccccccccccccccccccccccccc"
             inkscape:connector-curvature="0"
             d="m 1421.1815,2.40571 c -4.6273,-5.29772 -5.1333,-12.92925 -1.292,-19.484 2.9179,-4.97909 4.7786,-5.74708 11.2823,-4.65672 6.1459,1.03035 8.5014,4.10868 8.4021,10.97999 -0.1291,8.92455 -3.7762,13.20688 -12.1524,14.2689 -3.898,0.49425 -5.0135,0.29616 -6.24,-1.10817 z m 375.631,14.56304 c -7.6196,-0.748338 -13.0076,5.985126 -19.9333,8.216641 C 1758.1349,34.418123 1746.192,54.371969 1743,74.625 c -1.0677,15.937155 -2.76,32.31117 0.4062,48.125 7.0241,7.28843 15.4578,13.30182 23.0626,19.875 7.2586,3.75729 16.2539,2.3753 23.3537,6.64271 22.5579,4.66751 46.5512,1.11571 67.1611,-8.75528 6.6724,-4.34677 15.2307,-8.20934 18.2664,-16.10618 3.1124,-8.26745 -6.1267,-17.09665 -14.1562,-13.375 -9.6077,7.15962 -19.7284,14.95806 -32.075,16.44302 -18.1086,3.04121 -38.2414,2.20101 -54.3938,-7.13052 -5.3469,-3.41379 -8.2643,-9.31895 -8.6562,-15.46875 -0.5021,-3.67592 -3.9787,-9.432206 -0.4376,-12.25 8.9176,-3.217197 18.8303,-3.38585 28.1563,-3.71875 9.4195,3.555639 19.703,2.462474 29.5313,1.15625 7.3598,-0.592315 12.459,-7.077845 20.0312,-6.4375 8.4562,-0.354909 17.4193,-0.648754 24.7812,-5.15625 6.3129,-0.439089 11.69,-6.920708 8.9376,-13.1875 -2.6297,-8.161979 -10.4202,-13.223214 -13.9376,-20.9375 -5.334,-5.999856 -13.9119,-7.828625 -19.4304,-13.811431 C 1835.2995,24.946108 1826.377,19.075478 1816.5,17.25 c -6.5642,-0.01447 -13.1226,-0.441681 -19.6875,-0.28125 z m 6.0937,17.90625 c 14.1909,1.463616 30.2571,6.755034 36.7813,20.6875 0.5142,2.577439 6.7384,8.49507 1.2813,8.25 -15.7766,3.003587 -31.9301,2.282184 -47.875,1.21875 -6.9894,-0.106549 -14.0017,0.276276 -20.9688,-0.4375 -0.6774,-7.00909 1.9426,-13.90632 7.3438,-18.40625 5.7077,-5.420671 13.8317,-6.976722 20.5,-10.875 0.9543,-0.271398 1.9476,-0.400011 2.9374,-0.4375 z m -182.1874,-18.5 c -14.4668,4.045103 -28.9092,9.589012 -41.5287,17.601864 -2.6152,2.373185 -5.2095,5.742175 -7.2526,7.960636 -0.3257,-5.802053 3.3911,-13.447421 -2.8125,-17.0625 -6.8493,-5.654277 -16.4417,-4.069963 -23.7664,-0.56859 -7.0815,2.36879 -17.1208,6.649892 -16.5461,15.50609 0.4449,5.758759 3.6491,14.926146 11.0937,13.15625 3.7069,-0.802174 6.1648,-4.88155 9.6876,-5.46875 6.9957,12.797079 2.4386,28.366183 1.7046,42.267645 -1.667,13.665525 -2.561,27.868395 0.077,41.357355 2.0121,6.48994 5.7894,14.60773 13,16.1875 5.8063,-0.54208 6.3283,-7.64997 10.0312,-11 7.005,-12.78201 1.0633,-27.96488 0.2582,-41.493151 -2.2505,-13.993254 -0.071,-29.390659 10.1481,-39.788099 8.4118,-7.34301 18.0006,-14.296753 28.8125,-17.34375 3.4762,-1.07041 7.4098,-1.503545 8.5652,2.814239 4.3857,5.994503 7.3534,12.81159 6.4348,20.373261 -0.8496,12.659945 -1.9113,25.541168 1.4954,37.889097 2.1108,11.544443 2.9744,23.569033 6.4917,34.716103 3.5419,6.32067 10.037,15.17009 18.2629,12.0823 9.8566,-4.7148 7.8131,-17.20561 10.2188,-26 2.1248,-13.63761 3.3682,-27.699982 2.2982,-41.459007 -2.6928,-17.194141 -6.9762,-34.81544 -16.642,-49.353493 -2.954,-4.743484 -7.8229,-7.135092 -13.134,-8.166424 -5.5317,-1.746873 -11.0554,-4.254379 -16.8972,-4.208576 z m -172.4376,8.28125 c -3.0591,-0.307725 -4.5884,3.833038 -6.2187,4.375 -8.1691,-4.150347 -16.7002,2.589991 -25.0313,3.125 -6.5234,1.694185 -16.0347,1.884868 -19.125,8.96875 -1.8906,6.236813 5.1564,12.496068 11.0938,9.375 6.0381,-1.237279 11.6309,-4.017003 17.6875,-5.1875 1.6404,22.069777 -1.2221,44.213501 -3.3437,66.03125 1.3597,8.44419 1.6651,17.49129 4.7812,25.4375 2.938,3.63594 4.331,8.1863 7.0312,11.84375 6.051,5.86557 18.8951,1.55088 18.0626,-7.4375 0.4126,-16.43733 8.0641,-33.65073 1.6562,-49.6875 1.1582,-16.387732 4.5381,-32.834741 2.8215,-49.402648 -1.0162,-5.988892 0.026,-15.734921 -7.6653,-17.378602 -0.5753,-0.130755 -1.165,-0.110446 -1.75,-0.0625 z M 1194.625,-88.75 c -10.5568,0.914286 -23.0604,6.615668 -24.1875,18.4375 -1.2267,5.964043 4.2034,13.594249 10.6875,10.5 1.9715,-0.221155 5.7385,-4.484931 5.6875,-0.1875 11.0023,36.381534 6.1786,74.872215 6.5602,112.343562 -0.1893,32.992556 -0.9173,66.101538 0.1898,99.031438 0.8017,7.10066 8.1437,13.78492 15.3437,10.09375 6.6649,-2.45792 9.1034,-11.56113 17.0313,-11.78125 13.6622,-2.02965 27.6976,1.85975 41.25,-1.625 12.5646,-1.87432 25.5112,-0.61843 38.1298,-2.99042 9.0203,-0.69022 17.46,4.60597 26.6198,4.01898 12.7658,0.13132 26.707,-9.26935 27.9691,-22.59106 0.8502,-6.3471 -4.3648,-15.53259 -11.6874,-12.15625 -4.8492,2.07492 -7.0494,8.93134 -13.343,6.87052 -19.8962,0.80031 -39.8161,0.30019 -59.6883,-0.12052 -14.615,0.79331 -29.4984,1.42197 -43.625,4.65625 -2.351,-0.4689 -6.5878,1.57523 -8.0313,0.40625 0.1591,-8.38558 -3.3386,-16.40475 -3.2812,-24.84375 -2.7114,-36.357031 0.5032,-72.821436 -1.4755,-109.2175502 -0.3544,-19.5969028 -3.2526,-39.4771938 -0.024,-58.8136998 0.2593,-6.597173 -5.1565,-10.958113 -9.9375,-14.28125 -3.7666,-3.884939 -8.2426,-8.377465 -14.1875,-7.75 z"
             style="color:#000000;fill:#000000;fill-opacity:1;fill-rule:nonzero;stroke-width:1;stroke-linecap:butt;stroke-linejoin:miter;stroke-miterlimit:4;stroke-opacity:1;stroke-dasharray:none;stroke-dashoffset:0;marker:none;visibility:visible;display:inline;overflow:visible;enable-background:accumulate"
             id="path3096" />
          <path
             inkscape:connector-curvature="0"
             id="path3050"
             d="m 1451.0312,-470.25 c -12.9769,-0.34187 -25.7409,3.04954 -38.1562,6.15625 -5.9519,1.8903 -4.901,11.01929 1.0625,11.96875 8.1811,0.55656 16.2,-2.63251 24.5,-1.96875 8.0616,-0.59777 17.1857,0.71447 24.4687,-3.28125 4.6635,-4.89766 -1.3018,-11.23847 -6.375,-12.46875 -1.7964,-0.45353 -3.6582,-0.46465 -5.5,-0.40625 z m 61.4063,0.28125 c -4.9041,-0.5131 -11.4421,3.67189 -8.5313,9.15625 3.877,6.12337 12.3736,4.14911 18.4651,5.67985 9.2749,0.21072 17.779,3.86498 26.8162,4.7264 8.6468,-0.80038 7.4454,-14.52181 -0.125,-16.375 -11.9759,-2.70268 -24.3295,-3.37795 -36.625,-3.1875 z m 88.5625,11.0625 c -5.7325,-0.19511 -10.3966,7.76622 -5,11.53125 6.5925,3.96342 14.9595,3.60862 22.2645,5.68209 6.5758,0.87124 15.29,2.85715 20.4543,-2.30709 3.613,-5.61062 -2.6729,-12.15004 -8.5396,-11.49408 -9.6131,-2.12061 -19.3305,-3.5399 -29.1792,-3.41217 z m -237.25,1.0625 c -12.4914,1.35119 -24.8857,5.17242 -35.9062,11.0625 -4.7227,4.46075 -0.6009,15.27364 6.4374,12.25 12.0063,-6.08442 25.9727,-5.94237 38.7188,-9.375 7.0681,-5.19506 -0.8944,-16.06249 -8.4375,-13.96875 l -0.8125,0.0313 z m 325.4375,5.9375 c -6.5236,0.7088 -16.0886,1.53575 -18.25,9 -0.8174,4.96009 4.5813,8.92694 9.1517,7.12394 11.4915,-1.19381 23.2407,1.2057 34.5046,0.93856 6.5515,-3.24734 2.9499,-13.11452 -3.4063,-14.1875 -6.9166,-2.75917 -14.5849,-3.60194 -22,-2.875 z m 67.8437,13.84375 c -7.6251,-0.28995 -9.0104,11.02212 -3.1562,14.4375 5.8018,5.59525 13.5299,8.9177 20.8438,11.8125 4.6109,1.13572 10.3145,0.93101 13.4062,-3.21875 -2.8056,-6.38276 -10.1392,-8.44182 -15,-12.84375 -4.8771,-3.61956 -9.2663,-10.34594 -16.0938,-10.1875 z M 1280.8438,-436 c -15.4147,2.73022 -29.4932,11.49172 -40.125,22.71875 -2.8438,5.50453 5.0149,9.78493 9.2812,6.40625 11.4214,-4.58635 21.9543,-11.64979 34.1875,-13.84375 5.7505,-1.88654 9.1504,-11.14022 2.5937,-14.28125 -1.8206,-0.93758 -3.909,-1.16661 -5.9374,-1 z m 540.9687,33.71875 c -6.1767,-1.02444 -10.3476,7.42148 -5.1875,11.40625 9.8924,12.3695 24.0401,20.51486 35.8125,30.875 4.3504,3.20806 13.5524,3.92453 14.7187,-2.65625 -0.7788,-7.01961 -8.5908,-9.96622 -13.4062,-14.09375 -9.9172,-6.10373 -16.8385,-15.52337 -25.25,-23.40625 -1.9181,-1.42819 -4.2554,-2.34981 -6.6875,-2.125 z m -614.3125,1.625 c -12.6032,1.92961 -23.3642,10.42346 -31.4375,19.84375 -3.1822,3.31462 -3.2273,10.00669 2.2187,10.75 6.8467,0.82206 10.8954,-6.18519 16.8126,-8.28125 6.377,-4.09914 14.0497,-6.25061 20.375,-9.9375 4.0722,-5.52747 -1.602,-13.17147 -7.9688,-12.375 z m -64,40.8125 c -11.0786,1.84065 -18.6341,11.76728 -24.4375,20.53125 -3.0738,4.16086 -2.4692,12.73162 4.0313,12.59375 6.3156,-0.83928 8.4297,-8.12732 13.8197,-10.68978 4.0047,-4.68092 10.6559,-6.26846 13.899,-11.40397 2.9321,-5.40884 -0.5457,-12.46711 -7.3125,-11.03125 z M 1904,-336.25 c -5.8476,-0.49432 -9.2863,7.80293 -4.3704,11.40193 8.1215,9.57513 17.2452,18.37793 25.6204,27.69182 6.5899,3.71679 12.9521,-6.29708 7.9375,-11.40625 -6.9022,-10.26064 -15.3687,-19.56754 -25.1563,-27.0625 -1.2707,-0.53033 -2.6523,-0.77157 -4.0312,-0.625 z m -813.4688,19.9375 c -8.2584,3.1215 -7.9883,13.46266 -12.3437,19.90625 -3.6901,7.92707 -11.6404,14.7024 -11.5625,23.875 0.545,6.49112 9.9292,10.10965 13.6562,4.03125 2.3513,-3.66858 1.9322,-8.78735 6.0938,-11.3125 6.8608,-8.66912 11.9131,-19.836 11.4375,-31.03125 -0.6922,-3.17703 -3.8588,-6.22385 -7.2813,-5.46875 z m 865.9688,46.96875 c -6.6587,0.9513 -8.1703,9.79097 -4.25,14.40625 6.4263,11.98754 14.8349,22.79651 23.4375,33.21875 3.0447,4.20698 12.163,7.0533 13.4687,-0.0313 0.2869,-7.61797 -7.1699,-12.54432 -10.0624,-19.03125 -6.3301,-9.01619 -10.7769,-19.6474 -18.5313,-27.46875 -1.1584,-0.83387 -2.6287,-1.28637 -4.0625,-1.09375 z M 1054.8125,-240.25 c -7.5256,3.65761 -7.5055,13.60725 -9.7865,20.6375 -1.4797,9.70197 -5.7888,19.71055 -4.1822,29.6125 2.5222,5.8745 11.444,4.31674 13.2812,-1.375 4.9046,-10.4134 5.5797,-22.22754 8.875,-33.25 1.3139,-6.25256 0.4065,-16.42914 -8.1875,-15.625 z m 950.5313,56.03125 c -6.3413,0.89346 -5.1466,8.793 -3.5,13.09375 3.7426,11.50633 4.4013,24.21621 9.6874,35.15625 4.0611,5.15004 13.261,0.9127 11.7813,-5.625 -0.5361,-10.41268 -3.5409,-20.52756 -6.2187,-30.53125 -1.7542,-5.14722 -5.0457,-12.97262 -11.75,-12.09375 z m -972.875,27.125 c -8.58,2.11831 -7.737,12.6199 -8.5705,19.49923 -0.015,9.36117 -3.5395,19.05016 -1.3358,28.25077 4.2416,7.76347 18.0466,3.47354 16.8071,-5.37467 -0.4036,-11.41949 2.3085,-22.5771 2.4429,-33.87533 -0.3103,-4.95084 -3.9719,-9.30283 -9.3437,-8.5 z m 993.7187,65.21875 c -7.194,0.560666 -7.154,9.434063 -5.395,14.598185 4.0348,13.844284 -0.097,28.120676 -2.4487,41.745565 0.191,6.460358 9.9052,10.868908 13.3124,4.1875 4.2192,-7.215128 2.7574,-16.015276 5.2188,-23.8125 1.7102,-12.101555 0.8933,-26.057569 -7.0625,-35.84375 -1.0767,-0.676965 -2.3516,-1.011132 -3.625,-0.875 z m -1006.625,14.8125 c -8.2173,2.685331 -7.5837,13.011291 -8.0625,20 -0.8111,5.961723 -1.6518,15.719971 6.0625,17.375 7.4521,0.184272 9.3829,-9.22153 9.875,-15 0.5344,-7.287484 1.1522,-17.028024 -5.2187,-21.9375 -0.8181,-0.353486 -1.7578,-0.557182 -2.6563,-0.4375 z m -7.2813,61.5 c -7.8718,2.290346 -6.3764,12.646757 -3.625,18.40625 3.2683,6.4781028 4.287,13.918577 1.7188,20.75 -1.6978,5.843544 -2.4764,15.300627 5.125,17.125 6.5743,1.955265 13.7188,-3.589488 12.8438,-10.5625 2.1961,-11.117732 3.0657,-23.1644598 -2.6563,-33.40625 -2.0916,-5.8957328 -6.2423,-12.780654 -13.4063,-12.3125 z m 995.0313,21.375 c -8.1357,2.7131174 -7.3807,12.955062 -9.1875,19.8125 -0.5348,5.786355 -3.222,11.493928 -8.75,14.0625 -4.0158,3.60884 -0.6007,11.00449 4.875,9.6875 12.1056,-1.260147 20.64,-14.126957 19.9507,-25.811514 -0.174,-5.560277 1.023,-12.830135 -3.3882,-16.938486 -1.0279,-0.6475657 -2.2882,-0.9338156 -3.5,-0.8125 z M 143.375,44.21875 c -8.29595,0.545258 -18.08301,1.333937 -23.0625,9.15625 -3.50212,3.566154 -2.19586,10.102855 3.03125,10.90625 6.49843,1.056413 12.71269,-2.644567 19.31685,-2.557117 5.35486,-0.106134 13.62358,-1.420276 13.8394,-8.255383 -0.37741,-6.090674 -7.70394,-9.550093 -13.125,-9.25 z m 1815.6875,14.25 c -9.7517,2.350498 -17.0153,10.564981 -27.375,11.125 -5.0782,0.15654 -10.5555,5.854104 -6.5625,10.59375 5.579,5.976593 15.2692,3.594628 21.9756,1.217349 7.654,-3.451527 18.4479,-8.348974 17.9932,-18.311099 -0.4107,-3.014547 -2.9362,-5.192891 -6.0313,-4.625 z M 82.84375,64.3125 c -7.956096,2.02338 -13.477711,8.865148 -20.5,12.5625 -5.295769,4.277717 -12.829893,9.417157 -12.15625,17.03125 1.487173,5.597381 9.753786,7.44885 13,2.40625 9.305917,-7.417842 22.593253,-12.84061 26.625,-24.96875 0.19213,-3.790134 -3.029986,-7.498772 -6.96875,-7.03125 z m 934.46875,4.5625 c -6.7768,0.213672 -9.5064,7.89214 -7.8437,13.59375 0.3106,10.452013 3.4656,21.61223 1.75,31.6875 -6.011,3.61723 -3.9306,13.45411 2.875,14.75 8.8905,2.8716 18.0783,-6.82748 14.8387,-15.61244 -1.8344,-13.22639 -2.147,-26.756467 -4.12,-39.88756 -1.1743,-2.989254 -4.2946,-4.939711 -7.5,-4.53125 z m -986.5,70.625 c -10.385387,4.68699 -15.430468,16.53638 -19.3125,26.71875 -2.987982,6.57704 -0.996207,18.08678 7.90625,17.9375 7.06722,-1.24726 5.895229,-10.68396 9.0625,-15.53125 2.292114,-7.32493 7.875496,-13.08952 10.46875,-20.09375 0.631141,-4.6452 -3.159967,-9.65609 -8.125,-9.03125 z M 1012.5,150.8125 c -8.6069,3.05237 -5.5856,13.92728 -9.5803,20.30736 -2.8937,8.17813 -6.49349,17.01839 -5.32595,25.78639 2.48125,6.42033 13.33275,6.869 14.90625,-0.46875 4.0246,-10.34757 4.6616,-21.82092 8.75,-32.1875 1.5921,-6.05834 -1.194,-14.4133 -8.75,-13.4375 z m -21.59375,66.90625 c -5.65981,-1.00935 -8.97877,5.60326 -7.0625,10.34375 -0.77276,12.04132 -9.13585,22.56536 -9.40625,34.53125 0.98697,6.70973 11.79377,9.09614 14.1058,1.96669 5.97835,-13.23662 12.7977,-27.65835 10.55045,-42.52919 -1.16075,-3.2958 -4.96849,-4.54938 -8.1875,-4.3125 z M 24.78125,228 c -7.466214,0.96754 -6.434265,10.27947 -6.375,15.75 0.743909,10.7659 -3.042518,21.96368 -0.21875,32.46875 2.356899,6.02046 13.323432,7.10029 14.40625,-0.25 2.443733,-14.02163 2.674776,-28.81048 0.59375,-42.90625 -1.372802,-3.29768 -4.870931,-5.45196 -8.40625,-5.0625 z m 937.6875,58.59375 c -8.39837,1.07445 -6.99792,11.55066 -12.33062,16.07221 -6.98845,8.95041 -14.56677,20.36079 -11.45063,32.20904 4.41782,6.14927 14.02283,1.66012 15.125,-4.90625 2.88063,-9.00432 7.12498,-17.39419 12.66679,-25.0161 3.12296,-4.47352 7.1173,-11.34571 2.23946,-16.0464 -1.56024,-1.69237 -3.96453,-2.55787 -6.25,-2.3125 z M 53.34375,319.875 c -7.822806,0.9189 -8.239044,10.93497 -5.09375,16.46875 5.29049,10.4942 12.439543,20.26803 18.5,30.21875 2.113388,4.42548 9.279645,7.33626 12,1.8125 3.064983,-6.19366 -1.714869,-12.49731 -2.40625,-18.65625 -3.560674,-4.48997 -6.990502,-8.93525 -10.128731,-13.80188 -5.769705,-3.80845 -2.460966,-13.02112 -9.152519,-15.60437 -1.192041,-0.38495 -2.469461,-0.5408 -3.71875,-0.4375 z m 859.34375,35 c -10.3548,2.41225 -10.80298,14.86752 -17.53125,21.28125 -3.78159,6.08555 -12.67727,7.99401 -14.6875,15.125 -1.4709,5.62401 4.63942,10.38517 9.84375,7.9375 14.29108,-3.28574 21.75396,-17.47593 25.75,-30.375 2.80405,-3.42337 4.92901,-9.32541 0.75,-12.78125 -1.1326,-0.94716 -2.66076,-1.36821 -4.125,-1.1875 z m -804.65625,42.53125 c -8.489257,0.94695 -7.53101,13.36271 -1.21875,16.71875 9.11221,5.82657 18.26865,12.36539 28.53125,15.875 6.2998,0.59201 9.98405,-8.22403 4.875,-12.25 -5.56752,-6.96312 -14.26874,-9.44659 -21.90625,-13.15625 -3.45187,-2.67098 -4.92285,-8.09007 -10.28125,-7.1875 z m 756.65625,17.25 c -6.88618,2.06035 -11.42659,8.70041 -18.79625,9.51397 -7.77594,3.40358 -18.00412,7.18692 -20.235,16.26728 0.40316,7.08172 10.16456,9.81046 15.0502,5.18178 C 851.33842,439.299 864.42217,433.87424 869.75,422 c 1.23916,-3.53228 -0.85483,-7.95471 -5.0625,-7.34375 z m -674.625,39.75 c -6.35311,0.69468 -9.68068,10.93715 -2.9375,13.59375 9.28687,2.57992 17.20544,9.36252 26.9375,10.125 5.42971,0.96611 12.35524,-4.75937 8.59375,-10.15625 -5.23145,-6.12532 -13.99653,-7.43346 -21.00856,-10.54274 -3.81396,-1.14201 -7.62163,-2.78753 -11.58519,-3.01976 z m 584.21875,5.78125 c -7.53872,2.96909 -14.27245,7.6396 -22.59375,8.625 -9.11121,2.46049 -19.72276,3.73288 -26.65625,10.5625 -4.84242,7.25033 6.15538,16.79913 12.8125,11.09375 12.45762,-7.34241 28.0963,-8.15335 39.71875,-16.8125 3.40903,-3.27449 6.0445,-11.70813 -0.28125,-13.3125 -0.96931,-0.23096 -2.01773,-0.38822 -3,-0.15625 z m -512.375,23.09375 c -7.03835,0.21374 -8.0631,11.63645 -1.21875,13.09375 11.26805,5.01715 25.1485,13.21086 37.5,6.65625 5.05945,-3.50202 2.4652,-11.87167 -3.5,-12.4375 -7.99487,-2.39702 -17.06713,-0.32482 -24.28125,-5.3125 -2.7373,-1.13727 -5.46266,-2.22354 -8.5,-2 z m 421.4375,11.5 c -10.42225,0.74238 -23.42321,-1.00238 -31.09375,7.53125 -3.44156,6.21446 5.23612,12.22142 10.6875,8.90625 8.68505,-2.38184 19.8111,-0.25374 26.5625,-7.1875 2.55675,-4.16113 -1.22343,-10.00397 -6.15625,-9.25 z m -86.25,7.09375 c -7.21295,0.35699 -17.76204,2.9572 -18.28125,11.59375 1.33482,6.78665 10.2652,9.19436 15.25,4.71875 6.73302,-3.44808 15.61084,-1.58735 21.5,-6.375 3.1193,-4.98704 -3.39889,-9.03892 -7.84375,-9.03125 -3.493,-0.72685 -7.01766,-1.06786 -10.625,-0.90625 z M 355.625,505 c -5.5124,-0.31659 -14.67266,0.4362 -14.5,7.875 1.65009,8.01488 11.59755,6.66178 17.71875,7.34375 6.28414,0.49917 15.08447,3.69898 19.71875,-1.9375 3.28768,-6.54293 -3.28456,-14.10305 -10.21875,-13.09375 -4.23341,-0.31384 -8.47814,-0.21728 -12.71875,-0.1875 z m 179.25,4.0625 c -10.09773,1.7934 -21.61733,-0.75632 -30.78125,4.40625 -4.47027,4.37527 0.22009,12.66423 6.3125,11 10.5497,-0.17441 22.62467,2.30881 31.9375,-3.78125 4.25115,-3.96984 1.35646,-12.34849 -4.84375,-11.625 -0.87408,-0.0486 -1.75088,-0.046 -2.625,0 z m -72.84375,1.75 c -11.13137,2.39563 -22.70164,0.89157 -33.90625,0.5625 -5.72277,1.11285 -9.88181,9.96021 -3.59375,13.1875 7.34436,2.73594 15.53016,0.0697 23.03125,2.125 7.06589,0.38055 17.66482,1.87687 20.78125,-6.34375 1.80669,-4.45985 -0.84792,-10.49671 -6.3125,-9.53125 z"
             style="color:#000000;fill:#000000;fill-opacity:1;fill-rule:nonzero;stroke-width:1;stroke-linecap:butt;stroke-linejoin:miter;stroke-miterlimit:4;stroke-opacity:1;stroke-dasharray:none;stroke-dashoffset:0;marker:none;visibility:visible;display:inline;overflow:visible;enable-background:accumulate" />
        </g>
      </g>
    </g>
  </g>
</svg>
