<?xml version="1.0" encoding="UTF-8" standalone="no"?>
<!-- Created with Inkscape (http://www.inkscape.org/) -->

<svg
   xmlns:dc="http://purl.org/dc/elements/1.1/"
   xmlns:cc="http://creativecommons.org/ns#"
   xmlns:rdf="http://www.w3.org/1999/02/22-rdf-syntax-ns#"
   xmlns:svg="http://www.w3.org/2000/svg"
   xmlns="http://www.w3.org/2000/svg"
   xmlns:xlink="http://www.w3.org/1999/xlink"
   xmlns:sodipodi="http://sodipodi.sourceforge.net/DTD/sodipodi-0.dtd"
   xmlns:inkscape="http://www.inkscape.org/namespaces/inkscape"
   width="2048"
   height="2048"
   id="svg2"
   version="1.1"
   inkscape:version="0.48.4 r9939"
   sodipodi:docname="title_vertical.svg"
   inkscape:export-filename="/home/nathan/documents/bee_puzzled/svgs/title_drop_shadow.png"
   inkscape:export-xdpi="45"
   inkscape:export-ydpi="45">
  <defs
     id="defs4">
    <linearGradient
       id="linearGradient4060">
      <stop
         id="stop4070"
         offset="0"
         style="stop-color:#ffffff;stop-opacity:0.52631581;" />
      <stop
         style="stop-color:#ffffff;stop-opacity:0.49803922;"
         offset="0.75555557"
         id="stop4423" />
      <stop
         style="stop-color:#ffffff;stop-opacity:0;"
         offset="1"
         id="stop4072" />
    </linearGradient>
    <radialGradient
       inkscape:collect="always"
       xlink:href="#linearGradient4060"
       id="radialGradient4074"
       cx="1024"
       cy="28.3622"
       fx="1024"
       fy="28.3622"
       r="1024"
       gradientUnits="userSpaceOnUse"
       gradientTransform="matrix(0.44227037,0,0,0.30027746,90.720093,301.16506)" />
    <radialGradient
       inkscape:collect="always"
       xlink:href="#linearGradient4060-2"
       id="radialGradient4074-0"
       cx="1024"
       cy="28.3622"
       fx="1024"
       fy="28.3622"
       r="1024"
       gradientUnits="userSpaceOnUse"
       gradientTransform="matrix(1,0,0,0.68253968,0,334.08324)" />
    <linearGradient
       id="linearGradient4060-2">
      <stop
         id="stop4070-9"
         offset="0"
         style="stop-color:#ffffff;stop-opacity:1;" />
      <stop
         style="stop-color:#ffffff;stop-opacity:0.49803922;"
         offset="0.75555557"
         id="stop4423-2" />
      <stop
         style="stop-color:#ffffff;stop-opacity:0;"
         offset="1"
         id="stop4072-5" />
    </linearGradient>
    <radialGradient
       r="1024"
       fy="28.3622"
       fx="1024"
       cy="28.3622"
       cx="1024"
       gradientTransform="matrix(0.452615,0,0,0.25442208,1046.4613,313.25293)"
       gradientUnits="userSpaceOnUse"
       id="radialGradient4441"
       xlink:href="#linearGradient4060"
       inkscape:collect="always" />
  </defs>
  <sodipodi:namedview
     id="base"
     pagecolor="#ffffff"
     bordercolor="#666666"
     borderopacity="1.0"
     inkscape:pageopacity="0"
     inkscape:pageshadow="2"
     inkscape:zoom="0.27685547"
     inkscape:cx="1661.5167"
     inkscape:cy="1024"
     inkscape:document-units="px"
     inkscape:current-layer="layer1"
     showgrid="false"
     inkscape:window-width="1276"
     inkscape:window-height="782"
     inkscape:window-x="0"
     inkscape:window-y="14"
     inkscape:window-maximized="0" />
  <metadata
     id="metadata7">
    <rdf:RDF>
      <cc:Work
         rdf:about="">
        <dc:format>image/svg+xml</dc:format>
        <dc:type
           rdf:resource="http://purl.org/dc/dcmitype/StillImage" />
        <dc:title />
      </cc:Work>
    </rdf:RDF>
  </metadata>
  <g
     inkscape:label="Layer 1"
     inkscape:groupmode="layer"
     id="layer1"
     transform="translate(0,995.63782)">
    <path
       id="path3120"
       style="color:#000000;fill:#000000;fill-opacity:1;fill-rule:nonzero;stroke:none;stroke-width:1;marker:none;visibility:visible;display:inline;overflow:visible;enable-background:accumulate"
       d="m 1751.0389,-725.84979 c -5.7129,1.57696 -12.2836,-1.36865 -17.4307,2.3093 -6.7791,2.65741 -14.2892,4.33941 -19.7178,9.52582 -7.0261,4.04013 -14.6097,8.91467 -16.6979,17.29747 -4.8596,11.53716 -2.9484,24.57579 -2.2205,36.7266 1.2976,9.79324 8.4214,17.09417 14.2554,24.46959 3.4981,4.04393 8.9654,4.63171 13.4117,7.10551 9.4334,3.12455 19.6482,2.33575 29.4212,3.35291 9.6927,0.44721 19.771,0.70536 28.6885,-3.66378 7.6128,-2.32029 11.2593,-9.7027 15.4767,-15.72094 1.6825,-2.68757 5.5023,-3.73358 5.9731,-7.32754 1.4994,-3.83465 -2.4916,-8.04794 -6.395,-6.30615 -8.1582,1.78048 -13.5891,9.20865 -21.6496,11.19118 -8.3349,3.56683 -17.5863,5.03161 -26.6456,5.63999 -7.9236,-0.09 -16.7114,-1.71912 -22.6044,-7.26094 -2.5911,-6.08959 -11.3269,-5.90764 -13.7562,-11.91329 -1.1453,-5.45777 -1.2851,-12.28566 3.5642,-15.99803 3.4226,-5.03883 9.5873,-5.42256 15.1214,-5.57338 10.4554,-0.30531 20.7927,-2.058 31.1754,-2.50914 5.5227,0.31331 11.0566,-0.81499 15.8098,-3.50834 4.8324,-0.89828 12.1618,-1.00993 13.345,-7.10551 1.3181,-8.41251 -6.4595,-14.16737 -12.6567,-18.18566 -4.4837,-3.20754 -8.0242,-7.84962 -13.5448,-9.45921 -4.1442,-1.41945 -8.5167,-2.94731 -12.9232,-3.08646 z m -9.3038,16.54252 c 10.4244,0.0276 21.1771,2.2349 29.8432,8.30456 -5.9934,1.65021 -11.5358,4.61098 -17.9116,4.96654 -11.1322,1.32156 -22.5798,1.33274 -33.6256,3.07157 -1.8263,-0.58241 -5.6667,0.93377 -6.2395,-1.33228 0.085,-2.82607 1.4972,-5.13356 4.4008,-5.70899 6.352,-2.05563 11.7699,-6.37659 17.9815,-8.52424 1.7958,-0.56304 3.6673,-0.80857 5.5512,-0.77716 z m -328.2078,-113.62152 c -6.7253,0.002 -13.6499,-0.13748 -19.7975,2.76142 -7.3744,2.15328 -14.9709,2.93363 -22.453,4.40606 -5.6158,1.53906 -11.2918,2.76556 -16.5476,5.35598 -4.0017,1.56643 -8.97,1.35379 -11.5687,5.35133 -6.8488,4.95168 -14.9862,9.41601 -18.5853,17.49732 -2.6249,3.80718 -5.1128,10.48772 -0.3553,13.7003 3.9749,2.47268 9.3354,-1.07664 9.0817,-5.61778 3.6625,-11.1578 15.408,-16.23322 25.5444,-19.96167 5.5133,-1.67044 11.6071,-3.84267 17.2219,-3.61974 -2.8383,7.73942 -0.1333,16.12875 -0.1747,24.11835 1.6577,22.57974 4.8592,45.03972 6.1922,67.63153 -1.2938,8.59715 -2.4244,17.25022 -2.6983,26.01901 -0.3946,14.71893 -2.6867,29.13513 -5.6473,43.489 -0.5312,4.86065 -3.2289,11.07595 1.3733,14.71446 3.2687,3.1783 7.3449,5.44963 11.9323,5.5351 2.7932,0.88332 7.5332,1.93943 8.4516,-2.00455 0.05,-3.67794 4.2102,-0.63808 6.3728,-1.06583 14.4211,1.12568 29.0401,-0.12464 43.2548,-2.50913 11.6252,-2.64251 23.6257,-6.75896 32.3078,-15.18802 3.8859,-6.2291 11.3043,-9.10916 14.5441,-15.83196 1.7768,-4.15932 2.6084,-8.66712 4.3521,-12.87874 1.6988,-6.06824 -1.9128,-11.85877 -2.5757,-17.85258 -1.8795,-8.86894 -6.0972,-17.58351 -13.8257,-22.70566 -5.2591,-5.10304 -9.5011,-11.21175 -15.7954,-15.2422 -3.6276,-3.43371 -8.372,-4.79694 -13.1452,-5.46236 -2.9681,-0.69001 -0.5559,-4.34506 -2.8422,-5.86204 -2.8087,-1.7438 0.8767,-3.72839 1.3545,-5.70661 4.5283,-9.41409 5.5267,-19.99816 8.359,-29.96177 2.7,-11.16478 1.3394,-23.77974 -5.9569,-32.8749 -5.93,-8.09556 -16.3595,-10.39107 -24.1183,-16.25653 -4.6022,-0.47817 -9.5453,0.10214 -14.2554,0.0223 z m 4.6852,13.58928 c 5.4223,-0.26012 10.3357,2.36942 14.7661,5.1737 4.5465,1.99386 7.8812,6.40991 10.0809,10.56945 0.3523,4.5673 0.3053,9.2948 0.9854,13.72933 -1.9661,8.0116 -3.6241,16.38443 -7.0251,23.90766 -3.8231,5.88578 -10.7593,8.5936 -16.5203,12.03495 -3.8251,2.37107 -8.4247,-0.31503 -12.2792,2.15386 -2.2733,1.02887 -6.1123,0.49244 -5.6844,-2.82 -4.4716,-20.56074 -8.0486,-41.68502 -11.7463,-62.23981 3.2584,-1.20967 7.2203,0.17504 10.4362,-1.50992 5.5432,-1.22969 11.3185,-0.82313 16.9867,-0.99922 z m 10.9025,87.64201 c 5.6969,1.35717 11.8412,0.79448 17.3418,2.48692 6.8367,5.6601 15.9701,8.23617 22.1826,14.58851 4.7475,5.11196 7.5288,11.65744 11.4132,17.36408 4.4584,5.2953 3.5823,13.36445 1.1324,19.42913 -2.3396,6.07128 -7.4406,10.24339 -12.7899,13.54487 -3.5316,3.46546 -7.4339,6.57717 -12.3298,7.92523 -3.3994,1.54255 -7.3435,3.99346 -10.9851,1.68941 -7.9212,-1.39523 -16.0942,0.555 -24.0902,-0.69708 -5.5296,-0.52604 -11.2265,-1.03943 -16.5445,-2.0341 -5.8579,-13.65964 -0.9972,-28.76389 -1.1575,-43.04795 0.4418,-8.72475 0.8425,-17.45335 1.5128,-26.16414 8.4158,0.0279 16.2267,-4.15963 24.3142,-5.08488 z m 165.2252,1.99842 c -8.7836,1.2611 -18.4463,-1.01418 -26.2903,4.17448 -10.1304,3.22811 -19.848,9.70697 -23.6925,20.02866 -5.1535,11.59625 -5.5347,25.03624 -1.4655,37.05967 2.2751,8.82953 7.0169,16.81758 13.5041,23.25021 4.557,5.15661 10.5942,8.9207 17.4715,10.16788 9.4259,2.18437 19.0586,4.16538 28.7107,4.79622 4.0887,-0.22158 8.576,-1.092 12.146,1.33228 5.8084,1.00893 10.0915,-4.56384 15.6765,-5.1959 6.6634,-1.36045 7.9746,-8.96296 9.4814,-14.41086 1.5392,-2.57889 4.3242,-5.35435 2.5536,-8.61543 -1.6579,-4.20606 -8.28,-6.43337 -11.169,-2.24268 -7.0155,6.2063 -14.9961,12.7194 -24.8249,12.65669 -11.7184,1.20581 -23.6489,-0.55028 -34.6171,-4.44094 -11.4404,-5.58555 -17.5313,-20.02375 -14.3887,-32.15242 3.0647,-4.8544 10.227,-4.24147 15.2769,-4.99607 19.6162,-3.42593 39.908,-2.6342 59.5752,-5.88425 4.4321,-1.44999 6.0877,-6.80615 4.1967,-10.8359 -2.2617,-9.05904 -9.4277,-16.06724 -17.897,-19.49573 -7.0054,-4.83958 -15.9912,-5.10923 -24.2476,-5.19591 z m -12.257,14.96598 c 12.321,0.34317 25.6254,0.0225 36.4158,6.70583 -0.1087,1.179 -4.3622,1.08553 -5.9953,1.42109 -10.1239,-0.16443 -19.7082,3.12719 -29.7745,3.49564 -5.4035,0.26872 -11.537,1.06394 -16.5445,0.36798 0,-2.58339 -1.2692,-5.37558 1.5765,-6.92786 4.0071,-2.9371 9.4092,-4.75925 14.322,-5.06268 z"
       inkscape:connector-curvature="0"
       sodipodi:nodetypes="cccccccccccccccccccccccccccccccccccccccccccccccccccccccccccccccccccccccccccccccccccccccccccccccccccccccccccccccccccc" />
    <path
       id="path3096"
       style="color:#000000;fill:#000000;fill-opacity:1;fill-rule:nonzero;stroke-width:1;stroke-linecap:butt;stroke-linejoin:miter;stroke-miterlimit:4;stroke-opacity:1;stroke-dasharray:none;stroke-dashoffset:0;marker:none;visibility:visible;display:inline;overflow:visible;enable-background:accumulate"
       d="m 1548.2147,798.07613 c -3.2879,-3.76429 -3.6475,-9.18689 -0.918,-13.84437 2.0733,-3.5379 3.3954,-4.08359 8.0166,-3.30884 4.367,0.73212 6.0407,2.91943 5.9701,7.80185 -0.092,6.34134 -2.6832,9.38415 -8.6349,10.13877 -2.7697,0.3512 -3.5623,0.21044 -4.4338,-0.78741 z m 266.9049,10.34778 c -5.4141,-0.53173 -9.2426,4.25274 -14.1636,5.83835 -13.3188,6.56032 -21.8048,20.73854 -24.0729,35.12935 -0.7587,11.32416 -1.9611,22.95872 0.2886,34.19526 4.991,5.1788 10.9836,9.45162 16.3872,14.12219 5.1575,2.66975 11.5492,1.68777 16.5939,4.71999 16.0286,3.3165 33.0771,0.79276 47.7214,-6.22107 4.7411,-3.0886 10.8222,-5.83316 12.9792,-11.44426 2.2116,-5.87445 -4.3533,-12.14804 -10.0586,-9.50362 -6.8268,5.08727 -14.0181,10.62846 -22.791,11.6836 -12.8671,2.16094 -27.1724,1.56393 -38.6496,-5.0666 -3.7991,-2.42566 -5.8721,-6.62158 -6.1506,-10.99133 -0.3568,-2.61193 -2.8271,-6.70206 -0.3109,-8.70425 6.3364,-2.28598 13.3799,-2.40581 20.0064,-2.64236 6.6931,2.52647 14,1.74972 20.9835,0.82158 5.2296,-0.42087 8.8528,-5.02917 14.2332,-4.57417 6.0086,-0.25218 12.3773,-0.46098 17.6083,-3.66378 4.4857,-0.312 8.3063,-4.91752 6.3507,-9.37039 -1.8686,-5.7995 -7.4041,-9.39577 -9.9034,-14.87716 -3.7901,-4.2632 -9.8851,-5.56264 -13.8063,-9.81372 -5.8985,-3.96929 -12.2384,-8.14067 -19.2565,-9.43776 -4.6642,-0.0103 -9.3243,-0.31384 -13.989,-0.19985 z m 4.3299,12.7233 c 10.0834,1.03998 21.4992,4.7998 26.1349,14.69953 0.3654,1.83139 4.788,6.03617 0.9105,5.86204 -11.2101,2.1342 -22.6879,1.62161 -34.0176,0.86598 -4.9664,-0.0757 -9.949,0.19631 -14.8994,-0.31087 -0.4813,-4.98031 1.3803,-9.88114 5.2181,-13.07857 4.0557,-3.85166 9.8282,-4.95732 14.5663,-7.72724 0.6781,-0.19284 1.3839,-0.28423 2.0872,-0.31087 z m -129.4534,-13.14519 c -10.2794,2.87426 -20.5414,6.81348 -29.5083,12.50702 -1.8582,1.68627 -3.7016,4.08011 -5.1533,5.65643 -0.2315,-4.12265 2.4095,-9.55507 -1.9984,-12.12377 -4.8668,-4.01765 -11.6827,-2.89191 -16.8873,-0.40401 -5.0317,1.68315 -12.1651,4.72509 -11.7568,11.01787 0.3161,4.09189 2.5928,10.60578 7.8826,9.34818 2.634,-0.56998 4.3804,-3.46859 6.8835,-3.88582 4.9708,9.09298 1.7328,20.15561 1.2113,30.03331 -1.1846,9.71005 -1.8198,19.80191 0.055,29.3865 1.4296,4.61144 4.1136,10.37953 9.2371,11.50204 4.1257,-0.38518 4.4966,-5.43569 7.1277,-7.81605 4.9774,-9.08228 0.7555,-19.87048 0.1834,-29.483 -1.599,-9.94292 -0.05,-20.88356 7.2108,-28.27147 5.977,-5.21758 12.7904,-10.15856 20.4728,-12.32361 2.47,-0.76059 5.265,-1.06835 6.086,1.99965 3.1162,4.2594 5.2249,9.10329 4.5722,14.47625 -0.6037,8.99553 -1.3581,18.1483 1.0626,26.92212 1.4998,8.20292 2.1135,16.747 4.6127,24.66756 2.5167,4.49116 7.1318,10.77912 12.9767,8.58509 7.0036,-3.35011 5.5516,-12.22546 7.2609,-18.47432 1.5098,-9.69021 2.3933,-19.68225 1.633,-29.45873 -1.9134,-12.21732 -4.9569,-24.73815 -11.8249,-35.06817 -2.099,-3.37049 -5.5586,-5.06985 -9.3324,-5.80266 -3.9306,-1.24124 -7.8554,-3.02296 -12.0063,-2.99041 z m -122.5257,5.88426 c -2.1736,-0.21867 -3.2603,2.72356 -4.4187,3.10865 -5.8046,-2.94903 -11.8664,1.84033 -17.786,2.22047 -4.6352,1.20381 -11.3935,1.3393 -13.5893,6.37276 -1.3434,4.43157 3.6639,8.87909 7.8827,6.66141 4.2904,-0.87915 8.2643,-2.85429 12.5678,-3.68598 1.1657,15.6817 -0.8683,31.41594 -2.3758,46.91856 0.9661,6.00002 1.1832,12.42845 3.3973,18.07463 2.0876,2.58353 3.0774,5.81679 4.996,8.41559 4.2996,4.16779 13.426,1.10198 12.8344,-5.28472 0.2932,-11.67956 5.73,-23.91056 1.1768,-35.30549 0.823,-11.64432 3.2246,-23.33076 2.0048,-35.1031 -0.722,-4.25541 0.019,-11.18046 -5.4465,-12.34838 -0.4088,-0.0929 -0.8278,-0.0785 -1.2435,-0.0444 z m -180.2356,-80.58091 c -7.5012,0.64965 -16.3856,4.70076 -17.1865,13.10077 -0.8716,4.23776 2.9868,9.65941 7.594,7.46079 1.4009,-0.15714 4.0776,-3.18677 4.0413,-0.13323 7.8177,25.85093 4.3902,53.20052 4.6614,79.82581 -0.1345,23.44289 -0.6518,46.96851 0.1348,70.36687 0.5697,5.04538 5.7865,9.79489 10.9025,7.17213 4.7357,-1.74648 6.4684,-8.21477 12.1016,-8.37118 9.7077,-1.44217 19.6806,1.32145 29.3102,-1.15464 8.9278,-1.3318 18.127,-0.43943 27.0932,-2.12485 6.4094,-0.49044 12.4062,3.27278 18.9147,2.85569 9.0708,0.0933 18.9767,-6.58634 19.8735,-16.05209 0.6041,-4.50995 -3.1015,-11.0367 -8.3045,-8.63764 -3.4456,1.47434 -5.0089,6.34617 -9.4809,4.88185 -14.1373,0.56866 -28.2914,0.2133 -42.4116,-0.0856 -10.3847,0.56369 -20.9601,1.01038 -30.9977,3.3085 -1.6706,-0.33317 -4.681,1.11928 -5.7067,0.28866 0.1131,-5.95838 -2.3723,-11.65641 -2.3314,-17.65275 -1.9267,-25.83351 0.3575,-51.74333 -1.0485,-77.60462 -0.2518,-13.92459 -2.3111,-28.05055 -0.017,-41.79012 0.1843,-4.68763 -3.664,-7.7863 -7.0611,-10.14756 -2.6764,-2.76044 -5.8568,-5.95261 -10.081,-5.50676 z"
       inkscape:connector-curvature="0"
       sodipodi:nodetypes="csscscccccccccccccccccccccccccccccccccccccccccccccccccccccccccccccccccccccccccccccccccccccccccccccc" />
    <path
       style="fill:none;stroke:#000000;stroke-width:12;stroke-linecap:round;stroke-linejoin:miter;stroke-miterlimit:4;stroke-opacity:1;stroke-dasharray:36, 36;stroke-dashoffset:0"
       d="m 1827.6684,321.46738 c 0,0 116.0858,0.42032 166.1517,93.91182 50.0659,93.4915 32.0222,329.06836 -32.5079,444.27513 -64.5301,115.20677 -176.4503,128.1247 -281.7355,202.27157 -105.2852,74.1469 -274.2611,139.931 -350.3633,242.0036 -76.1022,102.0726 -95.8168,233.4591 -104.7478,321.4673 -5.9207,67.4652 -4.7191,202.2658 151.7037,216.7196"
       id="path5235"
       inkscape:connector-curvature="0"
       transform="translate(0,-995.63782)"
       sodipodi:nodetypes="czzzzcc" />
  </g>
</svg>
