<?xml version="1.0" encoding="UTF-8" standalone="no"?>
<!-- Created with Inkscape (http://www.inkscape.org/) -->

<svg
   xmlns:dc="http://purl.org/dc/elements/1.1/"
   xmlns:cc="http://creativecommons.org/ns#"
   xmlns:rdf="http://www.w3.org/1999/02/22-rdf-syntax-ns#"
   xmlns:svg="http://www.w3.org/2000/svg"
   xmlns="http://www.w3.org/2000/svg"
   xmlns:sodipodi="http://sodipodi.sourceforge.net/DTD/sodipodi-0.dtd"
   xmlns:inkscape="http://www.inkscape.org/namespaces/inkscape"
   width="2048"
   height="2048"
   id="svg3489"
   version="1.1"
   inkscape:version="0.48.4 r9939"
   sodipodi:docname="titlebox2.svg">
  <defs
     id="defs3491" />
  <sodipodi:namedview
     id="base"
     pagecolor="#ffffff"
     bordercolor="#666666"
     borderopacity="1.0"
     inkscape:pageopacity="0"
     inkscape:pageshadow="2"
     inkscape:zoom="0.27685547"
     inkscape:cx="1024"
     inkscape:cy="1024"
     inkscape:document-units="px"
     inkscape:current-layer="layer1"
     showgrid="false"
     inkscape:window-width="1276"
     inkscape:window-height="782"
     inkscape:window-x="0"
     inkscape:window-y="14"
     inkscape:window-maximized="0" />
  <metadata
     id="metadata3494">
    <rdf:RDF>
      <cc:Work
         rdf:about="">
        <dc:format>image/svg+xml</dc:format>
        <dc:type
           rdf:resource="http://purl.org/dc/dcmitype/StillImage" />
        <dc:title></dc:title>
      </cc:Work>
    </rdf:RDF>
  </metadata>
  <g
     inkscape:label="Layer 1"
     inkscape:groupmode="layer"
     id="layer1"
     transform="translate(0,995.63782)">
    <g
       id="g3921"
       transform="matrix(0.98657869,0,0,0.98657869,13.748204,0.13217134)">
      <path
         id="path3919"
         d="m 1495.1875,-591.03125 c -33.8813,0.14441 -68.0715,2.69724 -100.6356,12.16149 -27.3765,3.67485 -55.2511,3.46135 -82.8331,4.74476 -11.7773,-1.49846 -22.621,-7.77854 -34.7375,-7.97331 -41.3446,-3.7819 -82.5808,4.07377 -123.9184,4.46937 -30.6967,0.24456 -61.4551,1.55838 -92.1217,-0.1757 -7.3356,0.009 -14.0739,-1.92448 -20.2419,-5.89257 -8.8311,-4.88377 -19.1077,-7.31717 -29.1053,-5.33476 -87.83943,1.32752 -175.61725,5.0894 -263.37525,8.93822 -25.33953,-8.42501 -52.49058,-2.90031 -78.65532,-3.86308 -72.35003,1.12855 -144.70877,2.31699 -217.00057,5.52581 -22.52218,0.26639 -45.48516,0.17308 -67.40661,-5.00648 -18.30744,-9.79172 -39.99388,-6.20852 -59.93361,-5.81274 -26.9593,2.0509 -53.79112,5.82443 -80.70858,8.10485 -8.45985,0.98126 -16.70556,4.87493 -24.04531,7.92664 -17.61412,-8.19774 -42.26522,0.30318 -47.78125,19.75 -3.53326,9.10855 -0.13841,19.4589 5.96875,26.4375 2.98923,12.57565 -5.06024,24.18799 -6.25,36.5625 -2.30028,13.78544 -5.89298,27.39041 -12.59375,39.65625 -6.43557,14.10718 -14.35249,29.42575 -11.53125,45.34375 -0.0723,1.97158 -5.92909,2.11156 -7.69364,3.67177 -31.80591,12.06569 -66.182207,17.34178 -97.15011,31.73448 -10.499366,0.69134 -23.390165,-4.36615 -31.9375,4.15625 -6.5020196,8.9592 -5.2267537,21.34575 -0.6875,30.875 -6.971641,23.69422 -3.8771252,48.88356 -6.6254228,73.24372 -5.7731066,113.81731 -8.9120944,227.767118 -9.4995772,341.72503 -0.3714733,18.456939 -4.6348245,36.57547 -7.84375,54.5 -2.97639,29.63517 3.5266316,59.10947 3.6574779,88.73743 2.0276628,43.38195 4.267908,86.95636 2.9050221,130.32507 -1.9877937,12.13135 -7.260849,24.42069 -3.779618,36.7732 1.7938969,12.3567 -2.528081,27.03679 6.935868,37.1018 7.9253862,8.39044 20.918233,4.58169 30.28125,1.21875 16.578214,-7.09897 35.313506,-10.65093 52.96875,-5.96875 10.960626,0.48996 22.24729,5.14297 28.0625,14.90625 9.86597,10.51804 22.60732,18.39846 32.0625,29.1875 1.35151,11.81668 9.21633,21.06076 16.71875,29.6875 10.77699,14.86696 13.82786,33.34479 20.16665,50.06531 3.77592,6.54281 6.73148,14.33619 2.97112,21.6207 -4.05193,12.64558 -7.43755,28.97859 2.92473,39.62649 4.73607,4.49805 10.76405,8.3769 11.71875,15.34375 5.19642,13.61164 22.18376,19.64427 35.44561,14.75551 36.16659,-8.82199 73.56935,-11.55224 110.39814,-15.88051 1.15024,2.27191 2.7201,6.69711 5.53125,8.84375 11.362,10.21545 28.0605,7.20334 42.03125,7.40625 31.02247,-1.89526 61.7721,-6.97832 92.8681,-8.01614 22.83922,-1.60277 46.01227,-1.8265 68.4444,2.70364 30.70982,2.96204 61.23114,-4.86545 91.9375,-4.03125 8.76615,0.0776 15.85657,7.81504 25.03125,6.3125 31.20626,-3.07679 62.70958,-3.68768 94.00709,-3.87472 10.10566,-2.04089 20.93074,-4.77845 31.02416,-4.34403 1.9423,14.93967 19.40527,25.78348 33.48324,19.50518 53.26788,-9.71308 107.78676,-9.6559 161.73551,-11.09893 4.99639,2.07249 8.20324,7.8122 14.3125,7.65625 9.6234,0.25871 18.7461,-3.6608 28.4375,-3.53125 40.0245,-3.27166 80.2385,-1.59484 120.3437,-2.75885 32.1449,0.0172 64.5622,0.091 96.4688,3.1651 9.3509,7.34627 21.6247,9.31508 33.155,7.35581 34.2965,-2.06345 68.3644,-7.36599 102.7738,-7.63608 70.1104,-3.24471 140.3705,-6.45865 210.5087,-6.15723 3.7775,5.67091 9.2102,10.3449 16.2812,10.9375 15.5122,2.63255 30.8584,-2.74435 46.2422,-3.53157 32.9893,-4.3517 66.3058,-3.45081 99.4766,-3.12468 24.646,-0.58215 50.2631,-1.20951 73.3125,-10.5625 12.2778,-9.35394 12.2509,-26.53094 12.0313,-40.59375 2.7809,-15.05481 13.7664,-26.90538 20.0937,-40.59375 18.8925,-27.1465 45.2082,-47.93156 69.5625,-69.78125 11.9459,-9.61339 23.5928,-20.92289 38.5626,-25.52908 13.4376,-3.20118 27.7522,-2.32337 41.2812,-3.87717 4.3685,10.15907 14.6323,18.64642 26.2187,17.75 14.2104,-1.41028 22.3129,-16.49276 22.852,-29.58853 2.3228,-43.41328 -7.864,-86.50764 -4.7583,-129.91147 2.643,-36.04583 1.509,-72.2807 1.6019,-108.40589 0.1289,-45.31761 -1.0049,-90.71067 1.7107,-135.96911 0.996,-16.056524 5.7257,-31.686079 4.7396,-47.937447 -0.9527,-32.107399 -5.9905,-64.003969 -5.5297,-96.187514 -0.4018,-28.463789 2.2758,-56.877389 2.9775,-85.281289 -3.639,-50.31176 -5.2341,-100.77566 -5.255,-151.21864 0.4087,-5.91763 -0.5564,-12.56906 0.8488,-18.03136 12.7511,-11.647 7.9017,-34.95408 -7.5938,-41.6875 -11.5563,-7.96617 -25.1813,-13.18812 -36.0937,-21.96875 1.0053,-8.15862 -2.7997,-15.92975 -9.3193,-20.65362 -15.2825,-13.32051 -36.0524,-19.03122 -49.6704,-34.5317 -25.5225,-23.51919 -51.3316,-48.30846 -64.2603,-81.34593 -5.5414,-10.47717 -13.4554,-20.11652 -15.0937,-32.21875 -3.8032,-12.1844 -20.3094,-19.59073 -30.6876,-10.6875 -3.7437,1.83959 -6.636,-2.9559 -10.4062,-3.3125 -27.7894,-10.25849 -58.1898,-4.97272 -87.2187,-6.18258 -83.0315,0.11119 -166.0647,-0.0399 -249.0938,-0.44242 z"
         style="fill:#ffffff"
         inkscape:connector-curvature="0" />
      <path
         inkscape:connector-curvature="0"
         id="path3562"
         d="M 5.1500049,366.75648 C 8.758322,357.08807 8.8782704,350.8556 6.8167767,280.17137 5.5950081,238.27963 3.2629555,191.7783 1.6343275,176.83508 -1.4369697,148.6526 -0.33923873,132.85767 6.2902284,109.84532 c 1.9811387,-6.8763 2.8516082,-28.127678 2.927701,-71.459829 0.059282,-33.9201636 0.4844885,-69.956537 0.9446156,-80.080816 0.460105,-10.124258 1.334706,-40.325935 1.943211,-67.114835 0.608721,-26.78888 2.197214,-71.12249 3.53019,-98.5191 1.332977,-27.3966 3.20122,-65.89255 4.151958,-85.54653 1.131461,-23.39563 2.746848,-37.36494 4.677835,-40.45634 2.553468,-4.08737 2.503274,-5.07937 -0.372956,-7.38284 -1.993341,-1.59647 -3.108749,-5.33549 -2.787956,-9.34636 l 0.534856,-6.68535 14.422494,0.49641 c 11.791484,0.40582 15.528837,-0.32084 20.487525,-3.98335 3.335924,-2.46388 20.120829,-8.13241 37.300016,-12.59677 32.240002,-8.37823 67.899662,-20.8931 70.104172,-24.60335 0.69035,-1.16177 0.0444,-4.89642 -1.43497,-8.29922 -3.34462,-7.69175 -1.39009,-15.02453 11.29895,-42.38991 5.14653,-11.09951 9.89959,-25.29154 10.93426,-32.64937 1.00677,-7.15846 3.34524,-17.71045 5.1965,-23.44891 5.01034,-15.53094 4.60703,-25.39667 -1.35656,-33.17486 -4.76898,-6.22053 -4.88607,-7.02853 -1.89225,-13.07398 1.75495,-3.544 4.45418,-7.47499 5.99841,-8.73546 4.19873,-3.42743 19.85284,-3.56267 24.60634,-0.21268 3.65981,2.57925 5.33142,2.25773 13.77004,-2.64869 8.12114,-4.72178 12.95663,-5.74898 31.30549,-6.65041 11.93558,-0.58635 26.29987,-2.20396 31.92083,-3.59468 5.62113,-1.39075 24.90017,-2.86678 42.84273,-3.28009 26.95937,-0.62096 33.29281,-0.16594 36.4828,2.62121 2.12314,1.85496 9.63984,4.34465 16.70385,5.53262 17.94209,3.01736 72.40886,4.22576 91.82414,2.03722 8.90855,-1.00418 40.0492,-2.12318 69.20141,-2.48663 29.15222,-0.36344 81.51985,-1.31669 116.37253,-2.11805 52.96658,-1.21809 64.42191,-0.9356 69.78612,1.72068 5.02907,2.49038 11.45158,2.85356 29.68311,1.67852 38.134,-2.45775 151.44266,-6.65999 207.29479,-7.68786 l 52.12269,-0.95915 10.6153,5.97459 c 9.9163,5.58115 12.4033,5.98477 37.7694,6.12929 60.9817,0.34745 106.6705,-0.93412 135.2802,-3.79464 39.7752,-3.97686 75.1475,-2.56132 85.1964,3.40942 7.076,4.20434 9.0947,4.27409 56.2985,1.94535 40.7535,-2.01052 50.5805,-3.13006 58.6326,-6.67974 16.0845,-7.09076 81.0091,-10.7046 153.498,-8.54405 13.6938,0.40815 72.1206,0.4931 129.8373,0.18866 57.7168,-0.30431 109.2324,-0.0437 114.4792,0.57893 5.2467,0.62272 14.9048,3.55883 21.4623,6.5247 9.5575,4.32269 12.6154,4.87461 15.4136,2.78199 6.9605,-5.20527 9.4941,-5.52936 12.477,-1.5959 1.6511,2.17723 3.0427,6.28461 3.0923,9.12748 0.05,2.84287 3.6556,10.34209 8.0133,16.66491 4.3577,6.32284 9.0035,15.17055 10.324,19.66162 4.0545,13.79002 25.7808,41.1381 53.4831,67.32215 14.5269,13.73063 27.4547,24.94892 28.7286,24.92951 2.5517,-0.0381 26.2102,14.50086 32.6077,20.03956 2.8046,2.42815 3.6534,5.13627 2.783,8.87971 -0.9808,4.21837 0.2448,6.73653 5.6538,11.61523 3.7984,3.42604 7.8427,6.21285 8.9874,6.19286 1.1446,-0.0195 9.9384,4.88824 19.5416,10.90714 16.1227,10.10485 17.42,11.45023 16.93,17.55667 -0.3302,4.11466 -2.1526,7.36109 -4.8239,8.59273 -4.1814,1.928 -4.2515,3.90204 -2.6911,75.78351 0.8812,40.59218 2.6705,82.5491 3.9762,93.23762 1.5465,12.65972 1.6575,21.33184 0.3185,24.87929 -2.6064,6.90506 -3.4474,106.441637 -0.9654,114.251112 1.0191,3.206412 2.4267,20.913055 3.1283,39.34806486 0.9769,25.67347414 0.5855,34.92918814 -1.6711,39.54687614 -3.4042,6.96527 -4.0952,28.952582 -4.0442,128.690157 0.061,119.72438 -0.1449,133.48833 -2.151,144.23281 -1.3728,7.34918 -0.9478,20.01141 1.415,42.17138 4.2839,40.1768 5.2594,81.24823 2.0796,87.55405 -2.6311,5.21758 -5.8488,7.98998 -9.405,8.10339 -4.4477,0.14193 -11.9196,-8.64872 -12.0154,-14.1359 l -0.097,-5.5529 -17.8225,1.69717 c -9.8024,0.93346 -23.3646,2.07749 -30.1381,2.54233 -19.0809,1.30941 -33.9958,11.84384 -91.3435,64.51637 -6.5233,5.99151 -13.7833,13.42139 -16.1333,16.51088 -2.35,3.08947 -7.8368,9.52131 -12.1929,14.29298 -4.3561,4.77165 -7.9015,9.74708 -7.8787,11.05652 0.023,1.30941 -4.3672,9.71614 -9.7558,18.68155 -9.0023,14.97795 -9.822,17.5611 -10.1006,31.83143 -0.3678,18.84044 -2.5481,23.60086 -11.7534,25.66092 -17.5046,3.91741 -57.0638,6.71452 -83.8077,5.92577 -16.0753,-0.47409 -31.1757,-0.88586 -33.5565,-0.91504 -5.1647,-0.0634 -58.7573,5.46723 -71.8413,7.41373 -11.505,1.71156 -19.9977,-0.15253 -20.0719,-4.4055 -0.063,-3.61193 -8.9038,-7.47763 -17.369,-7.59477 -3.0172,-0.0417 -52.2007,1.38079 -109.2966,3.16122 -90.6363,2.82634 -170.1512,7.28935 -174.0076,9.76677 -0.6818,0.43801 -10.694,1.21365 -22.2493,1.72367 -18.9266,0.83534 -21.4346,0.48668 -25.2977,-3.5174 -3.5393,-3.66857 -7.8056,-4.60644 -24.432,-5.37104 -62.5245,-2.87532 -199.6359,-1.33266 -217.8451,2.45104 -6.3827,1.32623 -11.9208,2.41686 -12.307,2.42361 -0.3861,0.006 -2.59668,-1.95152 -4.91233,-4.3517 -4.07637,-4.22517 -5.88693,-4.30245 -56.9291,-2.43001 -57.25046,2.10015 -100.61879,5.85012 -117.33207,10.14544 -9.99096,2.56764 -10.85023,2.4426 -14.69377,-2.13815 -2.59663,-3.09467 -3.60875,-6.53561 -2.78109,-9.45515 0.71564,-2.52444 1.4154,-5.56564 1.55504,-6.75822 0.3362,-2.87112 -39.9036,-0.68505 -43.52086,2.36431 -1.70158,1.43447 -10.09559,1.89191 -22.69936,1.23706 -10.99962,-0.57148 -33.46127,0.13544 -49.91477,1.5708 -28.60027,2.49511 -30.18519,2.41761 -36.05111,-1.7629 -5.95581,-4.2446 -7.17317,-4.28418 -41.52923,-1.35048 -46.76989,3.99371 -67.24216,4.26409 -70.70524,0.93377 -3.95823,-3.80647 -78.72462,-1.48604 -118.89056,3.68987 -39.88922,5.14023 -64.83541,4.93659 -68.31802,-0.55771 -1.99244,-3.14336 -1.54475,-4.65734 2.3598,-7.97916 l 4.81864,-4.09964 -5.99315,-1.20384 c -3.29638,-0.66211 -11.21948,-0.1164 -17.60706,1.2126 -6.38757,1.32906 -17.56367,2.59471 -24.83576,2.81258 -15.7382,0.47163 -48.37517,5.16221 -77.29727,11.10941 -20.16247,4.14597 -21.06583,4.16267 -25.29498,0.46751 -2.41232,-2.10762 -5.06209,-6.67351 -5.88872,-10.14646 -0.82664,-3.4729 -3.91888,-7.83777 -6.87155,-9.69965 -8.11129,-5.11458 -10.12882,-10.13043 -7.84911,-19.51217 7.02916,-28.92551 6.97769,-28.10524 2.23493,-35.61387 -2.45641,-3.88926 -5.2114,-10.46649 -6.12211,-14.61611 -4.08932,-18.63077 -13.70217,-39.62788 -22.91022,-50.04175 -6.9103,-7.81521 -9.58625,-12.70432 -9.67298,-17.67292 -0.10321,-5.90585 -2.40126,-8.68985 -16.3928,-19.85777 -8.95016,-7.14392 -19.48935,-16.90749 -23.42058,-21.69685 -8.48483,-10.33698 -12.39789,-11.95278 -37.889474,-15.6455 -21.2548,-3.079 -24.659633,-2.679 -49.316835,5.79378 -9.209716,3.16468 -18.1702102,5.23533 -19.9124041,4.60146 C 4.7994414,417.59583 4.0895305,413.96711 4.3008032,403.70636 4.4548495,396.22298 3.8350946,387.19195 2.921133,383.63746 1.8009008,379.27544 2.5252427,373.78828 5.1495721,366.75642 z M 30.426377,325.7998 c 1.3071,4.13482 2.500201,14.60597 2.651413,23.26921 0.321832,18.43762 -1.32073,17.22555 32.431895,23.93271 11.591115,2.30331 26.592776,5.31546 33.337059,6.69367 11.995506,2.45126 33.445196,14.60158 49.226406,27.8846 7.6376,6.42849 29.43194,33.7122 29.48785,36.91496 0.0195,1.10266 3.96862,7.01767 8.7762,13.14452 4.8078,6.12682 10.33878,15.74973 12.29116,21.38421 1.9526,5.6345 6.53831,14.50993 10.19066,19.72316 3.65234,5.21323 6.67779,10.79737 6.72345,12.40918 0.0498,1.61175 1.75483,7.28332 3.79866,12.60328 2.87669,7.48773 3.77931,16.87531 3.99571,41.55817 l 0.27958,31.88548 5.3816,1.25126 c 2.95968,0.68819 9.01878,0.58706 13.46442,-0.22421 44.64137,-8.15158 133.45975,-12.40672 190.79888,-9.14083 17.27429,0.98391 43.59124,2.44812 58.48212,3.25386 37.76568,2.04347 150.73465,0.2857 201.18811,-3.13045 57.91469,-3.92132 275.47806,-7.02808 289.1334,-4.12874 2.66143,0.56508 5.6541,3.66394 6.95837,7.20525 l 2.28849,6.21376 31.04459,0.51257 c 17.0746,0.28191 67.2774,-0.0701 111.562,-0.78239 44.2846,-0.71219 81.7776,-0.51597 83.3178,0.43617 1.5402,0.95217 50.5036,1.10859 108.8074,0.34762 58.3038,-0.76097 118.1842,-1.08306 133.0674,-0.71577 54.1249,1.3357 157.4923,-1.54726 237.9132,-6.63548 61.598,-3.8973 69.0565,-3.60927 81.0294,3.12943 5.6648,3.18826 11.564,5.28615 13.1095,4.66196 1.5454,-0.62419 3.4054,-5.6419 4.1334,-11.15044 1.6684,-12.62394 6.3076,-24.39251 12.7365,-32.30921 2.7489,-3.38508 5.9234,-9.77817 7.0544,-14.20685 2.6052,-10.20061 24.1192,-39.22916 33.9368,-45.79051 16.1143,-10.76998 40.796,-31.15819 55.4293,-45.7875 10.5647,-10.56193 30.2536,-25.63979 33.5559,-25.69743 1.1607,-0.0195 3.7042,-1.86095 5.6522,-4.09042 1.948,-2.22948 7.1597,-5.17191 11.5817,-6.53875 15.4278,-4.76877 49.0307,-11.93744 54.4047,-11.60645 l 5.4157,0.33358 0.052,-32.45941 c 0.028,-17.85269 -0.1147,-59.72164 -0.3202,-93.04214 -0.2536,-41.29165 0.4673,-63.69804 2.264,-70.36628 3.3492,-12.43021 -0.3038,-221.450922 -4.5327,-259.311641 -2.7946,-25.024165 -2.5974,-35.011511 2.3349,-118.250669 0.9883,-16.67927 2.061,-58.56946 2.3838,-93.08933 0.4767,-50.98652 1.2558,-64.73242 4.1521,-73.2573 4.4204,-13.00992 2.5632,-15.74779 -11.854,-17.47486 -5.7741,-0.69169 -15.76,-3.77762 -22.1908,-6.85761 -14.4435,-6.91763 -35.9825,-22.15414 -39.023,-27.60455 -1.2449,-2.2317 -6.9005,-6.20328 -12.5679,-8.82574 -18.8048,-8.70148 -28.4848,-19.31193 -50.3446,-55.18407 -4.6645,-7.65452 -9.7312,-15.35612 -11.2592,-17.11467 -1.528,-1.75855 -4.8771,-8.46196 -7.4423,-14.89651 -2.5652,-6.43454 -8.4124,-17.53068 -12.9938,-24.65807 -7.3038,-11.36262 -8.5076,-15.08813 -9.7728,-30.24488 -1.4174,-16.97975 -1.5385,-17.26947 -6.8364,-16.35212 -2.9664,0.51366 -13.664,1.29836 -23.7725,1.74384 -10.1085,0.44546 -22.2618,1.51216 -27.0074,2.37043 -4.7456,0.85827 -37.3371,2.53655 -72.4255,3.7295 -35.0885,1.19295 -71.5768,2.77032 -81.0851,3.50527 -9.5084,0.73492 -28.2093,1.65485 -41.5577,2.04425 -23.0686,0.673 -24.5993,0.44022 -30.9278,-4.69876 -7.5383,-6.12148 -22.3202,-8.85993 -34.3639,-6.36611 -4.3813,0.9072 -17.1985,2.68897 -28.4827,3.95946 -11.2842,1.27054 -27.8011,3.38811 -36.7042,4.70572 -8.9031,1.31764 -44.8873,3.88348 -79.9648,5.7019 -35.0775,1.81842 -77.3123,4.55945 -93.855,6.09117 -29.1048,2.69494 -30.2353,2.64196 -34.9531,-1.63767 -4.6332,-4.20291 -5.9336,-4.29264 -26.1667,-1.80592 -33.4794,4.11475 -68.3692,7.91604 -73.4372,8.00109 -3.185,0.0534 -5.1052,-1.67411 -6.1442,-5.52769 l -1.5113,-5.6054 -19.8878,1.79912 c -10.9382,0.9895 -22.7931,2.70394 -26.3443,3.80981 -3.5511,1.10586 -14.7258,2.45154 -24.8326,2.99033 -18.3354,0.9775 -18.3763,0.9677 -18.4705,-4.42844 l -0.094,-5.4081 -34.6367,-0.82023 c -22.24013,-0.52666 -49.32864,0.49783 -75.68659,2.86251 -22.5774,2.02551 -48.77351,4.09769 -58.21356,4.60483 -16.73669,0.89916 -17.19874,0.78813 -18.57146,-4.46308 l -1.40773,-5.38517 -31.26663,0.54576 c -17.19665,0.30018 -46.8364,1.13623 -65.86613,1.85791 -19.02971,0.72168 -42.39873,0.78572 -51.93112,0.14236 -16.57646,-1.11874 -120.19643,4.29761 -134.366,7.02353 -5.8829,1.13175 -7.20653,0.48832 -9.85532,-4.79062 l -3.05975,-6.09796 -48.90194,1.54516 c -26.89606,0.84983 -54.47995,2.4015 -61.29751,3.44815 -6.81757,1.04665 -32.00625,1.33109 -55.975,0.63213 -29.58281,-0.86268 -61.89797,-0.16378 -100.61497,2.17623 -57.02416,3.44644 -57.03627,3.4462 -61.43038,-1.10827 l -4.39497,-4.55536 -5.44677,5.64045 c -5.11985,5.30179 -5.44307,7.04167 -5.38261,28.9766 0.0402,14.69725 -1.61011,32.11066 -4.45928,47.03868 -3.44512,18.05255 -4.14473,27.41095 -2.93449,39.25998 1.4934,14.62219 1.24241,16.0241 -4.17481,23.31971 -3.17002,4.26922 -8.65458,9.50489 -12.18782,11.63482 -3.53327,2.12994 -11.68208,9.4691 -18.10849,16.30925 -13.88677,14.78078 -22.55884,21.6715 -38.41738,30.52557 -10.13283,5.65728 -14.89069,6.80456 -33.90863,8.17624 -18.953549,1.36703 -22.833048,1.06653 -27.085395,-2.09832 -4.22844,-3.14698 -7.427777,-3.40823 -21.60899,-1.76461 -18.17658,2.10663 -22.008697,3.54125 -19.575718,7.32841 1.99345,3.10293 1.902536,28.94849 -0.453765,129.18935 -2.127418,90.50558 -1.849313,119.578842 1.375663,143.820876 2.605026,19.582438 1.350761,23.793764 -7.672088,25.762722 -5.754904,1.255801 -6.380912,2.334818 -7.45943,12.858492 -3.033781,29.604661 -4.597956,68.215187 -4.89482,120.82953 -0.177845,31.54197 -0.497124,57.56644 -0.709089,57.83221 -1.607035,2.01347 3.988803,158.9594 5.881106,164.94499 z M 68.77248,79.902687 c 0.779188,-0.807033 4.069396,-1.513634 7.311658,-1.570233 7.529812,-0.131329 7.8069,-1.389792 9.832111,-44.630099 2.430296,-51.892623 3.377161,-66.722042 6.090106,-95.380357 2.15972,-22.814553 2.03248,-27.761732 -0.993793,-38.574268 -3.544384,-12.66515 -5.651291,-51.67349 -5.031168,-93.15757 0.178062,-11.90455 -0.49496,-34.30698 -1.496932,-49.78316 -1.702189,-26.30919 -1.539835,-28.4505 2.496502,-32.93745 2.374259,-2.63942 7.686129,-5.79283 11.804032,-7.00756 4.117904,-1.21474 10.389514,-4.35272 13.937144,-6.9733 3.54763,-2.62056 10.07704,-5.41843 14.51014,-6.21746 4.43307,-0.79902 11.16101,-3.35602 14.95094,-5.68218 3.78973,-2.32619 12.53175,-4.85049 19.42674,-5.6096 16.42426,-1.80827 43.19905,-10.63599 53.62984,-17.68183 23.12131,-15.61825 45.62461,-36.39321 45.52623,-42.0297 -0.0247,-1.4121 2.10944,-4.6699 4.74242,-7.23957 13.09082,-12.77606 18.47127,-34.90933 18.59678,-76.50095 0.058,-19.23891 1.00476,-31.47234 2.58884,-33.45013 1.8562,-2.31787 8.15794,-3.22357 24.55476,-3.52898 12.13162,-0.22691 28.80546,-1.62198 37.05308,-3.10221 16.7858,-3.01267 30.357,-1.1357 45.65686,6.3146 9.76035,4.75278 5.09725,4.74568 152.55906,0.23221 51.41348,-1.57367 78.81074,-1.62473 82.9323,-0.15469 4.44315,1.58486 14.9684,1.24275 37.84678,-1.23021 45.78567,-4.94906 255.0466,-7.8461 315.71194,-4.37076 33.39015,1.91284 49.98925,1.95377 63.66875,0.15708 25.056,-3.29095 96.2101,-2.42141 102.2379,1.24942 4.9067,2.98808 23.0723,5.18259 48.9637,5.91509 8.9305,0.25266 24.0329,0.77897 33.5609,1.16958 43.7651,1.79428 121.2441,1.26797 132.6069,-0.9008 32.2058,-6.14694 99.1409,-11.06729 139.8494,-10.28023 55.1518,1.06634 51.0515,1.12822 113.5748,-1.71439 30.6653,-1.3942 61.8336,-3.92876 70.2271,-5.71079 20.6507,-4.38434 36.0698,-6.06261 69.651,-7.58098 l 28.6466,-1.29522 4.5772,9.87787 c 3.2331,6.97702 4.1516,11.82037 3.128,16.49234 -1.9837,9.05361 -1.109,12.37721 4.5606,17.32903 2.672,2.33365 7.8987,8.57184 11.6149,13.86261 17.5358,24.96562 23.8488,33.37263 27.2663,36.31039 2.0354,1.74968 5.3297,5.43974 7.3207,8.20011 1.9911,2.76039 16.8675,17.10705 33.0587,31.88147 l 29.4387,26.8626 16.1807,3.53512 c 8.8994,1.94431 18.2255,3.4856 20.7247,3.42508 7.2837,-0.17654 17.7866,3.99895 19.2647,7.65855 0.749,1.85437 -0.6286,7.67284 -3.0612,12.92997 -2.4326,5.25711 -3.8367,11.00988 -3.1201,12.78392 2.8172,6.97513 10.7506,161.49285 13.2045,257.1826 0.9151,35.688385 2.484,67.976545 3.4864,71.751457 1.0098,3.80306 0.8764,14.901487 -0.2992,24.890067 -2.6661,22.653324 -3.2539,55.621366 -2.7909,156.527916 0.4435,96.66777 -0.5352,143.62511 -3.0974,148.62043 -2.7833,5.42619 -9.7784,7.08411 -15.0063,3.55671 -3.9099,-2.6381 -5.8883,-2.62088 -14.4697,0.12592 -5.4674,1.75005 -11.4488,4.50698 -13.2922,6.1265 -1.8433,1.61952 -7.6894,5.4699 -12.9911,8.55636 -5.3018,3.08647 -15.4172,9.33367 -22.4787,13.88264 -11.0114,7.09355 -14.1929,8.15089 -22.3503,7.4278 -8.7387,-0.7746 -10.2787,-0.11056 -18.9576,8.17417 -5.1955,4.95946 -10.9302,12.01489 -12.7439,15.67873 -1.8137,3.66383 -5.9013,10.11508 -9.0835,14.33614 -5.5327,7.33899 -22.9107,45.58463 -22.8294,50.2431 0.022,1.22769 -2.3109,7.07725 -5.1829,12.99897 -2.9397,6.06133 -5.1568,14.48736 -5.0732,19.28003 0.1288,7.38064 -0.6529,8.80849 -5.876,10.73214 -3.3136,1.22036 -9.0098,5.31007 -12.6583,9.08823 -7.1896,7.445 -15.534,9.05394 -20.0026,3.85689 -3.7758,-4.39129 -21.2605,-3.8261 -56.6517,1.83122 -15.7907,2.5242 -39.8994,5.11172 -53.5749,5.75008 -44.7968,2.09114 -128.0828,2.21254 -160.1246,0.23328 -30.4455,-1.8806 -215.2398,2.62004 -226.3886,5.51367 -2.5651,0.66575 -11.83,-0.14994 -20.5887,-1.81266 -17.0354,-3.23402 -78.7591,-5.27983 -123.0562,-4.0787 -51.9227,1.4079 -217.45783,8.57261 -233.80309,10.11949 -16.35489,1.5478 -16.5157,1.51199 -21.10338,-4.69847 -4.42319,-5.98781 -5.53842,-6.30184 -25.81523,-7.26861 -80.11533,-3.8198 -108.86036,-4.07071 -128.54539,-1.12202 -25.59481,3.83395 -32.09719,3.9396 -86.29354,1.40216 -54.24118,-2.53955 -50.91908,-2.58438 -86.53563,1.16792 -16.03747,1.68962 -49.11553,3.38651 -73.50681,3.77093 -31.73679,0.50009 -50.48139,1.83677 -65.91693,4.70032 -11.86306,2.20074 -26.91909,4.32997 -33.45787,4.7316 -6.53879,0.4016 -16.94286,1.50299 -23.12012,2.44751 -10.61285,1.62279 -11.60974,1.35193 -18.10446,-4.92002 -3.78021,-3.65053 -8.55047,-6.60807 -10.60059,-6.57228 -8.36395,0.14604 -11.62119,-8.53985 -5.7308,-15.28152 3.55397,-4.06779 2.3769,-8.46285 -2.24507,-8.38217 -1.492,0.026 -5.49246,-2.75464 -8.89005,-6.17931 -3.39761,-3.42465 -9.00379,-7.33994 -12.45819,-8.70065 -6.77022,-2.66686 -7.49874,-5.46492 -4.41684,-16.96413 2.32352,-8.66975 0.22639,-12.66721 -20.89549,-39.83212 -7.30398,-9.39366 -14.40847,-20.11556 -15.78781,-23.82643 -1.37935,-3.71087 -5.95231,-10.6407 -10.16217,-15.39963 -4.20961,-4.75895 -14.11587,-16.24625 -22.01381,-25.52732 -7.89795,-9.28108 -16.82023,-18.36074 -19.82729,-20.17697 -3.00708,-1.81627 -11.35206,-8.13371 -18.54451,-14.03876 -7.19245,-5.90508 -13.91732,-10.72184 -14.94422,-10.70392 -1.02709,0.0173 -6.41453,-2.98048 -11.97231,-6.66309 -18.02735,-11.94505 -34.4566,-18.44392 -45.000001,-17.80054 -12.058707,0.73589 -18.66768,-4.28521 -18.842778,-14.31559 -0.151017,-8.6539 2.8679,-11.36343 13.875478,-12.45298 l 8.613241,-0.85257 -0.803485,-8.64159 c -0.567981,-6.10971 -2.605653,-10.29613 -6.954907,-14.28883 -5.353367,-4.91464 -6.347377,-7.74915 -7.661595,-21.84882 -0.830465,-8.91086 -2.579474,-18.11837 -3.886249,-20.46117 -1.528801,-2.7404 -2.574303,-23.43729 -2.931444,-58.03061 -0.467375,-45.27238 -1.167723,-55.6179 -4.432118,-65.45653 C 67.204021,87.684295 66.511375,82.243931 68.77248,79.902514 z m 46.04101,181.685293 c 7.60724,29.45883 9.90933,33.79162 21.63975,40.73022 5.86873,3.47138 11.48339,6.29742 12.47675,6.28009 0.99336,-0.0173 5.91892,2.83968 10.94568,6.34895 5.02675,3.50927 14.53818,8.29358 21.13625,10.63179 7.48121,2.65122 13.41102,6.3982 15.75493,9.95524 2.06696,3.13713 10.47339,12.32842 18.68066,20.4251 8.20748,8.09667 14.93595,15.48823 14.95233,16.42562 0.0173,0.93743 3.74694,5.46289 8.29015,10.05662 4.54324,4.59372 10.81842,11.09467 13.94469,14.44656 3.12647,3.35187 11.32944,10.71813 18.229,16.36949 22.75153,18.63555 43.37592,51.45086 43.69128,69.51683 0.13955,7.99909 0.78648,9.06917 6.12767,10.13789 3.28438,0.65719 8.85757,2.2359 12.38488,3.50832 3.56561,1.28624 15.90753,1.92441 27.79551,1.43724 21.03276,-0.86191 21.50587,-0.77125 28.96262,5.54876 7.29249,6.18088 8.42025,6.42563 29.68541,6.44246 12.15781,0.009 25.02894,0.17114 28.60266,0.359 3.5737,0.1878 25.49092,0.62932 48.70489,0.98105 23.21397,0.35173 48.00375,1.55606 55.08841,2.6763 9.49416,1.50121 15.30674,1.31177 22.10592,-0.72052 5.07361,-1.51649 11.93884,-2.26547 15.25603,-1.66443 3.31721,0.60106 11.20647,-0.48702 17.53172,-2.41797 11.45429,-3.49667 11.52437,-3.4886 17.46465,2.00695 5.85345,5.41523 6.52427,5.50575 36.12916,4.87449 28.37604,-0.60502 36.88655,-1.4197 79.73802,-7.63256 9.45619,-1.37099 25.40351,-2.82777 35.43852,-3.23727 17.71376,-0.72285 18.40708,-0.56309 23.79244,5.48264 5.07762,5.70026 7.12029,6.32107 24.14033,7.33713 27.26748,1.62778 83.83632,0.3405 97.51762,-2.21907 27.89249,-5.2183 40.85224,-5.69432 45.45846,-1.66974 2.39161,2.08965 4.37916,5.56114 4.41676,7.71443 0.13176,7.55372 7.47676,8.81257 34.40296,5.89645 13.8378,-1.49869 38.2911,-3.54045 54.3407,-4.53727 16.0495,-0.99684 42.7957,-2.83798 59.4358,-4.09146 17.6455,-1.32917 30.5749,-1.47632 31.0227,-0.35303 0.4222,1.05928 2.35,3.45392 4.2839,5.32145 3.1113,3.00455 8.6345,3.10687 47.9691,0.88869 24.4491,-1.37874 46.8889,-2.41628 49.8662,-2.30561 2.9773,0.11077 18.0653,-0.18931 33.5288,-0.66662 15.4636,-0.47722 44.1829,-0.84933 63.8207,-0.82661 19.6378,0.0227 76.5961,-0.343 126.574,-0.81251 49.9779,-0.4695 102.0771,-0.27785 115.7761,0.42588 13.6989,0.70372 26.3638,1.05383 28.1442,0.77799 2.9807,-0.46177 59.4694,-5.54049 82.0994,-7.38128 5.3481,-0.43503 19.292,-2.70089 30.9864,-5.03526 17.4087,-3.47499 21.5672,-5.05559 22.9428,-8.72035 0.9241,-2.46182 4.4948,-11.87807 7.9351,-20.925 3.4402,-9.04693 7.0986,-22.34095 8.1297,-29.54231 2.7638,-19.30195 9.6985,-33.28397 18.4004,-37.0996 3.9368,-1.72618 7.1386,-4.24023 7.115,-5.5867 -0.066,-3.7712 11.1433,-21.29424 14.4847,-22.64385 1.6326,-0.65939 6.2289,-0.084 10.2139,1.27895 7.0599,2.41442 7.5371,2.1923 18.6293,-8.6712 6.2611,-6.13202 14.7044,-12.92524 18.763,-15.09608 4.0586,-2.17084 7.8537,-4.6573 8.4336,-5.52544 2.8136,-4.21184 35.8459,-17.93689 43.4903,-18.07034 5.401,-0.0943 27.6197,-12.04542 32.234,-17.33823 5.826,-6.68284 7.5721,-26.19918 5.7493,-64.26005 -2.1521,-44.93745 -3.7973,-141.7465 -2.4474,-144.01836 3.2785,-5.51771 -4.6542,-293.0828 -8.8613,-321.23385 -3.5117,-23.49677 -7.4309,-56.18581 -9.7602,-81.40563 -2.1525,-23.30664 -4.9767,-28.5004 -16.7272,-30.76118 -13.3332,-2.56528 -60.3154,-30.7226 -76.1651,-45.64719 -11.8177,-11.12785 -33.2452,-38.7498 -36.9494,-47.63104 -1.512,-3.62511 -7.1345,-10.57592 -12.4945,-15.44632 -5.3599,-4.87037 -10.2125,-11.04877 -10.7834,-13.72976 -0.5709,-2.68101 -2.3315,-12.15514 -3.9124,-21.05364 -1.5808,-8.89849 -3.7539,-17.2381 -4.829,-18.53246 -1.4164,-1.70515 -5.0173,-1.50163 -13.0737,0.73892 -6.1154,1.70077 -18.0144,3.3491 -26.4423,3.66299 -8.4278,0.31394 -17.6407,1.49211 -20.4731,2.61836 -9.3055,3.70016 -57.1461,9.77774 -69.3154,8.80571 -6.5549,-0.52358 -17.2674,-2.38311 -23.8056,-4.13227 -15.9236,-4.26011 -43.4605,-3.43127 -72.522,2.18279 -25.0789,4.84471 -23.7398,5.04092 -30.3722,-4.45056 -2.3043,-3.29754 -18.6422,-2.07962 -87.4199,6.51687 -12.412,1.55137 -25.013,2.25202 -28.0022,1.557 -5.6359,-1.31039 -43.2232,2.74462 -61.3456,6.6181 -8.1221,1.73603 -11.7615,1.52398 -16.8178,-0.97986 -5.5159,-2.73146 -13.9806,-2.84728 -58.3098,-0.79773 -47.4999,2.19613 -52.2121,2.08739 -56.0822,-1.29403 -3.6157,-3.15916 -8.5392,-3.58294 -34.1369,-2.93815 -66.113,1.66532 -79.5,1.34115 -83.358,-2.01835 -3.709,-3.22981 -14.6507,-2.91875 -40.8433,1.1611 -5.4133,0.84318 -15.1543,0.64777 -21.6466,-0.4343 -7.5898,-1.26499 -17.9702,-1.14654 -29.07518,0.33181 -9.49909,1.26452 -26.31207,3.05552 -37.36217,3.98002 -11.05009,0.92449 -21.61074,1.83484 -23.46812,2.023 -3.38895,0.34329 -5.88664,-2.66751 -8.33858,-10.05158 -1.12127,-3.37675 -2.83782,-3.74774 -11.56022,-2.49845 -5.63389,0.8069 -29.69566,2.77677 -53.47062,4.37744 -23.77496,1.6007 -48.14103,3.59811 -54.1468,4.43872 -10.18558,1.42562 -11.18644,1.13618 -14.88974,-4.30613 l -3.9702,-5.83455 -20.85628,1.91706 c -11.47097,1.05439 -25.20861,3.61268 -30.5281,5.6851 -8.14922,3.17487 -14.78381,3.63634 -42.14489,2.93136 -17.86021,-0.46017 -78.70398,0.4534 -135.20834,2.03015 -56.50439,1.57674 -112.95583,3.08797 -125.44764,3.35827 -24.44846,0.5291 -55.1243,-2.41831 -72.61245,-6.97663 -8.43844,-2.19949 -12.9364,-2.26604 -20.11411,-0.29758 -7.72752,2.11922 -10.65317,1.92984 -17.82255,-1.15372 -7.29474,-3.13744 -9.10056,-3.23945 -12.07456,-0.68218 -2.8446,2.44583 -3.25696,5.94718 -2.20946,18.76269 0.82304,10.07213 0.23204,19.86333 -1.63581,27.14249 -1.60795,6.26274 -3.79997,15.78397 -4.87144,21.15832 -2.3902,11.98997 -12.77644,33.46953 -20.87763,43.17676 -3.31076,3.96717 -6.00393,8.10909 -5.98483,9.20429 0.0783,4.4914 -23.44376,26.42661 -39.41142,36.75258 -16.70266,10.80124 -37.49182,20.06548 -48.27762,21.5139 -4.09897,0.55048 -5.61736,2.27547 -6.36546,7.23178 -1.46939,9.73776 -19.40779,18.73192 -38.00691,19.05656 -7.55859,0.13198 -17.09398,1.70933 -21.18984,3.50531 -8.78399,3.85161 -8.39521,-5.83481 -3.74206,93.22345 3.26543,69.516163 2.12185,213.521155 -1.99367,251.047277 -1.04613,9.539423 -2.5013,33.233083 -3.23369,52.652603 -0.73216,19.41947 -2.00429,35.99552 -2.82684,36.83564 -2.98958,3.05407 1.46394,70.24431 5.75852,86.87492 z"
         style="fill:#000000" />
      <g
         transform="matrix(0.71036762,0,0,0.71036762,295.04617,-14.540324)"
         id="g4015">
        <path
           id="path3120"
           style="fill:#000000;stroke:none"
           d="m 774.46875,17.75 c -8.04014,2.219344 -17.28749,-1.926181 -24.53125,3.25 -9.54057,3.739931 -20.10999,6.107108 -27.75,13.40625 -9.88823,5.685918 -20.56111,12.546138 -23.5,24.34375 -6.83913,16.236917 -4.14944,34.586944 -3.125,51.6875 1.82618,13.7826 11.85192,24.05763 20.0625,34.4375 4.92307,5.69126 12.61748,6.51847 18.875,10 13.27619,4.39736 27.65212,3.28724 41.40625,4.71875 13.64101,0.62939 27.82482,0.9927 40.375,-5.15625 10.71398,-3.26549 15.84581,-13.65519 21.78125,-22.125 2.36795,-3.78238 7.74365,-5.25449 8.40625,-10.3125 2.11023,-5.39672 -3.50658,-11.32632 -9,-8.875 -11.48146,2.50577 -19.12472,12.95986 -30.46875,15.75 -11.73028,5.01981 -24.75026,7.08128 -37.5,7.9375 -11.15126,-0.1267 -23.51881,-2.41943 -31.8125,-10.21875 -3.6465,-8.57025 -15.94094,-8.31417 -19.35988,-16.76628 -1.61175,-7.68104 -1.80853,-17.29033 5.01613,-22.51497 4.81682,-7.091432 13.4928,-7.631486 21.28125,-7.84375 14.71455,-0.429678 29.26282,-2.896336 43.875,-3.53125 7.77235,0.440932 15.56055,-1.146996 22.25,-4.9375 6.80094,-1.264205 17.11607,-1.421331 18.78125,-10 1.85501,-11.839424 -9.09087,-19.938582 -17.8125,-25.59375 -6.31026,-4.514156 -11.29295,-11.047231 -19.0625,-13.3125 -5.83236,-1.997683 -11.98592,-4.147925 -18.1875,-4.34375 z M 761.375,41.03125 c 14.67081,0.03884 29.8037,3.145305 42,11.6875 -8.43488,2.322437 -16.23491,6.489303 -25.20804,6.989711 -15.66692,1.859898 -31.77778,1.875638 -47.32321,4.322789 -2.57031,-0.819654 -7.97518,1.314148 -8.78125,-1.875 0.1196,-3.977294 2.10703,-7.22475 6.19352,-8.03459 8.93948,-2.893011 16.56441,-8.974154 25.30648,-11.99666 2.52724,-0.792395 5.1612,-1.137948 7.8125,-1.09375 z M 299.46875,-118.875 c -9.46482,0.003 -19.21024,-0.19348 -27.86218,3.88631 -10.37837,3.03043 -21.06936,4.12867 -31.59934,6.20091 -7.9035,2.166 -15.89164,3.89214 -23.28848,7.53778 -5.63184,2.204533 -12.62394,1.905278 -16.28125,7.53125 -9.63881,6.968792 -21.09093,13.251699 -26.15625,24.625 -3.6941,5.358075 -7.19545,14.759989 -0.5,19.28125 5.59408,3.479941 13.13827,-1.51523 12.78125,-7.90625 5.15441,-15.703016 21.6845,-22.845952 35.95009,-28.09322 7.75924,-2.350904 16.33531,-5.408011 24.23741,-5.09428 -3.99448,10.892152 -0.18764,22.698944 -0.24594,33.943177 2.33305,31.777798 6.8387,63.3870466 8.71469,95.181823 -1.82084,12.099282 -3.41204,24.277254 -3.79739,36.618097 -0.55547,20.714816 -3.78127,41.003583 -7.94779,61.204613 -0.74766,6.84069 -4.54427,15.58785 1.93268,20.70854 4.60022,4.473 10.3369,7.66958 16.79308,7.78987 3.93104,1.24314 10.60191,2.72947 11.89442,-2.82112 0.0707,-5.17618 5.92529,-0.89801 8.96875,-1.5 20.29571,1.58423 40.8699,-0.17543 60.875,-3.53125 16.36088,-3.71896 33.24985,-9.51229 45.46875,-21.375 5.46883,-8.76658 15.90915,-12.81986 20.46875,-22.28125 2.50053,-5.85365 3.6709,-12.19774 6.125,-18.125 2.39083,-8.540205 -2.69202,-16.689545 -3.625,-25.125 C 409.72984,57.299479 403.79406,45.034944 392.91729,37.826246 385.51587,30.644448 379.54588,22.047295 370.6875,16.375 c -5.10528,-4.832465 -11.7824,-6.7510162 -18.5,-7.6875 -4.17718,-0.9710872 -0.7824,-6.1150616 -4,-8.25 -3.95291,-2.4541366 1.23385,-5.2471732 1.90625,-8.03125 6.37292,-13.248992 7.77812,-28.144569 11.76415,-42.166957 3.7999,-15.712849 1.88502,-33.46663 -8.38357,-46.266779 -8.34554,-11.393354 -23.02366,-14.623954 -33.94308,-22.878764 -6.47695,-0.67296 -13.4337,0.14374 -20.0625,0.0313 z m 6.59375,19.125 c 7.63118,-0.36608 14.54615,3.334617 20.78125,7.28125 6.39859,2.806077 11.09168,9.021051 14.1875,14.875 0.49582,6.427839 0.42956,13.081116 1.38679,19.3221 -2.76706,11.275194 -5.10045,23.058778 -9.88679,33.64665 -5.38057,8.283414 -15.14227,12.094291 -23.25,16.9375 -5.38339,3.3369447 -11.85663,-0.4433596 -17.28125,3.03125 -3.19937,1.4479886 -8.6022,0.6930426 -8,-3.96875 -6.29317,-28.936343 -11.32723,-58.665789 -16.53125,-87.59375 4.58564,-1.702433 10.1615,0.246351 14.6875,-2.125 7.8012,-1.73061 15.92915,-1.158439 23.90625,-1.40625 z m 15.34375,123.34375 c 8.01763,1.910022 16.66487,1.118123 24.40625,3.5 9.62162,7.965787 22.47567,11.591234 31.21875,20.53125 6.68145,7.194367 10.59578,16.406209 16.0625,24.4375 6.27462,7.452385 5.0416,18.80857 1.59375,27.34375 -3.29265,8.54447 -10.47157,14.41614 -18,19.0625 -4.97025,4.87715 -10.46223,9.25644 -17.35242,11.15364 -4.78419,2.17093 -10.335,5.62024 -15.46008,2.37761 -11.14793,-1.96359 -22.65022,0.78109 -33.90345,-0.98104 -7.78212,-0.74033 -15.79978,-1.46286 -23.28405,-2.86271 -8.24416,-19.22401 -1.40351,-40.48112 -1.62909,-60.583917 0.62182,-12.27885 1.18579,-24.563124 2.12909,-36.822333 11.844,0.03928 22.83683,-5.854082 34.21875,-7.15625 z m 232.53125,2.8125 c -12.36176,1.774814 -25.96056,-1.42732 -37,5.875 -14.2571,4.543094 -27.93313,13.661173 -33.34375,28.1875 -7.25288,16.320086 -7.7894,35.23498 -2.0625,52.15625 3.2019,12.42632 9.87531,23.66837 19.00503,32.72139 6.4134,7.25721 14.90984,12.55462 24.58872,14.30986 13.26563,3.07419 26.82228,5.86218 40.40625,6.75 5.75422,-0.31184 12.06946,-1.53684 17.09375,1.875 8.17461,1.41992 14.20246,-6.42296 22.0625,-7.3125 9.37781,-1.91464 11.22314,-12.6141 13.34375,-20.28125 2.16613,-3.62942 6.08567,-7.5355 3.59375,-12.125 -2.33317,-5.91944 -11.6529,-9.05406 -15.71875,-3.15625 -9.87327,8.73449 -21.10485,17.90075 -34.9375,17.8125 -16.49198,1.69701 -33.28255,-0.77444 -48.71875,-6.25 -16.10069,-7.86087 -24.67284,-28.1806 -20.25,-45.25 4.31318,-6.831882 14.39305,-5.969266 21.5,-7.03125 27.60709,-4.821524 56.16496,-3.707266 83.84375,-8.28125 6.23751,-2.040669 8.56757,-9.578707 5.90625,-15.25 -3.18305,-12.749317 -13.26813,-22.612376 -25.1875,-27.4375 -9.85911,-6.811025 -22.50541,-7.190507 -34.125,-7.3125 z m -17.25,21.0625 c 17.33996,0.482969 36.06404,0.03162 51.25,9.4375 -0.15288,1.65928 -6.13911,1.527748 -8.4375,2 -14.248,-0.231411 -27.73645,4.401069 -41.90337,4.919618 -7.60466,0.378189 -16.23675,1.497339 -23.28413,0.517882 0.002,-3.635768 -1.78617,-7.565383 2.21875,-9.75 5.63939,-4.13354 13.24211,-6.697967 20.15625,-7.125 z"
           inkscape:connector-curvature="0"
           sodipodi:nodetypes="cccccccccccccccccccccccccccccccccccccccccccccccccccccccccccccccccccccccccccccccccccccccccccccccccccccccccccccccccccc" />
        <path
           id="path3096"
           style="fill:#000000"
           d="m 1421.1815,2.40571 c -4.6273,-5.29772 -5.1333,-12.92925 -1.292,-19.484 2.9179,-4.97909 4.7786,-5.74708 11.2823,-4.65672 6.1459,1.03035 8.5014,4.10868 8.4021,10.97999 -0.1291,8.92455 -3.7762,13.20688 -12.1524,14.2689 -3.898,0.49425 -5.0135,0.29616 -6.24,-1.10817 z m 375.631,14.56304 c -7.6196,-0.748338 -13.0076,5.985126 -19.9333,8.216641 C 1758.1349,34.418123 1746.192,54.371969 1743,74.625 c -1.0677,15.937155 -2.76,32.31117 0.4062,48.125 7.0241,7.28843 15.4578,13.30182 23.0626,19.875 7.2586,3.75729 16.2539,2.3753 23.3537,6.64271 22.5579,4.66751 46.5512,1.11571 67.1611,-8.75528 6.6724,-4.34677 15.2307,-8.20934 18.2664,-16.10618 3.1124,-8.26745 -6.1267,-17.09665 -14.1562,-13.375 -9.6077,7.15962 -19.7284,14.95806 -32.075,16.44302 -18.1086,3.04121 -38.2414,2.20101 -54.3938,-7.13052 -5.3469,-3.41379 -8.2643,-9.31895 -8.6562,-15.46875 -0.5021,-3.67592 -3.9787,-9.432206 -0.4376,-12.25 8.9176,-3.217197 18.8303,-3.38585 28.1563,-3.71875 9.4195,3.555639 19.703,2.462474 29.5313,1.15625 7.3598,-0.592315 12.459,-7.077845 20.0312,-6.4375 8.4562,-0.354909 17.4193,-0.648754 24.7812,-5.15625 6.3129,-0.439089 11.69,-6.920708 8.9376,-13.1875 -2.6297,-8.161979 -10.4202,-13.223214 -13.9376,-20.9375 -5.334,-5.999856 -13.9119,-7.828625 -19.4304,-13.811431 C 1835.2995,24.946108 1826.377,19.075478 1816.5,17.25 c -6.5642,-0.01447 -13.1226,-0.441681 -19.6875,-0.28125 z m 6.0937,17.90625 c 14.1909,1.463616 30.2571,6.755034 36.7813,20.6875 0.5142,2.577439 6.7384,8.49507 1.2813,8.25 -15.7766,3.003587 -31.9301,2.282184 -47.875,1.21875 -6.9894,-0.106549 -14.0017,0.276276 -20.9688,-0.4375 -0.6774,-7.00909 1.9426,-13.90632 7.3438,-18.40625 5.7077,-5.420671 13.8317,-6.976722 20.5,-10.875 0.9543,-0.271398 1.9476,-0.400011 2.9374,-0.4375 z m -182.1874,-18.5 c -14.4668,4.045103 -28.9092,9.589012 -41.5287,17.601864 -2.6152,2.373185 -5.2095,5.742175 -7.2526,7.960636 -0.3257,-5.802053 3.3911,-13.447421 -2.8125,-17.0625 -6.8493,-5.654277 -16.4417,-4.069963 -23.7664,-0.56859 -7.0815,2.36879 -17.1208,6.649892 -16.5461,15.50609 0.4449,5.758759 3.6491,14.926146 11.0937,13.15625 3.7069,-0.802174 6.1648,-4.88155 9.6876,-5.46875 6.9957,12.797079 2.4386,28.366183 1.7046,42.267645 -1.667,13.665525 -2.561,27.868395 0.077,41.357355 2.0121,6.48994 5.7894,14.60773 13,16.1875 5.8063,-0.54208 6.3283,-7.64997 10.0312,-11 7.005,-12.78201 1.0633,-27.96488 0.2582,-41.493151 -2.2505,-13.993254 -0.071,-29.390659 10.1481,-39.788099 8.4118,-7.34301 18.0006,-14.296753 28.8125,-17.34375 3.4762,-1.07041 7.4098,-1.503545 8.5652,2.814239 4.3857,5.994503 7.3534,12.81159 6.4348,20.373261 -0.8496,12.659945 -1.9113,25.541168 1.4954,37.889097 2.1108,11.544443 2.9744,23.569033 6.4917,34.716103 3.5419,6.32067 10.037,15.17009 18.2629,12.0823 9.8566,-4.7148 7.8131,-17.20561 10.2188,-26 2.1248,-13.63761 3.3682,-27.699982 2.2982,-41.459007 -2.6928,-17.194141 -6.9762,-34.81544 -16.642,-49.353493 -2.954,-4.743484 -7.8229,-7.135092 -13.134,-8.166424 -5.5317,-1.746873 -11.0554,-4.254379 -16.8972,-4.208576 z m -172.4376,8.28125 c -3.0591,-0.307725 -4.5884,3.833038 -6.2187,4.375 -8.1691,-4.150347 -16.7002,2.589991 -25.0313,3.125 -6.5234,1.694185 -16.0347,1.884868 -19.125,8.96875 -1.8906,6.236813 5.1564,12.496068 11.0938,9.375 6.0381,-1.237279 11.6309,-4.017003 17.6875,-5.1875 1.6404,22.069777 -1.2221,44.213501 -3.3437,66.03125 1.3597,8.44419 1.6651,17.49129 4.7812,25.4375 2.938,3.63594 4.331,8.1863 7.0312,11.84375 6.051,5.86557 18.8951,1.55088 18.0626,-7.4375 0.4126,-16.43733 8.0641,-33.65073 1.6562,-49.6875 1.1582,-16.387732 4.5381,-32.834741 2.8215,-49.402648 -1.0162,-5.988892 0.026,-15.734921 -7.6653,-17.378602 -0.5753,-0.130755 -1.165,-0.110446 -1.75,-0.0625 z M 1194.625,-88.75 c -10.5568,0.914286 -23.0604,6.615668 -24.1875,18.4375 -1.2267,5.964043 4.2034,13.594249 10.6875,10.5 1.9715,-0.221155 5.7385,-4.484931 5.6875,-0.1875 11.0023,36.381534 6.1786,74.872215 6.5602,112.343562 -0.1893,32.992556 -0.9173,66.101538 0.1898,99.031438 0.8017,7.10066 8.1437,13.78492 15.3437,10.09375 6.6649,-2.45792 9.1034,-11.56113 17.0313,-11.78125 13.6622,-2.02965 27.6976,1.85975 41.25,-1.625 12.5646,-1.87432 25.5112,-0.61843 38.1298,-2.99042 9.0203,-0.69022 17.46,4.60597 26.6198,4.01898 12.7658,0.13132 26.707,-9.26935 27.9691,-22.59106 0.8502,-6.3471 -4.3648,-15.53259 -11.6874,-12.15625 -4.8492,2.07492 -7.0494,8.93134 -13.343,6.87052 -19.8962,0.80031 -39.8161,0.30019 -59.6883,-0.12052 -14.615,0.79331 -29.4984,1.42197 -43.625,4.65625 -2.351,-0.4689 -6.5878,1.57523 -8.0313,0.40625 0.1591,-8.38558 -3.3386,-16.40475 -3.2812,-24.84375 -2.7114,-36.357031 0.5032,-72.821436 -1.4755,-109.2175502 -0.3544,-19.5969028 -3.2526,-39.4771938 -0.024,-58.8136998 0.2593,-6.597173 -5.1565,-10.958113 -9.9375,-14.28125 -3.7666,-3.884939 -8.2426,-8.377465 -14.1875,-7.75 z"
           inkscape:connector-curvature="0"
           sodipodi:nodetypes="csscscccccccccccccccccccccccccccccccccccccccccccccccccccccccccccccccccccccccccccccccccccccccccccccc" />
        <path
           style="fill:#000000"
           d="m 1451.0312,-470.25 c -12.9769,-0.34187 -25.7409,3.04954 -38.1562,6.15625 -5.9519,1.8903 -4.901,11.01929 1.0625,11.96875 8.1811,0.55656 16.2,-2.63251 24.5,-1.96875 8.0616,-0.59777 17.1857,0.71447 24.4687,-3.28125 4.6635,-4.89766 -1.3018,-11.23847 -6.375,-12.46875 -1.7964,-0.45353 -3.6582,-0.46465 -5.5,-0.40625 z m 61.4063,0.28125 c -4.9041,-0.5131 -11.4421,3.67189 -8.5313,9.15625 3.877,6.12337 12.3736,4.14911 18.4651,5.67985 9.2749,0.21072 17.779,3.86498 26.8162,4.7264 8.6468,-0.80038 7.4454,-14.52181 -0.125,-16.375 -11.9759,-2.70268 -24.3295,-3.37795 -36.625,-3.1875 z m 88.5625,11.0625 c -5.7325,-0.19511 -10.3966,7.76622 -5,11.53125 6.5925,3.96342 14.9595,3.60862 22.2645,5.68209 6.5758,0.87124 15.29,2.85715 20.4543,-2.30709 3.613,-5.61062 -2.6729,-12.15004 -8.5396,-11.49408 -9.6131,-2.12061 -19.3305,-3.5399 -29.1792,-3.41217 z m -237.25,1.0625 c -12.4914,1.35119 -24.8857,5.17242 -35.9062,11.0625 -4.7227,4.46075 -0.6009,15.27364 6.4374,12.25 12.0063,-6.08442 25.9727,-5.94237 38.7188,-9.375 7.0681,-5.19506 -0.8944,-16.06249 -8.4375,-13.96875 l -0.8125,0.0313 z m 325.4375,5.9375 c -6.5236,0.7088 -16.0886,1.53575 -18.25,9 -0.8174,4.96009 4.5813,8.92694 9.1517,7.12394 11.4915,-1.19381 23.2407,1.2057 34.5046,0.93856 6.5515,-3.24734 2.9499,-13.11452 -3.4063,-14.1875 -6.9166,-2.75917 -14.5849,-3.60194 -22,-2.875 z m 67.8437,13.84375 c -7.6251,-0.28995 -9.0104,11.02212 -3.1562,14.4375 5.8018,5.59525 13.5299,8.9177 20.8438,11.8125 4.6109,1.13572 10.3145,0.93101 13.4062,-3.21875 -2.8056,-6.38276 -10.1392,-8.44182 -15,-12.84375 -4.8771,-3.61956 -9.2663,-10.34594 -16.0938,-10.1875 z M 1280.8438,-436 c -15.4147,2.73022 -29.4932,11.49172 -40.125,22.71875 -2.8438,5.50453 5.0149,9.78493 9.2812,6.40625 11.4214,-4.58635 21.9543,-11.64979 34.1875,-13.84375 5.7505,-1.88654 9.1504,-11.14022 2.5937,-14.28125 -1.8206,-0.93758 -3.909,-1.16661 -5.9374,-1 z m 540.9687,33.71875 c -6.1767,-1.02444 -10.3476,7.42148 -5.1875,11.40625 9.8924,12.3695 24.0401,20.51486 35.8125,30.875 4.3504,3.20806 13.5524,3.92453 14.7187,-2.65625 -0.7788,-7.01961 -8.5908,-9.96622 -13.4062,-14.09375 -9.9172,-6.10373 -16.8385,-15.52337 -25.25,-23.40625 -1.9181,-1.42819 -4.2554,-2.34981 -6.6875,-2.125 z m -614.3125,1.625 c -12.6032,1.92961 -23.3642,10.42346 -31.4375,19.84375 -3.1822,3.31462 -3.2273,10.00669 2.2187,10.75 6.8467,0.82206 10.8954,-6.18519 16.8126,-8.28125 6.377,-4.09914 14.0497,-6.25061 20.375,-9.9375 4.0722,-5.52747 -1.602,-13.17147 -7.9688,-12.375 z m -64,40.8125 c -11.0786,1.84065 -18.6341,11.76728 -24.4375,20.53125 -3.0738,4.16086 -2.4692,12.73162 4.0313,12.59375 6.3156,-0.83928 8.4297,-8.12732 13.8197,-10.68978 4.0047,-4.68092 10.6559,-6.26846 13.899,-11.40397 2.9321,-5.40884 -0.5457,-12.46711 -7.3125,-11.03125 z M 1904,-336.25 c -5.8476,-0.49432 -9.2863,7.80293 -4.3704,11.40193 8.1215,9.57513 17.2452,18.37793 25.6204,27.69182 6.5899,3.71679 12.9521,-6.29708 7.9375,-11.40625 -6.9022,-10.26064 -15.3687,-19.56754 -25.1563,-27.0625 -1.2707,-0.53033 -2.6523,-0.77157 -4.0312,-0.625 z m -813.4688,19.9375 c -8.2584,3.1215 -7.9883,13.46266 -12.3437,19.90625 -3.6901,7.92707 -11.6404,14.7024 -11.5625,23.875 0.545,6.49112 9.9292,10.10965 13.6562,4.03125 2.3513,-3.66858 1.9322,-8.78735 6.0938,-11.3125 6.8608,-8.66912 11.9131,-19.836 11.4375,-31.03125 -0.6922,-3.17703 -3.8588,-6.22385 -7.2813,-5.46875 z m 865.9688,46.96875 c -6.6587,0.9513 -8.1703,9.79097 -4.25,14.40625 6.4263,11.98754 14.8349,22.79651 23.4375,33.21875 3.0447,4.20698 12.163,7.0533 13.4687,-0.0313 0.2869,-7.61797 -7.1699,-12.54432 -10.0624,-19.03125 -6.3301,-9.01619 -10.7769,-19.6474 -18.5313,-27.46875 -1.1584,-0.83387 -2.6287,-1.28637 -4.0625,-1.09375 z M 1054.8125,-240.25 c -7.5256,3.65761 -7.5055,13.60725 -9.7865,20.6375 -1.4797,9.70197 -5.7888,19.71055 -4.1822,29.6125 2.5222,5.8745 11.444,4.31674 13.2812,-1.375 4.9046,-10.4134 5.5797,-22.22754 8.875,-33.25 1.3139,-6.25256 0.4065,-16.42914 -8.1875,-15.625 z m 950.5313,56.03125 c -6.3413,0.89346 -5.1466,8.793 -3.5,13.09375 3.7426,11.50633 4.4013,24.21621 9.6874,35.15625 4.0611,5.15004 13.261,0.9127 11.7813,-5.625 -0.5361,-10.41268 -3.5409,-20.52756 -6.2187,-30.53125 -1.7542,-5.14722 -5.0457,-12.97262 -11.75,-12.09375 z m -972.875,27.125 c -8.58,2.11831 -7.737,12.6199 -8.5705,19.49923 -0.015,9.36117 -3.5395,19.05016 -1.3358,28.25077 4.2416,7.76347 18.0466,3.47354 16.8071,-5.37467 -0.4036,-11.41949 2.3085,-22.5771 2.4429,-33.87533 -0.3103,-4.95084 -3.9719,-9.30283 -9.3437,-8.5 z m 993.7187,65.21875 c -7.194,0.560666 -7.154,9.434063 -5.395,14.598185 4.0348,13.844284 -0.097,28.120676 -2.4487,41.745565 0.191,6.460358 9.9052,10.868908 13.3124,4.1875 4.2192,-7.215128 2.7574,-16.015276 5.2188,-23.8125 1.7102,-12.101555 0.8933,-26.057569 -7.0625,-35.84375 -1.0767,-0.676965 -2.3516,-1.011132 -3.625,-0.875 z m -1006.625,14.8125 c -8.2173,2.685331 -7.5837,13.011291 -8.0625,20 -0.8111,5.961723 -1.6518,15.719971 6.0625,17.375 7.4521,0.184272 9.3829,-9.22153 9.875,-15 0.5344,-7.287484 1.1522,-17.028024 -5.2187,-21.9375 -0.8181,-0.353486 -1.7578,-0.557182 -2.6563,-0.4375 z m -7.2813,61.5 c -7.8718,2.290346 -6.3764,12.646757 -3.625,18.40625 3.2683,6.4781028 4.287,13.918577 1.7188,20.75 -1.6978,5.843544 -2.4764,15.300627 5.125,17.125 6.5743,1.955265 13.7188,-3.589488 12.8438,-10.5625 2.1961,-11.117732 3.0657,-23.1644598 -2.6563,-33.40625 -2.0916,-5.8957328 -6.2423,-12.780654 -13.4063,-12.3125 z m 995.0313,21.375 c -8.1357,2.7131174 -7.3807,12.955062 -9.1875,19.8125 -0.5348,5.786355 -3.222,11.493928 -8.75,14.0625 -4.0158,3.60884 -0.6007,11.00449 4.875,9.6875 12.1056,-1.260147 20.64,-14.126957 19.9507,-25.811514 -0.174,-5.560277 1.023,-12.830135 -3.3882,-16.938486 -1.0279,-0.6475657 -2.2882,-0.9338156 -3.5,-0.8125 z M 143.375,44.21875 c -8.29595,0.545258 -18.08301,1.333937 -23.0625,9.15625 -3.50212,3.566154 -2.19586,10.102855 3.03125,10.90625 6.49843,1.056413 12.71269,-2.644567 19.31685,-2.557117 5.35486,-0.106134 13.62358,-1.420276 13.8394,-8.255383 -0.37741,-6.090674 -7.70394,-9.550093 -13.125,-9.25 z m 1815.6875,14.25 c -9.7517,2.350498 -17.0153,10.564981 -27.375,11.125 -5.0782,0.15654 -10.5555,5.854104 -6.5625,10.59375 5.579,5.976593 15.2692,3.594628 21.9756,1.217349 7.654,-3.451527 18.4479,-8.348974 17.9932,-18.311099 -0.4107,-3.014547 -2.9362,-5.192891 -6.0313,-4.625 z M 82.84375,64.3125 c -7.956096,2.02338 -13.477711,8.865148 -20.5,12.5625 -5.295769,4.277717 -12.829893,9.417157 -12.15625,17.03125 1.487173,5.597381 9.753786,7.44885 13,2.40625 9.305917,-7.417842 22.593253,-12.84061 26.625,-24.96875 0.19213,-3.790134 -3.029986,-7.498772 -6.96875,-7.03125 z m 934.46875,4.5625 c -6.7768,0.213672 -9.5064,7.89214 -7.8437,13.59375 0.3106,10.452013 3.4656,21.61223 1.75,31.6875 -6.011,3.61723 -3.9306,13.45411 2.875,14.75 8.8905,2.8716 18.0783,-6.82748 14.8387,-15.61244 -1.8344,-13.22639 -2.147,-26.756467 -4.12,-39.88756 -1.1743,-2.989254 -4.2946,-4.939711 -7.5,-4.53125 z m -986.5,70.625 c -10.385387,4.68699 -15.430468,16.53638 -19.3125,26.71875 -2.987982,6.57704 -0.996207,18.08678 7.90625,17.9375 7.06722,-1.24726 5.895229,-10.68396 9.0625,-15.53125 2.292114,-7.32493 7.875496,-13.08952 10.46875,-20.09375 0.631141,-4.6452 -3.159967,-9.65609 -8.125,-9.03125 z M 1012.5,150.8125 c -8.6069,3.05237 -5.5856,13.92728 -9.5803,20.30736 -2.8937,8.17813 -6.49349,17.01839 -5.32595,25.78639 2.48125,6.42033 13.33275,6.869 14.90625,-0.46875 4.0246,-10.34757 4.6616,-21.82092 8.75,-32.1875 1.5921,-6.05834 -1.194,-14.4133 -8.75,-13.4375 z m -21.59375,66.90625 c -5.65981,-1.00935 -8.97877,5.60326 -7.0625,10.34375 -0.77276,12.04132 -9.13585,22.56536 -9.40625,34.53125 0.98697,6.70973 11.79377,9.09614 14.1058,1.96669 5.97835,-13.23662 12.7977,-27.65835 10.55045,-42.52919 -1.16075,-3.2958 -4.96849,-4.54938 -8.1875,-4.3125 z M 24.78125,228 c -7.466214,0.96754 -6.434265,10.27947 -6.375,15.75 0.743909,10.7659 -3.042518,21.96368 -0.21875,32.46875 2.356899,6.02046 13.323432,7.10029 14.40625,-0.25 2.443733,-14.02163 2.674776,-28.81048 0.59375,-42.90625 -1.372802,-3.29768 -4.870931,-5.45196 -8.40625,-5.0625 z m 937.6875,58.59375 c -8.39837,1.07445 -6.99792,11.55066 -12.33062,16.07221 -6.98845,8.95041 -14.56677,20.36079 -11.45063,32.20904 4.41782,6.14927 14.02283,1.66012 15.125,-4.90625 2.88063,-9.00432 7.12498,-17.39419 12.66679,-25.0161 3.12296,-4.47352 7.1173,-11.34571 2.23946,-16.0464 -1.56024,-1.69237 -3.96453,-2.55787 -6.25,-2.3125 z M 53.34375,319.875 c -7.822806,0.9189 -8.239044,10.93497 -5.09375,16.46875 5.29049,10.4942 12.439543,20.26803 18.5,30.21875 2.113388,4.42548 9.279645,7.33626 12,1.8125 3.064983,-6.19366 -1.714869,-12.49731 -2.40625,-18.65625 -3.560674,-4.48997 -6.990502,-8.93525 -10.128731,-13.80188 -5.769705,-3.80845 -2.460966,-13.02112 -9.152519,-15.60437 -1.192041,-0.38495 -2.469461,-0.5408 -3.71875,-0.4375 z m 859.34375,35 c -10.3548,2.41225 -10.80298,14.86752 -17.53125,21.28125 -3.78159,6.08555 -12.67727,7.99401 -14.6875,15.125 -1.4709,5.62401 4.63942,10.38517 9.84375,7.9375 14.29108,-3.28574 21.75396,-17.47593 25.75,-30.375 2.80405,-3.42337 4.92901,-9.32541 0.75,-12.78125 -1.1326,-0.94716 -2.66076,-1.36821 -4.125,-1.1875 z m -804.65625,42.53125 c -8.489257,0.94695 -7.53101,13.36271 -1.21875,16.71875 9.11221,5.82657 18.26865,12.36539 28.53125,15.875 6.2998,0.59201 9.98405,-8.22403 4.875,-12.25 -5.56752,-6.96312 -14.26874,-9.44659 -21.90625,-13.15625 -3.45187,-2.67098 -4.92285,-8.09007 -10.28125,-7.1875 z m 756.65625,17.25 c -6.88618,2.06035 -11.42659,8.70041 -18.79625,9.51397 -7.77594,3.40358 -18.00412,7.18692 -20.235,16.26728 0.40316,7.08172 10.16456,9.81046 15.0502,5.18178 C 851.33842,439.299 864.42217,433.87424 869.75,422 c 1.23916,-3.53228 -0.85483,-7.95471 -5.0625,-7.34375 z m -674.625,39.75 c -6.35311,0.69468 -9.68068,10.93715 -2.9375,13.59375 9.28687,2.57992 17.20544,9.36252 26.9375,10.125 5.42971,0.96611 12.35524,-4.75937 8.59375,-10.15625 -5.23145,-6.12532 -13.99653,-7.43346 -21.00856,-10.54274 -3.81396,-1.14201 -7.62163,-2.78753 -11.58519,-3.01976 z m 584.21875,5.78125 c -7.53872,2.96909 -14.27245,7.6396 -22.59375,8.625 -9.11121,2.46049 -19.72276,3.73288 -26.65625,10.5625 -4.84242,7.25033 6.15538,16.79913 12.8125,11.09375 12.45762,-7.34241 28.0963,-8.15335 39.71875,-16.8125 3.40903,-3.27449 6.0445,-11.70813 -0.28125,-13.3125 -0.96931,-0.23096 -2.01773,-0.38822 -3,-0.15625 z m -512.375,23.09375 c -7.03835,0.21374 -8.0631,11.63645 -1.21875,13.09375 11.26805,5.01715 25.1485,13.21086 37.5,6.65625 5.05945,-3.50202 2.4652,-11.87167 -3.5,-12.4375 -7.99487,-2.39702 -17.06713,-0.32482 -24.28125,-5.3125 -2.7373,-1.13727 -5.46266,-2.22354 -8.5,-2 z m 421.4375,11.5 c -10.42225,0.74238 -23.42321,-1.00238 -31.09375,7.53125 -3.44156,6.21446 5.23612,12.22142 10.6875,8.90625 8.68505,-2.38184 19.8111,-0.25374 26.5625,-7.1875 2.55675,-4.16113 -1.22343,-10.00397 -6.15625,-9.25 z m -86.25,7.09375 c -7.21295,0.35699 -17.76204,2.9572 -18.28125,11.59375 1.33482,6.78665 10.2652,9.19436 15.25,4.71875 6.73302,-3.44808 15.61084,-1.58735 21.5,-6.375 3.1193,-4.98704 -3.39889,-9.03892 -7.84375,-9.03125 -3.493,-0.72685 -7.01766,-1.06786 -10.625,-0.90625 z M 355.625,505 c -5.5124,-0.31659 -14.67266,0.4362 -14.5,7.875 1.65009,8.01488 11.59755,6.66178 17.71875,7.34375 6.28414,0.49917 15.08447,3.69898 19.71875,-1.9375 3.28768,-6.54293 -3.28456,-14.10305 -10.21875,-13.09375 -4.23341,-0.31384 -8.47814,-0.21728 -12.71875,-0.1875 z m 179.25,4.0625 c -10.09773,1.7934 -21.61733,-0.75632 -30.78125,4.40625 -4.47027,4.37527 0.22009,12.66423 6.3125,11 10.5497,-0.17441 22.62467,2.30881 31.9375,-3.78125 4.25115,-3.96984 1.35646,-12.34849 -4.84375,-11.625 -0.87408,-0.0486 -1.75088,-0.046 -2.625,0 z m -72.84375,1.75 c -11.13137,2.39563 -22.70164,0.89157 -33.90625,0.5625 -5.72277,1.11285 -9.88181,9.96021 -3.59375,13.1875 7.34436,2.73594 15.53016,0.0697 23.03125,2.125 7.06589,0.38055 17.66482,1.87687 20.78125,-6.34375 1.80669,-4.45985 -0.84792,-10.49671 -6.3125,-9.53125 z"
           id="path3050"
           inkscape:connector-curvature="0" />
      </g>
    </g>
  </g>
</svg>
