<?xml version="1.0" encoding="UTF-8" standalone="no"?>
<!-- Created with Inkscape (http://www.inkscape.org/) -->

<svg
   xmlns:dc="http://purl.org/dc/elements/1.1/"
   xmlns:cc="http://creativecommons.org/ns#"
   xmlns:rdf="http://www.w3.org/1999/02/22-rdf-syntax-ns#"
   xmlns:svg="http://www.w3.org/2000/svg"
   xmlns="http://www.w3.org/2000/svg"
   xmlns:sodipodi="http://sodipodi.sourceforge.net/DTD/sodipodi-0.dtd"
   xmlns:inkscape="http://www.inkscape.org/namespaces/inkscape"
   width="2048"
   height="2048"
   id="svg3489"
   version="1.1"
   inkscape:version="0.48.4 r9939"
   sodipodi:docname="titlebox2.svg">
  <defs
     id="defs3491" />
  <sodipodi:namedview
     id="base"
     pagecolor="#ffffff"
     bordercolor="#666666"
     borderopacity="1.0"
     inkscape:pageopacity="0"
     inkscape:pageshadow="2"
     inkscape:zoom="0.27685547"
     inkscape:cx="1024"
     inkscape:cy="1024"
     inkscape:document-units="px"
     inkscape:current-layer="g3921"
     showgrid="false"
     inkscape:window-width="1276"
     inkscape:window-height="782"
     inkscape:window-x="0"
     inkscape:window-y="14"
     inkscape:window-maximized="0" />
  <metadata
     id="metadata3494">
    <rdf:RDF>
      <cc:Work
         rdf:about="">
        <dc:format>image/svg+xml</dc:format>
        <dc:type
           rdf:resource="http://purl.org/dc/dcmitype/StillImage" />
        <dc:title></dc:title>
      </cc:Work>
    </rdf:RDF>
  </metadata>
  <g
     inkscape:label="Layer 1"
     inkscape:groupmode="layer"
     id="layer1"
     transform="translate(0,995.63782)">
    <g
       id="g3921"
       transform="matrix(0.98657869,0,0,0.98657869,13.748204,0.13217134)">
      <path
         id="path3919"
         d="m 1495.1875,-591.03125 c -33.8813,0.14441 -68.0715,2.69724 -100.6356,12.16149 -27.3765,3.67485 -55.2511,3.46135 -82.8331,4.74476 -11.7773,-1.49846 -22.621,-7.77854 -34.7375,-7.97331 -41.3446,-3.7819 -82.5808,4.07377 -123.9184,4.46937 -30.6967,0.24456 -61.4551,1.55838 -92.1217,-0.1757 -7.3356,0.009 -14.0739,-1.92448 -20.2419,-5.89257 -8.8311,-4.88377 -19.1077,-7.31717 -29.1053,-5.33476 -87.83943,1.32752 -175.61725,5.0894 -263.37525,8.93822 -25.33953,-8.42501 -52.49058,-2.90031 -78.65532,-3.86308 -72.35003,1.12855 -144.70877,2.31699 -217.00057,5.52581 -22.52218,0.26639 -45.48516,0.17308 -67.40661,-5.00648 -18.30744,-9.79172 -39.99388,-6.20852 -59.93361,-5.81274 -26.9593,2.0509 -53.79112,5.82443 -80.70858,8.10485 -8.45985,0.98126 -16.70556,4.87493 -24.04531,7.92664 -17.61412,-8.19774 -42.26522,0.30318 -47.78125,19.75 -3.53326,9.10855 -0.13841,19.4589 5.96875,26.4375 2.98923,12.57565 -5.06024,24.18799 -6.25,36.5625 -2.30028,13.78544 -5.89298,27.39041 -12.59375,39.65625 -6.43557,14.10718 -14.35249,29.42575 -11.53125,45.34375 -0.0723,1.97158 -5.92909,2.11156 -7.69364,3.67177 -31.80591,12.06569 -66.182207,17.34178 -97.15011,31.73448 -10.499366,0.69134 -23.390165,-4.36615 -31.9375,4.15625 -6.5020196,8.9592 -5.2267537,21.34575 -0.6875,30.875 -6.971641,23.69422 -3.8771252,48.88356 -6.6254228,73.24372 -5.7731066,113.81731 -8.9120944,227.767118 -9.4995772,341.72503 -0.3714733,18.456939 -4.6348245,36.57547 -7.84375,54.5 -2.97639,29.63517 3.5266316,59.10947 3.6574779,88.73743 2.0276628,43.38195 4.267908,86.95636 2.9050221,130.32507 -1.9877937,12.13135 -7.260849,24.42069 -3.779618,36.7732 1.7938969,12.3567 -2.528081,27.03679 6.935868,37.1018 7.9253862,8.39044 20.918233,4.58169 30.28125,1.21875 16.578214,-7.09897 35.313506,-10.65093 52.96875,-5.96875 10.960626,0.48996 22.24729,5.14297 28.0625,14.90625 9.86597,10.51804 22.60732,18.39846 32.0625,29.1875 1.35151,11.81668 9.21633,21.06076 16.71875,29.6875 10.77699,14.86696 13.82786,33.34479 20.16665,50.06531 3.77592,6.54281 6.73148,14.33619 2.97112,21.6207 -4.05193,12.64558 -7.43755,28.97859 2.92473,39.62649 4.73607,4.49805 10.76405,8.3769 11.71875,15.34375 5.19642,13.61164 22.18376,19.64427 35.44561,14.75551 36.16659,-8.82199 73.56935,-11.55224 110.39814,-15.88051 1.15024,2.27191 2.7201,6.69711 5.53125,8.84375 11.362,10.21545 28.0605,7.20334 42.03125,7.40625 31.02247,-1.89526 61.7721,-6.97832 92.8681,-8.01614 22.83922,-1.60277 46.01227,-1.8265 68.4444,2.70364 30.70982,2.96204 61.23114,-4.86545 91.9375,-4.03125 8.76615,0.0776 15.85657,7.81504 25.03125,6.3125 31.20626,-3.07679 62.70958,-3.68768 94.00709,-3.87472 10.10566,-2.04089 20.93074,-4.77845 31.02416,-4.34403 1.9423,14.93967 19.40527,25.78348 33.48324,19.50518 53.26788,-9.71308 107.78676,-9.6559 161.73551,-11.09893 4.99639,2.07249 8.20324,7.8122 14.3125,7.65625 9.6234,0.25871 18.7461,-3.6608 28.4375,-3.53125 40.0245,-3.27166 80.2385,-1.59484 120.3437,-2.75885 32.1449,0.0172 64.5622,0.091 96.4688,3.1651 9.3509,7.34627 21.6247,9.31508 33.155,7.35581 34.2965,-2.06345 68.3644,-7.36599 102.7738,-7.63608 70.1104,-3.24471 140.3705,-6.45865 210.5087,-6.15723 3.7775,5.67091 9.2102,10.3449 16.2812,10.9375 15.5122,2.63255 30.8584,-2.74435 46.2422,-3.53157 32.9893,-4.3517 66.3058,-3.45081 99.4766,-3.12468 24.646,-0.58215 50.2631,-1.20951 73.3125,-10.5625 12.2778,-9.35394 12.2509,-26.53094 12.0313,-40.59375 2.7809,-15.05481 13.7664,-26.90538 20.0937,-40.59375 18.8925,-27.1465 45.2082,-47.93156 69.5625,-69.78125 11.9459,-9.61339 23.5928,-20.92289 38.5626,-25.52908 13.4376,-3.20118 27.7522,-2.32337 41.2812,-3.87717 4.3685,10.15907 14.6323,18.64642 26.2187,17.75 14.2104,-1.41028 22.3129,-16.49276 22.852,-29.58853 2.3228,-43.41328 -7.864,-86.50764 -4.7583,-129.91147 2.643,-36.04583 1.509,-72.2807 1.6019,-108.40589 0.1289,-45.31761 -1.0049,-90.71067 1.7107,-135.96911 0.996,-16.056524 5.7257,-31.686079 4.7396,-47.937447 -0.9527,-32.107399 -5.9905,-64.003969 -5.5297,-96.187514 -0.4018,-28.463789 2.2758,-56.877389 2.9775,-85.281289 -3.639,-50.31176 -5.2341,-100.77566 -5.255,-151.21864 0.4087,-5.91763 -0.5564,-12.56906 0.8488,-18.03136 12.7511,-11.647 7.9017,-34.95408 -7.5938,-41.6875 -11.5563,-7.96617 -25.1813,-13.18812 -36.0937,-21.96875 1.0053,-8.15862 -2.7997,-15.92975 -9.3193,-20.65362 -15.2825,-13.32051 -36.0524,-19.03122 -49.6704,-34.5317 -25.5225,-23.51919 -51.3316,-48.30846 -64.2603,-81.34593 -5.5414,-10.47717 -13.4554,-20.11652 -15.0937,-32.21875 -3.8032,-12.1844 -20.3094,-19.59073 -30.6876,-10.6875 -3.7437,1.83959 -6.636,-2.9559 -10.4062,-3.3125 -27.7894,-10.25849 -58.1898,-4.97272 -87.2187,-6.18258 -83.0315,0.11119 -166.0647,-0.0399 -249.0938,-0.44242 z"
         style="fill:#ffffff"
         inkscape:connector-curvature="0" />
      <path
         style="fill:#000000"
         d="M 1517.6875 426.09375 C 1463.0178 426.03289 1418.3308 429.44108 1405.4375 435.125 C 1397.4935 438.62704 1387.769 439.73521 1347.5625 441.71875 C 1300.9922 444.01624 1299.0123 443.96041 1292.0312 439.8125 C 1282.1172 433.9219 1247.2101 432.51401 1207.9688 436.4375 C 1179.743 439.25963 1134.6945 440.53029 1074.5312 440.1875 C 1049.5056 440.04492 1047.0332 439.63124 1037.25 434.125 L 1026.7812 428.25 L 975.34375 429.1875 C 920.24123 430.20157 808.46594 434.35649 770.84375 436.78125 C 752.85691 437.94052 746.52407 437.58196 741.5625 435.125 C 736.27028 432.50437 724.97445 432.20451 672.71875 433.40625 C 638.33384 434.19685 586.66721 435.14144 557.90625 435.5 C 529.1453 435.85857 498.41399 436.97805 489.625 437.96875 C 470.4703 440.12792 416.73253 438.91436 399.03125 435.9375 C 392.06205 434.76547 384.65714 432.33006 382.5625 430.5 C 379.41532 427.75026 373.16004 427.29362 346.5625 427.90625 C 328.86075 428.31401 309.82694 429.75292 304.28125 431.125 C 298.73573 432.49705 284.58789 434.10902 272.8125 434.6875 C 254.70991 435.57683 249.91839 436.59159 241.90625 441.25 C 233.58089 446.09057 231.95444 446.41963 228.34375 443.875 C 223.65405 440.56997 208.20488 440.68107 204.0625 444.0625 C 202.539 445.30605 199.8564 449.19107 198.125 452.6875 C 195.17136 458.65181 195.29503 459.45671 200 465.59375 C 205.88355 473.26755 206.28684 482.99001 201.34375 498.3125 C 199.51734 503.97394 197.21201 514.37512 196.21875 521.4375 C 195.19797 528.69658 190.51496 542.70571 185.4375 553.65625 C 172.91876 580.65435 170.98152 587.88023 174.28125 595.46875 C 175.74076 598.82588 176.36858 602.51007 175.6875 603.65625 C 173.51258 607.3167 138.33855 619.67172 106.53125 627.9375 C 89.58263 632.34194 73.041152 637.94419 69.75 640.375 C 64.857864 643.98835 61.164477 644.71287 49.53125 644.3125 L 35.28125 643.8125 L 34.78125 650.40625 C 34.464762 654.36329 35.564662 658.04996 37.53125 659.625 C 40.368877 661.89755 40.394197 662.87374 37.875 666.90625 C 35.969929 669.95616 34.397525 683.73087 33.28125 706.8125 C 32.343272 726.2027 30.502587 764.18985 29.1875 791.21875 C 27.872414 818.24766 26.288051 861.97691 25.6875 888.40625 C 25.087162 914.83561 24.23518 944.63662 23.78125 954.625 C 23.327298 964.6134 22.902236 1000.1601 22.84375 1033.625 C 22.768678 1076.3756 21.923299 1097.3722 19.96875 1104.1562 C 13.428259 1126.8597 12.344924 1142.4145 15.375 1170.2188 C 16.98177 1184.9614 19.263379 1230.858 20.46875 1272.1875 C 22.502576 1341.9231 22.403639 1348.0551 18.84375 1357.5938 C 16.254643 1364.5312 15.519803 1369.9465 16.625 1374.25 C 17.526695 1377.7568 18.151979 1386.6796 18 1394.0625 C 17.791563 1404.1855 18.48666 1407.7675 20.84375 1408.625 C 22.562561 1409.2504 31.41389 1407.216 40.5 1404.0938 C 64.82627 1395.7347 68.155467 1395.3373 89.125 1398.375 C 114.27445 1402.0182 118.1603 1403.6143 126.53125 1413.8125 C 130.40972 1418.5376 140.79496 1428.1707 149.625 1435.2188 C 163.42876 1446.2368 165.71068 1448.9547 165.8125 1454.7812 C 165.89807 1459.6832 168.5262 1464.5084 175.34375 1472.2188 C 184.42822 1482.4929 193.90306 1503.213 197.9375 1521.5938 C 198.83599 1525.6877 201.57656 1532.1942 204 1536.0312 C 208.67911 1543.4391 208.71607 1542.619 201.78125 1571.1562 C 199.53214 1580.4121 201.52882 1585.3603 209.53125 1590.4062 C 212.44429 1592.2431 215.49695 1596.5425 216.3125 1599.9688 C 217.12804 1603.3951 219.74506 1607.9207 222.125 1610 C 226.29739 1613.6456 227.17064 1613.6216 247.0625 1609.5312 C 275.59643 1603.6639 307.81678 1599.0278 323.34375 1598.5625 C 330.51824 1598.3476 341.54191 1597.0925 347.84375 1595.7812 C 354.1456 1594.4701 361.93536 1593.9405 365.1875 1594.5938 L 371.125 1595.7812 L 366.375 1599.8125 C 362.52285 1603.0897 362.06555 1604.5863 364.03125 1607.6875 C 367.46712 1613.1081 392.08365 1613.3212 431.4375 1608.25 C 471.06436 1603.1436 544.81364 1600.8384 548.71875 1604.5938 C 552.13535 1607.8794 572.35782 1607.6276 618.5 1603.6875 C 652.39496 1600.7932 653.59287 1600.8436 659.46875 1605.0312 C 665.25594 1609.1557 666.81483 1609.2116 695.03125 1606.75 C 711.26392 1605.3339 733.42926 1604.6549 744.28125 1605.2188 C 756.71586 1605.8648 764.97751 1605.4152 766.65625 1604 C 770.22496 1600.9916 809.92544 1598.8237 809.59375 1601.6562 C 809.45598 1602.8328 808.76854 1605.8219 808.0625 1608.3125 C 807.24595 1611.1929 808.25072 1614.6031 810.8125 1617.6562 C 814.60445 1622.1755 815.45563 1622.2832 825.3125 1619.75 C 841.80147 1615.5123 884.58042 1611.822 941.0625 1609.75 C 991.41962 1607.9027 993.19709 1607.9878 997.21875 1612.1562 C 999.50332 1614.5242 1001.6816 1616.4434 1002.0625 1616.4375 C 1002.4435 1616.4308 1007.9217 1615.3709 1014.2188 1614.0625 C 1032.1836 1610.3296 1167.4397 1608.7883 1229.125 1611.625 C 1245.5283 1612.3793 1249.7582 1613.3182 1253.25 1616.9375 C 1257.0613 1620.8878 1259.5149 1621.2304 1278.1875 1620.4062 C 1289.5877 1619.9031 1299.4836 1619.1196 1300.1562 1618.6875 C 1303.9609 1616.2433 1382.3927 1611.8509 1471.8125 1609.0625 C 1528.1421 1607.306 1576.6795 1605.8964 1579.6562 1605.9375 C 1588.0078 1606.0531 1596.7191 1609.874 1596.7812 1613.4375 C 1596.8545 1617.6334 1605.2432 1619.4698 1616.5938 1617.7812 C 1629.5021 1615.8609 1682.3734 1610.4062 1687.4688 1610.4688 C 1689.8176 1610.4975 1704.703 1610.9073 1720.5625 1611.375 C 1746.9475 1612.1532 1785.9803 1609.3961 1803.25 1605.5312 C 1812.3318 1603.4988 1814.4809 1598.8063 1814.8438 1580.2188 C 1815.1186 1566.1399 1815.931 1563.5894 1824.8125 1548.8125 C 1830.1288 1539.9674 1834.4602 1531.6668 1834.4375 1530.375 C 1834.415 1529.0831 1837.9211 1524.1764 1842.2188 1519.4688 C 1846.5164 1514.7611 1851.9315 1508.423 1854.25 1505.375 C 1856.5685 1502.327 1863.7205 1495.0048 1870.1562 1489.0938 C 1926.7343 1437.1282 1941.4564 1426.7293 1960.2812 1425.4375 C 1966.9638 1424.9789 1980.3292 1423.8272 1990 1422.9062 L 2007.5938 1421.25 L 2007.6875 1426.7188 C 2007.782 1432.1323 2015.1745 1440.7963 2019.5625 1440.6562 C 2023.071 1440.5444 2026.2167 1437.8351 2028.8125 1432.6875 C 2031.9496 1426.4663 2031.0077 1385.9501 2026.7812 1346.3125 C 2024.4502 1324.4499 2024.0206 1311.938 2025.375 1304.6875 C 2027.3542 1294.0872 2027.5602 1280.5238 2027.5 1162.4062 C 2027.4497 1064.0073 2028.1415 1042.3093 2031.5 1035.4375 C 2033.7263 1030.8818 2034.0888 1021.7352 2033.125 996.40625 C 2032.4328 978.21866 2031.0679 960.75713 2030.0625 957.59375 C 2027.6138 949.88909 2028.4286 851.68739 2031 844.875 C 2032.321 841.37516 2032.2132 832.83356 2030.6875 820.34375 C 2029.3993 809.79868 2027.6506 768.39113 2026.7812 728.34375 C 2025.2418 657.42702 2025.3122 655.49587 2029.4375 653.59375 C 2032.0729 652.37864 2033.8617 649.15319 2034.1875 645.09375 C 2034.6709 639.06927 2033.3751 637.75048 2017.4688 627.78125 C 2007.9944 621.84313 1999.3167 617.01201 1998.1875 617.03125 C 1997.0582 617.05097 1993.0912 614.28631 1989.3438 610.90625 C 1984.0073 606.09303 1982.7824 603.59925 1983.75 599.4375 C 1984.6087 595.7443 1983.767 593.08306 1981 590.6875 C 1974.6884 585.22314 1951.3612 570.86866 1948.8438 570.90625 C 1947.5869 570.9254 1934.8319 559.85885 1920.5 546.3125 C 1893.1695 520.47987 1871.7188 493.51119 1867.7188 479.90625 C 1866.416 475.47546 1861.8305 466.73798 1857.5312 460.5 C 1853.232 454.26204 1849.6743 446.86721 1849.625 444.0625 C 1849.5761 441.25779 1848.2227 437.21051 1846.5938 435.0625 C 1843.6509 431.18183 1841.1483 431.48959 1834.2812 436.625 C 1831.5206 438.68953 1828.4917 438.17092 1819.0625 433.90625 C 1812.593 430.98019 1803.0825 428.08311 1797.9062 427.46875 C 1792.7299 426.85448 1741.9109 426.57477 1684.9688 426.875 C 1628.0267 427.17535 1570.385 427.09017 1556.875 426.6875 C 1543.4657 426.28783 1530.3036 426.10779 1517.6875 426.09375 z M 1828.6562 446.5625 C 1831.5293 446.62633 1831.8013 449.38911 1832.9375 463 C 1834.1857 477.95333 1835.388 481.63363 1842.5938 492.84375 C 1847.1137 499.87548 1852.8755 510.80807 1855.4062 517.15625 C 1857.937 523.50444 1861.2425 530.1088 1862.75 531.84375 C 1864.2575 533.5787 1869.2731 541.19821 1873.875 548.75 C 1895.4414 584.14069 1904.9788 594.60281 1923.5312 603.1875 C 1929.1226 605.77476 1934.7093 609.7045 1935.9375 611.90625 C 1938.9372 617.28351 1960.1879 632.30021 1974.4375 639.125 C 1980.782 642.16365 1990.6159 645.22384 1996.3125 645.90625 C 2010.5362 647.61014 2012.3923 650.28969 2008.0312 663.125 C 2005.1738 671.53546 2004.3766 685.10404 2003.9062 735.40625 C 2003.5878 769.46282 2002.5375 810.79459 2001.5625 827.25 C 1996.6964 909.37198 1996.4929 919.21794 1999.25 943.90625 C 2003.4221 981.25883 2007.0542 1187.4866 2003.75 1199.75 C 2001.9774 1206.3287 2001.2498 1228.4188 2001.5 1269.1562 C 2001.7027 1302.0295 2001.8401 1343.3557 2001.8125 1360.9688 L 2001.7812 1392.9688 L 1996.4375 1392.6562 C 1991.1356 1392.3297 1957.9707 1399.389 1942.75 1404.0938 C 1938.3873 1405.4422 1933.2344 1408.3629 1931.3125 1410.5625 C 1929.3906 1412.762 1926.8951 1414.5745 1925.75 1414.5938 C 1922.492 1414.6506 1903.0792 1429.5173 1892.6562 1439.9375 C 1878.2193 1454.3705 1853.8668 1474.4996 1837.9688 1485.125 C 1828.2829 1491.5983 1807.039 1520.2175 1804.4688 1530.2812 C 1803.3529 1534.6505 1800.212 1540.9729 1797.5 1544.3125 C 1791.1574 1552.1229 1786.5835 1563.733 1784.9375 1576.1875 C 1784.2193 1581.6221 1782.3997 1586.5717 1780.875 1587.1875 C 1779.3502 1587.8033 1773.5263 1585.7392 1767.9375 1582.5938 C 1756.1253 1575.9455 1748.7713 1575.655 1688 1579.5 C 1608.6585 1584.5199 1506.6797 1587.349 1453.2812 1586.0312 C 1438.5978 1585.6689 1379.5213 1585.9992 1322 1586.75 C 1264.4787 1587.5008 1216.1758 1587.3456 1214.6562 1586.4062 C 1213.1367 1585.4669 1176.1277 1585.2661 1132.4375 1585.9688 C 1088.7473 1586.6715 1039.2204 1587.0281 1022.375 1586.75 L 991.75 1586.25 L 989.5 1580.125 C 988.21324 1576.6312 985.25071 1573.5575 982.625 1573 C 969.15293 1570.1396 754.5124 1573.1938 697.375 1577.0625 C 647.59869 1580.4328 536.16507 1582.1723 498.90625 1580.1562 C 484.21523 1579.3613 458.22995 1577.9082 441.1875 1576.9375 C 384.61794 1573.7154 297.01097 1577.9266 252.96875 1585.9688 C 248.58278 1586.7691 242.60746 1586.8665 239.6875 1586.1875 L 234.375 1584.9688 L 234.09375 1553.5 C 233.88025 1529.1484 232.99433 1519.8872 230.15625 1512.5 C 228.13985 1507.2514 226.45538 1501.6526 226.40625 1500.0625 C 226.3612 1498.4723 223.35332 1492.9558 219.75 1487.8125 C 216.14667 1482.6692 211.64514 1473.9339 209.71875 1468.375 C 207.79257 1462.8161 202.33702 1453.3258 197.59375 1447.2812 C 192.85069 1441.2366 188.95674 1435.4004 188.9375 1434.3125 C 188.88234 1431.1527 167.37884 1404.2172 159.84375 1397.875 C 144.27434 1384.7703 123.11576 1372.7934 111.28125 1370.375 C 104.62748 1369.0153 89.810547 1366.0224 78.375 1363.75 C 45.075379 1357.1329 46.692513 1358.3464 46.375 1340.1562 C 46.225817 1331.6093 45.070807 1321.2668 43.78125 1317.1875 C 41.914344 1311.2822 36.383284 1156.4552 37.96875 1154.4688 C 38.17787 1154.2065 38.480792 1128.5249 38.65625 1097.4062 C 38.94913 1045.4981 40.506936 1007.3948 43.5 978.1875 C 44.564043 967.80507 45.166084 966.7702 50.84375 965.53125 C 59.745501 963.58872 60.976313 959.41337 58.40625 940.09375 C 55.224557 916.17708 54.963635 887.50963 57.0625 798.21875 C 59.387176 699.32325 59.466695 673.81128 57.5 670.75 C 55.099675 667.01367 58.879874 665.60961 76.8125 663.53125 C 90.803383 661.90969 93.984561 662.14526 98.15625 665.25 C 102.35152 668.37237 106.17583 668.69243 124.875 667.34375 C 143.63769 665.99048 148.31567 664.8626 158.3125 659.28125 C 173.9582 650.54601 182.51836 643.73865 196.21875 629.15625 C 202.55891 622.4079 210.6079 615.16385 214.09375 613.0625 C 217.57957 610.96116 222.99753 605.80567 226.125 601.59375 C 231.46951 594.39606 231.69211 592.98844 230.21875 578.5625 C 229.02475 566.8725 229.72612 557.65401 233.125 539.84375 C 235.93593 525.11608 237.57091 507.93749 237.53125 493.4375 C 237.4716 471.79697 237.79262 470.07438 242.84375 464.84375 L 248.21875 459.28125 L 252.53125 463.78125 C 256.86639 468.27459 256.89743 468.27518 313.15625 464.875 C 351.35362 462.5664 383.22048 461.86765 412.40625 462.71875 C 436.05331 463.40833 460.89893 463.12635 467.625 462.09375 C 474.35106 461.06115 501.58992 459.52592 528.125 458.6875 L 576.34375 457.1875 L 579.375 463.1875 C 581.98824 468.39559 583.28981 469.02281 589.09375 467.90625 C 603.07315 465.21692 705.30227 459.89627 721.65625 461 C 731.0607 461.63473 754.13194 461.55574 772.90625 460.84375 C 791.68058 460.13176 820.90915 459.29615 837.875 459 L 868.71875 458.46875 L 870.125 463.78125 C 871.4793 468.96198 871.92544 469.07459 888.4375 468.1875 C 897.75085 467.68717 923.60062 465.65458 945.875 463.65625 C 971.87919 461.32331 998.58961 460.29291 1020.5312 460.8125 L 1054.7188 461.625 L 1054.8125 466.96875 C 1054.9054 472.29247 1054.9419 472.30813 1073.0312 471.34375 C 1083.0024 470.81219 1094.0278 469.46602 1097.5312 468.375 C 1101.0348 467.28397 1112.7399 465.60122 1123.5312 464.625 L 1143.125 462.84375 L 1144.625 468.375 C 1145.6501 472.17686 1147.5452 473.89643 1150.6875 473.84375 C 1155.6875 473.75984 1190.1262 469.99702 1223.1562 465.9375 C 1243.1178 463.48416 1244.3977 463.57225 1248.9688 467.71875 C 1253.6232 471.94094 1254.7233 472.00252 1283.4375 469.34375 C 1299.7582 467.83259 1341.4245 465.13776 1376.0312 463.34375 C 1410.638 461.54974 1446.1539 459.01871 1454.9375 457.71875 C 1463.7211 456.41882 1479.9922 454.31599 1491.125 453.0625 C 1502.2578 451.80906 1514.9275 450.05127 1519.25 449.15625 C 1531.1321 446.6959 1545.7191 449.39818 1553.1562 455.4375 C 1559.3998 460.50751 1560.8973 460.72647 1583.6562 460.0625 C 1596.8255 459.67833 1615.2755 458.78756 1624.6562 458.0625 C 1634.0369 457.33741 1670.0387 455.77069 1704.6562 454.59375 C 1739.2737 453.41681 1771.4118 451.753 1776.0938 450.90625 C 1780.7757 450.0595 1792.7772 449.03323 1802.75 448.59375 C 1812.7228 448.15425 1823.2922 447.38177 1826.2188 446.875 C 1827.1988 446.70531 1827.9932 446.54777 1828.6562 446.5625 z "
         transform="matrix(1.0136039,0,0,1.0136039,-13.935233,-1009.3163)"
         id="path4058" />
      <g
         transform="matrix(0.80426991,0,0,0.80426991,198.89866,-17.205541)"
         id="g4015">
        <path
           id="path3120"
           style="fill:#000000;stroke:none"
           d="m 774.46875,17.75 c -8.04014,2.219344 -17.28749,-1.926181 -24.53125,3.25 -9.54057,3.739931 -20.10999,6.107108 -27.75,13.40625 -9.88823,5.685918 -20.56111,12.546138 -23.5,24.34375 -6.83913,16.236917 -4.14944,34.586944 -3.125,51.6875 1.82618,13.7826 11.85192,24.05763 20.0625,34.4375 4.92307,5.69126 12.61748,6.51847 18.875,10 13.27619,4.39736 27.65212,3.28724 41.40625,4.71875 13.64101,0.62939 27.82482,0.9927 40.375,-5.15625 10.71398,-3.26549 15.84581,-13.65519 21.78125,-22.125 2.36795,-3.78238 7.74365,-5.25449 8.40625,-10.3125 2.11023,-5.39672 -3.50658,-11.32632 -9,-8.875 -11.48146,2.50577 -19.12472,12.95986 -30.46875,15.75 -11.73028,5.01981 -24.75026,7.08128 -37.5,7.9375 -11.15126,-0.1267 -23.51881,-2.41943 -31.8125,-10.21875 -3.6465,-8.57025 -15.94094,-8.31417 -19.35988,-16.76628 -1.61175,-7.68104 -1.80853,-17.29033 5.01613,-22.51497 4.81682,-7.091432 13.4928,-7.631486 21.28125,-7.84375 14.71455,-0.429678 29.26282,-2.896336 43.875,-3.53125 7.77235,0.440932 15.56055,-1.146996 22.25,-4.9375 6.80094,-1.264205 17.11607,-1.421331 18.78125,-10 1.85501,-11.839424 -9.09087,-19.938582 -17.8125,-25.59375 -6.31026,-4.514156 -11.29295,-11.047231 -19.0625,-13.3125 -5.83236,-1.997683 -11.98592,-4.147925 -18.1875,-4.34375 z M 761.375,41.03125 c 14.67081,0.03884 29.8037,3.145305 42,11.6875 -8.43488,2.322437 -16.23491,6.489303 -25.20804,6.989711 -15.66692,1.859898 -31.77778,1.875638 -47.32321,4.322789 -2.57031,-0.819654 -7.97518,1.314148 -8.78125,-1.875 0.1196,-3.977294 2.10703,-7.22475 6.19352,-8.03459 8.93948,-2.893011 16.56441,-8.974154 25.30648,-11.99666 2.52724,-0.792395 5.1612,-1.137948 7.8125,-1.09375 z M 299.46875,-118.875 c -9.46482,0.003 -19.21024,-0.19348 -27.86218,3.88631 -10.37837,3.03043 -21.06936,4.12867 -31.59934,6.20091 -7.9035,2.166 -15.89164,3.89214 -23.28848,7.53778 -5.63184,2.204533 -12.62394,1.905278 -16.28125,7.53125 -9.63881,6.968792 -21.09093,13.251699 -26.15625,24.625 -3.6941,5.358075 -7.19545,14.759989 -0.5,19.28125 5.59408,3.479941 13.13827,-1.51523 12.78125,-7.90625 5.15441,-15.703016 21.6845,-22.845952 35.95009,-28.09322 7.75924,-2.350904 16.33531,-5.408011 24.23741,-5.09428 -3.99448,10.892152 -0.18764,22.698944 -0.24594,33.943177 2.33305,31.777798 6.8387,63.3870466 8.71469,95.181823 -1.82084,12.099282 -3.41204,24.277254 -3.79739,36.618097 -0.55547,20.714816 -3.78127,41.003583 -7.94779,61.204613 -0.74766,6.84069 -4.54427,15.58785 1.93268,20.70854 4.60022,4.473 10.3369,7.66958 16.79308,7.78987 3.93104,1.24314 10.60191,2.72947 11.89442,-2.82112 0.0707,-5.17618 5.92529,-0.89801 8.96875,-1.5 20.29571,1.58423 40.8699,-0.17543 60.875,-3.53125 16.36088,-3.71896 33.24985,-9.51229 45.46875,-21.375 5.46883,-8.76658 15.90915,-12.81986 20.46875,-22.28125 2.50053,-5.85365 3.6709,-12.19774 6.125,-18.125 2.39083,-8.540205 -2.69202,-16.689545 -3.625,-25.125 C 409.72984,57.299479 403.79406,45.034944 392.91729,37.826246 385.51587,30.644448 379.54588,22.047295 370.6875,16.375 c -5.10528,-4.832465 -11.7824,-6.7510162 -18.5,-7.6875 -4.17718,-0.9710872 -0.7824,-6.1150616 -4,-8.25 -3.95291,-2.4541366 1.23385,-5.2471732 1.90625,-8.03125 6.37292,-13.248992 7.77812,-28.144569 11.76415,-42.166957 3.7999,-15.712849 1.88502,-33.46663 -8.38357,-46.266779 -8.34554,-11.393354 -23.02366,-14.623954 -33.94308,-22.878764 -6.47695,-0.67296 -13.4337,0.14374 -20.0625,0.0313 z m 6.59375,19.125 c 7.63118,-0.36608 14.54615,3.334617 20.78125,7.28125 6.39859,2.806077 11.09168,9.021051 14.1875,14.875 0.49582,6.427839 0.42956,13.081116 1.38679,19.3221 -2.76706,11.275194 -5.10045,23.058778 -9.88679,33.64665 -5.38057,8.283414 -15.14227,12.094291 -23.25,16.9375 -5.38339,3.3369447 -11.85663,-0.4433596 -17.28125,3.03125 -3.19937,1.4479886 -8.6022,0.6930426 -8,-3.96875 -6.29317,-28.936343 -11.32723,-58.665789 -16.53125,-87.59375 4.58564,-1.702433 10.1615,0.246351 14.6875,-2.125 7.8012,-1.73061 15.92915,-1.158439 23.90625,-1.40625 z m 15.34375,123.34375 c 8.01763,1.910022 16.66487,1.118123 24.40625,3.5 9.62162,7.965787 22.47567,11.591234 31.21875,20.53125 6.68145,7.194367 10.59578,16.406209 16.0625,24.4375 6.27462,7.452385 5.0416,18.80857 1.59375,27.34375 -3.29265,8.54447 -10.47157,14.41614 -18,19.0625 -4.97025,4.87715 -10.46223,9.25644 -17.35242,11.15364 -4.78419,2.17093 -10.335,5.62024 -15.46008,2.37761 -11.14793,-1.96359 -22.65022,0.78109 -33.90345,-0.98104 -7.78212,-0.74033 -15.79978,-1.46286 -23.28405,-2.86271 -8.24416,-19.22401 -1.40351,-40.48112 -1.62909,-60.583917 0.62182,-12.27885 1.18579,-24.563124 2.12909,-36.822333 11.844,0.03928 22.83683,-5.854082 34.21875,-7.15625 z m 232.53125,2.8125 c -12.36176,1.774814 -25.96056,-1.42732 -37,5.875 -14.2571,4.543094 -27.93313,13.661173 -33.34375,28.1875 -7.25288,16.320086 -7.7894,35.23498 -2.0625,52.15625 3.2019,12.42632 9.87531,23.66837 19.00503,32.72139 6.4134,7.25721 14.90984,12.55462 24.58872,14.30986 13.26563,3.07419 26.82228,5.86218 40.40625,6.75 5.75422,-0.31184 12.06946,-1.53684 17.09375,1.875 8.17461,1.41992 14.20246,-6.42296 22.0625,-7.3125 9.37781,-1.91464 11.22314,-12.6141 13.34375,-20.28125 2.16613,-3.62942 6.08567,-7.5355 3.59375,-12.125 -2.33317,-5.91944 -11.6529,-9.05406 -15.71875,-3.15625 -9.87327,8.73449 -21.10485,17.90075 -34.9375,17.8125 -16.49198,1.69701 -33.28255,-0.77444 -48.71875,-6.25 -16.10069,-7.86087 -24.67284,-28.1806 -20.25,-45.25 4.31318,-6.831882 14.39305,-5.969266 21.5,-7.03125 27.60709,-4.821524 56.16496,-3.707266 83.84375,-8.28125 6.23751,-2.040669 8.56757,-9.578707 5.90625,-15.25 -3.18305,-12.749317 -13.26813,-22.612376 -25.1875,-27.4375 -9.85911,-6.811025 -22.50541,-7.190507 -34.125,-7.3125 z m -17.25,21.0625 c 17.33996,0.482969 36.06404,0.03162 51.25,9.4375 -0.15288,1.65928 -6.13911,1.527748 -8.4375,2 -14.248,-0.231411 -27.73645,4.401069 -41.90337,4.919618 -7.60466,0.378189 -16.23675,1.497339 -23.28413,0.517882 0.002,-3.635768 -1.78617,-7.565383 2.21875,-9.75 5.63939,-4.13354 13.24211,-6.697967 20.15625,-7.125 z"
           inkscape:connector-curvature="0"
           sodipodi:nodetypes="cccccccccccccccccccccccccccccccccccccccccccccccccccccccccccccccccccccccccccccccccccccccccccccccccccccccccccccccccccc" />
        <path
           id="path3096"
           style="fill:#000000"
           d="m 1421.1815,2.40571 c -4.6273,-5.29772 -5.1333,-12.92925 -1.292,-19.484 2.9179,-4.97909 4.7786,-5.74708 11.2823,-4.65672 6.1459,1.03035 8.5014,4.10868 8.4021,10.97999 -0.1291,8.92455 -3.7762,13.20688 -12.1524,14.2689 -3.898,0.49425 -5.0135,0.29616 -6.24,-1.10817 z m 375.631,14.56304 c -7.6196,-0.748338 -13.0076,5.985126 -19.9333,8.216641 C 1758.1349,34.418123 1746.192,54.371969 1743,74.625 c -1.0677,15.937155 -2.76,32.31117 0.4062,48.125 7.0241,7.28843 15.4578,13.30182 23.0626,19.875 7.2586,3.75729 16.2539,2.3753 23.3537,6.64271 22.5579,4.66751 46.5512,1.11571 67.1611,-8.75528 6.6724,-4.34677 15.2307,-8.20934 18.2664,-16.10618 3.1124,-8.26745 -6.1267,-17.09665 -14.1562,-13.375 -9.6077,7.15962 -19.7284,14.95806 -32.075,16.44302 -18.1086,3.04121 -38.2414,2.20101 -54.3938,-7.13052 -5.3469,-3.41379 -8.2643,-9.31895 -8.6562,-15.46875 -0.5021,-3.67592 -3.9787,-9.432206 -0.4376,-12.25 8.9176,-3.217197 18.8303,-3.38585 28.1563,-3.71875 9.4195,3.555639 19.703,2.462474 29.5313,1.15625 7.3598,-0.592315 12.459,-7.077845 20.0312,-6.4375 8.4562,-0.354909 17.4193,-0.648754 24.7812,-5.15625 6.3129,-0.439089 11.69,-6.920708 8.9376,-13.1875 -2.6297,-8.161979 -10.4202,-13.223214 -13.9376,-20.9375 -5.334,-5.999856 -13.9119,-7.828625 -19.4304,-13.811431 C 1835.2995,24.946108 1826.377,19.075478 1816.5,17.25 c -6.5642,-0.01447 -13.1226,-0.441681 -19.6875,-0.28125 z m 6.0937,17.90625 c 14.1909,1.463616 30.2571,6.755034 36.7813,20.6875 0.5142,2.577439 6.7384,8.49507 1.2813,8.25 -15.7766,3.003587 -31.9301,2.282184 -47.875,1.21875 -6.9894,-0.106549 -14.0017,0.276276 -20.9688,-0.4375 -0.6774,-7.00909 1.9426,-13.90632 7.3438,-18.40625 5.7077,-5.420671 13.8317,-6.976722 20.5,-10.875 0.9543,-0.271398 1.9476,-0.400011 2.9374,-0.4375 z m -182.1874,-18.5 c -14.4668,4.045103 -28.9092,9.589012 -41.5287,17.601864 -2.6152,2.373185 -5.2095,5.742175 -7.2526,7.960636 -0.3257,-5.802053 3.3911,-13.447421 -2.8125,-17.0625 -6.8493,-5.654277 -16.4417,-4.069963 -23.7664,-0.56859 -7.0815,2.36879 -17.1208,6.649892 -16.5461,15.50609 0.4449,5.758759 3.6491,14.926146 11.0937,13.15625 3.7069,-0.802174 6.1648,-4.88155 9.6876,-5.46875 6.9957,12.797079 2.4386,28.366183 1.7046,42.267645 -1.667,13.665525 -2.561,27.868395 0.077,41.357355 2.0121,6.48994 5.7894,14.60773 13,16.1875 5.8063,-0.54208 6.3283,-7.64997 10.0312,-11 7.005,-12.78201 1.0633,-27.96488 0.2582,-41.493151 -2.2505,-13.993254 -0.071,-29.390659 10.1481,-39.788099 8.4118,-7.34301 18.0006,-14.296753 28.8125,-17.34375 3.4762,-1.07041 7.4098,-1.503545 8.5652,2.814239 4.3857,5.994503 7.3534,12.81159 6.4348,20.373261 -0.8496,12.659945 -1.9113,25.541168 1.4954,37.889097 2.1108,11.544443 2.9744,23.569033 6.4917,34.716103 3.5419,6.32067 10.037,15.17009 18.2629,12.0823 9.8566,-4.7148 7.8131,-17.20561 10.2188,-26 2.1248,-13.63761 3.3682,-27.699982 2.2982,-41.459007 -2.6928,-17.194141 -6.9762,-34.81544 -16.642,-49.353493 -2.954,-4.743484 -7.8229,-7.135092 -13.134,-8.166424 -5.5317,-1.746873 -11.0554,-4.254379 -16.8972,-4.208576 z m -172.4376,8.28125 c -3.0591,-0.307725 -4.5884,3.833038 -6.2187,4.375 -8.1691,-4.150347 -16.7002,2.589991 -25.0313,3.125 -6.5234,1.694185 -16.0347,1.884868 -19.125,8.96875 -1.8906,6.236813 5.1564,12.496068 11.0938,9.375 6.0381,-1.237279 11.6309,-4.017003 17.6875,-5.1875 1.6404,22.069777 -1.2221,44.213501 -3.3437,66.03125 1.3597,8.44419 1.6651,17.49129 4.7812,25.4375 2.938,3.63594 4.331,8.1863 7.0312,11.84375 6.051,5.86557 18.8951,1.55088 18.0626,-7.4375 0.4126,-16.43733 8.0641,-33.65073 1.6562,-49.6875 1.1582,-16.387732 4.5381,-32.834741 2.8215,-49.402648 -1.0162,-5.988892 0.026,-15.734921 -7.6653,-17.378602 -0.5753,-0.130755 -1.165,-0.110446 -1.75,-0.0625 z M 1194.625,-88.75 c -10.5568,0.914286 -23.0604,6.615668 -24.1875,18.4375 -1.2267,5.964043 4.2034,13.594249 10.6875,10.5 1.9715,-0.221155 5.7385,-4.484931 5.6875,-0.1875 11.0023,36.381534 6.1786,74.872215 6.5602,112.343562 -0.1893,32.992556 -0.9173,66.101538 0.1898,99.031438 0.8017,7.10066 8.1437,13.78492 15.3437,10.09375 6.6649,-2.45792 9.1034,-11.56113 17.0313,-11.78125 13.6622,-2.02965 27.6976,1.85975 41.25,-1.625 12.5646,-1.87432 25.5112,-0.61843 38.1298,-2.99042 9.0203,-0.69022 17.46,4.60597 26.6198,4.01898 12.7658,0.13132 26.707,-9.26935 27.9691,-22.59106 0.8502,-6.3471 -4.3648,-15.53259 -11.6874,-12.15625 -4.8492,2.07492 -7.0494,8.93134 -13.343,6.87052 -19.8962,0.80031 -39.8161,0.30019 -59.6883,-0.12052 -14.615,0.79331 -29.4984,1.42197 -43.625,4.65625 -2.351,-0.4689 -6.5878,1.57523 -8.0313,0.40625 0.1591,-8.38558 -3.3386,-16.40475 -3.2812,-24.84375 -2.7114,-36.357031 0.5032,-72.821436 -1.4755,-109.2175502 -0.3544,-19.5969028 -3.2526,-39.4771938 -0.024,-58.8136998 0.2593,-6.597173 -5.1565,-10.958113 -9.9375,-14.28125 -3.7666,-3.884939 -8.2426,-8.377465 -14.1875,-7.75 z"
           inkscape:connector-curvature="0"
           sodipodi:nodetypes="csscscccccccccccccccccccccccccccccccccccccccccccccccccccccccccccccccccccccccccccccccccccccccccccccc" />
        <path
           style="fill:#000000"
           d="m 1451.0312,-470.25 c -12.9769,-0.34187 -25.7409,3.04954 -38.1562,6.15625 -5.9519,1.8903 -4.901,11.01929 1.0625,11.96875 8.1811,0.55656 16.2,-2.63251 24.5,-1.96875 8.0616,-0.59777 17.1857,0.71447 24.4687,-3.28125 4.6635,-4.89766 -1.3018,-11.23847 -6.375,-12.46875 -1.7964,-0.45353 -3.6582,-0.46465 -5.5,-0.40625 z m 61.4063,0.28125 c -4.9041,-0.5131 -11.4421,3.67189 -8.5313,9.15625 3.877,6.12337 12.3736,4.14911 18.4651,5.67985 9.2749,0.21072 17.779,3.86498 26.8162,4.7264 8.6468,-0.80038 7.4454,-14.52181 -0.125,-16.375 -11.9759,-2.70268 -24.3295,-3.37795 -36.625,-3.1875 z m 88.5625,11.0625 c -5.7325,-0.19511 -10.3966,7.76622 -5,11.53125 6.5925,3.96342 14.9595,3.60862 22.2645,5.68209 6.5758,0.87124 15.29,2.85715 20.4543,-2.30709 3.613,-5.61062 -2.6729,-12.15004 -8.5396,-11.49408 -9.6131,-2.12061 -19.3305,-3.5399 -29.1792,-3.41217 z m -237.25,1.0625 c -12.4914,1.35119 -24.8857,5.17242 -35.9062,11.0625 -4.7227,4.46075 -0.6009,15.27364 6.4374,12.25 12.0063,-6.08442 25.9727,-5.94237 38.7188,-9.375 7.0681,-5.19506 -0.8944,-16.06249 -8.4375,-13.96875 l -0.8125,0.0313 z m 325.4375,5.9375 c -6.5236,0.7088 -16.0886,1.53575 -18.25,9 -0.8174,4.96009 4.5813,8.92694 9.1517,7.12394 11.4915,-1.19381 23.2407,1.2057 34.5046,0.93856 6.5515,-3.24734 2.9499,-13.11452 -3.4063,-14.1875 -6.9166,-2.75917 -14.5849,-3.60194 -22,-2.875 z m 67.8437,13.84375 c -7.6251,-0.28995 -9.0104,11.02212 -3.1562,14.4375 5.8018,5.59525 13.5299,8.9177 20.8438,11.8125 4.6109,1.13572 10.3145,0.93101 13.4062,-3.21875 -2.8056,-6.38276 -10.1392,-8.44182 -15,-12.84375 -4.8771,-3.61956 -9.2663,-10.34594 -16.0938,-10.1875 z M 1280.8438,-436 c -15.4147,2.73022 -29.4932,11.49172 -40.125,22.71875 -2.8438,5.50453 5.0149,9.78493 9.2812,6.40625 11.4214,-4.58635 21.9543,-11.64979 34.1875,-13.84375 5.7505,-1.88654 9.1504,-11.14022 2.5937,-14.28125 -1.8206,-0.93758 -3.909,-1.16661 -5.9374,-1 z m 540.9687,33.71875 c -6.1767,-1.02444 -10.3476,7.42148 -5.1875,11.40625 9.8924,12.3695 24.0401,20.51486 35.8125,30.875 4.3504,3.20806 13.5524,3.92453 14.7187,-2.65625 -0.7788,-7.01961 -8.5908,-9.96622 -13.4062,-14.09375 -9.9172,-6.10373 -16.8385,-15.52337 -25.25,-23.40625 -1.9181,-1.42819 -4.2554,-2.34981 -6.6875,-2.125 z m -614.3125,1.625 c -12.6032,1.92961 -23.3642,10.42346 -31.4375,19.84375 -3.1822,3.31462 -3.2273,10.00669 2.2187,10.75 6.8467,0.82206 10.8954,-6.18519 16.8126,-8.28125 6.377,-4.09914 14.0497,-6.25061 20.375,-9.9375 4.0722,-5.52747 -1.602,-13.17147 -7.9688,-12.375 z m -64,40.8125 c -11.0786,1.84065 -18.6341,11.76728 -24.4375,20.53125 -3.0738,4.16086 -2.4692,12.73162 4.0313,12.59375 6.3156,-0.83928 8.4297,-8.12732 13.8197,-10.68978 4.0047,-4.68092 10.6559,-6.26846 13.899,-11.40397 2.9321,-5.40884 -0.5457,-12.46711 -7.3125,-11.03125 z M 1904,-336.25 c -5.8476,-0.49432 -9.2863,7.80293 -4.3704,11.40193 8.1215,9.57513 17.2452,18.37793 25.6204,27.69182 6.5899,3.71679 12.9521,-6.29708 7.9375,-11.40625 -6.9022,-10.26064 -15.3687,-19.56754 -25.1563,-27.0625 -1.2707,-0.53033 -2.6523,-0.77157 -4.0312,-0.625 z m -813.4688,19.9375 c -8.2584,3.1215 -7.9883,13.46266 -12.3437,19.90625 -3.6901,7.92707 -11.6404,14.7024 -11.5625,23.875 0.545,6.49112 9.9292,10.10965 13.6562,4.03125 2.3513,-3.66858 1.9322,-8.78735 6.0938,-11.3125 6.8608,-8.66912 11.9131,-19.836 11.4375,-31.03125 -0.6922,-3.17703 -3.8588,-6.22385 -7.2813,-5.46875 z m 865.9688,46.96875 c -6.6587,0.9513 -8.1703,9.79097 -4.25,14.40625 6.4263,11.98754 14.8349,22.79651 23.4375,33.21875 3.0447,4.20698 12.163,7.0533 13.4687,-0.0313 0.2869,-7.61797 -7.1699,-12.54432 -10.0624,-19.03125 -6.3301,-9.01619 -10.7769,-19.6474 -18.5313,-27.46875 -1.1584,-0.83387 -2.6287,-1.28637 -4.0625,-1.09375 z M 1054.8125,-240.25 c -7.5256,3.65761 -7.5055,13.60725 -9.7865,20.6375 -1.4797,9.70197 -5.7888,19.71055 -4.1822,29.6125 2.5222,5.8745 11.444,4.31674 13.2812,-1.375 4.9046,-10.4134 5.5797,-22.22754 8.875,-33.25 1.3139,-6.25256 0.4065,-16.42914 -8.1875,-15.625 z m 950.5313,56.03125 c -6.3413,0.89346 -5.1466,8.793 -3.5,13.09375 3.7426,11.50633 4.4013,24.21621 9.6874,35.15625 4.0611,5.15004 13.261,0.9127 11.7813,-5.625 -0.5361,-10.41268 -3.5409,-20.52756 -6.2187,-30.53125 -1.7542,-5.14722 -5.0457,-12.97262 -11.75,-12.09375 z m -972.875,27.125 c -8.58,2.11831 -7.737,12.6199 -8.5705,19.49923 -0.015,9.36117 -3.5395,19.05016 -1.3358,28.25077 4.2416,7.76347 18.0466,3.47354 16.8071,-5.37467 -0.4036,-11.41949 2.3085,-22.5771 2.4429,-33.87533 -0.3103,-4.95084 -3.9719,-9.30283 -9.3437,-8.5 z m 993.7187,65.21875 c -7.194,0.560666 -7.154,9.434063 -5.395,14.598185 4.0348,13.844284 -0.097,28.120676 -2.4487,41.745565 0.191,6.460358 9.9052,10.868908 13.3124,4.1875 4.2192,-7.215128 2.7574,-16.015276 5.2188,-23.8125 1.7102,-12.101555 0.8933,-26.057569 -7.0625,-35.84375 -1.0767,-0.676965 -2.3516,-1.011132 -3.625,-0.875 z m -1006.625,14.8125 c -8.2173,2.685331 -7.5837,13.011291 -8.0625,20 -0.8111,5.961723 -1.6518,15.719971 6.0625,17.375 7.4521,0.184272 9.3829,-9.22153 9.875,-15 0.5344,-7.287484 1.1522,-17.028024 -5.2187,-21.9375 -0.8181,-0.353486 -1.7578,-0.557182 -2.6563,-0.4375 z m -7.2813,61.5 c -7.8718,2.290346 -6.3764,12.646757 -3.625,18.40625 3.2683,6.4781028 4.287,13.918577 1.7188,20.75 -1.6978,5.843544 -2.4764,15.300627 5.125,17.125 6.5743,1.955265 13.7188,-3.589488 12.8438,-10.5625 2.1961,-11.117732 3.0657,-23.1644598 -2.6563,-33.40625 -2.0916,-5.8957328 -6.2423,-12.780654 -13.4063,-12.3125 z m 995.0313,21.375 c -8.1357,2.7131174 -7.3807,12.955062 -9.1875,19.8125 -0.5348,5.786355 -3.222,11.493928 -8.75,14.0625 -4.0158,3.60884 -0.6007,11.00449 4.875,9.6875 12.1056,-1.260147 20.64,-14.126957 19.9507,-25.811514 -0.174,-5.560277 1.023,-12.830135 -3.3882,-16.938486 -1.0279,-0.6475657 -2.2882,-0.9338156 -3.5,-0.8125 z M 143.375,44.21875 c -8.29595,0.545258 -18.08301,1.333937 -23.0625,9.15625 -3.50212,3.566154 -2.19586,10.102855 3.03125,10.90625 6.49843,1.056413 12.71269,-2.644567 19.31685,-2.557117 5.35486,-0.106134 13.62358,-1.420276 13.8394,-8.255383 -0.37741,-6.090674 -7.70394,-9.550093 -13.125,-9.25 z m 1815.6875,14.25 c -9.7517,2.350498 -17.0153,10.564981 -27.375,11.125 -5.0782,0.15654 -10.5555,5.854104 -6.5625,10.59375 5.579,5.976593 15.2692,3.594628 21.9756,1.217349 7.654,-3.451527 18.4479,-8.348974 17.9932,-18.311099 -0.4107,-3.014547 -2.9362,-5.192891 -6.0313,-4.625 z M 82.84375,64.3125 c -7.956096,2.02338 -13.477711,8.865148 -20.5,12.5625 -5.295769,4.277717 -12.829893,9.417157 -12.15625,17.03125 1.487173,5.597381 9.753786,7.44885 13,2.40625 9.305917,-7.417842 22.593253,-12.84061 26.625,-24.96875 0.19213,-3.790134 -3.029986,-7.498772 -6.96875,-7.03125 z m 934.46875,4.5625 c -6.7768,0.213672 -9.5064,7.89214 -7.8437,13.59375 0.3106,10.452013 3.4656,21.61223 1.75,31.6875 -6.011,3.61723 -3.9306,13.45411 2.875,14.75 8.8905,2.8716 18.0783,-6.82748 14.8387,-15.61244 -1.8344,-13.22639 -2.147,-26.756467 -4.12,-39.88756 -1.1743,-2.989254 -4.2946,-4.939711 -7.5,-4.53125 z m -986.5,70.625 c -10.385387,4.68699 -15.430468,16.53638 -19.3125,26.71875 -2.987982,6.57704 -0.996207,18.08678 7.90625,17.9375 7.06722,-1.24726 5.895229,-10.68396 9.0625,-15.53125 2.292114,-7.32493 7.875496,-13.08952 10.46875,-20.09375 0.631141,-4.6452 -3.159967,-9.65609 -8.125,-9.03125 z M 1012.5,150.8125 c -8.6069,3.05237 -5.5856,13.92728 -9.5803,20.30736 -2.8937,8.17813 -6.49349,17.01839 -5.32595,25.78639 2.48125,6.42033 13.33275,6.869 14.90625,-0.46875 4.0246,-10.34757 4.6616,-21.82092 8.75,-32.1875 1.5921,-6.05834 -1.194,-14.4133 -8.75,-13.4375 z m -21.59375,66.90625 c -5.65981,-1.00935 -8.97877,5.60326 -7.0625,10.34375 -0.77276,12.04132 -9.13585,22.56536 -9.40625,34.53125 0.98697,6.70973 11.79377,9.09614 14.1058,1.96669 5.97835,-13.23662 12.7977,-27.65835 10.55045,-42.52919 -1.16075,-3.2958 -4.96849,-4.54938 -8.1875,-4.3125 z M 24.78125,228 c -7.466214,0.96754 -6.434265,10.27947 -6.375,15.75 0.743909,10.7659 -3.042518,21.96368 -0.21875,32.46875 2.356899,6.02046 13.323432,7.10029 14.40625,-0.25 2.443733,-14.02163 2.674776,-28.81048 0.59375,-42.90625 -1.372802,-3.29768 -4.870931,-5.45196 -8.40625,-5.0625 z m 937.6875,58.59375 c -8.39837,1.07445 -6.99792,11.55066 -12.33062,16.07221 -6.98845,8.95041 -14.56677,20.36079 -11.45063,32.20904 4.41782,6.14927 14.02283,1.66012 15.125,-4.90625 2.88063,-9.00432 7.12498,-17.39419 12.66679,-25.0161 3.12296,-4.47352 7.1173,-11.34571 2.23946,-16.0464 -1.56024,-1.69237 -3.96453,-2.55787 -6.25,-2.3125 z M 53.34375,319.875 c -7.822806,0.9189 -8.239044,10.93497 -5.09375,16.46875 5.29049,10.4942 12.439543,20.26803 18.5,30.21875 2.113388,4.42548 9.279645,7.33626 12,1.8125 3.064983,-6.19366 -1.714869,-12.49731 -2.40625,-18.65625 -3.560674,-4.48997 -6.990502,-8.93525 -10.128731,-13.80188 -5.769705,-3.80845 -2.460966,-13.02112 -9.152519,-15.60437 -1.192041,-0.38495 -2.469461,-0.5408 -3.71875,-0.4375 z m 859.34375,35 c -10.3548,2.41225 -10.80298,14.86752 -17.53125,21.28125 -3.78159,6.08555 -12.67727,7.99401 -14.6875,15.125 -1.4709,5.62401 4.63942,10.38517 9.84375,7.9375 14.29108,-3.28574 21.75396,-17.47593 25.75,-30.375 2.80405,-3.42337 4.92901,-9.32541 0.75,-12.78125 -1.1326,-0.94716 -2.66076,-1.36821 -4.125,-1.1875 z m -804.65625,42.53125 c -8.489257,0.94695 -7.53101,13.36271 -1.21875,16.71875 9.11221,5.82657 18.26865,12.36539 28.53125,15.875 6.2998,0.59201 9.98405,-8.22403 4.875,-12.25 -5.56752,-6.96312 -14.26874,-9.44659 -21.90625,-13.15625 -3.45187,-2.67098 -4.92285,-8.09007 -10.28125,-7.1875 z m 756.65625,17.25 c -6.88618,2.06035 -11.42659,8.70041 -18.79625,9.51397 -7.77594,3.40358 -18.00412,7.18692 -20.235,16.26728 0.40316,7.08172 10.16456,9.81046 15.0502,5.18178 C 851.33842,439.299 864.42217,433.87424 869.75,422 c 1.23916,-3.53228 -0.85483,-7.95471 -5.0625,-7.34375 z m -674.625,39.75 c -6.35311,0.69468 -9.68068,10.93715 -2.9375,13.59375 9.28687,2.57992 17.20544,9.36252 26.9375,10.125 5.42971,0.96611 12.35524,-4.75937 8.59375,-10.15625 -5.23145,-6.12532 -13.99653,-7.43346 -21.00856,-10.54274 -3.81396,-1.14201 -7.62163,-2.78753 -11.58519,-3.01976 z m 584.21875,5.78125 c -7.53872,2.96909 -14.27245,7.6396 -22.59375,8.625 -9.11121,2.46049 -19.72276,3.73288 -26.65625,10.5625 -4.84242,7.25033 6.15538,16.79913 12.8125,11.09375 12.45762,-7.34241 28.0963,-8.15335 39.71875,-16.8125 3.40903,-3.27449 6.0445,-11.70813 -0.28125,-13.3125 -0.96931,-0.23096 -2.01773,-0.38822 -3,-0.15625 z m -512.375,23.09375 c -7.03835,0.21374 -8.0631,11.63645 -1.21875,13.09375 11.26805,5.01715 25.1485,13.21086 37.5,6.65625 5.05945,-3.50202 2.4652,-11.87167 -3.5,-12.4375 -7.99487,-2.39702 -17.06713,-0.32482 -24.28125,-5.3125 -2.7373,-1.13727 -5.46266,-2.22354 -8.5,-2 z m 421.4375,11.5 c -10.42225,0.74238 -23.42321,-1.00238 -31.09375,7.53125 -3.44156,6.21446 5.23612,12.22142 10.6875,8.90625 8.68505,-2.38184 19.8111,-0.25374 26.5625,-7.1875 2.55675,-4.16113 -1.22343,-10.00397 -6.15625,-9.25 z m -86.25,7.09375 c -7.21295,0.35699 -17.76204,2.9572 -18.28125,11.59375 1.33482,6.78665 10.2652,9.19436 15.25,4.71875 6.73302,-3.44808 15.61084,-1.58735 21.5,-6.375 3.1193,-4.98704 -3.39889,-9.03892 -7.84375,-9.03125 -3.493,-0.72685 -7.01766,-1.06786 -10.625,-0.90625 z M 355.625,505 c -5.5124,-0.31659 -14.67266,0.4362 -14.5,7.875 1.65009,8.01488 11.59755,6.66178 17.71875,7.34375 6.28414,0.49917 15.08447,3.69898 19.71875,-1.9375 3.28768,-6.54293 -3.28456,-14.10305 -10.21875,-13.09375 -4.23341,-0.31384 -8.47814,-0.21728 -12.71875,-0.1875 z m 179.25,4.0625 c -10.09773,1.7934 -21.61733,-0.75632 -30.78125,4.40625 -4.47027,4.37527 0.22009,12.66423 6.3125,11 10.5497,-0.17441 22.62467,2.30881 31.9375,-3.78125 4.25115,-3.96984 1.35646,-12.34849 -4.84375,-11.625 -0.87408,-0.0486 -1.75088,-0.046 -2.625,0 z m -72.84375,1.75 c -11.13137,2.39563 -22.70164,0.89157 -33.90625,0.5625 -5.72277,1.11285 -9.88181,9.96021 -3.59375,13.1875 7.34436,2.73594 15.53016,0.0697 23.03125,2.125 7.06589,0.38055 17.66482,1.87687 20.78125,-6.34375 1.80669,-4.45985 -0.84792,-10.49671 -6.3125,-9.53125 z"
           id="path3050"
           inkscape:connector-curvature="0" />
      </g>
    </g>
  </g>
</svg>
