<?xml version="1.0" encoding="UTF-8" standalone="no"?>
<!-- Created with Inkscape (http://www.inkscape.org/) -->

<svg
   xmlns:dc="http://purl.org/dc/elements/1.1/"
   xmlns:cc="http://creativecommons.org/ns#"
   xmlns:rdf="http://www.w3.org/1999/02/22-rdf-syntax-ns#"
   xmlns:svg="http://www.w3.org/2000/svg"
   xmlns="http://www.w3.org/2000/svg"
   xmlns:sodipodi="http://sodipodi.sourceforge.net/DTD/sodipodi-0.dtd"
   xmlns:inkscape="http://www.inkscape.org/namespaces/inkscape"
   width="512"
   height="512"
   id="svg2"
   version="1.1"
   inkscape:version="0.48.4 r9939"
   sodipodi:docname="undo.svg">
  <defs
     id="defs4" />
  <sodipodi:namedview
     id="base"
     pagecolor="#ffffff"
     bordercolor="#666666"
     borderopacity="1.0"
     inkscape:pageopacity="0.0"
     inkscape:pageshadow="2"
     inkscape:zoom="1.0957031"
     inkscape:cx="256"
     inkscape:cy="256"
     inkscape:document-units="px"
     inkscape:current-layer="layer1"
     showgrid="false"
     inkscape:window-width="1276"
     inkscape:window-height="782"
     inkscape:window-x="0"
     inkscape:window-y="14"
     inkscape:window-maximized="0" />
  <metadata
     id="metadata7">
    <rdf:RDF>
      <cc:Work
         rdf:about="">
        <dc:format>image/svg+xml</dc:format>
        <dc:type
           rdf:resource="http://purl.org/dc/dcmitype/StillImage" />
        <dc:title></dc:title>
      </cc:Work>
    </rdf:RDF>
  </metadata>
  <g
     inkscape:label="Layer 1"
     inkscape:groupmode="layer"
     id="layer1"
     transform="translate(0,-540.36215)">
    <path
       style="fill:#000000"
       d="m 217.51821,546.36229 -6.81114,5.47138 c -3.76754,2.97696 -8.70355,9.32588 -10.97266,14.12793 -5.49978,11.63761 -8.03858,13.01917 -23.99017,13.06625 l -13.62165,0 -13.0169,7.92148 c -7.17757,4.35108 -18.79276,10.82878 -25.8057,14.37288 -32.341394,16.34971 -73.313936,54.60606 -82.942553,77.49888 -2.60799,6.20457 -4.789965,15.38542 -4.843136,20.41596 -0.06407,5.5403 -2.679101,13.38969 -6.735547,19.84417 -3.683603,5.86046 -8.11866,15.85613 -9.838101,22.2126 -1.722004,6.35639 -5.324247,18.90442 -8.021925,27.84746 l -4.9187294,16.251 0.6021887,16.41455 c 0.3395319,9.02302 0.4100017,26.00176 0.1537507,37.81022 -0.2882825,13.42242 0.9667058,26.95825 3.405571,36.01391 l 3.935368,14.45464 26.033137,28.09232 c 14.330814,15.4383 29.518148,33.46415 33.675819,40.09685 4.158308,6.63243 11.1264,13.91889 15.514046,16.16943 4.390854,2.25053 11.148831,7.67457 15.059851,12.08624 3.91359,4.41169 8.29739,8.00307 9.76249,8.00307 6.44407,0 42.82012,18.40849 58.7256,29.72569 19.92092,14.1703 26.71412,16.8544 50.3257,19.7626 25.29897,3.11 37.89755,3.131 47.29874,0 4.65158,-1.5497 18.75241,-3.2613 31.40605,-3.7566 13.89265,-0.5439 29.23884,-2.9667 38.74638,-6.1245 8.65744,-2.8759 24.45912,-7.9867 35.11467,-11.433 10.65553,-3.4466 22.49623,-8.0577 26.25992,-10.2081 3.76559,-2.1505 20.29696,-18.2695 36.77965,-35.85034 l 29.96786,-32.01223 5.90273,-13.55644 c 3.23069,-7.47469 7.24997,-20.10557 9.00593,-28.01061 1.75787,-7.90503 5.37934,-17.71435 8.02193,-21.88587 l 4.84313,-7.59491 2.04297,-26.37727 c 1.15056,-14.51314 3.31011,-35.918 4.76817,-47.52837 L 506,778.53248 502.74627,768.32463 c -1.93982,-6.11864 -2.98469,-18.44767 -2.57341,-30.54229 0.88407,-25.95239 -2.57468,-36.76049 -16.42182,-51.44817 -6.15385,-6.52978 -15.14248,-18.39073 -19.97922,-26.29577 -11.36919,-18.59506 -42.77142,-52.26488 -48.73629,-52.26488 -2.5401,0 -7.51262,-2.19538 -11.04825,-4.89982 -3.53626,-2.70445 -11.55434,-6.7628 -17.86004,-9.06456 -6.30631,-2.30177 -17.20402,-7.68612 -24.21694,-11.92317 -13.44483,-8.12537 -42.04817,-20.92165 -65.46114,-29.31723 l -14.00026,-5.06318 -32.46567,-0.5717 -32.46567,-0.57171 z m 42.68238,46.71172 c 8.45884,-0.094 17.10858,0.16455 25.9569,0.65329 30.15236,1.66541 32.69311,2.24603 52.3693,12.73952 9.56518,5.10132 25.02415,10.96647 34.35744,13.06624 9.33072,2.09967 19.22264,5.69238 22.02217,7.92148 2.79697,2.22939 9.48063,7.19426 14.83306,11.10634 18.78958,13.73778 42.30314,46.23243 42.30314,58.38948 0,7.309 10.31088,43.53088 15.05984,52.91816 1.55033,3.06116 4.22236,16.72476 5.90337,30.37901 l 3.02697,24.82577 -2.72458,16.98607 -2.72396,16.98614 -11.04953,17.72118 c -6.09748,9.7361 -12.92463,21.59919 -15.13543,26.29549 -2.2108,4.69649 -8.78363,14.35059 -14.60566,21.47773 -19.2521,23.57119 -30.29329,38.91929 -34.58421,48.18164 -6.21664,13.40959 -17.83695,25.66099 -27.69812,29.07237 -4.75921,1.64606 -10.31602,4.559 -12.3359,6.45129 -2.01671,1.8917 -11.19816,7.21618 -20.3572,11.84139 l -16.64924,8.4112 -19.59996,2.0418 c -20.63523,2.1318 -58.20283,2.3354 -70.53169,0.4085 -11.97267,-1.8716 -32.26901,-8.038 -38.51961,-11.67798 -3.22106,-1.87558 -15.92789,-9.30971 -28.22792,-16.49614 L 138.96522,969.70774 127.31095,954.27318 C 120.90532,945.7425 109.04157,933.24623 100.97542,926.50748 77.836015,907.18435 65.336741,885.81874 57.006679,851.29517 l -4.767543,-20.08931 0.147345,-23.02916 c 0.217813,-33.4652 4.5824,-71.06797 10.06488,-86.40036 6.156419,-17.21813 14.962474,-35.60546 17.103455,-35.60546 0.922493,0 7.322996,-8.8197 14.227024,-19.59931 6.9066,-10.77962 13.30966,-19.59934 14.15208,-19.59934 0.84242,0 7.5171,-5.38588 14.83306,-12.00446 29.24396,-26.4549 78.20513,-41.2375 137.42976,-41.8937 z M 31.124728,853.41837 c 0.997454,-0.11188 2.035271,0.57171 2.875772,2.04176 0.627815,1.08866 1.862943,6.38101 2.800177,11.75953 l 1.664349,9.71792 -3.78354,0 c -5.228153,0 -9.57224,-9.58932 -7.794502,-17.23098 0.895596,-3.85424 2.571474,-6.09875 4.237744,-6.28823 z M 465.28627,888.2072 c 0.80655,-0.1832 1.59452,0.20878 2.27038,1.38813 0.7143,1.24911 -0.28188,4.5413 -2.19479,7.2682 l -3.48116,4.89983 -0.0769,-5.71646 c -0.0639,-4.20159 1.70599,-7.43729 3.48118,-7.8397 z m -5.37293,17.55782 c 7.2192,-0.1306 -4.85917,26.07234 -19.52502,42.38342 -6.13848,6.8271 -12.51272,12.41289 -14.22703,12.41289 -4.84379,0 -3.74254,-8.626 2.27037,-17.31271 9.0354,-13.05111 29.54186,-37.44702 31.48168,-37.4836 z"
       id="path3618-9-1"
       inkscape:connector-curvature="0" />
    <path
       style="fill:#000000"
       d="m 186.56029,922.53026 c -1.69924,-0.65834 -4.46484,-2.20482 -6.14578,-3.43662 -4.70203,-3.4457 -9.38367,-5.70006 -11.83731,-5.70006 -1.76927,0 -1.98604,-0.29743 -1.05858,-1.4524 0.92601,-1.15317 0.52977,-1.7249 -1.92318,-2.775 -1.6992,-0.72742 -3.09262,-1.6221 -3.09647,-1.98813 -0.004,-0.36605 -1.73235,-1.85649 -3.84111,-3.31211 -2.10876,-1.45561 -4.72201,-3.47478 -5.80721,-4.48705 -1.08519,-1.01226 -2.8401,-2.1249 -3.89978,-2.47249 -1.05969,-0.34761 -2.35859,-1.80603 -2.88645,-3.24095 -0.53734,-1.46069 -2.31476,-3.09713 -4.03851,-3.71817 -1.69332,-0.61008 -3.07876,-1.42139 -3.07876,-1.80291 0,-0.38153 -3.44735,-2.35956 -7.66079,-4.39561 -4.21343,-2.03605 -7.67043,-4.27709 -7.68222,-4.98007 -0.0118,-0.70298 -1.70027,-2.60851 -3.7522,-4.2345 -2.05192,-1.62601 -5.56449,-4.7428 -7.80573,-6.92621 -2.24123,-2.18342 -5.11796,-3.96985 -6.39273,-3.96985 -2.42334,0 -3.54753,-2.34074 -3.55901,-7.41038 -0.007,-2.99369 3.90704,-5.53769 6.34772,-4.12604 0.81339,0.47046 5.59064,0.31898 10.61609,-0.33661 11.43332,-1.49152 13.86683,-0.90133 16.08233,3.90034 1.12124,2.43007 2.43851,3.73819 3.76436,3.73819 1.74754,0 1.94927,-0.4926 1.40889,-3.44055 -0.34688,-1.89228 -1.07832,-4.02994 -1.62544,-4.75033 -0.54711,-0.72039 -0.7438,-1.98569 -0.43708,-2.81176 0.30671,-0.82608 -0.2612,-2.26785 -1.26202,-3.20393 -4.22855,-3.95504 -6.27666,-29.63231 -3.61701,-45.34665 0.91103,-5.38276 1.66229,-11.37275 1.66947,-13.3111 0.008,-2.31856 0.98086,-4.67268 2.84197,-6.88108 2.43831,-2.8933 3.98874,-7.99184 4.56189,-15.00169 0.17086,-2.08977 3.35728,-9.85252 10.8635,-26.46566 2.10458,-4.65796 4.16939,-10.13636 4.58846,-12.17421 0.91611,-4.45485 4.72362,-11.75074 8.7992,-16.86083 1.63858,-2.05451 2.97924,-4.34152 2.97924,-5.08222 0,-0.74071 0.45216,-1.34674 1.00479,-1.34674 0.55262,0 1.29399,-1.19095 1.64748,-2.64656 0.35349,-1.45562 1.25616,-2.64657 2.00593,-2.64657 0.74978,0 4.50251,-1.665 8.33941,-3.70003 3.8369,-2.03501 7.7599,-3.70234 8.71779,-3.70519 0.95789,-0.003 2.11023,-0.60064 2.56074,-1.32845 0.77788,-1.25667 5.58887,-3.50916 10.03778,-4.69968 1.12673,-0.3015 6.197,-2.10023 11.26726,-3.99717 11.93663,-4.46585 17.99843,-5.92211 19.95082,-4.79288 1.00902,0.5836 2.18343,0.31633 3.33249,-0.75841 1.25771,-1.17635 4.68787,-1.80972 11.78005,-2.17515 5.50313,-0.28354 10.46661,-0.88761 11.02997,-1.34236 0.56337,-0.45475 3.26469,-1.17159 6.00295,-1.59297 3.66046,-0.56328 5.1992,-0.39732 5.81164,0.62682 0.67049,1.12123 1.13517,1.13378 2.38202,0.0642 1.16214,-0.99681 2.07704,-1.03662 3.6631,-0.15934 1.47717,0.81706 2.71097,0.8392 4.09533,0.0735 2.85578,-1.5796 8.45171,-1.34811 12.7997,0.52948 2.07013,0.89396 7.49462,1.92269 12.05441,2.28612 6.23364,0.49681 8.69101,1.14413 9.9047,2.60914 0.88779,1.07163 2.17207,1.9484 2.85395,1.9484 0.68188,0 1.53203,0.95166 1.88922,2.11479 0.35719,1.16314 1.72055,2.39263 3.02967,2.73222 1.30914,0.33959 3.66931,2.00802 5.24485,3.70765 1.57554,1.69963 3.93072,3.09023 5.23372,3.09023 1.30301,0 2.36911,0.47639 2.36911,1.05863 0,0.58225 0.80663,1.06795 1.79252,1.07933 0.98588,0.0114 4.21933,2.39328 7.18543,5.29313 2.96611,2.89984 5.88926,5.27243 6.49592,5.27243 0.60665,0 2.46744,1.07186 4.1351,2.38191 6.05106,4.75353 21.36287,19.85414 21.36287,21.06822 0,0.87935 6.35048,8.38066 10.49904,12.40169 1.54925,1.50162 2.81682,3.28451 2.81682,3.96198 0,2.9472 5.55059,18.23424 7.95,21.89527 2.51798,3.84199 3.4891,7.60924 4.96888,19.27587 0.36926,2.91122 1.26305,6.00771 1.9862,6.88107 2.09687,2.53245 2.77193,19.61382 1.04594,26.46567 -2.09624,8.32159 -4.55823,15.93628 -6.27427,19.40573 -0.81531,1.64836 -1.49264,3.55388 -1.50517,4.2345 -0.0125,0.68063 -0.92413,2.42845 -2.02581,3.88406 -1.10167,1.45562 -2.01328,3.42191 -2.02581,4.36955 -0.0125,0.94762 -0.71418,2.31601 -1.55922,3.04084 -0.97155,0.83333 -1.53645,3.16867 -1.53645,6.35176 0,3.16859 -0.56566,5.51908 -1.52654,6.34327 -0.90471,0.77601 -1.29837,2.24896 -0.9664,3.61596 0.70835,2.91689 -3.0257,8.03742 -5.86112,8.03742 -1.21108,0 -1.86939,0.54517 -1.59788,1.32328 0.57105,1.63658 -2.25421,7.21247 -4.55824,8.99608 -2.72171,2.10694 -12.05625,12.00247 -15.92528,16.88236 -1.95083,2.46051 -4.54341,4.78696 -5.7613,5.1699 -1.21789,0.38293 -3.02098,1.4283 -4.00686,2.32304 -0.98589,0.89473 -1.79252,1.23173 -1.79252,0.74887 0,-0.48285 -1.0371,0.10491 -2.30467,1.30621 -1.26757,1.20126 -4.33561,3.13089 -6.81788,4.28806 -3.64774,1.70048 -5.21913,1.90586 -8.19437,1.07108 -2.02463,-0.56809 -4.37256,-1.66212 -5.2176,-2.4312 -1.27523,-1.16059 -2.1224,-1.1427 -4.983,0.10524 -4.32667,1.88747 -3.61008,2.07887 -7.2519,-1.93701 -1.71603,-1.89229 -3.1222,-4.54641 -3.1248,-5.89806 -0.003,-1.35163 -0.69614,-3.17211 -1.54119,-4.04547 -0.84504,-0.87337 -1.53644,-3.39855 -1.53644,-5.61153 0,-3.87106 0.15428,-4.04908 4.06977,-4.69618 3.58669,-0.59275 5.77848,-2.09579 11.80682,-8.09653 0.56337,-0.56078 2.14295,-2.09361 3.5102,-3.40627 1.36725,-1.31267 4.59379,-4.53602 7.17008,-7.16301 2.57628,-2.62698 7.34453,-6.58945 10.59608,-8.8055 7.92996,-5.40452 10.98897,-8.46856 10.98897,-11.00707 0,-1.16322 1.39322,-3.92683 3.09604,-6.14136 1.70281,-2.21455 3.34019,-5.25743 3.63861,-6.762 0.29841,-1.50455 1.20986,-5.05308 2.02544,-7.88558 0.81558,-2.83253 1.48288,-6.9114 1.48288,-9.06416 0,-2.15275 0.96257,-5.97319 2.13908,-8.48986 1.74452,-3.73179 2.03951,-5.86754 1.59928,-11.57909 -0.88578,-11.49172 -1.92736,-17.45233 -3.48388,-19.9369 -1.87783,-2.99745 -7.61449,-14.04881 -10.96073,-21.11522 -1.42358,-3.00624 -2.97713,-5.62634 -3.45236,-5.82244 -0.47522,-0.1961 -2.55364,-3.49776 -4.61871,-7.33703 -2.06508,-3.83926 -4.67711,-7.84324 -5.80454,-8.89775 -1.12742,-1.05448 -2.04984,-2.55799 -2.04984,-3.34113 0,-0.78311 -0.69141,-1.42385 -1.53645,-1.42385 -0.94552,0 -1.53645,-0.99248 -1.53645,-2.5805 0,-2.0006 -1.13077,-3.21657 -5.03182,-5.41095 -2.7675,-1.55675 -5.25948,-3.73021 -5.53773,-4.82989 -0.27826,-1.09969 -1.38425,-1.99944 -2.45778,-1.99944 -1.07352,0 -2.97108,-1.4248 -4.21683,-3.16621 -1.96402,-2.74551 -2.73818,-3.08849 -5.82625,-2.58128 -3.086,0.50689 -3.56129,0.29692 -3.56129,-1.57319 0,-2.55851 -4.17586,-5.6815 -6.94794,-5.19613 -1.0758,0.18836 -2.64607,-0.24941 -3.48947,-0.97283 -3.2302,-2.77068 -27.0165,-5.44495 -52.55668,-5.90889 -9.66747,-0.17562 -10.61684,0.006 -16.90089,3.23666 -3.66192,1.88251 -7.1906,3.43075 -7.84151,3.44054 -1.47721,0.0222 -8.47065,5.83999 -15.20527,12.64907 -2.81682,2.84795 -6.08376,5.46599 -7.25987,5.81785 -1.17611,0.35186 -3.67903,2.06135 -5.56204,3.79884 -1.88301,1.73751 -4.03204,3.15909 -4.77562,3.15909 -0.74358,0 -1.35196,0.85158 -1.35196,1.89239 0,1.04082 -2.24323,4.17594 -4.98495,6.96696 -2.76963,2.81942 -5.56502,6.89106 -6.29021,9.16207 -0.71789,2.24812 -2.38039,5.05364 -3.69442,6.23449 -1.31405,1.18083 -2.69541,3.47115 -3.0697,5.08959 -0.37429,1.61844 -1.17395,3.58742 -1.77704,4.37553 -1.61616,2.11198 -3.47539,28.34421 -2.41199,34.03107 0.48994,2.6201 1.03596,11.68052 1.21335,20.13425 0.34202,16.29797 1.31533,27.34663 2.56278,29.09189 0.41617,0.58225 1.03068,2.24959 1.36557,3.7052 0.3349,1.45561 1.26309,3.57095 2.06266,4.70076 1.39496,1.97113 1.52405,1.91372 3.19207,-1.42001 1.56582,-3.12946 3.38414,-16.64711 4.00149,-29.7478 0.27313,-5.7961 1.31836,-7.75493 3.78266,-7.08891 1.02676,0.27751 2.10734,-0.14317 2.40128,-0.93485 0.89485,-2.41012 5.29383,-2.91453 8.2079,-0.94118 2.40554,1.62901 2.65722,2.44624 2.65722,8.62835 0,3.7559 0.47715,7.75036 1.06033,8.87657 0.8343,1.61115 0.72512,2.04766 -0.51215,2.04766 -1.67639,0 -2.06957,1.25066 -0.80426,2.55832 0.42253,0.43666 0.82785,3.73164 0.90072,7.32216 0.0729,3.59054 0.47917,9.14834 0.9029,12.35068 0.42371,3.20235 0.75634,8.68074 0.73917,12.17421 -0.0172,3.49347 0.39305,6.88929 0.91164,7.54628 0.58124,0.73636 0.50636,2.36048 -0.19524,4.2345 -1.46259,3.90674 -1.57016,18.9958 -0.16921,23.73629 2.65598,8.98726 2.61495,9.47456 -0.79794,9.47456 -2.04095,0 -3.35391,0.64248 -3.78591,1.8526 -0.36375,1.01893 -1.15592,2.20259 -1.76038,2.63036 -1.54584,1.09397 -6.68021,0.7763 -10.33431,-0.63941 z m -41.7021,-59.09062 c -0.63309,-1.96293 -2.83815,-2.2885 -2.83815,-0.41904 0,0.92189 0.72981,1.67615 1.6218,1.67615 0.892,0 1.43935,-0.5657 1.21635,-1.25711 z M 312.25807,685.57713 c -0.956,-0.98804 -1.5023,-0.98804 -2.45831,0 -0.956,0.98805 -0.68286,1.27036 1.22916,1.27036 1.91202,0 2.18516,-0.28231 1.22915,-1.27036 z m -18.45013,-3.68731 c -0.73942,-0.30582 -1.62287,-0.2682 -1.96324,0.0836 -0.34036,0.35177 0.26462,0.60197 1.34439,0.55601 1.19326,-0.0508 1.43596,-0.30165 0.61885,-0.63959 z m -82.13575,196.56909 c 0,-0.58225 0.7186,-1.05863 1.5969,-1.05863 0.87829,0 1.31202,0.47638 0.96384,1.05863 -0.34818,0.58224 -1.06679,1.05862 -1.5969,1.05862 -0.53012,0 -0.96384,-0.47638 -0.96384,-1.05862 z m -7.42615,-20.81502 c 0.70421,-0.29367 1.85653,-0.29367 2.56074,0 0.7042,0.29368 0.12804,0.53396 -1.28037,0.53396 -1.40841,0 -1.98458,-0.24028 -1.28037,-0.53396 z"
       id="path5577"
       inkscape:connector-curvature="0" />
  </g>
</svg>
