<?xml version="1.0" encoding="UTF-8" standalone="no"?>
<!-- Created with Inkscape (http://www.inkscape.org/) -->

<svg
   xmlns:dc="http://purl.org/dc/elements/1.1/"
   xmlns:cc="http://creativecommons.org/ns#"
   xmlns:rdf="http://www.w3.org/1999/02/22-rdf-syntax-ns#"
   xmlns:svg="http://www.w3.org/2000/svg"
   xmlns="http://www.w3.org/2000/svg"
   xmlns:sodipodi="http://sodipodi.sourceforge.net/DTD/sodipodi-0.dtd"
   xmlns:inkscape="http://www.inkscape.org/namespaces/inkscape"
   width="512"
   height="512"
   id="svg2"
   version="1.1"
   inkscape:version="0.48.4 r9939"
   sodipodi:docname="level2color.svg">
  <defs
     id="defs4" />
  <sodipodi:namedview
     id="base"
     pagecolor="#ffffff"
     bordercolor="#666666"
     borderopacity="1.0"
     inkscape:pageopacity="0.0"
     inkscape:pageshadow="2"
     inkscape:zoom="1.1074219"
     inkscape:cx="146.28572"
     inkscape:cy="256"
     inkscape:document-units="px"
     inkscape:current-layer="layer1"
     showgrid="false"
     inkscape:window-width="1276"
     inkscape:window-height="782"
     inkscape:window-x="0"
     inkscape:window-y="14"
     inkscape:window-maximized="0" />
  <metadata
     id="metadata7">
    <rdf:RDF>
      <cc:Work
         rdf:about="">
        <dc:format>image/svg+xml</dc:format>
        <dc:type
           rdf:resource="http://purl.org/dc/dcmitype/StillImage" />
        <dc:title></dc:title>
      </cc:Work>
    </rdf:RDF>
  </metadata>
  <g
     inkscape:label="Layer 1"
     inkscape:groupmode="layer"
     id="layer1"
     transform="translate(0,-540.36218)">
    <path
       style="fill:#000000"
       d=""
       id="path3133"
       inkscape:connector-curvature="0" />
    <path
       style="color:#000000;fill:#aa00d4;fill-opacity:1;fill-rule:nonzero;stroke:none;stroke-width:6;marker:none;visibility:visible;display:inline;overflow:visible;enable-background:accumulate"
       d="m 217.625,582.1875 c -11.67137,3.10951 -16.9949,15.32569 -24.4375,23.65625 -14.01363,18.70447 -26.88197,40.00501 -26.96875,64.09375 -1.94198,21.25689 0.74291,43.25981 10.9375,62.15625 4.40103,11.31552 11.7412,22.66913 23.78125,26.84375 11.85866,5.03906 25.18184,2.25687 36.54578,-2.58726 10.2374,-3.79343 21.83472,-4.55851 30.54797,-11.63149 6.20141,-4.45284 11.97958,2.72349 17.59375,4.6875 6.64524,3.92874 16.87562,3.26671 20.5,-4.28125 5.0657,-9.92952 1.70904,-21.63266 2.8554,-32.34356 0.0894,-17.92378 -5.97951,-34.98251 -14.29283,-50.61116 -11.4752,-24.44544 -28.44844,-46.46064 -50.60952,-62.15722 -7.95628,-6.23092 -15.03866,-14.79004 -24.82805,-17.85681 -0.54181,0.004 -1.08417,-0.0159 -1.625,0.0313 z m 192.90625,53.59375 c -14.4384,-0.311 -29.29145,-0.14587 -42.75,5.6875 -15.76048,6.52352 -30.53141,17.48462 -38.78125,32.65625 -8.84491,21.26639 -2.98812,45.12468 -7.49078,67.27038 -0.85607,8.74836 -3.97957,18.08814 -1.91547,26.66712 4.20016,5.40476 10.41258,9.67502 16.5625,12.25 14.86477,1.13921 29.734,-1.82302 44.62428,-0.39955 C 391.72066,780.82413 403.63846,779.66951 412,772 c 16.19732,-12.29656 21.78434,-33.31124 24.83265,-52.58557 4.33106,-20.32683 5.99979,-41.18915 4.8861,-61.91443 1.12329,-8.52081 -3.04833,-18.71979 -12.4375,-20 -6.06556,-1.79434 -12.46993,-1.81596 -18.75,-1.71875 z M 242.875,679.3125 c 8.00086,9.13326 7.49823,22.77435 6.0625,34.0625 -3.13871,2.49556 -1.87266,-4.92207 -2.8642,-6.78459 -1.57369,-9.2036 -3.19601,-18.33296 -3.6358,-27.65291 l 0.4375,0.375 z m -35.125,10.25 c 5.2281,6.23868 1.61517,15.32058 3.36401,22.74348 0.51277,6.31009 3.06736,14.35468 3.07349,19.44402 -7.16923,-5.98533 -8.19302,-17.4151 -17,-21.8125 0.23339,-6.02508 5.21347,-10.91619 7.28125,-16.46875 0.85831,-1.2215 1.87403,-3.64079 3.28125,-3.90625 z m 165.21875,6.71875 c -3.86319,7.97121 -9.01515,17.04798 -16.3125,22.6875 1.79468,-8.34926 7.77338,-15.63662 13.90625,-21.25 0.76486,-0.53338 1.55713,-1.06583 2.40625,-1.4375 z M 270.5,706.53125 c 0.1391,4.28736 0.5867,9.6039 -1.53125,13.25 0.0855,-3.81803 -0.77756,-10.05728 1.53125,-13.25 z m 100.84375,29.25 c 2.40195,1.34618 -2.34225,3.31789 -2.53125,5.09375 -1.01161,1.8718 -5.35747,6.14714 -4.875,1.3125 0.19938,-3.71797 4.30571,-5.59372 7.40625,-6.40625 z m 24.375,5.875 c 2.78002,3.50791 -2.76967,7.30652 -4.46875,9.96875 -3.05101,3.55352 -6.65411,6.97511 -11.125,8.375 2.32881,-7.46355 8.61926,-13.18064 14.625,-17.84375 0.3107,-0.18202 0.62968,-0.38808 0.96875,-0.5 z M 179.1875,773.5 c -22.83024,2.43631 -46.93601,7.05344 -64.918,22.48378 C 87.855819,814.47938 63.831288,836.39156 43.15625,861 c -2.982506,5.62489 1.969878,12.30802 7.898241,12.80635 24.847154,10.32467 50.760059,24.70903 78.601759,20.00615 9.20688,-1.38215 19.29478,-3.73762 25.875,-10.59375 3.21966,-5.81593 -2.41061,-11.38535 -7,-14.09375 -1.44353,-1.9952 -0.69018,-5.17994 2.35631,-4.41116 8.96489,-1.96981 18.21517,-0.69647 26.58119,2.59866 9.17266,0.0881 14.43212,-9.90626 16.8125,-17.5 4.32901,-16.28175 4.24771,-33.67802 6.51902,-50.43654 -0.29388,-5.76174 2.91441,-12.8152 0.29348,-17.71971 -5.77541,-5.57766 -13.88052,-8.44241 -21.90625,-8.15625 z m 192.25,23.03125 c -9.88924,-0.48521 -22.29599,4.8012 -22.84375,15.96875 -2.50963,13.11024 0.64661,29.83149 -11.625,38.8125 -7.9842,6.26342 -20.401,10.89254 -21.46875,22.59375 1.29973,12.20037 11.85112,20.51045 19.32402,29.21441 9.73945,9.5715 23.77596,15.60333 37.61127,12.66033 16.12218,-0.32082 32.14133,-3.87212 46.25221,-11.56224 12.05105,-5.29778 24.74277,-9.54207 36.90625,-14.125 6.26323,-7.71654 -0.16114,-17.25081 -1.21875,-25.625 -5.88274,-22.93882 -16.41891,-47.67754 -38.8125,-58.65625 -13.44959,-7.05991 -28.94963,-9.61269 -44.125,-9.28125 z m -196.8125,0.625 c 2.12039,0.11562 2.99937,3.22134 0.27156,3.56921 -10.41002,7.34455 -21.57588,13.23185 -32.49031,19.68079 9.34801,-9.13044 18.64732,-20.49421 32.21875,-23.25 z m 219.59375,34.40625 c 5.10165,1.771 8.87595,6.98036 9.875,12 -5.06212,1.71258 -10.50755,-2.4768 -13.59375,-6.09375 -0.94962,-2.61695 1.87726,-4.64967 3.71875,-5.90625 z M 172.125,832.03125 c 4.70384,0.11462 -0.95564,2.55395 -2.59375,3.65625 -6.64757,3.72324 -14.63916,7.56407 -21.71875,8.375 1.68211,-9.53964 13.37019,-11.58679 21.46875,-11.78125 0.93776,-0.12188 1.92409,-0.0528 2.84375,-0.25 z M 358.4375,856.5 c 9.1439,0.4241 20.06368,2.30367 25.28125,10.5 -4.54585,-0.94902 -11.23413,-2.87843 -16.4375,-4.5 -3.34036,-1.17864 -8.99865,-3.58005 -9.96875,-5.90625 0.37296,-0.0407 0.74945,-0.0848 1.125,-0.0937 z m -142.15625,5.125 c -8.92157,3.70242 -8.09402,14.88167 -10.5,22.75 -2.43551,11.93594 0.65018,24.22808 7.0625,34.375 11.99655,23.45292 24.07673,46.85851 31.9375,72 1.9203,6.45866 9.58815,12.3218 15.96875,7.34375 14.457,-7.93918 25.28238,-20.88828 37.59534,-31.63889 13.58867,-13.21294 27.12713,-28.57128 31.43591,-47.54861 0.62935,-8.0041 -6.69804,-13.48475 -10.58751,-19.65997 -6.45342,-8.02387 -13.4434,-16.09611 -16.53749,-26.12128 -22.9057,-0.10438 -46.31206,0.0548 -68.03125,-8.15625 -5.94506,-1.76168 -12.07494,-4.00566 -18.34375,-3.34375 z m 132.6875,15.0625 c 6.10328,0.91812 14.80148,3.94865 15.21875,11.09375 -0.19279,2.32324 -1.73338,4.99529 -3.625,1.78125 -4.73575,-3.4864 -9.5605,-8.17189 -12.25,-12.96875 l 0.65625,0.0937 z M 229.3125,882 c 4.80239,1.61711 4.44712,8.61584 6.53125,12.71875 2.02083,8.12693 7.13557,16.66092 6,24.90625 -4.85488,1.6271 -7.19316,-4.91109 -9.71875,-7.78125 -5.45564,-8.76018 -7.65094,-19.73427 -5.15625,-29.78125 0.78234,0.0589 1.56841,-0.10418 2.34375,-0.0625 z m 34,10.09375 c 8.32961,3.39448 5.03727,17.59195 14.59375,19.125 1.92446,-0.17419 -1.8935,2.52684 -1.625,4.125 -1.31316,9.53001 0.39497,19.33008 0.4375,28.96875 -2.03947,1.21603 -6.96176,2.68378 -6.40625,-1.375 -4.37698,-16.04661 -5.68867,-32.83341 -7.59375,-49.25 0.15061,-0.52807 0.25528,-1.17585 0.59375,-1.59375 z m 25.40625,12.8125 c 10.57088,4.38499 13.10244,19.52205 7.9375,28.9375 -1.93388,4.48943 -1.78632,-2.84494 -3.09375,-4.28125 -2.17042,-6.70786 -3.14928,-15.50355 -9,-19.8125 -3.28614,0.2905 2.59151,-3.32673 3.46875,-4.71875 0.2115,-0.0947 0.45707,-0.12999 0.6875,-0.125 z"
       id="path4405"
       inkscape:connector-curvature="0" />
    <path
       style="color:#000000;fill:#2b1100;fill-opacity:1;fill-rule:nonzero;stroke:none;stroke-width:6;marker:none;visibility:visible;display:inline;overflow:visible;enable-background:accumulate"
       d="m 270.625,769.28125 c -16.70886,0.3274 -36.55605,3.05818 -46.28125,18.34375 -6.97382,12.78977 -13.3165,29.70604 -4.5,43.15625 6.6535,12.32669 19.40514,21.21633 33.66568,21.66962 19.53344,2.35623 41.405,4.91164 59.17807,-5.32587 11.62601,-6.15563 19.01566,-19.91171 15.15625,-32.96875 -2.69241,-8.16215 -6.76971,-15.80316 -10.5625,-23.46875 -6.38628,-9.36115 -17.36239,-14.19542 -27.5,-18.46875 -6.13042,-2.15741 -12.62085,-3.33706 -19.15625,-2.9375 z"
       id="path4930"
       inkscape:connector-curvature="0" />
    <path
       style="fill:#000000"
       d="m 246.52108,1049.7428 c -3.54953,-3.9222 -11.01058,-23.4679 -11.01058,-28.8445 0,-8.4721 -15.36473,-49.51416 -28.39997,-75.86154 -13.06988,-26.41746 -20.1248,-47.39574 -17.41402,-51.78188 2.54591,-4.11934 -3.93184,-3.71031 -10.40277,0.6569 -3.9617,2.67374 -10.71557,5.92911 -15.00861,7.23415 -4.29304,1.30507 -10.43988,3.49362 -13.65966,4.86345 -20.1964,8.59248 -24.09326,9.27368 -39.86115,6.9681 C 99.259332,911.29525 88.907882,907.72379 68.441262,898.37521 43.211111,886.85079 33.881248,884.02913 17.229748,882.88714 10.698596,882.43922 5.2476085,877.63099 5.2476085,872.31785 c 0,-3.72153 21.1215855,-25.54955 28.2950365,-29.24141 3.219778,-1.65707 12.060565,-9.26907 19.646205,-16.91555 14.958792,-15.07881 24.161922,-22.77479 40.230552,-33.64224 5.70512,-3.85844 13.007288,-9.4457 16.227068,-12.41616 3.21978,-2.97045 10.24475,-7.71193 15.61105,-10.53663 5.36629,-2.8247 12.39127,-6.80449 15.61105,-8.84395 3.21976,-2.03947 7.66207,-3.77229 9.87177,-3.85074 2.2097,-0.0785 5.70024,-1.37297 7.75674,-2.87672 3.67462,-2.68695 3.66805,-2.91408 -0.38152,-13.17182 -8.64259,-21.89203 -10.68915,-37.40904 -8.71174,-66.05206 1.72592,-24.99997 2.22644,-27.20847 9.81353,-43.2991 4.39716,-9.32549 7.99485,-17.5386 7.99485,-18.25133 0,-2.19553 21.98776,-30.36907 30.27358,-38.79039 7.08254,-7.19839 13.9785,-16.79766 19.73725,-27.4746 2.80349,-5.19778 11.61907,-8.29918 15.90514,-5.5956 2.08288,1.31384 4.4485,7.9763 6.53076,18.39293 3.46952,17.35655 4.87575,19.33654 21.36544,30.08272 3.83664,2.5003 10.80088,9.24228 15.47606,14.98215 4.67517,5.73987 11.29205,13.50954 14.70416,17.26594 3.4121,3.75642 8.23807,11.86331 10.72434,18.01533 2.48625,6.15204 6.99381,13.55513 10.0168,16.45132 l 5.49631,5.26582 8.30661,-8.94232 c 9.10787,-9.80494 38.72104,-25.84123 54.16401,-29.33121 4.82967,-1.09147 21.51398,-2.08575 37.07623,-2.20955 15.56225,-0.12372 29.61219,-1.07689 31.22208,-2.11801 3.00837,-1.94548 19.2932,-4.85211 30.98424,-5.53023 5.20495,-0.3019 7.46322,0.77907 10.7326,5.13736 l 4.1406,5.51971 -6.06748,5.21288 c -3.33713,2.86709 -9.36636,7.74646 -13.39828,10.84307 -10.40741,7.99307 -13.99228,17.85881 -16.44337,45.25301 -1.1596,12.96013 -2.90458,26.13195 -3.87772,29.27071 -0.97313,3.13875 -3.31682,12.73179 -5.20819,21.31788 -4.50033,20.42983 -8.77146,30.14119 -17.5106,39.81436 l -7.16435,7.9301 10.55655,10.81214 c 10.6218,10.87899 21.71268,30.27821 31.69807,55.44367 6.02252,15.17808 9.01694,18.67763 21.31985,24.9164 12.89455,6.53881 18.7795,12.78163 18.7795,19.92148 0,8.89302 -5.91511,11.90771 -23.36293,11.90717 -18.20907,-5.4e-4 -44.15066,7.21099 -63.4735,17.64505 -21.8956,11.82334 -35.7273,13.29508 -65.37124,6.9557 -6.97619,-1.49187 -13.34256,-2.31668 -14.14751,-1.83293 -0.80495,0.48375 -1.46354,3.72544 -1.46354,7.20375 0,12.14129 -24.6021,39.43956 -58.8813,65.33415 -12.38105,9.3527 -15.27115,15.1503 -15.27115,30.6338 0,6.9329 -1.09955,11.4969 -3.41491,14.1745 -5.09101,5.8878 -10.96331,6.9339 -14.84523,2.6444 z m 23.07269,-64.2149 c 18.28186,-14.6635 45.13869,-42.59934 47.73901,-49.65697 1.30609,-3.54488 3.75136,-9.27295 5.43392,-12.72906 2.95483,-6.06937 2.87309,-6.53552 -2.39527,-13.65966 -2.99998,-4.0567 -7.84439,-10.01018 -10.76536,-13.22996 -2.92097,-3.21978 -6.5321,-8.48852 -8.02473,-11.70828 l -2.71386,-5.85415 -19.48237,-0.15904 c -16.19864,-0.1321 -22.89047,-1.22215 -39.70284,-6.46677 -11.12129,-3.46929 -21.30185,-5.89284 -22.62351,-5.38567 -2.63537,1.01134 -6.9162,19.5548 -6.9162,29.95932 0,4.40784 4.40681,14.71825 13.41413,31.38448 12.6136,23.33893 17.98456,35.59831 23.69774,54.09085 2.7465,8.88999 5.30088,12.68396 8.53972,12.68396 1.23384,0 7.44368,-4.17107 13.79962,-9.26905 z m -2.4709,-36.00296 c -1.28791,-1.28792 -2.34165,-3.98001 -2.34165,-5.98243 0,-2.00243 -0.88258,-5.28987 -1.96126,-7.30542 -1.07868,-2.01554 -2.29751,-10.17391 -2.70851,-18.12974 -0.41098,-7.95579 -1.61996,-16.12782 -2.6866,-18.16009 -2.39063,-4.55482 0.16449,-12.08541 4.68992,-13.82193 4.13229,-1.58572 12.15073,7.30038 13.73489,15.22105 1.32924,6.64624 2.72415,7.04703 6.04113,1.7357 5.48499,-8.78287 18.20908,-1.6506 22.08257,12.37803 3.1871,11.54268 -2.39699,27.63321 -9.13924,26.33478 -3.64911,-0.70275 -4.91547,-3.43974 -8.65742,-18.71117 -3.52427,-14.38307 -6.11003,-9.7968 -4.64642,8.24125 l 1.34159,16.53461 -5.2696,2.00351 c -6.69275,2.54458 -7.62681,2.51442 -10.4794,-0.33815 z m -34.56178,-27.74969 c -7.995,-7.995 -12.91932,-21.72333 -12.2603,-34.18001 0.54432,-10.28867 0.86136,-10.88969 6.05866,-11.48565 7.41211,-0.84989 10.13544,1.87729 13.85321,13.87277 1.73403,5.59496 4.63913,14.77814 6.45575,20.40707 3.48672,10.80382 2.87644,12.722 -4.78342,15.03539 -3.20044,0.96655 -5.67721,-0.002 -9.3239,-3.64957 z m 167.84107,-15.46836 c 4.29303,-1.60076 15.57652,-6.49367 25.0744,-10.87315 9.49787,-4.37949 19.3249,-7.96271 21.83785,-7.96271 2.51295,0 5.0637,-0.80045 5.66836,-1.7788 1.50051,-2.42786 -7.19039,-34.21488 -12.33472,-45.11423 -9.43974,-20.00023 -24.07182,-31.9094 -44.44132,-36.17128 -15.91672,-3.33021 -27.19462,-3.55524 -35.36869,-0.70574 -6.50354,2.26714 -7.83876,6.50515 -8.13919,25.83382 -0.21426,13.78396 -5.60139,22.62167 -18.54286,30.42001 -16.92372,10.19797 -17.6041,14.18055 -4.91869,28.79066 2.93828,3.38409 5.6634,6.91664 6.05581,7.85012 0.39241,0.93346 5.1041,4.61277 10.47039,8.17622 9.71394,6.45049 9.83854,6.47452 28.29502,5.46227 10.19596,-0.55921 22.0506,-2.32643 26.34364,-3.92719 z m -50.3214,-18.41504 c -10.27608,-10.43296 -11.48852,-15.0333 -4.42907,-16.80512 8.57745,-2.15279 24.50407,7.53245 24.50407,14.90138 0,5.70308 -3.67464,11.23982 -7.4597,11.23982 -1.88078,0 -7.55767,-4.20124 -12.6153,-9.33608 z m 19.47799,-18.82918 c -15.77615,-5.17826 -22.85201,-10.99915 -19.00509,-15.63438 6.53449,-7.8736 37.32488,1.93272 38.79879,12.35688 0.36221,2.56177 -0.51592,5.40222 -1.95139,6.3121 -3.16673,2.00727 -1.74499,2.24908 -17.84231,-3.0346 z m 21.99503,-23.0365 c -8.45498,-5.68446 -9.37233,-10.97846 -2.94813,-17.01368 4.2729,-4.01417 5.55807,-4.3286 9.36493,-2.29125 7.11079,3.80558 14.29755,15.58152 11.87319,19.45493 -3.10213,4.95633 -10.78869,4.89329 -18.28999,-0.15005 z M 139.33682,886.283 c 14.03579,-4.7192 15.43131,-6.50617 8.41375,-10.77381 -6.94346,-4.22255 -8.04523,-12.12408 -2.13184,-15.28883 4.83228,-2.58615 26.83454,-2.6393 28.4233,-0.0687 2.36624,3.82865 7.87362,1.82439 12.10125,-4.40394 3.56384,-5.25042 4.81058,-11.73606 7.31768,-38.06729 1.66207,-17.45619 3.02195,-32.14218 3.02195,-32.63547 0,-0.49327 -2.77378,-2.33123 -6.16393,-4.08436 -7.05514,-3.64835 -16.06234,-2.95656 -39.47726,3.03197 -16.70592,4.27264 -23.98987,7.64075 -29.36213,13.57704 -2.0728,2.29041 -8.56233,6.907 -14.42117,10.25909 -5.88376,3.36635 -22.102488,17.37195 -36.229978,31.2862 -24.188406,23.82333 -25.371801,25.34363 -21.789633,27.99259 2.083333,1.54062 5.02299,2.80111 6.532578,2.80111 1.509585,0 10.342495,3.71416 19.628675,8.25372 23.03089,11.2586 46.112098,14.18103 64.136758,8.12067 z m 3.80836,-37.18912 c -2.90862,-2.90859 -1.00157,-10.87115 3.63214,-15.16553 8.10024,-7.50704 29.12016,-10.39155 32.87173,-4.51088 3.38257,5.30226 -0.22197,8.89258 -15.30763,15.24715 -13.68364,5.764 -18.7937,6.83182 -21.19624,4.42926 z m -9.7569,-19.51381 c -3.3016,-3.3016 -0.37756,-8.47858 10.8952,-19.28986 18.18494,-17.4405 30.58714,-22.7408 36.51057,-15.60349 4.51974,5.44593 1.15732,9.78004 -13.69775,17.65616 -8.09704,4.29305 -18.17315,10.22037 -22.39132,13.17182 -8.16381,5.71221 -9.27185,6.11024 -11.3167,4.06537 z m 175.10655,13.80048 c 15.19339,-7.03919 19.52758,-23.35268 9.94934,-37.44832 -2.68314,-3.94859 -4.87845,-8.57861 -4.87845,-10.28891 0,-4.81161 -7.56669,-10.64921 -21.46518,-16.56005 -13.59109,-5.78011 -17.6084,-6.12984 -36.65682,-3.19102 -20.38478,3.14499 -28.77735,11.35124 -33.59051,32.84482 -2.58664,11.5508 -0.22243,18.31329 10.26842,29.37144 6.75643,7.12181 10.58762,8.23386 35.34939,10.26057 21.3104,1.74424 28.33574,0.88995 41.02381,-4.98853 z m 63.6123,-69.82154 c 3.75642,0.091 11.22044,0.4716 16.58675,0.84587 8.05511,0.56177 11.05628,-0.22311 17.2068,-4.50011 12.46456,-8.66772 19.31131,-20.22085 22.84252,-38.54418 0.93076,-4.82965 3.44091,-17.85565 5.5781,-28.94663 2.32202,-12.05001 3.26708,-21.8381 2.34834,-24.32169 -0.84564,-2.28596 -1.12322,-9.94672 -0.61684,-17.02388 1.22939,-17.18242 -0.30792,-18.56923 -22.50992,-20.30604 -29.68784,-2.32244 -53.95792,5.97552 -72.02113,24.62409 -6.50323,6.71398 -8.63933,10.76787 -10.59992,20.11673 -1.35048,6.43954 -2.32562,15.87935 -2.16695,20.97733 0.15865,5.09799 0.36588,11.6839 0.46051,14.63535 0.17543,5.47216 -2.32804,24.97903 -4.86452,37.90387 -1.30339,6.64152 -0.96187,7.3998 4.6365,10.29485 3.32394,1.71888 6.04354,4.05574 6.04354,5.193 0,1.41506 4.77364,1.56559 15.1232,0.47688 8.31776,-0.87497 18.19662,-1.51643 21.95302,-1.42544 z m 3.25231,-8.37448 c -3.68443,-3.68445 -0.65228,-11.37747 8.10103,-20.55351 7.38662,-7.74331 10.27596,-9.57857 13.47939,-8.56183 2.24258,0.71176 4.60405,2.66642 5.24768,4.34369 3.46473,9.02896 -20.47038,31.12938 -26.8281,24.77165 z m -15.7275,-17.3968 c -2.79917,-7.2945 -1.15859,-11.92373 5.49569,-15.5073 5.56964,-2.99945 7.19166,-3.17301 9.75691,-1.04404 4.30812,3.57542 3.85462,6.70584 -1.97517,13.63414 -5.48576,6.51946 -11.39674,7.81817 -13.27743,2.9172 z m -8.30742,-23.31718 c -2.20753,-5.75271 1.324,-15.07511 9.3358,-24.64433 6.43423,-7.68497 9.11664,-9.53146 13.16219,-9.06046 2.88375,0.33571 5.34898,2.00507 5.70053,3.86018 0.77943,4.11283 -13.68131,25.51979 -20.06419,29.702 -5.90682,3.87029 -6.69855,3.88419 -8.13433,0.14265 z m -123.1979,29.47185 c 8.22273,-3.57506 25.84296,-8.92214 29.40114,-8.92214 1.51019,0 4.33519,-1.75624 6.27777,-3.90275 4.4668,-4.93579 12.22122,-5.00606 17.43665,-0.15806 2.2157,2.05959 7.30708,4.34993 11.31422,5.08962 6.7359,1.24338 7.44917,0.924 9.45208,-4.23258 3.28088,-8.44675 1.45021,-48.98343 -2.54318,-56.31332 -1.75414,-3.21979 -6.07375,-12.44006 -9.59909,-20.4895 -10.95575,-25.01525 -24.79142,-42.24485 -48.53819,-60.44469 -8.06958,-6.18466 -15.86066,-12.67709 -17.31351,-14.42767 -1.45283,-1.75056 -4.23639,-3.18286 -6.18569,-3.18286 -5.06571,0 -30.09981,33.03213 -38.45131,50.73589 -6.39331,13.55271 -6.97216,16.33458 -7.82529,37.60554 -1.01289,25.25486 0.55002,33.73941 9.69117,52.61018 3.01542,6.22503 5.48261,12.02929 5.48261,12.89839 0,0.86906 1.97577,3.3758 4.3906,5.57052 10.84939,9.86042 25.05142,12.76277 37.01002,7.56343 z m -19.40826,-19.16688 c -2.23071,-2.41484 -5.37704,-7.59895 -6.99182,-11.52025 -1.6148,-3.92129 -4.77238,-7.71248 -7.01688,-8.42488 -5.46681,-1.73508 -5.15866,-4.86262 1.84642,-18.73961 6.68652,-13.24591 10.07603,-15.5305 15.61056,-10.52183 3.11553,2.81953 3.83401,6.04908 3.85119,17.31124 0.0121,7.61477 1.3288,18.1557 2.92706,23.42425 1.59828,5.26855 2.90596,10.31774 2.90596,11.22043 0,3.40038 -9.23819,1.46631 -13.13249,-2.74935 z m 56.3618,-9.75067 c -3.57172,-3.57172 -2.72674,-18.01149 1.34849,-23.04417 5.56822,-6.8765 10.06085,-3.8765 10.06085,6.71821 0,4.77557 -0.54237,10.09625 -1.20527,11.82373 -1.794,4.67511 -7.50944,7.19686 -10.20407,4.50223 z m -22.70612,-7.26939 c -0.64478,-1.04327 -2.04489,-9.57598 -3.11136,-18.96162 -1.06646,-9.38563 -2.44012,-19.06132 -3.05258,-21.50154 -1.52654,-6.08225 4.0529,-8.02636 9.32977,-3.25084 7.13379,6.45598 10.05838,14.66374 10.05838,28.22849 0,7.108 -0.62003,13.92686 -1.37783,15.15302 -1.67992,2.71815 -10.22375,2.95797 -11.84638,0.33249 z"
       id="path3403"
       inkscape:connector-curvature="0" />
  </g>
</svg>
