<?xml version="1.0" encoding="UTF-8" standalone="no"?>
<!-- Created with Inkscape (http://www.inkscape.org/) -->

<svg
   xmlns:dc="http://purl.org/dc/elements/1.1/"
   xmlns:cc="http://creativecommons.org/ns#"
   xmlns:rdf="http://www.w3.org/1999/02/22-rdf-syntax-ns#"
   xmlns:svg="http://www.w3.org/2000/svg"
   xmlns="http://www.w3.org/2000/svg"
   xmlns:sodipodi="http://sodipodi.sourceforge.net/DTD/sodipodi-0.dtd"
   xmlns:inkscape="http://www.inkscape.org/namespaces/inkscape"
   width="512"
   height="512"
   id="svg2"
   version="1.1"
   inkscape:version="0.48.4 r9939"
   sodipodi:docname="9.svg">
  <defs
     id="defs4" />
  <sodipodi:namedview
     id="base"
     pagecolor="#ffffff"
     bordercolor="#666666"
     borderopacity="1.0"
     inkscape:pageopacity="0.0"
     inkscape:pageshadow="2"
     inkscape:zoom="1.1074219"
     inkscape:cx="146.28572"
     inkscape:cy="256"
     inkscape:document-units="px"
     inkscape:current-layer="layer1"
     showgrid="false"
     inkscape:window-width="1276"
     inkscape:window-height="782"
     inkscape:window-x="0"
     inkscape:window-y="14"
     inkscape:window-maximized="0" />
  <metadata
     id="metadata7">
    <rdf:RDF>
      <cc:Work
         rdf:about="">
        <dc:format>image/svg+xml</dc:format>
        <dc:type
           rdf:resource="http://purl.org/dc/dcmitype/StillImage" />
        <dc:title></dc:title>
      </cc:Work>
    </rdf:RDF>
  </metadata>
  <g
     inkscape:label="Layer 1"
     inkscape:groupmode="layer"
     id="layer1"
     transform="translate(0,-540.36218)">
    <path
       style="fill:#000000"
       d=""
       id="path3133"
       inkscape:connector-curvature="0" />
    <path
       style="fill:#000000"
       d="m 397.4303,1002.9644 c -17.16874,-12.58961 -41.90521,-19.92683 -68.99647,-20.46536 -31.84061,-0.6329 -39.1157,-3.32507 -57.23699,-21.18071 -8.43494,-8.31129 -16.45075,-18.01267 -17.81289,-21.55859 -1.36215,-3.54591 -2.78541,-15.01334 -3.16283,-25.48313 -0.37741,-10.46984 -1.40752,-20.20314 -2.28912,-21.62962 -0.96897,-1.56783 -5.01422,-2.05996 -10.2285,-1.24435 -11.21363,1.75405 -32.99311,-1.88185 -58.04857,-9.69069 -14.44632,-4.50234 -24.2453,-9.42264 -35.04492,-17.59685 -20.55972,-15.56159 -21.93609,-16.13461 -38.69669,-16.11035 -17.957981,0.026 -30.920381,5.74379 -53.750614,23.70971 -12.424027,9.77687 -17.438324,15.66113 -22.986756,26.97481 -7.154609,14.58877 -12.424215,18.6489 -20.7674732,16.00083 -6.533318,-2.07357 -10.375379,-12.93838 -7.370362,-20.8422 1.343852,-3.53457 2.461618,-12.40704 2.483943,-19.7166 0.02337,-7.30952 1.600333,-20.65371 3.50668,-29.65373 1.90635,-8.99997 3.4660972,-18.766 3.4660972,-21.70223 0,-5.77256 8.94933,-24.27381 15.696883,-32.4507 16.315765,-19.77199 47.674291,-33.36082 90.672402,-39.29182 31.68179,-4.37002 73.64006,-3.78731 86.77112,1.20512 3.42096,1.30064 6.62477,1.95992 7.11961,1.4651 2.24521,-2.2452 -2.74488,-9.08106 -8.98447,-12.30767 -3.77831,-1.95386 -10.75187,-6.91196 -15.49676,-11.01802 -14.16336,-12.25649 -22.93401,-16.1946 -32.68586,-14.6762 -10.39256,1.61812 -15.47977,-2.23581 -30.33507,-22.98101 -11.42856,-15.95978 -12.27166,-21.42602 -3.89349,-25.24337 4.9822,-2.27005 7.43647,-1.96367 14.44737,1.80346 4.6451,2.49591 11.14934,7.56304 14.45389,11.26026 21.14153,23.65373 46.95102,45.23582 61.2324,51.20294 4.41237,1.84364 14.20679,8.76374 21.76532,15.37805 15.18861,13.2912 17.6909,14.30915 17.6909,7.19675 0,-6.45404 -3.12498,-11.92472 -12.87701,-22.54278 -4.4774,-4.87501 -8.14574,-10.10899 -8.15189,-11.63105 -0.007,-1.52207 -5.27119,-9.32151 -11.70011,-17.33208 -6.42892,-8.01059 -11.68894,-15.80725 -11.68894,-17.32592 0,-1.51867 -2.10401,-4.66531 -4.67557,-6.99255 -6.4674,-5.85291 -5.85929,-13.92515 1.48416,-19.70151 13.62579,-10.71806 28.90707,-3.1502 28.90707,14.31583 0,6.35929 1.92409,12.73224 5.47006,18.11785 3.00856,4.56934 7.28299,11.26525 9.49874,14.87982 4.13678,6.74829 12.64443,7.87538 11.10744,1.47151 -0.44459,-1.85233 -2.25474,-13.36189 -4.02254,-25.57682 -5.5412,-38.28759 -10.17744,-56.37821 -16.31915,-63.67722 -4.36315,-5.18531 -5.73455,-9.52765 -5.73455,-18.15772 0,-18.30068 11.61106,-24.62909 24.04526,-13.10547 6.49548,6.01984 12.08765,22.4405 9.94321,29.19701 -2.99505,9.43662 -1.38298,45.23533 3.15134,69.98145 6.82609,37.25322 9.08962,39.4914 15.60319,15.42841 5.44827,-20.12765 13.6977,-31.08347 33.08687,-43.94184 8.72512,-5.78625 19.25046,-14.68007 23.38959,-19.76404 5.29911,-6.50864 13.94513,-12.35747 29.22233,-19.76815 29.91306,-14.51021 62.21557,-21.95711 103.88489,-23.94921 l 33.09477,-1.5822 4.00192,6.10772 c 4.85885,7.41557 2.44073,11.34871 -10.31548,16.77843 -22.72797,9.67422 -29.46671,14.27368 -36.92171,25.20049 -8.44025,12.37093 -8.57187,14.80225 -2.86594,52.94127 6.03669,40.34967 3.21426,53.59767 -15.96285,74.92724 -11.39082,12.66933 -11.70848,17.53739 -1.30334,19.97353 6.75279,1.58105 23.21751,15.8867 31.52884,27.39439 4.13142,5.72025 4.42766,7.84698 2.27965,16.36449 -1.3579,5.3844 -3.05825,12.61887 -3.77856,16.07662 -1.38936,6.66927 -21.18148,31.15902 -38.69654,47.88109 -5.78601,5.52405 -14.46504,13.81013 -19.28674,18.41349 -8.17118,7.80119 -8.76668,9.29571 -8.76668,22.00148 0,17.35993 8.05889,44.06666 15.40123,51.03897 3.30405,3.13753 5.63885,8.02579 5.63885,11.80584 0,14.4749 -12.15514,15.8898 -29.19059,3.3978 z m -11.32019,-39.46121 c 0.78243,-2.03902 0.14423,-9.41942 -1.41809,-16.40089 -2.44602,-10.92999 -2.27672,-14.39145 1.21851,-24.91458 4.32595,-13.02424 24.47678,-36.66458 36.5963,-42.93362 3.52328,-1.82249 8.50616,-7.23695 11.07306,-12.03214 2.56691,-4.79518 7.82908,-12.92655 11.6937,-18.06966 6.53959,-8.70306 6.84897,-9.99927 4.46393,-18.70232 -3.34211,-12.19536 -5.80568,-14.95605 -18.01732,-20.19059 -12.86518,-5.51465 -20.19022,-5.5006 -29.37015,0.0564 -4.00909,2.42685 -13.33831,6.13825 -20.73156,8.24755 -7.39326,2.10933 -13.44229,4.40239 -13.44229,5.09571 0,0.69331 3.63214,4.68609 8.0714,8.87285 6.07671,5.73109 7.73456,8.90038 6.70838,12.82446 -1.17387,4.48887 -2.69948,5.11392 -10.99363,4.50411 l -9.6306,-0.70811 0,12.6319 c 0,7.72956 -1.08874,13.00689 -2.80537,13.59813 -1.54296,0.53143 -7.63176,-3.48255 -13.53065,-8.91996 -7.13212,-6.57413 -11.50649,-9.10498 -13.05718,-7.5543 -1.28253,1.28253 -5.25137,10.6582 -8.81961,20.83482 -5.7093,16.28274 -7.17211,18.50293 -12.19093,18.50293 -5.3911,0 -5.6899,-0.7114 -5.46084,-13.00235 0.15312,-8.22102 1.78542,-15.35747 4.43863,-19.40679 4.70627,-7.18267 2.0483,-12.87569 -4.3418,-9.29959 -4.28379,2.39732 -24.09417,27.4969 -28.30665,35.86426 -9.65056,19.16919 -4.6663,39.95576 12.92216,53.8909 9.77081,7.74131 11.02385,8.08013 31.645,8.55751 15.9603,0.36947 25.58604,1.97394 37.50263,6.25108 19.15732,6.87602 23.89679,7.31763 25.78297,2.40235 z M 245.95367,866.87431 c 10.35265,-2.96911 33.38664,-26.14841 33.38664,-33.59728 0,-8.96504 -5.37466,-11.85464 -19.03952,-10.23623 -6.56869,0.77797 -14.40304,3.02627 -17.40962,4.99629 -8.64127,5.66198 -16.96486,4.64161 -18.70537,-2.29303 -0.842,-3.35485 -0.24679,-7.3541 1.38765,-9.32348 2.32949,-2.80689 2.05179,-3.70672 -1.4923,-4.8354 -15.80597,-5.03373 -19.31772,-10.15285 -10.28219,-14.9885 3.42936,-1.83535 9.34394,-1.226 23.35704,2.40636 20.48163,5.30911 26.26508,4.49914 19.697,-2.75853 -6.03807,-6.67198 -16.66564,-12.6848 -32.45068,-18.35982 -33.23997,-11.95036 -35.62647,-12.31568 -72.4714,-11.09357 -19.28673,0.63971 -38.2228,2.28561 -42.08016,3.65755 -3.85734,1.37193 -14.226631,4.75214 -23.042821,7.51155 -8.81619,2.75942 -19.51871,7.07586 -23.78341,9.59209 -7.735945,4.56432 -21.332278,19.6262 -26.450583,29.30172 -3.505744,6.62713 -3.60136,33.46715 -0.119224,33.46715 1.420136,0 12.294,-5.1731 24.164187,-11.4958 29.73109,-15.83636 35.22067,-17.01772 61.958191,-13.33313 21.79612,3.00361 22.199,3.17658 31.6115,13.573 19.17894,21.18383 65.70434,35.28316 91.7651,27.80906 z m 94.2852,-24.79542 c 6.58706,-3.40632 9.87263,-12.79779 4.47723,-12.79779 -4.9605,0 -13.94448,7.70403 -13.94448,11.9578 0,5.32791 0.67307,5.38762 9.46725,0.83999 z m -2.34062,-38.58024 c 6.60436,-3.89407 16.9077,-8.21863 22.89628,-9.61012 20.68287,-4.80582 43.64985,-18.7073 63.96463,-38.71664 15.7633,-15.52627 17.08228,-21.40304 12.57657,-56.03553 -5.52433,-42.46195 -5.02612,-58.51903 2.14298,-69.06932 5.77471,-8.49826 7.61488,-15.86233 3.96376,-15.86233 -5.56849,0 -63.62637,17.54027 -70.59069,21.32664 -4.50023,2.44671 -14.49428,9.63181 -22.20897,15.9669 -7.7147,6.3351 -19.32132,14.82158 -25.79248,18.85881 -20.52074,12.80256 -27.22887,31.03613 -30.59966,83.17355 l -1.5374,23.77982 7.86018,10.20529 c 12.40495,16.106 19.14708,23.06309 22.35041,23.06309 1.63154,0 8.37001,-3.18606 14.97439,-7.08016 z m -16.01022,-44.81872 c -3.92612,-3.92612 -3.51728,-9.14315 1.83823,-23.45703 6.14497,-16.42388 17.20404,-29.79227 21.32395,-25.77678 2.40397,2.34303 2.22034,4.47969 -0.95764,11.144 -2.16251,4.53486 -5.60272,15.59143 -7.64489,24.57017 -3.79806,16.6988 -7.7297,20.34961 -14.55965,13.51964 z m 17.45548,1.24682 c -3.37174,-3.37172 -1.21183,-9.75248 6.20596,-18.33358 13.5371,-15.66014 21.42782,-4.0742 9.56051,14.03764 -3.61265,5.51357 -12.20709,7.85533 -15.76647,4.29594 z"
       id="path3859"
       inkscape:connector-curvature="0" />
  </g>
</svg>
