<?xml version="1.0" encoding="UTF-8" standalone="no"?>
<!-- Created with Inkscape (http://www.inkscape.org/) -->

<svg
   xmlns:dc="http://purl.org/dc/elements/1.1/"
   xmlns:cc="http://creativecommons.org/ns#"
   xmlns:rdf="http://www.w3.org/1999/02/22-rdf-syntax-ns#"
   xmlns:svg="http://www.w3.org/2000/svg"
   xmlns="http://www.w3.org/2000/svg"
   xmlns:sodipodi="http://sodipodi.sourceforge.net/DTD/sodipodi-0.dtd"
   xmlns:inkscape="http://www.inkscape.org/namespaces/inkscape"
   width="512"
   height="512"
   id="svg2"
   version="1.1"
   inkscape:version="0.48.4 r9939"
   sodipodi:docname="level3color.svg">
  <defs
     id="defs4" />
  <sodipodi:namedview
     id="base"
     pagecolor="#ffffff"
     bordercolor="#666666"
     borderopacity="1.0"
     inkscape:pageopacity="0.0"
     inkscape:pageshadow="2"
     inkscape:zoom="1.1074219"
     inkscape:cx="146.28572"
     inkscape:cy="256"
     inkscape:document-units="px"
     inkscape:current-layer="layer1"
     showgrid="false"
     inkscape:window-width="1276"
     inkscape:window-height="782"
     inkscape:window-x="0"
     inkscape:window-y="14"
     inkscape:window-maximized="0" />
  <metadata
     id="metadata7">
    <rdf:RDF>
      <cc:Work
         rdf:about="">
        <dc:format>image/svg+xml</dc:format>
        <dc:type
           rdf:resource="http://purl.org/dc/dcmitype/StillImage" />
        <dc:title></dc:title>
      </cc:Work>
    </rdf:RDF>
  </metadata>
  <g
     inkscape:label="Layer 1"
     inkscape:groupmode="layer"
     id="layer1"
     transform="translate(0,-540.36218)">
    <path
       style="fill:#000000"
       d=""
       id="path3133"
       inkscape:connector-curvature="0" />
    <path
       style="color:#000000;fill:#ff2a7f;fill-opacity:1;fill-rule:nonzero;stroke:none;stroke-width:6;marker:none;visibility:visible;display:inline;overflow:visible;enable-background:accumulate"
       d="M 234.03125 18.3125 C 233.74955 18.316537 233.46833 18.3254 233.1875 18.34375 C 211.4809 19.65496 193.36789 33.06612 177.875 47.125 C 168.93266 55.83936 165.02478 68.03903 159.59375 78.9375 C 153.40368 92.55013 152.30437 108.38356 157.78125 122.4375 C 161.88022 136.83079 169.47045 149.97606 178 162.125 C 180.21697 169.46553 181.937 177.10176 187.1875 182.96875 C 194.985 193.5158 204.45866 203.45068 216.34375 209.3125 C 227.16991 213.48192 241.3985 207.35088 243.46875 195.375 C 247.30103 182.11702 249.04792 168.22013 250 154.46875 C 249.54083 144.33125 240.13836 138.19121 237 129.34375 C 236.54334 123.37631 236.84058 117.34598 236.90625 111.375 C 238.84193 120.42457 241.89441 130.42676 250.5625 135.09375 C 258.35022 140.1266 257.56449 151.08257 257.4375 159.21875 C 256.68793 171.83467 253.30812 184.78906 255.78125 197.34375 C 258.48542 206.37766 269.73113 205.5917 277.0625 207.8125 C 284.95804 212.11108 294.13783 206.74279 298.1875 199.75 C 306.13619 186.90669 313.80799 173.26522 315.1875 157.875 C 318.20945 141.11337 324.15409 122.98412 316.25 106.65625 C 311.63056 93.72555 308.80962 80.09329 301.03125 68.59375 C 286.14457 44.60294 262.22065 25.73572 234.875 18.34375 C 234.59386 18.32795 234.31295 18.308463 234.03125 18.3125 z M 398.71875 117.4375 C 376.35342 120.41372 357.60506 134.63458 340.65625 148.625 C 329.35329 158.28126 320.2514 170.91747 317.0625 185.625 C 313.61402 196.49147 307.14024 206.42379 304.75 217.53125 C 304.56746 232.00659 319.16445 239.97784 324.96875 251.96875 C 328.26375 258.37796 334.94562 263.5305 342.53125 261.9375 C 362.76982 260.36226 383.47893 257.77045 403.5625 261.46875 C 416.53788 263.60837 426.50814 274.58003 439.65625 275.375 C 448.08695 273.6853 448.0108 263.44916 452.03125 257.625 C 466.03921 239.6568 488.04838 226.23093 493.4375 202.875 C 497.29848 189.67764 493.78234 175.85073 488.78125 163.5625 C 486.70708 154.71826 481.38521 146.5343 473.15625 142.46875 C 451.67419 126.90812 425.36973 117.74167 398.71875 117.4375 z M 91.8125 140.28125 C 91.075755 140.28657 90.331756 140.28381 89.59375 140.3125 C 66.764769 142.30446 45.131178 156.62495 35.84375 177.6875 C 29.068603 188.38516 20.877999 199.58703 22.03125 212.96875 C 22.453587 225.4606 20.692471 238.43185 23.71875 250.625 C 28.689015 263.55535 40.399218 272.38065 50.34375 281.4375 C 66.454149 294.66097 84.827037 306.32287 105.875 309.40625 C 126.79164 315.14164 149.47327 312.78981 169.78125 306 C 178.79327 299.20636 175.08705 286.66623 177.375 277.15625 C 178.51596 268.32521 182.30452 259.47649 181.5 250.5625 C 175.64763 240.73465 163.58874 238.0574 154.71875 231.75 C 143.27814 225.3944 131.73628 219.54055 121.0625 212.0625 C 132.47375 219.33291 144.56113 225.44799 157.5 229.6875 C 167.47085 233.23861 178.46844 237.26954 189.125 234.96875 C 198.70841 230.20854 197.26084 217.14735 194.1875 208.6875 C 189.49429 194.4015 183.02413 179.89204 172.5 168.96875 C 158.55606 157.52533 140.66464 152.67725 124.1875 146.0625 C 113.75584 142.67513 102.86367 140.20142 91.8125 140.28125 z M 377.5625 198.90625 C 378.34487 203.49407 371.80387 204.22038 369.28125 206.71875 C 361.05783 211.48305 352.19442 215.23076 343.21875 218.53125 C 352.40125 208.63489 365.17282 203.38117 377.5625 198.90625 z M 380.15625 271.53125 C 363.82374 272.25771 344.45264 270.77063 332.0625 283.3125 C 327.54031 291.53883 321.92228 300.39117 322.28125 310 C 330.52075 323.75422 348.13079 326.74834 362.8125 327.9375 C 372.28405 329.12841 383.39594 332.36933 388.21875 341.21875 C 385.78454 342.3193 380.94292 340.17841 377.875 339.59375 C 357.63266 336.33846 339.36422 326.11976 320.84375 317.59375 C 309.3553 326.19536 294.73686 334.27324 290.25 348.71875 C 289.32688 361.88027 301.97053 370.16159 309.40625 379.1875 C 318.22176 388.6669 328.75229 396.80587 340.9375 401.21875 C 370.14105 421.96844 406.29254 434.17713 442.4375 430.03125 C 457.15613 428.07251 474.71316 427.87173 485.71875 416.28125 C 491.71325 407.51834 489.10541 396.18113 492.21875 386.53125 C 495.06547 372.19597 491.92473 357.75355 489.75 343.625 C 484.47238 318.10809 466.30926 295.43843 441.15625 287.46875 C 421.7201 279.43306 401.5947 271.02345 380.15625 271.53125 z M 188.59375 318.9375 C 173.56591 322.79744 157.70742 325.47314 144.5 333.75 C 130.46116 345.40207 129.84714 365.39453 128.75 382.25 C 127.81657 405.79159 128.04585 430.27217 136.71875 452.4375 C 143.42419 464.0735 153.61838 473.52885 164.65625 480.84375 C 181.36407 488.99265 201.03576 482.756 218.125 489 C 236.11339 490.8542 253.63578 484.36235 270.21875 478.34375 C 288.62643 470.99795 305.18879 458.29391 315.5625 441.40625 C 320.89621 433.76177 329.20815 424.00308 324.59375 414.25 C 318.84684 402.84129 307.98805 395.17871 300.25 385.3125 C 291.18351 375.86475 284.07187 364.28909 273.90625 356.1875 C 263.4023 350.8063 251.61982 347.84374 239.96875 346.03125 C 232.15952 346.32766 229.12099 354.56459 227 360.75 C 220.80264 374.62757 215.48508 390.05454 207.65625 402.4375 C 202.91414 398.2184 209.56651 393.00254 210.65625 388.65625 C 216.14734 375.57986 224.72308 363.5576 227.6875 349.59375 C 229.14042 339.6553 219.03779 334.27052 212.3125 329.28125 C 205.04772 325.06204 197.3725 318.93864 188.59375 318.9375 z "
       transform="translate(0,540.36218)"
       id="path5333" />
    <path
       style="fill:#000000"
       d="m 210.18595,1043.5945 c -3.94899,-1.1455 -15.33653,-1.8076 -25.30566,-1.4713 -17.3854,0.5864 -18.58894,0.2692 -29.4675,-7.7653 -20.28737,-14.9836 -25.40326,-19.5227 -25.40326,-22.5391 0,-1.6318 -3.34819,-8.0217 -7.44042,-14.19989 -6.58282,-9.93824 -7.66149,-14.04595 -9.35822,-35.63789 -2.14497,-27.29632 0.0413,-54.07156 5.98188,-73.25768 4.89521,-15.81007 3.67294,-19.5024 -6.45973,-19.51394 -4.3194,-0.005 -11.37971,-2.15889 -15.689587,-4.78665 -4.30988,-2.62773 -10.89588,-4.7777 -14.63553,-4.7777 -3.73963,0 -9.79987,-2.3602 -13.46714,-5.24487 C 65.27351,851.51549 56.185454,846.27634 48.745129,842.75762 35.470881,836.4799 14.673286,817.32488 8.5287563,805.71751 3.1643083,795.58376 -1.4966947,764.93519 0.45195228,752.60814 2.9387133,736.87695 25.008075,700.94766 36.474523,693.96275 c 4.714565,-2.87194 9.9576,-7.12478 11.651213,-9.45077 1.693614,-2.32599 7.617095,-5.37047 13.163294,-6.76554 5.546193,-1.39507 15.187583,-4.83536 21.425323,-7.6451 9.43214,-4.24866 12.372,-4.639 17.464207,-2.31882 3.36763,1.53438 10.97223,2.78978 16.89913,2.78978 5.92693,0 14.05093,1.69342 18.05336,3.76315 8.68854,4.49303 15.26995,2.86342 12.86303,-3.185 -0.91226,-2.29247 -2.55191,-10.31983 -3.64362,-17.83853 -4.0672,-28.01086 6.99394,-51.02233 39.17187,-81.4928 14.04035,-13.2953 19.7532,-16.9891 32.01168,-20.69789 10.2619,-3.10474 17.36178,-3.93872 22.73659,-2.67074 25.76674,6.0787 51.12362,22.12472 62.50244,39.55206 6.6553,10.19294 8.06964,12.4219 19.74238,31.11324 6.85727,10.98044 10.00842,23.01897 11.27636,43.07987 0.61776,9.77424 9.32958,11.08634 18.06369,2.72058 3.47787,-3.33115 10.63135,-7.85247 15.89666,-10.04737 5.26532,-2.19492 12.2658,-5.88023 15.55663,-8.18963 10.79834,-7.57789 16.48235,-7.9178 40.37364,-2.41457 26.98496,6.2159 39.31129,10.90203 44.88943,17.06583 2.21751,2.45033 5.39779,4.45515 7.06728,4.45515 4.60252,0 18.04656,12.131 21.08751,19.02794 1.47973,3.3561 5.85497,10.78027 9.72273,16.49816 9.71214,14.35795 10.09141,36.5481 0.92676,54.22363 -3.41254,6.58164 -6.94767,15.4045 -7.85587,19.60633 -2.20394,10.1966 -13.73527,25.75209 -24.03703,32.42534 -4.59184,2.9745 -8.36212,6.287 -8.37841,7.36118 -0.0168,1.07414 7.05348,8.93229 15.71063,17.46251 19.18422,18.90299 23.69775,28.67731 27.50526,59.56422 3.62279,29.3885 3.22032,46.1085 -1.50075,62.34846 -4.2966,14.77977 -6.84279,17.2722 -27.93217,27.34252 l -16.10397,7.68976 -34.15588,-1.63 c -36.24022,-1.72949 -42.97681,-3.04754 -64.45725,-12.61149 -7.45145,-3.3177 -15.11359,-5.43143 -17.02696,-4.69719 -1.91339,0.73422 -8.44879,9.95134 -14.52313,20.48243 -12.23303,21.20845 -15.75925,24.24525 -43.45488,37.42325 -10.53063,5.0107 -20.76209,10.4373 -22.73659,12.0591 -4.45961,3.6632 -46.44107,6.0762 -56.24316,3.2327 z m 31.8433,-21.506 c 20.92884,-3.6446 50.64478,-18.7493 59.42528,-30.20591 13.0431,-17.0185 19.93414,-28.14445 19.97751,-32.25475 0.0239,-2.26979 -8.68231,-13.03977 -19.34726,-23.93325 -10.66497,-10.89352 -20.94823,-22.81481 -22.85171,-26.49178 -1.90349,-3.67698 -5.83232,-7.6291 -8.73076,-8.7825 -12.51236,-4.97912 -30.76503,-9.71876 -32.73618,-8.50054 -1.17722,0.72755 -4.42805,7.43719 -7.2241,14.91032 -2.79606,7.47312 -6.60147,16.33786 -8.45647,19.69945 -1.85499,3.36156 -4.96705,10.15069 -6.9157,15.08692 -4.04173,10.23832 -6.06335,10.92935 -12.18492,4.16506 -4.64072,-5.12789 -4.29859,-6.69793 5.47085,-25.10665 10.87254,-20.48728 15.12192,-30.55266 14.42546,-34.16909 -0.99313,-5.15694 -25.44155,-21.7752 -32.28444,-21.94462 -2.87605,-0.0713 -8.26103,1.0958 -11.96662,2.59333 -3.70561,1.49753 -12.12244,3.99782 -18.70408,5.55616 -19.69718,4.66375 -25.20869,17.711 -26.32748,62.32417 -0.58216,23.21376 4.11408,52.70796 9.26746,58.20337 2.07499,2.2127 7.13297,8.05021 11.23994,12.97221 9.08734,10.8908 24.33522,16.1137 42.06797,14.4099 6.77145,-0.6507 14.24882,-0.014 16.7206,1.4208 5.74032,3.3352 10.21281,3.3424 29.13465,0.047 z M 463.5941,961.8916 c 14.09258,-2.85697 21.80068,-9.13207 20.25898,-16.49265 -0.36681,-1.75127 0.7483,-9.71769 2.47801,-17.70312 2.33724,-10.79015 2.49326,-16.87908 0.60754,-23.70864 -1.39558,-5.05433 -1.98917,-10.07675 -1.31913,-11.1609 1.45648,-2.35661 -4.57731,-20.80076 -10.40061,-31.79279 -6.24457,-11.78719 -20.27176,-22.71813 -37.037,-28.86173 -8.24446,-3.02119 -20.51169,-7.62731 -27.26051,-10.23587 -14.99884,-5.79735 -46.9857,-6.44493 -63.46618,-1.2849 -9.89232,3.09727 -11.60602,4.7105 -15.55661,14.64452 -2.44182,6.1401 -4.77936,11.91865 -5.1945,12.8412 -0.41518,0.92255 3.60217,4.42785 8.92742,7.78954 7.37118,4.65322 12.8469,6.11212 22.94064,6.11212 19.47977,0 40.56042,14.45612 34.76201,23.83814 -1.60693,2.60005 -4.04632,2.71057 -12.39795,0.5617 -5.71859,-1.4714 -14.04615,-3.37349 -18.5057,-4.22688 -4.45953,-0.85339 -15.11335,-5.20292 -23.67514,-9.66564 -8.56179,-4.46269 -16.38026,-8.11399 -17.3744,-8.11399 -0.99411,0 -7.2837,4.57723 -13.97682,10.17162 -17.39135,14.53645 -16.8126,18.61915 5.83997,41.19834 11.94717,11.90845 19.95266,18.03649 23.56235,18.03649 3.00695,0 7.40884,2.14549 9.782,4.76779 2.37312,2.62227 12.00288,8.41701 21.39947,12.8772 30.94843,14.68999 59.27504,17.77384 95.60616,10.40845 z m -306.06133,-117.39655 11.96664,-3.09104 1.34725,-16.60775 c 0.74097,-9.13425 2.59551,-19.56009 4.12118,-23.16859 1.52565,-3.60847 2.23307,-7.97028 1.57206,-9.6929 -0.66104,-1.72262 -12.20855,-8.73511 -25.66112,-15.5833 -24.74993,-12.59923 -47.2191,-27.90314 -49.00998,-33.38106 -1.4976,-4.58075 9.87347,-3.6514 16.44967,1.34442 17.20809,13.07272 55.26414,28.04979 67.04055,26.38399 4.96264,-0.70197 5.65737,-2.04611 5.49862,-10.63855 -0.10003,-5.40928 -2.63666,-14.56375 -5.63717,-20.34327 -3.00052,-5.77952 -7.43529,-14.36934 -9.85509,-19.0885 -3.60973,-7.03978 -7.9688,-10.21404 -24.27941,-17.68027 -44.99627,-20.5971 -66.935277,-22.18713 -90.182506,-6.53597 -8.846929,5.95616 -14.190651,11.68058 -17.115583,18.3349 -2.338974,5.32123 -7.051384,13.38446 -10.472022,17.91826 -5.74336,7.6124 -6.219345,10.09538 -6.219345,32.44326 0,21.40916 0.62102,25.01404 5.384984,31.25901 16.397561,21.49513 52.246105,46.12134 67.611452,46.44578 3.94899,0.0833 8.79548,1.19561 10.76997,2.47163 5.12734,3.31353 32.58262,2.84875 46.66985,-0.79005 z m 286.00246,-41.80072 c 0,-4.58323 4.34659,-10.19392 16.83224,-21.7275 19.88221,-18.36609 25.52837,-26.79082 28.4555,-42.45906 1.62923,-8.72078 1.28988,-14.00912 -1.36205,-21.22663 -1.94252,-5.28676 -4.5936,-13.11252 -5.89131,-17.3906 -1.29772,-4.27806 -3.28396,-7.77831 -4.41387,-7.77831 -1.12992,0 -6.48026,-3.69771 -11.88966,-8.21714 -12.12897,-10.13347 -46.27044,-21.14401 -65.25726,-21.04534 -13.53668,0.0703 -44.72933,17.80668 -60.56243,34.43616 -7.25126,7.61602 -13.18413,15.5235 -13.18413,17.5722 0,3.70213 -9.95952,29.70796 -14.42011,37.65313 -4.03933,7.19483 -2.61661,11.54274 7.52606,23.00015 5.42255,6.12548 11.04145,13.69437 12.48636,16.81977 2.52578,5.46324 3.23047,5.60511 18.26235,3.67639 19.50733,-2.50295 52.20234,-1.94863 58.65078,0.9944 12.62151,5.7604 17.24506,8.03155 22.54546,11.07466 7.53469,4.32591 12.22207,2.26169 12.22207,-5.38228 z M 338.82722,764.58626 c -1.64541,-0.59021 -2.99166,-2.33313 -2.99166,-3.87312 0,-4.37031 12.69037,-15.27014 22.98339,-19.74055 5.1296,-2.22786 11.81981,-5.19783 14.86716,-6.59997 4.30738,-1.98189 6.03054,-1.77486 7.74164,0.93008 5.71696,9.03736 0.87618,13.22389 -31.23223,27.01105 -8.18915,3.51639 -8.00391,3.47935 -11.3683,2.27251 z M 234.89704,741.35128 c 3.62802,-3.54562 6.46105,-15.27992 8.77946,-36.36413 1.53864,-13.99284 1.2805,-15.02443 -5.76827,-23.05256 -5.85338,-6.66661 -7.37227,-10.5656 -7.34635,-18.85824 0.0192,-5.7497 0.69575,-12.92939 1.50612,-15.95487 2.22451,-8.30497 8.90192,-5.56354 10.54663,4.32998 1.84681,11.10896 6.39624,19.12084 10.85751,19.12084 1.99534,0 5.3223,4.03874 7.39325,8.97497 3.27695,7.81083 3.38419,11.97939 0.8268,32.13761 -3.04859,24.03012 -2.42925,28.29387 4.10992,28.29387 2.13243,0 7.41482,1.27924 11.73864,2.84275 6.78496,2.45346 8.52885,2.23881 12.73489,-1.56758 2.68035,-2.42571 4.87338,-5.48802 4.87338,-6.80518 0,-1.31715 2.52128,-5.72745 5.60285,-9.8007 3.08157,-4.07323 6.25824,-11.17537 7.05923,-15.78252 0.80103,-4.60716 3.09441,-17.36714 5.09643,-28.35553 3.47716,-19.08505 3.42901,-20.39245 -1.07593,-29.22289 -2.59379,-5.08422 -4.71595,-11.47162 -4.71595,-14.19427 0,-9.34797 -14.76805,-34.6899 -27.21272,-46.69695 -6.82152,-6.58165 -19.67434,-15.49259 -28.5618,-19.8021 -16.12878,-7.82081 -16.18406,-7.82895 -29.53552,-4.3424 -7.35707,1.92122 -15.67369,5.57851 -18.4814,8.12733 -2.80768,2.54882 -9.63209,7.57464 -15.16534,11.16849 -7.59302,4.93165 -11.83808,10.33297 -17.30834,22.02266 -11.90359,25.4374 -13.4273,32.71681 -9.80584,46.84701 4.48256,17.48997 11.63674,33.06861 18.6191,40.54414 3.3077,3.54134 5.41687,7.99493 4.68702,9.89688 -2.09584,5.46161 14.01935,26.57191 27.96395,36.63172 7.84508,5.65955 16.70523,5.60527 22.58228,-0.13833 z"
       id="path4893"
       inkscape:connector-curvature="0" />
  </g>
</svg>
