<?xml version="1.0" encoding="UTF-8" standalone="no"?>
<!-- Created with Inkscape (http://www.inkscape.org/) -->

<svg
   xmlns:dc="http://purl.org/dc/elements/1.1/"
   xmlns:cc="http://creativecommons.org/ns#"
   xmlns:rdf="http://www.w3.org/1999/02/22-rdf-syntax-ns#"
   xmlns:svg="http://www.w3.org/2000/svg"
   xmlns="http://www.w3.org/2000/svg"
   xmlns:sodipodi="http://sodipodi.sourceforge.net/DTD/sodipodi-0.dtd"
   xmlns:inkscape="http://www.inkscape.org/namespaces/inkscape"
   width="512"
   height="512"
   id="svg2"
   version="1.1"
   inkscape:version="0.48.4 r9939"
   sodipodi:docname="level4color.svg">
  <defs
     id="defs4" />
  <sodipodi:namedview
     id="base"
     pagecolor="#ffffff"
     bordercolor="#666666"
     borderopacity="1.0"
     inkscape:pageopacity="0.0"
     inkscape:pageshadow="2"
     inkscape:zoom="1.1074219"
     inkscape:cx="146.28572"
     inkscape:cy="256"
     inkscape:document-units="px"
     inkscape:current-layer="layer1"
     showgrid="false"
     inkscape:window-width="1276"
     inkscape:window-height="782"
     inkscape:window-x="0"
     inkscape:window-y="14"
     inkscape:window-maximized="0" />
  <metadata
     id="metadata7">
    <rdf:RDF>
      <cc:Work
         rdf:about="">
        <dc:format>image/svg+xml</dc:format>
        <dc:type
           rdf:resource="http://purl.org/dc/dcmitype/StillImage" />
        <dc:title></dc:title>
      </cc:Work>
    </rdf:RDF>
  </metadata>
  <g
     inkscape:label="Layer 1"
     inkscape:groupmode="layer"
     id="layer1"
     transform="translate(0,-540.36218)">
    <path
       style="fill:#000000"
       d=""
       id="path3133"
       inkscape:connector-curvature="0" />
    <path
       style="color:#000000;fill:#ab37c8;fill-opacity:1;fill-rule:nonzero;stroke:none;stroke-width:6;marker:none;visibility:visible;display:inline;overflow:visible;enable-background:accumulate"
       d="m 258.5,620.25 c -8.22276,3.23388 -9.25865,13.47729 -12.875,20.5 -3.55291,10.48305 -5.87493,21.31482 -10.24539,31.46097 -6.09968,22.1649 -10.40125,45.79988 -6.12961,68.66403 4.31615,11.8083 14.29098,21.83238 26.40625,25.34375 5.87821,0.72302 9.2674,-5.37776 8.56168,-10.58942 0.90297,-8.21024 0.55006,-19.11729 1.40707,-25.59808 3.25759,11.04815 2.16716,24.52705 10.625,33.4375 5.47171,4.71327 16.93303,4.19201 17.82333,-4.61851 6.35916,-17.9876 13.0821,-38.84814 4.42667,-57.31899 -8.01476,-18.83893 -23.70204,-34.19151 -27.37881,-54.79315 -2.98884,-8.50413 -4.5651,-18.03054 -9.24619,-25.6131 -0.9638,-0.69876 -2.18663,-1.04344 -3.375,-0.875 z m 158.59375,91.15625 c -18.95447,4.35343 -39.22703,2.29841 -57.59375,9.125 -16.80944,7.60459 -30.27991,21.17884 -43.21875,33.9375 -6.54651,7.13661 -13.86973,17.39719 -9.90625,27.46875 3.06243,5.44475 10.338,0.84824 13.58443,-2.38571 12.74899,-8.06486 21.9575,-20.63386 34.88432,-28.52054 1.63406,-2.29925 4.98332,0.0135 1.8125,1.625 -10.36399,12.81587 -22.0715,24.42059 -33.52038,36.25407 -5.20749,3.12374 -11.32798,10.40356 -6.35462,16.27718 6.04575,5.89846 14.61872,-0.43187 20.625,-2.9375 13.58767,-5.82022 25.28269,-15.37307 37.75,-23.21875 19.17035,-15.39531 29.70551,-38.58912 45.71875,-56.625 3.80731,-2.96166 4.06934,-10.65197 -1.84375,-11.03125 -0.64377,-0.0626 -1.29537,-0.0368 -1.9375,0.0313 z M 182.25,768.96875 c -15.21637,0.14297 -31.07986,1.82642 -43.8588,10.88752 -19.63209,11.51342 -40.682675,21.52481 -57.3287,37.20623 -3.630381,6.32761 4.425796,11.04025 9.180018,13.21967 16.144302,7.31659 34.489672,4.27717 51.694982,4.99908 13.96951,0.26524 27.4139,-3.58533 40.12705,-8.87791 13.13268,-4.53129 25.57069,-11.31395 38.6542,-15.80959 6.07598,0.32334 21.73971,-2.94926 15.46875,-11.8125 -6.49283,-4.5452 -15.28144,-2.48347 -22.71875,-4.125 -4.3568,-0.1286 -7.28557,-1.13804 -1.40625,-2.25 5.85917,-2.06743 14.09965,-3.53019 16.65625,-9.71875 -0.23391,-7.21516 -9.40275,-7.80612 -14.73162,-9.03462 -10.49577,-2.01915 -20.95286,-5.08381 -31.73713,-4.68413 z m 55.1875,55.375 c -11.22322,3.80737 -16.53717,15.74745 -22.26675,25.17784 -8.62002,14.63003 -15.31179,30.94639 -14.82336,48.28527 -0.53255,15.55091 -2.06124,31.59753 1.46511,46.84939 5.03936,12.08869 6.8293,25.02019 8.28125,37.96875 0.22489,4.2002 3.52121,9.129 8.125,6.6875 5.89988,-4.46714 7.78097,-12.41826 12.625,-17.9375 13.98289,-19.24624 30.15264,-37.29799 40.65675,-58.86573 5.60291,-8.64124 9.2842,-18.40185 9.9066,-28.74137 2.09168,-11.8133 6.84833,-24.99073 1.7179,-36.61165 -5.76675,-6.4423 -15.47376,-4.30092 -23.09375,-5.5625 -5.88283,1.79363 -3.56029,9.35597 -5.86433,13.72046 -1.74591,6.70425 -3.33294,13.85409 -7.01067,19.52954 0.41775,-14.66824 7.76393,-29.02698 5.25,-43.875 -2.27482,-5.72197 -9.61638,-6.78558 -14.96875,-6.625 z m 88.15625,3.4375 c -5.36394,0.38419 -5.65239,8.32734 -0.8125,9.9375 6.04771,4.98308 15.26465,8.22615 19.1875,14.5 -9.09377,0.189 -17.27659,-4.38248 -25.71875,-6.84375 -6.00159,-3.05173 -5.35584,-12.76963 -12.125,-14.375 -7.47254,-0.10953 -9.02348,9.34578 -8,15.15625 2.12996,11.08389 3.59745,23.74854 12.85779,31.3992 13.29447,12.22749 31.41894,17.58482 49.17346,19.1008 18.10184,1.61485 36.66773,4.21038 52.46875,13.71875 4.18417,2.80414 10.92523,4.54831 13.5625,-1 3.79895,-8.04114 -2.07391,-16.64651 -4.4375,-24.125 -8.27706,-15.1132 -21.40096,-26.97224 -34.40625,-38 C 374.54048,838.96042 359.29715,836.0978 345,831 c -6.3252,-1.78803 -12.79036,-3.38818 -19.40625,-3.21875 z"
       id="path6192"
       inkscape:connector-curvature="0" />
    <path
       style="fill:#000000"
       d="m 199.36189,1048.6589 c -2.4818,-2.4818 -3.04968,-5.1255 -3.04968,-14.1971 0,-6.131 0.75525,-13.5621 1.67835,-16.5136 0.9231,-2.9516 1.64682,-14.7464 1.60827,-26.21082 -0.059,-17.54332 -0.74295,-23.50359 -4.31871,-37.63589 -3.96345,-15.66453 -4.24221,-18.85364 -4.15312,-47.51473 l 0.0955,-30.72317 7.81658,-14.78974 c 8.11583,-15.35592 10.57404,-23.38349 8.83673,-28.85724 -1.31154,-4.13233 -3.82231,-4.03921 -13.58047,0.50363 -21.05019,9.79976 -43.53073,13.28745 -73.13602,11.34657 -10.62648,-0.69665 -21.04904,-1.90122 -23.161264,-2.67679 -32.781516,-12.03695 -34.540233,-12.51659 -42.244362,-11.52079 -4.224437,0.54603 -9.75461,1.85738 -12.289272,2.91412 -9.870696,4.1152 -30.087732,10.05282 -34.2289863,10.05282 -6.536831,0 -10.21216903,-3.30362 -9.00891003,-8.09778 1.04380303,-4.15885 11.67383933,-10.0797 24.10769533,-13.4278 3.268685,-0.88015 6.318667,-2.20802 6.777717,-2.95079 0.459067,-0.74278 4.463064,-1.817 8.897786,-2.38716 15.932641,-2.04844 37.031792,-9.38242 48.122902,-16.72734 24.882264,-16.47789 28.965184,-19.05465 43.645984,-27.54524 24.09829,-13.93719 24.03592,-13.91911 48.40391,-14.02618 19.31832,-0.085 35.12107,1.60189 42.61545,4.54881 4.18584,1.64594 4.99272,-3.1985 1.3121,-7.87766 -1.93832,-2.46418 -3.21934,-6.33306 -3.21934,-9.72297 0,-3.09663 -0.77535,-6.40558 -1.72301,-7.35323 -2.34922,-2.34922 -2.34017,-12.84411 0.0223,-25.77424 1.08055,-5.91421 2.47127,-13.86384 3.09047,-17.66583 0.61921,-3.802 3.3249,-11.86749 6.01269,-17.9233 2.68778,-6.05583 4.88687,-12.83867 4.88687,-15.07296 0,-5.77637 4.57429,-19.44317 7.72272,-23.07354 1.46545,-1.68978 5.24562,-13.09576 8.40036,-25.34662 8.08337,-31.39034 8.31398,-32.77036 8.38856,-50.19948 0.0673,-15.73076 1.63387,-20.5062 6.70531,-20.44032 5.84757,0.0761 6.41059,2.38944 6.80323,27.95395 0.21135,13.76101 1.07544,28.77616 1.9202,33.36699 0.84475,4.59082 1.53591,12.41857 1.53591,17.39497 0,5.57634 1.47354,13.43759 3.8404,20.48836 2.11222,6.29218 3.84039,13.25405 3.84039,15.47077 0,2.21674 1.4467,5.48573 3.21488,7.26441 1.7682,1.7787 6.00513,8.0729 9.41546,13.98709 3.41031,5.91421 7.77501,12.48129 9.69935,14.59352 4.90794,5.38713 6.83883,13.88773 6.84876,30.15105 0.006,10.30379 0.59349,14.50679 2.21462,15.85223 2.54817,2.11478 7.11527,0.26347 10.3885,-4.21109 2.90007,-3.96446 21.81474,-16.77818 32.63302,-22.10719 7.24701,-3.56984 11.85526,-4.70099 20.82727,-5.11227 29.88788,-1.37008 47.26719,-6.37825 84.8563,-24.45296 13.29788,-6.3943 25.55478,-11.62599 27.23752,-11.62599 1.9672,0 3.39738,1.3461 4.00584,3.77039 1.51818,6.04893 -10.64725,18.80779 -27.37303,28.70827 -8.11966,4.80629 -17.78286,12.2075 -23.27119,17.82382 -5.16213,5.28249 -10.20055,9.60525 -11.19649,9.60614 -1.61726,10e-4 -6.78129,4.72073 -16.33316,14.92662 -3.04972,3.25854 -7.12781,10.35672 -12.60666,21.94277 -3.18955,6.74489 -15.92664,19.97006 -19.23303,19.97006 -1.36305,0 -4.15411,1.78753 -6.2024,3.97226 -4.15481,4.43163 -21.85942,16.84411 -29.95694,21.00242 -5.78633,2.97144 -6.70188,5.36915 -2.57017,6.731 1.47856,0.48734 5.799,2.28061 9.601,3.98506 3.80199,1.70443 10.08288,4.04219 13.95754,5.19501 3.87464,1.15285 8.30222,3.48553 9.83907,5.18372 1.53684,1.69819 3.59425,3.08761 4.57201,3.08761 2.74627,0 20.29199,13.51608 31.09645,23.95469 9.98725,9.64907 16.09967,19.65413 22.89984,37.48339 4.30445,11.28583 9.32449,17.29946 18.25349,21.86633 3.37956,1.72853 7.87281,4.49799 9.98503,6.15437 4.29946,3.37159 22.4578,11.92771 25.31374,11.92771 3.4276,0 20.47072,9.29097 21.37743,11.6538 0.49457,1.28885 -0.13502,4.81885 -1.39926,7.84444 l -2.2985,5.50108 -8.62604,-1.01384 c -4.94503,-0.58119 -10.27362,-2.30979 -12.48691,-4.05078 -2.12349,-1.67032 -5.32301,-3.05028 -7.11008,-3.06658 -1.78706,-0.0163 -8.30095,-3.82434 -14.47533,-8.46233 -11.52538,-8.65744 -27.24836,-16.33337 -44.84365,-21.89257 -5.49178,-1.73513 -15.51521,-5.35716 -22.2743,-8.04899 -12.85546,-5.11971 -23.36637,-7.40424 -37.76058,-8.20723 -4.71546,-0.26306 -9.55436,-1.0924 -10.75312,-1.843 -1.19876,-0.7506 -3.42277,-1.16003 -4.94225,-0.90987 -4.67818,0.77024 -23.12527,-5.93526 -27.35287,-9.94275 -2.20047,-2.0859 -6.34285,-5.04858 -9.20532,-6.58374 -2.87634,-1.54259 -6.58517,-5.4519 -8.29102,-8.73916 -3.94908,-7.61008 -8.45789,-8.894 -8.45789,-2.40845 0,2.51567 -1.79823,9.65189 -3.99604,15.85825 -2.19782,6.20636 -5.27299,14.91297 -6.83367,19.34802 -1.56072,4.43503 -4.48825,10.31084 -6.50565,13.05735 -2.01742,2.74651 -5.56594,8.32404 -7.88564,12.39456 -2.31968,4.07049 -6.8754,9.25504 -10.12377,11.52119 -3.24839,2.26614 -6.3135,5.66689 -6.81132,7.5572 -0.49782,1.8903 -2.7254,4.62961 -4.95018,6.08732 -2.22477,1.45773 -5.70961,6.4143 -7.74408,11.01459 -2.03446,4.60029 -5.73339,10.83221 -8.21984,13.84869 -2.48644,3.01649 -4.5208,6.42944 -4.5208,7.58434 0,2.8582 -5.98021,23.43924 -7.77284,26.75034 -0.79426,1.4672 -1.44411,3.7243 -1.44411,5.0157 0,1.2916 -1.13136,6.4176 -2.51413,11.3911 -3.04495,10.9522 -7.79762,14.3947 -12.8701,9.3222 z m 22.40995,-69.68956 c 3.53746,-7.47122 8.31182,-13.96115 22.17135,-30.13821 2.53346,-2.9571 6.21867,-7.79601 8.18931,-10.75311 9.60599,-14.4144 11.77069,-17.9304 11.77069,-19.11855 0,-0.70817 2.88633,-5.85555 6.41402,-11.43863 5.29939,-8.38695 6.46653,-11.61931 6.71611,-18.59991 0.16615,-4.64688 1.4174,-11.55959 2.78058,-15.36158 2.96049,-8.2571 3.28016,-21.47661 0.60299,-24.93755 -1.2936,-1.67233 -4.92754,-2.64535 -11.13648,-2.98188 l -9.21629,-0.49951 -1.80117,9.21695 c -0.99065,5.06933 -2.8016,11.29077 -4.02434,13.82543 -1.22273,2.53467 -3.01238,6.55869 -3.97699,8.94229 -1.16185,2.87104 -2.65549,4.14924 -4.42519,3.78697 -2.18744,-0.44777 -2.58481,-1.92865 -2.19346,-8.17421 0.26283,-4.19506 1.44411,-11.08373 2.62507,-15.30816 1.18095,-4.22444 2.59423,-11.85702 3.14061,-16.96133 0.95984,-8.96675 0.85567,-9.34329 -3.08141,-11.13715 -2.24116,-1.02114 -5.62656,-1.85662 -7.52312,-1.85662 -5.54569,0 -15.42683,11.72997 -22.51092,26.72289 -13.03972,27.5975 -12.41143,24.84817 -13.01065,56.93251 -0.48907,26.18608 -0.25289,29.73534 2.25319,33.86075 3.04035,5.00492 6.21827,18.53624 7.21553,30.72319 1.18274,14.45344 3.3485,15.23503 9.02057,3.25542 z m 201.64365,-70.54731 c 2.05397,-2.47491 -0.83544,-14.41462 -5.98237,-24.72037 -4.77556,-9.56213 -33.8342,-37.79318 -38.90108,-37.79318 -1.0057,0 -7.68017,-2.35839 -14.8322,-5.24089 -16.34531,-6.5877 -36.38864,-11.16066 -38.71607,-8.83323 -1.17799,1.178 -0.23286,2.44155 3.29607,4.4065 18.76789,10.45024 24.62736,17.24446 16.96841,19.67531 -3.51693,1.11622 -16.33834,-1.83057 -17.7247,-4.07376 -0.45054,-0.72899 -3.06782,-1.32545 -5.81617,-1.32545 -5.26721,0 -10.11606,-4.79975 -13.29461,-13.16003 -1.82204,-4.7923 -4.80986,-4.21149 -6.76312,1.31472 -1.72759,4.88774 2.90079,25.84795 7.06395,31.98997 2.86531,4.22723 20.88537,16.72315 24.11609,16.72315 1.03917,0 3.82156,0.99918 6.18312,2.22038 2.36156,1.22121 12.86912,2.95201 23.35013,3.84623 24.90851,2.12513 32.50611,3.91256 46.14534,10.8562 13.38052,6.81194 12.80118,6.65204 14.90721,4.11445 z M 168.16635,827.56999 c 26.49332,-9.02285 38.78156,-14.12212 43.66935,-18.12163 1.35636,-1.10988 7.09391,-2.4501 12.75008,-2.97827 9.32423,-0.87072 10.24096,-1.2615 9.82313,-4.18739 -0.40513,-2.83712 -1.38894,-3.18928 -8.14161,-2.91446 -8.50572,0.34615 -25.00575,-2.35867 -26.2027,-4.29537 -1.08888,-1.76185 4.47876,-4.4407 15.29785,-7.3605 10.94417,-2.95358 13.04009,-6.54606 5.37749,-9.21726 -2.70388,-0.94258 -6.79988,-1.71376 -9.10225,-1.71376 -2.30236,0 -7.21092,-1.07814 -10.90791,-2.39586 -5.3205,-1.89634 -10.5648,-2.20427 -25.15573,-1.47704 -17.67592,0.88101 -18.93922,1.17502 -30.72318,7.15041 -6.75909,3.4274 -13.37581,7.19845 -14.70379,8.38011 -1.32799,1.18165 -7.2038,4.58049 -13.05735,7.55294 -5.85356,2.97247 -13.53743,7.6429 -17.07526,10.37874 -3.537844,2.73585 -8.714694,6.36606 -11.504104,8.06713 -8.14293,4.96583 -7.44098,7.7855 3.16598,12.71759 8.903614,4.14005 10.299854,4.32062 36.099744,4.66838 26.25524,0.35391 27.13212,0.26156 40.39026,-4.25376 z M 331.1035,801.50268 c 9.02053,-3.29712 17.05463,-7.89154 24.93518,-14.25958 2.9384,-2.37442 6.0986,-4.31713 7.02267,-4.31713 0.92408,0 6.41687,-3.77461 12.20623,-8.38799 8.09867,-6.45364 12.55895,-11.67888 19.34123,-22.65835 4.8483,-7.84869 12.67779,-18.52671 17.39884,-23.7289 12.13909,-13.37628 11.50708,-15.78043 -3.1226,-11.87846 -4.9675,1.32489 -15.25324,2.54956 -22.85723,2.72142 -7.60398,0.1719 -15.33535,1.14719 -17.1808,2.16731 -1.84544,1.02013 -4.61054,1.85516 -6.14464,1.85564 -8.30456,0.003 -46.30699,32.11255 -51.86335,43.82171 -2.68046,5.64867 -3.16153,13.89161 -0.89257,15.29391 1.33589,0.82562 28.23151,-20.54938 29.487,-23.43446 1.0687,-2.45587 14.76034,-12.63964 16.99342,-12.63964 1.28809,0 3.19965,1.03346 4.24794,2.29654 2.63856,3.17928 -0.61214,7.92434 -15.26468,22.282 -6.46682,6.33666 -13.29829,13.72695 -15.18104,16.42286 -1.88277,2.69591 -4.78855,5.33501 -6.45725,5.86462 -3.75025,1.1903 -6.40452,5.86275 -5.16517,9.09249 1.19216,3.10666 2.76852,3.04184 12.49682,-0.51399 z m -70.86605,-40.36553 c 0.61822,-1.00028 1.17746,-10.62062 1.24277,-21.37849 0.0653,-10.75787 0.64433,-20.08523 1.28672,-20.72745 3.0699,-3.06915 7.40949,9.49771 9.7493,28.23252 1.31951,10.56532 5.29802,15.69218 12.17739,15.69218 4.84415,0 5.31934,-0.4536 6.83955,-6.52868 0.89853,-3.59077 2.99897,-10.86363 4.66767,-16.16193 5.79523,-18.4005 3.51316,-34.13607 -7.22196,-49.79713 -13.28414,-19.37977 -18.66085,-29.82693 -20.56628,-39.96124 -1.00055,-5.32161 -2.66585,-11.05819 -3.70064,-12.74797 -1.03478,-1.68978 -2.36268,-5.66459 -2.95088,-8.83291 -1.18973,-6.40858 -2.39648,-7.03617 -5.90762,-3.07232 -2.85853,3.22711 -11.92034,28.80527 -11.92034,33.6468 0,1.88304 -0.67029,3.838 -1.48953,4.34431 -2.50959,1.55102 -7.43052,20.59531 -10.12927,39.20087 -2.70317,18.63595 -2.25447,31.66972 1.38783,40.3148 4.88168,11.58674 22.90044,23.65795 26.53529,17.77664 z"
       id="path5091"
       inkscape:connector-curvature="0"
       sodipodi:nodetypes="sssssscsssssssssssssssssssssssssscsssssssscssssssssscssssssssssssssssccssssssssssssssssssssssscsssssssssssscssssssssssssssssssssssssssssssssssssssssssssssssssssssssssscsssscssccssssssssssssssssss" />
  </g>
</svg>
