<?xml version="1.0" encoding="UTF-8" standalone="no"?>
<!-- Created with Inkscape (http://www.inkscape.org/) -->

<svg
   xmlns:dc="http://purl.org/dc/elements/1.1/"
   xmlns:cc="http://creativecommons.org/ns#"
   xmlns:rdf="http://www.w3.org/1999/02/22-rdf-syntax-ns#"
   xmlns:svg="http://www.w3.org/2000/svg"
   xmlns="http://www.w3.org/2000/svg"
   xmlns:sodipodi="http://sodipodi.sourceforge.net/DTD/sodipodi-0.dtd"
   xmlns:inkscape="http://www.inkscape.org/namespaces/inkscape"
   width="512"
   height="512"
   id="svg2"
   version="1.1"
   inkscape:version="0.48.4 r9939"
   sodipodi:docname="level1.svg">
  <defs
     id="defs4" />
  <sodipodi:namedview
     id="base"
     pagecolor="#ffffff"
     bordercolor="#666666"
     borderopacity="1.0"
     inkscape:pageopacity="0.0"
     inkscape:pageshadow="2"
     inkscape:zoom="1.1074219"
     inkscape:cx="146.28572"
     inkscape:cy="256"
     inkscape:document-units="px"
     inkscape:current-layer="layer1"
     showgrid="false"
     inkscape:window-width="1276"
     inkscape:window-height="782"
     inkscape:window-x="0"
     inkscape:window-y="14"
     inkscape:window-maximized="0" />
  <metadata
     id="metadata7">
    <rdf:RDF>
      <cc:Work
         rdf:about="">
        <dc:format>image/svg+xml</dc:format>
        <dc:type
           rdf:resource="http://purl.org/dc/dcmitype/StillImage" />
        <dc:title></dc:title>
      </cc:Work>
    </rdf:RDF>
  </metadata>
  <g
     inkscape:label="Layer 1"
     inkscape:groupmode="layer"
     id="layer1"
     transform="translate(0,-540.36218)">
    <path
       style="color:#000000;fill:#5f5fd3;fill-opacity:1;fill-rule:nonzero;stroke:none;stroke-width:6;marker:none;visibility:visible;display:inline;overflow:visible;enable-background:accumulate"
       d="m 229.55106,609.56471 c -22.52997,2.74933 -38.48337,21.13336 -52.65625,37.09375 -8.79353,10.56034 -13.75418,24.87492 -10.17108,38.48995 4.22528,28.4537 18.85681,56.62696 43.26483,72.63505 7.35971,4.37491 17.09691,2.31991 22.375,-4.21875 4.94377,-5.12849 12.21386,-7.11926 18.90625,-4.65625 9.81081,2.71603 21.81887,8.93177 31.15625,1.6875 12.4188,-8.56486 22.24482,-20.31165 33.15625,-30.625 12.03348,-13.41834 14.9183,-33.49264 8.125,-50.0625 -8.57182,-22.01852 -27.51576,-38.19011 -47.32085,-49.99997 -14.23779,-7.55242 -30.65663,-10.96801 -46.8354,-10.34378 z m -103.5,90.84375 c -17.45461,6.93766 -38.791912,10.25105 -50.34375,26.65625 -10.338316,17.37067 -6.610287,38.84021 -7,58.25 0.781915,14.98072 8.702439,31.08808 23.750001,35.90625 20.306819,9.30286 43.421589,5.34423 64.249999,0.1875 12.32562,-3.08726 25.47309,-5.13172 36.4375,-11.78125 10.12583,-9.06505 7.28169,-24.57268 3.59375,-36.0625 -8.65385,-22.92751 -28.55788,-38.67341 -45.625,-55.3125 -7.6791,-6.65671 -15.52577,-12.82473 -24.15625,-18.125 l -0.90625,0.28125 z m 242.6875,37.375 c -24.44103,2.09753 -43.75217,19.31735 -66.5,26.65625 -7.12386,2.39015 -16.60897,7.65376 -14.4375,16.65625 2.27,8.25247 5.69394,16.24014 8.625,24.3125 6.63558,15.21432 20.22037,27.56283 36.78125,30.625 19.192,5.29326 39.72546,8.31683 59.45937,4.62408 18.01366,-5.71704 32.00513,-19.02994 46.60313,-30.43658 8.46044,-7.73089 13.16424,-20.3881 8.2312,-31.3382 -3.88374,-14.63912 -15.36849,-27.70896 -30.53379,-30.82858 -15.62055,-5.16851 -31.61931,-10.43384 -48.22866,-10.27072 z M 188.70731,838.00221 c -14.57578,-0.0339 -32.17674,4.93891 -38.08699,19.61898 -10.74099,28.9815 -15.75147,61.04246 -10.16301,91.72477 3.41567,13.27071 15.53394,25.31422 30.09375,23.71875 20.54462,-0.15877 40.60424,-8.21015 56.875,-20.375 8.18003,-6.87117 13.13264,-19.97198 6.25,-29.375 -6.88922,-11.69036 -8.63706,-25.34768 -12.9934,-38.05496 -3.59703,-11.67473 -5.19871,-23.83069 -7.6316,-35.69504 -3.92357,-9.55706 -14.78651,-12.62884 -24.34375,-11.5625 z m 99,3.28125 c -15.16333,2.64008 -26.73788,14.27543 -41.28125,18.53125 -8.04244,3.70411 -11.99847,13.08061 -9.8125,21.53125 2.71375,28.92232 21.42466,53.6639 43.125,71.65625 15.13802,11.40793 36.32339,12.48197 53.1379,4.23108 9.00293,-4.17817 18.29608,-7.82008 27.95585,-10.01233 12.18343,-4.73533 20.1638,-19.88088 13.90362,-32.18022 -7.5883,-23.25717 -19.56048,-48.33576 -43.0793,-58.79824 -12.84911,-5.84823 -26.04462,-11.90123 -39.94932,-14.77154 -1.28422,-0.11258 -2.65478,-0.31061 -4,-0.1875 z"
       id="path3432"
       inkscape:connector-curvature="0" />
    <path
       style="fill:#000000"
       d=""
       id="path3133"
       inkscape:connector-curvature="0" />
    <path
       style="fill:#000000"
       d="m 152.82407,1002.0178 c -3.48882,-1.4114 -10.00981,-7.15253 -14.49105,-12.75817 -4.48129,-5.60562 -9.97266,-12.24901 -12.20309,-14.76309 -7.28246,-8.20862 -8.94998,-12.76798 -12.6616,-34.61889 -3.20421,-18.864 -2.93142,-24.93004 2.18211,-48.51989 6.41651,-29.60091 4.92708,-35.70879 -8.70772,-35.70879 -4.01031,0 -14.885515,-4.28579 -24.16708,-9.52399 -15.52898,-8.76403 -17.981361,-11.72571 -30.733004,-37.11576 -13.194732,-26.27225 -13.805063,-28.6286 -12.762579,-49.27285 1.260936,-24.9704 11.486616,-48.39444 23.895036,-54.7365 4.190141,-2.14164 11.732382,-5.98898 16.760548,-8.54963 5.028165,-2.56064 13.941734,-5.57334 19.807925,-6.69486 23.769584,-4.54439 41.332504,-9.0961 44.683884,-11.58056 1.9494,-1.44514 4.47696,-9.75794 5.61683,-18.47292 1.87286,-14.31896 4.01881,-17.82691 22.27661,-36.41516 11.11228,-11.31337 21.7701,-20.56977 23.6841,-20.56977 1.91398,0 6.97812,-2.75163 11.2536,-6.11474 10.17373,-8.00265 39.80307,-11.22652 55.82616,-6.0743 25.10846,8.07365 58.97968,33.68438 74.02024,55.96824 20.247,29.99759 21.74883,33.52471 20.93473,49.16569 l -0.79308,15.23686 24.84444,3.52561 c 13.66443,1.93907 30.12024,5.79071 36.56849,8.55922 31.4359,13.49675 32.65349,14.54099 44.53708,38.19684 10.77106,21.4412 11.28351,23.70375 8.28249,36.56849 -4.27699,18.33437 -9.25094,30.47373 -12.48625,30.47373 -1.4568,0 -8.40411,6.11601 -15.43849,13.59114 -8.27426,8.79267 -18.77443,15.88056 -29.74084,20.07575 -9.32306,3.56652 -19.88377,7.63642 -23.46818,9.04415 l -6.51708,2.55955 7.32491,15.30544 c 4.02868,8.41799 8.67349,16.13888 10.32175,17.15759 1.64824,1.01868 2.74984,11.02887 2.44797,22.24488 -0.46897,17.42385 -1.68834,21.53457 -8.37572,28.23571 -4.30475,4.31363 -14.68344,10.2695 -23.0637,13.23527 -8.38028,2.9658 -21.40781,7.92421 -28.95005,11.0187 -7.54226,3.09451 -20.96609,7.23028 -29.83074,9.19063 -15.55102,3.43899 -16.81468,3.20672 -35.94975,-6.60762 -19.34543,-9.92227 -20.03438,-10.04369 -28.06936,-4.94638 -33.09352,20.99411 -76.9868,31.72978 -96.85954,23.69038 z m 44.50085,-39.49607 c 27.80588,-8.65414 41.2459,-24.72667 30.04397,-35.9286 -1.87646,-1.87644 -4.51182,-8.66446 -5.85635,-15.08449 -1.34457,-6.41999 -4.54873,-17.15802 -7.12035,-23.86225 -2.57162,-6.70422 -4.73585,-17.16403 -4.80942,-23.24402 -0.0735,-6.07996 -2.19783,-12.76752 -4.72057,-14.86122 -6.82291,-5.6625 -34.11821,-2.25213 -41.56343,5.19309 -12.59726,12.59727 -21.5587,77.54779 -13.39525,97.08569 7.151,17.11476 18.55067,19.68739 47.4214,10.7018 z m 141.18735,-14.03209 c 3.50753,-2.45676 9.19536,-4.46684 12.63962,-4.46684 9.53815,0 19.80792,-8.63211 19.80792,-16.6493 0,-11.64696 -16.75281,-45.51514 -26.62148,-53.81907 -5.02548,-4.2287 -13.77624,-9.41526 -19.44609,-11.5257 -5.66984,-2.11046 -14.81215,-5.78058 -20.3162,-8.15583 -13.36078,-5.76585 -17.92181,-5.46061 -28.24507,1.89019 -4.79574,3.41486 -13.921,8.02928 -20.27834,10.25423 -11.49302,4.02233 -11.55278,4.13008 -10.49855,18.93197 1.74746,24.53495 29.19594,62.14493 50.76666,69.5606 12.6598,4.35222 31.14937,1.71399 42.19153,-6.02025 z m 74.54442,-124.63008 c 32.70732,-22.8447 35.82731,-29.15928 24.94599,-50.48842 -5.42921,-10.64214 -8.3385,-12.64423 -26.66453,-18.34973 -37.87936,-11.79309 -46.03454,-11.53105 -71.39057,2.29412 -12.27424,6.69242 -27.55326,13.86549 -33.95335,15.94014 -8.91286,2.88922 -11.16957,4.94891 -9.64149,8.79978 1.09726,2.76519 4.62469,11.97739 7.83873,20.47158 9.05993,23.94411 28.11507,32.0822 80.48152,34.37218 6.29665,0.27548 15.13104,-3.78321 28.3837,-13.03965 z m -259.03726,-7.70317 c 39.53558,-8.44876 41.22611,-9.62794 39.50362,-27.55452 -1.44198,-15.00706 -7.56303,-25.51376 -25.48619,-43.74669 -20.42207,-20.7751 -38.64457,-35.82032 -41.95691,-34.64132 -1.91461,0.68149 -10.81428,3.83317 -19.77706,7.00375 -24.511706,8.67099 -29.414614,17.35847 -29.414614,52.11959 0,33.86858 4.961669,43.10228 26.188184,48.73619 18.38467,4.87967 19.29931,4.84527 50.94297,-1.917 z m 73.97731,-65.95928 c 7.25053,-8.73634 17.23268,-10.59353 31.05548,-5.77791 7.07737,2.46566 14.35428,4.50295 16.17095,4.52735 1.81663,0.0244 12.31678,-8.57895 23.33368,-19.11852 17.17359,-16.42954 20.31695,-21.10223 22.03754,-32.75926 2.62689,-17.79746 -4.17933,-34.01018 -20.79017,-49.52308 -21.28691,-19.87988 -33.34494,-26.15368 -54.41524,-28.31241 -18.09509,-1.8539 -20.35999,-1.36279 -34.20302,7.41618 -8.15359,5.17084 -20.08247,16.64304 -26.50864,25.4938 -10.5665,14.55316 -11.51747,17.40379 -9.94283,29.80542 2.97832,23.45676 12.73541,45.46809 26.39394,59.54294 13.86276,14.28526 20.46275,16.42372 26.86831,8.70549 z"
       id="path3757"
       inkscape:connector-curvature="0" />
    <path
       inkscape:connector-curvature="0"
       style="fill:#000000"
       d="m 310.77261,792.73735 c -3.99963,-3.99964 -4.38115,-5.46576 -2.618,-10.06046 1.32269,-3.44689 8.28072,-3.87585 11.45066,-0.70591 3.42351,3.42353 2.62768,10.37502 -1.4368,12.55027 -2.90346,1.55388 -4.42509,1.18687 -7.39586,-1.7839 z"
       id="path3298" />
    <path
       inkscape:connector-curvature="0"
       style="fill:#000000"
       d="m 320.22314,816.07235 c -7.95097,-3.1959 -3.99815,-12.88514 5.25662,-12.88514 7.09147,0 9.52002,6.68454 4.31836,11.88619 -3.27588,3.2759 -3.7795,3.32843 -9.57498,0.99895 z"
       id="path3296" />
    <path
       inkscape:connector-curvature="0"
       style="fill:#000000"
       d="m 213.83182,734.77069 c -1.89382,-4.93518 0.98149,-12.01412 4.87984,-12.01412 4.50119,0 6.96832,8.07768 3.678,12.04228 -2.93697,3.53882 -7.19443,3.52483 -8.55784,-0.0281 z"
       id="path3294" />
    <path
       inkscape:connector-curvature="0"
       style="fill:#000000"
       d="m 261.45734,732.2247 c -4.74317,-6.02995 -4.74468,-6.672 -0.0259,-10.94236 2.85931,-2.58767 4.56046,-2.96873 6.8384,-1.53183 4.55951,2.87605 6.25058,11.28047 2.93655,14.59447 -3.81523,3.81523 -5.34117,3.48335 -9.749,-2.12028 z"
       id="path3290" />
    <path
       inkscape:connector-curvature="0"
       style="fill:#000000"
       d="m 236.43665,732.47271 c -4.05791,-2.96723 -3.20066,-12.10533 1.39823,-14.90465 2.66981,-1.62509 3.88128,-1.31187 6.00913,1.55363 5.98637,8.06167 0.0331,18.79169 -7.40736,13.35102 z"
       id="path3286" />
    <path
       inkscape:connector-curvature="0"
       style="fill:#000000"
       d="m 154.45841,802.04457 c -4.27589,-2.24807 -5.09042,-3.76109 -4.62242,-8.58645 0.45529,-4.69451 1.49117,-5.96533 5.21735,-6.40056 8.73182,-1.01989 16.32603,10.26054 10.69712,15.88945 -2.73514,2.73513 -4.66697,2.58072 -11.29205,-0.90244 z"
       id="path3284" />
    <path
       inkscape:connector-curvature="0"
       style="fill:#000000"
       d="m 159.77729,781.91798 c -5.62462,-5.62462 -2.5328,-14.45413 4.70309,-13.43102 3.44407,0.48696 4.53855,1.91673 4.98353,6.51029 0.72212,7.45417 -5.03789,11.56947 -9.68662,6.92073 z"
       id="path3282" />
    <path
       inkscape:connector-curvature="0"
       style="fill:#000000"
       d="m 305.75608,862.30449 c 3.22312,4.18975 2.48695,11.79481 -1.24938,12.90701 -4.31411,1.2842 -8.98327,-5.75388 -6.96081,-10.49244 1.80527,-4.22966 5.88978,-5.43091 8.21018,-2.41463 z"
       id="path3294-9" />
    <path
       inkscape:connector-curvature="0"
       style="fill:#000000"
       d="m 260.83635,878.33228 c 6.26639,4.4261 6.45101,5.04103 3.14669,10.48018 -2.0022,3.29589 -3.52393,4.14645 -6.11714,3.41917 -5.19055,-1.45568 -9.20913,-9.02833 -6.97832,-13.15009 2.56817,-4.74515 4.12537,-4.86242 9.94872,-0.74925 z"
       id="path3290-7" />
    <path
       inkscape:connector-curvature="0"
       style="fill:#000000"
       d="m 284.74637,870.95614 c 4.73581,1.68618 6.5213,10.68906 2.9122,14.6841 -2.09521,2.31925 -3.34569,2.36468 -6.20263,0.22536 -8.03757,-6.01869 -5.39302,-18.00123 3.29043,-14.90946 z"
       id="path3286-9" />
    <path
       inkscape:connector-curvature="0"
       style="fill:#000000"
       d="m 189.3221,870.70192 c -5.35532,-1.82064 -6.34541,-2.96728 -6.79402,-7.86817 -0.33654,-3.67659 5.7158,-7.13598 9.9602,-5.69302 4.58392,1.55841 6.94169,8.14608 4.25673,11.89344 -1.918,2.67692 -3.4452,3.02005 -7.42291,1.66775 z"
       id="path3298-1" />
    <path
       inkscape:connector-curvature="0"
       style="fill:#000000"
       d="m 208.11111,887.45925 c -8.54482,0.64637 -9.28028,-9.79227 -0.97804,-13.88173 6.36159,-3.13354 11.49392,1.78988 9.12611,8.75465 -1.49117,4.38626 -1.91975,4.65592 -8.14807,5.12708 z"
       id="path3296-9" />
  </g>
</svg>
