<?xml version="1.0" encoding="UTF-8" standalone="no"?>
<!-- Created with Inkscape (http://www.inkscape.org/) -->

<svg
   xmlns:dc="http://purl.org/dc/elements/1.1/"
   xmlns:cc="http://creativecommons.org/ns#"
   xmlns:rdf="http://www.w3.org/1999/02/22-rdf-syntax-ns#"
   xmlns:svg="http://www.w3.org/2000/svg"
   xmlns="http://www.w3.org/2000/svg"
   xmlns:sodipodi="http://sodipodi.sourceforge.net/DTD/sodipodi-0.dtd"
   xmlns:inkscape="http://www.inkscape.org/namespaces/inkscape"
   width="512"
   height="512"
   id="svg2"
   version="1.1"
   inkscape:version="0.48.4 r9939"
   sodipodi:docname="17.svg">
  <defs
     id="defs4" />
  <sodipodi:namedview
     id="base"
     pagecolor="#ffffff"
     bordercolor="#666666"
     borderopacity="1.0"
     inkscape:pageopacity="0.0"
     inkscape:pageshadow="2"
     inkscape:zoom="1.1074219"
     inkscape:cx="146.28572"
     inkscape:cy="256"
     inkscape:document-units="px"
     inkscape:current-layer="layer1"
     showgrid="false"
     inkscape:window-width="1276"
     inkscape:window-height="782"
     inkscape:window-x="0"
     inkscape:window-y="14"
     inkscape:window-maximized="0" />
  <metadata
     id="metadata7">
    <rdf:RDF>
      <cc:Work
         rdf:about="">
        <dc:format>image/svg+xml</dc:format>
        <dc:type
           rdf:resource="http://purl.org/dc/dcmitype/StillImage" />
        <dc:title></dc:title>
      </cc:Work>
    </rdf:RDF>
  </metadata>
  <g
     inkscape:label="Layer 1"
     inkscape:groupmode="layer"
     id="layer1"
     transform="translate(0,-540.36218)">
    <path
       style="fill:#000000"
       d=""
       id="path3133"
       inkscape:connector-curvature="0" />
    <path
       style="color:#000000;fill:#d42aff;fill-opacity:1;fill-rule:nonzero;stroke:none;stroke-width:6;marker:none;visibility:visible;display:inline;overflow:visible;enable-background:accumulate"
       d="m 239.84375,566.625 c -20.49951,-0.82666 -38.43013,10.68002 -55.82792,19.93585 -17.00924,11.4584 -30.11842,31.04722 -28.35958,52.31415 1.78023,25.67037 5.72506,52.89094 21.75,73.78125 3.32144,5.35753 10.17311,10.59533 16.53125,6.90625 4.1107,-1.80937 2.2875,-7.35693 4.65625,-9.78125 3.79601,5.78194 5.6897,15.8912 14.46875,15.65625 13.90234,0.19796 27.89214,-0.16941 41.625,-2.40625 1.33185,-1.33747 3.75342,3.5771 6.59375,2.28125 5.8875,-1.06182 6.34787,-9.3504 9.15625,-12.625 0.0725,4.52647 2.26721,12.48855 8.21875,10.46875 7.2372,-3.69373 9.96318,-12.32837 14.9695,-18.23644 13.79815,-20.86564 27.30022,-45.12861 24.18675,-71.04481 -3.10289,-16.10339 -16.56515,-27.20105 -26.82843,-38.95343 -11.84359,-11.57286 -24.29481,-24.82401 -41.17157,-28.04657 -3.31375,-0.29917 -6.64399,-0.32609 -9.96875,-0.25 z m -165.4375,59.6875 c -23.72812,-0.57802 -47.142686,16.96675 -50.187112,41.04484 -3.734031,23.45399 1.714283,48.53429 15.124612,67.98641 6.112851,7.24286 13.265036,14.40161 22.09375,18.1875 4.273042,2.20477 10.614166,-0.58272 9.125,-5.90625 -0.584832,-4.76877 -7.377141,-7.92373 -5.5,-12.84375 8.548999,3.91664 12.939436,14.21083 17.625,22.125 5.441676,5.61558 15.495578,-1.9465 11.90625,-8.8125 -0.264645,-5.03866 -4.819497,-10.23918 -3.0625,-15.09375 4.667827,0.17694 8.376117,5.79998 6.90625,10.40625 -0.682841,5.70845 -1.423954,14.02593 5.46875,16.21875 4.96336,2.03961 9.42629,-2.75744 8.28125,-7.6875 0.0786,-3.93291 -2.60335,-9.31126 -1.125,-12.375 5.74165,5.03775 8.72197,12.22937 10.9375,19.375 5.2425,5.22462 13.10161,9.49694 20.5,8.03125 5.9548,-3.67812 1.78727,-11.56441 -2.1875,-15 -2.73029,-3.86479 -8.44863,-7.23419 -8.46875,-12.25 3.89194,-0.50633 7.94875,2.61884 11.8125,3.3125 6.39991,2.07082 12.35858,7.4314 19.03125,7.21875 5.44242,-2.51005 0.81225,-8.71257 -2.03125,-11.28125 -1.05543,-1.93161 -5.54009,-5.19969 -0.94652,-2.90986 5.66074,3.1085 13.30327,2.69308 17.16527,-3.02764 3.82984,-3.87248 2.05246,-9.74661 -1.30918,-13.31804 -3.72589,-5.53841 -7.45186,-13.42727 -14.47207,-14.61946 -5.09147,0.72774 -9.01948,6.52672 -14,5.96875 3.07024,-4.50591 9.02609,-7.47975 10.28125,-13.09375 0.0425,-6.41651 -8.35274,-5.04866 -12.0625,-2.625 -2.50652,0.71043 -5.72988,4.37694 -7.9375,3.09375 -3.26915,-2.86974 2.15197,-3.96732 3.96875,-5.0625 4.62882,-1.66759 13.11848,-5.10159 10.34375,-11.34375 -1.93961,-4.0014 -7.79278,-2.28074 -10.34375,-4.53125 1.10307,-4.01285 7.34709,-8.33725 3.25,-12.65625 C 127.53633,648.03017 108.35876,629.63505 83.5,626.625 c -3.019651,-0.27964 -6.061715,-0.38764 -9.09375,-0.3125 z m 311.1875,30.4375 c -7.51958,-0.47034 -14.75065,0.27073 -21.5625,3.53125 -18.04534,6.19514 -37.10359,14.01952 -47.6875,30.9375 -10.4666,13.61824 -21.48023,27.40861 -28.75,42.9375 -0.86791,6.8673 8.11605,10.53978 13.3125,6.96875 3.29847,-0.83242 7.33387,-3.99645 10.1875,-3.75 -2.15773,4.14692 -8.93779,8.10538 -5.28125,13.46875 4.19297,6.15158 12.6499,2.82808 16.5625,-1.78125 3.22629,-2.89436 -1.74364,3.56195 -2.40625,4.6875 -2.95701,3.34884 -6.19315,10.82792 0.1875,12.28125 6.65218,0.14744 12.40767,-4.31065 18.4375,-6.59375 -4.51253,3.73442 -10.95177,6.94087 -12.46875,12.96875 0.2645,6.22698 8.22176,6.70405 12.78125,5.34375 3.55747,-0.30283 8.709,-2.47145 11.03125,-1.6875 -3.81222,4.96722 -12.83778,7.12318 -12.6875,14.25 0.45904,4.12004 6.99257,5.76602 6.03125,9.84375 -6.2072,6.72562 -3.64848,20.25613 5.6875,22.75 18.08637,4.34643 39.11493,4.98301 54.9792,-6.3012 17.00861,-10.34293 31.488,-24.8307 40.23955,-42.8238 8.04111,-10.53596 15.81002,-21.99564 18,-35.1875 0.70742,-16.22897 -0.45073,-33.8038 -9.15535,-47.81782 -10.84572,-12.10474 -22.92242,-23.97175 -37.8759,-30.74468 -9.43792,-3.41528 -19.63642,-3.4051 -29.5625,-3.28125 z m -147.875,25.375 c 1.72605,7.97173 4.60795,16.44666 3.3125,24.625 -1.71833,2.11721 -3.6853,-0.008 -2.63351,-2.52484 -0.4816,-8.15452 -1.24008,-16.30107 -1.27274,-24.47516 0.19792,0.79167 0.39583,1.58333 0.59375,2.375 z m 19.34375,12.3125 c -0.24909,6.93976 1.75119,14.46083 -0.71875,21.03125 -2.35946,-6.7196 -3.29328,-15.08169 0.71875,-21.3125 l 0,0.28125 z m -42.65625,1.21875 c 3.96982,2.64282 3.33522,8.58761 5.9375,12.34375 1.08823,2.10289 0.13317,7.81718 -2.90625,6.375 -2.91883,-5.05642 -4.57542,-11.6711 -3.75,-17.53125 0.15474,-0.41463 0.35492,-1.01199 0.71875,-1.1875 z m -124.03125,70.25 c -13.7114,0.50583 -26.672517,5.7143 -39.229148,10.71483 -15.057341,8.38872 -25.794747,23.14508 -34.614602,37.59767 -5.989555,10.59687 -3.397393,23.01666 -4.375,34.59375 -0.669197,5.26963 1.661805,9.68468 5.84375,12.71875 12.582539,12.95285 29.408339,22.91708 48.028393,22.79429 18.340476,1.10942 36.896727,3.31766 55.065357,-0.41929 15.25563,-2.21983 29.39427,-9.62858 40.25,-20.4375 3.22936,-3.84781 10.10271,-8.73557 6.96875,-14.375 -1.64497,-2.78682 -6.20941,-2.44757 -7.8125,-3.84375 2.29027,-3.98404 5.36038,-11.03996 -0.25,-13.78125 -7.7727,-2.0955 -15.93909,2.4236 -23.4375,1.40625 3.06217,-2.99088 8.50175,-9.15495 3.46875,-12.84375 -2.4568,-1.17515 -5.15323,-1.64195 -7.84375,-1.96875 7.70817,-2.50755 17.7412,-1.27124 23.875,-7.375 3.84493,-4.27697 0.86038,-9.92193 -2.78125,-12.96875 4.26389,-4.76498 -0.42279,-11.07632 -4.15625,-14.5625 -4.13616,-8.884 -15.2227,-10.14812 -23.56459,-12.89596 -11.53841,-2.88074 -23.48404,-4.57068 -35.43541,-4.35404 z m 359.25,19.0625 c -8.06144,4.27306 -13.33292,12.15296 -17.9375,19.6875 -2.17449,5.95378 4.29587,11.55705 2.40625,17.15625 -5.60259,6.28992 -15.23494,6.19568 -21.4375,11.3125 -2.70396,4.07349 2.3417,8.45861 6.5,7.09375 7.76281,0.28685 16.43343,-2.48642 23.21875,-3.46875 -5.37155,5.99852 -14.35678,7.41199 -18.96875,14.25 4.41353,5.9721 10.82722,12.85006 18.96875,11 1.42968,0.0926 4.58033,1.64523 1.15625,1.84375 -4.69911,0.73837 -7.719,6.40572 -4.125,10.1875 4.34709,6.87065 10.03565,14.49781 18.0625,16.65625 18.62438,-4.32024 38.09036,-16.08414 43.46875,-35.4375 1.87528,-12.5479 -4.88832,-24.49387 -11.0625,-34.84375 -7.47548,-10.28734 -15.53588,-20.37291 -24.95294,-28.91689 -4.40469,-3.28238 -9.50131,-7.2789 -15.29706,-6.52061 z m -105.5,49.15625 c -6.01989,-1.37174 -10.90947,6.15598 -7.03125,10.9375 -3.55724,1.67238 -10.55573,1.22104 -10.375,7.03125 0.10179,4.84236 7.09152,3.76966 7.46875,8.6875 -2.45141,-2.02106 -8.3557,-6.9707 -13.0625,-3.90625 -4.85593,4.19092 -10.60781,9.48821 -11.65625,15.8125 1.63678,5.83155 9.29337,9.81647 9.15625,15.40625 -8.65336,-4.31902 -16.65997,-13.35927 -27.25,-11.71875 -7.63286,1.07337 -8.91241,10.3144 -6.15625,16.21875 5.90125,19.64087 11.60836,41.03673 27.875,54.8125 13.88342,11.94743 29.89666,21.42101 45.03125,31.625 13.14201,9.03888 31.05917,6.40882 44.25,-1.0625 12.90088,-7.99704 25.18938,-17.86195 34.1875,-30.25 13.96623,-20.28168 10.59263,-49.05126 -4.625,-67.65625 -8.3867,-10.36273 -12.10774,-26.30143 -26.15625,-30.78125 -12.7103,-4.08594 -25.10159,-10.70599 -38.75,-10.25 -7.52419,-1.92074 -14.92274,-5.36928 -22.90625,-4.90625 z M 205.75,881.03125 c -12.97677,2.55851 -18.64556,17.265 -19.88839,29.04801 -2.98302,18.88376 -6.65774,38.44851 -3.23661,57.48324 1.64512,5.31188 6.79478,8.80573 11.40625,10.6875 -0.55634,10.08011 -1.72541,22.5551 7.3125,29.4375 9.28641,9.1832 22.02213,14.6692 34.75,17.1875 21.23687,1.0761 43.30983,-2.9217 61.40625,-14.1562 8.78135,-7.0131 16.63263,-16.91137 18,-28.3438 1.1931,-11.75847 -6.14202,-21.56914 -10.85523,-31.60929 -2.70827,-4.60444 -6.15081,-8.71449 -10.11352,-12.26571 -3.9104,0.54466 -6.71767,4.9705 -10.625,4.59375 -4.3586,-7.91102 5.66234,-17.12674 0.21875,-25.125 -1.87201,-4.53191 -8.19646,-4.11122 -9.96875,0.21875 -0.44067,3.08795 -2.96864,2.54271 -3.6875,0.125 -3.30771,-8.02087 -1.00256,-18.45409 -6.9375,-25.5 -5.14791,-3.56905 -11.86056,2.55514 -9.875,8.15625 0.7483,8.09994 2.97459,16.2207 2.25,24.5 -3.92152,-9.03961 -3.08602,-20.05658 -8.375,-28.4375 -3.29403,-3.13364 -7.15028,2.14479 -9.28125,2.65625 -2.61222,-6.48043 -8.64602,-10.51083 -15.46875,-11.46875 -6.81193,-0.36943 -10.18839,-7.7203 -17.03125,-7.1875 z m -57.875,3.875 c -13.61846,2.11065 -19.61128,16.20902 -28.9375,24.25 -2.59042,1.71231 -5.12248,-0.13059 -4.9375,-3.09375 -0.57271,-4.23523 -4.57268,-11.12198 -9.53125,-7.3125 -3.94312,2.85001 -4.33713,9.98808 -8.71875,11.46875 -2.03913,-3.8506 -5.624429,-10.41466 -10.96875,-7.1875 -9.134351,8.62368 -17.213549,19.32251 -21.204182,31.30638 -1.173156,15.31527 -2.392138,31.44947 2.235432,46.22487 5.610654,13.43734 17.553299,24.8059 31.78125,28.3437 19.41283,3.5714 37.85995,-6.0467 55.9375,-11.37495 4.47185,-1.81611 4.84022,-6.99734 4.125,-11.03125 0.57026,-2.61212 1.77016,-5.13746 4.125,-6.5625 0.40638,4.7982 2.81068,13.01035 9.28125,10.6875 7.98011,-1.74315 8.02007,-11.47165 6.21875,-17.78125 -4.55652,-20.89489 -1.68928,-42.49601 1.59375,-63.3125 -0.85607,-6.16989 -9.25089,-6.14098 -12.6875,-2.0625 -5.0617,4.10836 -10.25401,10.28866 -17.5,8.625 -1.54969,-0.52817 -7.41779,1.74913 -6,-1.625 1.29936,-9.76181 11.31106,-16.90733 10.78125,-26.875 -0.85393,-2.09585 -3.47343,-3.02952 -5.59375,-2.6875 z m 14.375,51.15625 c 2.23538,1.60977 -1.11529,5.43674 -1.89943,7.38691 -0.73818,1.28539 -3.73178,8.19713 -5.44432,4.64434 -2.16902,-4.93096 1.71543,-12.10892 7.34375,-12.03125 z"
       id="path8884"
       inkscape:connector-curvature="0" />
    <path
       style="color:#000000;fill:#7137c8;fill-opacity:1;fill-rule:nonzero;stroke:none;stroke-width:6;marker:none;visibility:visible;display:inline;overflow:visible;enable-background:accumulate"
       d="m 234.96875,729.5625 c -10.34518,0.25769 -17.24654,9.66837 -27.10918,11.33011 -14.97834,8.30469 -26.84507,21.5038 -38.79707,33.26364 -3.8819,15.91655 -6.25092,33.0816 -0.28125,48.78125 6.86615,22.06206 25.42634,37.72482 42.75887,51.78915 14.3475,11.26929 34.18102,9.8982 50.83341,5.45714 21.1336,-6.38609 43.14991,-16.31557 55.53272,-35.49629 3.84029,-5.80291 -3.84589,-10.53693 -3.875,-15.96875 4.12404,-4.64824 11.74063,-4.6925 16.34375,-9.09375 8.39433,-7.03128 5.00357,-19.74378 0.6989,-28.02876 -10.7712,-18.07364 -27.41694,-31.75936 -42.24837,-46.36142 -13.15973,-11.40772 -31.14205,-13.40864 -47.76303,-15.51607 -2.02735,-0.13602 -4.06166,-0.23428 -6.09375,-0.15625 z M 229.5,748.28125 c 4.24984,0.89602 4.50469,6.15986 2.5625,9.25 -0.91057,3.76229 2.35263,7.89068 0.6875,11.25 -2.5542,2.99528 -6.92351,-2.78397 -4.5625,-5.03125 5.20326,-3.68107 0.20598,-9.48096 -1.8125,-13.3125 -0.97443,-2.71627 1.35785,-1.69705 3.125,-2.15625 z m 34.3125,1.65625 c 5.31653,0.0548 4.22266,8.35481 -0.65625,7.21875 -2.00082,-1.35644 -2.49536,-6.90524 0.65625,-7.21875 z m 25.375,21.40625 c 2.87327,-0.32298 6.69186,2.72965 2.96875,4.90625 -2.32001,2.39917 -3.75299,-3.24548 -4.375,-4.75 0.46461,-0.0431 0.92808,-0.17497 1.40625,-0.15625 z m -89.28125,4.875 c 2.37047,1.01245 5.58358,6.33914 1.53125,6.9375 -4.58273,1.9854 -9.41431,3.90705 -14.375,3.53125 -1.13119,-2.61628 -0.91069,-6.42169 2.76082,-6.36748 3.30633,-1.46047 6.53915,-3.35093 10.08293,-4.10127 z m 58.5625,2.6875 c 8.84405,1.84162 12.35715,11.85843 18.53125,17.125 -0.65426,2.40016 -4.88862,4.45048 -6.78125,2.875 -1.03653,-5.5776 -2.22113,-12.3127 -8.34665,-14.47885 -1.49909,-0.62791 -7.74323,-4.43375 -3.40335,-5.52115 z m -21.65625,5.65625 c -2.61073,2.73009 -5.76009,9.64721 -10.8125,8.46875 -3.35571,-1.45717 -3.78941,-8.06144 0.875,-7.5625 3.24031,-0.7137 6.59898,-0.72595 9.9375,-0.90625 z m 70.75,1.4375 c 2.86676,1.68573 2.13402,6.5146 3.4375,9.375 0.99748,3.44673 -1.65204,5.65347 -4.6875,6.25 -4.01,2.02764 -3.02631,7.49531 -4.125,10.53125 -4.53599,0.86118 0.0577,-5.31525 -0.0937,-7.40625 1.96415,-5.95326 2.09908,-13.29344 3.9375,-18.625 0.52503,0.047 1.01599,-0.0879 1.53125,-0.125 z M 207,797.03125 c 6.51817,1.7988 7.44475,10.10414 12.1875,14.1875 1.57598,2.77438 6.89201,5.77972 6.71875,8.09375 -5.92785,0.0917 -10.40977,-4.35353 -12.4375,-9.5625 -2.34038,-4.05412 -7.31022,-8.00066 -7.40625,-12.5625 0.31183,-0.0647 0.62069,-0.14835 0.9375,-0.15625 z m 36.15625,5.34375 c 2.50832,-0.14173 5.18165,2.68486 5.15625,4.71875 -2.71856,0.68991 -8.87083,0.12748 -6.21875,-4.03125 0.29406,-0.34437 0.62323,-0.60703 1.0625,-0.6875 z m 40.25,8.5625 c 1.24183,1.35783 -2.17724,4.55213 -3.28125,5.9375 -2.9903,3.11574 -6.43429,7.05385 -10.40625,8.1875 -2.77467,-1.81948 -2.06142,-4.7149 0.8125,-6.09375 3.61061,-3.50478 7.53098,-7.76729 12.875,-8.03125 z M 181.03125,815 c 6.05447,0.90037 11.46109,4.63683 17.71875,4.78125 2.50757,0.73941 7.41121,1.05559 8.09375,3.78125 -5.99258,3.45556 -14.08636,0.49762 -20.03125,-2.1875 -2.25075,-1.39961 -5.89723,-3.61141 -5.78125,-6.375 z m 47.15625,21.78125 c 3.36808,1.07982 0.81035,5.97408 -1.8125,6.59375 -7.54176,4.83852 -17.31167,4.67484 -25.71875,4.8125 -1.7024,-2.53546 0.15723,-6.23054 3.59375,-5.59375 7.98672,-1.71644 16.12019,-3.42329 23.9375,-5.8125 z m 67.25,1.6875 c -0.30447,3.64085 -5.57806,6.78312 -9.03125,5.8125 -2.34971,-3.42349 3.67617,-4.59788 5.96875,-4.96875 1.04119,-0.20618 1.99111,-0.76501 3.0625,-0.84375 z M 257.71875,839.75 c 3.34687,-0.68056 6.71407,2.58085 2.21875,4.40625 -1.8814,1.31169 -4.33546,-3.17446 -2.21875,-4.40625 z M 252.5,858.4375 c 2.49095,2.03379 -0.0375,7.30307 -3.5,6.6875 -7.7111,-0.42219 -15.51174,0.6007 -23.125,0.0625 -3.8653,-1.71699 1.8933,-7.01711 4.71875,-4.6875 5.29312,0.93818 12.01114,6.3889 16.70334,0.64614 1.5741,-1.04806 3.27932,-2.39349 5.20291,-2.70864 z"
       id="path9413"
       inkscape:connector-curvature="0" />
    <path
       style="fill:#000000"
       d="m 224.98631,1032.6434 c -16.21046,-6.2817 -31.10672,-16.1664 -35.44608,-23.5211 -3.41141,-5.7819 -5.5044,-6.4242 -13.33987,-4.0937 -7.52509,2.2381 -18.35293,4.8781 -23.02419,5.6135 -2.35421,0.3706 -5.848,1.6547 -7.76399,2.8534 -5.41521,3.388 -33.04342,7.7135 -42.15155,6.5992 -11.11633,-1.3598 -21.11177,-5.1534 -26.37308,-10.0094 -18.728237,-17.28546 -23.588194,-27.33547 -25.188469,-52.0877 -0.949553,-14.6873 -0.69947,-17.29953 2.500045,-26.11453 1.955313,-5.38712 6.951989,-14.30668 11.103724,-19.82126 9.13485,-12.13348 8.24097,-14.30088 -6.147906,-14.90675 -6.767097,-0.28492 -10.894844,-1.45504 -15.591204,-4.41972 -3.513082,-2.21772 -7.344303,-4.03221 -8.513831,-4.03221 -7.166491,0 -27.237742,-20.28101 -31.98131,-32.31551 -3.77924898,-9.58802 -3.97297598,-14.55847 -1.102223,-28.27916 4.460166,-21.3174 22.750448,-49.51059 35.846413,-55.25474 2.605133,-1.14268 6.391775,-3.3853 8.414777,-4.98361 3.13525,-2.47707 3.413688,-3.40022 1.886367,-6.25407 -0.985499,-1.84141 -3.478902,-4.45346 -5.540911,-5.80452 -2.062008,-1.35109 -5.356529,-4.9683 -7.321167,-8.03829 -11.428078,-17.85762 -13.550132,-21.57815 -13.604806,-23.85273 -0.03322,-1.3833 -1.414616,-6.754 -3.069698,-11.93486 -1.655081,-5.18087 -3.751981,-16.08062 -4.659764,-24.22169 -1.590671,-14.2653 -1.509725,-15.1097 2.232848,-23.29179 2.135858,-4.66944 3.883364,-9.48858 3.883364,-10.70918 0,-1.22062 1.397518,-3.99595 3.105598,-6.16742 1.70808,-2.17147 3.105604,-4.5743 3.105604,-5.3396 0,-4.99816 20.809867,-17.55225 40.956199,-24.7079 7.86956,-2.79513 18.31852,-2.71593 25.27726,0.19163 3.06602,1.28105 7.06144,2.34453 8.87871,2.36329 5.75547,0.0595 15.3556,5.41194 27.37257,15.26144 6.4053,5.25 12.54137,9.54632 13.63571,9.54735 2.28174,10e-4 2.27417,0.0226 5.74398,-15.52609 1.4294,-6.40529 5.33406,-17.25003 8.67702,-24.09939 8.14684,-16.69191 18.07665,-25.39508 42.10239,-36.90154 35.01601,-16.76988 49.46502,-17.12694 74.99203,-1.85323 14.93884,8.93845 39.59881,35.67558 46.5138,50.43177 1.40076,2.98914 3.69364,7.53108 5.0953,10.0932 2.47127,4.51732 2.99538,11.84319 1.98214,27.70538 -0.31796,4.97759 0.20918,7.94515 1.55955,8.77972 1.28479,0.79405 7.56403,-1.53517 16.96359,-6.29246 14.67257,-7.42604 29.21057,-11.87156 33.47344,-10.23575 1.19121,0.45711 6.09901,-0.28778 10.90619,-1.6553 8.41295,-2.39328 9.04316,-2.36091 16.82333,0.86378 4.44566,1.84261 9.04924,3.35021 10.23021,3.35021 3.15179,0 15.17157,9.00654 23.31344,17.46899 3.90303,4.05669 7.94594,7.3758 8.98428,7.3758 2.69536,0 13.4865,15.09732 17.26739,24.15795 4.62035,11.0723 6.15835,18.66104 6.26248,30.89969 0.0931,10.93607 -0.48341,12.8139 -10.03794,32.70012 -2.05818,4.28374 -3.74212,8.60298 -3.74212,9.59836 0,0.99536 4.27494,5.52623 9.49987,10.06859 9.51329,8.27047 25.14309,26.57112 31.5257,36.91284 6.39874,10.36779 10.40926,22.46941 11.18102,33.73822 0.73773,10.7721 0.57546,11.42977 -4.78896,19.40999 -3.05392,4.54307 -8.07353,10.00702 -11.15471,12.14212 -3.08119,2.13509 -7.33335,5.49566 -9.44925,7.46792 -2.1159,1.97224 -9.01458,6.00525 -15.33038,8.96219 l -11.48329,5.37631 0,14.52833 c 0,14.84041 -2.14342,23.3097 -6.89787,27.25555 -1.3304,1.10414 -2.41936,3.49417 -2.4199,5.31117 -5.4e-4,1.81704 -3.15516,7.32155 -7.0103,12.23228 -5.55224,7.07253 -7.9126,8.9286 -11.35451,8.9286 -2.77705,0 -5.91684,1.64049 -8.70025,4.5457 -2.39528,2.50014 -7.94139,6.07086 -12.3247,7.93493 -4.38329,1.86403 -9.01778,4.31004 -10.29884,5.43554 -1.28105,1.12551 -8.39937,2.89525 -15.81846,3.93274 l -13.48925,1.88635 -11.35552,-7.04976 c -19.06888,-11.83834 -26.10713,-13.55729 -26.10713,-6.37609 0,1.7973 -14.99062,23.8505 -19.10362,28.104 -6.67807,6.9062 -14.61133,11.6266 -27.4986,16.3621 -19.28202,7.0854 -20.23809,7.3038 -35.69612,8.155 -12.14547,0.6688 -14.25347,0.3181 -26.41457,-4.3942 z m 41.94255,-13.2653 c 3.84318,-0.7185 10.13202,-2.759 13.97519,-4.5346 3.84318,-1.7755 9.21603,-4.0484 11.93965,-5.0508 3.11448,-1.1462 7.58002,-5.3677 12.03419,-11.37647 6.50134,-8.77045 7.08215,-10.29488 7.08215,-18.58797 0,-7.24383 -0.76924,-10.04252 -3.882,-14.12355 -2.1351,-2.79926 -3.88201,-6.57151 -3.88201,-8.38275 0,-3.50917 -8.51863,-14.27086 -11.29636,-14.27086 -0.91185,0 -2.97663,1.19346 -4.58845,2.65213 -6.67141,6.03753 -12.52871,-5.59721 -7.58894,-15.0744 1.90179,-3.64868 2.44381,-6.57821 1.62603,-8.78884 -1.86617,-5.04475 -4.10847,-5.60369 -5.19019,-1.29375 -1.14619,4.56679 -5.54572,5.13027 -9.00925,1.15388 -1.33107,-1.52816 -2.83107,-7.47439 -3.42749,-13.587 -0.58329,-5.97828 -1.67579,-11.48645 -2.42774,-12.24036 -2.48623,-2.49273 -6.35539,0.2962 -5.62439,4.05407 3.63852,18.70454 4.22956,25.54338 2.57596,29.80622 -1.56778,4.04156 -2.01696,4.28294 -4.09785,2.20205 -2.57664,-2.57666 -6.8047,-16.8917 -6.83366,-23.137 -0.0106,-2.18537 -0.92865,-5.21819 -2.04112,-6.7396 -1.83909,-2.51511 -2.20874,-2.54205 -4.07213,-0.29679 -3.23944,3.90328 -6.10118,2.91153 -8.55669,-2.96538 -1.68695,-4.03742 -3.21431,-5.4348 -5.94036,-5.4348 -4.03997,0 -15.91484,-5.2773 -17.44463,-7.75254 -0.53171,-0.86034 -2.58825,-1.56425 -4.57005,-1.56425 -4.7513,0 -14.12962,11.42302 -15.2982,18.63359 -4.83188,29.81456 -6.17664,41.08181 -5.93905,49.76116 0.42169,15.40395 1.80468,19.03549 8.04401,21.12259 l 5.33382,1.7842 -0.51153,11.03621 c -0.51037,11.01123 -0.49692,11.0528 5.94493,18.37111 4.67815,5.3147 8.88206,8.2185 15.26311,10.543 4.84367,1.7644 10.2042,4.0674 11.91228,5.1174 3.29003,2.0228 23.14404,1.4591 36.49077,-1.0359 z m -131.21152,-19.43044 18.63359,-6.49578 -0.46412,-4.83916 c -0.32041,-3.34072 0.68566,-6.17583 3.24911,-9.15603 4.93006,-5.73153 8.861,-4.33766 8.861,3.14206 0,5.97561 1.94875,6.8467 6.91519,3.09106 2.96224,-2.24008 2.97115,-2.59299 0.38099,-15.09042 -3.83608,-18.50897 -3.29541,-32.00827 2.42547,-60.55841 0.20435,-1.01976 -1.1143,-2.0827 -2.93034,-2.36203 -2.28651,-0.35174 -4.9128,1.37282 -8.5404,5.60803 -4.95314,5.78279 -5.78833,6.14679 -15.3317,6.68225 -10.0445,0.56355 -10.09558,0.54543 -10.58969,-3.75735 -0.34942,-3.0429 1.60952,-7.61534 6.61336,-15.43638 4.14861,-6.48433 6.53484,-11.68777 5.72927,-12.49335 -0.80557,-0.80557 -4.38747,0.14752 -8.60006,2.28845 -5.32964,2.70861 -8.55326,5.89025 -12.31474,12.15439 -7.89145,13.14188 -17.90066,14.68035 -19.65812,3.02156 -1.04558,-6.9363 -3.60471,-7.36242 -5.9111,-0.98425 -2.69183,7.44413 -7.29502,11.35695 -10.36416,8.80979 -1.29708,-1.07647 -2.35833,-2.83426 -2.35833,-3.90618 0,-1.0719 -0.96748,-2.75186 -2.14995,-3.73323 -1.71473,-1.42311 -3.39438,-0.28279 -8.2971,5.63285 -3.38093,4.07946 -8.16588,10.90004 -10.63323,15.15685 -4.26206,7.35314 -4.48746,8.67144 -4.5135,26.39759 -0.0344,23.32135 3.06937,32.40789 14.36966,42.0702 9.04277,7.73203 10.50639,8.62333 16.52337,10.06173 10.60079,2.5343 20.23209,1.2229 38.95553,-5.30424 z m 16.35901,-49.03048 c -2.68503,-5.01704 -1.81556,-10.9047 2.204,-14.92425 7.0274,-7.02741 15.09939,-3.54243 11.44997,4.94338 -5.14601,11.96577 -10.49794,15.87796 -13.65397,9.98087 z m 238.4968,28.65298 c 8.95509,-2.65937 22.94096,-11.92522 33.66802,-22.30561 13.81278,-13.36636 18.28852,-24.21313 17.46997,-42.33769 -0.61458,-13.6077 -3.8974,-22.22066 -12.26318,-32.17411 -3.10956,-3.69973 -6.94812,-9.63919 -8.53007,-13.1988 -5.17856,-11.65228 -10.04148,-15.93034 -21.60375,-19.00546 -5.7698,-1.53457 -13.05603,-4.10089 -16.19161,-5.70296 -4.01333,-2.05052 -7.28619,-2.61548 -11.05538,-1.90838 -3.88255,0.72837 -7.10016,0.11384 -11.70604,-2.23596 -11.31977,-5.7749 -26.61179,-3.81144 -20.20594,2.5944 2.70193,2.70194 -1.2182,6.58757 -6.64606,6.58757 -5.13988,0 -6.08342,2.64376 -1.20836,3.38579 2.2143,0.33705 3.94997,2.4884 5.4114,6.7074 2.70693,7.81462 2.70478,8.54039 -0.0251,8.54039 -1.22289,0 -3.74401,-2.1354 -5.60246,-4.74534 -4.0747,-5.72241 -10.49858,-5.83937 -13.27378,-0.24167 -0.96892,1.95435 -3.05579,4.49967 -4.63751,5.65624 -2.72339,1.9914 -2.57016,2.44124 2.89029,8.48529 6.93791,7.67942 7.84044,14.13747 1.97579,14.13747 -2.0847,0 -4.19925,-0.66156 -4.69898,-1.47017 -1.97628,-3.1976 -15.17097,-10.95222 -18.63555,-10.95222 -5.88122,0 -8.58887,1.64143 -8.59881,5.21273 -0.0191,6.88497 12.54197,42.35339 16.75285,47.30452 2.32056,2.7285 6.23771,7.4332 8.70479,10.45491 2.46709,3.02172 6.65965,6.60802 9.31679,7.96957 2.65717,1.36154 6.92748,4.16293 9.4896,6.22535 10.35237,8.33324 29.82967,21.20701 34.93797,23.09268 7.33647,2.70812 14.97065,2.68424 24.26516,-0.0759 z M 325.09497,877.73023 c -1.82085,-2.94621 0.83482,-3.67322 3.53919,-0.96886 2.4207,2.42073 2.42496,2.62497 0.0546,2.62497 -1.41368,0 -3.03089,-0.74525 -3.59384,-1.65611 z m 142.55188,6.34968 c 16.0636,-5.37544 30.64908,-21.17898 30.64908,-33.20869 0,-5.49269 -5.38959,-19.97394 -10.26464,-27.57995 -2.39477,-3.73631 -7.93642,-10.63758 -12.31475,-15.33615 -4.37835,-4.69856 -8.2514,-9.31077 -8.6068,-10.24932 -0.86569,-2.28609 -13.20174,-9.93462 -16.02325,-9.93462 -2.78731,0 -16.45532,15.7813 -16.45532,18.99958 0,1.29819 1.06417,4.90729 2.36486,8.02023 1.69439,4.05527 1.92196,6.48743 0.80271,8.57879 -1.63525,3.0555 -11.78284,8.41166 -19.08375,10.07291 -2.34862,0.53439 -4.27021,1.72569 -4.27021,2.64732 0,1.91244 17.66737,0.37811 22.02531,-1.91279 4.04054,-2.12408 8.60038,-1.63031 9.62598,1.04236 0.99434,2.59125 -5.81584,10.00518 -9.19042,10.00518 -1.06175,0 -3.45772,1.23672 -5.32441,2.74826 l -3.39397,2.74829 3.4386,4.37148 c 2.89059,3.67478 4.22879,4.22325 8.39658,3.44137 3.74814,-0.70316 5.62695,-0.19091 7.69945,2.09918 3.11481,3.44183 2.10126,6.33061 -2.22114,6.33061 -1.60728,0 -3.36204,0.7115 -3.8995,1.58112 -2.10494,3.40586 10.5312,18.67371 15.36671,18.56708 0.95237,-0.021 5.75786,-1.3855 10.67888,-3.03224 z m -349.0103,-3.28802 c 19.85724,-3.34456 26.10454,-6.48349 42.13172,-21.169 6.47378,-5.93186 6.61935,-10.77698 0.30154,-10.03624 -5.76361,0.67575 -6.50662,-1.67545 -2.61424,-8.27253 4.45581,-7.55204 2.48398,-8.57355 -10.97255,-5.68431 -15.37723,3.30163 -19.511,0.89473 -11.76568,-6.85061 2.13509,-2.1351 3.88199,-4.45166 3.88199,-5.14791 0,-0.69627 -3.58856,-1.69094 -7.97457,-2.21042 -4.38602,-0.51945 -8.29917,-1.26905 -8.6959,-1.66577 -1.69386,-1.69388 1.67093,-4.03353 5.80088,-4.03353 2.46131,0 4.90696,-0.69875 5.43479,-1.5528 0.52784,-0.85403 3.6806,-1.5528 7.00618,-1.5528 12.25089,0 18.00209,-6.30712 10.52607,-11.54355 -2.68282,-1.87911 -3.02127,-2.81213 -1.5528,-4.28061 2.79671,-2.79671 2.27559,-6.47232 -1.22785,-8.66026 -1.70807,-1.06671 -3.1056,-2.95712 -3.1056,-4.20089 0,-8.98146 -53.30708,-19.01483 -67.93217,-12.78607 -3.20418,1.36464 -9.54958,3.22273 -14.1009,4.12906 -4.551305,0.90635 -11.214775,3.67041 -14.807701,6.14241 -10.225641,7.03545 -23.879366,22.93397 -29.112389,33.89878 -4.454235,9.33302 -4.736798,10.96133 -4.238955,24.42832 l 0.533387,14.42878 7.757116,8.33699 c 4.266407,4.58535 9.407495,8.82073 11.424622,9.41194 2.01715,0.59122 4.815294,2.04363 6.218095,3.22759 3.756998,3.1709 17.446635,5.77562 31.007595,5.89982 6.55366,0.0601 13.31326,0.66621 15.02134,1.34704 3.5456,1.41332 17.38837,0.6986 31.05598,-1.60343 z m 150.61631,-6.3261 c 6.83517,-2.4897 15.56168,-6.06956 19.39222,-7.95529 8.12562,-4.0001 21.27008,-15.15401 25.45603,-21.60106 2.86551,-4.41338 2.86272,-4.55426 -0.15682,-7.91203 -1.69086,-1.88026 -3.51194,-4.65732 -4.04685,-6.17127 -1.23007,-3.4814 3.95191,-8.89336 8.51542,-8.89336 1.84097,0 5.68414,-1.78246 8.54039,-3.96103 4.59594,-3.50549 5.19149,-4.80019 5.17861,-11.25779 -0.0217,-10.89867 -6.59822,-20.82472 -28.368,-42.81666 -20.4683,-20.6772 -27.17376,-25.00232 -42.59794,-27.47637 -4.94377,-0.79298 -12.79263,-2.12057 -17.44191,-2.95017 -10.4239,-1.86002 -14.93612,-0.84293 -21.49215,4.84445 -2.80534,2.43364 -6.71808,4.42481 -8.69494,4.42481 -4.93981,0 -13.94623,6.40111 -28.4955,20.25256 l -12.30221,11.71214 -2.79529,13.32002 c -2.63378,12.55042 -2.64715,13.98596 -0.23105,24.84582 4.42998,19.91197 9.49011,28.35171 26.72028,44.56666 8.45425,7.95612 18.16638,15.93588 21.58254,17.73285 13.02044,6.84897 31.18612,6.59927 51.23717,-0.70428 z m -44.56481,-5.39444 c -4.02774,-1.14874 -5.0554,-6.51066 -1.91327,-9.98268 3.32964,-3.67919 6.70191,-3.77277 13.80988,-0.38322 5.32363,2.53866 5.57933,2.51359 9.2175,-0.90431 5.07926,-4.7717 10.8675,-3.92078 11.51578,1.69294 0.60929,5.27634 -4.93853,11.37488 -8.75453,9.62355 -2.81361,-1.29129 -9.19049,-1.32094 -16.57252,-0.0771 -2.56213,0.43173 -5.84842,0.44557 -7.30284,0.0308 z m -25.44216,-17.23174 c -2.64815,-1.85018 -3.59869,-7.79496 -1.64055,-10.26015 1.71167,-2.1549 4.98518,-3.02302 19.2814,-5.1133 3.64928,-0.53357 7.00962,-1.57621 7.46745,-2.31695 1.52826,-2.47279 6.73047,-1.38528 8.41309,1.75876 3.48201,6.50619 -5.39953,14.21896 -16.97976,14.74527 -3.89875,0.17718 -8.83552,0.78211 -10.97062,1.34428 -2.1351,0.56218 -4.64206,0.49111 -5.57101,-0.15791 z m 56.1479,-5.94937 c -5.44421,-5.44419 -1.73608,-11.31142 5.93246,-9.38674 5.35388,1.34373 6.53074,5.76718 2.41999,9.09587 -4.1425,3.35438 -5.25037,3.39296 -8.35245,0.29087 z m 27.19186,-1.05369 c -1.70809,-4.50754 -0.0946,-6.37756 7.7317,-8.96043 5.43608,-1.79408 6.55554,-1.775 7.76245,0.13229 2.10143,3.32096 1.82063,4.3363 -2.35358,8.51051 -4.89719,4.8972 -11.34612,5.05307 -13.14057,0.31763 z m -93.26883,-18.34539 c -9.10007,-4.15322 -12.4503,-7.32487 -12.4503,-11.78665 0,-2.9763 0.81606,-3.64133 4.46827,-3.64133 2.45753,0 5.33813,1.04814 6.40131,2.32919 1.06318,1.28107 4.31561,2.3292 7.2276,2.3292 7.84086,0 16.0644,3.88036 16.0644,7.58013 0,5.57795 -12.46547,7.40916 -21.71128,3.18946 z m 77.0763,0.36593 c -4.08322,-4.5119 -3.10218,-7.04775 5.40317,-13.96653 8.26777,-6.72553 14.3062,-8.25909 15.92366,-4.0441 1.3061,3.40363 -0.83477,6.81313 -9.00934,14.34819 -7.99479,7.36934 -8.75755,7.59614 -12.31749,3.66244 z m -47.15015,-5.44614 c -3.31258,-1.08866 -5.62017,-3.22851 -6.88121,-6.38105 -1.04351,-2.60872 -3.86677,-7.03841 -6.27388,-9.84375 -4.98193,-5.80613 -5.42486,-8.4007 -1.92938,-11.3017 3.42118,-2.83934 10.2178,1.37394 12.36097,7.66266 0.88518,2.59734 4.55367,7.44057 8.1522,10.76274 10.37457,9.57774 8.0221,13.52163 -5.4287,9.1011 z m 78.22428,-6.72458 c -1.71498,-1.71496 -1.16623,-7.52966 0.9058,-9.59811 1.06755,-1.0657 2.29038,-6.62085 2.71739,-12.34475 0.77256,-10.35573 0.7994,-10.40711 5.43481,-10.40711 4.12179,0 4.90028,0.76445 6.75838,6.63659 2.71375,8.5762 1.41736,13.69132 -3.80197,15.00128 -3.14506,0.78937 -3.8708,1.73518 -3.22532,4.2035 0.45808,1.75172 0.45654,4.16569 -0.004,5.36438 -0.85396,2.22538 -6.91509,3.01479 -8.78564,1.14422 z m -58.17822,-5.48656 c -4.18175,-4.18176 -0.92342,-10.55902 5.39493,-10.55902 3.73123,0 9.23634,8.04931 7.46513,10.91519 -1.31796,2.13249 -10.62929,1.87461 -12.86006,-0.35617 z m 28.20889,-7.78888 c -0.64184,-1.03854 -1.56715,-4.35014 -2.05624,-7.35909 -0.62253,-3.82983 -1.81371,-5.64035 -3.97122,-6.03603 -8.2428,-1.5117 -11.42998,-11.36912 -4.01485,-12.41718 5.48628,-0.77543 10.91767,2.76703 14.24633,9.29177 1.61636,3.16833 4.34808,6.20785 6.07047,6.75453 1.72241,0.54666 3.13164,2.23607 3.13164,3.75424 0,5.92034 -10.54116,10.64735 -13.40613,6.01176 z m -46.38209,-7.99534 c -3.56075,-5.43439 -0.86235,-11.69186 4.97497,-11.53679 2.391,0.0635 6.52964,-0.36767 9.19699,-0.95819 6.51141,-1.44157 8.29094,2.66166 3.32603,7.66904 -1.93454,1.95108 -4.41834,4.66136 -5.51957,6.02288 -2.98415,3.6895 -9.18254,3.07012 -11.97842,-1.19694 z m -36.92356,-3.49464 c -0.61301,-0.61301 -1.11455,-3.43046 -1.11455,-6.26097 0,-4.32753 0.67946,-5.31152 4.27019,-6.18406 2.3486,-0.57072 5.64851,-1.98155 7.33311,-3.13519 4.80138,-3.28808 8.3011,-2.48857 10.8724,2.48376 1.30299,2.51971 2.36907,5.35039 2.36907,6.29042 0,3.37041 -21.11102,9.42523 -23.73022,6.80604 z m 102.95858,-11.43096 c -1.72767,-1.72766 -3.1412,-4.8881 -3.1412,-7.02319 0,-3.25709 0.73203,-3.882 4.54748,-3.882 3.74315,0 9.42771,3.2673 9.42771,5.41872 0,2.25163 -2.40664,5.79856 -4.80549,7.0824 -2.21303,1.18438 -3.6209,0.81167 -6.0285,-1.59593 z m -60.59477,-7.79959 c -3.68062,-3.68063 -3.95094,-6.68216 -0.83471,-9.26841 1.96928,-1.63434 1.84614,-2.45918 -0.92707,-6.21014 -4.42343,-5.98303 -3.34234,-10.02152 2.84351,-10.6221 3.92148,-0.38073 5.49489,0.37003 7.64148,3.64614 2.21535,3.38107 2.36036,4.67451 0.80352,7.16742 -1.49995,2.4018 -1.49357,4.16498 0.0305,8.37931 1.72616,4.77364 1.61038,5.57921 -1.09611,7.62602 -3.99089,3.01811 -4.79276,2.95005 -8.46105,-0.71824 z m 32.32625,-13.1988 c -3.80052,-8.34123 4.23629,-15.32441 10.13507,-8.80631 3.34015,3.69081 3.2538,6.92966 -0.26981,10.11845 -4.06097,3.67513 -7.82076,3.17505 -9.86526,-1.31214 z m 134.52454,61.10141 c 20.02351,-9.43153 42.32947,-30.4521 45.22366,-42.61762 0.58994,-2.47974 3.77458,-7.15489 7.07701,-10.38924 3.30244,-3.23435 6.0108,-6.72815 6.01861,-7.76399 0.007,-1.03585 1.73286,-5.37715 3.83345,-9.64735 5.24585,-10.66412 5.26024,-25.19336 0.0424,-42.81652 -4.08348,-13.79185 -3.08411,-12.48842 -22.52361,-29.37603 -13.37278,-11.61727 -15.33679,-12.65336 -28.26336,-14.91004 -14.2362,-2.4853 -30.37683,-1.70265 -37.15317,1.80153 -2.36787,1.22446 -5.70587,2.22631 -7.41777,2.22631 -1.71191,0 -9.60766,3.39773 -17.5461,7.55054 -11.87125,6.2101 -15.30934,8.86396 -19.36702,14.94914 -2.71342,4.06926 -6.95407,9.5807 -9.42369,12.24766 -2.4696,2.66698 -7.54156,9.74036 -11.271,15.71863 -3.72946,5.97828 -8.137,12.40624 -9.79457,14.28439 -1.67548,1.89843 -2.59738,4.4998 -2.0761,5.85822 1.72223,4.48811 5.9474,4.55342 13.67184,0.21132 4.13936,-2.32686 8.22408,-3.79928 9.07716,-3.27205 3.00943,1.85993 1.62026,8.42236 -2.33096,11.0113 -4.7393,3.10532 -4.87399,4.65185 -0.60405,6.93701 2.83451,1.517 4.05112,0.99929 8.99404,-3.82734 3.14389,-3.06991 6.64747,-5.58166 7.78577,-5.58166 3.49661,0 0.56772,9.49233 -4.56187,14.78472 -3.32567,3.43121 -4.15579,5.25104 -2.9468,6.46004 1.209,1.20898 4.41788,0.31276 11.3909,-3.18142 22.9592,-11.50483 25.67497,-12.54788 27.61628,-10.60657 1.44485,1.44482 1.3245,1.86003 -0.53906,1.86003 -1.31951,0 -3.73023,1.47186 -5.35715,3.27083 -1.62695,1.79894 -5.40374,4.54161 -8.39288,6.0948 -2.98912,1.55315 -7.88045,4.91514 -10.86959,7.47103 -4.35801,3.72638 -5.05231,5.03951 -3.50427,6.62768 1.5639,1.60449 3.92286,1.50118 12.42239,-0.54405 5.77053,-1.38854 11.08068,-1.94796 11.80032,-1.24316 2.13485,2.09076 -1.78426,7.59733 -8.36281,11.75018 -7.17941,4.53218 -7.52471,5.96948 -2.26244,9.41746 4.30436,2.82031 5.16166,8.004 1.5528,9.38886 -2.38965,0.917 -2.99593,6.45715 -1.37016,12.52049 0.70819,2.6412 2.73367,3.79397 8.90739,5.06947 17.51321,3.61824 30.32432,3.06986 40.52443,-1.7346 z M 142.70493,761.36956 c 0,-1.71029 -2.86847,-5.70112 -6.37438,-8.86851 -7.87932,-7.11848 -10.23308,-12.45264 -6.94556,-15.74016 2.07903,-2.07903 2.89648,-2.06857 7.4396,0.0952 2.80717,1.33695 7.89899,3.29372 11.31513,4.34835 3.41616,1.05462 7.3936,2.95143 8.83876,4.2151 1.44514,1.26366 3.54143,1.9677 4.6584,1.5645 1.31276,-0.47386 -0.57711,-3.26617 -5.34496,-7.8972 -4.05668,-3.94029 -7.37579,-7.52528 -7.37579,-7.96669 0,-1.67721 7.59527,-0.70538 11.85668,1.51712 6.47973,3.3794 10.72422,2.87889 13.66647,-1.61155 2.47045,-3.77039 2.42554,-4.15045 -0.98601,-8.34471 -1.96591,-2.41691 -4.76468,-6.57873 -6.21954,-9.24849 -3.19695,-5.86666 -6.29812,-6.09973 -13.013,-0.97806 -5.3179,4.05616 -9.02607,3.88266 -10.73532,-0.50228 -0.71509,-1.83449 0.93894,-4.28616 5.63167,-8.34745 5.45966,-4.72502 6.1758,-5.92981 4.01715,-6.75817 -1.56095,-0.59899 -5.44727,0.64472 -9.5769,3.06484 l -6.94989,4.07292 -2.56974,-3.92192 c -3.19291,-4.87298 -1.37332,-7.59303 6.85044,-10.24048 10.3718,-3.33897 12.24812,-7.64106 3.33258,-7.64106 -6.36844,0 -8.65038,-4.67132 -4.57655,-9.3685 1.68343,-1.94101 3.06076,-3.88642 3.06076,-4.32318 0,-0.43675 -5.76477,-6.34372 -12.81059,-13.12659 -9.69077,-9.32911 -16.02496,-13.89942 -26.00939,-18.76651 -12.68452,-6.18329 -13.77357,-6.4323 -27.95038,-6.39039 -12.61953,0.0373 -16.028644,0.63591 -23.587327,4.14179 -16.962459,7.8675 -26.102242,24.07074 -26.102242,46.27463 0,14.12795 1.702815,22.31225 8.073429,38.80375 3.565986,9.23119 6.262444,13.3131 13.099886,19.83064 10.132537,9.6585 17.250084,13.81801 19.608714,11.45939 1.5197,-1.5197 0.80415,-3.00026 -5.836115,-12.07567 -1.8826,-2.573 0.699981,-7.31429 4.378615,-8.0386 3.87687,-0.76334 18.12903,16.27155 18.12903,21.66871 0,2.0497 1.13073,2.89209 3.88201,2.89209 3.26827,0 3.88199,-0.72816 3.88199,-4.60571 0,-2.53315 -1.19551,-7.11274 -2.65668,-10.17687 -4.64887,-9.74873 2.30643,-15.21203 9.81159,-7.70686 3.77554,3.77554 4.05235,4.88885 3.29425,13.24939 -0.7398,8.15857 -0.49757,9.23223 2.2819,10.11442 5.23422,1.66127 6.61383,-1.49218 3.76633,-8.60884 -2.87289,-7.18 -1.23361,-13.02473 3.40556,-12.14236 3.48148,0.66217 12.70583,14.61373 12.70583,19.21716 0,2.78044 1.56913,4.36902 6.59939,6.68127 8.76035,4.02683 12.0342,4.0773 12.0342,0.18555 z m 110.64113,-41.43507 c 0.64285,-0.37121 0.56657,-1.85536 -0.16947,-3.29811 -2.65614,-5.20625 -3.29638,-13.23971 -1.52608,-19.14844 2.15881,-7.20547 4.42373,-9.45352 7.56644,-7.5101 3.30209,2.04199 3.25732,26.08581 -0.0521,27.95865 -1.77228,1.00297 -1.89745,1.75442 -0.5235,3.14289 2.10601,2.12823 5.18191,0.69732 5.18191,-2.41065 0,-1.18182 1.49277,-4.67887 3.3173,-7.77119 3.88562,-6.58566 5.8609,-5.55558 7.10288,3.70408 0.53129,3.96113 1.66784,6.39922 2.98306,6.39922 1.16861,0 2.12474,-0.62268 2.12474,-1.38374 0,-0.76104 2.79095,-4.76117 6.20212,-8.88915 3.41115,-4.12796 8.74873,-12.41448 11.86126,-18.41445 3.11253,-5.99998 6.5444,-11.9572 7.62639,-13.23824 1.082,-1.28106 3.78016,-7.7593 5.99595,-14.39609 5.52072,-16.53594 5.542,-30.64188 0.061,-40.44841 -5.47315,-9.79244 -27.47193,-33.75202 -38.73438,-42.18681 -14.96542,-11.20805 -18.41457,-12.47062 -33.38519,-12.22065 -11.86219,0.19808 -14.69261,0.87903 -27.95037,6.72441 -8.11338,3.57721 -18.39138,8.57891 -22.84002,11.11488 -7.66279,4.36822 -20.63837,17.15985 -20.63837,20.3458 0,0.8126 -1.35678,3.20234 -3.01509,5.31052 -5.23692,6.65769 -6.95996,19.51192 -4.85952,36.25316 3.37048,26.86373 8.03877,42.33883 17.32472,57.43043 6.67088,10.84157 16.94748,14.28389 16.94748,5.67684 0,-7.90661 6.65383,-9.51963 9.19532,-2.22911 0.95431,2.73757 2.82076,6.63427 4.14764,8.65934 2.40586,3.67182 2.47085,3.67893 23.64976,2.59091 11.68048,-0.60008 21.76321,-1.39478 22.40604,-1.76599 z m -37.22028,-1.76778 c -5.78056,-3.57257 -9.03357,-24.29926 -4.11023,-26.18852 3.77917,-1.45021 7.35755,1.51579 8.48611,7.03388 0.54994,2.68884 1.84142,5.90281 2.86994,7.14211 3.96646,4.7793 -2.25652,15.09608 -7.24582,12.01253 z m 19.05957,-7.89169 c -1.46235,-2.36614 -2.1798,-48.28056 -0.75442,-48.28056 2.1547,0 4.54754,5.63545 4.54754,10.71003 0,2.58663 1.39752,8.24853 3.1056,12.58196 3.0307,7.68891 4.05389,19.01397 2.16307,23.94138 -1.00806,2.62701 -7.61365,3.39033 -9.06179,1.04719 z"
       id="path4775"
       inkscape:connector-curvature="0"
       sodipodi:nodetypes="csscscsssssssssssssscsssssssscscsssssssssssssssssssssssssscssssssssscsssssccccssssssssssssssscssssssssscsscccscsssssscsssssssssssssssssssssscsssssssssssssssssscssssssscccssccssssssssssssssscssssssssssssssscscsssssssssscsssccssssssssssssssscssssscssssssccssscsssssssssssssssssssssssssssssssscsssssscccsssscsssscscssssssssssssssssssscssssscsccsssscsscssssssssssssssscssssssscsscscsssssccsssssssssssssssssscssssssssssssssssssssssssssssccssssssssssssssssssssssssssccsssssssssss" />
  </g>
</svg>
