<?xml version="1.0" encoding="UTF-8" standalone="no"?>
<!-- Created with Inkscape (http://www.inkscape.org/) -->

<svg
   xmlns:dc="http://purl.org/dc/elements/1.1/"
   xmlns:cc="http://creativecommons.org/ns#"
   xmlns:rdf="http://www.w3.org/1999/02/22-rdf-syntax-ns#"
   xmlns:svg="http://www.w3.org/2000/svg"
   xmlns="http://www.w3.org/2000/svg"
   xmlns:xlink="http://www.w3.org/1999/xlink"
   xmlns:sodipodi="http://sodipodi.sourceforge.net/DTD/sodipodi-0.dtd"
   xmlns:inkscape="http://www.inkscape.org/namespaces/inkscape"
   width="1024"
   height="2048"
   id="svg2"
   version="1.1"
   inkscape:version="0.48.4 r9939"
   sodipodi:docname="tutoria1-0.svg">
  <defs
     id="defs4">
    <linearGradient
       id="linearGradient4161">
      <stop
         style="stop-color:#3d3442;stop-opacity:1;"
         offset="0"
         id="stop4163" />
      <stop
         id="stop4169"
         offset="0.5"
         style="stop-color:#927573;stop-opacity:1;" />
      <stop
         style="stop-color:#c19d81;stop-opacity:1;"
         offset="0.625"
         id="stop4175" />
      <stop
         style="stop-color:#e2b57a;stop-opacity:1;"
         offset="0.75"
         id="stop4171" />
      <stop
         id="stop4177"
         offset="0.875"
         style="stop-color:#e19e4e;stop-opacity:1;" />
      <stop
         style="stop-color:#b65e28;stop-opacity:1;"
         offset="1"
         id="stop4165" />
    </linearGradient>
    <linearGradient
       inkscape:collect="always"
       xlink:href="#linearGradient4161"
       id="linearGradient4167"
       x1="496.83972"
       y1="-1055.6237"
       x2="432.9191"
       y2="1172.158"
       gradientUnits="userSpaceOnUse" />
  </defs>
  <sodipodi:namedview
     id="base"
     pagecolor="#ffffff"
     bordercolor="#666666"
     borderopacity="1.0"
     inkscape:pageopacity="0.0"
     inkscape:pageshadow="2"
     inkscape:zoom="0.47666083"
     inkscape:cx="505.99806"
     inkscape:cy="1516.7997"
     inkscape:document-units="px"
     inkscape:current-layer="layer1"
     showgrid="false"
     inkscape:window-width="1276"
     inkscape:window-height="782"
     inkscape:window-x="0"
     inkscape:window-y="14"
     inkscape:window-maximized="0" />
  <metadata
     id="metadata7">
    <rdf:RDF>
      <cc:Work
         rdf:about="">
        <dc:format>image/svg+xml</dc:format>
        <dc:type
           rdf:resource="http://purl.org/dc/dcmitype/StillImage" />
      </cc:Work>
    </rdf:RDF>
  </metadata>
  <g
     inkscape:label="Layer 1"
     inkscape:groupmode="layer"
     id="layer1"
     transform="translate(0,995.63782)">
    <path
       style="color:#000000;fill:url(#linearGradient4167);fill-opacity:1;fill-rule:nonzero;stroke:none;stroke-width:10;marker:none;visibility:visible;display:inline;overflow:visible;enable-background:accumulate"
       d="m -28.53125,-1050.9688 c -2.353711,260.11743 -1.331101,520.25031 -1.59375,780.37505 0.06619,118.05848 -0.169444,236.152384 0.875,354.1875 0.637899,5.033515 -0.219848,13.043295 5.09375,15.40625 16.3252654,-0.453277 32.1012012,-5.8291 48.561596,-5.091373 52.930212,-1.164481 105.860834,1.108857 158.779994,1.988368 56.91478,1.797639 113.71709,6.001945 170.61517,8.248865 45.4512,1.92551 90.79148,5.66427 136.16082,8.81396 82.99868,4.21063 166.15288,2.18136 249.19374,5.09293 61.28685,1.52163 122.51938,4.917 183.81368,5.9785 36.99594,-0.10483 74.03298,0.21751 111.00005,-0.9375 7.2029,0.83217 6.7538,-7.77136 6.2187,-12.6875 2.1348,-279.59311 1.1846,-559.25472 1.6986,-838.875 0.079,-108.14583 0.1622,-216.29166 0.2389,-324.43745 -356.86458,0 -713.72917,-1e-4 -1070.59375,0 l -0.03224,0.9994 -0.03026,0.938 z"
       id="path4153"
       inkscape:connector-curvature="0" />
    <path
       style="color:#000000;fill:#502d16;fill-opacity:1;fill-rule:nonzero;stroke:none;stroke-width:10;marker:none;visibility:visible;display:inline;overflow:visible;enable-background:accumulate"
       d="m 54.1875,97.28125 c -23.207377,0.03904 -46.7998936,-0.540577 -69.40625,5.09375 -5.63105,-0.14393 -13.634136,1.23505 -14,8.28125 -1.519286,9.08857 -0.291358,18.34335 -0.8125,27.5 28.1492147,6.8247 57.229299,7.53953 85.861217,11.5469 25.6906,3.90469 51.689103,3.07518 77.545033,4.5781 19.94326,1.85788 40.64157,3.76073 58.6875,12.875 4.43564,1.66155 4.68607,6.47872 3.65625,10.5 0.0934,4.82689 -3.01612,9.68808 -8.4116,9.50738 -18.84594,4.54729 -39.00878,1.94848 -57.5259,7.80512 -4.42354,2.73295 -1.79415,9.96917 3.125,10.09375 23.23103,7.18349 48.10522,4.30062 71.71216,9.42712 27.01464,2.96374 54.38223,1.97135 81.26846,5.74223 36.02221,2.90689 71.86248,7.68476 107.17563,15.33065 3.89668,1.11417 10.31986,0.66721 12.09375,4.9375 0.2827,5.99721 -1.9408,12.24845 -5.0625,17.25 -3.95304,5.57245 -11.07506,5.93998 -17.21868,5.13306 -58.49889,-0.20962 -117.11272,0.13087 -175.40447,-5.50636 -31.23717,-2.0469 -62.76618,-1.32201 -93.7831,-5.7517 -9.097,-2.07122 -17.616597,-8.09901 -21.21875,-17.03125 -5.915903,-7.48512 -16.80255,-4.45935 -24.958542,-6.21603 -30.779692,-2.98193 -61.6827044,-0.26912 -92.372354,2.34866 -7.182363,-1.13699 -4.123017,6.77719 -4.83034,11.36643 -0.926428,72.9822 -2.358415,146.06683 -0.557514,219.00094 0.808974,4.81404 6.672538,6.83821 10.59375,4.21875 26.9284924,-4.19001 54.484535,2.58668 80.4375,9.34375 5.223353,2.6722 11.198634,6.99817 12.625,12.71875 0.02304,6.05429 1.820861,13.40489 -3.71875,17.6875 -6.626072,9.25508 -17.174019,20.3878 -12.59375,32.84375 5.379819,14.35707 20.981299,22.0711 35.756037,21.90774 20.465773,1.70866 40.713073,4.94875 60.669833,9.52557 30.76313,4.58965 64.44517,5.39419 90.76163,23.84794 6.96043,5.00897 12.60671,15.40694 6.53125,23.25 -4.66752,5.70978 -12.99775,6.02103 -19.35983,8.92613 -23.99989,7.8032 -50.14888,7.51264 -74.60892,2.60512 -21.26139,-3.9954 -41.83647,-10.53687 -62.327515,-17.55449 -9.878697,-2.40744 -20.425562,0.19223 -30.547485,-0.008 -18.692569,1.13751 -37.668586,1.02489 -55.9610279,-2.96778 -12.9854244,-1.42788 -26.0811831,-0.74208 -39.1014721,-1.62597 0,154.65625 0,309.3125 0,463.9687 356.61458,1e-4 713.22917,0 1069.84375,0 0.1324,-117.75138 1.3737,-235.49904 1.5,-353.24995 -16.8818,-0.2967 -32.637,7.48873 -49.5591,6.7052 -22.01153,0.77216 -44.28171,1.78817 -65.92935,-3.01296 -23.73576,-3.11591 -47.21389,-7.78268 -70.82405,-11.59849 -33.69803,-4.19909 -67.97574,-3.08379 -101.80523,-0.72342 -22.29433,3.16379 -44.4525,12.71844 -67.22602,7.47342 -9.90542,-1.90326 -21.33863,-5.55387 -26.59375,-14.875 -3.12796,-7.97838 2.01798,-16.88001 9.875,-19.34375 13.80406,-5.73995 26.44495,-13.58776 39.5247,-20.75329 11.73707,-7.15319 23.6164,-14.25965 36.98397,-17.71879 26.95433,-9.73328 54.50282,-17.39596 82.87778,-21.50719 33.86847,-6.53671 66.64795,-18.18759 99.30105,-28.70823 19.02151,-5.54184 39.29928,-5.41413 58.59375,-1.0625 18.43695,3.10419 36.80715,6.26306 54.78125,11.40625 0,-55.34375 0,-110.6875 0,-166.03125 -20.432,5.58873 -40.93279,12.02443 -62.34067,11.98594 -34.40038,2.06667 -68.40475,-3.99013 -101.87808,-11.20469 -24.94379,-4.96466 -50.59767,-5.43112 -75.80754,-1.99425 -22.58817,2.1471 -45.8133,5.26769 -68.22371,0.80675 -10.04394,-4.3379 -20.82688,-14.86616 -16.78125,-26.6875 5.45217,-16.68268 23.6422,-23.48135 38.70225,-28.93611 34.75034,-11.8273 71.50284,-16.90233 107.82824,-21.60282 48.65253,-1.88183 96.32305,10.00661 143.56326,19.75768 11.1745,2.59694 22.3094,5.54079 33.2187,8.90625 2.8722,-67.55284 1.1717,-135.19029 1.7188,-202.78125 0,-19.65625 0,-39.3125 0,-58.96875 -68.51674,0.37665 -137.11995,1.73801 -205.52783,-3.08072 -99.71616,-4.9741 -199.5796,-4.56332 -299.37806,-6.07103 -41.74852,-0.6859 -83.38812,-3.837 -124.98976,-7.11101 -42.11512,-2.07393 -84.24748,-3.85304 -126.3023,-6.93769 C 207.51734,98.086434 130.85008,97.189584 54.1875,97.28125 z M 859.75,175.5 c 15.66506,0.21979 32.06383,2.62831 45.40625,11.03125 3.58999,4.93885 7.21393,14.48193 -0.0625,17.875 -22.03124,11.41054 -48.15068,7.255 -71.75,13.46875 -4.60271,-0.40147 -7.80195,5.91803 -3.4375,8.40625 9.79767,4.84961 24.34188,4.44956 29.375,15.875 -0.26425,7.75356 -8.59768,11.78843 -15.54067,11.10479 -26.38152,2.21371 -52.61158,5.42235 -78.88055,8.34948 -19.55174,1.15868 -40.88123,4.26406 -58.92253,-4.98552 -3.93132,-1.73934 -6.95584,-6.31238 -3.375,-9.8125 10.04559,-12.32391 27.90401,-10.52819 42.0625,-13.0625 4.55872,-1.13223 13.78674,-0.61607 13.1875,-7.46875 -2.37752,-6.82715 -11.14693,-7.03305 -16.8125,-9.625 -5.62667,-1.60977 -13.5833,-5.63089 -12.78125,-12.5 3.97999,-5.80199 12.26522,-6.24787 17.90625,-9.84375 21.9614,-10.58385 46.55148,-12.56046 70.34777,-15.80969 14.3725,-1.63362 28.8151,-2.66591 43.27723,-3.00281 z m -247.3125,11.59375 c 14.16929,0.16635 29.56139,1.63765 41.15625,10.4375 4.05402,2.83148 6.79033,11.51372 0.3125,13.03125 -17.06902,3.85668 -34.96623,5.65133 -52.34375,2.9375 -5.64373,-3.95554 -13.44155,-8.77026 -13.6875,-16.40625 0.60364,-5.53468 4.93313,-10.77406 10.99733,-9.66673 4.51817,-0.2491 9.04529,-0.11308 13.56517,-0.33327 z M 486.21875,225.1875 c 12.93961,-0.12469 29.24453,1.57688 36.21875,14.09375 1.61599,7.92337 -2.91482,16.30453 -8.71875,21.3125 -9.14942,4.17321 -19.65344,2.31856 -29.4375,3.3125 -9.35617,0.63629 -22.0083,2.66113 -27.5625,-6.84375 -5.36125,-7.05097 -4.43833,-18.35752 3.34375,-23.15625 6.11323,-6.16485 14.41383,-9.80299 23.15625,-8.65625 1,-0.0207 1.99999,-0.0429 3,-0.0625 z M 81.125,273.8125 c 21.61172,0.32432 45.30712,6.94427 59.25,24.34375 0.66032,5.95828 -6.98249,8.03443 -11.25,10.0625 -13.79142,4.47216 -28.82399,2.85281 -43.03125,5.28125 -14.289251,0.62845 -28.796544,-2.42233 -41.84375,-8 -6.509887,-5.20341 -3.710489,-15.08894 2.1875,-19.59375 9.056092,-9.05639 22.324847,-11.85669 34.6875,-12.09375 z m 366.84375,97.28125 c 28.30147,2.52453 57.35888,0.40722 84.60306,9.81981 26.55403,7.9807 55.46953,10.89071 78.38862,27.83708 14.06934,10.62903 9.2181,35.93077 -7.52293,41.24936 -14.77059,5.25283 -30.8521,6.04004 -46.43651,6.4556 -25.36837,-0.25067 -39.72787,-28.40561 -64.96974,-29.3306 -22.15203,-1.57865 -44.46297,-0.70903 -66.59375,0.8125 -15.65008,1.49579 -31.60368,4.30568 -47.125,0.46875 -8.13969,-1.52762 -16.93289,-1.41963 -24.6875,-3.59375 -7.04637,-5.281 -13.29007,-14.3791 -9.0625,-23.375 4.76224,-9.30881 15.43987,-13.55304 24.75,-16.78125 16.39721,-4.0297 33.64057,-4.9785 50.14665,-8.79445 9.62393,-0.87017 19.10985,-3.39053 28.5096,-4.76805 z m -284.125,94.3125 c 9.35004,0.007 22.67818,4.13093 23.1875,15.21875 1.27529,9.22228 -8.51272,14.38385 -14.84375,18.9375 -16.45336,8.50246 -35.84039,2.40875 -52.71875,-1.625 -5.82975,-1.27 -11.60047,-5.94065 -10.15625,-12.5 1.36997,-10.71316 13.72694,-14.25354 22.4375,-17.03125 7.91595,-2.71884 16.42637,-2.33943 24.4375,-0.625 2.72276,-0.23436 4.94557,-2.19959 7.65625,-2.375 z M 493.375,513.625 c 6.94309,0.37293 7.34619,9.54597 7.28125,14.8125 0.6266,10.64825 1.6302,22.30935 -5,31.34375 -2.35249,4.27013 0.41248,10.0003 5.53125,9.96875 13.95484,3.81909 29.27624,4.17837 43.03125,5.9375 -1.46326,4.6086 -7.88965,1.55662 -11.40625,2.5625 -13.55789,0.16419 -26.76685,-3.91636 -40.21875,-4.21875 -8.67343,1.5437 -17.56032,4.15737 -26.09375,0.6875 -10.97004,-2.13798 -22.26303,1.97768 -32.84375,2.34375 -0.62202,-1.60961 4.45693,-1.73171 5.8125,-2.53125 11.85302,-2.63482 24.54496,-4.45098 36.40625,-1.28125 4.77453,0.93737 8.63833,-2.69946 8.1875,-7.5 0.50474,-13.16236 -13.83396,-22.07395 -11.34375,-35.71875 1.36699,-7.60531 6.40309,-16.47702 15.3125,-16.03125 1.77925,-0.15056 3.55501,-0.38318 5.34375,-0.375 z M 289.46875,771.21875 c 29.22306,0.34736 58.75957,3.33492 85.82523,14.85276 24.38309,9.06086 50.08835,16.01478 76.36227,14.24099 19.23984,-0.019 39.35542,-1.97358 57.89146,3.3718 9.22195,6.63615 21.94172,14.31569 20.29604,27.40945 -1.52907,11.44273 -11.96202,18.92058 -20.125,26 -11.4273,8.98123 -25.89869,12.5432 -40.28125,11.5625 -17.03262,0.73716 -34.09912,-0.65837 -50.42901,-5.38097 -42.20639,-8.45417 -84.82282,-17.53475 -128.07099,-16.61903 -26.36246,2.25512 -50.69928,13.92595 -76.22041,20.00752 -29.97914,8.23243 -59.50959,18.34168 -87.63325,31.6433 C 112.21174,905.27566 95.259354,910.0467 78.875,906.75 68.430891,903.45614 59.501407,896.70034 51.03125,889.875 44.23166,883.25677 41.939325,873.83069 36,866.375 29.075557,856.06844 24.27761,844.00188 26.53125,831.4375 28.026404,817.97996 38.672514,807.21933 51.458492,803.37554 88.401334,788.8726 129.16391,793.56198 168.0592,789.63762 c 28.96272,-1.87922 57.25521,-8.44407 85.40955,-15.01262 11.8879,-2.09876 23.89489,-3.27728 36,-3.40625 z m 414.65625,14 c 7.21026,-0.1729 12.19159,6.84411 18.2406,10.0646 9.04606,5.94304 17.85469,16.36584 13.72815,27.77915 -4.69022,11.26528 -18.54778,13.32939 -29.36585,13.65979 -26.86857,2.26053 -54.51898,8.89889 -80.9779,0.59021 -7.86476,-2.26979 -19.18749,-6.19732 -18.90625,-16.125 0.58606,-10.57114 11.96976,-14.59198 18.75,-20.84375 12.34742,-7.60536 27.98649,-0.77003 40.75,-7.3125 11.95877,-4.56817 25.01178,-6.72079 37.78125,-7.8125 z"
       id="path3839"
       inkscape:connector-curvature="0" />
    <path
       style="color:#000000;fill:#ccff00;fill-opacity:1;fill-rule:nonzero;stroke:none;stroke-width:10;marker:none;visibility:visible;display:inline;overflow:visible;enable-background:accumulate"
       d="m 487.1875,516.90625 c -8.84036,1.811 -14.23235,12.96402 -9.59375,20.96875 2.51175,6.45244 4.60765,14.75095 11,18.28125 6.79003,0.66366 9.3519,-8.29843 8.90487,-13.68149 0.28956,-8.0327 1.58392,-18.26962 -5.09237,-24.13101 -1.51442,-1.05203 -3.37759,-1.60967 -5.21875,-1.4375 z"
       id="path3853"
       inkscape:connector-curvature="0" />
    <path
       style="fill:#000000;stroke:none"
       d="M 1051.1562 -161.46875 C 1050.691 -161.42136 1050.0886 -160.62529 1049.5938 -159.28125 C 1048.6139 -156.62125 1046.7251 -155.78501 1045.6875 -157.53125 C 1044.6973 -159.19797 1041.8775 -158.46768 1039.9062 -156.0625 C 1038.0905 -153.84718 1037.98 -153.08063 1038.4375 -145.71875 C 1038.7096 -141.33981 1038.7142 -132.59526 1038.4688 -126.28125 C 1038.3541 -123.32798 1038.2563 -105.92254 1038.1875 -83.0625 L -24.875 -62.53125 C -24.874883 -69.467928 -24.875836 -97.117858 -24.875 -97.71875 C -24.86381 -105.76006 -25.155921 -108.33692 -26.21875 -109.4375 C -27.995354 -111.27722 -30.500645 -111.27771 -32.40625 -109.4375 C -33.72753 -108.16155 -33.852838 -106.86596 -33.40625 -99.53125 C -33.289726 -97.617436 -33.208728 -82.328386 -33.125 -62.34375 L -132.46875 -60.4375 L -132.28125 -50.4375 L -33.0625 -52.34375 C -32.734117 40.359662 -32.660821 242.19557 -32.625 268.6875 C -32.60562 283.02555 -32.50011 302.48964 -32.40625 311.96875 C -32.31241 321.44786 -32.23298 341.7525 -32.21875 357.0625 C -32.16731 412.36681 -32.089123 421.2143 -31.75 426.4375 C -31.560453 429.35696 -31.3514 441.2717 -31.28125 452.9375 C -31.2111 464.6033 -31.06815 478.13803 -30.96875 483 C -30.380149 511.79136 -30.476758 581.71384 -31.1875 650.90625 C -31.482003 679.57653 -31.7438 715.14511 -31.75 729.96875 C -31.756 744.79237 -31.996093 781.97975 -32.3125 812.59375 C -32.628906 843.20774 -32.86498 878.58121 -32.8125 891.21875 C -32.673784 924.63718 -32.78483 958.53258 -33.28125 1018.9062 C -33.523007 1048.3065 -33.620639 1076.8292 -33.5 1082.2812 C -33.341289 1089.4539 -33.59068 1092.3591 -34.375 1092.8438 C -34.97119 1093.2121 -38.255121 1093.4969 -41.65625 1093.4375 C -46.617225 1093.3555 -48.594346 1093.7514 -51.75 1095.4688 C -56.838913 1098.2378 -58.116517 1100.1284 -56.21875 1102.0938 C -55.095737 1103.2567 -52.702815 1103.6337 -44.59375 1103.9062 C -38.974904 1104.095 -34.198163 1104.4499 -33.96875 1104.6875 C -33.568389 1105.1021 -33.483176 1154.966 -33.8125 1203.1562 C -33.96302 1225.1817 -34.12115 1261.1169 -34.34375 1332.5938 C -34.4005 1350.8186 -34.47523 1380.4556 -34.53125 1398.4375 C -34.58729 1416.4194 -34.6625 1443.6593 -34.6875 1458.9688 C -34.71254 1474.278 -34.81326 1501.293 -34.90625 1519.0312 C -34.99925 1536.7695 -35.11198 1563.816 -35.15625 1579.125 C -35.164131 1581.8493 -35.200568 1587.9677 -35.21875 1591.9375 C -39.931696 1592.0273 -43.340462 1592.1882 -44.09375 1592.4062 C -45.988735 1592.9548 -49.255465 1594.4505 -51.34375 1595.75 C -54.415392 1597.6614 -55.15023 1598.6463 -55.1875 1600.7812 C -55.23246 1603.3573 -52.674015 1606.9988 -50.8125 1607.0312 C -50.302498 1607.0412 -48.637558 1606.4207 -47.09375 1605.6562 C -46.051063 1605.1399 -41.480997 1604.8354 -35.28125 1604.7188 C -35.377621 1622.4086 -35.505357 1642.8924 -35.65625 1662.625 C -35.890363 1693.2404 -35.760722 1720.206 -35.34375 1722.5625 C -34.926761 1724.9189 -34.802206 1727.2337 -35.09375 1727.6875 C -35.60276 1728.4798 -36.416787 1778.5827 -36.25 1798.7188 C -36.20575 1804.0657 -36.23422 1813.3947 -36.3125 1819.4688 C -36.39075 1825.5427 -36.46525 1831.3093 -36.46875 1832.2812 C -36.47265 1833.2532 -36.665476 1846.4355 -36.875 1861.5625 C -37.08448 1876.6895 -36.95905 1893.1735 -36.625 1898.2188 C -36.232485 1904.1469 -36.482393 1912.0029 -37.28125 1920.4375 C -37.624981 1924.0667 -37.805611 2081.3378 -37.875 2084.2812 L -78.90625 2084.2812 L -78.90625 2094.2812 L -37.4375 2094.2812 C -37.000949 2097.3239 -36.256098 2099.686 -35.21875 2101.4062 C -33.251801 2104.6681 -30.170159 2104.0636 -28.28125 2100.0625 C -27.39595 2098.1873 -26.918029 2095.9085 -27.1875 2095 C -27.21598 2094.904 -27.22221 2094.6631 -27.25 2094.2812 L 1035.5938 2094.2812 C 1035.6388 2096.4579 1035.7059 2098.1979 1035.8125 2098.6562 C 1036.4469 2101.385 1040.7814 2104.0279 1042.8125 2102.9375 C 1045.7177 2101.3776 1047.1063 2098.3857 1046.9062 2094.2812 L 1076.5312 2094.2812 L 1076.5312 2084.2812 L 1046.1562 2084.2812 C 1045.6707 2074.9473 1045.3217 1907.0603 1045.375 1897.125 C 1045.406 1891.2932 1045.351 1874.5825 1045.25 1860 C 1045.15 1845.4175 1045.1005 1832.7871 1045.1562 1831.9375 C 1045.2123 1831.0879 1045.3657 1829.4981 1045.4688 1828.4062 C 1045.5715 1827.3146 1045.4998 1817.4702 1045.3125 1806.5312 C 1044.9473 1785.178 1044.8595 1769.6658 1044.9688 1714.125 C 1047.2691 1713.572 1048.7381 1712.9584 1048.75 1712.2812 C 1048.7639 1711.4875 1047.2519 1710.7801 1044.9688 1710.1562 C 1044.9975 1696.139 1045.0424 1681.947 1045.0938 1662.0625 C 1045.1498 1640.2019 1045.0277 1622.0603 1044.8438 1621.75 C 1044.6595 1621.4397 1044.7116 1608.9145 1044.9375 1593.9062 C 1045.1636 1578.8982 1045.1275 1556.8854 1044.875 1545 C 1044.6228 1533.1146 1044.653 1497.1655 1044.9375 1465.0938 C 1045.2213 1433.0219 1045.2439 1406.4425 1045 1406.0312 C 1044.7556 1405.62 1044.6707 1390.2674 1044.8125 1371.9375 C 1045.2699 1312.8474 1045.4482 1264.0022 1045.25 1243.625 C 1044.7206 1189.2384 1045.322 1126.1256 1046.375 1125.5 C 1046.8101 1125.2414 1055.4085 1125.0641 1065.5 1125.125 C 1075.5915 1125.186 1084.254 1124.9823 1084.75 1124.6875 C 1085.2461 1124.3928 1089.9293 1124.0208 1095.1562 1123.8438 C 1106.3808 1123.4633 1110.6325 1122.1396 1110.6875 1119 C 1110.7085 1117.82 1110.1189 1116.3625 1109.4062 1115.75 C 1107.9006 1114.4552 1099.8568 1114.2118 1090.875 1115.2188 C 1083.8207 1116.0095 1085.5228 1115.9575 1063.7188 1116.125 C 1051.2169 1116.221 1046.9863 1115.9977 1046.3125 1115.1562 C 1045.7632 1114.4705 1045.4105 1103.042 1045.4375 1085.375 C 1045.5998 977.92287 1045.7093 943.64351 1046 897.6875 C 1046.3403 843.86054 1046.3757 803.28915 1046.0625 798.28125 C 1045.9253 796.09174 1045.8125 781.35827 1045.8125 765.5625 C 1045.8125 749.76674 1045.7912 722.91717 1045.7812 705.90625 C 1045.7812 688.89533 1045.9688 657.70073 1046.1875 636.5625 C 1046.4063 615.42427 1046.5633 586.98422 1046.5312 573.375 C 1046.4993 559.76577 1046.541 529.93536 1046.625 507.09375 C 1046.8585 445.6381 1046.8389 429.89503 1046.4688 395.3125 C 1046.1639 366.8435 1046.9295 34.257865 1048.1562 -73.25 L 1137.625 -74.96875 L 1137.4375 -84.96875 L 1048.25 -83.25 C 1048.3312 -89.244971 1048.4151 -94.421862 1048.5 -98.25 C 1048.923 -117.33634 1048.9068 -135.09463 1048.4688 -138.71875 C 1047.8217 -144.07074 1047.9504 -145.74295 1049.1562 -148.4375 C 1049.9568 -150.22562 1050.7896 -152.46913 1051 -153.4375 C 1051.2105 -154.40586 1051.6454 -156.45232 1051.9688 -157.96875 C 1052.4225 -160.09589 1051.9688 -161.18945 1051.3438 -161.4375 C 1051.2834 -161.46162 1051.2227 -161.47552 1051.1562 -161.46875 z M 1038.1562 -73.0625 C 1037.9224 20.852861 1037.9841 208.1214 1038.125 229.9375 C 1038.211 243.30467 1038.2525 266.36436 1038.2188 281.1875 C 1038.1858 296.01065 1038.1927 318.87688 1038.2188 332 C 1038.2448 345.12311 1038.2093 371.16407 1038.1562 389.875 C 1038.0953 408.58593 1038.0973 430.8373 1038.1562 439.34375 C 1038.4439 480.65795 1038.4223 511.82204 1038.0625 594.875 C 1037.7551 665.8985 1037.6837 721.15248 1037.8438 758.8125 C 1038.0701 812.05486 1038.1012 824.03423 1038.0312 850.28125 C 1037.9893 866.07629 1037.9588 890.30445 1037.9688 904.15625 C 1037.9787 918.00805 1037.8918 947.64481 1037.7812 970 C 1037.5832 1010.1815 1037.5496 1023.5099 1037.4688 1084.0625 L 1037.4062 1115.0625 L 1030.0938 1116 C 1026.0691 1116.5052 1020.3881 1117.068 1017.4688 1117.25 C 1012.1372 1117.5823 943.49936 1117.5561 922.03125 1117.2188 C 907.293 1116.987 873.88162 1115.2427 872.96875 1114.6562 C 872.0089 1114.0397 822.77638 1112.5484 773.21875 1111.625 C 750.62598 1111.2039 725.4072 1110.313 717.15625 1109.6562 C 698.34963 1108.1599 635.15845 1107.0222 620.40625 1107.9062 C 614.32459 1108.2709 608.56565 1108.5394 607.59375 1108.5312 C 593.91957 1108.3726 575.9577 1108.035 566.0625 1107.75 C 559.26159 1107.5539 546.36584 1107.3782 537.375 1107.3438 C 522.06264 1107.2848 513.90566 1106.9503 488.78125 1105.3438 C 483.19821 1104.9868 475.0569 1104.4633 470.6875 1104.1875 C 466.3181 1103.9117 457.58861 1103.158 451.28125 1102.5312 C 444.97387 1101.9045 436.04945 1101.1461 431.4375 1100.8438 C 426.82555 1100.5412 418.48514 1099.8137 412.90625 1099.2188 C 407.32736 1098.6238 388.45607 1097.7028 370.96875 1097.1562 C 353.48142 1096.6097 331.24025 1095.6269 321.53125 1094.9688 C 311.82226 1094.3105 292.20666 1093.3246 277.9375 1092.8125 C 263.66835 1092.3004 251.73693 1091.7457 251.4375 1091.5625 C 251.13807 1091.3792 244.93915 1090.8654 237.65625 1090.4375 C 230.37336 1090.0096 220.68868 1089.3524 216.125 1088.9688 C 207.48897 1088.2426 141.28563 1086.9012 84.84375 1086.3125 C 66.864132 1086.125 48.93601 1085.6162 45 1085.1875 C 40.360336 1084.6822 36.310149 1084.7572 33.5 1085.375 C 31.116032 1085.8991 23.549271 1086.3671 16.6875 1086.4062 C 9.8257294 1086.4452 3.81452 1086.7018 3.3125 1087 C 2.1537928 1087.6885 -8.7150743 1089.9035 -17.125 1091.1562 C -21.902224 1091.8682 -23.920206 1091.8726 -24.90625 1091.125 C -26.437625 1089.9637 -26.894849 1063.5071 -26.59375 990.3125 C -26.49979 967.47101 -26.39149 939.84151 -26.375 928.90625 C -26.3585 917.971 -26.32831 893.29088 -26.28125 874.09375 C -26.23419 854.89662 -26.33 835.82167 -26.5 831.6875 C -26.67 827.55333 -26.649914 804.8815 -26.46875 781.3125 C -26.28759 757.74349 -26.243287 733.09487 -26.375 726.53125 C -26.50672 719.96763 -26.61066 700.6668 -26.59375 683.65625 C -26.57683 666.6457 -26.722165 652.13851 -26.90625 651.40625 C -27.090339 650.67401 -27.147315 632.79627 -27.03125 611.65625 C -26.915196 590.51622 -26.85572 564.66915 -26.90625 554.21875 C -26.95678 543.76835 -26.635724 502.20772 -26.21875 461.875 C -25.251397 368.30462 -24.49565 243.5189 -24.8125 231.6875 C -24.851888 230.21716 -24.874327 16.589915 -24.875 -52.5 L 1038.1562 -73.0625 z M 42.5 1095.6875 C 45.280141 1095.6736 48.384751 1095.6817 51.8125 1095.6875 C 74.664162 1095.7255 111.8617 1096.1816 162.4375 1097.0938 C 216.16908 1098.0627 245.33166 1099.2164 256.84375 1100.8125 C 260.76144 1101.3557 273.68963 1101.9574 285.59375 1102.1562 C 297.49785 1102.3555 308.25436 1102.7233 309.46875 1102.9688 C 315.76827 1104.2459 325.59438 1105.5146 326.25 1105.125 C 327.3053 1104.498 403.40786 1107.8084 408.875 1108.7188 C 411.3512 1109.1308 414.22903 1109.1503 415.28125 1108.7812 C 416.33346 1108.4128 419.27613 1108.5664 421.8125 1109.125 C 424.34888 1109.6836 428.61152 1110.3051 431.28125 1110.5 C 459.06145 1112.5282 471.60766 1113.5586 473.125 1113.9062 C 475.7045 1114.4976 539.44582 1116.6475 550.03125 1116.5 C 554.89267 1116.432 561.85731 1116.483 565.5 1116.625 C 590.53926 1117.6055 606.03682 1117.6673 620.28125 1116.875 C 638.62034 1115.855 686.09213 1116.44 724.96875 1118.1562 C 749.18351 1119.2252 771.15366 1120.0088 832.71875 1121.9688 C 847.29138 1122.4325 860.97414 1123.0574 863.15625 1123.3438 C 868.51596 1124.0468 910.10292 1125.9941 920.5625 1126.0312 C 978.3097 1126.2369 1008.8993 1125.9104 1025.7188 1124.9375 C 1031.7902 1124.5862 1036.8617 1124.3891 1036.9688 1124.5 C 1037.2714 1124.814 1037.4017 1161.4472 1037.25 1203.7188 C 1037.174 1224.8594 1037.113 1248.7304 1037.125 1256.75 C 1037.206 1310.0136 1036.4115 1379.5746 1035.7188 1379.5625 C 1035.2758 1379.5525 1034.517 1379.197 1034.0625 1378.7812 C 1033.608 1378.3655 1030.8733 1377.4762 1027.9688 1376.8125 C 1025.0641 1376.1488 1020.5005 1374.8389 1017.8438 1373.9062 C 1015.1867 1372.9738 1011.1363 1371.9658 1008.8438 1371.6562 C 1006.5509 1371.3468 1003.9778 1370.7222 1003.125 1370.25 C 1002.272 1369.7778 998.02043 1368.9169 993.65625 1368.3438 C 982.75188 1366.9116 975.70173 1365.5712 972.0625 1364.25 C 970.3721 1363.6363 966.62738 1362.7732 963.71875 1362.3438 C 960.81012 1361.9141 955.86373 1360.9048 952.71875 1360.0938 C 949.57368 1359.2825 945.54366 1358.5788 943.78125 1358.5312 C 942.01885 1358.4832 939.16907 1357.8218 937.4375 1357.0625 C 935.43865 1356.1861 931.40164 1355.6497 926.40625 1355.5625 C 921.82135 1355.4825 917.054 1354.8707 914.96875 1354.0938 C 911.65245 1352.8582 906.58511 1352.4672 870.25 1350.6875 C 866.36513 1350.4972 860.38163 1350.8238 856.96875 1351.4375 C 848.29994 1352.9964 838.98739 1354.5176 828.625 1356.0312 C 812.70343 1358.3573 809.94793 1358.8202 795.375 1361.7812 C 792.2046 1362.4254 788.01307 1363.2544 786.0625 1363.625 C 784.11193 1363.9956 779.92546 1365.0656 776.75 1366 C 773.57454 1366.9343 769.58157 1367.9666 767.875 1368.2812 C 766.16842 1368.5959 763.27626 1369.5777 761.4375 1370.4688 C 759.59865 1371.3597 755.58077 1372.6855 752.53125 1373.4062 C 743.64311 1375.5071 726.19397 1384.1716 722.21875 1388.4688 C 720.35822 1390.48 718.09636 1392.9188 717.1875 1393.875 C 713.22162 1398.0477 710.10631 1406.4355 710.40625 1412.125 C 710.78797 1419.3662 719.10777 1429.383 729.09375 1434.6562 C 733.44631 1436.9548 734.24627 1437.0511 750.34375 1437.5312 C 768.82302 1438.0827 774.3189 1437.8405 793.21875 1435.4375 C 816.68136 1432.4542 819.20713 1432.2737 837.4375 1432.4375 C 851.29921 1432.562 857.1048 1432.9709 862.15625 1434.1562 C 865.78657 1435.0081 872.5192 1436.2181 877.125 1436.875 C 881.73075 1437.532 886.70953 1438.6032 888.15625 1439.25 C 889.60306 1439.8967 893.96234 1440.7665 897.84375 1441.1562 C 901.72508 1441.546 907.05804 1442.4453 909.71875 1443.1562 C 914.88554 1444.5369 929.04542 1446.6688 937.03125 1447.2812 C 949.89752 1448.2682 971.34157 1448.7296 973.71875 1448.0625 C 975.18393 1447.6513 981.3294 1447.2151 987.40625 1447.125 C 993.4831 1447.035 1000.4679 1446.5989 1002.9062 1446.125 C 1009.3835 1444.8661 1014.3095 1443.472 1015.2812 1442.6562 C 1015.7499 1442.2631 1017.1671 1441.9626 1018.4062 1441.9688 C 1019.6455 1441.9787 1021.4194 1441.4155 1022.375 1440.7188 C 1023.3307 1440.0218 1025.0005 1439.4497 1026.0938 1439.4688 C 1027.187 1439.4878 1028.3784 1439.061 1028.7188 1438.5312 C 1028.9498 1438.1716 1033.3891 1437.5922 1036.7812 1437.0625 C 1036.7214 1447.2229 1036.6555 1456.7343 1036.5625 1461.75 C 1036.4152 1469.7668 1036.3781 1477.509 1036.4688 1478.9688 C 1036.5608 1480.4283 1036.5712 1483.6336 1036.5 1486.0625 C 1036.43 1488.4914 1036.5101 1502.8057 1036.6562 1517.875 C 1036.8033 1532.9443 1036.8221 1566.1424 1036.6875 1591.6562 C 1036.6828 1592.5592 1036.692 1593.1968 1036.6875 1594.0938 C 1029.8588 1591.5432 1018.7614 1589.481 1013.1875 1588.5938 C 1010.2819 1588.1311 1006.6288 1587.3092 1005.0625 1586.7812 C 1003.4963 1586.2535 998.84482 1585.5792 994.71875 1585.2812 C 990.59277 1584.9835 985.03105 1584.097 982.34375 1583.3125 C 974.80902 1581.113 965.13395 1579.8682 955.90625 1579.8438 C 954.58801 1579.8438 953.29292 1579.8593 952 1579.9062 C 942.05454 1580.2725 939.30586 1580.8255 928.09375 1584.8125 C 924.72082 1586.0119 920.89539 1586.9914 919.59375 1586.9688 C 917.21993 1586.9268 904.83543 1590.6691 903.15625 1591.9375 C 901.38642 1593.2745 886.24314 1598.7508 884.40625 1598.7188 C 883.37365 1598.7007 878.98026 1599.852 874.625 1601.2812 C 865.10893 1604.4042 860.19051 1605.9051 854.28125 1607.4688 C 851.83986 1608.1147 847.84841 1609.2167 845.40625 1609.9062 C 842.96409 1610.5959 838.77164 1611.384 836.09375 1611.6562 C 833.41587 1611.9286 828.9999 1612.8075 826.3125 1613.625 C 823.62509 1614.4425 817.94194 1615.518 813.65625 1616 C 809.37047 1616.4819 804.85486 1617.2132 803.625 1617.6562 C 802.39504 1618.0994 800.00555 1618.436 798.3125 1618.4062 C 796.61944 1618.3773 794.01995 1618.9814 792.53125 1619.7188 C 791.04255 1620.4559 787.34982 1621.5296 784.34375 1622.125 C 781.33759 1622.7203 773.66847 1624.9678 767.3125 1627.125 C 760.95653 1629.2822 751.18415 1632.5823 745.5625 1634.4375 C 739.94083 1636.2928 734.93806 1638.1591 734.46875 1638.5938 C 733.99944 1639.0283 732.61415 1639.3869 731.375 1639.375 C 728.75745 1639.349 715.46457 1646.8225 705.1875 1654.125 C 702.68409 1655.9039 700.02431 1657.3572 699.25 1657.3438 C 697.46138 1657.3128 684.66439 1664.2656 680.28125 1667.6562 C 678.45177 1669.0715 675.63367 1670.462 674.03125 1670.75 C 669.65805 1671.5361 660.23967 1676.4131 658.15625 1678.9688 C 655.6565 1682.0349 653.5988 1686.9052 653.5625 1689.875 C 653.5155 1693.7186 655.91671 1700.0744 658.46875 1702.875 C 663.50622 1708.4031 676.58743 1713.9677 687.15625 1715.0938 C 702.42076 1716.7198 709.71503 1716.8972 711.6875 1715.6562 C 712.77801 1714.9703 716.04747 1714.1694 718.96875 1713.875 C 721.89004 1713.5805 727.07941 1712.4613 730.5 1711.4062 C 741.25547 1708.089 752.06702 1706.2389 763.3125 1705.7812 C 800.09804 1704.284 836.52797 1704.879 853.84375 1707.25 C 860.8743 1708.2126 867.41098 1709.3833 868.375 1709.8438 C 870.35823 1710.7907 883.74723 1713.4017 890.40625 1714.1562 C 892.83158 1714.431 896.99192 1715.0913 899.65625 1715.5938 C 902.32067 1716.0959 907.68073 1716.7908 911.5625 1717.1562 C 917.84407 1717.7478 927.77009 1719.407 935.34375 1721.125 C 936.79604 1721.4544 939.78869 1722.0374 941.96875 1722.4375 C 948.46927 1723.6305 990.32445 1723.7273 996.3125 1722.5625 C 999.23854 1721.9933 1003.7014 1721.5107 1006.25 1721.4688 C 1009.1469 1721.4207 1011.4992 1720.8392 1012.5312 1719.9375 C 1013.4393 1719.1443 1016.553 1718.1279 1019.4375 1717.6562 C 1022.6151 1717.1368 1029.8306 1716.4935 1036.3125 1715.625 C 1036.3294 1728.1839 1036.3452 1740.9101 1036.4062 1752.0312 C 1036.4652 1762.7249 1036.561 1781.4108 1036.625 1793.5625 C 1036.7638 1819.7624 1036.1852 1899.211 1035.6562 1924.5 C 1035.6143 1926.4904 1035.5825 2082.4115 1035.5625 2084.2812 L -27.5625 2084.2812 C -41.389703 2084.2812 -27.94919 1891.4939 -27.875 1868.6562 C -27.85131 1861.3664 -27.8815 1846.0476 -27.9375 1834.625 C -28.220519 1776.8803 -28.208361 1763.3576 -27.84375 1718 C -27.626947 1691.0294 -27.47898 1660.4185 -27.5 1649.9688 C -27.51811 1640.9656 -27.49805 1621.5055 -27.46875 1604.6562 C -10.24161 1604.725 12.534026 1605.8505 16.4375 1607.7812 C 20.180074 1609.6325 22.501003 1610.1087 28.09375 1610.2188 C 31.926945 1610.2948 36.84524 1610.4059 39.03125 1610.4688 C 43.958642 1610.61 49.306143 1610.3366 69.53125 1608.875 C 87.212418 1607.5972 92.134231 1607.9908 98.8125 1611.1875 C 101.3121 1612.3839 104.34744 1613.3856 105.53125 1613.4062 C 108.06356 1613.4503 120.98768 1617.7961 122.53125 1619.125 C 123.97286 1620.3646 132.44708 1622.6186 139.96875 1623.75 C 154.53279 1625.9407 157.8226 1626.5795 161.5 1628.0312 C 163.76604 1628.9259 167.62233 1629.5475 170.75 1629.5312 C 173.70086 1629.5162 179.27898 1629.9321 183.15625 1630.4375 C 187.03351 1630.943 191.7978 1631.0623 193.75 1630.7188 C 195.7022 1630.3751 200.48759 1630.1426 204.375 1630.1875 C 209.55639 1630.2465 213.09503 1629.711 217.65625 1628.1875 C 221.07837 1627.0446 224.65631 1626.119 225.59375 1626.125 C 229.50502 1626.15 248.89925 1619.0077 251.75 1616.5 C 254.71993 1613.8875 256.11229 1611.0087 256.9375 1605.625 C 257.55778 1601.5784 257.35799 1600.4898 255.59375 1597.625 C 254.47393 1595.8066 253.03035 1593.2198 252.375 1591.875 C 251.71966 1590.5302 250.1794 1588.7855 248.9375 1587.9688 C 247.6956 1587.1518 245.69562 1585.5518 244.5 1584.4375 C 243.3044 1583.3231 240.87545 1581.9159 239.09375 1581.3125 C 237.31207 1580.709 234.83814 1579.3895 233.59375 1578.375 C 232.34936 1577.3606 229.43617 1575.9702 227.15625 1575.2812 C 224.87633 1574.5923 221.34753 1573.3816 219.3125 1572.5938 C 211.57954 1569.5997 183.41178 1564.5527 169.75 1563.7188 C 158.60021 1563.0382 152.4508 1562.177 147.875 1560.5938 C 145.79439 1559.8737 140.45419 1558.6126 136 1557.8125 C 131.54583 1557.0124 124.91335 1555.7491 121.28125 1555 C 115.8056 1553.8706 97.494471 1552.1966 84.25 1551.625 C 79.862543 1551.4357 69.53756 1545.8959 65.3125 1541.4688 C 60.820274 1536.7616 57.711937 1527.9396 59.03125 1523.625 C 60.386979 1519.1914 66.274686 1509.6338 70.6875 1504.7188 C 76.668719 1498.0566 78.345945 1493.9748 77.96875 1487 C 77.626933 1480.6795 76.581022 1478.7035 70.4375 1472.5312 C 65.638405 1467.7099 60.586082 1465.4367 51.75 1464.0625 C 47.874442 1463.4597 43.514608 1462.5877 42.0625 1462.125 C 38.933234 1461.1279 29.381334 1459.289 21.375 1458.1562 C 18.223625 1457.7106 12.270294 1456.8354 8.15625 1456.2188 C 2.9638802 1455.4405 -1.219943 1455.3403 -5.53125 1455.875 C -8.94721 1456.2986 -14.468136 1456.8616 -17.78125 1457.125 C -22.816713 1457.5253 -24.022292 1457.9293 -25.21875 1459.6875 C -26.005971 1460.8445 -26.805316 1461.6692 -26.96875 1461.5 C -27.132193 1461.3307 -27.27265 1450.079 -27.28125 1436.5 C -27.28985 1422.9209 -27.35087 1403.6525 -27.4375 1393.6875 C -27.52413 1383.7225 -27.42111 1355.0892 -27.21875 1330.0625 C -27.016392 1305.0358 -26.8716 1272.1258 -26.875 1256.9375 L -26.875 1229.3438 L -22.625 1229.4062 C -20.290734 1229.4433 -15.01386 1229.1261 -10.875 1228.6875 C -0.47672328 1227.5856 4.5208984 1227.3187 18.40625 1227.1562 C 25.015883 1227.0793 31.225922 1226.6182 32.1875 1226.125 C 34.669017 1224.8522 42.91309 1224.778 47.0625 1226 C 48.996653 1226.5696 58.537971 1227.4221 68.25 1227.9062 C 77.96203 1228.3907 86.569647 1229.0016 87.40625 1229.25 C 88.242843 1229.4984 89.6808 1231.4597 90.59375 1233.625 C 94.607865 1243.1452 100.49035 1247.4585 114.40625 1251.125 C 122.45568 1253.2458 129.44951 1253.6407 196.03125 1255.7188 C 209.22586 1256.1306 220.74045 1256.8653 221.625 1257.3438 C 222.50956 1257.822 231.77877 1258.672 242.21875 1259.2188 C 252.65873 1259.7653 265.37099 1260.4664 270.46875 1260.7812 C 279.16211 1261.3182 296.83601 1261.7043 325.6875 1262 C 332.49062 1262.07 346.97676 1262.4038 357.90625 1262.75 C 372.16174 1263.2015 378.89099 1263.0738 381.71875 1262.3125 C 384.0097 1261.6957 387.3877 1261.5196 389.75 1261.875 C 393.22765 1262.3982 394.17651 1262.1908 396.4375 1260.375 C 397.89093 1259.2077 399.97463 1257.7982 401.0625 1257.25 C 404.26886 1255.6343 407.91358 1248.9209 407.28125 1245.7812 C 406.92275 1244.0014 407.20105 1242.5019 408.15625 1241.1875 C 410.105 1238.5061 409.99939 1235.8823 407.8125 1233 C 405.3617 1229.7698 403.07715 1228.9593 393.0625 1227.8125 C 388.41552 1227.2804 381.65889 1226.0361 378.03125 1225.0312 C 370.4762 1222.9389 358.62452 1220.745 345.875 1219.0625 C 341.02593 1218.4226 334.97879 1217.4672 332.4375 1216.9375 C 329.8962 1216.4078 323.53269 1215.6985 318.3125 1215.375 C 306.11477 1214.6191 288.0257 1213.0773 282.375 1212.3125 C 277.69029 1211.6783 259.73712 1209.7151 252.375 1209.0312 C 249.94882 1208.806 239.61 1208.5014 229.40625 1208.3438 C 219.20252 1208.1851 210.26007 1208.044 209.53125 1208.0312 C 208.01385 1208.0023 199.59272 1206.3515 190.59375 1204.3438 C 186.70789 1203.4767 177.4125 1202.7546 165.4375 1202.375 C 149.61081 1201.8735 146.03101 1201.53 143.84375 1200.25 C 142.40042 1199.4054 139.82539 1198.6644 138.125 1198.625 C 134.72773 1198.545 130.98011 1196.8973 130.46875 1195.25 C 129.73212 1192.8769 134.60366 1191.3532 145.0625 1190.7188 C 150.80437 1190.3702 160.4809 1189.7986 166.5625 1189.4375 C 178.64075 1188.7204 191.0292 1186.4189 194.46875 1184.25 C 197.69703 1182.2144 198.51014 1180.1565 199.25 1172.3438 L 199.9375 1165.2812 L 196.125 1161.6562 C 194.02302 1159.6664 191.60307 1158.0457 190.78125 1158.0312 C 189.95942 1158.0173 189.06226 1157.598 188.78125 1157.125 C 187.88765 1155.6211 175.09219 1151.9676 167.21875 1150.9688 C 164.06658 1150.5686 159.31723 1149.6961 156.65625 1149 C 147.78341 1146.6788 111.29904 1144.4431 93.09375 1145.125 C 83.277188 1145.4928 77.755669 1145.3314 73.65625 1144.5 C 59.35866 1141.6005 47.820883 1140.192 22.53125 1138.3438 C 15.007476 1137.7938 7.5581068 1136.9333 6 1136.4062 C 3.5985216 1135.5941 -5.1448367 1134.4817 -15.84375 1133.6562 C -21.550807 1133.216 -25.921287 1131.9125 -26.3125 1130.5 C -26.532542 1129.7055 -26.7338 1123.5426 -26.75 1116.8125 C -26.78341 1102.9408 -26.402185 1102.1069 -20 1102.2188 C -16.07171 1102.2867 -4.5862367 1100.0042 1.25 1098 C 2.5277994 1097.5612 6.8908054 1097.1043 10.96875 1097 C 15.046687 1096.8957 21.96248 1096.4978 26.34375 1096.0938 C 28.746222 1095.8721 34.159578 1095.7293 42.5 1095.6875 z M -26.59375 1143.1875 L -22.1875 1143.2812 C -10.866571 1143.5467 9.6655958 1145.8557 12.03125 1147.125 C 12.8962 1147.589 23.393044 1148.713 35.375 1149.625 C 47.356953 1150.5371 57.821104 1151.5107 58.625 1151.7812 C 59.428897 1152.052 61.436444 1152.4493 63.0625 1152.6875 C 79.161307 1155.0454 84.094277 1155.3487 101.3125 1154.9688 C 111.52295 1154.7432 122.47279 1154.8828 125.625 1155.2812 C 128.7772 1155.6797 136.02578 1156.1253 141.75 1156.25 C 149.10104 1156.4104 153.13467 1156.8922 155.4375 1157.9062 C 157.23069 1158.696 162.06248 1159.615 166.1875 1159.9688 C 170.82496 1160.3664 174.92862 1161.2611 176.9375 1162.3125 C 178.72441 1163.2477 180.88052 1164.0385 181.75 1164.0625 C 184.3434 1164.1355 191.6557 1169.3617 191.625 1171.125 C 191.5809 1173.6509 188.2837 1176.4115 184.65625 1176.9688 C 182.82684 1177.2495 178.77413 1177.9821 175.625 1178.625 C 172.17195 1179.3298 162.69944 1179.8419 151.75 1179.9062 C 135.51782 1180.0023 133.18839 1180.2088 129.96875 1181.8125 C 123.08461 1185.2415 120.0463 1192.651 122.59375 1199.6875 C 124.52982 1205.0352 127.96549 1207.8542 134.15625 1209.125 C 136.94576 1209.6975 141.20511 1210.6324 143.625 1211.2188 C 146.04489 1211.8049 156.39333 1212.5575 166.59375 1212.9062 C 179.0778 1213.3331 187.27536 1214.0397 191.71875 1215.0625 C 201.98265 1217.4253 214.57887 1218.4127 231.4375 1218.1875 C 242.9327 1218.034 249.74964 1218.4175 257.9375 1219.625 C 263.99721 1220.5187 272.11443 1221.3813 276 1221.5312 C 279.88557 1221.6816 283.77257 1222.1532 284.625 1222.5938 C 285.47746 1223.0342 292.50185 1223.705 300.21875 1224.0938 C 313.47178 1224.7614 322.81124 1225.8401 344.375 1229.2188 C 349.46434 1230.016 354.98994 1230.8609 356.6875 1231.0625 C 364.8147 1232.0279 374.07334 1233.9628 376.34375 1235.1875 C 377.7285 1235.9345 382.33827 1236.9532 386.59375 1237.4688 C 395.40837 1238.5365 396.86164 1239.0033 397.53125 1240.8438 C 398.13216 1242.4952 396.05631 1247.3731 394.0625 1248.9688 C 393.23496 1249.6309 389.1297 1250.6535 384.9375 1251.25 C 380.7453 1251.8464 376.91543 1252.5597 376.4375 1252.8438 C 375.37507 1253.475 351.23076 1253.534 350.625 1252.9062 C 350.38704 1252.6599 334.66341 1252.0505 315.6875 1251.5625 C 296.71159 1251.0745 280.87605 1250.4915 280.5 1250.25 C 280.12394 1250.0084 272.68162 1249.6362 263.96875 1249.4062 C 249.34823 1249.0202 224.75049 1247.4286 216.375 1246.3438 C 214.43529 1246.0925 204.09337 1245.622 193.40625 1245.3125 C 182.71912 1245.0029 173.57451 1244.5199 173.09375 1244.2188 C 172.61298 1243.9174 167.06452 1243.4984 160.75 1243.2812 C 121.87496 1241.9451 120.15953 1241.7864 111.34375 1238.6562 C 103.49922 1235.871 99.815914 1232.9522 99.15625 1229.0625 C 98.479445 1225.0716 96.898619 1221.8185 94.625 1219.6875 C 93.150389 1218.3054 90.851757 1217.9863 79.21875 1217.5 C 71.700895 1217.1858 63.223868 1216.5185 60.375 1216 C 52.586578 1214.5825 28.543227 1214.7951 6.125 1216.5 C 0.52829415 1216.9256 -9.0177697 1217.3047 -15.09375 1217.3438 L -26.125 1217.4062 L -26.53125 1204.1562 C -26.741771 1196.8622 -26.83084 1180.1526 -26.75 1167.0312 L -26.59375 1143.1875 z M 861.03125 1166.9688 C 857.13988 1167.0017 853.05135 1167.2488 850.5625 1167.6875 C 848.07045 1168.1268 841.24237 1168.6555 835.40625 1168.875 C 829.57013 1169.0945 821.42341 1169.8101 817.28125 1170.4375 C 813.13909 1171.065 806.74558 1171.8692 803.09375 1172.25 C 799.44192 1172.6308 793.85796 1173.4779 790.6875 1174.125 C 787.51705 1174.7721 782.20097 1175.6979 778.875 1176.1875 C 775.54903 1176.677 772.16468 1177.4336 771.34375 1177.8438 C 770.52281 1178.2537 767.45724 1179.0295 764.53125 1179.5938 C 756.82011 1181.0803 752.92134 1182.4949 750.8125 1184.5312 C 749.78991 1185.5188 748.03947 1186.3006 746.9375 1186.2812 C 745.83563 1186.2622 743.55533 1187.1526 741.84375 1188.25 C 739.17896 1189.9588 732.77823 1192.6119 727.4375 1194.2188 C 726.60983 1194.4677 725.40752 1196.2849 724.78125 1198.25 C 723.43745 1202.4659 724.26671 1204.671 729.09375 1209.8438 C 732.05932 1213.0215 734.42467 1214.0347 752.78125 1219.8125 C 754.35834 1220.3089 754.9649 1221.1175 754.9375 1222.6875 C 754.8945 1225.1506 755.80585 1224.9487 734.53125 1226.9688 C 723.94736 1227.9736 715.59235 1229.7037 711.71875 1231.6875 C 710.86714 1232.1236 709.5588 1232.4817 708.8125 1232.4688 C 706.68083 1232.4317 699.87072 1238.9824 698.0625 1242.8125 C 695.82821 1247.545 696.65139 1250.2556 701.1875 1253.25 C 708.81275 1258.2836 716.06493 1260.8451 724.1875 1261.3438 C 728.38331 1261.6011 732.02433 1262.0452 732.3125 1262.3438 C 732.92643 1262.9795 746.73328 1262.4398 753.96875 1261.5 C 756.7259 1261.1417 759.78658 1261.0649 760.78125 1261.3438 C 761.77582 1261.6225 765.51007 1261.2778 769.0625 1260.5625 C 772.61501 1259.8466 778.50865 1259.1382 782.15625 1259 C 785.80384 1258.8618 790.51673 1258.1428 792.65625 1257.4062 C 794.79586 1256.6698 799.18445 1256.1313 802.40625 1256.1875 C 805.62805 1256.2435 809.66872 1255.8858 811.375 1255.4062 C 813.08127 1254.9269 820.06519 1254.2821 826.875 1253.9688 C 833.68481 1253.6553 842.7881 1252.8918 847.125 1252.25 C 854.73778 1251.1234 855.15836 1250.9186 858.9375 1247 C 862.95534 1242.834 863.75997 1239.8695 862.40625 1234.4375 C 861.8522 1232.2142 852.71098 1225.4962 849.03125 1224.625 C 847.82119 1224.3385 845.42629 1223.5472 843.71875 1222.875 C 842.01119 1222.2029 838.76812 1221.3494 836.5 1220.9688 C 831.93961 1220.2033 829.83794 1218.5607 831.6875 1217.1875 C 833.3453 1215.9568 845.55715 1213.6846 849.65625 1213.8438 C 851.59903 1213.9188 856.77321 1213.5675 861.15625 1213.0625 C 865.53929 1212.5574 872.09905 1211.8625 875.75 1211.5312 C 883.87994 1210.7938 891.19786 1209.4773 893.46875 1208.3125 C 894.40407 1207.8327 895.86743 1207.4395 896.75 1207.4375 C 897.63249 1207.4375 899.97753 1206.6861 901.9375 1205.7812 C 903.89738 1204.8764 905.98914 1204.131 906.59375 1204.125 C 908.33769 1204.108 913.12411 1197.1244 913.125 1194.5938 C 913.127 1190.7668 911.23561 1184.2614 909.625 1182.5938 C 908.79075 1181.7297 908.1144 1180.5174 908.125 1179.9062 C 908.1645 1177.6399 891.01608 1171.2891 879.15625 1169.1875 C 875.52231 1168.5436 871.5539 1167.8124 870.34375 1167.5312 C 868.61094 1167.1288 864.92262 1166.9353 861.03125 1166.9688 z M 860.46875 1177.125 C 868.1033 1177.056 875.05663 1177.4813 878.875 1178.375 C 887.32647 1180.353 898.13188 1184.2896 901.15625 1186.5 C 905.24159 1189.4857 903.93711 1194.4903 898.5625 1196.4062 C 891.06739 1199.0784 871.45084 1201.9814 852.5 1203.25 C 846.66088 1203.6409 840.67925 1204.0797 839.21875 1204.2188 C 835.56396 1204.5665 824.90911 1206.8046 823.84375 1207.4375 C 822.20467 1208.4115 818.40336 1215.4224 817.71875 1218.75 C 817.14518 1221.5382 817.36931 1222.4318 819.09375 1224.3438 C 821.8206 1227.3671 825.51828 1229.3092 827.3125 1228.6562 C 828.11023 1228.3662 829.60464 1228.5692 830.65625 1229.0938 C 835.50987 1231.5137 844.65302 1234.8422 846.53125 1234.875 C 847.67526 1234.895 849.6681 1235.7521 850.96875 1236.8125 C 853.04092 1238.5019 853.18013 1238.9219 852.03125 1240.0312 C 850.05409 1241.9407 832.17604 1244.1637 816.4375 1244.4688 C 814.49275 1244.5068 810.87669 1244.9497 808.4375 1245.4688 C 805.99832 1245.9877 800.02399 1246.7893 795.15625 1247.2188 C 790.28852 1247.6481 784.11815 1248.3505 781.4375 1248.7812 C 778.75685 1249.2121 771.58674 1250.0948 765.5 1250.75 C 752.61267 1252.1373 735.80068 1252.4687 733.15625 1251.4062 C 732.14543 1251.0003 728.5573 1250.6634 725.1875 1250.6562 C 720.45522 1250.6463 718.10444 1250.1647 714.875 1248.5312 C 708.73515 1245.4256 709.64814 1244.1144 720.1875 1240.7188 C 727.65195 1238.3139 730.13199 1237.9002 735.8125 1238.1562 C 739.83953 1238.3377 742.7999 1238.0863 743.15625 1237.5312 C 743.48498 1237.0195 746.12326 1236.6373 749 1236.6875 C 756.24017 1236.8139 760.78847 1234.8781 764.625 1230.0312 C 767.56606 1226.3157 767.78879 1225.6879 767.34375 1221.5625 C 766.69467 1215.5444 762.33958 1211.0976 755.0625 1209 C 752.23358 1208.1846 748.7026 1207.0962 747.21875 1206.5938 C 745.73499 1206.091 743.4605 1205.6784 742.1875 1205.6562 C 736.03145 1205.5488 739.44508 1201.5163 750.09375 1196.3438 C 753.52502 1194.677 756.94823 1192.8364 757.6875 1192.25 C 758.88279 1191.302 765.48406 1189.502 774.5625 1187.6562 C 778.06263 1186.9448 782.77859 1185.928 791.84375 1183.9375 C 795.25901 1183.1875 799.64756 1182.4954 801.59375 1182.375 C 810.15721 1181.845 819.489 1180.6102 821.84375 1179.7188 C 823.24962 1179.1861 825.6928 1179.0233 827.25 1179.3438 C 828.80711 1179.664 833.62621 1179.4058 837.96875 1178.75 C 844.50577 1177.7627 852.8342 1177.194 860.46875 1177.125 z M 607.90625 1178.3438 C 604.83772 1178.3438 602.37142 1178.5011 601.125 1178.9062 C 599.16489 1179.5436 596.75939 1179.8771 595.78125 1179.625 C 593.65621 1179.0773 588.18665 1182.1004 588.15625 1183.8438 C 588.14445 1184.5202 587.54834 1185.5357 586.8125 1186.125 C 584.66066 1187.8483 583.30595 1193.7534 584.34375 1196.9062 C 585.33435 1199.916 594.63201 1209.5433 598.71875 1211.7812 C 600.16302 1212.5721 603.94176 1213.5576 607.09375 1213.9688 C 618.56219 1215.4645 647.51272 1212.638 655.875 1209.2188 C 659.57361 1207.7064 660.19638 1206.9752 661.25 1202.6562 C 662.20957 1198.7229 660.18484 1194.2349 655.5625 1190.0312 C 651.55124 1186.3835 648.15805 1184.8593 642.03125 1183.9375 C 639.42533 1183.5454 636.08833 1182.495 634.625 1181.625 C 631.66893 1179.8675 617.11183 1178.3295 607.90625 1178.3438 z M 608.65625 1187.9062 C 610.84803 1187.8373 612.0113 1188.0217 612.53125 1188.4688 C 613.16348 1189.012 614.6038 1189.2352 615.75 1188.9688 C 617.17568 1188.6372 618.77767 1189.1858 620.78125 1190.7188 C 623.45337 1192.7631 624.51135 1192.9796 632.84375 1193.125 C 642.24703 1193.2891 645.49253 1194.189 649.6875 1197.6875 L 651.8125 1199.4375 L 649.65625 1200.75 C 648.32142 1201.581 642.67799 1202.5591 634.78125 1203.2812 C 615.86353 1205.0116 603.73479 1204.341 599.625 1201.3438 C 597.02059 1199.4442 593.28705 1194.5748 593.34375 1193.1875 C 593.46607 1190.1992 595.71032 1189.1276 603.5 1188.3125 C 605.63378 1188.0894 607.34118 1187.9477 608.65625 1187.9062 z M 486.46875 1216.9062 C 475.69298 1216.8582 468.9886 1218.0512 466.78125 1220.4062 C 465.86036 1221.3888 463.95505 1222.7637 462.53125 1223.4688 C 458.11504 1225.6555 451.43612 1232.754 450.34375 1236.4375 C 448.98859 1241.0072 449.0368 1243.1596 450.53125 1248.6562 C 451.53998 1252.3666 452.70867 1254.1151 456.34375 1257.3438 C 462.65559 1262.9497 462.66123 1262.9362 470.5625 1263.7188 C 474.44399 1264.103 479.62837 1264.23 482.0625 1264 C 484.49663 1263.7704 488.20488 1263.7248 490.3125 1263.875 C 492.42011 1264.0253 494.61697 1263.7809 495.1875 1263.3438 C 496.77735 1262.1245 501.91243 1261.3546 507.0625 1261.5625 C 509.68005 1261.6681 512.84993 1261.1929 514.3125 1260.4688 C 519.4078 1257.9455 525.90559 1246.9957 526.8125 1239.4375 C 527.28358 1235.5115 527.0558 1234.6104 524.625 1231.1562 C 523.12354 1229.0229 520.69027 1226.5846 519.21875 1225.75 C 517.74724 1224.9155 515.50702 1223.3914 514.25 1222.3438 C 512.99297 1221.2959 510.60107 1220.1406 508.90625 1219.7812 C 497.43849 1217.3502 494.30427 1216.9414 486.46875 1216.9062 z M 492.625 1226.625 C 493.85267 1226.584 494.74429 1226.668 495 1226.875 C 495.51142 1227.289 498.48501 1227.9168 501.59375 1228.2812 C 506.45015 1228.851 507.91215 1229.4809 512 1232.75 C 514.61676 1234.8426 517.18629 1237.5034 517.6875 1238.6562 C 519.6418 1243.1518 512.5951 1250.3717 505.25 1251.4062 C 499.76787 1252.1785 467.4726 1252.0003 465.5 1251.1875 C 464.53489 1250.7899 462.65842 1249.2837 461.34375 1247.8438 C 459.22961 1245.528 459.01995 1244.7528 459.5625 1241.25 C 460.42764 1235.6645 464.23573 1233.2312 472.5625 1232.9062 C 477.8679 1232.6994 478.8983 1232.3791 480.53125 1230.375 C 481.9746 1228.6037 483.74349 1227.8469 488.25 1227.0938 C 489.85697 1226.8251 491.39733 1226.6656 492.625 1226.625 z M 80.03125 1265.75 C 75.971185 1265.794 72.162364 1266.0867 70.03125 1266.6875 C 67.681407 1267.35 62.756779 1268.7275 59.09375 1269.75 C 53.620367 1271.278 51.664761 1272.3796 48.03125 1275.8438 C 45.599545 1278.162 43.257725 1280.0384 42.84375 1280.0312 C 42.429774 1280.0213 40.892996 1281.8687 39.40625 1284.125 C 35.583891 1289.9258 35.715232 1296.6168 39.75 1301 C 40.603758 1301.9275 41.684998 1303.4037 42.15625 1304.25 C 43.219685 1306.1598 63.583091 1311.617 68.03125 1311.1875 C 69.695506 1311.0268 73.072713 1311.4199 75.53125 1312.0625 C 81.281649 1313.5654 81.222291 1313.5594 84.875 1312.5625 C 86.581003 1312.0969 92.564034 1311.5743 98.15625 1311.4062 C 103.74846 1311.2384 109.50332 1310.7654 110.96875 1310.3438 C 112.43418 1309.922 116.52819 1309.5695 120.0625 1309.5625 C 125.59183 1309.5515 127.43824 1309.1073 133.1875 1306.3438 C 141.48877 1302.3532 142.16391 1301.796 143.46875 1298.0625 C 144.37478 1295.4701 144.27499 1294.4669 142.65625 1290.9688 C 141.16589 1287.7478 139.38381 1285.9663 134.15625 1282.4375 C 130.52253 1279.9845 127.21577 1277.9756 126.8125 1277.9688 C 126.40923 1277.9588 124.09876 1276.525 121.65625 1274.7812 C 119.21375 1273.0376 116.23481 1271.6143 115.0625 1271.5938 C 113.89019 1271.5728 110.67077 1270.6856 107.90625 1269.6562 C 104.85672 1268.521 101.90761 1267.9822 100.40625 1268.2812 C 98.90306 1268.5809 97.172103 1268.2612 96 1267.4688 C 94.285132 1266.3088 86.798026 1265.6765 80.03125 1265.75 z M 76.59375 1276.1875 C 76.864568 1276.1705 77.116987 1276.1775 77.34375 1276.1875 C 83.186639 1276.3745 88.556175 1276.9495 89.90625 1277.5312 C 90.629839 1277.8431 94.121086 1278.3348 97.6875 1278.6562 C 101.38586 1278.9896 105.10273 1279.8644 106.3125 1280.6875 C 107.4791 1281.481 108.87666 1281.8771 109.40625 1281.5625 C 110.98971 1280.6216 117.41061 1283.2679 120.75 1286.2188 C 122.46584 1287.735 125.1328 1289.6768 126.65625 1290.5312 C 128.17969 1291.3858 129.41425 1292.4311 129.40625 1292.875 C 129.39825 1293.3189 127.87425 1294.6425 126.03125 1295.8125 C 122.75129 1297.8947 117.35316 1299.1678 112.0625 1299.125 C 110.60464 1299.113 103.45302 1299.414 96.15625 1299.7812 C 79.888251 1300.6001 71.126371 1300.6045 64.78125 1299.75 C 58.975813 1298.968 48.399108 1295.8495 47.15625 1294.5625 C 44.497931 1291.8097 54.670112 1281.8691 61.625 1280.4375 C 63.801078 1279.9895 67.484989 1278.825 69.8125 1277.8438 C 71.849066 1276.985 74.698026 1276.3065 76.59375 1276.1875 z M 857.8125 1362.0312 C 859.60647 1362.0278 860.72829 1362.3501 862 1363.0312 C 863.89456 1364.0461 865.71991 1364.2259 869.0625 1363.7812 C 873.24297 1363.2253 886.70725 1363.3065 903.59375 1363.9688 C 907.47932 1364.1211 912.96716 1364.8241 915.78125 1365.5312 C 918.59525 1366.2381 922.24077 1366.6155 923.90625 1366.375 C 925.57182 1366.1345 928.04032 1366.3999 929.375 1366.9688 C 930.70969 1367.5376 936.47892 1368.6914 942.1875 1369.5312 C 947.89608 1370.3712 955.0203 1371.7449 958.03125 1372.5625 C 961.04211 1373.38 966.05625 1374.421 969.15625 1374.9062 C 972.25608 1375.3917 975.60875 1376.1196 976.625 1376.5 C 977.64117 1376.8803 980.86696 1377.2685 983.78125 1377.375 C 986.69553 1377.4821 992.25251 1378.3199 996.125 1379.2188 C 999.99749 1380.1174 1003.991 1381.025 1005 1381.25 C 1006.0089 1381.475 1008.3026 1382.8742 1010.125 1384.375 C 1011.9474 1385.8758 1014.32 1387.138 1015.375 1387.1562 C 1016.4301 1387.1753 1018.038 1387.7702 1018.9688 1388.5 C 1019.9325 1389.2558 1022.5774 1389.8624 1025.0938 1389.9062 C 1028.9588 1389.9742 1029.9097 1389.6034 1032.625 1386.9688 C 1034.3317 1385.3129 1036.0611 1383.9617 1036.4688 1383.9688 C 1036.8763 1383.9787 1037.1345 1385.4912 1037.0625 1387.3125 C 1036.9905 1389.1338 1036.9 1403.354 1036.875 1418.9062 C 1036.8707 1421.672 1036.8547 1424.6143 1036.8438 1427.5312 C 1034.3688 1427.2391 1031.704 1427.278 1030.2812 1427.4375 C 1027.133 1427.7904 1015.0249 1431.5779 1013 1432.8438 C 1006.0229 1437.2048 946.12359 1439.183 927.75 1435.6562 C 923.2691 1434.7963 918.29738 1434.0676 916.71875 1434.0312 C 915.13995 1433.9962 912.07915 1433.2835 909.90625 1432.4688 C 907.73334 1431.6538 903.98863 1430.794 901.5625 1430.5625 C 892.75355 1429.7218 879.53065 1427.0901 876.90625 1425.6562 C 874.90741 1424.5642 862.60883 1423.1136 852.1875 1422.7188 C 848.30188 1422.5714 839.38656 1422.2287 832.34375 1421.9688 C 825.30095 1421.7087 815.60419 1421.8757 810.8125 1422.3438 C 806.02089 1422.8111 801.794 1422.9991 801.40625 1422.75 C 801.01843 1422.5008 796.15706 1423.0065 790.625 1423.875 C 779.05154 1425.692 759.80819 1426.9607 752.71875 1426.375 C 742.6796 1425.5456 735.42362 1424.5036 732.875 1423.5312 C 731.42657 1422.9787 727.97214 1420.1297 725.1875 1417.1875 C 721.28322 1413.0622 720.24161 1411.4124 720.65625 1409.9688 C 720.95188 1408.9389 721.227 1407.435 721.25 1406.625 C 721.2875 1405.1681 730.98132 1393.667 732.15625 1393.6875 C 732.49116 1393.6975 735.11734 1392.3268 738 1390.6562 C 740.88273 1388.9859 745.43964 1387.0442 748.125 1386.3438 C 754.90472 1384.5751 763.17047 1381.161 767.84375 1378.1875 C 769.15261 1377.3547 771.53645 1376.7592 773.15625 1376.875 C 777.23244 1377.1664 785.82153 1375.5651 793.3125 1373.0938 C 796.77436 1371.9516 801.03961 1371.0321 802.78125 1371.0625 C 804.52281 1371.0925 806.67057 1370.7388 807.5625 1370.2812 C 808.45443 1369.8238 813.10526 1369.1646 817.90625 1368.8125 C 822.70733 1368.4604 827.84572 1367.78 829.3125 1367.2812 C 833.08184 1365.9997 846.86679 1363.2223 853.6875 1362.375 C 855.40821 1362.1613 856.73612 1362.0333 857.8125 1362.0312 z M 445.0625 1362.4688 C 444.28735 1362.4497 443.43874 1362.8979 441.9375 1363.9688 C 439.76611 1365.5176 437.33965 1366.1727 432.25 1366.5625 C 421.31928 1367.3995 413.30608 1368.4227 409.5 1369.4688 C 407.54653 1370.0056 404.55116 1370.7307 402.84375 1371.0938 C 401.13632 1371.4567 399.08661 1372.0213 398.28125 1372.3438 C 396.95611 1372.8742 380.42009 1374.8365 372.75 1375.375 C 367.52086 1375.7422 351.26231 1383.6886 346.96875 1387.9688 C 341.86031 1393.061 340.40112 1395.9524 339.8125 1402.2812 C 339.17129 1409.1754 340.6708 1412.8388 346.40625 1418.4688 C 352.4561 1424.4072 352.73282 1424.5385 361.25 1425.375 C 380.69329 1427.2848 386.64968 1428.1704 388.96875 1429.4375 C 391.14861 1430.6286 392.30763 1430.6638 397.78125 1429.7188 C 401.24332 1429.1208 406.33158 1428.6709 409.09375 1428.7188 C 411.85592 1428.7668 415.20152 1428.3854 416.53125 1427.9062 C 417.86096 1427.4271 421.76755 1426.9379 425.21875 1426.8125 C 428.66996 1426.687 435.47492 1426.1798 440.34375 1425.6875 C 450.81227 1424.629 486.31359 1424.7708 495.125 1425.9062 C 499.28682 1426.4426 502.97376 1427.6115 506.4375 1429.5 C 511.70099 1432.3699 526.97089 1442.9641 530.1875 1445.9688 C 531.17478 1446.8909 532.41687 1447.6463 532.96875 1447.6562 C 533.52064 1447.6662 534.31031 1448.2177 534.6875 1448.875 C 535.0647 1449.5323 539.09873 1451.401 543.6875 1453.0312 C 551.53521 1455.8191 552.65722 1455.9709 562.21875 1455.8125 C 569.05853 1455.6991 573.53673 1455.2031 575.90625 1454.25 C 578.66094 1453.142 579.92388 1453.0321 581.71875 1453.8125 C 583.55145 1454.6093 585.69747 1454.3867 592.4375 1452.7188 C 597.07866 1451.5702 602.64779 1449.8278 604.8125 1448.8438 C 614.30636 1444.5276 614.73579 1444.1545 620.03125 1434.3438 C 622.8514 1429.1189 622.95821 1428.4479 622.65625 1421.5625 C 622.43825 1416.5914 621.75658 1413.0582 620.46875 1410.3125 C 618.53052 1406.1801 612.33454 1399.5655 610.375 1399.5312 C 609.76592 1399.5203 608.07883 1398.4548 606.625 1397.1875 C 605.17118 1395.9202 600.91688 1393.7095 597.15625 1392.25 C 593.39561 1390.7906 587.68041 1388.3021 584.4375 1386.75 C 581.1946 1385.1979 577.60755 1383.9263 576.46875 1383.9062 C 575.32994 1383.8863 572.63988 1383.2989 570.5 1382.5938 C 565.60865 1380.9816 556.75297 1379.1591 553.34375 1379.0625 C 551.91564 1379.0225 549.99585 1378.3956 549.09375 1377.6875 C 548.19166 1376.9794 545.22089 1375.9379 542.5 1375.375 C 529.09609 1372.6022 523.46078 1371.1347 514.6875 1368.1562 C 509.51077 1366.3989 499.88961 1365.6441 472.59375 1364.8125 C 455.74781 1364.2992 447.64462 1363.7429 446.5 1363 C 445.98293 1362.6644 445.52759 1362.4799 445.0625 1362.4688 z M 471.0625 1374.6875 C 474.83311 1374.6245 481.29941 1374.9626 493.8125 1375.6562 C 511.88627 1376.6582 513.63789 1376.9443 515.9375 1379.0312 C 516.71922 1379.7407 519.29501 1380.5007 521.65625 1380.7188 C 524.01749 1380.9367 529.17475 1381.9794 533.125 1383.0625 C 537.07527 1384.1456 541.0467 1385.0469 541.9375 1385.0625 C 542.82825 1385.0805 544.71218 1385.7315 546.125 1386.5 C 550.22415 1388.7294 561.35556 1391.3243 570.40625 1392.1562 C 572.10461 1392.3123 574.05723 1392.6816 574.78125 1392.9688 C 575.50527 1393.2559 578.39573 1394.3489 581.1875 1395.4062 C 583.97928 1396.4637 587.12124 1397.8918 588.1875 1398.5625 C 589.25375 1399.2333 592.50682 1400.5423 595.40625 1401.5 C 598.30567 1402.4576 601.47959 1403.9086 602.4375 1404.7188 C 603.39541 1405.5287 605.73273 1407.1646 607.65625 1408.3438 C 611.65693 1410.7961 612.46818 1411.8777 613.90625 1416.8125 C 615.21009 1421.2867 615.11918 1425.9895 613.6875 1428.4375 C 611.70251 1431.8316 606.86126 1436.4321 603.875 1437.75 C 596.58694 1440.9665 587.58776 1443.4375 582.3125 1443.6875 C 563.63007 1444.5728 551.20343 1444.3654 548.75 1443.125 C 547.30468 1442.3942 545.11633 1441.5671 543.90625 1441.2812 C 541.73449 1440.7686 531.65607 1434.4953 527.15625 1430.8438 C 525.88237 1429.81 524.53396 1428.9435 524.15625 1428.9375 C 523.77854 1428.9275 522.67472 1428.175 521.6875 1427.25 C 517.40192 1423.2348 510.36044 1418.9798 507.9375 1418.9375 C 506.51731 1418.9125 504.3149 1418.1854 503.03125 1417.3125 C 500.92058 1415.8776 497.8607 1415.6926 471.0625 1415.2812 C 453.24158 1415.0079 437.3716 1415.2052 431.25 1415.7812 C 425.65154 1416.3077 418.86206 1416.7931 416.1875 1416.875 C 413.51293 1416.957 409.17317 1417.4601 406.53125 1418 C 403.88934 1418.5398 399.10089 1418.7327 395.90625 1418.4375 C 384.06238 1417.3429 367.98678 1414.9628 365.59375 1413.9375 C 364.23571 1413.3556 361.24238 1412.8527 358.9375 1412.8125 C 354.22283 1412.7305 352.70701 1411.7808 350.25 1407.4688 C 348.57483 1404.5289 348.58072 1404.4083 350.25 1400.8438 C 352.31964 1396.4242 355.29676 1393.9631 362.3125 1390.875 C 369.22546 1387.8321 373.82477 1386.8374 383.59375 1386.25 C 387.97256 1385.9867 392.55562 1385.262 393.78125 1384.6562 C 396.11015 1383.5053 404.58038 1381.7457 409.25 1381.4375 C 410.74606 1381.3385 414.15259 1380.4392 416.84375 1379.4062 C 419.85472 1378.2507 424.29416 1377.4242 428.375 1377.2812 C 432.0224 1377.1537 437.73128 1376.6433 441.0625 1376.1562 C 445.73989 1375.4724 448.72695 1375.5521 454.15625 1376.5312 C 460.68725 1377.7093 461.42149 1377.6978 464.40625 1376.1562 C 466.21235 1375.2235 467.29189 1374.7504 471.0625 1374.6875 z M 163.65625 1457.4375 C 161.04362 1457.5281 158.99665 1458.0344 158.09375 1458.9062 C 157.2811 1459.691 156.77208 1460.3811 156.59375 1461 C 156.20777 1460.7995 155.84171 1460.611 155.46875 1460.4062 C 150.1349 1457.4796 137.9454 1457.903 127.78125 1461.375 C 112.57267 1466.5702 106.72996 1471.5642 105.96875 1480.0312 C 105.35015 1486.912 106.78467 1491.0764 110.71875 1493.7188 C 114.67513 1496.3762 126.20555 1499.7495 131.59375 1499.8438 C 133.80671 1499.8827 136.39062 1500.3608 137.3125 1500.875 C 138.23438 1501.3893 141.8505 1502.2058 145.375 1502.6875 C 153.57008 1503.8075 160.06114 1503.3227 167.3125 1501.0938 C 173.83741 1499.0881 177.34758 1497.0124 183.3125 1491.625 C 190.00447 1485.581 190.64037 1484.2146 190.375 1476.5625 C 190.10788 1468.8606 189.71246 1468.218 181.3125 1462.125 C 177.00636 1459.0015 170.0719 1457.4834 164.8125 1457.4375 C 164.41805 1457.434 164.02948 1457.4246 163.65625 1457.4375 z M -26.78125 1464.4062 C -26.425288 1464.4162 -25.318811 1465.2086 -24.3125 1466.1875 C -22.398467 1468.0496 -20.883919 1468.007 -7.40625 1465.7188 C -2.1725727 1464.8301 35.703448 1469.8965 41.4375 1472.25 C 43.126485 1472.9432 47.641316 1473.9579 51.46875 1474.5 C 59.479618 1475.6346 64.442286 1478.6336 67.09375 1483.9688 C 69.474831 1488.7595 68.324994 1492.6263 63.0625 1497.4375 C 59.966786 1500.2677 57.455405 1503.9591 54.09375 1510.5625 C 49.893885 1518.8124 49.372989 1520.3902 49.15625 1526.0938 C 48.808159 1535.2534 51.330187 1541.6326 57.84375 1548.0625 C 65.494302 1555.6148 67.709532 1557.073 75.96875 1560.0625 C 83.177652 1562.6719 84.547358 1562.857 100.71875 1563.5 C 110.13828 1563.8746 118.20585 1564.3981 118.65625 1564.6875 C 119.10664 1564.9768 122.04804 1565.5862 125.1875 1566.0312 C 131.05348 1566.8629 145.77859 1570.2317 150.78125 1571.875 C 152.32923 1572.3835 159.66955 1573.2802 167.09375 1573.875 C 186.197 1575.4057 195.17306 1576.9071 212.71875 1581.5625 C 216.83092 1582.6535 221.21703 1583.7775 222.4375 1584.0312 C 223.65799 1584.2852 226.41068 1585.6681 228.5625 1587.125 C 230.71433 1588.5819 233.95675 1590.3221 235.78125 1591 C 240.32785 1592.6895 245.13365 1596.9829 246.59375 1600.6562 C 247.74443 1603.5512 247.67018 1603.871 245.375 1607.0625 C 243.60111 1609.5292 241.65332 1610.906 238.125 1612.1562 C 235.47381 1613.0958 232.66327 1613.8574 231.875 1613.8438 C 231.08671 1613.8298 225.81628 1615.0805 220.15625 1616.625 C 210.81661 1619.1736 203.94444 1620.162 192.625 1620.5625 C 186.12512 1620.7924 163.31399 1618.7859 161.625 1617.8438 C 160.766 1617.3646 153.98291 1616.2698 146.5625 1615.4062 C 134.30555 1613.9797 132.50654 1613.5564 126.9375 1610.6562 C 123.56597 1608.9007 118.83074 1607.1976 116.40625 1606.875 C 111.94053 1606.2807 100.02924 1602.1892 95.46875 1599.6875 C 93.544123 1598.6318 90.939799 1598.3996 84 1598.625 C 79.06159 1598.7854 71.826321 1598.9325 67.9375 1598.9688 C 64.048679 1599.0048 60.265272 1599.2769 59.53125 1599.5625 C 57.732747 1600.2622 36.731802 1601.2921 29.03125 1601.0625 C 23.883859 1600.909 21.921089 1600.3974 17.34375 1597.9375 C 14.319929 1596.3125 11.350012 1594.9479 10.75 1594.9375 C 10.149995 1594.9265 8.2356421 1594.126 6.5 1593.1562 C 4.786639 1592.1991 -13.359502 1591.7922 -27.46875 1591.8438 C -27.429968 1574.3395 -27.384922 1554.0321 -27.40625 1544.3438 C -27.533079 1486.735 -27.36288 1464.3961 -26.78125 1464.4062 z M 162.0625 1466.3438 C 162.55913 1466.7625 163.0339 1467.2091 163.46875 1467.625 C 164.98341 1469.0735 177.70122 1471.3546 179.5 1472.7188 C 181.30746 1474.0893 182.7663 1475.9716 182.75 1476.9062 C 182.6798 1480.9271 172.19428 1488.8106 163.34375 1491.5 C 158.23985 1493.0509 131.65817 1491.569 129.78125 1489.625 C 129.09063 1488.9099 127.64923 1488.1407 126.59375 1487.9062 C 114.43573 1485.2071 114.18874 1485.0001 115.875 1480.4062 C 116.78385 1477.9304 122.42282 1473.1842 124.40625 1473.2188 C 124.80335 1473.2287 127.75983 1472.089 131 1470.6875 C 135.88662 1468.5738 138.03373 1468.153 143.59375 1468.25 C 147.28043 1468.314 151.16748 1468.8459 152.21875 1469.4375 C 154.56077 1470.7554 159.9341 1470.6121 161.375 1469.1875 C 161.95782 1468.6113 162.16389 1467.4944 162.0625 1466.3438 z M 491.625 1505.4375 C 488.17861 1505.4895 483.9632 1506.307 480.3125 1507.75 C 476.17742 1509.3844 475.70349 1509.9185 472.375 1516.5625 C 467.46886 1526.3557 467.44239 1530.7838 472.21875 1541.375 C 474.15184 1545.6615 476.03747 1549.1815 476.40625 1549.1875 C 476.77497 1549.1975 477.93482 1550.5314 479 1552.1562 C 480.45111 1554.37 480.90985 1556.3706 480.84375 1560.1562 C 480.73394 1566.4469 479.94226 1566.8544 471.8125 1564.5938 C 467.76061 1563.467 464.3652 1563.049 461.5625 1563.375 C 459.25868 1563.6429 455.79081 1564.0179 453.84375 1564.1875 C 451.8967 1564.3571 448.08817 1564.9023 445.40625 1565.4062 C 442.72431 1565.9105 438.85426 1566.5225 436.78125 1566.75 C 434.17052 1567.0365 432.4653 1567.846 431.21875 1569.375 C 428.90139 1572.2175 428.91835 1573.5412 431.3125 1575.2812 C 433.70982 1577.024 434.35009 1577.0394 439.0625 1575.4688 C 441.13831 1574.7767 447.36908 1573.8233 452.90625 1573.3438 C 461.90577 1572.564 463.47054 1572.6621 467.84375 1574.125 C 474.10258 1576.2187 481.31855 1576.3379 485.15625 1574.4375 C 488.76177 1572.652 499.56785 1571.88 500.4375 1573.3438 C 500.76899 1573.9016 503.32605 1574.3876 506.1875 1574.4375 C 509.0204 1574.4865 514.63917 1575.2309 518.6875 1576.0938 C 529.23232 1578.3411 541.91893 1578.4036 544.96875 1576.2188 C 547.55536 1574.3656 548.54794 1570.4796 546.9375 1568.4688 C 546.13528 1567.4669 543.66821 1567.1615 536.0625 1567.125 C 529.60442 1567.094 524.18747 1566.5499 520.25 1565.5312 C 516.95405 1564.6788 512.39016 1563.9463 510.09375 1563.9062 C 507.79734 1563.8663 503.87628 1563.0552 501.375 1562.125 L 496.8125 1560.4375 L 498.46875 1557.4375 C 499.37602 1555.7882 501.26005 1551.6643 502.65625 1548.25 C 505.19457 1542.0428 505.20383 1542.0456 504.65625 1528.4062 C 504.1433 1515.6296 503.95299 1514.5125 501.71875 1511.0312 C 500.40687 1508.9871 498.14573 1506.808 496.71875 1506.1875 C 495.47496 1505.6467 493.69283 1505.4064 491.625 1505.4375 z M 488.09375 1515.9688 C 488.76784 1515.9807 489.41289 1516.2679 490.34375 1516.8125 C 493.33771 1518.5644 494.0388 1521.7552 494 1533.5625 C 493.9708 1542.4718 493.74206 1544.0151 492.15625 1546.0938 C 491.16144 1547.3977 490.07148 1548.491 489.75 1548.5 C 488.67207 1548.532 484.69875 1543.0267 484.71875 1541.5312 C 484.72975 1540.7182 483.97116 1538.8495 483.03125 1537.375 C 482.09135 1535.9005 481.33165 1533.9593 481.34375 1533.0625 C 481.35625 1532.1657 480.71539 1530.3084 479.9375 1528.9375 C 478.59504 1526.5715 478.65348 1525.8317 480.46875 1522.75 C 480.89382 1522.0284 481.65345 1520.6508 482.15625 1519.6875 C 482.65906 1518.7242 484.22813 1517.3733 485.625 1516.7188 C 486.71216 1516.2093 487.41966 1515.957 488.09375 1515.9688 z M 948.71875 1588.9688 C 958.74664 1589.1358 970.73326 1590.4052 974.3125 1591.6875 C 976.47303 1592.4616 982.21324 1593.6194 987.0625 1594.25 C 991.91175 1594.8806 997.83293 1595.9988 1000.25 1596.75 C 1002.6669 1597.5012 1008.2129 1598.8369 1012.5625 1599.6875 C 1018.1363 1600.7774 1029.7501 1601.0833 1036.6562 1600.5 C 1036.5614 1622.014 1036.5288 1641.0261 1036.625 1643.7812 C 1036.736 1646.9424 1036.7775 1651.1194 1036.7188 1653.0625 C 1036.6588 1655.0055 1036.5386 1659.1862 1036.4375 1662.3438 C 1036.3215 1665.9627 1036.2654 1686.0244 1036.2812 1708.5 C 1030.6174 1707.6387 1024.7223 1706.9554 1022.6562 1706.4062 C 1019.0861 1705.4573 1018.268 1705.5581 1014.375 1707.4688 C 1011.5538 1708.8534 1008.6069 1709.5794 1005.8438 1709.5312 C 1003.3056 1709.4872 1001.1892 1709.9272 1000.5625 1710.6562 C 999.98824 1711.3241 998.02913 1712.0995 996.21875 1712.375 C 988.41006 1713.5635 978.62725 1714.3644 976.96875 1713.9375 C 975.98104 1713.6833 969.42999 1713.2994 962.40625 1713.0938 C 955.38259 1712.8875 947.44638 1712.3336 944.78125 1711.875 C 927.24569 1708.8577 919.62587 1707.8197 912.625 1707.4688 C 908.25455 1707.2495 902.89554 1706.5868 900.71875 1706 C 898.54187 1705.4131 891.61201 1704.0438 885.3125 1702.9688 C 879.01291 1701.8935 871.27114 1700.4019 868.125 1699.6562 C 852.16937 1695.8785 851.05569 1695.7856 824.46875 1695.4062 C 781.28574 1694.7911 759.75257 1695.1189 752.875 1696.5 C 749.46087 1697.1856 743.45971 1698.1712 739.5625 1698.6875 C 735.6653 1699.2037 730.28301 1700.3887 727.59375 1701.3125 C 722.89933 1702.9251 718.46209 1703.8391 704.96875 1706 C 698.50902 1707.0345 694.67457 1706.6372 681.15625 1703.5312 C 674.59879 1702.0247 664.94117 1696.6953 663.9375 1694.0312 C 661.88248 1688.5765 664.4915 1685.7606 675.71875 1681.2812 C 680.20842 1679.4901 684.77033 1676.9735 686.21875 1675.5 C 689.0643 1672.6052 695.16318 1669.2925 702.5625 1666.6562 C 706.88442 1665.1164 715.65926 1660.0564 722.21875 1655.2812 C 725.36263 1652.9926 734.3773 1648.6585 739.125 1647.1875 C 746.66202 1644.8523 752.03726 1643.0006 753.375 1642.25 C 755.94231 1640.8096 758.31359 1639.969 765.8125 1637.7812 C 769.96486 1636.57 774.65548 1634.9985 776.21875 1634.3125 C 777.78211 1633.6265 780.77408 1632.7523 782.875 1632.3438 C 784.97602 1631.9351 788.29679 1631.1472 790.25 1630.625 C 795.63794 1629.1846 807.43079 1626.6057 812.40625 1625.7812 C 814.84341 1625.3774 821.07308 1624.3618 826.21875 1623.5312 C 831.36434 1622.7007 836.10315 1621.7154 836.78125 1621.3125 C 837.45934 1620.9095 839.45515 1620.5123 841.1875 1620.4375 C 842.91993 1620.3625 845.72771 1619.8741 847.4375 1619.375 C 849.1473 1618.876 854.74978 1617.4462 859.875 1616.1875 C 865.00022 1614.9287 870.17724 1613.2369 871.40625 1612.4375 C 872.6353 1611.638 878.0395 1610.0491 883.40625 1608.875 C 888.77299 1607.701 895.17573 1605.8188 897.625 1604.7188 C 907.15298 1600.439 917.01072 1597.2509 927.40625 1595.0312 C 930.08941 1594.4585 935.07343 1592.8321 938.5 1591.4375 C 942.32743 1589.8797 946.27645 1588.926 948.71875 1588.9688 z M 294.09375 1762.9688 C 290.91963 1762.9848 287.58912 1763.0468 284.3125 1763.1875 C 270.74029 1763.7684 263.91841 1764.6236 249.25 1767.4688 C 246.08012 1768.0836 242.49985 1768.7342 241.28125 1768.9375 C 240.06263 1769.1408 236.4602 1770.2413 233.28125 1771.375 C 230.10232 1772.5086 224.69317 1773.8792 221.28125 1774.4375 C 217.86935 1774.9958 213.09672 1775.9385 210.65625 1776.5312 C 208.21578 1777.1243 204.21626 1777.8449 201.78125 1778.125 C 199.34624 1778.4052 195.90683 1778.9901 194.125 1779.4062 C 192.34316 1779.8227 183.44767 1780.6055 174.375 1781.1562 C 165.30234 1781.707 157.59447 1782.3284 157.25 1782.5312 C 156.90554 1782.7341 151.98025 1783.0912 146.28125 1783.3125 C 140.58226 1783.5338 134.79808 1784.0104 133.4375 1784.375 C 132.07691 1784.7397 126.86894 1784.7649 121.875 1784.4375 C 105.5914 1783.3683 69.497844 1788.1158 57.9375 1792.8438 C 54.755628 1794.145 50.950135 1795.4342 49.46875 1795.7188 C 46.485542 1796.2919 38.785765 1800.9887 33.21875 1805.6562 C 28.59095 1809.5365 26.443069 1813.7231 23.75 1823.9375 C 20.891711 1834.7785 21.613892 1841.5401 26.78125 1852.6562 C 28.746204 1856.8834 30.701019 1860.5713 31.125 1860.8438 C 31.548971 1861.1162 33.554116 1864.0369 35.59375 1867.3438 C 40.388727 1875.1175 40.905397 1876.0757 43.5 1881.4688 C 45.810647 1886.2715 49.489932 1889.8006 56.59375 1894 C 58.999052 1895.4219 61.761404 1897.2514 62.71875 1898.0938 C 65.971729 1900.9554 72.358722 1904.3468 77.1875 1905.7812 C 80.217147 1906.6811 84.131758 1907.124 87.75 1906.9375 C 104.04895 1906.0973 106.88701 1905.7372 110.5625 1904.1875 C 112.75596 1903.2626 115.0135 1902.5214 115.5625 1902.5312 C 116.58752 1902.5493 132.01165 1895.6544 139.40625 1891.875 C 141.68532 1890.7101 144.08556 1889.7697 144.75 1889.7812 C 145.96837 1889.8022 154.71674 1886.0919 160.8125 1882.9688 C 162.62608 1882.0395 164.52795 1881.3035 165.0625 1881.3125 C 165.59706 1881.3225 167.72222 1880.5302 169.78125 1879.5625 C 173.56424 1877.7846 177.50357 1876.4832 186.40625 1874.0312 C 189.09229 1873.2916 193.30575 1872.0279 195.75 1871.2188 C 200.7432 1869.5653 209.93376 1866.8926 215.28125 1865.5625 C 219.33708 1864.5537 239.03402 1859.015 242.375 1857.9375 C 243.59694 1857.5434 245.78689 1856.9761 247.25 1856.6875 C 248.71311 1856.399 252.35789 1855.0568 255.34375 1853.7188 C 258.3296 1852.3805 262.31557 1851.0298 264.21875 1850.7188 C 266.12193 1850.4077 269.68078 1849.4956 272.125 1848.6875 C 284.78963 1844.5008 312.83768 1844.1765 336.21875 1847.9375 C 344.2157 1849.2239 353.73425 1850.4961 357.375 1850.75 C 361.01576 1851.0039 365.17649 1851.6393 366.625 1852.1875 C 368.07351 1852.7356 372.82163 1853.5844 377.1875 1854.0625 C 381.55337 1854.5406 389.48918 1855.998 394.8125 1857.3125 C 407.21898 1860.3763 414.43804 1861.8128 418 1861.875 C 420.49569 1861.919 428.53871 1863.9362 437.3125 1866.75 C 438.89047 1867.256 442.26407 1867.4805 444.8125 1867.25 C 447.36093 1867.0194 454.59628 1867.2399 460.90625 1867.7188 C 478.99994 1869.0898 486.64419 1868.2614 496.75 1863.9062 C 509.15203 1858.5617 511.50894 1856.9899 520.59375 1848.0312 C 530.77454 1837.9918 533.52614 1833.1795 533.65625 1825.0625 C 533.73235 1820.3094 533.30171 1818.4438 531.28125 1814.7812 C 529.92765 1812.3275 527.32021 1809.0219 525.46875 1807.4062 C 511.87451 1795.5442 510.34294 1794.5566 505.3125 1794.4688 C 503.46313 1794.4368 500.56333 1793.9541 498.875 1793.4062 C 495.35027 1792.2628 472.14746 1791.7468 457.8125 1792.5 C 445.81062 1793.1306 426.62468 1792.5379 420.21875 1791.3438 C 411.73608 1789.7625 396.99418 1786.2331 395.5 1785.4062 C 394.70142 1784.9644 388.95514 1782.9019 382.75 1780.8438 C 376.54487 1778.7856 370.69025 1776.632 369.75 1776.0625 C 368.80974 1775.4929 365.75689 1774.4598 362.9375 1773.75 C 360.11809 1773.0402 356.19636 1771.5841 354.21875 1770.5312 C 350.62926 1768.6204 346.92749 1768.0366 324.09375 1765.6875 C 318.34868 1765.0964 313.37671 1764.4407 313.03125 1764.2188 C 311.77421 1763.4111 303.61611 1762.9191 294.09375 1762.9688 z M 290.40625 1772.875 C 301.43463 1772.92 313.73426 1773.6173 323.34375 1774.8125 C 330.86079 1775.7475 339.20638 1776.7106 341.875 1776.9688 C 344.54363 1777.2269 349.49809 1778.6154 352.875 1780.0625 C 356.2519 1781.5096 362.16413 1783.6991 366.03125 1784.9062 C 369.89837 1786.1135 374.43747 1787.7235 376.125 1788.5 C 377.81254 1789.2764 380.58695 1790.2365 382.28125 1790.625 C 383.97555 1791.0134 387.76083 1792.3949 390.6875 1793.6875 C 393.61418 1794.9802 399.15959 1796.721 403 1797.5625 C 406.8404 1798.4041 412.73614 1799.7065 416.125 1800.4688 C 425.2838 1802.5284 438.08208 1803.1825 451.25 1802.25 C 468.51003 1801.0276 482.82691 1801.227 494.75 1802.8438 C 500.56852 1803.6326 506.00154 1804.4845 506.84375 1804.75 C 509.5094 1805.5902 516.96533 1812.1886 520.5625 1816.9062 C 523.53554 1820.8055 524.002 1822.0554 523.9375 1825.75 C 523.856 1830.4178 523.05276 1831.538 511.21875 1843.25 C 506.04479 1848.3706 496.14876 1853.8117 487.28125 1856.4062 C 483.05452 1857.643 467.43044 1858.728 457.53125 1858.4688 C 444.42667 1858.1256 436.76271 1857.4109 433.71875 1856.25 C 430.22494 1854.9176 422.25062 1853.4427 413 1852.4062 C 410.33209 1852.1073 407.12855 1851.4398 405.875 1850.9375 C 403.82442 1850.1159 397.20777 1848.7742 383.0625 1846.2812 C 380.39756 1845.8117 375.45354 1844.8873 372.0625 1844.25 C 368.67146 1843.6126 364.31508 1842.9169 362.375 1842.6875 C 360.43491 1842.4581 354.68574 1841.7393 349.59375 1841.0938 C 344.50177 1840.448 339.3379 1839.8108 338.125 1839.6875 C 336.91209 1839.5641 333.92229 1839.1049 331.5 1838.6562 C 329.07771 1838.2077 326.71578 1837.9412 326.25 1838.0625 C 325.78423 1838.1839 323.02132 1837.7522 320.09375 1837.125 C 313.41302 1835.6937 281.6813 1836.6376 274.96875 1838.4688 C 272.527 1839.1347 269.11526 1840.0766 267.40625 1840.5312 C 263.2835 1841.6281 258.4439 1843.2125 256.53125 1844.125 C 255.68022 1844.5311 254.33077 1844.8577 253.53125 1844.8438 C 252.73172 1844.8298 250.72985 1845.6343 249.0625 1846.625 C 247.39515 1847.6158 243.15587 1848.9641 239.65625 1849.625 C 236.15661 1850.2858 231.77889 1851.5694 229.9375 1852.4688 C 228.09611 1853.368 225.40467 1854.0881 223.9375 1854.0625 C 222.47036 1854.0365 219.75012 1854.532 217.90625 1855.1875 C 216.06238 1855.8429 213.3691 1856.6323 211.90625 1856.9062 C 208.34476 1857.5737 190.12771 1862.9502 183.46875 1865.3125 C 180.53444 1866.3535 176.35295 1867.6687 174.15625 1868.2188 C 171.95954 1868.7686 165.15081 1871.2769 159.03125 1873.8125 C 152.91169 1876.3482 146.1088 1879.1465 143.90625 1880.0312 C 133.83868 1884.0757 124.07133 1888.1989 116.34375 1891.6875 C 111.72248 1893.7738 105.93884 1895.8465 103.46875 1896.2812 C 100.99867 1896.716 94.59819 1897.1707 89.25 1897.2812 C 80.195983 1897.4685 79.142936 1897.2912 73.8125 1894.9375 C 70.663816 1893.5498 66.329506 1890.9524 64.1875 1889.1562 C 62.045485 1887.3601 58.703561 1884.8731 56.78125 1883.625 C 51.756801 1880.3628 48.759811 1876.9464 47.625 1873.2188 C 45.82286 1867.299 42.741687 1861.8059 39.65625 1859 C 37.982052 1857.4774 35.838589 1854.4357 34.875 1852.2188 C 33.911409 1850.0017 32.731902 1847.9346 32.25 1847.625 C 31.768099 1847.3154 31.3694 1845.9953 31.375 1844.6875 C 31.3806 1843.3797 30.839695 1841.2889 30.1875 1840.0625 C 28.819308 1837.4896 29.47442 1830.4243 31.40625 1826.875 C 32.074525 1825.6472 32.63146 1823.612 32.65625 1822.3438 C 32.7061 1819.828 36.274729 1814.1408 39.34375 1811.6875 C 42.789331 1808.933 51.780973 1804.9288 58.15625 1803.2812 C 61.579328 1802.3968 64.854103 1801.2735 65.46875 1800.7812 C 66.083397 1800.2891 67.906018 1799.7798 69.5 1799.6562 C 71.093983 1799.5328 76.377646 1798.8502 81.25 1798.1562 C 86.122356 1797.4623 91.31976 1796.7584 92.78125 1796.5625 C 94.24274 1796.3667 100.80674 1795.8658 107.375 1795.4688 C 113.94325 1795.0717 122.0906 1794.4148 125.5 1794 C 128.90941 1793.5852 137.67287 1792.9724 144.96875 1792.6562 C 152.26463 1792.3403 159.41005 1791.65 160.84375 1791.125 C 162.27745 1790.6 165.47521 1790.2342 167.9375 1790.3125 C 180.66356 1790.719 201.1598 1788.7316 207.21875 1786.5 C 208.3424 1786.0862 210.1173 1785.785 211.1875 1785.8125 C 214.18138 1785.8825 225.61471 1783.3918 234 1780.8438 C 238.15323 1779.5817 243.32612 1778.2819 245.5 1777.9688 C 247.67387 1777.6556 250.05833 1777.0878 250.8125 1776.7188 C 252.57181 1775.8573 261.81262 1774.5085 272.78125 1773.5 C 277.62545 1773.0546 283.78922 1772.8479 290.40625 1772.875 z M 705.0625 1776.7812 C 704.03106 1776.7912 702.79106 1777.0218 700.90625 1777.4062 C 698.06793 1777.9854 693.16493 1778.7314 690 1779.0625 C 680.31089 1780.0758 660.29238 1785.8983 659.46875 1787.9375 C 659.08141 1788.8965 656.7386 1788.9786 647.5 1788.375 C 640.34262 1787.9073 635.59311 1787.963 634.875 1788.5 C 634.24147 1788.9738 631.81881 1789.8222 629.5 1790.4062 C 627.18119 1790.9905 625.258 1791.8476 625.25 1792.2812 C 625.242 1792.7149 621.92915 1795.1409 617.875 1797.6875 C 607.00685 1804.5145 604.15712 1807.9849 603.15625 1815.625 C 602.57525 1820.0601 602.75102 1820.8051 605.3125 1824.7812 C 609.05557 1830.5917 614.57798 1834.022 622.3125 1835.375 C 625.70733 1835.9689 630.05254 1837.0741 632 1837.8125 C 633.94746 1838.5509 636.52046 1839.1577 637.71875 1839.1875 C 638.91706 1839.2155 640.49852 1839.6517 641.21875 1840.1562 C 643.64645 1841.8576 678.38272 1840.376 683.71875 1838.3438 C 687.39514 1836.9435 700.99193 1835.5927 704.6875 1836.25 C 708.90264 1836.9998 723.99703 1834.2577 726.1875 1832.3438 C 727.00679 1831.6279 728.36266 1831.0481 729.1875 1831.0625 C 730.01225 1831.0765 732.44425 1829.3558 734.625 1827.25 C 739.32463 1822.7116 741.01639 1818.0014 740.40625 1810.9062 C 739.65809 1802.2058 737.3422 1798.3425 729.28125 1792.1875 C 727.00126 1790.4466 723.04217 1787.3652 720.46875 1785.3438 C 717.8954 1783.322 713.60763 1780.4893 710.9375 1779.0312 C 707.98219 1777.4177 706.78157 1776.7701 705.0625 1776.7812 z M 704.25 1787.5312 C 707.21225 1787.3748 710.95452 1789.1708 715.09375 1792.7188 C 716.60529 1794.0142 720.62313 1797.2982 724.03125 1800 C 730.81105 1805.3747 732.63489 1808.919 731.4375 1814.4375 C 729.68503 1822.5145 722.29318 1825.4384 701.5625 1826.1562 C 692.62234 1826.466 686.74484 1827.0572 684.6875 1827.9062 C 682.95285 1828.6221 677.56501 1829.5626 672.71875 1829.9688 C 652.4645 1831.6662 645.19698 1831.3873 638.53125 1828.6875 C 636.36508 1827.8101 628.71735 1826.1811 621.78125 1825.125 C 618.77067 1824.6666 612.40345 1819.5446 612.46875 1817.625 C 612.58077 1814.3339 615.83348 1809.4709 619.25 1807.5 C 630.26652 1801.145 635.27874 1799.8672 643.59375 1801.3438 C 646.22709 1801.8113 648.8192 1801.895 649.34375 1801.5 C 649.8683 1801.105 652.31096 1800.5773 654.78125 1800.3438 C 657.62693 1800.0745 660.98083 1798.9048 663.90625 1797.1562 C 667.05093 1795.2767 669.98949 1794.294 673.15625 1794.0625 C 675.71362 1793.8756 678.41722 1793.2601 679.15625 1792.6875 C 680.99792 1791.2605 686.67017 1789.832 694.40625 1788.8438 C 697.97339 1788.388 702.13704 1787.815 703.65625 1787.5938 C 703.84662 1787.5657 704.05252 1787.5423 704.25 1787.5312 z "
       transform="translate(0,-995.63782)"
       id="path3054" />
    <rect
       style="color:#000000;fill:#3d3442;fill-opacity:1;fill-rule:nonzero;stroke:none;stroke-width:10;marker:none;visibility:visible;display:inline;overflow:visible;enable-background:accumulate"
       id="rect4140"
       width="451.08908"
       height="607.98962"
       x="-1436.6206"
       y="125.96832"
       transform="translate(0,-995.63782)" />
  </g>
</svg>
