<?xml version="1.0" encoding="UTF-8" standalone="no"?>
<!-- Created with Inkscape (http://www.inkscape.org/) -->

<svg
   xmlns:dc="http://purl.org/dc/elements/1.1/"
   xmlns:cc="http://creativecommons.org/ns#"
   xmlns:rdf="http://www.w3.org/1999/02/22-rdf-syntax-ns#"
   xmlns:svg="http://www.w3.org/2000/svg"
   xmlns="http://www.w3.org/2000/svg"
   xmlns:xlink="http://www.w3.org/1999/xlink"
   xmlns:sodipodi="http://sodipodi.sourceforge.net/DTD/sodipodi-0.dtd"
   xmlns:inkscape="http://www.inkscape.org/namespaces/inkscape"
   width="1024"
   height="500"
   id="svg2"
   version="1.1"
   inkscape:version="0.48.3.1 r9886"
   sodipodi:docname="PromoGraphic.svg"
   inkscape:export-filename="/home/nathan/documents/bee_puzzled/svgs/title.png"
   inkscape:export-xdpi="90"
   inkscape:export-ydpi="90">
  <defs
     id="defs4">
    <linearGradient
       id="linearGradient4060">
      <stop
         id="stop4070"
         offset="0"
         style="stop-color:#ffffff;stop-opacity:1;" />
      <stop
         style="stop-color:#ffffff;stop-opacity:1;"
         offset="0.69"
         id="stop4076" />
      <stop
         id="stop4080"
         offset="0.82999998"
         style="stop-color:#ffffff;stop-opacity:0.84210527;" />
      <stop
         style="stop-color:#ffffff;stop-opacity:0;"
         offset="1"
         id="stop4072" />
    </linearGradient>
    <radialGradient
       inkscape:collect="always"
       xlink:href="#linearGradient4060"
       id="radialGradient3337"
       gradientUnits="userSpaceOnUse"
       gradientTransform="matrix(1,0,0,0.68253968,0,334.08324)"
       cx="1024"
       cy="28.3622"
       fx="1024"
       fy="28.3622"
       r="1024" />
  </defs>
  <sodipodi:namedview
     id="base"
     pagecolor="#ffffff"
     bordercolor="#666666"
     borderopacity="1.0"
     inkscape:pageopacity="0"
     inkscape:pageshadow="2"
     inkscape:zoom="0.55371094"
     inkscape:cx="622.5873"
     inkscape:cy="45.543575"
     inkscape:document-units="px"
     inkscape:current-layer="layer1"
     showgrid="false"
     inkscape:window-width="1364"
     inkscape:window-height="752"
     inkscape:window-x="0"
     inkscape:window-y="14"
     inkscape:window-maximized="0" />
  <metadata
     id="metadata7">
    <rdf:RDF>
      <cc:Work
         rdf:about="">
        <dc:format>image/svg+xml</dc:format>
        <dc:type
           rdf:resource="http://purl.org/dc/dcmitype/StillImage" />
        <dc:title></dc:title>
      </cc:Work>
    </rdf:RDF>
  </metadata>
  <g
     inkscape:label="Layer 1"
     inkscape:groupmode="layer"
     id="layer1"
     transform="translate(0,-552.36218)">
    <g
       id="g3319"
       inkscape:export-filename="/home/jain/Documents/BeesDance/Finals/FeatureGraphic.png"
       inkscape:export-xdpi="32.192493"
       inkscape:export-ydpi="32.192493"
       transform="matrix(0.47028424,0,0,0.47028424,30.895945,665.03663)">
      <path
         inkscape:connector-curvature="0"
         id="rect4057"
         d="m 2048,-345.47907 0,1397.84127 -2048,0 0,-1397.84127 z"
         style="color:#000000;fill:url(#radialGradient3337);fill-opacity:1;stroke:none;stroke-width:6.69999981;marker:none;visibility:visible;display:inline;overflow:visible;enable-background:accumulate" />
      <g
         transform="translate(0.08988088,265.32147)"
         id="g4015">
        <path
           id="path3120"
           style="fill:#000000;stroke:none"
           d="m 774.46875,17.75 c -8.04014,2.219344 -17.28749,-1.926181 -24.53125,3.25 -9.54057,3.739931 -20.10999,6.107108 -27.75,13.40625 -9.88823,5.685918 -20.56111,12.546138 -23.5,24.34375 -6.83913,16.236917 -4.14944,34.586944 -3.125,51.6875 1.82618,13.7826 11.85192,24.05763 20.0625,34.4375 4.92307,5.69126 12.61748,6.51847 18.875,10 13.27619,4.39736 27.65212,3.28724 41.40625,4.71875 13.64101,0.62939 27.82482,0.9927 40.375,-5.15625 10.71398,-3.26549 15.84581,-13.65519 21.78125,-22.125 2.36795,-3.78238 7.74365,-5.25449 8.40625,-10.3125 2.11023,-5.39672 -3.50658,-11.32632 -9,-8.875 -11.48146,2.50577 -19.12472,12.95986 -30.46875,15.75 -11.73028,5.01981 -24.75026,7.08128 -37.5,7.9375 -11.15126,-0.1267 -23.51881,-2.41943 -31.8125,-10.21875 -3.6465,-8.57025 -15.94094,-8.31417 -19.35988,-16.76628 -1.61175,-7.68104 -1.80853,-17.29033 5.01613,-22.51497 4.81682,-7.091432 13.4928,-7.631486 21.28125,-7.84375 14.71455,-0.429678 29.26282,-2.896336 43.875,-3.53125 7.77235,0.440932 15.56055,-1.146996 22.25,-4.9375 6.80094,-1.264205 17.11607,-1.421331 18.78125,-10 1.85501,-11.839424 -9.09087,-19.938582 -17.8125,-25.59375 -6.31026,-4.514156 -11.29295,-11.047231 -19.0625,-13.3125 -5.83236,-1.997683 -11.98592,-4.147925 -18.1875,-4.34375 z M 761.375,41.03125 c 14.67081,0.03884 29.8037,3.145305 42,11.6875 -8.43488,2.322437 -16.23491,6.489303 -25.20804,6.989711 -15.66692,1.859898 -31.77778,1.875638 -47.32321,4.322789 -2.57031,-0.819654 -7.97518,1.314148 -8.78125,-1.875 0.1196,-3.977294 2.10703,-7.22475 6.19352,-8.03459 8.93948,-2.893011 16.56441,-8.974154 25.30648,-11.99666 2.52724,-0.792395 5.1612,-1.137948 7.8125,-1.09375 z M 299.46875,-118.875 c -9.46482,0.003 -19.21024,-0.19348 -27.86218,3.88631 -10.37837,3.03043 -21.06936,4.12867 -31.59934,6.20091 -7.9035,2.166 -15.89164,3.89214 -23.28848,7.53778 -5.63184,2.204533 -12.62394,1.905278 -16.28125,7.53125 -9.63881,6.968792 -21.09093,13.251699 -26.15625,24.625 -3.6941,5.358075 -7.19545,14.759989 -0.5,19.28125 5.59408,3.479941 13.13827,-1.51523 12.78125,-7.90625 5.15441,-15.703016 21.6845,-22.845952 35.95009,-28.09322 7.75924,-2.350904 16.33531,-5.408011 24.23741,-5.09428 -3.99448,10.892152 -0.18764,22.698944 -0.24594,33.943177 2.33305,31.777798 6.8387,63.3870466 8.71469,95.181823 -1.82084,12.099282 -3.41204,24.277254 -3.79739,36.618097 -0.55547,20.714816 -3.78127,41.003583 -7.94779,61.204613 -0.74766,6.84069 -4.54427,15.58785 1.93268,20.70854 4.60022,4.473 10.3369,7.66958 16.79308,7.78987 3.93104,1.24314 10.60191,2.72947 11.89442,-2.82112 0.0707,-5.17618 5.92529,-0.89801 8.96875,-1.5 20.29571,1.58423 40.8699,-0.17543 60.875,-3.53125 16.36088,-3.71896 33.24985,-9.51229 45.46875,-21.375 5.46883,-8.76658 15.90915,-12.81986 20.46875,-22.28125 2.50053,-5.85365 3.6709,-12.19774 6.125,-18.125 2.39083,-8.540205 -2.69202,-16.689545 -3.625,-25.125 C 409.72984,57.299479 403.79406,45.034944 392.91729,37.826246 385.51587,30.644448 379.54588,22.047295 370.6875,16.375 c -5.10528,-4.832465 -11.7824,-6.7510162 -18.5,-7.6875 -4.17718,-0.9710872 -0.7824,-6.1150616 -4,-8.25 -3.95291,-2.4541366 1.23385,-5.2471732 1.90625,-8.03125 6.37292,-13.248992 7.77812,-28.144569 11.76415,-42.166957 3.7999,-15.712849 1.88502,-33.46663 -8.38357,-46.266779 -8.34554,-11.393354 -23.02366,-14.623954 -33.94308,-22.878764 -6.47695,-0.67296 -13.4337,0.14374 -20.0625,0.0313 z m 6.59375,19.125 c 7.63118,-0.36608 14.54615,3.334617 20.78125,7.28125 6.39859,2.806077 11.09168,9.021051 14.1875,14.875 0.49582,6.427839 0.42956,13.081116 1.38679,19.3221 -2.76706,11.275194 -5.10045,23.058778 -9.88679,33.64665 -5.38057,8.283414 -15.14227,12.094291 -23.25,16.9375 -5.38339,3.3369447 -11.85663,-0.4433596 -17.28125,3.03125 -3.19937,1.4479886 -8.6022,0.6930426 -8,-3.96875 -6.29317,-28.936343 -11.32723,-58.665789 -16.53125,-87.59375 4.58564,-1.702433 10.1615,0.246351 14.6875,-2.125 7.8012,-1.73061 15.92915,-1.158439 23.90625,-1.40625 z m 15.34375,123.34375 c 8.01763,1.910022 16.66487,1.118123 24.40625,3.5 9.62162,7.965787 22.47567,11.591234 31.21875,20.53125 6.68145,7.194367 10.59578,16.406209 16.0625,24.4375 6.27462,7.452385 5.0416,18.80857 1.59375,27.34375 -3.29265,8.54447 -10.47157,14.41614 -18,19.0625 -4.97025,4.87715 -10.46223,9.25644 -17.35242,11.15364 -4.78419,2.17093 -10.335,5.62024 -15.46008,2.37761 -11.14793,-1.96359 -22.65022,0.78109 -33.90345,-0.98104 -7.78212,-0.74033 -15.79978,-1.46286 -23.28405,-2.86271 -8.24416,-19.22401 -1.40351,-40.48112 -1.62909,-60.583917 0.62182,-12.27885 1.18579,-24.563124 2.12909,-36.822333 11.844,0.03928 22.83683,-5.854082 34.21875,-7.15625 z m 232.53125,2.8125 c -12.36176,1.774814 -25.96056,-1.42732 -37,5.875 -14.2571,4.543094 -27.93313,13.661173 -33.34375,28.1875 -7.25288,16.320086 -7.7894,35.23498 -2.0625,52.15625 3.2019,12.42632 9.87531,23.66837 19.00503,32.72139 6.4134,7.25721 14.90984,12.55462 24.58872,14.30986 13.26563,3.07419 26.82228,5.86218 40.40625,6.75 5.75422,-0.31184 12.06946,-1.53684 17.09375,1.875 8.17461,1.41992 14.20246,-6.42296 22.0625,-7.3125 9.37781,-1.91464 11.22314,-12.6141 13.34375,-20.28125 2.16613,-3.62942 6.08567,-7.5355 3.59375,-12.125 -2.33317,-5.91944 -11.6529,-9.05406 -15.71875,-3.15625 -9.87327,8.73449 -21.10485,17.90075 -34.9375,17.8125 -16.49198,1.69701 -33.28255,-0.77444 -48.71875,-6.25 -16.10069,-7.86087 -24.67284,-28.1806 -20.25,-45.25 4.31318,-6.831882 14.39305,-5.969266 21.5,-7.03125 27.60709,-4.821524 56.16496,-3.707266 83.84375,-8.28125 6.23751,-2.040669 8.56757,-9.578707 5.90625,-15.25 -3.18305,-12.749317 -13.26813,-22.612376 -25.1875,-27.4375 -9.85911,-6.811025 -22.50541,-7.190507 -34.125,-7.3125 z m -17.25,21.0625 c 17.33996,0.482969 36.06404,0.03162 51.25,9.4375 -0.15288,1.65928 -6.13911,1.527748 -8.4375,2 -14.248,-0.231411 -27.73645,4.401069 -41.90337,4.919618 -7.60466,0.378189 -16.23675,1.497339 -23.28413,0.517882 0.002,-3.635768 -1.78617,-7.565383 2.21875,-9.75 5.63939,-4.13354 13.24211,-6.697967 20.15625,-7.125 z"
           inkscape:connector-curvature="0"
           sodipodi:nodetypes="cccccccccccccccccccccccccccccccccccccccccccccccccccccccccccccccccccccccccccccccccccccccccccccccccccccccccccccccccccc" />
        <path
           id="path3096"
           style="fill:#000000"
           d="m 1421.1815,2.40571 c -4.6273,-5.29772 -5.1333,-12.92925 -1.292,-19.484 2.9179,-4.97909 4.7786,-5.74708 11.2823,-4.65672 6.1459,1.03035 8.5014,4.10868 8.4021,10.97999 -0.1291,8.92455 -3.7762,13.20688 -12.1524,14.2689 -3.898,0.49425 -5.0135,0.29616 -6.24,-1.10817 z m 375.631,14.56304 c -7.6196,-0.748338 -13.0076,5.985126 -19.9333,8.216641 C 1758.1349,34.418123 1746.192,54.371969 1743,74.625 c -1.0677,15.937155 -2.76,32.31117 0.4062,48.125 7.0241,7.28843 15.4578,13.30182 23.0626,19.875 7.2586,3.75729 16.2539,2.3753 23.3537,6.64271 22.5579,4.66751 46.5512,1.11571 67.1611,-8.75528 6.6724,-4.34677 15.2307,-8.20934 18.2664,-16.10618 3.1124,-8.26745 -6.1267,-17.09665 -14.1562,-13.375 -9.6077,7.15962 -19.7284,14.95806 -32.075,16.44302 -18.1086,3.04121 -38.2414,2.20101 -54.3938,-7.13052 -5.3469,-3.41379 -8.2643,-9.31895 -8.6562,-15.46875 -0.5021,-3.67592 -3.9787,-9.432206 -0.4376,-12.25 8.9176,-3.217197 18.8303,-3.38585 28.1563,-3.71875 9.4195,3.555639 19.703,2.462474 29.5313,1.15625 7.3598,-0.592315 12.459,-7.077845 20.0312,-6.4375 8.4562,-0.354909 17.4193,-0.648754 24.7812,-5.15625 6.3129,-0.439089 11.69,-6.920708 8.9376,-13.1875 -2.6297,-8.161979 -10.4202,-13.223214 -13.9376,-20.9375 -5.334,-5.999856 -13.9119,-7.828625 -19.4304,-13.811431 C 1835.2995,24.946108 1826.377,19.075478 1816.5,17.25 c -6.5642,-0.01447 -13.1226,-0.441681 -19.6875,-0.28125 z m 6.0937,17.90625 c 14.1909,1.463616 30.2571,6.755034 36.7813,20.6875 0.5142,2.577439 6.7384,8.49507 1.2813,8.25 -15.7766,3.003587 -31.9301,2.282184 -47.875,1.21875 -6.9894,-0.106549 -14.0017,0.276276 -20.9688,-0.4375 -0.6774,-7.00909 1.9426,-13.90632 7.3438,-18.40625 5.7077,-5.420671 13.8317,-6.976722 20.5,-10.875 0.9543,-0.271398 1.9476,-0.400011 2.9374,-0.4375 z m -182.1874,-18.5 c -14.4668,4.045103 -28.9092,9.589012 -41.5287,17.601864 -2.6152,2.373185 -5.2095,5.742175 -7.2526,7.960636 -0.3257,-5.802053 3.3911,-13.447421 -2.8125,-17.0625 -6.8493,-5.654277 -16.4417,-4.069963 -23.7664,-0.56859 -7.0815,2.36879 -17.1208,6.649892 -16.5461,15.50609 0.4449,5.758759 3.6491,14.926146 11.0937,13.15625 3.7069,-0.802174 6.1648,-4.88155 9.6876,-5.46875 6.9957,12.797079 2.4386,28.366183 1.7046,42.267645 -1.667,13.665525 -2.561,27.868395 0.077,41.357355 2.0121,6.48994 5.7894,14.60773 13,16.1875 5.8063,-0.54208 6.3283,-7.64997 10.0312,-11 7.005,-12.78201 1.0633,-27.96488 0.2582,-41.493151 -2.2505,-13.993254 -0.071,-29.390659 10.1481,-39.788099 8.4118,-7.34301 18.0006,-14.296753 28.8125,-17.34375 3.4762,-1.07041 7.4098,-1.503545 8.5652,2.814239 4.3857,5.994503 7.3534,12.81159 6.4348,20.373261 -0.8496,12.659945 -1.9113,25.541168 1.4954,37.889097 2.1108,11.544443 2.9744,23.569033 6.4917,34.716103 3.5419,6.32067 10.037,15.17009 18.2629,12.0823 9.8566,-4.7148 7.8131,-17.20561 10.2188,-26 2.1248,-13.63761 3.3682,-27.699982 2.2982,-41.459007 -2.6928,-17.194141 -6.9762,-34.81544 -16.642,-49.353493 -2.954,-4.743484 -7.8229,-7.135092 -13.134,-8.166424 -5.5317,-1.746873 -11.0554,-4.254379 -16.8972,-4.208576 z m -172.4376,8.28125 c -3.0591,-0.307725 -4.5884,3.833038 -6.2187,4.375 -8.1691,-4.150347 -16.7002,2.589991 -25.0313,3.125 -6.5234,1.694185 -16.0347,1.884868 -19.125,8.96875 -1.8906,6.236813 5.1564,12.496068 11.0938,9.375 6.0381,-1.237279 11.6309,-4.017003 17.6875,-5.1875 1.6404,22.069777 -1.2221,44.213501 -3.3437,66.03125 1.3597,8.44419 1.6651,17.49129 4.7812,25.4375 2.938,3.63594 4.331,8.1863 7.0312,11.84375 6.051,5.86557 18.8951,1.55088 18.0626,-7.4375 0.4126,-16.43733 8.0641,-33.65073 1.6562,-49.6875 1.1582,-16.387732 4.5381,-32.834741 2.8215,-49.402648 -1.0162,-5.988892 0.026,-15.734921 -7.6653,-17.378602 -0.5753,-0.130755 -1.165,-0.110446 -1.75,-0.0625 z M 1194.625,-88.75 c -10.5568,0.914286 -23.0604,6.615668 -24.1875,18.4375 -1.2267,5.964043 4.2034,13.594249 10.6875,10.5 1.9715,-0.221155 5.7385,-4.484931 5.6875,-0.1875 11.0023,36.381534 6.1786,74.872215 6.5602,112.343562 -0.1893,32.992556 -0.9173,66.101538 0.1898,99.031438 0.8017,7.10066 8.1437,13.78492 15.3437,10.09375 6.6649,-2.45792 9.1034,-11.56113 17.0313,-11.78125 13.6622,-2.02965 27.6976,1.85975 41.25,-1.625 12.5646,-1.87432 25.5112,-0.61843 38.1298,-2.99042 9.0203,-0.69022 17.46,4.60597 26.6198,4.01898 12.7658,0.13132 26.707,-9.26935 27.9691,-22.59106 0.8502,-6.3471 -4.3648,-15.53259 -11.6874,-12.15625 -4.8492,2.07492 -7.0494,8.93134 -13.343,6.87052 -19.8962,0.80031 -39.8161,0.30019 -59.6883,-0.12052 -14.615,0.79331 -29.4984,1.42197 -43.625,4.65625 -2.351,-0.4689 -6.5878,1.57523 -8.0313,0.40625 0.1591,-8.38558 -3.3386,-16.40475 -3.2812,-24.84375 -2.7114,-36.357031 0.5032,-72.821436 -1.4755,-109.2175502 -0.3544,-19.5969028 -3.2526,-39.4771938 -0.024,-58.8136998 0.2593,-6.597173 -5.1565,-10.958113 -9.9375,-14.28125 -3.7666,-3.884939 -8.2426,-8.377465 -14.1875,-7.75 z"
           inkscape:connector-curvature="0"
           sodipodi:nodetypes="csscscccccccccccccccccccccccccccccccccccccccccccccccccccccccccccccccccccccccccccccccccccccccccccccc" />
        <path
           style="fill:#000000"
           d="m 1451.0312,-470.25 c -12.9769,-0.34187 -25.7409,3.04954 -38.1562,6.15625 -5.9519,1.8903 -4.901,11.01929 1.0625,11.96875 8.1811,0.55656 16.2,-2.63251 24.5,-1.96875 8.0616,-0.59777 17.1857,0.71447 24.4687,-3.28125 4.6635,-4.89766 -1.3018,-11.23847 -6.375,-12.46875 -1.7964,-0.45353 -3.6582,-0.46465 -5.5,-0.40625 z m 61.4063,0.28125 c -4.9041,-0.5131 -11.4421,3.67189 -8.5313,9.15625 3.877,6.12337 12.3736,4.14911 18.4651,5.67985 9.2749,0.21072 17.779,3.86498 26.8162,4.7264 8.6468,-0.80038 7.4454,-14.52181 -0.125,-16.375 -11.9759,-2.70268 -24.3295,-3.37795 -36.625,-3.1875 z m 88.5625,11.0625 c -5.7325,-0.19511 -10.3966,7.76622 -5,11.53125 6.5925,3.96342 14.9595,3.60862 22.2645,5.68209 6.5758,0.87124 15.29,2.85715 20.4543,-2.30709 3.613,-5.61062 -2.6729,-12.15004 -8.5396,-11.49408 -9.6131,-2.12061 -19.3305,-3.5399 -29.1792,-3.41217 z m -237.25,1.0625 c -12.4914,1.35119 -24.8857,5.17242 -35.9062,11.0625 -4.7227,4.46075 -0.6009,15.27364 6.4374,12.25 12.0063,-6.08442 25.9727,-5.94237 38.7188,-9.375 7.0681,-5.19506 -0.8944,-16.06249 -8.4375,-13.96875 l -0.8125,0.0313 z m 325.4375,5.9375 c -6.5236,0.7088 -16.0886,1.53575 -18.25,9 -0.8174,4.96009 4.5813,8.92694 9.1517,7.12394 11.4915,-1.19381 23.2407,1.2057 34.5046,0.93856 6.5515,-3.24734 2.9499,-13.11452 -3.4063,-14.1875 -6.9166,-2.75917 -14.5849,-3.60194 -22,-2.875 z m 67.8437,13.84375 c -7.6251,-0.28995 -9.0104,11.02212 -3.1562,14.4375 5.8018,5.59525 13.5299,8.9177 20.8438,11.8125 4.6109,1.13572 10.3145,0.93101 13.4062,-3.21875 -2.8056,-6.38276 -10.1392,-8.44182 -15,-12.84375 -4.8771,-3.61956 -9.2663,-10.34594 -16.0938,-10.1875 z M 1280.8438,-436 c -15.4147,2.73022 -29.4932,11.49172 -40.125,22.71875 -2.8438,5.50453 5.0149,9.78493 9.2812,6.40625 11.4214,-4.58635 21.9543,-11.64979 34.1875,-13.84375 5.7505,-1.88654 9.1504,-11.14022 2.5937,-14.28125 -1.8206,-0.93758 -3.909,-1.16661 -5.9374,-1 z m 540.9687,33.71875 c -6.1767,-1.02444 -10.3476,7.42148 -5.1875,11.40625 9.8924,12.3695 24.0401,20.51486 35.8125,30.875 4.3504,3.20806 13.5524,3.92453 14.7187,-2.65625 -0.7788,-7.01961 -8.5908,-9.96622 -13.4062,-14.09375 -9.9172,-6.10373 -16.8385,-15.52337 -25.25,-23.40625 -1.9181,-1.42819 -4.2554,-2.34981 -6.6875,-2.125 z m -614.3125,1.625 c -12.6032,1.92961 -23.3642,10.42346 -31.4375,19.84375 -3.1822,3.31462 -3.2273,10.00669 2.2187,10.75 6.8467,0.82206 10.8954,-6.18519 16.8126,-8.28125 6.377,-4.09914 14.0497,-6.25061 20.375,-9.9375 4.0722,-5.52747 -1.602,-13.17147 -7.9688,-12.375 z m -64,40.8125 c -11.0786,1.84065 -18.6341,11.76728 -24.4375,20.53125 -3.0738,4.16086 -2.4692,12.73162 4.0313,12.59375 6.3156,-0.83928 8.4297,-8.12732 13.8197,-10.68978 4.0047,-4.68092 10.6559,-6.26846 13.899,-11.40397 2.9321,-5.40884 -0.5457,-12.46711 -7.3125,-11.03125 z M 1904,-336.25 c -5.8476,-0.49432 -9.2863,7.80293 -4.3704,11.40193 8.1215,9.57513 17.2452,18.37793 25.6204,27.69182 6.5899,3.71679 12.9521,-6.29708 7.9375,-11.40625 -6.9022,-10.26064 -15.3687,-19.56754 -25.1563,-27.0625 -1.2707,-0.53033 -2.6523,-0.77157 -4.0312,-0.625 z m -813.4688,19.9375 c -8.2584,3.1215 -7.9883,13.46266 -12.3437,19.90625 -3.6901,7.92707 -11.6404,14.7024 -11.5625,23.875 0.545,6.49112 9.9292,10.10965 13.6562,4.03125 2.3513,-3.66858 1.9322,-8.78735 6.0938,-11.3125 6.8608,-8.66912 11.9131,-19.836 11.4375,-31.03125 -0.6922,-3.17703 -3.8588,-6.22385 -7.2813,-5.46875 z m 865.9688,46.96875 c -6.6587,0.9513 -8.1703,9.79097 -4.25,14.40625 6.4263,11.98754 14.8349,22.79651 23.4375,33.21875 3.0447,4.20698 12.163,7.0533 13.4687,-0.0313 0.2869,-7.61797 -7.1699,-12.54432 -10.0624,-19.03125 -6.3301,-9.01619 -10.7769,-19.6474 -18.5313,-27.46875 -1.1584,-0.83387 -2.6287,-1.28637 -4.0625,-1.09375 z M 1054.8125,-240.25 c -7.5256,3.65761 -7.5055,13.60725 -9.7865,20.6375 -1.4797,9.70197 -5.7888,19.71055 -4.1822,29.6125 2.5222,5.8745 11.444,4.31674 13.2812,-1.375 4.9046,-10.4134 5.5797,-22.22754 8.875,-33.25 1.3139,-6.25256 0.4065,-16.42914 -8.1875,-15.625 z m 950.5313,56.03125 c -6.3413,0.89346 -5.1466,8.793 -3.5,13.09375 3.7426,11.50633 4.4013,24.21621 9.6874,35.15625 4.0611,5.15004 13.261,0.9127 11.7813,-5.625 -0.5361,-10.41268 -3.5409,-20.52756 -6.2187,-30.53125 -1.7542,-5.14722 -5.0457,-12.97262 -11.75,-12.09375 z m -972.875,27.125 c -8.58,2.11831 -7.737,12.6199 -8.5705,19.49923 -0.015,9.36117 -3.5395,19.05016 -1.3358,28.25077 4.2416,7.76347 18.0466,3.47354 16.8071,-5.37467 -0.4036,-11.41949 2.3085,-22.5771 2.4429,-33.87533 -0.3103,-4.95084 -3.9719,-9.30283 -9.3437,-8.5 z m 993.7187,65.21875 c -7.194,0.560666 -7.154,9.434063 -5.395,14.598185 4.0348,13.844284 -0.097,28.120676 -2.4487,41.745565 0.191,6.460358 9.9052,10.868908 13.3124,4.1875 4.2192,-7.215128 2.7574,-16.015276 5.2188,-23.8125 1.7102,-12.101555 0.8933,-26.057569 -7.0625,-35.84375 -1.0767,-0.676965 -2.3516,-1.011132 -3.625,-0.875 z m -1006.625,14.8125 c -8.2173,2.685331 -7.5837,13.011291 -8.0625,20 -0.8111,5.961723 -1.6518,15.719971 6.0625,17.375 7.4521,0.184272 9.3829,-9.22153 9.875,-15 0.5344,-7.287484 1.1522,-17.028024 -5.2187,-21.9375 -0.8181,-0.353486 -1.7578,-0.557182 -2.6563,-0.4375 z m -7.2813,61.5 c -7.8718,2.290346 -6.3764,12.646757 -3.625,18.40625 3.2683,6.4781028 4.287,13.918577 1.7188,20.75 -1.6978,5.843544 -2.4764,15.300627 5.125,17.125 6.5743,1.955265 13.7188,-3.589488 12.8438,-10.5625 2.1961,-11.117732 3.0657,-23.1644598 -2.6563,-33.40625 -2.0916,-5.8957328 -6.2423,-12.780654 -13.4063,-12.3125 z m 995.0313,21.375 c -8.1357,2.7131174 -7.3807,12.955062 -9.1875,19.8125 -0.5348,5.786355 -3.222,11.493928 -8.75,14.0625 -4.0158,3.60884 -0.6007,11.00449 4.875,9.6875 12.1056,-1.260147 20.64,-14.126957 19.9507,-25.811514 -0.174,-5.560277 1.023,-12.830135 -3.3882,-16.938486 -1.0279,-0.6475657 -2.2882,-0.9338156 -3.5,-0.8125 z M 143.375,44.21875 c -8.29595,0.545258 -18.08301,1.333937 -23.0625,9.15625 -3.50212,3.566154 -2.19586,10.102855 3.03125,10.90625 6.49843,1.056413 12.71269,-2.644567 19.31685,-2.557117 5.35486,-0.106134 13.62358,-1.420276 13.8394,-8.255383 -0.37741,-6.090674 -7.70394,-9.550093 -13.125,-9.25 z m 1815.6875,14.25 c -9.7517,2.350498 -17.0153,10.564981 -27.375,11.125 -5.0782,0.15654 -10.5555,5.854104 -6.5625,10.59375 5.579,5.976593 15.2692,3.594628 21.9756,1.217349 7.654,-3.451527 18.4479,-8.348974 17.9932,-18.311099 -0.4107,-3.014547 -2.9362,-5.192891 -6.0313,-4.625 z M 82.84375,64.3125 c -7.956096,2.02338 -13.477711,8.865148 -20.5,12.5625 -5.295769,4.277717 -12.829893,9.417157 -12.15625,17.03125 1.487173,5.597381 9.753786,7.44885 13,2.40625 9.305917,-7.417842 22.593253,-12.84061 26.625,-24.96875 0.19213,-3.790134 -3.029986,-7.498772 -6.96875,-7.03125 z m 934.46875,4.5625 c -6.7768,0.213672 -9.5064,7.89214 -7.8437,13.59375 0.3106,10.452013 3.4656,21.61223 1.75,31.6875 -6.011,3.61723 -3.9306,13.45411 2.875,14.75 8.8905,2.8716 18.0783,-6.82748 14.8387,-15.61244 -1.8344,-13.22639 -2.147,-26.756467 -4.12,-39.88756 -1.1743,-2.989254 -4.2946,-4.939711 -7.5,-4.53125 z m -986.5,70.625 c -10.385387,4.68699 -15.430468,16.53638 -19.3125,26.71875 -2.987982,6.57704 -0.996207,18.08678 7.90625,17.9375 7.06722,-1.24726 5.895229,-10.68396 9.0625,-15.53125 2.292114,-7.32493 7.875496,-13.08952 10.46875,-20.09375 0.631141,-4.6452 -3.159967,-9.65609 -8.125,-9.03125 z M 1012.5,150.8125 c -8.6069,3.05237 -5.5856,13.92728 -9.5803,20.30736 -2.8937,8.17813 -6.49349,17.01839 -5.32595,25.78639 2.48125,6.42033 13.33275,6.869 14.90625,-0.46875 4.0246,-10.34757 4.6616,-21.82092 8.75,-32.1875 1.5921,-6.05834 -1.194,-14.4133 -8.75,-13.4375 z m -21.59375,66.90625 c -5.65981,-1.00935 -8.97877,5.60326 -7.0625,10.34375 -0.77276,12.04132 -9.13585,22.56536 -9.40625,34.53125 0.98697,6.70973 11.79377,9.09614 14.1058,1.96669 5.97835,-13.23662 12.7977,-27.65835 10.55045,-42.52919 -1.16075,-3.2958 -4.96849,-4.54938 -8.1875,-4.3125 z M 24.78125,228 c -7.466214,0.96754 -6.434265,10.27947 -6.375,15.75 0.743909,10.7659 -3.042518,21.96368 -0.21875,32.46875 2.356899,6.02046 13.323432,7.10029 14.40625,-0.25 2.443733,-14.02163 2.674776,-28.81048 0.59375,-42.90625 -1.372802,-3.29768 -4.870931,-5.45196 -8.40625,-5.0625 z m 937.6875,58.59375 c -8.39837,1.07445 -6.99792,11.55066 -12.33062,16.07221 -6.98845,8.95041 -14.56677,20.36079 -11.45063,32.20904 4.41782,6.14927 14.02283,1.66012 15.125,-4.90625 2.88063,-9.00432 7.12498,-17.39419 12.66679,-25.0161 3.12296,-4.47352 7.1173,-11.34571 2.23946,-16.0464 -1.56024,-1.69237 -3.96453,-2.55787 -6.25,-2.3125 z M 53.34375,319.875 c -7.822806,0.9189 -8.239044,10.93497 -5.09375,16.46875 5.29049,10.4942 12.439543,20.26803 18.5,30.21875 2.113388,4.42548 9.279645,7.33626 12,1.8125 3.064983,-6.19366 -1.714869,-12.49731 -2.40625,-18.65625 -3.560674,-4.48997 -6.990502,-8.93525 -10.128731,-13.80188 -5.769705,-3.80845 -2.460966,-13.02112 -9.152519,-15.60437 -1.192041,-0.38495 -2.469461,-0.5408 -3.71875,-0.4375 z m 859.34375,35 c -10.3548,2.41225 -10.80298,14.86752 -17.53125,21.28125 -3.78159,6.08555 -12.67727,7.99401 -14.6875,15.125 -1.4709,5.62401 4.63942,10.38517 9.84375,7.9375 14.29108,-3.28574 21.75396,-17.47593 25.75,-30.375 2.80405,-3.42337 4.92901,-9.32541 0.75,-12.78125 -1.1326,-0.94716 -2.66076,-1.36821 -4.125,-1.1875 z m -804.65625,42.53125 c -8.489257,0.94695 -7.53101,13.36271 -1.21875,16.71875 9.11221,5.82657 18.26865,12.36539 28.53125,15.875 6.2998,0.59201 9.98405,-8.22403 4.875,-12.25 -5.56752,-6.96312 -14.26874,-9.44659 -21.90625,-13.15625 -3.45187,-2.67098 -4.92285,-8.09007 -10.28125,-7.1875 z m 756.65625,17.25 c -6.88618,2.06035 -11.42659,8.70041 -18.79625,9.51397 -7.77594,3.40358 -18.00412,7.18692 -20.235,16.26728 0.40316,7.08172 10.16456,9.81046 15.0502,5.18178 C 851.33842,439.299 864.42217,433.87424 869.75,422 c 1.23916,-3.53228 -0.85483,-7.95471 -5.0625,-7.34375 z m -674.625,39.75 c -6.35311,0.69468 -9.68068,10.93715 -2.9375,13.59375 9.28687,2.57992 17.20544,9.36252 26.9375,10.125 5.42971,0.96611 12.35524,-4.75937 8.59375,-10.15625 -5.23145,-6.12532 -13.99653,-7.43346 -21.00856,-10.54274 -3.81396,-1.14201 -7.62163,-2.78753 -11.58519,-3.01976 z m 584.21875,5.78125 c -7.53872,2.96909 -14.27245,7.6396 -22.59375,8.625 -9.11121,2.46049 -19.72276,3.73288 -26.65625,10.5625 -4.84242,7.25033 6.15538,16.79913 12.8125,11.09375 12.45762,-7.34241 28.0963,-8.15335 39.71875,-16.8125 3.40903,-3.27449 6.0445,-11.70813 -0.28125,-13.3125 -0.96931,-0.23096 -2.01773,-0.38822 -3,-0.15625 z m -512.375,23.09375 c -7.03835,0.21374 -8.0631,11.63645 -1.21875,13.09375 11.26805,5.01715 25.1485,13.21086 37.5,6.65625 5.05945,-3.50202 2.4652,-11.87167 -3.5,-12.4375 -7.99487,-2.39702 -17.06713,-0.32482 -24.28125,-5.3125 -2.7373,-1.13727 -5.46266,-2.22354 -8.5,-2 z m 421.4375,11.5 c -10.42225,0.74238 -23.42321,-1.00238 -31.09375,7.53125 -3.44156,6.21446 5.23612,12.22142 10.6875,8.90625 8.68505,-2.38184 19.8111,-0.25374 26.5625,-7.1875 2.55675,-4.16113 -1.22343,-10.00397 -6.15625,-9.25 z m -86.25,7.09375 c -7.21295,0.35699 -17.76204,2.9572 -18.28125,11.59375 1.33482,6.78665 10.2652,9.19436 15.25,4.71875 6.73302,-3.44808 15.61084,-1.58735 21.5,-6.375 3.1193,-4.98704 -3.39889,-9.03892 -7.84375,-9.03125 -3.493,-0.72685 -7.01766,-1.06786 -10.625,-0.90625 z M 355.625,505 c -5.5124,-0.31659 -14.67266,0.4362 -14.5,7.875 1.65009,8.01488 11.59755,6.66178 17.71875,7.34375 6.28414,0.49917 15.08447,3.69898 19.71875,-1.9375 3.28768,-6.54293 -3.28456,-14.10305 -10.21875,-13.09375 -4.23341,-0.31384 -8.47814,-0.21728 -12.71875,-0.1875 z m 179.25,4.0625 c -10.09773,1.7934 -21.61733,-0.75632 -30.78125,4.40625 -4.47027,4.37527 0.22009,12.66423 6.3125,11 10.5497,-0.17441 22.62467,2.30881 31.9375,-3.78125 4.25115,-3.96984 1.35646,-12.34849 -4.84375,-11.625 -0.87408,-0.0486 -1.75088,-0.046 -2.625,0 z m -72.84375,1.75 c -11.13137,2.39563 -22.70164,0.89157 -33.90625,0.5625 -5.72277,1.11285 -9.88181,9.96021 -3.59375,13.1875 7.34436,2.73594 15.53016,0.0697 23.03125,2.125 7.06589,0.38055 17.66482,1.87687 20.78125,-6.34375 1.80669,-4.45985 -0.84792,-10.49671 -6.3125,-9.53125 z"
           id="path3050"
           inkscape:connector-curvature="0" />
      </g>
      <g
         inkscape:transform-center-y="-71.343176"
         inkscape:transform-center-x="-323.97193"
         transform="matrix(0.51106335,0.02113052,-0.02113052,0.51106335,-606.21405,-296.8416)"
         id="g3307">
        <g
           transform="translate(2958.6737,277.67198)"
           id="layer1-5"
           inkscape:label="Layer 1">
          <path
             inkscape:connector-curvature="0"
             id="path3133"
             d=""
             style="fill:#000000" />
          <path
             inkscape:connector-curvature="0"
             id="path4319"
             d="m 257.9795,1047.8873 c -2.78782,-2.6041 -5.08001,-6.0926 -5.09374,-7.7522 -0.0487,-5.896 -2.91003,-7.8081 -13.35247,-8.9233 -10.0285,-1.0711 -24.13293,-5.0123 -29.05585,-8.119 -1.34644,-0.8498 -4.65134,-2.5822 -7.34422,-3.8498 -5.50334,-2.5907 -29.38349,-25.35143 -34.04132,-32.44563 -2.36403,-3.60058 -3.88023,-4.4057 -6.87931,-3.65298 -6.52997,1.63892 -17.49638,9.99222 -27.84752,21.21191 -5.44407,5.9009 -10.74254,10.7289 -11.77435,10.7289 -1.03182,0 -3.42139,-1.5453 -5.31014,-3.4341 -2.62003,-2.62 -3.19472,-4.6309 -2.42433,-8.4829 1.47524,-7.37625 4.7672,-11.63046 15.05372,-19.45401 15.04048,-11.43926 19.13127,-14.03159 23.94128,-15.17167 l 4.57567,-1.08453 -1.03027,-15.7636 c -0.56665,-8.66997 -1.35911,-16.79025 -1.76102,-18.04508 -1.08273,-3.38044 -27.91297,-1.2102 -37.16928,3.00654 -8.26332,3.76438 -26.116718,6.93533 -31.475448,5.59037 -2.06567,-0.51845 -5.96141,-0.17373 -8.65721,0.76604 -3.917622,1.36568 -5.416404,1.19371 -7.466896,-0.85678 -1.410988,-1.41097 -2.15597,-3.63242 -1.655535,-4.93655 0.500436,-1.3041 0.909884,-3.03052 0.909884,-3.8365 0,-0.80597 2.93769,-2.9641 6.528206,-4.79584 3.590511,-1.83175 6.528191,-3.87719 6.528191,-4.54541 0,-0.66825 -3.297961,-4.41112 -7.328801,-8.31751 -9.874064,-9.56921 -13.675321,-16.13857 -15.869596,-27.42589 -2.775333,-14.27625 -2.175033,-21.6763 2.572503,-31.71176 2.367957,-5.00548 4.305397,-9.87855 4.305397,-10.82904 0,-0.95049 2.615279,-4.85845 5.811747,-8.68437 3.196456,-3.82592 6.981893,-9.21995 8.41207,-11.98677 2.98032,-5.76569 9.5018,-14.13733 20.049228,-25.73728 9.00073,-9.89889 46.43748,-35.37384 62.01492,-42.19987 9.81878,-4.3026 9.98947,-5.28235 3.62846,-20.82617 -7.7887,-19.03259 -8.7037,-33.05688 -3.61969,-55.47986 l 3.67642,-16.21483 -3.37327,-4.70483 c -1.85532,-2.58764 -4.21466,-8.00971 -5.24299,-12.04903 -1.02831,-4.03932 -4.06357,-10.79542 -6.745,-15.01357 -3.28708,-5.17087 -5.6784,-12.08267 -7.34048,-21.21665 -1.35585,-7.45101 -2.79397,-15.2312 -3.19581,-17.2893 -0.90285,-4.624 -4.96829,-6.36993 -8.98766,-3.8598 -4.83744,3.02102 -10.36685,2.20307 -14.4438,-2.13665 -3.28288,-3.49444 -3.66214,-5.16509 -2.87136,-12.64838 1.5447,-14.61772 3.35916,-17.59841 10.71287,-17.59841 3.86313,0 8.50245,1.44087 11.87275,3.68739 3.04255,2.02806 7.48623,4.55302 9.87483,5.61103 3.31401,1.46788 4.96629,4.06791 6.97403,10.9743 1.4471,4.97786 2.18764,10.81754 1.64565,12.97706 -1.31005,5.21959 6.9915,38.15775 11.07463,43.94102 1.77248,2.5105 3.61065,7.45698 4.08482,10.99216 1.27578,9.51161 3.94244,10.83985 10.49294,5.22637 9.81396,-8.41005 15.08061,-11.37387 26.66702,-15.00686 22.5351,-7.06603 46.00775,-8.31633 75.06046,-3.99817 16.29008,2.42123 33.47087,8.6444 33.47087,12.12374 0,1.01312 1.21098,1.60455 2.69106,1.31433 3.15561,-0.61876 7.06265,-11.6863 11.99723,-33.98471 1.8871,-8.52746 4.23102,-17.70774 5.2087,-20.40063 0.97768,-2.69288 2.9598,-14.59374 4.40472,-26.44637 1.4449,-11.85261 3.49029,-22.41017 4.54526,-23.4612 4.78537,-4.76751 23.37863,4.60167 23.37863,11.78052 0,4.53044 -4.15183,11.99702 -10.70349,19.24891 -4.16201,4.60684 -5.89416,8.29136 -6.66769,14.18295 -0.57474,4.37762 -2.34822,10.56394 -3.94103,13.74738 -1.59282,3.18345 -3.3864,8.69162 -3.98574,12.24037 -0.59934,3.54876 -1.87376,9.00434 -2.83203,12.12349 -3.7451,12.19021 -7.24902,31.44358 -6.48372,35.62704 0.44261,2.41954 2.07298,6.23523 3.62301,8.47929 1.55006,2.24407 4.69916,9.58829 6.998,16.3205 3.79824,11.12324 4.06675,13.58095 2.94199,26.92883 -0.68075,8.07865 -2.09822,16.29263 -3.14991,18.25327 -3.05678,5.69863 -2.36538,6.981 5.84005,10.83174 19.95755,9.36595 52.52999,31.76796 54.803,37.69129 0.46155,1.20283 4.53272,4.5803 9.04702,7.50545 7.24034,4.69159 13.26434,12.67002 13.26434,17.56788 0,0.87647 1.1032,2.50916 2.45156,3.62818 3.08096,2.55698 16.62275,30.42379 19.61359,40.36158 1.23242,4.09503 2.71861,11.26998 3.30262,15.94432 0.98617,7.89299 0.70155,8.90917 -3.99271,14.25563 -2.78,3.16626 -5.05456,6.98159 -5.05456,8.47851 0,6.26887 -5.24806,12.66542 -13.57059,16.54034 -4.65416,2.16695 -9.7838,3.94709 -11.39922,3.95585 -3.6662,0.0199 -12.56734,4.52364 -12.56734,6.35873 0,1.6352 13.61913,3.41568 26.27728,3.43533 16.20369,0.0251 22.65165,4.42443 20.76221,14.16554 -0.50555,2.60638 -2.43946,3.01445 -15.24099,3.21596 -8.06408,0.12697 -19.43572,-0.85872 -25.2703,-2.19035 -34.14027,-7.79175 -37.30645,-8.20411 -38.21196,-4.97665 -0.3148,1.12203 -1.46786,5.34496 -2.56233,9.38429 -1.09448,4.03932 -3.49705,10.80529 -5.33903,15.0355 -4.48018,10.28901 -2.57024,12.70935 10.0292,12.70935 7.13864,0 10.56586,0.91887 15.21805,4.08013 5.03349,3.42032 7.90863,4.08012 17.78001,4.08012 9.71091,0 13.03432,0.73768 18.95481,4.2073 7.34786,4.30615 10.33566,8.9623 9.00825,14.03835 -1.11516,4.26438 -5.38198,4.91337 -14.37259,2.1861 -4.43098,-1.34413 -11.44168,-2.45182 -15.57933,-2.46154 -5.20235,-0.0115 -10.57355,-1.59096 -17.41225,-5.11795 -9.39704,-4.84642 -10.50291,-5.04279 -22.21747,-3.94506 l -12.3282,1.15525 -8.45008,9.75408 c -4.84205,5.58925 -11.8046,11.45393 -16.30637,13.73513 -4.32095,2.1896 -8.62904,5.425 -9.57354,7.1899 -0.95328,1.7811 -4.7913,4.0118 -8.62687,5.0139 -3.80026,0.9929 -11.31611,3.1692 -16.70188,4.8361 -5.38576,1.667 -12.72999,3.5167 -16.3205,4.1105 -9.23626,1.5275 -10.24513,2.845 -9.3458,12.2045 1.27244,13.2425 -3.70667,16.5564 -12.51427,8.3288 z m -10.42099,-37.3317 c 4.45041,-2.2769 6.11717,-2.3777 10.87378,-0.6577 7.68872,2.7803 22.80449,0.2242 40.29066,-6.8131 14.31407,-5.76078 18.93282,-9.72289 14.57365,-12.50178 -1.34644,-0.85834 -4.51601,-1.57185 -7.0435,-1.5856 -2.52749,-0.013 -5.96418,-0.75751 -7.6371,-1.65282 -2.40391,-1.28655 -3.67114,-0.82761 -6.0439,2.18887 -3.88428,4.93808 -7.83017,6.90132 -16.54895,8.23386 -6.3329,0.96787 -7.67443,0.56067 -12.70518,-3.85637 -6.10683,-5.36187 -13.59359,-6.51711 -16.84512,-2.59925 -4.14889,4.99909 -30.03788,8.78109 -38.0878,5.56409 -2.49726,-0.99798 -5.04176,-1.31323 -5.65446,-0.70053 -2.48922,2.48923 3.03345,6.86153 16.04242,12.70073 14.66111,6.5808 18.74024,6.8188 28.7855,1.6796 z m -50.56148,-38.91677 c 2.01087,-1.2679 5.68298,-2.2388 8.16025,-2.15754 9.26452,0.30388 24.18474,-2.23975 26.87908,-4.58239 1.7754,-1.54369 4.30339,-2.04638 6.95027,-1.38203 2.47828,0.622 6.10083,0.0405 8.96101,-1.43863 5.24564,-2.71264 14.04625,-3.31845 15.44028,-1.06287 0.48263,0.78092 4.97545,3.49323 9.98404,6.02733 l 9.10652,4.60748 3.57669,-4.23147 c 6.77624,-8.01678 11.23719,-9.70482 23.11957,-8.74852 12.89963,1.03819 12.92109,1.04913 18.08088,9.22278 8.60371,13.62914 15.73976,5.545 22.15441,-25.09777 1.72095,-8.22101 1.63999,-9.79565 -0.61992,-12.05555 -3.83715,-3.83715 -7.74866,-1.548 -7.74866,4.53479 l 0,5.15825 -11.74229,-1.15706 c -6.45827,-0.63638 -13.23149,-2.20012 -15.0516,-3.47497 -1.82011,-1.27487 -6.04901,-2.31792 -9.39756,-2.31792 -3.34856,0 -7.97269,-0.85861 -10.27587,-1.90801 -3.71588,-1.69305 -4.73569,-1.38288 -9.05307,2.75342 -2.676,2.5638 -4.86546,6.21319 -4.86546,8.10979 0,4.7435 -3.04737,7.3653 -8.56085,7.3653 -4.38144,0 -6.17786,-1.39845 -14.93504,-11.62643 -2.08446,-2.43457 -3.97116,-2.88405 -8.8386,-2.10571 -4.01069,0.64134 -8.38245,0.0728 -12.42306,-1.61542 -9.87126,-4.12448 -25.11239,-2.6606 -38.3322,3.68175 -3.7645,1.80605 -8.6531,2.49324 -15.09646,2.12208 l -9.5291,-0.5489 0,7.43317 c 0,10.01738 5.84718,25.3323 10.35924,27.13293 3.96819,1.58358 8.33663,0.7423 13.6975,-2.63788 z m -39.9532,-68.16355 c 21.76448,-10.59846 28.42825,-15.74979 37.1863,-28.74634 2.11711,-3.1417 6.5759,-9.01708 9.90841,-13.05641 5.93449,-7.19315 16.3774,-27.85041 21.45138,-42.4333 3.50918,-10.08564 7.86292,-29.48359 6.9492,-30.96201 -0.41221,-0.66699 -5.32693,-2.1841 -10.92162,-3.37136 l -10.17212,-2.15868 -15.58043,16.30051 c -8.56924,8.96529 -20.54367,20.8708 -26.60983,26.45672 -9.4889,8.73767 -11.48347,9.91319 -14.28044,8.41628 -3.45526,-1.84919 -4.21005,-6.58645 -1.77123,-11.11664 0.81391,-1.51183 11.09582,-12.5438 22.8487,-24.5155 11.7529,-11.97169 21.36889,-22.65753 21.36889,-23.74632 0,-9.3124 -24.0116,-7.28895 -39.98522,3.36955 -4.48815,2.99472 -12.0714,8.19396 -16.85169,11.55385 -4.78027,3.35988 -10.2792,7.21051 -12.21984,8.55695 -5.8108,4.03162 -22.33805,21.81639 -22.33805,24.03772 0,1.13522 -4.77375,6.98079 -10.608328,12.99016 -5.83457,6.00938 -10.63136,11.70364 -10.65953,12.65392 -0.0283,0.95026 -2.23144,6.1156 -4.896153,11.47853 -6.296545,12.67221 -6.426717,21.9883 -0.467677,33.47406 8.60176,16.57953 21.966158,23.38932 43.376218,22.10222 11.51187,-0.69207 14.63098,-1.71899 34.27306,-11.28391 z m -7.03149,-19.10212 c -2.03359,-3.79981 -1.41796,-5.84124 7.59851,-25.19678 2.93933,-6.30985 6.11105,-13.48929 7.04826,-15.95432 3.97576,-10.45704 12.59798,-5.62759 10.78579,6.04129 -1.38566,8.92232 -6.98503,21.65212 -13.53446,30.76974 -6.08627,8.47284 -9.0983,9.57154 -11.8981,4.34007 z m -34.1762,-61.0326 c -2.44815,-2.94983 -0.84531,-10.62953 2.21848,-10.62953 1.19566,0 5.62706,-1.83606 9.84759,-4.08012 9.65717,-5.13478 13.26107,-5.13751 16.61903,-0.013 2.79915,4.27206 2.18399,8.70632 -1.32885,9.57878 -1.14239,0.28373 -6.85082,2.10329 -12.6854,4.04345 -12.61338,4.19431 -12.13275,4.15827 -14.67085,1.10003 z m 169.05381,84.8454 c 2.42139,-2.24407 6.20893,-4.08012 8.41676,-4.08012 2.20782,0 6.19623,-1.83606 8.86318,-4.08013 2.66691,-2.24408 6.46524,-4.08012 8.44071,-4.08012 4.97346,0 10.28154,4.05602 11.4617,8.75818 0.54363,2.166 2.21655,4.40945 3.71757,4.98545 2.78889,1.0702 16.86645,-3.85038 16.87751,-5.89925 0.003,-0.62254 -3.11278,-3.56023 -6.92478,-6.5282 -3.81199,-2.96797 -13.26147,-11.71052 -20.99885,-19.42787 -10.28632,-10.2597 -15.55231,-14.31483 -19.58991,-15.08542 -3.03707,-0.57964 -7.46935,-1.49787 -9.84948,-2.04049 -3.46961,-0.79102 -4.54882,-0.28936 -5.44382,2.53052 -1.33269,4.19898 -6.93081,6.59427 -15.41159,6.59427 -3.73063,0 -7.85536,1.30065 -10.35149,3.2641 -5.70457,4.48721 -9.5717,4.0956 -14.94553,-1.51346 -2.51746,-2.62767 -6.8084,-5.70177 -9.53542,-6.83134 -4.75473,-1.96948 -5.18636,-1.79014 -10.51724,4.36955 -3.05746,3.53283 -7.24978,8.99381 -9.31625,12.13551 -2.06647,3.14169 -7.14038,9.75149 -11.27536,14.68845 -8.49801,10.14619 -7.98918,11.87904 4.0873,13.91934 5.31558,0.89806 7.17228,0.47204 10.15498,-2.33004 2.17758,-2.04575 5.81038,-3.42905 9.00523,-3.42905 2.94534,0 7.50322,-1.26889 10.12862,-2.81974 3.90949,-2.30941 5.35414,-2.4571 7.9819,-0.81603 1.76466,1.10204 4.96457,2.00372 7.11091,2.00372 2.14632,0 4.80057,1.08219 5.89831,2.40489 1.09773,1.32268 4.67616,2.88571 7.95206,3.47336 3.27591,0.58766 7.05783,1.68641 8.40428,2.44164 4.62826,2.59604 11.23005,1.4966 15.6587,-2.60772 z m 123.88157,-15.6859 c 17.12472,-4.4299 23.7488,-12.16346 24.97837,-29.16211 0.72254,-9.98896 -1.23687,-16.15583 -8.85965,-27.88427 -2.58191,-3.9725 -6.53042,-12.07565 -8.77449,-18.00698 -3.49508,-9.2379 -5.83526,-12.36501 -16.3205,-21.80854 -6.7322,-6.06336 -14.81086,-12.70331 -17.95256,-14.75546 -3.14168,-2.05213 -8.6153,-6.74661 -12.16358,-10.43215 -3.54827,-3.68556 -7.72785,-6.70102 -9.28796,-6.70102 -1.56011,0 -3.29046,-0.73442 -3.84522,-1.63205 -0.55477,-0.89762 -2.62866,-1.63205 -4.60864,-1.63205 -1.97997,0 -6.3405,-1.46885 -9.69005,-3.2641 -3.34957,-1.79526 -6.73488,-3.2641 -7.52293,-3.2641 -0.78807,0 -4.09563,2.43901 -7.35015,5.42003 -5.86323,5.37051 -7.45614,9.75678 -4.26054,11.73176 0.91123,0.56318 2.65177,3.40532 3.86788,6.31585 1.21609,2.91053 8.70097,11.12257 16.63303,18.24896 21.82657,19.6096 28.02659,26.15727 31.83256,33.61761 3.29862,6.4658 3.34086,7.09706 0.82761,12.36737 -3.70005,7.7591 -7.23513,6.38883 -13.33776,-5.17002 -2.80099,-5.30528 -7.95532,-12.13325 -11.45404,-15.17325 -12.88584,-11.1963 -33.18168,-30.67453 -33.23511,-31.89621 -0.0304,-0.69247 -1.9887,-4.18098 -4.35205,-7.75224 -3.09051,-4.67012 -5.43385,-6.49321 -8.34604,-6.49321 -5.39968,0 -16.45664,6.34779 -17.65974,10.13844 -1.02896,3.242 6.66559,29.98284 9.05178,31.4576 0.78556,0.48551 2.30302,3.62658 3.37215,6.98018 3.56803,11.19186 17.70023,33.74543 26.40803,42.14449 13.30529,12.83359 27.25398,23.45482 32.02513,24.38559 2.37989,0.46427 7.26477,1.77078 10.85528,2.90332 7.33097,2.31241 29.05333,1.93337 39.16919,-0.68344 z M 342.2209,864.76881 c -2.54969,-2.90567 -4.44355,-6.99175 -4.44355,-9.5871 0,-2.48773 -1.10164,-7.6455 -2.44807,-11.46173 -3.23556,-9.17055 -3.15042,-18.60204 0.19299,-21.37681 2.2838,-1.89541 3.16593,-1.53611 6.52135,2.65625 7.12666,8.90419 12.62737,34.3993 8.9175,41.3313 -2.4724,4.6197 -3.47283,4.44091 -8.74022,-1.56191 z m 35.3041,-49.89128 c -9.2956,-1.90283 -11.46013,-14.06807 -2.88598,-16.22004 5.64403,-1.41655 25.46267,3.61235 28.07391,7.12366 1.15592,1.55433 1.89034,4.30024 1.63205,6.102 -0.41548,2.89845 -1.78611,3.30102 -11.89396,3.49356 -6.28339,0.11963 -13.0001,-0.10496 -14.92602,-0.49918 z m -93.30297,24.73199 c 0.46551,-0.4655 -2.98042,-11.98663 -7.6576,-25.60253 -8.97139,-26.11691 -9.66309,-27.0681 -19.84809,-27.29404 -9.39881,-0.20852 -10.33379,0.88584 -10.33379,12.09507 0,5.62569 -1.00769,13.08465 -2.23934,16.57546 -1.23163,3.49082 -2.76401,9.45256 -3.40531,13.24832 -1.08722,6.43517 -0.87378,7.01243 3.15964,8.54595 3.37013,1.28132 6.69018,0.83362 15.03024,-2.02678 l 10.70464,-3.67136 3.38218,4.48813 c 3.01881,4.00599 8.92429,5.92493 11.20743,3.64178 z m -6.01451,-72.06546 c 19.75845,-4.54121 38.35303,-15.78753 38.35313,-23.19662 3e-5,-2.29091 2.74246,-6.87277 6.65271,-11.1149 3.65895,-3.9695 7.69828,-9.71982 8.97628,-12.77848 4.35256,-10.41716 2.32869,-31.90266 -3.60293,-38.24876 -1.92632,-2.0609 -2.23371,-1.74167 -2.23371,2.31958 0,9.64996 -10.53727,14.40838 -15.41648,6.96176 -2.15018,-3.28158 -2.15459,-4.64962 -0.0377,-11.68372 3.63367,-12.07384 3.15068,-16.69178 -2.09044,-19.98724 -2.46848,-1.55211 -6.86537,-4.84302 -9.77088,-7.31318 -2.9055,-2.47015 -8.04646,-5.22952 -11.42435,-6.13192 -11.15363,-2.9797 -31.7722,-3.89851 -39.59865,-1.76459 -4.03932,1.10133 -12.23569,1.96079 -18.21414,1.90991 -12.61983,-0.10741 -17.10296,2.38867 -32.48496,18.08659 -5.0575,5.16135 -10.04041,9.38428 -11.07314,9.38428 -2.55948,0 -2.35708,3.85367 0.57038,10.86005 4.79994,11.48787 2.13434,18.55917 -6.02042,15.97095 -6.2812,-1.99357 -7.65788,1.57058 -5.17741,13.40388 3.25165,15.51235 7.41814,23.83453 17.01051,33.97707 20.22876,21.38892 48.69451,27.82345 85.58211,19.34534 z"
             style="fill:#000000" />
          <path
             transform="translate(0,540.36218)"
             inkscape:connector-curvature="0"
             id="path3139"
             d="m 269.99648,370.19395 c -0.74498,-0.43621 -3.99577,-1.46686 -7.22399,-2.29033 -3.22822,-0.82347 -7.38459,-2.48596 -9.23637,-3.69443 -1.85179,-1.20846 -3.99794,-2.1972 -4.76923,-2.1972 -0.77129,0 -3.89094,-0.83835 -6.93257,-1.863 l -5.53023,-1.863 -5.0783,2.2024 c -2.79307,1.21132 -7.19409,2.49339 -9.78004,2.84905 -2.85152,0.39219 -6.21676,1.67354 -8.55169,3.25616 -4.20331,2.84901 -7.46461,3.23616 -13.80727,1.63905 -5.08871,-1.28135 -6.34205,-2.69515 -4.86309,-5.48569 1.48124,-2.79484 23.81792,-32.01225 27.31262,-35.72615 4.23468,-4.50031 6.61658,-3.90315 16.74456,4.19791 6.80629,5.44414 9.86754,5.88022 15.65075,2.22944 2.65287,-1.67468 6.18228,-2.73548 11.94678,-3.59073 9.58946,-1.42273 11.6631,-2.35908 14.15556,-6.39197 1.01683,-1.64526 2.19542,-2.99139 2.61909,-2.99139 3.18874,0 14.43112,3.1184 17.02756,4.72309 1.75824,1.08665 9.72972,8.08755 17.71439,15.55754 7.98468,7.46999 16.92568,15.66062 19.86889,18.2014 l 5.3513,4.61959 -2.85278,1.47523 c -1.56904,0.81138 -5.20984,2.09671 -8.09068,2.85629 -5.86089,1.54531 -5.70988,1.62901 -10.48643,-5.81219 -4.94778,-7.70798 -10.06529,-8.5194 -19.23901,-3.05049 -3.41791,2.03759 -7.45728,3.96039 -8.97638,4.27289 -1.51912,0.3125 -5.37944,2.17814 -8.57849,4.14586 -5.8855,3.62014 -11.16536,4.62171 -14.39495,2.73067 z"
             style="color:#000000;fill:#ffdd55;fill-opacity:1;stroke:none;stroke-width:1;marker:none;visibility:visible;display:inline;overflow:visible;enable-background:accumulate" />
          <path
             transform="translate(0,540.36218)"
             inkscape:connector-curvature="0"
             id="path3141"
             d="m 277.67196,298.6812 c -0.9933,-0.53294 -3.22822,-2.55252 -4.96649,-4.48796 l -3.16049,-3.51897 -9.68083,3.16092 c -10.4505,3.41224 -12.91725,3.72883 -16.46363,2.11299 -3.02599,-1.37874 -3.03139,-4.88338 -0.0249,-16.15671 1.25129,-4.69194 2.69086,-13.40699 3.19903,-19.36678 0.58473,-6.85764 1.37734,-11.29167 2.15887,-12.07718 0.7851,-0.78911 3.40612,-1.26163 7.19585,-1.29728 7.14359,-0.0672 9.82505,1.53301 12.89952,7.69807 2.41148,4.83561 13.26258,36.6736 14.16818,41.57057 0.57622,3.1159 0.46074,3.38405 -1.44645,3.35878 -1.13996,-0.0151 -2.88536,-0.4635 -3.87866,-0.99645 z"
             style="color:#000000;fill:#ffdd55;fill-opacity:1;stroke:none;stroke-width:1;marker:none;visibility:visible;display:inline;overflow:visible;enable-background:accumulate" />
          <path
             transform="translate(0,540.36218)"
             inkscape:connector-curvature="0"
             id="path3143"
             d="m 183.98506,433.66881 c -3.98552,-1.14116 -9.43771,-15.02148 -10.29832,-26.21773 l -0.57751,-7.51316 10.08414,0 c 8.71139,0 10.84998,-0.31157 15.70994,-2.28874 13.4485,-5.47123 25.43656,-6.50725 36.6511,-3.16741 4.17668,1.24387 8.50327,1.83327 12.80788,1.74478 l 6.50053,-0.13362 4.95327,5.56065 c 5.56317,6.24533 8.70573,8.21732 13.09511,8.21732 4.33839,0 6.85726,-2.17288 8.06112,-6.95386 0.69565,-2.76266 2.33491,-5.49081 4.92104,-8.18985 3.32764,-3.47291 4.23677,-3.96426 6.40675,-3.46258 1.39085,0.32155 5.17009,1.00144 8.3983,1.51087 3.22822,0.50943 8.91711,1.90087 12.64198,3.0921 5.88945,1.88347 9.82668,2.58942 25.0582,4.49301 2.84481,0.35554 2.93515,0.26475 2.94805,-2.96269 0.0286,-7.15583 3.99031,-10.08255 7.42351,-5.48415 1.71366,2.29527 1.72007,2.56901 0.23214,9.93298 -3.21131,15.89333 -8.17833,28.32974 -12.35091,30.92419 -2.36759,1.47214 -5.4536,-0.70993 -10.06013,-7.11337 -3.74143,-5.20089 -4.46808,-5.75704 -8.71085,-6.66695 -5.93679,-1.27321 -17.50951,-1.26777 -22.11342,0.0104 -2.43503,0.67604 -5.17982,2.65679 -8.59781,6.20453 l -5.02086,5.21146 -7.19805,-3.62175 c -3.95893,-1.99197 -8.45843,-4.58309 -9.9989,-5.75806 -3.52094,-2.68556 -8.48696,-2.79146 -15.48936,-0.33032 -2.82611,0.9933 -7.30198,1.806 -9.94639,1.806 -2.91073,0 -6.13006,0.66876 -8.15828,1.69474 -4.54347,2.29832 -11.59957,3.6968 -21.86173,4.33287 -6.36015,0.39421 -9.79709,1.09816 -13.2909,2.72221 -4.8977,2.27664 -9.50407,3.18366 -12.21964,2.40612 l 0,0 z"
             style="color:#000000;fill:#ffdd55;fill-opacity:1;stroke:none;stroke-width:1;marker:none;visibility:visible;display:inline;overflow:visible;enable-background:accumulate" />
          <path
             transform="translate(0,540.36218)"
             inkscape:connector-curvature="0"
             id="path3145"
             d="m 226.20106,470.90478 c -7.94651,-3.06203 -17.8163,-8.19164 -21.13599,-10.98498 -3.65137,-3.07242 -2.59961,-4.52818 2.29052,-3.17037 8.72101,2.42151 29.30479,0.27412 36.75301,-3.83425 1.95223,-1.07682 4.43943,-2.45312 5.52712,-3.05844 2.76802,-1.54044 7.54546,-0.0669 12.80882,3.95071 5.53012,4.22124 8.34264,4.95116 14.61882,3.79398 7.3355,-1.35249 10.92933,-3.0647 15.19236,-7.23808 3.53094,-3.45669 3.92277,-3.61457 6.77248,-2.72873 1.6636,0.51713 5.12661,1.20533 7.69561,1.52934 5.29068,0.66729 8.05322,2.26073 7.30406,4.21301 -1.14216,2.97643 -19.46361,11.05676 -32.24211,14.21978 -10.90818,2.70006 -17.35264,3.08105 -23.40259,1.38352 l -5.28277,-1.48227 -6.97116,2.79138 c -8.30552,3.32569 -12.55401,3.45689 -19.92818,0.6154 z"
             style="color:#000000;fill:#ffdd55;fill-opacity:1;stroke:none;stroke-width:1;marker:none;visibility:visible;display:inline;overflow:visible;enable-background:accumulate" />
          <path
             transform="translate(0,540.36218)"
             inkscape:connector-curvature="0"
             id="path3147"
             d="m 231.12797,228.41908 c -18.43293,-3.88988 -34.90332,-14.81927 -45.21478,-30.00357 -5.86238,-8.63275 -11.22486,-25.78706 -10.56792,-33.80629 l 0.28789,-3.51433 5.71156,0 c 4.60991,0 5.95972,-0.33809 6.99823,-1.75284 1.87748,-2.55767 1.58327,-6.97821 -0.97081,-14.58668 -2.84587,-8.47769 -2.8244,-9.56399 0.22575,-11.42321 1.36578,-0.83251 7.43803,-6.15529 13.49388,-11.82838 6.05585,-5.6731 12.77411,-11.1684 14.92946,-12.21179 2.91903,-1.41308 7.0213,-2.13865 16.07931,-2.84396 6.68827,-0.52078 14.19223,-1.31565 16.67548,-1.76638 11.33736,-2.05779 33.9921,-0.26054 42.03917,3.33506 4.17538,1.86565 18.5248,12.03409 20.49345,14.52229 1.64457,2.07859 1.38736,7.33971 -0.78163,15.98774 -2.11845,8.44653 -1.84018,11.22419 1.45456,14.51893 5.50796,5.50797 14.82613,-0.2977 14.93384,-9.30449 l 0.0301,-2.51225 1.78196,2.13921 c 3.21712,3.86206 4.903,11.50746 4.90455,22.24174 0.002,11.72224 -1.13169,14.73637 -9.50179,25.26925 -5.49062,6.90937 -7.4629,10.23118 -8.40066,14.14883 -0.85847,3.58645 -8.62932,10.02811 -17.07469,14.15411 -19.46135,9.50787 -47.8449,13.39046 -67.52685,9.23701 l -3e-5,0 z"
             style="color:#000000;fill:#ffdd55;fill-opacity:1;stroke:none;stroke-width:1;marker:none;visibility:visible;display:inline;overflow:visible;enable-background:accumulate" />
          <path
             transform="translate(0,540.36218)"
             inkscape:connector-curvature="0"
             id="path3153"
             d="m 105.37853,372.80413 c -10.878751,-2.69457 -19.965694,-10.28741 -25.602562,-21.39292 -2.946228,-5.80453 -3.51872,-7.87911 -3.779676,-13.69665 -0.252429,-5.62744 0.09557,-7.90779 1.942001,-12.7255 5.658048,-14.76296 8.486479,-19.56523 17.243318,-29.27672 4.726829,-5.24213 10.017229,-11.75565 11.756439,-14.47447 5.93968,-9.28522 19.65424,-21.97038 35.73568,-33.05339 8.19471,-5.64764 17.94709,-11.78484 21.67195,-13.63822 11.90154,-5.92186 25.95162,-7.49717 30.92785,-3.46767 1.66318,1.34677 1.81225,1.92237 0.96605,3.73032 -0.55032,1.17581 -9.67857,11.29663 -20.28499,22.49072 -24.61291,25.97665 -24.25088,25.53429 -24.25088,29.63187 0,4.13325 2.13881,7.35562 4.88221,7.35562 3.67241,0 9.58029,-5.14537 32.68676,-28.46798 l 22.66949,-22.88156 7.58095,1.66869 c 10.71931,2.35949 12.54743,3.18414 12.54743,5.66 0,4.12588 -5.51661,24.54322 -9.12504,33.77242 -4.17744,10.68452 -11.94179,26.2232 -16.2917,32.60432 -5.51845,8.09534 -18.60055,25.0555 -22.00429,28.52726 -4.82468,4.92109 -14.18509,10.70691 -29.33382,18.1317 -18.71689,9.17363 -20.87754,9.80134 -34.76543,10.09999 -6.45644,0.13883 -13.28372,-0.13019 -15.17174,-0.59783 l 0,0 z m 51.21613,-26.62815 c 3.06002,-2.005 9.01514,-10.84667 13.15685,-19.53419 6.3144,-13.24491 7.81802,-23.7044 4.01223,-27.90976 -1.96953,-2.17631 -5.07843,-2.23064 -6.98662,-0.12211 -2.43618,2.69194 -17.10588,36.50056 -17.56251,40.47555 -0.29611,2.57769 0.0508,4.44018 1.1352,6.09524 1.7884,2.72944 3.2441,2.96144 6.24485,0.99527 l 0,0 z m -24.88314,-64.16672 c 5.78089,-1.78633 11.42499,-3.82745 12.54245,-4.53581 3.00174,-1.9028 2.75276,-6.73184 -0.53691,-10.41361 -3.44703,-3.8579 -6.80146,-3.65224 -16.4378,1.00778 -4.14505,2.0045 -8.03686,3.64455 -8.64847,3.64455 -3.3973,0 -5.31456,7.50202 -3.01524,11.79834 1.32429,2.47445 4.05379,2.21987 16.09597,-1.50125 l 0,0 z"
             style="color:#000000;fill:#ffffff;fill-opacity:1;stroke:none;stroke-width:1;marker:none;visibility:visible;display:inline;overflow:visible;enable-background:accumulate" />
          <path
             transform="translate(0,540.36218)"
             inkscape:connector-curvature="0"
             id="path3155"
             d="m 372.93827,352.98213 c -8.07432,-1.37196 -17.09199,-4.60927 -21.81704,-7.83224 -18.89496,-12.88833 -34.44442,-30.21618 -44.42715,-49.50827 -9.86237,-19.05949 -15.15166,-32.51332 -17.74265,-45.13025 l -1.1086,-5.39832 3.47531,-3.00417 c 4.10989,-3.55272 10.4266,-6.51664 13.88828,-6.51664 3.49863,0 6.28869,2.52432 10.22005,9.24663 3.3032,5.64823 8.87502,11.45834 31.56155,32.91138 6.17743,5.84155 10.50318,10.96247 14.62278,17.31076 8.52999,13.14469 10.99865,14.17474 15.03059,6.2715 4.36954,-8.56502 0.41576,-14.68068 -25.96148,-40.15689 -13.73333,-13.26422 -21.27466,-21.24087 -23.0506,-24.38122 -1.45171,-2.56703 -3.22885,-5.15646 -3.94921,-5.7543 -2.33273,-1.936 -1.47453,-5.2424 2.472,-9.52388 2.07995,-2.25648 4.87878,-4.88386 6.21964,-5.83863 l 2.43791,-1.73595 5.86176,2.65785 c 3.22397,1.46182 7.84101,3.14552 10.26008,3.74157 2.41907,0.59605 5.19984,1.63013 6.17949,2.29796 0.97964,0.66784 2.47144,1.21424 3.3151,1.21424 0.84367,0 4.30881,2.54317 7.70031,5.65149 3.39151,3.10832 11.24574,9.67858 17.45386,14.60057 6.20811,4.92199 14.5611,12.23279 18.56219,16.24621 6.62826,6.64869 7.68363,8.22268 11.87625,17.71233 2.53084,5.72835 6.70072,14.05851 9.26639,18.51147 6.72334,11.66892 8.46441,17.34317 7.8872,25.70474 -1.0861,15.73344 -6.31026,22.98641 -20.05194,27.83911 -9.57841,3.3825 -28.98627,4.7653 -40.18207,2.86295 l 0,0 z m -22.03422,-26.35962 c 4.1241,-7.97515 -2.03099,-35.52733 -9.79568,-43.84861 -5.93442,-6.35982 -10.24238,2.4792 -7.39482,15.1726 0.82976,3.69881 2.21228,10.03102 3.07226,14.07158 1.6628,7.81258 4.12647,12.7014 7.89429,15.66517 3.19336,2.5119 4.49081,2.29077 6.22395,-1.06074 z m 51.32288,-52.179 c 1.84097,-0.69993 2.31628,-1.49255 2.31628,-3.86257 0,-1.64005 -0.61304,-3.85715 -1.3623,-4.92688 -1.77737,-2.53755 -9.92161,-5.56928 -18.86827,-7.02381 -10.88881,-1.77027 -14.98636,-0.0699 -14.98636,6.21908 0,4.46349 1.90568,7.49998 5.75959,9.17729 3.34797,1.45712 23.58739,1.768 27.14106,0.41689 z"
             style="color:#000000;fill:#ffffff;fill-opacity:1;stroke:none;stroke-width:1;marker:none;visibility:visible;display:inline;overflow:visible;enable-background:accumulate" />
        </g>
      </g>
    </g>
  </g>
</svg>
