<?xml version="1.0" encoding="UTF-8" standalone="no"?>
<!-- Created with Inkscape (http://www.inkscape.org/) -->

<svg
   xmlns:dc="http://purl.org/dc/elements/1.1/"
   xmlns:cc="http://creativecommons.org/ns#"
   xmlns:rdf="http://www.w3.org/1999/02/22-rdf-syntax-ns#"
   xmlns:svg="http://www.w3.org/2000/svg"
   xmlns="http://www.w3.org/2000/svg"
   xmlns:sodipodi="http://sodipodi.sourceforge.net/DTD/sodipodi-0.dtd"
   xmlns:inkscape="http://www.inkscape.org/namespaces/inkscape"
   width="512"
   height="512"
   id="svg2"
   version="1.1"
   inkscape:version="0.48.4 r9939"
   sodipodi:docname="13.svg">
  <defs
     id="defs4" />
  <sodipodi:namedview
     id="base"
     pagecolor="#ffffff"
     bordercolor="#666666"
     borderopacity="1.0"
     inkscape:pageopacity="0.0"
     inkscape:pageshadow="2"
     inkscape:zoom="1.1074219"
     inkscape:cx="146.28572"
     inkscape:cy="256"
     inkscape:document-units="px"
     inkscape:current-layer="layer1"
     showgrid="false"
     inkscape:window-width="1276"
     inkscape:window-height="782"
     inkscape:window-x="0"
     inkscape:window-y="14"
     inkscape:window-maximized="0" />
  <metadata
     id="metadata7">
    <rdf:RDF>
      <cc:Work
         rdf:about="">
        <dc:format>image/svg+xml</dc:format>
        <dc:type
           rdf:resource="http://purl.org/dc/dcmitype/StillImage" />
        <dc:title />
      </cc:Work>
    </rdf:RDF>
  </metadata>
  <g
     inkscape:label="Layer 1"
     inkscape:groupmode="layer"
     id="layer1"
     transform="translate(0,-540.36218)">
    <path
       style="fill:#000000"
       d=""
       id="path3133"
       inkscape:connector-curvature="0" />
    <path
       style="fill:#000000"
       d="m 257.9795,1047.8873 c -2.78782,-2.6041 -5.08001,-6.0926 -5.09374,-7.7522 -0.0487,-5.896 -2.91003,-7.8081 -13.35247,-8.9233 -10.0285,-1.0711 -24.13293,-5.0123 -29.05585,-8.119 -1.34644,-0.8498 -4.65134,-2.5822 -7.34422,-3.8498 -5.50334,-2.5907 -29.38349,-25.35143 -34.04132,-32.44563 -2.36403,-3.60058 -3.88023,-4.4057 -6.87931,-3.65298 -6.52997,1.63892 -17.49638,9.99222 -27.84752,21.21191 -5.44407,5.9009 -10.74254,10.7289 -11.77435,10.7289 -1.03182,0 -3.42139,-1.5453 -5.31014,-3.4341 -2.62003,-2.62 -3.19472,-4.6309 -2.42433,-8.4829 1.47524,-7.37625 4.7672,-11.63046 15.05372,-19.45401 15.04048,-11.43926 19.13127,-14.03159 23.94128,-15.17167 l 4.57567,-1.08453 -1.03027,-15.7636 c -0.56665,-8.66997 -1.35911,-16.79025 -1.76102,-18.04508 -1.08273,-3.38044 -27.91297,-1.2102 -37.16928,3.00654 -8.26332,3.76438 -26.116718,6.93533 -31.475448,5.59037 -2.06567,-0.51845 -5.96141,-0.17373 -8.65721,0.76604 -3.917622,1.36568 -5.416404,1.19371 -7.466896,-0.85678 -1.410988,-1.41097 -2.15597,-3.63242 -1.655535,-4.93655 0.500436,-1.3041 0.909884,-3.03052 0.909884,-3.8365 0,-0.80597 2.93769,-2.9641 6.528206,-4.79584 3.590511,-1.83175 6.528191,-3.87719 6.528191,-4.54541 0,-0.66825 -3.297961,-4.41112 -7.328801,-8.31751 -9.874064,-9.56921 -13.675321,-16.13857 -15.869596,-27.42589 -2.775333,-14.27625 -2.175033,-21.6763 2.572503,-31.71176 2.367957,-5.00548 4.305397,-9.87855 4.305397,-10.82904 0,-0.95049 2.615279,-4.85845 5.811747,-8.68437 3.196456,-3.82592 6.981893,-9.21995 8.41207,-11.98677 2.98032,-5.76569 9.5018,-14.13733 20.049228,-25.73728 9.00073,-9.89889 46.43748,-35.37384 62.01492,-42.19987 9.81878,-4.3026 9.98947,-5.28235 3.62846,-20.82617 -7.7887,-19.03259 -8.7037,-33.05688 -3.61969,-55.47986 l 3.67642,-16.21483 -3.37327,-4.70483 c -1.85532,-2.58764 -4.21466,-8.00971 -5.24299,-12.04903 -1.02831,-4.03932 -4.06357,-10.79542 -6.745,-15.01357 -3.28708,-5.17087 -5.6784,-12.08267 -7.34048,-21.21665 -1.35585,-7.45101 -2.79397,-15.2312 -3.19581,-17.2893 -0.90285,-4.624 -4.96829,-6.36993 -8.98766,-3.8598 -4.83744,3.02102 -10.36685,2.20307 -14.4438,-2.13665 -3.28288,-3.49444 -3.66214,-5.16509 -2.87136,-12.64838 1.5447,-14.61772 3.35916,-17.59841 10.71287,-17.59841 3.86313,0 8.50245,1.44087 11.87275,3.68739 3.04255,2.02806 7.48623,4.55302 9.87483,5.61103 3.31401,1.46788 4.96629,4.06791 6.97403,10.9743 1.4471,4.97786 2.18764,10.81754 1.64565,12.97706 -1.31005,5.21959 6.9915,38.15775 11.07463,43.94102 1.77248,2.5105 3.61065,7.45698 4.08482,10.99216 1.27578,9.51161 3.94244,10.83985 10.49294,5.22637 9.81396,-8.41005 15.08061,-11.37387 26.66702,-15.00686 22.5351,-7.06603 46.00775,-8.31633 75.06046,-3.99817 16.29008,2.42123 33.47087,8.6444 33.47087,12.12374 0,1.01312 1.21098,1.60455 2.69106,1.31433 3.15561,-0.61876 7.06265,-11.6863 11.99723,-33.98471 1.8871,-8.52746 4.23102,-17.70774 5.2087,-20.40063 0.97768,-2.69288 2.9598,-14.59374 4.40472,-26.44637 1.4449,-11.85261 3.49029,-22.41017 4.54526,-23.4612 4.78537,-4.76751 23.37863,4.60167 23.37863,11.78052 0,4.53044 -4.15183,11.99702 -10.70349,19.24891 -4.16201,4.60684 -5.89416,8.29136 -6.66769,14.18295 -0.57474,4.37762 -2.34822,10.56394 -3.94103,13.74738 -1.59282,3.18345 -3.3864,8.69162 -3.98574,12.24037 -0.59934,3.54876 -1.87376,9.00434 -2.83203,12.12349 -3.7451,12.19021 -7.24902,31.44358 -6.48372,35.62704 0.44261,2.41954 2.07298,6.23523 3.62301,8.47929 1.55006,2.24407 4.69916,9.58829 6.998,16.3205 3.79824,11.12324 4.06675,13.58095 2.94199,26.92883 -0.68075,8.07865 -2.09822,16.29263 -3.14991,18.25327 -3.05678,5.69863 -2.36538,6.981 5.84005,10.83174 19.95755,9.36595 52.52999,31.76796 54.803,37.69129 0.46155,1.20283 4.53272,4.5803 9.04702,7.50545 7.24034,4.69159 13.26434,12.67002 13.26434,17.56788 0,0.87647 1.1032,2.50916 2.45156,3.62818 3.08096,2.55698 16.62275,30.42379 19.61359,40.36158 1.23242,4.09503 2.71861,11.26998 3.30262,15.94432 0.98617,7.89299 0.70155,8.90917 -3.99271,14.25563 -2.78,3.16626 -5.05456,6.98159 -5.05456,8.47851 0,6.26887 -5.24806,12.66542 -13.57059,16.54034 -4.65416,2.16695 -9.7838,3.94709 -11.39922,3.95585 -3.6662,0.0199 -12.56734,4.52364 -12.56734,6.35873 0,1.6352 13.61913,3.41568 26.27728,3.43533 16.20369,0.0251 22.65165,4.42443 20.76221,14.16554 -0.50555,2.60638 -2.43946,3.01445 -15.24099,3.21596 -8.06408,0.12697 -19.43572,-0.85872 -25.2703,-2.19035 -34.14027,-7.79175 -37.30645,-8.20411 -38.21196,-4.97665 -0.3148,1.12203 -1.46786,5.34496 -2.56233,9.38429 -1.09448,4.03932 -3.49705,10.80529 -5.33903,15.0355 -4.48018,10.28901 -2.57024,12.70935 10.0292,12.70935 7.13864,0 10.56586,0.91887 15.21805,4.08013 5.03349,3.42032 7.90863,4.08012 17.78001,4.08012 9.71091,0 13.03432,0.73768 18.95481,4.2073 7.34786,4.30615 10.33566,8.9623 9.00825,14.03835 -1.11516,4.26438 -5.38198,4.91337 -14.37259,2.1861 -4.43098,-1.34413 -11.44168,-2.45182 -15.57933,-2.46154 -5.20235,-0.0115 -10.57355,-1.59096 -17.41225,-5.11795 -9.39704,-4.84642 -10.50291,-5.04279 -22.21747,-3.94506 l -12.3282,1.15525 -8.45008,9.75408 c -4.84205,5.58925 -11.8046,11.45393 -16.30637,13.73513 -4.32095,2.1896 -8.62904,5.425 -9.57354,7.1899 -0.95328,1.7811 -4.7913,4.0118 -8.62687,5.0139 -3.80026,0.9929 -11.31611,3.1692 -16.70188,4.8361 -5.38576,1.667 -12.72999,3.5167 -16.3205,4.1105 -9.23626,1.5275 -10.24513,2.845 -9.3458,12.2045 1.27244,13.2425 -3.70667,16.5564 -12.51427,8.3288 z m -10.42099,-37.3317 c 4.45041,-2.2769 6.11717,-2.3777 10.87378,-0.6577 7.68872,2.7803 22.80449,0.2242 40.29066,-6.8131 14.31407,-5.76078 18.93282,-9.72289 14.57365,-12.50178 -1.34644,-0.85834 -4.51601,-1.57185 -7.0435,-1.5856 -2.52749,-0.013 -5.96418,-0.75751 -7.6371,-1.65282 -2.40391,-1.28655 -3.67114,-0.82761 -6.0439,2.18887 -3.88428,4.93808 -7.83017,6.90132 -16.54895,8.23386 -6.3329,0.96787 -7.67443,0.56067 -12.70518,-3.85637 -6.10683,-5.36187 -13.59359,-6.51711 -16.84512,-2.59925 -4.14889,4.99909 -30.03788,8.78109 -38.0878,5.56409 -2.49726,-0.99798 -5.04176,-1.31323 -5.65446,-0.70053 -2.48922,2.48923 3.03345,6.86153 16.04242,12.70073 14.66111,6.5808 18.74024,6.8188 28.7855,1.6796 z m -50.56148,-38.91677 c 2.01087,-1.2679 5.68298,-2.2388 8.16025,-2.15754 9.26452,0.30388 24.18474,-2.23975 26.87908,-4.58239 1.7754,-1.54369 4.30339,-2.04638 6.95027,-1.38203 2.47828,0.622 6.10083,0.0405 8.96101,-1.43863 5.24564,-2.71264 14.04625,-3.31845 15.44028,-1.06287 0.48263,0.78092 4.97545,3.49323 9.98404,6.02733 l 9.10652,4.60748 3.57669,-4.23147 c 6.77624,-8.01678 11.23719,-9.70482 23.11957,-8.74852 12.89963,1.03819 12.92109,1.04913 18.08088,9.22278 8.60371,13.62914 15.73976,5.545 22.15441,-25.09777 1.72095,-8.22101 1.63999,-9.79565 -0.61992,-12.05555 -3.83715,-3.83715 -7.74866,-1.548 -7.74866,4.53479 l 0,5.15825 -11.74229,-1.15706 c -6.45827,-0.63638 -13.23149,-2.20012 -15.0516,-3.47497 -1.82011,-1.27487 -6.04901,-2.31792 -9.39756,-2.31792 -3.34856,0 -7.97269,-0.85861 -10.27587,-1.90801 -3.71588,-1.69305 -4.73569,-1.38288 -9.05307,2.75342 -2.676,2.5638 -4.86546,6.21319 -4.86546,8.10979 0,4.7435 -3.04737,7.3653 -8.56085,7.3653 -4.38144,0 -6.17786,-1.39845 -14.93504,-11.62643 -2.08446,-2.43457 -3.97116,-2.88405 -8.8386,-2.10571 -4.01069,0.64134 -8.38245,0.0728 -12.42306,-1.61542 -9.87126,-4.12448 -25.11239,-2.6606 -38.3322,3.68175 -3.7645,1.80605 -8.6531,2.49324 -15.09646,2.12208 l -9.5291,-0.5489 0,7.43317 c 0,10.01738 5.84718,25.3323 10.35924,27.13293 3.96819,1.58358 8.33663,0.7423 13.6975,-2.63788 z m -39.9532,-68.16355 c 21.76448,-10.59846 28.42825,-15.74979 37.1863,-28.74634 2.11711,-3.1417 6.5759,-9.01708 9.90841,-13.05641 5.93449,-7.19315 16.3774,-27.85041 21.45138,-42.4333 3.50918,-10.08564 7.86292,-29.48359 6.9492,-30.96201 -0.41221,-0.66699 -5.32693,-2.1841 -10.92162,-3.37136 l -10.17212,-2.15868 -15.58043,16.30051 c -8.56924,8.96529 -20.54367,20.8708 -26.60983,26.45672 -9.4889,8.73767 -11.48347,9.91319 -14.28044,8.41628 -3.45526,-1.84919 -4.21005,-6.58645 -1.77123,-11.11664 0.81391,-1.51183 11.09582,-12.5438 22.8487,-24.5155 11.7529,-11.97169 21.36889,-22.65753 21.36889,-23.74632 0,-9.3124 -24.0116,-7.28895 -39.98522,3.36955 -4.48815,2.99472 -12.0714,8.19396 -16.85169,11.55385 -4.78027,3.35988 -10.2792,7.21051 -12.21984,8.55695 -5.8108,4.03162 -22.33805,21.81639 -22.33805,24.03772 0,1.13522 -4.77375,6.98079 -10.608328,12.99016 -5.83457,6.00938 -10.63136,11.70364 -10.65953,12.65392 -0.0283,0.95026 -2.23144,6.1156 -4.896153,11.47853 -6.296545,12.67221 -6.426717,21.9883 -0.467677,33.47406 8.60176,16.57953 21.966158,23.38932 43.376218,22.10222 11.51187,-0.69207 14.63098,-1.71899 34.27306,-11.28391 z m -7.03149,-19.10212 c -2.03359,-3.79981 -1.41796,-5.84124 7.59851,-25.19678 2.93933,-6.30985 6.11105,-13.48929 7.04826,-15.95432 3.97576,-10.45704 12.59798,-5.62759 10.78579,6.04129 -1.38566,8.92232 -6.98503,21.65212 -13.53446,30.76974 -6.08627,8.47284 -9.0983,9.57154 -11.8981,4.34007 z m -34.1762,-61.0326 c -2.44815,-2.94983 -0.84531,-10.62953 2.21848,-10.62953 1.19566,0 5.62706,-1.83606 9.84759,-4.08012 9.65717,-5.13478 13.26107,-5.13751 16.61903,-0.013 2.79915,4.27206 2.18399,8.70632 -1.32885,9.57878 -1.14239,0.28373 -6.85082,2.10329 -12.6854,4.04345 -12.61338,4.19431 -12.13275,4.15827 -14.67085,1.10003 z m 169.05381,84.8454 c 2.42139,-2.24407 6.20893,-4.08012 8.41676,-4.08012 2.20782,0 6.19623,-1.83606 8.86318,-4.08013 2.66691,-2.24408 6.46524,-4.08012 8.44071,-4.08012 4.97346,0 10.28154,4.05602 11.4617,8.75818 0.54363,2.166 2.21655,4.40945 3.71757,4.98545 2.78889,1.0702 16.86645,-3.85038 16.87751,-5.89925 0.003,-0.62254 -3.11278,-3.56023 -6.92478,-6.5282 -3.81199,-2.96797 -13.26147,-11.71052 -20.99885,-19.42787 -10.28632,-10.2597 -15.55231,-14.31483 -19.58991,-15.08542 -3.03707,-0.57964 -7.46935,-1.49787 -9.84948,-2.04049 -3.46961,-0.79102 -4.54882,-0.28936 -5.44382,2.53052 -1.33269,4.19898 -6.93081,6.59427 -15.41159,6.59427 -3.73063,0 -7.85536,1.30065 -10.35149,3.2641 -5.70457,4.48721 -9.5717,4.0956 -14.94553,-1.51346 -2.51746,-2.62767 -6.8084,-5.70177 -9.53542,-6.83134 -4.75473,-1.96948 -5.18636,-1.79014 -10.51724,4.36955 -3.05746,3.53283 -7.24978,8.99381 -9.31625,12.13551 -2.06647,3.14169 -7.14038,9.75149 -11.27536,14.68845 -8.49801,10.14619 -7.98918,11.87904 4.0873,13.91934 5.31558,0.89806 7.17228,0.47204 10.15498,-2.33004 2.17758,-2.04575 5.81038,-3.42905 9.00523,-3.42905 2.94534,0 7.50322,-1.26889 10.12862,-2.81974 3.90949,-2.30941 5.35414,-2.4571 7.9819,-0.81603 1.76466,1.10204 4.96457,2.00372 7.11091,2.00372 2.14632,0 4.80057,1.08219 5.89831,2.40489 1.09773,1.32268 4.67616,2.88571 7.95206,3.47336 3.27591,0.58766 7.05783,1.68641 8.40428,2.44164 4.62826,2.59604 11.23005,1.4966 15.6587,-2.60772 z m 123.88157,-15.6859 c 17.12472,-4.4299 23.7488,-12.16346 24.97837,-29.16211 0.72254,-9.98896 -1.23687,-16.15583 -8.85965,-27.88427 -2.58191,-3.9725 -6.53042,-12.07565 -8.77449,-18.00698 -3.49508,-9.2379 -5.83526,-12.36501 -16.3205,-21.80854 -6.7322,-6.06336 -14.81086,-12.70331 -17.95256,-14.75546 -3.14168,-2.05213 -8.6153,-6.74661 -12.16358,-10.43215 -3.54827,-3.68556 -7.72785,-6.70102 -9.28796,-6.70102 -1.56011,0 -3.29046,-0.73442 -3.84522,-1.63205 -0.55477,-0.89762 -2.62866,-1.63205 -4.60864,-1.63205 -1.97997,0 -6.3405,-1.46885 -9.69005,-3.2641 -3.34957,-1.79526 -6.73488,-3.2641 -7.52293,-3.2641 -0.78807,0 -4.09563,2.43901 -7.35015,5.42003 -5.86323,5.37051 -7.45614,9.75678 -4.26054,11.73176 0.91123,0.56318 2.65177,3.40532 3.86788,6.31585 1.21609,2.91053 8.70097,11.12257 16.63303,18.24896 21.82657,19.6096 28.02659,26.15727 31.83256,33.61761 3.29862,6.4658 3.34086,7.09706 0.82761,12.36737 -3.70005,7.7591 -7.23513,6.38883 -13.33776,-5.17002 -2.80099,-5.30528 -7.95532,-12.13325 -11.45404,-15.17325 -12.88584,-11.1963 -33.18168,-30.67453 -33.23511,-31.89621 -0.0304,-0.69247 -1.9887,-4.18098 -4.35205,-7.75224 -3.09051,-4.67012 -5.43385,-6.49321 -8.34604,-6.49321 -5.39968,0 -16.45664,6.34779 -17.65974,10.13844 -1.02896,3.242 6.66559,29.98284 9.05178,31.4576 0.78556,0.48551 2.30302,3.62658 3.37215,6.98018 3.56803,11.19186 17.70023,33.74543 26.40803,42.14449 13.30529,12.83359 27.25398,23.45482 32.02513,24.38559 2.37989,0.46427 7.26477,1.77078 10.85528,2.90332 7.33097,2.31241 29.05333,1.93337 39.16919,-0.68344 z M 342.2209,864.76881 c -2.54969,-2.90567 -4.44355,-6.99175 -4.44355,-9.5871 0,-2.48773 -1.10164,-7.6455 -2.44807,-11.46173 -3.23556,-9.17055 -3.15042,-18.60204 0.19299,-21.37681 2.2838,-1.89541 3.16593,-1.53611 6.52135,2.65625 7.12666,8.90419 12.62737,34.3993 8.9175,41.3313 -2.4724,4.6197 -3.47283,4.44091 -8.74022,-1.56191 z m 35.3041,-49.89128 c -9.2956,-1.90283 -11.46013,-14.06807 -2.88598,-16.22004 5.64403,-1.41655 25.46267,3.61235 28.07391,7.12366 1.15592,1.55433 1.89034,4.30024 1.63205,6.102 -0.41548,2.89845 -1.78611,3.30102 -11.89396,3.49356 -6.28339,0.11963 -13.0001,-0.10496 -14.92602,-0.49918 z m -93.30297,24.73199 c 0.46551,-0.4655 -2.98042,-11.98663 -7.6576,-25.60253 -8.97139,-26.11691 -9.66309,-27.0681 -19.84809,-27.29404 -9.39881,-0.20852 -10.33379,0.88584 -10.33379,12.09507 0,5.62569 -1.00769,13.08465 -2.23934,16.57546 -1.23163,3.49082 -2.76401,9.45256 -3.40531,13.24832 -1.08722,6.43517 -0.87378,7.01243 3.15964,8.54595 3.37013,1.28132 6.69018,0.83362 15.03024,-2.02678 l 10.70464,-3.67136 3.38218,4.48813 c 3.01881,4.00599 8.92429,5.92493 11.20743,3.64178 z m -6.01451,-72.06546 c 19.75845,-4.54121 38.35303,-15.78753 38.35313,-23.19662 3e-5,-2.29091 2.74246,-6.87277 6.65271,-11.1149 3.65895,-3.9695 7.69828,-9.71982 8.97628,-12.77848 4.35256,-10.41716 2.32869,-31.90266 -3.60293,-38.24876 -1.92632,-2.0609 -2.23371,-1.74167 -2.23371,2.31958 0,9.64996 -10.53727,14.40838 -15.41648,6.96176 -2.15018,-3.28158 -2.15459,-4.64962 -0.0377,-11.68372 3.63367,-12.07384 3.15068,-16.69178 -2.09044,-19.98724 -2.46848,-1.55211 -6.86537,-4.84302 -9.77088,-7.31318 -2.9055,-2.47015 -8.04646,-5.22952 -11.42435,-6.13192 -11.15363,-2.9797 -31.7722,-3.89851 -39.59865,-1.76459 -4.03932,1.10133 -12.23569,1.96079 -18.21414,1.90991 -12.61983,-0.10741 -17.10296,2.38867 -32.48496,18.08659 -5.0575,5.16135 -10.04041,9.38428 -11.07314,9.38428 -2.55948,0 -2.35708,3.85367 0.57038,10.86005 4.79994,11.48787 2.13434,18.55917 -6.02042,15.97095 -6.2812,-1.99357 -7.65788,1.57058 -5.17741,13.40388 3.25165,15.51235 7.41814,23.83453 17.01051,33.97707 20.22876,21.38892 48.69451,27.82345 85.58211,19.34534 z"
       id="path4319"
       inkscape:connector-curvature="0" />
  </g>
</svg>
