<?xml version="1.0" encoding="UTF-8" standalone="no"?>
<!-- Created with Inkscape (http://www.inkscape.org/) -->

<svg
   xmlns:dc="http://purl.org/dc/elements/1.1/"
   xmlns:cc="http://creativecommons.org/ns#"
   xmlns:rdf="http://www.w3.org/1999/02/22-rdf-syntax-ns#"
   xmlns:svg="http://www.w3.org/2000/svg"
   xmlns="http://www.w3.org/2000/svg"
   xmlns:sodipodi="http://sodipodi.sourceforge.net/DTD/sodipodi-0.dtd"
   xmlns:inkscape="http://www.inkscape.org/namespaces/inkscape"
   width="512"
   height="512"
   id="svg2"
   version="1.1"
   inkscape:version="0.48.4 r9939"
   sodipodi:docname="16.svg">
  <defs
     id="defs4" />
  <sodipodi:namedview
     id="base"
     pagecolor="#ffffff"
     bordercolor="#666666"
     borderopacity="1.0"
     inkscape:pageopacity="0.0"
     inkscape:pageshadow="2"
     inkscape:zoom="1.1074219"
     inkscape:cx="146.28572"
     inkscape:cy="256"
     inkscape:document-units="px"
     inkscape:current-layer="layer1"
     showgrid="false"
     inkscape:window-width="1276"
     inkscape:window-height="782"
     inkscape:window-x="0"
     inkscape:window-y="14"
     inkscape:window-maximized="0" />
  <metadata
     id="metadata7">
    <rdf:RDF>
      <cc:Work
         rdf:about="">
        <dc:format>image/svg+xml</dc:format>
        <dc:type
           rdf:resource="http://purl.org/dc/dcmitype/StillImage" />
        <dc:title />
      </cc:Work>
    </rdf:RDF>
  </metadata>
  <g
     inkscape:label="Layer 1"
     inkscape:groupmode="layer"
     id="layer1"
     transform="translate(0,-540.36218)">
    <path
       style="fill:#000000"
       d=""
       id="path3133"
       inkscape:connector-curvature="0" />
    <path
       style="fill:#000000"
       d="m 57.637247,989.27175 c -29.64202,-6.12466 -35.884964,-8.66934 -45.436276,-18.52016 -8.5184105,-8.78552 -8.7198535,-9.25903 -8.7098485,-20.47342 0.01469,-17.14146 2.789072,-24.53741 13.4640995,-35.90026 5.507904,-5.8628 8.551272,-10.40573 7.270629,-10.85305 -4.926815,-1.72101 -11.831991,-8.58078 -15.0116295,-14.91295 -1.856941,-3.69805 -4.727632,-9.20207 -6.37929,-12.23115 -4.177715,-7.66167 -3.77148605,-15.29689 1.440872,-27.08297 4.556937,-10.30403 13.2641045,-17.8927 20.5335605,-17.89585 3.722176,-10e-4 19.923852,-5.75853 21.972945,-7.80762 0.685639,-0.68564 -1.450344,-4.31826 -4.746631,-8.07254 C 30.708883,802.62127 26.502109,787.289 31.025193,775.39237 c 2.143179,-5.63697 18.400626,-24.70293 21.104626,-24.75048 1.009695,-0.0184 4.081647,-1.88694 6.826563,-4.15374 l 4.990778,-4.12145 -3.553973,-10.09695 c -1.954699,-5.55332 -3.580953,-12.26598 -3.613906,-14.91699 -0.08132,-6.53895 7.730078,-23.63322 13.051651,-28.56197 5.955167,-5.51557 22.483747,-12.92705 34.619458,-15.52351 5.55331,-1.18814 10.76486,-2.73874 11.58122,-3.44579 0.81634,-0.70705 -0.0919,-5.77011 -2.0184,-11.25122 -2.99449,-8.51989 -3.18471,-11.04244 -1.31124,-17.38757 4.53522,-15.3598 15.51786,-24.85769 35.80783,-30.9669 25.06648,-7.54739 29.98558,-8.21512 67.54354,-9.16836 32.173,-0.81657 42.16768,-0.39809 62.04848,2.59791 22.02747,3.31953 24.02157,3.95652 28.28756,9.03613 9.6039,11.43565 13.0047,18.68456 11.79382,25.13902 -1.08,5.757 -0.72305,6.30652 5.92014,9.11391 4.48901,1.89705 9.53696,2.60373 13.82944,1.936 12.2839,-1.91076 23.84129,5.58837 31.14215,20.20693 3.79956,7.60787 4.11362,21.30163 0.71982,31.38564 -1.08193,3.21473 -0.32158,4.51991 3.90705,6.70659 2.88772,1.4933 9.07253,3.28828 13.74402,3.9888 9.44476,1.41633 11.90749,2.8093 31.38004,17.74933 20.6942,15.87732 22.21443,26.69326 6.50897,46.30935 -5.46052,6.82018 -5.56724,7.26355 -2.31996,9.638 1.87212,1.36894 4.79318,2.48897 6.49123,2.48897 5.0335,0 18.95299,6.82658 23.20121,11.37858 5.01233,5.37083 13.90931,23.02422 12.63934,25.07904 -0.52902,0.85599 10e-4,4.10854 1.17895,7.22793 1.84159,4.87892 1.54205,6.94997 -2.143,14.81775 -2.3561,5.03034 -3.8131,10.37279 -3.23775,11.87211 0.57534,1.49931 5.83982,4.1196 11.69887,5.82285 14.74145,4.28546 18.53942,6.51615 29.55315,17.35749 9.02764,8.88636 9.60313,10.00039 9.60313,18.58923 0,11.83733 -3.90142,20.9443 -10.41561,24.31292 -2.85859,1.47822 -6.73835,4.39038 -8.62168,6.47144 -4.39541,4.85685 -36.77076,14.67024 -42.46232,12.87088 -1.00969,-0.31921 -6.42419,1.68808 -12.0322,4.46065 -7.9356,3.92331 -14.46169,5.41577 -29.43316,6.73113 -10.58023,0.92957 -21.53528,2.56401 -24.34455,3.63209 -2.80927,1.06808 -10.21718,1.95418 -16.46205,1.96909 -6.24485,0.0148 -16.31098,1.18655 -22.36915,2.60361 -6.05817,1.41704 -20.51518,3.07352 -32.12667,3.68104 -11.61148,0.60754 -24.41625,2.02266 -28.45504,3.14472 -4.03877,1.12207 -14.77826,2.24277 -23.86552,2.49044 -14.02779,0.3823 -44.18363,3.92802 -101.8874,11.9799 -17.30136,2.4142 -25.92389,3.37235 -49.56684,5.50793 -11.611481,1.04883 -24.416261,2.22957 -28.455041,2.62386 -4.03878,0.39429 -14.778273,-0.81932 -23.865522,-2.69695 z M 143.00237,965.5117 c 10.60181,-0.80227 22.58046,-2.34827 26.61924,-3.43558 4.03878,-1.0873 10.33571,-2.45017 13.99319,-3.02862 6.26998,-0.99159 6.70103,-1.50485 7.54385,-8.98238 0.66937,-5.93859 3.0339,-10.55803 9.41338,-18.3903 4.68572,-5.75278 8.51948,-11.21875 8.51948,-12.1466 0,-3.65924 16.01372,-10.64957 27.53712,-12.02058 23.06192,-2.7438 31.92257,-1.64318 44.81499,5.56667 13.00344,7.27193 17.12526,12.28726 20.31339,24.71671 l 2.14189,8.35049 9.04743,-0.13475 c 21.82939,-0.32533 56.87703,-2.75648 62.97608,-4.36852 11.32801,-2.99407 31.91702,-7.17382 41.49034,-8.4229 5.02477,-0.65561 12.41712,-2.86596 16.42745,-4.91187 4.01032,-2.04591 13.42695,-4.48156 20.92584,-5.41256 20.76352,-2.57785 38.87586,-12.69742 38.87586,-21.72042 0,-4.27862 -2.0946,-6.84407 -11.31011,-13.85251 -13.88207,-10.5574 -19.15664,-11.4265 -74.15774,-12.21901 -30.4743,-0.43912 -41.68584,0.0906 -54.05363,2.55328 -8.5824,1.70901 -23.45246,4.50147 -33.04457,6.20548 -9.5921,1.704 -20.33157,4.61356 -23.86552,6.46565 -7.09616,3.71903 -24.55471,8.89002 -30.29084,8.97177 -2.0194,0.0288 -18.12862,0.25456 -35.79828,0.50173 -17.66966,0.24716 -33.26782,1.18481 -34.66256,2.08362 -2.16437,1.39483 -32.95622,4.26638 -79.15761,7.38201 -6.56301,0.44257 -18.128621,2.19373 -25.701331,3.89146 -7.57271,1.69771 -17.52777,3.65583 -22.122357,4.35141 -4.594586,0.69557 -11.462202,3.18578 -15.261374,5.53379 -5.083117,3.14154 -8.553494,4.00201 -13.139198,3.25786 -5.417913,-0.87919 -6.960949,-0.18064 -11.81681,5.34993 -4.214521,4.80005 -5.585192,8.1476 -5.585192,13.64053 0,7.86384 4.840056,14.58855 10.555902,14.66626 1.766966,0.024 9.821579,2.09536 17.899139,4.60297 13.821436,4.2908 16.362474,4.49615 43.14152,3.48649 15.650281,-0.59007 37.129231,-1.72926 47.731031,-2.53151 z m -11.01486,-78.38188 c 8.71064,-1.45531 15.94726,-1.98474 43.67457,-3.19515 9.38042,-0.40946 19.2938,-1.59749 22.0297,-2.64003 2.7359,-1.04254 16.53999,-2.26849 30.67571,-2.72433 16.85596,-0.54355 28.22857,-1.79777 33.04456,-3.64431 9.61269,-3.68572 18.78981,-5.14522 36.7162,-5.83923 8.07755,-0.31272 19.23009,-1.88035 24.78341,-3.48363 18.00914,-5.19933 60.41214,-10.59826 78.45242,-9.9889 l 16.95282,0.57263 8.27583,-8.01991 c 5.97276,-5.78805 9.31812,-7.74731 12.02119,-7.04044 6.03678,1.57864 9.75763,-5.81888 7.8308,-15.56859 -1.3226,-6.69236 -2.69759,-8.52278 -8.85204,-11.78396 -4.0074,-2.12353 -12.14403,-6.50882 -18.0814,-9.74508 -10.22566,-5.57375 -12.01751,-5.92199 -33.96247,-6.60101 -46.00388,-1.42338 -52.66885,-1.315 -60.80134,0.98871 -4.54363,1.28709 -10.24043,2.21298 -12.65956,2.05753 -2.41914,-0.15549 -10.68027,0.9688 -18.35809,2.49835 -7.67783,1.52954 -20.98163,3.59416 -29.56404,4.58808 -8.58241,0.99388 -20.14801,2.61109 -25.70133,3.5938 -5.55333,0.98271 -17.94503,2.66492 -27.53714,3.73823 -9.59212,1.07332 -19.91854,2.73044 -22.94762,3.68249 -6.6795,2.09939 -35.30071,6.78127 -61.49959,10.06017 -21.92234,2.74368 -35.309221,5.29071 -42.802081,8.14369 -2.84239,1.08226 -8.11631,1.96775 -11.71977,1.96775 -3.603493,0 -9.952091,0.89152 -14.108012,1.98115 -4.155923,1.08963 -10.860683,2.83768 -14.899464,3.88453 -22.771173,5.90232 -29.826629,15.32121 -21.736108,29.01735 5.778632,9.78246 15.647501,13.47225 38.358444,14.34156 19.20908,0.73527 20.86911,0.50772 29.39085,-4.02876 11.524491,-6.13495 13.779921,-6.04212 19.893021,0.81878 3.91733,4.39652 6.09102,5.42151 9.94146,4.68779 2.71037,-0.51647 8.64545,-1.56012 13.18907,-2.31926 z m -28.45504,-75.00701 c 25.90934,-0.69794 56.31558,-3.92861 65.26263,-6.93411 4.49337,-1.50943 13.53948,-3.29184 20.10249,-3.96092 6.56303,-0.66907 18.12862,-2.37734 25.70133,-3.79619 20.63347,-3.8659 34.5658,-6.08778 46.81313,-7.46564 6.05817,-0.68154 12.04126,-2.05931 13.29575,-3.06171 1.33905,-1.06999 6.41356,-1.3062 12.28944,-0.57206 6.63875,0.82946 11.42498,0.49244 14.21541,-1.00096 4.05075,-2.16788 14.34179,-3.53516 53.82567,-7.1513 10.09695,-0.92473 21.92639,-2.56261 26.28763,-3.63971 8.09691,-1.9997 25.85137,-10.39871 32.45825,-15.3548 3.66188,-2.74694 3.66128,-2.76559 -0.22953,-7.03277 -2.14565,-2.35317 -4.85957,-6.13726 -6.03098,-8.40909 -1.17138,-2.27181 -3.65179,-4.13056 -5.51204,-4.13056 -1.86023,0 -4.48209,-1.32523 -5.82635,-2.94497 -2.95919,-3.56563 -9.02584,-6.02551 -20.03517,-8.12382 -4.54364,-0.866 -16.10923,-3.33605 -25.70133,-5.48902 -15.18343,-3.40794 -21.24105,-3.79086 -46.81313,-2.95912 -16.15512,0.52544 -44.65606,2.72554 -63.33542,4.88916 -18.67935,2.1636 -42.2236,4.62078 -52.32056,5.46037 -18.28988,1.52092 -40.07429,4.35283 -49.9033,6.48726 -2.84404,0.61759 -10.73935,3.59974 -17.54513,6.62701 -6.8058,3.02726 -17.95835,6.28601 -24.783421,7.24167 -29.961945,4.19531 -51.148894,25.88627 -42.140193,43.14261 6.02922,11.54911 20.996573,21.84195 28.813033,19.81431 2.52423,-0.6548 12.02454,-1.39082 21.111791,-1.63564 z m 3.2404,-86.41876 c 42.02318,-10.62531 40.07775,-10.24625 61.01293,-11.88838 36.82373,-2.88841 66.65155,-5.72282 91.79045,-8.72244 14.42205,-1.72086 39.39758,-3.07718 56.91008,-3.09052 l 31.20875,-0.0239 1.58902,-10.58137 c 2.69421,-17.94082 -1.41463,-23.24854 -18.1113,-23.39567 -4.03878,-0.0356 -14.48011,-1.13817 -23.20296,-2.45015 -12.99541,-1.9546 -19.46064,-1.95603 -35.79827,-0.007 -10.96621,1.30764 -35.22167,4.08336 -53.90102,6.1683 -45.10456,5.03445 -58.45205,6.91354 -61.11556,8.60395 -1.22093,0.77485 -7.17654,1.98405 -13.23471,2.68709 -13.0014,1.50879 -41.26878,7.37017 -50.945621,10.5638 -9.49266,3.13287 -14.22561,10.42374 -14.22561,21.91379 0,13.73198 5.79135,15.84472 28.023821,10.22337 z m 71.10988,-67.02893 c 3.53393,-0.90919 12.20812,-1.68709 19.27599,-1.72869 7.06787,-0.0417 17.80735,-1.27248 23.86552,-2.73528 6.05816,-1.46281 14.89857,-2.67255 19.64538,-2.68832 4.74679,-0.0166 13.42099,-1.28962 19.27599,-2.83077 5.855,-1.54116 15.47052,-3.3189 21.36781,-3.95055 8.82754,-0.9455 11.06435,-1.89902 12.65759,-5.39584 3.51392,-7.71218 -1.44469,-11.88219 -18.917,-15.90847 -18.1573,-4.18413 -65.02916,-6.21182 -68.9214,-2.98156 -1.73542,1.4403 -4.12988,1.42841 -8.58707,-0.0426 -5.88508,-1.94225 -13.82093,-1.35948 -38.19943,2.80519 -7.94691,1.3576 -23.55888,9.64209 -26.17644,13.89054 -1.36929,2.22241 -0.9961,5.01977 1.36961,10.26593 6.03142,13.37529 20.55769,17.16255 43.34345,11.3004 z"
       id="path4657"
       inkscape:connector-curvature="0" />
  </g>
</svg>
