<?xml version="1.0" encoding="UTF-8" standalone="no"?>
<!-- Created with Inkscape (http://www.inkscape.org/) -->

<svg
   xmlns:dc="http://purl.org/dc/elements/1.1/"
   xmlns:cc="http://creativecommons.org/ns#"
   xmlns:rdf="http://www.w3.org/1999/02/22-rdf-syntax-ns#"
   xmlns:svg="http://www.w3.org/2000/svg"
   xmlns="http://www.w3.org/2000/svg"
   xmlns:sodipodi="http://sodipodi.sourceforge.net/DTD/sodipodi-0.dtd"
   xmlns:inkscape="http://www.inkscape.org/namespaces/inkscape"
   width="512"
   height="512"
   id="svg2"
   version="1.1"
   inkscape:version="0.48.4 r9939"
   sodipodi:docname="6.svg">
  <defs
     id="defs4" />
  <sodipodi:namedview
     id="base"
     pagecolor="#ffffff"
     bordercolor="#666666"
     borderopacity="1.0"
     inkscape:pageopacity="0.0"
     inkscape:pageshadow="2"
     inkscape:zoom="1.1074219"
     inkscape:cx="146.28572"
     inkscape:cy="256"
     inkscape:document-units="px"
     inkscape:current-layer="layer1"
     showgrid="false"
     inkscape:window-width="1276"
     inkscape:window-height="782"
     inkscape:window-x="0"
     inkscape:window-y="14"
     inkscape:window-maximized="0" />
  <metadata
     id="metadata7">
    <rdf:RDF>
      <cc:Work
         rdf:about="">
        <dc:format>image/svg+xml</dc:format>
        <dc:type
           rdf:resource="http://purl.org/dc/dcmitype/StillImage" />
        <dc:title />
      </cc:Work>
    </rdf:RDF>
  </metadata>
  <g
     inkscape:label="Layer 1"
     inkscape:groupmode="layer"
     id="layer1"
     transform="translate(0,-540.36218)">
    <path
       style="fill:#000000"
       d=""
       id="path3133"
       inkscape:connector-curvature="0" />
    <path
       style="fill:#000000"
       d="m 274.77682,1025.0493 c -3.4694,-1.8232 -9.14662,-5.9373 -12.61602,-9.1424 -3.46941,-3.2051 -9.14662,-7.2721 -12.61603,-9.0378 -9.38597,-4.7768 -24.25617,-18.21184 -26.40084,-23.85272 -2.55975,-6.73267 -5.31854,-6.21907 -10.70119,1.99229 -8.59378,13.10992 -19.67005,18.92523 -40.69679,21.36693 -23.13817,2.6867 -29.90074,3.9634 -35.10157,6.6265 -7.25867,3.7168 -15.90359,0.7444 -17.29708,-5.9474 -2.12313,-10.19566 -3.66779,-30.66295 -3.37772,-44.75611 0.24144,-11.73171 1.34461,-16.30969 5.43593,-22.55862 9.0246,-13.78377 9.15536,-13.72014 -30.086721,-14.63673 -31.304499,-0.73119 -36.450007,-1.36925 -46.286701,-5.73964 -7.739679,-3.43871 -11.444332,-6.42056 -12.322135,-9.91805 -1.576057,-6.27948 3.840549,-14.94074 9.916322,-15.85638 3.407294,-0.5135 5.668632,-3.90507 9.289915,-13.93311 2.632523,-7.28989 6.306457,-14.93403 8.164314,-16.98693 4.523791,-4.99874 4.305807,-10.76075 -0.407099,-10.76075 -2.08177,0 -9.580503,-4.67007 -16.663897,-10.37792 -7.083372,-5.70785 -15.844865,-11.91169 -19.469975,-13.78631 -3.62511,-1.87462 -10.319384,-6.77668 -14.8761858,-10.89345 -13.513403,-12.20857 -10.783212,-25.91978 5.1611518,-25.91978 2.92162,0 6.281267,-1.18275 7.465891,-2.62833 1.184623,-1.44559 4.581993,-5.661 7.549703,-9.36759 2.967709,-3.70659 11.253347,-10.56655 18.412541,-15.24437 9.981106,-6.52166 15.075856,-8.50511 21.846477,-8.50511 4.856388,0 9.298198,-0.75789 9.870698,-1.68417 0.57247,-0.92632 -2.08243,-4.17633 -5.8998,-7.22228 -4.863902,-3.881 -7.692289,-8.52305 -9.452644,-15.51406 -1.381582,-5.48676 -4.392522,-12.61695 -6.690994,-15.84484 -4.579449,-6.43122 -10.289336,-25.94649 -10.289336,-35.16687 0,-3.4525 2.072603,-7.786 5.07118,-10.60302 4.324416,-4.06256 7.76653,-4.85859 23.375494,-5.40582 10.0674,-0.35295 21.24704,0.20228 24.84369,1.23373 3.596641,1.03151 8.310301,1.31339 10.474831,0.62639 3.38645,-1.07483 3.74101,-2.6135 2.5414,-11.02919 -0.76679,-5.37905 -3.65275,-16.61055 -6.41328,-24.95889 l -5.01914,-15.17879 4.91634,-16.91043 c 2.70399,-9.30075 6.08548,-18.31916 7.51444,-20.04093 4.17033,-5.02494 9.59989,-3.64817 15.35154,3.89259 3.72276,4.8808 9.35617,8.48137 18.46777,11.80363 15.71865,5.7313 31.73652,19.80548 37.58304,33.02251 2.22082,5.02051 5.00078,9.1282 6.17771,9.1282 1.17691,0 3.21457,-3.99123 4.52812,-8.86938 5.43301,-20.17666 27.13859,-54.85332 37.96017,-60.64485 3.66944,-1.96381 5.54802,-1.60053 10.44481,2.0198 3.28387,2.42788 7.0023,4.41431 8.26314,4.41431 1.26087,0 9.30379,6.75594 17.87318,15.01319 12.41579,11.96359 17.52202,18.90419 25.13785,34.1684 5.25645,10.53537 9.55246,21.10331 9.54669,23.48433 -0.007,2.38103 1.31906,6.14736 2.944,8.36961 2.86876,3.92324 3.18371,3.93117 10.85397,0.27349 4.34473,-2.07187 12.8158,-7.96715 18.82459,-13.10063 6.00883,-5.13349 11.62631,-9.33361 12.48332,-9.33361 0.85702,0 4.5398,-1.37702 8.18399,-3.06003 11.94499,-5.51666 25.41778,-10.02415 32.90917,-11.01018 6.11993,-0.80553 8.37627,0.0965 13.39746,5.3558 5.50557,5.76663 5.8301,6.92115 3.67968,13.08988 -3.04728,8.74144 -2.99032,20.6982 0.17157,36.0065 1.96516,9.51433 1.96937,14.92188 0.019,24.22099 -1.40393,6.69331 -1.71288,12.77024 -0.70065,13.78247 1.59387,1.59386 7.40697,0.98396 39.6365,-4.1585 7.22261,-1.15241 18.96574,4.54547 30.7443,14.91748 3.2972,2.90346 10.86682,6.86778 16.82137,8.80963 13.68599,4.46311 15.4158,5.8846 16.54792,13.5982 1.17102,7.97869 -2.48336,13.14924 -14.10862,19.96208 -6.20303,3.63523 -9.9766,7.62362 -11.46923,12.12219 -2.55082,7.68741 -19.6342,22.47449 -25.96466,22.47449 -4.8958,0 -28.99174,13.00789 -32.96555,17.79606 -3.39731,4.0935 -0.38452,8.14109 10.30907,13.84998 10.84331,5.78878 15.48121,10.28572 21.89425,21.2287 6.77757,11.56505 12.18015,30.90916 9.88473,35.39252 -0.90079,1.75941 -2.15991,9.24523 -2.79803,16.6352 -1.80624,20.91817 -3.92115,22.20221 -35.62566,21.62981 -14.1933,-0.25625 -30.17915,-1.53877 -35.52411,-2.85004 -11.37911,-2.79166 -17.5456,-1.21101 -15.91948,4.08057 0.61762,2.00977 3.89346,10.27754 7.27963,18.37282 8.08143,19.32008 11.0478,49.06318 5.45137,54.65961 -2.84411,2.84413 -5.69426,3.33783 -13.23188,2.29183 -5.28382,-0.73311 -15.78449,-2.1236 -23.3348,-3.08995 -14.99789,-1.91951 -25.26212,-6.26997 -33.94382,-14.38696 l -5.61823,-5.2528 -4.52284,4.96717 c -12.53296,13.76421 -18.45452,23.19794 -19.7853,31.52014 -2.34267,14.6503 -5.78783,16.8697 -17.02215,10.9657 z m 12.62298,-46.02719 c 11.40643,-12.99213 12.02039,-14.24837 10.93142,-22.36736 -1.8921,-14.10652 -4.08504,-15.09385 -32.38976,-14.58269 -29.2815,0.52878 -30.21336,1.14623 -29.44262,19.50858 0.49396,11.7681 0.87121,12.52864 8.88357,17.90919 4.60224,3.09054 8.86751,6.35346 9.47839,7.25093 1.61038,2.36582 10.77802,5.75833 15.97957,5.91328 2.96945,0.0886 8.53871,-4.49622 16.55943,-13.63193 z m -94.58127,2.36382 c 7.71771,-5.05684 11.42435,-11.95032 14.06725,-26.16181 2.91491,-15.67415 1.27003,-18.11828 -17.90397,-26.60369 -7.16678,-3.17162 -14.44982,-6.95128 -16.18453,-8.39922 -7.98432,-6.66446 -11.84174,-5.747 -22.30599,5.30522 -13.7714,14.54521 -15.75043,20.00547 -14.143,39.02123 0.72621,8.59134 2.38839,16.507 3.69374,17.59031 6.01256,4.99 44.85785,4.43646 52.7765,-0.75204 z m 173.93376,-7.62868 c 5.73541,-1.59281 8.22765,-3.61571 9.19294,-7.46177 2.00264,-7.97923 -0.53553,-19.46607 -6.17413,-27.94166 -2.77913,-4.17742 -8.18091,-12.56285 -12.00399,-18.63431 -3.82307,-6.07146 -7.70496,-11.03901 -8.62644,-11.03901 -0.92145,0 -4.90837,2.8386 -8.85981,6.308 -3.95142,3.46941 -8.58777,6.30802 -10.30296,6.30802 -1.71519,0 -5.69798,2.02901 -8.85066,4.5089 -4.82551,3.79577 -5.57373,5.70804 -4.73056,12.09036 1.23181,9.3241 5.83195,21.60574 9.96106,26.59445 4.24734,5.13157 18.5863,11.37614 26.21791,11.41782 3.4694,0.019 9.84888,-0.94891 14.17664,-2.1508 z M 223.26138,909.70329 c 0,-1.75038 -1.13001,-4.99199 -2.51115,-7.20355 -2.79001,-4.46749 0.47072,-14.84596 4.66433,-14.84596 5.22852,0 12.56552,10.40878 12.56552,17.82632 l 0,7.50414 17.34703,-1.1837 c 32.88287,-2.24383 35.95325,-3.11879 68.52357,-19.52693 19.64632,-9.89734 38.60454,-28.18837 43.50625,-41.9751 1.94661,-5.47514 5.96236,-15.63006 8.92389,-22.56645 5.35184,-12.53496 5.36357,-12.69161 1.93155,-25.77694 -1.89915,-7.24094 -6.46349,-20.39685 -10.14297,-29.23538 -5.78094,-13.88645 -9.2881,-18.62761 -25.81058,-34.89212 -13.55863,-13.34694 -22.91439,-20.60538 -32.16281,-24.95266 -7.17322,-3.37182 -13.57037,-6.98513 -14.21586,-8.02956 -0.6455,-1.04445 -7.07713,-3.75786 -14.29249,-6.02981 -37.52293,-11.81514 -57.01896,-11.68127 -87.76367,0.60262 -10.98646,4.38958 -22.98331,10.4537 -26.65966,13.47581 -3.67635,3.02213 -8.77817,6.96198 -11.33733,8.75527 -3.85255,2.69957 -4.25744,3.9997 -2.35353,7.55717 2.96199,5.53454 -4.93016,25.96434 -12.35172,31.97397 -4.43178,3.58863 -5.16532,6.18748 -5.81677,20.60817 -0.40999,9.07592 0.1966,21.23268 1.34778,27.01502 1.15127,5.78235 3.20394,16.19057 4.56147,23.12939 1.35751,6.93881 3.81495,14.71169 5.46095,17.27306 1.64601,2.56137 2.99273,6.01587 2.99273,7.67666 0,4.35541 18.751,28.66838 22.11002,28.66838 1.55625,0 3.13191,-2.03231 3.50145,-4.51626 0.93513,-6.28553 6.96449,-9.7983 11.71094,-6.82293 6.17346,3.86992 5.8111,11.37133 -0.80409,16.64608 -5.12913,4.08983 -5.53023,5.16183 -3.04973,8.15065 7.79089,9.38746 40.12488,18.00557 40.12488,10.69464 z m 74.97071,-21.68941 c -8.70175,-9.61534 0.95208,-22.96246 10.03727,-13.87726 1.81731,1.81729 3.3042,5.06142 3.3042,7.20915 0,3.90845 -5.17356,10.51335 -8.23498,10.51335 -0.89463,0 -3.19255,-1.73035 -5.10649,-3.84524 z m -89.61543,-4.42721 c -3.09078,-5.77517 -2.6943,-12.10569 0.84317,-13.46313 4.03661,-1.54899 13.80155,6.33983 13.80155,11.14988 0,6.95027 -11.21497,8.72177 -14.64472,2.31325 z m 43.15,-2.70877 c -4.00672,-5.72039 -4.1483,-10.14767 -0.48466,-15.15796 6.06614,-8.29596 18.69249,2.64056 13.792,11.94616 -4.68548,8.89734 -8.65412,9.85519 -13.30734,3.2118 z m 43.5112,-19.56196 c -5.13464,-3.6228 -6.23778,-11.26506 -2.2078,-15.29504 3.42684,-3.42685 7.04302,-3.16996 10.99396,0.78099 4.27309,4.27307 4.17441,7.781 -0.37547,13.349 -3.43564,4.20444 -3.99344,4.2817 -8.41069,1.16505 z m 35.0637,-3.25559 c -5.67768,-5.67767 -5.12243,-12.06119 1.3038,-14.98918 4.68937,-2.13663 6.01957,-1.77259 10.72814,2.93598 4.40838,4.40838 4.97023,6.13141 3.12417,9.58082 -3.2854,6.13881 -10.33904,7.28945 -15.15611,2.47238 z m -130.02919,-0.67797 c -1.42279,-1.71436 -2.28198,-5.7763 -1.9093,-9.02652 0.53387,-4.65593 1.88866,-6.04914 6.38661,-6.56776 4.70365,-0.54232 5.96159,0.34811 7.14331,5.05646 2.44602,9.74571 -5.95526,17.36417 -11.62062,10.53782 z m 40.79001,-1.31996 c -0.73218,-1.18469 -0.71283,-4.96949 0.0429,-8.41069 1.15907,-5.27724 0.73002,-6.25671 -2.74074,-6.25671 -5.87184,0 -9.54222,-5.30751 -7.97863,-11.53737 2.39248,-9.53235 15.96478,-5.8314 15.96478,4.35333 0,2.81867 1.61928,5.01436 4.19472,5.68785 9.404,2.4592 6.82908,18.31756 -2.97421,18.31756 -2.84773,0 -5.77674,-0.96929 -6.5089,-2.15397 z m -83.72467,-3.45315 c -2.42575,-2.42573 -1.52436,-12.34553 1.4973,-16.4779 2.76352,-3.77935 3.15683,-3.79587 8.41069,-0.3534 5.8785,3.85174 7.31178,11.38647 2.98838,15.70987 -2.71982,2.71983 -10.61174,3.40608 -12.89637,1.12143 z m 24.75598,-12.16219 c -1.85712,-2.83431 -3.06168,-6.74262 -2.6768,-8.68513 0.96005,-4.84564 8.47939,-9.52758 11.9032,-7.41155 4.06707,2.51359 7.08658,17.57839 3.92606,19.58766 -4.72584,3.00438 -9.77456,1.66432 -13.15246,-3.49098 z m 97.79554,-0.22902 c -4.2623,-5.13577 -0.11523,-14.43604 6.79617,-15.24098 7.24177,-0.84343 9.80992,6.02402 4.99869,13.36688 -3.88559,5.93015 -7.89935,6.56788 -11.79486,1.8741 z m 34.21487,-12.60962 c -8.36073,-5.85608 -4.91927,-17.75348 5.13537,-17.75348 8.61268,0 12.58134,14.81853 5.04834,18.85007 -5.11259,2.73618 -4.63885,2.78719 -10.18371,-1.09659 z m -43.8049,-12.34388 c -2.23134,-5.81476 0.13142,-12.75452 4.55813,-13.38776 4.99481,-0.71451 10.64605,7.85375 8.63555,13.09299 -1.58128,4.12075 -11.63928,4.34546 -13.19368,0.29477 z m 69.85915,-5.14579 c -2.21468,-2.4472 -3.4328,-6.50082 -3.02469,-10.06555 0.94576,-8.26094 9.67876,-8.38583 14.27003,-0.20418 5.63804,10.04714 -3.71594,18.58953 -11.24534,10.26964 z m -192.21258,-0.68434 c -5.8481,-5.8481 0.0389,-18.50351 8.6074,-18.50351 3.22277,0 7.79343,5.85224 7.79343,9.97865 0,2.89525 -8.28417,11.04806 -11.22607,11.04806 -1.45836,0 -3.787,-1.13544 -5.17476,-2.5232 z m 25.59284,-3.06062 c -1.03237,-4.1133 -0.38331,-6.32834 2.4645,-8.4107 6.0596,-4.43089 11.23814,-3.44286 12.7109,2.42513 1.9963,7.95387 -0.32875,11.56939 -7.43998,11.56939 -5.10156,0 -6.60664,-1.08643 -7.73542,-5.58382 z m 33.68994,0.50475 c -0.62817,-1.637 -0.83503,-5.65837 -0.45966,-8.93635 0.57402,-5.01307 1.64822,-5.95995 6.76131,-5.95995 8.48215,0 11.46637,5.38822 6.86967,12.40368 -3.86878,5.90452 -11.32088,7.31481 -13.17132,2.49262 z m 32.4927,-2.14619 c -3.51429,-7.71308 -0.96224,-11.69877 7.49077,-11.69877 8.97531,0 10.81984,2.6179 7.49686,10.64026 -3.30063,7.96844 -11.57306,8.55269 -14.98763,1.05851 z m 55.06492,-5.25253 c -1.19716,-2.23691 -2.17665,-6.96792 -2.17665,-10.51336 0,-5.18481 0.88043,-6.44624 4.49921,-6.44624 8.2206,0 13.50205,12.69773 7.69628,18.5035 -3.68442,3.68443 -7.53857,3.09048 -10.01884,-1.5439 z m -36.64575,-9.77223 c -2.11328,-5.50706 -1.32544,-12.20226 1.94457,-16.5256 1.69792,-2.24486 3.08714,-6.55007 3.08714,-9.56716 0,-11.0693 8.01565,-13.52282 17.34703,-5.30972 7.53463,6.63165 7.29625,8.74502 -1.577,13.98036 -4.44469,2.62244 -7.35935,5.98014 -7.35935,8.47801 0,10.10757 -10.35265,16.99587 -13.44239,8.94411 z m 55.17395,-6.56914 c -7.47758,-8.69564 -6.85056,-15.33692 1.44796,-15.33692 6.71655,0 11.84749,5.72206 11.07841,12.35471 -0.7856,6.77528 -7.82372,8.45087 -12.52637,2.98221 z m 32.37672,0.95878 c -4.28529,-5.35631 -4.90404,-11.6061 -1.48733,-15.02281 4.17732,-4.17731 4.22472,-4.17637 11.68714,0.2318 6.42425,3.7949 8.02612,10.45357 3.58356,14.89614 -3.29353,3.29352 -11.11199,3.23389 -13.78337,-0.10518 z m -121.68869,-6.7799 c -0.711,-1.85287 -0.70246,-7.06031 0.0189,-11.57209 0.75179,-4.70144 0.41223,-8.75921 -0.79547,-9.50559 -2.34335,-1.44827 -2.79871,-9.42159 -0.83093,-14.54953 1.50787,-3.92948 11.46912,-4.45819 15.12454,-0.80278 3.9969,3.99691 2.94247,11.66337 -2.08889,15.18747 l -4.61207,3.23041 4.78529,5.09373 c 6.98886,7.43928 5.36401,14.77679 -3.46062,15.62724 -4.77722,0.4604 -7.23905,-0.35879 -8.14087,-2.70886 z m -56.33351,-5.12453 c -2.15167,-2.37755 -3.35839,-6.45729 -2.95424,-9.98768 0.55561,-4.85314 1.84253,-6.1002 6.88761,-6.67434 7.26721,-0.827 11.66838,3.86812 11.66838,12.44767 0,8.65557 -9.30728,11.16968 -15.60175,4.21435 z m 24.62056,-11.79202 c -3.31599,-6.95372 -3.31061,-7.61928 0.0892,-11.01901 3.30489,-3.30489 4.1143,-3.3375 9.34553,-0.37648 6.44296,3.64687 6.91718,11.57278 0.96735,16.1679 -5.12486,3.95798 -6.55072,3.30379 -10.402,-4.77241 z m 121.7798,-5.80569 c -5.5104,-5.86555 -6.15626,-15.78046 -1.15301,-17.70039 5.00817,-1.92182 13.74787,8.82611 12.92575,15.89591 -0.83755,7.20254 -5.96343,7.98821 -11.77274,1.80448 z m -32.70492,-4.17264 c -2.69878,-1.97338 -3.60363,-4.89388 -3.11334,-10.04846 0.58398,-6.13951 1.49683,-7.26654 5.88575,-7.26654 6.29675,0 10.99944,7.94492 8.58094,14.49704 -2.00687,5.4369 -6.3108,6.50518 -11.35335,2.81796 z m -45.45295,-16.12543 c -5.44392,-10.17208 -0.58318,-20.29596 8.66126,-18.03942 3.92907,0.95907 5.66058,-0.0915 8.51401,-5.16616 4.61965,-8.21564 9.1107,-8.07017 14.31386,0.46364 6.89808,11.31365 4.82293,16.2957 -6.78759,16.2957 -2.37484,0 -6.51017,2.3655 -9.18963,5.25667 -5.82138,6.28138 -12.51224,6.79448 -15.51191,1.18957 z m -45.13121,-1.33976 c -6.56135,-6.56136 -2.2244,-21.92785 6.18878,-21.92785 6.50803,0 11.45817,13.29752 8.15476,21.90607 -1.64123,4.277 -10.0755,4.2898 -14.34354,0.0219 z m 238.20829,169.82371 11.27,-1.45984 4.91331,-13.09872 4.91329,-13.09874 -6.23558,-13.75228 c -6.04189,-13.32512 -6.70491,-13.9765 -21.34471,-20.96994 -16.51047,-7.88708 -18.24647,-7.6069 -22.87458,3.69161 -1.52387,3.72018 -7.77599,13.85394 -13.89359,22.51946 -6.11761,8.66556 -11.12291,17.20738 -11.12291,18.98186 0,4.81071 5.94908,12.39876 13.38709,17.07527 6.83614,4.29809 8.62796,4.30295 40.98768,0.11124 z M 133.9455,897.68051 c 4.29607,-4.99448 4.64227,-6.64635 2.79514,-13.33618 -3.24847,-11.76501 -16.32305,-34.19586 -20.75149,-35.6014 -6.54477,-2.07723 -20.854071,2.98288 -28.634111,10.12566 -7.27174,6.67618 -17.560048,27.90039 -17.578889,36.26431 -0.01472,6.93175 9.080429,9.16209 35.41042,8.68262 23.09032,-0.42049 24.01276,-0.61728 28.75893,-6.13501 z M 85.959529,831.92739 c 19.289461,-4.99855 22.586991,-8.4347 23.344261,-24.32542 0.85581,-17.95872 -0.29386,-21.41557 -9.443151,-28.39409 -7.17303,-5.47112 -9.10379,-5.91597 -23.68297,-5.45647 l -15.873273,0.50029 -9.85814,10.96795 c -5.42199,6.03237 -10.406309,13.09186 -11.076282,15.68775 -1.996717,7.73667 8.344049,20.958 21.846497,27.93215 6.43718,3.32486 11.894348,6.09071 12.127028,6.14633 0.2327,0.0557 5.90991,-1.3207 12.61603,-3.05849 z m 339.447851,-36.9401 c 17.29556,-8.34798 37.1352,-22.54452 41.24302,-29.51205 4.21192,-7.14415 2.50167,-13.39873 -7.1034,-25.97811 l -7.73093,-10.1249 -18.08016,1.21704 c -18.77868,1.26409 -30.68573,4.25509 -35.75749,8.98215 -2.53317,2.36099 -2.30637,4.32711 1.577,13.67157 3.23392,7.78165 4.53566,15.31649 4.53566,26.25344 0,11.1414 0.90427,16.24375 3.3042,18.64365 1.8173,1.81731 3.60347,3.3042 3.96925,3.3042 0.3658,0 6.68508,-2.90564 14.04285,-6.45699 z M 109.19149,729.97652 c 3.75853,-2.29162 6.83369,-5.25741 6.83369,-6.59068 0,-1.33326 3.81301,-6.56076 8.47338,-11.61665 10.00476,-10.85386 9.30496,-14.13621 -4.77269,-22.38624 -13.40078,-7.8534 -25.732651,-8.8636 -37.343421,-3.05914 -10.322925,5.16062 -11.407798,9.31329 -5.29605,20.27233 1.68229,3.01655 5.05047,9.56202 7.48486,14.54552 3.93614,8.05775 9.34452,12.49788 15.683881,12.87602 1.15646,0.069 5.17783,-1.74954 8.93635,-4.04116 z m 268.4032,-23.43797 c 5.77989,-2.6335 11.77769,-15.22786 11.77769,-24.73113 0,-3.30416 -1.53884,-12.82177 -3.41965,-21.15029 -2.77511,-12.28851 -4.3912,-15.58539 -8.57398,-17.49119 -3.83789,-1.74866 -6.05241,-1.72267 -8.6707,0.10182 -1.93402,1.3476 -7.45893,4.28349 -12.27761,6.5242 -4.81866,2.24073 -14.10057,8.01846 -20.62646,12.8394 -15.10461,11.15845 -14.99205,15.40135 0.62481,23.54482 6.15334,3.20867 15.51204,9.64022 20.79708,14.29232 10.36531,9.12389 12.36115,9.71867 20.36882,6.07014 z M 171.41354,677.72204 c 18.69956,-7.10182 18.66816,-13.0717 -0.19324,-36.76775 -2.60205,-3.269 -4.73101,-7.63587 -4.73101,-9.70412 0,-5.72862 -7.83818,-14.46339 -17.31913,-19.3002 -7.37476,-3.76233 -9.1978,-3.97437 -13.65605,-1.58839 -4.96741,2.65847 -5.12048,3.41133 -4.43201,21.79875 0.60029,16.03178 1.48159,20.03516 5.57002,25.30209 2.67129,3.4413 7.82101,10.27828 11.44378,15.19327 7.44367,10.09872 9.11239,10.46129 23.31766,5.06635 z m 94.34776,-15.30227 c 23.71922,0.94973 25.40878,-4.36023 12.96743,-40.75385 -3.05355,-8.93225 -24.15869,-32.07986 -31.84003,-34.92137 -10.28725,-3.80549 -23.49767,15.82347 -23.58114,35.03853 -0.0346,7.9887 -1.35253,12.40118 -5.30285,17.75555 -6.43374,8.72044 -6.68007,15.39797 -0.78541,21.29263 4.11837,4.11837 5.73641,4.33852 20.50104,2.78942 8.81637,-0.925 21.43481,-1.46541 28.04096,-1.20091 z"
       id="path3521"
       inkscape:connector-curvature="0" />
  </g>
</svg>
