<?xml version="1.0" encoding="UTF-8" standalone="no"?>
<!-- Created with Inkscape (http://www.inkscape.org/) -->

<svg
   xmlns:dc="http://purl.org/dc/elements/1.1/"
   xmlns:cc="http://creativecommons.org/ns#"
   xmlns:rdf="http://www.w3.org/1999/02/22-rdf-syntax-ns#"
   xmlns:svg="http://www.w3.org/2000/svg"
   xmlns="http://www.w3.org/2000/svg"
   xmlns:sodipodi="http://sodipodi.sourceforge.net/DTD/sodipodi-0.dtd"
   xmlns:inkscape="http://www.inkscape.org/namespaces/inkscape"
   width="512"
   height="512"
   id="svg2"
   version="1.1"
   inkscape:version="0.48.4 r9939"
   sodipodi:docname="5.svg">
  <defs
     id="defs4" />
  <sodipodi:namedview
     id="base"
     pagecolor="#ffffff"
     bordercolor="#666666"
     borderopacity="1.0"
     inkscape:pageopacity="0.0"
     inkscape:pageshadow="2"
     inkscape:zoom="1.1074219"
     inkscape:cx="146.28572"
     inkscape:cy="256"
     inkscape:document-units="px"
     inkscape:current-layer="layer1"
     showgrid="false"
     inkscape:window-width="1276"
     inkscape:window-height="782"
     inkscape:window-x="0"
     inkscape:window-y="14"
     inkscape:window-maximized="0" />
  <metadata
     id="metadata7">
    <rdf:RDF>
      <cc:Work
         rdf:about="">
        <dc:format>image/svg+xml</dc:format>
        <dc:type
           rdf:resource="http://purl.org/dc/dcmitype/StillImage" />
        <dc:title />
      </cc:Work>
    </rdf:RDF>
  </metadata>
  <g
     inkscape:label="Layer 1"
     inkscape:groupmode="layer"
     id="layer1"
     transform="translate(0,-540.36218)">
    <path
       style="fill:#000000"
       d=""
       id="path3133"
       inkscape:connector-curvature="0" />
    <path
       style="fill:#000000"
       d="m 246.52108,1049.7428 c -3.54953,-3.9222 -11.01058,-23.4679 -11.01058,-28.8445 0,-8.4721 -15.36473,-49.51416 -28.39997,-75.86154 -13.06988,-26.41746 -20.1248,-47.39574 -17.41402,-51.78188 2.54591,-4.11934 -3.93184,-3.71031 -10.40277,0.6569 -3.9617,2.67374 -10.71557,5.92911 -15.00861,7.23415 -4.29304,1.30507 -10.43988,3.49362 -13.65966,4.86345 -20.1964,8.59248 -24.09326,9.27368 -39.86115,6.9681 C 99.259332,911.29525 88.907882,907.72379 68.441262,898.37521 43.211111,886.85079 33.881248,884.02913 17.229748,882.88714 10.698596,882.43922 5.2476085,877.63099 5.2476085,872.31785 c 0,-3.72153 21.1215855,-25.54955 28.2950365,-29.24141 3.219778,-1.65707 12.060565,-9.26907 19.646205,-16.91555 14.958792,-15.07881 24.161922,-22.77479 40.230552,-33.64224 5.70512,-3.85844 13.007288,-9.4457 16.227068,-12.41616 3.21978,-2.97045 10.24475,-7.71193 15.61105,-10.53663 5.36629,-2.8247 12.39127,-6.80449 15.61105,-8.84395 3.21976,-2.03947 7.66207,-3.77229 9.87177,-3.85074 2.2097,-0.0785 5.70024,-1.37297 7.75674,-2.87672 3.67462,-2.68695 3.66805,-2.91408 -0.38152,-13.17182 -8.64259,-21.89203 -10.68915,-37.40904 -8.71174,-66.05206 1.72592,-24.99997 2.22644,-27.20847 9.81353,-43.2991 4.39716,-9.32549 7.99485,-17.5386 7.99485,-18.25133 0,-2.19553 21.98776,-30.36907 30.27358,-38.79039 7.08254,-7.19839 13.9785,-16.79766 19.73725,-27.4746 2.80349,-5.19778 11.61907,-8.29918 15.90514,-5.5956 2.08288,1.31384 4.4485,7.9763 6.53076,18.39293 3.46952,17.35655 4.87575,19.33654 21.36544,30.08272 3.83664,2.5003 10.80088,9.24228 15.47606,14.98215 4.67517,5.73987 11.29205,13.50954 14.70416,17.26594 3.4121,3.75642 8.23807,11.86331 10.72434,18.01533 2.48625,6.15204 6.99381,13.55513 10.0168,16.45132 l 5.49631,5.26582 8.30661,-8.94232 c 9.10787,-9.80494 38.72104,-25.84123 54.16401,-29.33121 4.82967,-1.09147 21.51398,-2.08575 37.07623,-2.20955 15.56225,-0.12372 29.61219,-1.07689 31.22208,-2.11801 3.00837,-1.94548 19.2932,-4.85211 30.98424,-5.53023 5.20495,-0.3019 7.46322,0.77907 10.7326,5.13736 l 4.1406,5.51971 -6.06748,5.21288 c -3.33713,2.86709 -9.36636,7.74646 -13.39828,10.84307 -10.40741,7.99307 -13.99228,17.85881 -16.44337,45.25301 -1.1596,12.96013 -2.90458,26.13195 -3.87772,29.27071 -0.97313,3.13875 -3.31682,12.73179 -5.20819,21.31788 -4.50033,20.42983 -8.77146,30.14119 -17.5106,39.81436 l -7.16435,7.9301 10.55655,10.81214 c 10.6218,10.87899 21.71268,30.27821 31.69807,55.44367 6.02252,15.17808 9.01694,18.67763 21.31985,24.9164 12.89455,6.53881 18.7795,12.78163 18.7795,19.92148 0,8.89302 -5.91511,11.90771 -23.36293,11.90717 -18.20907,-5.4e-4 -44.15066,7.21099 -63.4735,17.64505 -21.8956,11.82334 -35.7273,13.29508 -65.37124,6.9557 -6.97619,-1.49187 -13.34256,-2.31668 -14.14751,-1.83293 -0.80495,0.48375 -1.46354,3.72544 -1.46354,7.20375 0,12.14129 -24.6021,39.43956 -58.8813,65.33415 -12.38105,9.3527 -15.27115,15.1503 -15.27115,30.6338 0,6.9329 -1.09955,11.4969 -3.41491,14.1745 -5.09101,5.8878 -10.96331,6.9339 -14.84523,2.6444 z m 23.07269,-64.2149 c 18.28186,-14.6635 45.13869,-42.59934 47.73901,-49.65697 1.30609,-3.54488 3.75136,-9.27295 5.43392,-12.72906 2.95483,-6.06937 2.87309,-6.53552 -2.39527,-13.65966 -2.99998,-4.0567 -7.84439,-10.01018 -10.76536,-13.22996 -2.92097,-3.21978 -6.5321,-8.48852 -8.02473,-11.70828 l -2.71386,-5.85415 -19.48237,-0.15904 c -16.19864,-0.1321 -22.89047,-1.22215 -39.70284,-6.46677 -11.12129,-3.46929 -21.30185,-5.89284 -22.62351,-5.38567 -2.63537,1.01134 -6.9162,19.5548 -6.9162,29.95932 0,4.40784 4.40681,14.71825 13.41413,31.38448 12.6136,23.33893 17.98456,35.59831 23.69774,54.09085 2.7465,8.88999 5.30088,12.68396 8.53972,12.68396 1.23384,0 7.44368,-4.17107 13.79962,-9.26905 z m -2.4709,-36.00296 c -1.28791,-1.28792 -2.34165,-3.98001 -2.34165,-5.98243 0,-2.00243 -0.88258,-5.28987 -1.96126,-7.30542 -1.07868,-2.01554 -2.29751,-10.17391 -2.70851,-18.12974 -0.41098,-7.95579 -1.61996,-16.12782 -2.6866,-18.16009 -2.39063,-4.55482 0.16449,-12.08541 4.68992,-13.82193 4.13229,-1.58572 12.15073,7.30038 13.73489,15.22105 1.32924,6.64624 2.72415,7.04703 6.04113,1.7357 5.48499,-8.78287 18.20908,-1.6506 22.08257,12.37803 3.1871,11.54268 -2.39699,27.63321 -9.13924,26.33478 -3.64911,-0.70275 -4.91547,-3.43974 -8.65742,-18.71117 -3.52427,-14.38307 -6.11003,-9.7968 -4.64642,8.24125 l 1.34159,16.53461 -5.2696,2.00351 c -6.69275,2.54458 -7.62681,2.51442 -10.4794,-0.33815 z m -34.56178,-27.74969 c -7.995,-7.995 -12.91932,-21.72333 -12.2603,-34.18001 0.54432,-10.28867 0.86136,-10.88969 6.05866,-11.48565 7.41211,-0.84989 10.13544,1.87729 13.85321,13.87277 1.73403,5.59496 4.63913,14.77814 6.45575,20.40707 3.48672,10.80382 2.87644,12.722 -4.78342,15.03539 -3.20044,0.96655 -5.67721,-0.002 -9.3239,-3.64957 z m 167.84107,-15.46836 c 4.29303,-1.60076 15.57652,-6.49367 25.0744,-10.87315 9.49787,-4.37949 19.3249,-7.96271 21.83785,-7.96271 2.51295,0 5.0637,-0.80045 5.66836,-1.7788 1.50051,-2.42786 -7.19039,-34.21488 -12.33472,-45.11423 -9.43974,-20.00023 -24.07182,-31.9094 -44.44132,-36.17128 -15.91672,-3.33021 -27.19462,-3.55524 -35.36869,-0.70574 -6.50354,2.26714 -7.83876,6.50515 -8.13919,25.83382 -0.21426,13.78396 -5.60139,22.62167 -18.54286,30.42001 -16.92372,10.19797 -17.6041,14.18055 -4.91869,28.79066 2.93828,3.38409 5.6634,6.91664 6.05581,7.85012 0.39241,0.93346 5.1041,4.61277 10.47039,8.17622 9.71394,6.45049 9.83854,6.47452 28.29502,5.46227 10.19596,-0.55921 22.0506,-2.32643 26.34364,-3.92719 z m -50.3214,-18.41504 c -10.27608,-10.43296 -11.48852,-15.0333 -4.42907,-16.80512 8.57745,-2.15279 24.50407,7.53245 24.50407,14.90138 0,5.70308 -3.67464,11.23982 -7.4597,11.23982 -1.88078,0 -7.55767,-4.20124 -12.6153,-9.33608 z m 19.47799,-18.82918 c -15.77615,-5.17826 -22.85201,-10.99915 -19.00509,-15.63438 6.53449,-7.8736 37.32488,1.93272 38.79879,12.35688 0.36221,2.56177 -0.51592,5.40222 -1.95139,6.3121 -3.16673,2.00727 -1.74499,2.24908 -17.84231,-3.0346 z m 21.99503,-23.0365 c -8.45498,-5.68446 -9.37233,-10.97846 -2.94813,-17.01368 4.2729,-4.01417 5.55807,-4.3286 9.36493,-2.29125 7.11079,3.80558 14.29755,15.58152 11.87319,19.45493 -3.10213,4.95633 -10.78869,4.89329 -18.28999,-0.15005 z M 139.33682,886.283 c 14.03579,-4.7192 15.43131,-6.50617 8.41375,-10.77381 -6.94346,-4.22255 -8.04523,-12.12408 -2.13184,-15.28883 4.83228,-2.58615 26.83454,-2.6393 28.4233,-0.0687 2.36624,3.82865 7.87362,1.82439 12.10125,-4.40394 3.56384,-5.25042 4.81058,-11.73606 7.31768,-38.06729 1.66207,-17.45619 3.02195,-32.14218 3.02195,-32.63547 0,-0.49327 -2.77378,-2.33123 -6.16393,-4.08436 -7.05514,-3.64835 -16.06234,-2.95656 -39.47726,3.03197 -16.70592,4.27264 -23.98987,7.64075 -29.36213,13.57704 -2.0728,2.29041 -8.56233,6.907 -14.42117,10.25909 -5.88376,3.36635 -22.102488,17.37195 -36.229978,31.2862 -24.188406,23.82333 -25.371801,25.34363 -21.789633,27.99259 2.083333,1.54062 5.02299,2.80111 6.532578,2.80111 1.509585,0 10.342495,3.71416 19.628675,8.25372 23.03089,11.2586 46.112098,14.18103 64.136758,8.12067 z m 3.80836,-37.18912 c -2.90862,-2.90859 -1.00157,-10.87115 3.63214,-15.16553 8.10024,-7.50704 29.12016,-10.39155 32.87173,-4.51088 3.38257,5.30226 -0.22197,8.89258 -15.30763,15.24715 -13.68364,5.764 -18.7937,6.83182 -21.19624,4.42926 z m -9.7569,-19.51381 c -3.3016,-3.3016 -0.37756,-8.47858 10.8952,-19.28986 18.18494,-17.4405 30.58714,-22.7408 36.51057,-15.60349 4.51974,5.44593 1.15732,9.78004 -13.69775,17.65616 -8.09704,4.29305 -18.17315,10.22037 -22.39132,13.17182 -8.16381,5.71221 -9.27185,6.11024 -11.3167,4.06537 z m 175.10655,13.80048 c 15.19339,-7.03919 19.52758,-23.35268 9.94934,-37.44832 -2.68314,-3.94859 -4.87845,-8.57861 -4.87845,-10.28891 0,-4.81161 -7.56669,-10.64921 -21.46518,-16.56005 -13.59109,-5.78011 -17.6084,-6.12984 -36.65682,-3.19102 -20.38478,3.14499 -28.77735,11.35124 -33.59051,32.84482 -2.58664,11.5508 -0.22243,18.31329 10.26842,29.37144 6.75643,7.12181 10.58762,8.23386 35.34939,10.26057 21.3104,1.74424 28.33574,0.88995 41.02381,-4.98853 z m 63.6123,-69.82154 c 3.75642,0.091 11.22044,0.4716 16.58675,0.84587 8.05511,0.56177 11.05628,-0.22311 17.2068,-4.50011 12.46456,-8.66772 19.31131,-20.22085 22.84252,-38.54418 0.93076,-4.82965 3.44091,-17.85565 5.5781,-28.94663 2.32202,-12.05001 3.26708,-21.8381 2.34834,-24.32169 -0.84564,-2.28596 -1.12322,-9.94672 -0.61684,-17.02388 1.22939,-17.18242 -0.30792,-18.56923 -22.50992,-20.30604 -29.68784,-2.32244 -53.95792,5.97552 -72.02113,24.62409 -6.50323,6.71398 -8.63933,10.76787 -10.59992,20.11673 -1.35048,6.43954 -2.32562,15.87935 -2.16695,20.97733 0.15865,5.09799 0.36588,11.6839 0.46051,14.63535 0.17543,5.47216 -2.32804,24.97903 -4.86452,37.90387 -1.30339,6.64152 -0.96187,7.3998 4.6365,10.29485 3.32394,1.71888 6.04354,4.05574 6.04354,5.193 0,1.41506 4.77364,1.56559 15.1232,0.47688 8.31776,-0.87497 18.19662,-1.51643 21.95302,-1.42544 z m 3.25231,-8.37448 c -3.68443,-3.68445 -0.65228,-11.37747 8.10103,-20.55351 7.38662,-7.74331 10.27596,-9.57857 13.47939,-8.56183 2.24258,0.71176 4.60405,2.66642 5.24768,4.34369 3.46473,9.02896 -20.47038,31.12938 -26.8281,24.77165 z m -15.7275,-17.3968 c -2.79917,-7.2945 -1.15859,-11.92373 5.49569,-15.5073 5.56964,-2.99945 7.19166,-3.17301 9.75691,-1.04404 4.30812,3.57542 3.85462,6.70584 -1.97517,13.63414 -5.48576,6.51946 -11.39674,7.81817 -13.27743,2.9172 z m -8.30742,-23.31718 c -2.20753,-5.75271 1.324,-15.07511 9.3358,-24.64433 6.43423,-7.68497 9.11664,-9.53146 13.16219,-9.06046 2.88375,0.33571 5.34898,2.00507 5.70053,3.86018 0.77943,4.11283 -13.68131,25.51979 -20.06419,29.702 -5.90682,3.87029 -6.69855,3.88419 -8.13433,0.14265 z m -123.1979,29.47185 c 8.22273,-3.57506 25.84296,-8.92214 29.40114,-8.92214 1.51019,0 4.33519,-1.75624 6.27777,-3.90275 4.4668,-4.93579 12.22122,-5.00606 17.43665,-0.15806 2.2157,2.05959 7.30708,4.34993 11.31422,5.08962 6.7359,1.24338 7.44917,0.924 9.45208,-4.23258 3.28088,-8.44675 1.45021,-48.98343 -2.54318,-56.31332 -1.75414,-3.21979 -6.07375,-12.44006 -9.59909,-20.4895 -10.95575,-25.01525 -24.79142,-42.24485 -48.53819,-60.44469 -8.06958,-6.18466 -15.86066,-12.67709 -17.31351,-14.42767 -1.45283,-1.75056 -4.23639,-3.18286 -6.18569,-3.18286 -5.06571,0 -30.09981,33.03213 -38.45131,50.73589 -6.39331,13.55271 -6.97216,16.33458 -7.82529,37.60554 -1.01289,25.25486 0.55002,33.73941 9.69117,52.61018 3.01542,6.22503 5.48261,12.02929 5.48261,12.89839 0,0.86906 1.97577,3.3758 4.3906,5.57052 10.84939,9.86042 25.05142,12.76277 37.01002,7.56343 z m -19.40826,-19.16688 c -2.23071,-2.41484 -5.37704,-7.59895 -6.99182,-11.52025 -1.6148,-3.92129 -4.77238,-7.71248 -7.01688,-8.42488 -5.46681,-1.73508 -5.15866,-4.86262 1.84642,-18.73961 6.68652,-13.24591 10.07603,-15.5305 15.61056,-10.52183 3.11553,2.81953 3.83401,6.04908 3.85119,17.31124 0.0121,7.61477 1.3288,18.1557 2.92706,23.42425 1.59828,5.26855 2.90596,10.31774 2.90596,11.22043 0,3.40038 -9.23819,1.46631 -13.13249,-2.74935 z m 56.3618,-9.75067 c -3.57172,-3.57172 -2.72674,-18.01149 1.34849,-23.04417 5.56822,-6.8765 10.06085,-3.8765 10.06085,6.71821 0,4.77557 -0.54237,10.09625 -1.20527,11.82373 -1.794,4.67511 -7.50944,7.19686 -10.20407,4.50223 z m -22.70612,-7.26939 c -0.64478,-1.04327 -2.04489,-9.57598 -3.11136,-18.96162 -1.06646,-9.38563 -2.44012,-19.06132 -3.05258,-21.50154 -1.52654,-6.08225 4.0529,-8.02636 9.32977,-3.25084 7.13379,6.45598 10.05838,14.66374 10.05838,28.22849 0,7.108 -0.62003,13.92686 -1.37783,15.15302 -1.67992,2.71815 -10.22375,2.95797 -11.84638,0.33249 z"
       id="path3403"
       inkscape:connector-curvature="0" />
  </g>
</svg>
