<?xml version="1.0" encoding="UTF-8" standalone="no"?>
<!-- Created with Inkscape (http://www.inkscape.org/) -->

<svg
   xmlns:dc="http://purl.org/dc/elements/1.1/"
   xmlns:cc="http://creativecommons.org/ns#"
   xmlns:rdf="http://www.w3.org/1999/02/22-rdf-syntax-ns#"
   xmlns:svg="http://www.w3.org/2000/svg"
   xmlns="http://www.w3.org/2000/svg"
   xmlns:sodipodi="http://sodipodi.sourceforge.net/DTD/sodipodi-0.dtd"
   xmlns:inkscape="http://www.inkscape.org/namespaces/inkscape"
   width="512"
   height="512"
   id="svg2"
   version="1.1"
   inkscape:version="0.48.4 r9939"
   sodipodi:docname="22.svg">
  <defs
     id="defs4" />
  <sodipodi:namedview
     id="base"
     pagecolor="#ffffff"
     bordercolor="#666666"
     borderopacity="1.0"
     inkscape:pageopacity="0.0"
     inkscape:pageshadow="2"
     inkscape:zoom="1.1074219"
     inkscape:cx="146.28572"
     inkscape:cy="256"
     inkscape:document-units="px"
     inkscape:current-layer="layer1"
     showgrid="false"
     inkscape:window-width="1276"
     inkscape:window-height="782"
     inkscape:window-x="0"
     inkscape:window-y="14"
     inkscape:window-maximized="0" />
  <metadata
     id="metadata7">
    <rdf:RDF>
      <cc:Work
         rdf:about="">
        <dc:format>image/svg+xml</dc:format>
        <dc:type
           rdf:resource="http://purl.org/dc/dcmitype/StillImage" />
        <dc:title />
      </cc:Work>
    </rdf:RDF>
  </metadata>
  <g
     inkscape:label="Layer 1"
     inkscape:groupmode="layer"
     id="layer1"
     transform="translate(0,-540.36218)">
    <path
       style="fill:#000000"
       d=""
       id="path3133"
       inkscape:connector-curvature="0" />
    <path
       style="fill:#000000"
       d="m 344.6379,1045.5009 c -7.52737,-3.4634 -18.36456,-11.3795 -24.08263,-17.5911 -5.71808,-6.2117 -13.49293,-13.3228 -17.27744,-15.8025 -3.78452,-2.4797 -9.90468,-10.4756 -13.60035,-17.76865 -3.69563,-7.29304 -7.68401,-13.26008 -8.86305,-13.26008 -4.36828,0 -8.713,6.78068 -8.713,13.59818 0,3.86583 -3.15649,11.67405 -7.01444,17.35145 -7.23826,10.6521 -26.83269,26.5321 -32.73807,26.5321 -1.84094,0 -9.02082,2.5097 -15.95523,5.5772 -10.87436,4.8102 -16.0975,5.3493 -37.98479,3.9207 -32.58594,-2.1268 -44.87775,-6.6691 -56.73502,-20.9656 -11.83376,-14.2682 -16.40808,-34.38296 -16.48614,-72.49515 -0.0509,-24.80822 0.8652,-30.153 8.38762,-48.93932 10.38823,-25.94339 9.49177,-27.28466 -20.724059,-31.00622 -17.88581,-2.20294 -22.711734,-3.84561 -26.546805,-9.03613 -2.577947,-3.48906 -6.730208,-8.19137 -9.227214,-10.44957 -37.147651,-33.59498 -53.2239216,-54.59106 -53.2239216,-69.512 0,-3.72567 -1.212453,-9.9629 -2.694333,-13.86052 -4.395107,-11.56004 4.115993,-41.7322 18.6569816,-66.1396 15.889565,-26.67104 40.122768,-43.17299 68.025982,-46.32324 19.505059,-2.20212 48.725869,2.47954 64.771209,10.37742 16.50471,8.124 17.58796,6.42624 16.06601,-25.17971 -1.21142,-25.15786 -0.81792,-28.28616 4.24836,-33.7723 3.07092,-3.3254 7.48631,-10.66523 9.812,-16.31077 2.3257,-5.64552 5.41927,-10.26458 6.8746,-10.26458 1.45532,0 7.36901,-5.01794 13.1415,-11.15097 16.00329,-17.00285 39.89426,-29.26148 61.30262,-31.45485 15.65049,-1.60344 19.86955,-0.96725 32.84503,4.95271 8.18833,3.73585 19.19901,8.41839 24.46817,10.40564 18.34365,6.91825 38.0405,28.98366 42.64824,47.77665 1.10734,4.51643 3.68071,10.78916 5.71859,13.93943 3.02834,4.68134 3.11953,9.68198 0.49915,27.37226 -5.00579,33.79422 -4.85586,35.40311 3.2515,34.8939 3.82428,-0.24006 17.81153,-5.59547 31.08281,-11.90064 21.47454,-10.20254 25.5284,-11.25716 36.84236,-9.58464 6.99203,1.03361 14.77051,3.71987 17.28556,5.9694 2.51502,2.24956 8.67377,6.28767 13.68612,8.97361 15.22998,8.16112 31.70745,38.4911 37.63275,69.27038 3.35551,17.43033 2.35904,35.45687 -2.30634,41.72318 -1.12086,1.50546 -4.83232,11.35947 -8.24773,21.89779 -9.75803,30.10891 -17.08272,40.56932 -38.44277,54.90034 -23.50373,15.76929 -27.07887,19.62724 -20.52065,22.14388 2.63051,1.00941 8.39023,9.79149 12.79941,19.51576 4.40921,9.72426 11.79735,20.86168 16.41815,24.74982 8.37249,7.04497 8.39578,7.14249 6.76319,28.31334 -2.34443,30.40217 -15.02993,54.0191 -39.58484,73.6962 -22.34624,17.9071 -31.99275,21.45 -58.04377,21.3179 -15.47086,-0.079 -23.90142,-1.6557 -34.21532,-6.4011 z m 68.66768,-29.5394 c 19.78592,-12.1015 38.45924,-36.86909 40.8382,-54.16613 1.53835,-11.18507 0.54208,-15.02757 -8.19933,-31.62407 -5.47273,-10.39059 -12.64517,-21.13179 -15.93873,-23.86932 -13.97572,-11.61638 -30.83334,-21.0263 -37.668,-21.0263 -4.03781,0 -11.85821,-1.8872 -17.37867,-4.19378 -9.87862,-4.12757 -10.16488,-4.0661 -18.12254,3.89157 -9.92315,9.92318 -9.17978,12.51965 10.14221,35.42538 15.84958,18.78927 20.47549,29.64703 14.2979,33.55934 -2.0856,1.32085 -5.09099,2.42039 -6.67864,2.44345 -3.3508,0.0487 -15.79034,-11.5041 -36.11858,-33.54374 -16.75068,-18.1609 -24.17524,-20.99474 -36.38041,-13.88589 l -8.66096,5.04454 1.23001,20.52919 c 1.03145,17.21482 2.83821,23.40163 11.1911,38.32115 9.50517,16.97767 30.59788,38.53351 45.46197,46.46011 20.4272,10.8932 40.44904,9.8061 61.98447,-3.3655 z m -191.70333,-1.6645 16.56285,-7.8356 10.1251,-24.42768 c 11.13063,-26.85352 13.98736,-54.56116 6.28456,-60.95395 -5.75083,-4.77273 -20.9026,-8.509 -27.64467,-6.81684 -7.72581,1.93905 -15.00442,18.54653 -16.9867,38.75832 -1.56656,15.97318 -4.73755,25.3201 -8.58998,25.3201 -1.16863,0 -4.97521,-2.65558 -8.45907,-5.90127 -6.05896,-5.64479 -6.253,-7.04278 -4.46428,-32.1624 1.02849,-14.44363 3.19585,-30.78037 4.81635,-36.3039 2.857,-9.73828 2.54102,-10.50468 -10.42229,-25.27842 -11.92568,-13.5912 -13.73794,-14.74044 -16.79017,-10.64755 -1.88184,2.52345 -3.42152,7.46283 -3.42152,10.97641 0,4.89766 -1.9018,6.76869 -8.15029,8.01837 -10.26484,2.05297 -11.39332,3.6187 -19.44149,26.97396 -5.71493,16.58433 -6.50724,23.34752 -5.8929,50.30065 1.14841,50.3832 7.49302,57.5239 51.27663,57.7105 21.5536,0.092 26.70675,-0.8752 41.19787,-7.7307 z m 76.50282,-130.47057 c 32.26384,-9.91655 37.92486,-14.13864 41.86931,-31.22689 6.42736,-27.84486 3.48882,-42.98539 -11.9207,-61.42014 -9.21659,-11.02598 -11.89412,-12.49338 -28.27627,-15.49666 -9.95264,-1.82458 -20.5592,-5.48542 -23.57014,-8.13519 -3.01095,-2.64981 -8.55383,-5.74117 -12.31751,-6.86971 -3.76369,-1.12856 -9.2727,-3.73362 -12.24228,-5.78906 -11.11474,-7.69325 -18.92383,-4.76439 -31.09355,11.66181 -9.15235,12.35346 -11.40868,17.68377 -11.40868,26.9517 0,15.02584 5.87786,26.39296 19.81746,38.32475 9.39823,8.04453 13.36184,9.63853 23.78654,9.56599 23.6404,-0.1645 29.52864,-13.52331 9.45999,-21.46206 -16.48398,-6.5207 -20.46342,-10.64131 -18.48238,-19.13816 0.92508,-3.9678 3.33121,-8.97232 5.34689,-11.12118 3.17166,-3.3811 4.87594,-3.32841 12.662,0.39151 4.94838,2.36416 12.69233,5.37955 17.20874,6.70087 5.89393,1.72428 10.31826,6.24927 15.67511,16.03183 8.99668,16.42949 9.34508,23.33302 1.94855,38.61221 -6.91145,14.27712 -17.45466,18.52853 -42.06365,16.96154 -13.50085,-0.85968 -19.99765,-2.97404 -31.17279,-10.14511 -19.63915,-12.60238 -36.78638,-33.73019 -38.68375,-47.66377 -1.8127,-13.31167 -8.34941,-17.3158 -8.34941,-5.11448 0,4.51987 1.76575,11.70509 3.92389,15.96714 2.15814,4.26206 6.05445,13.85972 8.65848,21.32816 5.62579,16.13496 25.77223,37.52468 42.85273,45.49728 14.43345,6.73703 34.41938,5.40838 66.37142,-4.41238 z M 146.18907,842.787 c 9.22283,-3.20062 9.54509,-3.77135 8.63696,-15.29724 -1.48486,-18.84552 -4.0073,-21.55376 -20.36646,-21.86645 -20.65535,-0.39482 -27.53184,-2.9896 -30.53217,-11.52099 -2.0488,-5.8258 -1.61189,-8.46188 2.00144,-12.07521 3.95652,-3.95653 5.94347,-4.14476 13.79233,-1.30656 8.25071,2.98349 14.77825,2.78833 33.79553,-1.01036 7.54536,-1.50721 20.04463,-27.75199 20.04463,-42.08783 0,-18.09958 -7.5669,-34.91815 -18.70585,-41.57664 -5.51926,-3.29923 -12.65197,-8.33241 -15.85045,-11.18488 -9.14707,-8.15743 -49.467979,-9.3009 -66.691968,-1.89134 -27.65312,11.89606 -39.445798,32.87437 -44.15826,78.55439 -2.486797,24.10585 -2.305237,25.88362 3.494315,34.21532 18.76617,26.95968 30.541822,37.87884 54.152874,50.21429 7.82428,4.08774 45.118559,2.13216 60.387079,-3.1665 z m 308.20146,-7.58527 c 16.9436,-14.91434 31.04624,-44.91977 33.03823,-70.29375 2.68839,-34.24444 -10.93773,-65.91271 -32.77802,-76.17887 -21.21123,-9.97045 -24.73773,-10.0258 -43.49876,-0.68279 -50.48935,25.14379 -64.12979,43.553 -50.89189,68.68392 7.16015,13.59285 4.86232,13.0921 43.22815,9.42041 18.94809,-1.81335 20.94197,-1.50558 25.88857,3.99592 7.87084,8.75373 2.83894,14.84192 -13.85414,16.76227 -7.37168,0.84805 -18.0221,3.55664 -23.66763,6.01911 -9.71696,4.23831 -10.2646,5.1465 -10.2646,17.02228 0,6.89981 -1.83944,16.94752 -4.08766,22.32826 -2.24822,5.38075 -3.43981,10.83142 -2.64799,12.11263 0.79182,1.28118 16.10249,2.29814 34.02371,2.25988 l 32.58398,-0.0695 12.92805,-11.37971 z M 318.17783,705.26168 c 6.5236,-5.27699 12.55798,-11.58358 13.40972,-14.01468 0.85172,-2.43108 3.72175,-6.88365 6.37785,-9.8946 2.65606,-3.01094 6.88526,-11.81835 9.3982,-19.57201 4.49694,-13.87521 4.4575,-14.40665 -2.49987,-33.69415 -3.88791,-10.77812 -7.06889,-22.12847 -7.06889,-25.22303 0,-8.21311 -16.86268,-22.3337 -41.75152,-34.96222 -18.77286,-9.52528 -23.37525,-10.81596 -33.13599,-9.29251 -18.2996,2.8562 -30.19071,10.4282 -53.05477,33.7841 -25.64031,26.19185 -28.62967,61.11805 -8.68241,101.4411 10.24358,20.70722 13.14703,22.66401 31.38464,21.15161 17.07329,-1.41586 22.48059,-5.36896 25.82154,-18.8773 1.26249,-5.10463 3.82013,-13.59227 5.68363,-18.86142 1.8635,-5.26916 4.60822,-13.0246 6.09938,-17.23431 1.70143,-4.80343 4.35197,-7.33968 7.11679,-6.81 5.35894,1.02668 9.17792,26.99295 6.83899,46.50025 -0.84909,7.08164 -0.72409,14.20199 0.27777,15.82305 3.24235,5.24625 21.44843,-0.28475 33.78494,-10.26388 z"
       id="path5349"
       inkscape:connector-curvature="0" />
  </g>
</svg>
