<?xml version="1.0" encoding="UTF-8" standalone="no"?>
<!-- Created with Inkscape (http://www.inkscape.org/) -->

<svg
   xmlns:dc="http://purl.org/dc/elements/1.1/"
   xmlns:cc="http://creativecommons.org/ns#"
   xmlns:rdf="http://www.w3.org/1999/02/22-rdf-syntax-ns#"
   xmlns:svg="http://www.w3.org/2000/svg"
   xmlns="http://www.w3.org/2000/svg"
   xmlns:sodipodi="http://sodipodi.sourceforge.net/DTD/sodipodi-0.dtd"
   xmlns:inkscape="http://www.inkscape.org/namespaces/inkscape"
   width="512"
   height="512"
   id="svg2"
   version="1.1"
   inkscape:version="0.48.4 r9939"
   sodipodi:docname="4.svg">
  <defs
     id="defs4" />
  <sodipodi:namedview
     id="base"
     pagecolor="#ffffff"
     bordercolor="#666666"
     borderopacity="1.0"
     inkscape:pageopacity="0.0"
     inkscape:pageshadow="2"
     inkscape:zoom="1.1074219"
     inkscape:cx="146.28572"
     inkscape:cy="256"
     inkscape:document-units="px"
     inkscape:current-layer="layer1"
     showgrid="false"
     inkscape:window-width="1276"
     inkscape:window-height="782"
     inkscape:window-x="0"
     inkscape:window-y="14"
     inkscape:window-maximized="0" />
  <metadata
     id="metadata7">
    <rdf:RDF>
      <cc:Work
         rdf:about="">
        <dc:format>image/svg+xml</dc:format>
        <dc:type
           rdf:resource="http://purl.org/dc/dcmitype/StillImage" />
        <dc:title />
      </cc:Work>
    </rdf:RDF>
  </metadata>
  <g
     inkscape:label="Layer 1"
     inkscape:groupmode="layer"
     id="layer1"
     transform="translate(0,-540.36218)">
    <path
       style="fill:#000000"
       d=""
       id="path3133"
       inkscape:connector-curvature="0" />
    <path
       style="fill:#000000"
       d="m 302.12887,1033.5138 c -19.07886,-2.263 -36.22917,-11.2807 -52.10014,-27.3943 -10.26322,-10.4202 -14.26914,-16.11451 -15.90404,-22.60738 -1.20197,-4.77341 -2.76438,-9.03675 -3.47203,-9.4741 -0.70765,-0.43735 -6.94196,2.60626 -13.85403,6.76358 -6.91207,4.15732 -17.81148,9.21676 -24.22087,11.24324 -6.40942,2.02646 -14.38058,4.79916 -17.71371,6.16158 -3.33313,1.3624 -11.56465,3.06458 -18.29227,3.78258 -15.10448,1.6121 -33.0104,-3.44633 -49.38029,-13.94999 -6.11073,-3.92093 -13.612531,-8.22642 -16.670661,-9.56779 -3.05815,-1.34136 -6.03777,-3.9433 -6.62136,-5.78209 -0.58363,-1.83879 -4.13823,-6.51167 -7.89916,-10.38416 -3.76091,-3.87248 -9.68945,-12.09335 -13.17453,-18.26857 -3.485077,-6.1752 -7.65498,-12.32189 -9.266475,-13.65931 -1.611476,-1.3374 -2.929959,-3.27926 -2.929959,-4.31521 0,-1.03596 -1.917074,-6.09179 -4.26016,-11.23519 -3.640682,-7.99178 -4.136733,-12.1615 -3.411303,-28.67527 0.711855,-16.20466 1.768456,-21.1169 6.54624,-30.43404 8.976472,-17.50488 17.632097,-28.37561 25.987727,-32.63834 5.01621,-2.55907 7.48923,-5.10293 7.07117,-7.27373 -0.72238,-3.75096 -12.00808,-12.20679 -26.349557,-19.74249 -6.45465,-3.39156 -14.504048,-10.95913 -24.745936,-23.26463 -8.348714,-10.03089 -15.179481,-19.35993 -15.179481,-20.73118 0,-1.37122 -2.789119,-5.87682 -6.198018,-10.01243 -7.7797792,-9.43822 -10.2689172,-17.47261 -10.0801622,-32.5366 0.334525,-26.69506 15.1307772,-43.21264 52.7965772,-58.93867 29.082457,-12.14236 39.930797,-12.28683 78.446598,-1.04475 17.03416,4.97197 19.01227,4.03521 17.08525,-8.09099 -1.79707,-11.30839 13.75489,-40.69241 28.48632,-53.82233 12.20121,-10.87476 13.73146,-11.78704 33.39078,-19.90642 13.73171,-5.67124 46.98606,-9.93375 59.87372,-7.67453 3.48795,0.61143 13.11064,0.0202 21.38379,-1.31485 17.8143,-2.87377 21.44059,-1.55828 41.22152,14.95358 12.42967,10.37548 24.93514,29.66906 25.03169,38.61915 0.0241,2.22208 1.94283,8.13081 4.26414,13.13049 3.65818,7.87908 4.25791,13.26255 4.50081,40.40153 0.26154,29.22192 -0.023,31.79887 -4.26493,38.61988 -8.33451,13.40204 -4.70118,20.38331 6.16141,11.8388 12.56604,-9.88445 33.25025,-12.57929 53.93587,-7.02704 6.11073,1.64019 16.22752,2.99295 22.48175,3.00614 12.30171,0.0258 28.83506,6.34234 38.30229,14.633 9.45303,8.27823 22.01493,25.22431 25.33311,34.17452 2.10351,5.67382 3.35007,15.97793 3.51728,29.07366 0.22071,17.28884 -0.33779,21.13256 -3.78119,26.02317 -2.22208,3.15599 -4.94918,7.20872 -6.06022,9.00609 -2.42011,3.91508 -8.84453,11.20464 -21.51456,24.41173 -10.70182,11.15549 -34.76358,23.65409 -49.39994,25.66023 -5.07914,0.69615 -9.65749,2.36728 -10.17411,3.7136 -0.85939,2.23951 5.23591,13.48092 13.81832,25.48472 4.70343,6.57846 9.70132,26.74036 9.68285,39.06141 -0.0204,13.63851 -3.4217,33.84265 -7.35,43.66042 -4.98607,12.46144 -23.96699,25.86438 -41.87859,29.57158 -7.79036,1.6124 -18.75994,5.2667 -24.3768,8.1208 -19.9703,10.1473 -37.54569,12.3574 -68.79473,8.6509 z m 51.92507,-25.0293 c 24.9486,-9.41432 59.08529,-23.59041 60.70354,-25.20865 2.18826,-2.18827 9.59391,-33.43174 9.55661,-40.31814 -0.0337,-6.21509 -4.39025,-19.54301 -9.95122,-30.44342 -2.09595,-4.10841 -10.47987,-13.79601 -18.63092,-21.52798 -11.86294,-11.25301 -17.84321,-15.2281 -29.97068,-19.92157 -8.33282,-3.22489 -20.03285,-7.99732 -26.00008,-10.6054 -15.77829,-6.89618 -18.65134,-6.30239 -33.25743,6.87347 -11.81605,10.65904 -20.17751,15.2331 -45.21763,24.73596 -14.80033,5.61683 -21.48537,31.25009 -12.66091,48.54743 2.23768,4.38623 4.6348,13.39286 5.32692,20.01471 1.55172,14.84609 11.34976,33.5506 21.01659,40.12089 5.61695,3.8176 9.17796,4.5704 20.11136,4.2511 7.94672,-0.232 15.27982,0.6923 18.24762,2.3002 5.0906,2.7579 15.65494,5.3358 23.55557,5.7479 2.44931,0.1277 10.1761,-1.9271 17.17066,-4.5665 z m -78.03875,-30.69376 c -1.74425,-1.74425 -3.62032,-5.15314 -4.16905,-7.57529 -3.88505,-17.14922 -5.01639,-24.06493 -4.16277,-25.44611 0.54,-0.87374 0.29269,-9.44861 -0.5496,-19.05524 -0.8423,-9.60664 -0.76733,-18.83198 0.16665,-20.50079 2.82653,-5.05072 9.22521,-3.51494 12.60768,3.02605 3.44943,6.67044 6.0206,7.66918 7.80079,3.03011 1.84656,-4.81201 13.98522,-3.83846 18.89014,1.51507 7.07824,7.7256 13.09767,21.92395 13.41118,31.63373 0.25736,7.97032 -0.29109,9.35722 -3.90464,9.87362 -3.03727,0.43408 -5.83314,-1.80849 -10.07386,-8.0803 -9.35089,-13.82945 -15.87984,-21.8115 -17.84085,-21.81155 -1.04299,-4e-5 -1.33298,11.55879 -0.68045,27.12216 0.96118,22.92448 0.66979,27.30158 -1.88272,28.28108 -4.59874,1.7647 -6.16261,1.43728 -9.61242,-2.01254 z m 76.61559,-52.76787 c -11.72031,-6.29606 -27.27104,-21.09578 -27.27104,-25.95403 0,-14.65479 7.53461,-14.55715 23.96391,0.3105 13.09063,11.84636 19.51207,21.3793 17.65722,26.213 -1.42221,3.7062 -6.78712,3.4933 -14.35009,-0.56947 z M 184.3376,970.02156 c 10.76565,-4.8705 23.7194,-12.32066 28.78609,-16.5559 9.18547,-7.67808 9.21242,-7.73867 9.30012,-20.90813 0.0483,-7.26425 0.96449,-17.2984 2.03578,-22.29809 4.91289,-22.92835 6.23649,-20.15157 -14.40416,-30.21865 -16.12758,-7.86594 -19.46239,-10.42679 -26.30602,-20.20076 -4.31041,-6.1561 -10.20294,-16.00464 -13.09447,-21.8856 l -5.25733,-10.69272 -25.56793,1.35072 c -20.92118,1.10527 -26.32584,2.03895 -29.73826,5.1375 -2.76834,2.51371 -7.20132,3.78677 -13.186041,3.78677 -12.14246,0 -16.80501,3.79815 -25.25106,20.56975 -5.31272,10.54966 -7.45721,17.79971 -8.32433,28.14271 -1.07375,12.80772 -0.62372,15.11325 5.57608,28.56658 5.65288,12.26655 15.8777,27.30123 26.84115,39.46747 4.0501,4.49445 16.011301,12.26069 28.614921,18.57929 10.04998,5.03834 14.53603,6.07107 26.26099,6.04546 12.34399,-0.027 16.62739,-1.156 33.71447,-8.8864 z m -11.23936,-29.18002 c -4.59408,-5.07639 -3.97452,-9.46121 3.4649,-24.52187 6.77862,-13.72297 12.33211,-17.32727 17.36116,-11.26764 3.94639,4.75514 0.77807,22.30848 -5.33872,29.57789 -7.52285,8.94039 -11.55447,10.55739 -15.48734,6.21162 z m -29.05079,-23.00681 c -5.19638,-6.49509 -4.82211,-11.7118 1.59703,-22.26066 8.78368,-14.43465 13.93704,-19.65593 19.40024,-19.65593 4.72626,0 8.80929,5.16905 8.80929,11.15239 0,3.54753 -9.69841,18.49964 -17.98918,27.73408 -5.45431,6.07512 -8.7128,6.91062 -11.81738,3.03012 z m -47.629691,-27.1027 c -2.25359,-2.25358 -1.50458,-11.83119 1.17836,-15.06801 5.418971,-6.5377 23.241001,-19.3071 33.385711,-23.9207 12.48193,-5.67649 21.19396,-4.26329 22.32145,3.62088 0.86157,6.02454 -2.3496,9.68042 -9.81421,11.17335 -3.31838,0.66367 -8.52495,2.9155 -11.57013,5.00405 -3.0452,2.08856 -7.80931,5.32141 -10.58691,7.18412 -2.77761,1.86273 -8.139,5.62916 -11.91418,8.3699 -6.96782,5.05852 -10.570311,6.06622 -13.000091,3.63641 z M 268.3752,857.65948 c 7.45411,-2.26497 15.80501,-5.24268 18.55755,-6.61717 12.41459,-6.19906 28.64623,-38.24986 25.57274,-50.49559 -1.81205,-7.21977 -17.20675,-25.41421 -31.8715,-37.6678 -12.1692,-10.16833 -12.91738,-10.48417 -21.81425,-9.20904 -6.39751,0.91694 -10.34465,2.82144 -12.91649,6.23224 -2.98383,3.95723 -5.51457,4.91182 -13.02192,4.91182 -17.67284,0 -34.7864,17.95648 -34.7864,36.49981 0,13.40199 12.36978,43.20228 22.61199,54.47504 5.05598,5.5647 6.45662,5.98882 19.77836,5.98882 8.64872,0 19.71425,-1.63391 27.88992,-4.11813 z m 167.65553,-7.90381 c 11.79168,-1.97639 26.4321,-10.42565 35.85289,-20.69135 22.5593,-24.58254 26.11636,-40.00665 14.85874,-64.43039 -5.92257,-12.84916 -8.17418,-15.55939 -18.43735,-22.19281 -7.95998,-5.14479 -15.06729,-7.9826 -22.27097,-8.89243 -5.81908,-0.73495 -17.86564,-2.55382 -26.77014,-4.04197 -21.32477,-3.56382 -30.66878,-1.74711 -42.49396,8.26195 -5.10387,4.31999 -11.54196,9.2181 -14.30685,10.88466 -4.67971,2.82073 -5.29415,2.70508 -8.89174,-1.6734 -5.46872,-6.65572 -9.45298,-4.97793 -18.4662,7.77617 l -7.8817,11.15298 3.15328,13.5966 c 1.73429,7.47814 4.17317,15.83507 5.41971,18.57096 1.70523,3.74257 1.62227,8.00989 -0.33503,17.23309 -2.49032,11.73495 -2.40793,12.46474 1.92827,17.08041 2.49135,2.65193 6.93979,5.73484 9.88542,6.85088 2.94562,1.11606 11.66162,4.46765 19.36892,7.44801 9.40457,3.63669 16.38035,5.10826 21.2108,4.47451 3.95864,-0.51936 11.28821,-0.2419 16.2879,0.61659 9.03861,1.55202 11.47129,1.39757 31.88801,-2.02446 z m -52.08878,-20.29928 c -1.66656,-1.07702 -7.77056,-1.97215 -13.56444,-1.98916 -12.89071,-0.0378 -15.84302,-3.60357 -11.51206,-13.90394 3.52056,-8.37289 1.75953,-22.06861 -3.48612,-27.11223 -7.61192,-7.31874 -4.98301,-12.66352 10.74757,-21.85066 7.97839,-4.65964 18.97804,-9.90211 24.44367,-11.64994 9.45229,-3.02272 10.07559,-2.98909 12.76486,0.68874 1.55506,2.12664 2.82737,4.60124 2.82737,5.49911 0,1.54637 -28.48202,20.89319 -32.95222,22.38326 -4.84263,1.6142 1.25223,5.02403 11.05544,6.18507 12.00509,1.42182 16.86723,5.01888 14.94984,11.06001 -0.90234,2.843 -3.753,4.51621 -9.28739,5.45122 -4.39196,0.74204 -8.40774,2.03247 -8.92391,2.86765 -0.51614,0.83515 2.54257,3.47493 6.79715,5.86615 10.0615,5.65487 12.93447,9.30591 11.32158,14.3877 -1.42589,4.49256 -9.71648,5.64867 -15.18134,2.11702 z M 146.05452,804.88345 c 11.87986,-2.58124 19.71919,-8.49846 19.71919,-14.88425 0,-2.65244 2.38584,-14.08415 5.30188,-25.40377 6.59954,-25.61825 5.83751,-35.66764 -4.40338,-58.07107 -6.30613,-13.79561 -9.22371,-17.71813 -17.85373,-24.00351 -5.67369,-4.13223 -14.8191,-8.69784 -20.32313,-10.14583 -5.50401,-1.44801 -13.91637,-4.58498 -18.69408,-6.9711 -7.97777,-3.9843 -9.963851,-4.16621 -24.333981,-2.22879 -31.252329,4.21347 -57.750762,19.00385 -64.172303,35.8184 -4.822507,12.6276 -2.73589,23.3948 7.702492,39.74544 15.827379,24.79197 21.909203,31.80859 30.543474,35.23805 4.542467,1.80426 10.077107,4.92326 12.299197,6.93111 2.22208,2.00786 8.13081,5.66928 13.1305,8.13652 4.99969,2.46724 12.00103,7.25099 15.558571,10.63057 9.58065,9.10145 21.38948,10.45243 45.5253,5.20823 z M 100.4579,781.6479 c -0.740691,-0.74068 -1.346711,-3.90135 -1.346711,-7.02369 0,-8.95588 7.493101,-12.67841 22.386931,-11.12168 15.27549,1.59658 20.47538,4.25138 19.65222,10.03341 -0.42304,2.97167 -2.93195,5.19433 -7.69786,6.81958 -7.61292,2.59612 -30.78325,3.50369 -32.99458,1.29238 z m 39.05481,-22.7571 c -3.88864,-2.14323 -9.34286,-4.8545 -12.12046,-6.02505 -16.14352,-6.80319 -19.39409,-11.43178 -12.99448,-18.50325 4.63183,-5.11811 8.55286,-4.90984 22.33774,1.18649 6.31321,2.79199 11.95845,4.59645 12.54499,4.00989 0.58658,-0.58654 -1.72399,-4.0072 -5.13455,-7.60145 -11.82217,-12.45887 -16.03701,-26.51293 -9.56273,-31.88611 4.03066,-3.34514 12.74028,-0.49933 15.7627,5.15037 1.18875,2.22208 5.2146,8.90144 8.94633,14.84303 3.73173,5.94157 6.94393,13.21385 7.13823,16.16062 0.32976,5.0015 -0.15031,5.31833 -7.22203,4.76527 -8.3225,-0.65089 -8.64642,-0.053 -5.24991,9.69023 2.01601,5.7832 1.8303,7.03257 -1.39613,9.39179 -4.72018,3.45147 -4.62795,3.45983 -13.0497,-1.18183 z m 181.20916,-21.85291 c 17.76998,-27.34066 27.39747,-49.17858 27.38515,-62.11735 -0.0106,-9.76997 -4.00052,-41.80951 -6.16531,-49.49188 -4.17733,-14.82464 -11.87369,-27.72126 -22.29264,-37.35526 l -10.76087,-9.9502 -37.61397,0.56892 c -27.03102,0.40886 -39.91749,1.41284 -45.80126,3.56838 -4.50302,1.6497 -12.26362,4.46861 -17.24578,6.26428 -11.70535,4.21877 -26.15448,19.07492 -34.18757,35.15056 -4.99775,10.00136 -6.24584,15.04246 -6.24584,25.22722 0,7.7156 0.99443,13.55538 2.52509,14.82861 1.38881,1.15524 4.76501,3.81141 7.50265,5.90258 4.4696,3.41414 4.72632,4.35354 2.51567,9.20539 -2.87906,6.31884 -1.47135,13.45628 4.43402,22.48156 2.32836,3.55848 5.79096,9.31661 7.69467,12.79582 4.74819,8.67775 8.60658,9.59715 19.02796,4.53404 4.91151,-2.38619 11.40552,-4.30886 14.43117,-4.27257 5.56291,0.0666 25.68881,6.31782 28.0984,8.72741 0.71886,0.71884 2.74631,1.30774 4.50547,1.3086 5.91895,0.002 28.74364,12.05582 38.23175,20.18877 5.1746,4.43554 10.39333,8.07049 11.59716,8.07766 1.20382,0.008 6.76766,-7.03197 12.36408,-15.64254 z m -30.19216,-25.90803 c -1.51127,-1.51125 1.07795,-10.41208 5.53738,-19.0357 6.28137,-12.14685 17.22566,-18.14198 19.98618,-10.94817 2.7151,7.07542 0.76698,11.65477 -9.00885,21.17673 -9.6025,9.35311 -13.75451,11.56734 -16.51471,8.80714 z m -20.21705,-13.1131 c -4.69427,-2.77022 -4.96258,-23.18941 -0.39048,-29.717 4.09299,-5.84358 10.09979,-5.71508 14.04127,0.30034 2.62985,4.01369 2.76265,6.38728 0.8194,14.64555 -3.8416,16.32562 -6.77017,19.31508 -14.47019,14.77111 z m -41.27603,-20.92458 c -6.96506,-7.13841 -14.4197,-13.53625 -16.56591,-14.21744 -9.14004,-2.90093 -5.25228,-15.83277 5.06445,-16.84577 5.45165,-0.53533 7.71114,1.08229 18.34086,13.13049 15.26434,17.30128 17.59192,21.54428 14.74089,26.8715 -3.56267,6.65692 -8.26297,4.71001 -21.58029,-8.93878 z"
       id="path3301"
       inkscape:connector-curvature="0" />
  </g>
</svg>
