<?xml version="1.0" encoding="UTF-8" standalone="no"?>
<!-- Created with Inkscape (http://www.inkscape.org/) -->

<svg
   xmlns:dc="http://purl.org/dc/elements/1.1/"
   xmlns:cc="http://creativecommons.org/ns#"
   xmlns:rdf="http://www.w3.org/1999/02/22-rdf-syntax-ns#"
   xmlns:svg="http://www.w3.org/2000/svg"
   xmlns="http://www.w3.org/2000/svg"
   xmlns:sodipodi="http://sodipodi.sourceforge.net/DTD/sodipodi-0.dtd"
   xmlns:inkscape="http://www.inkscape.org/namespaces/inkscape"
   width="512"
   height="512"
   id="svg2"
   version="1.1"
   inkscape:version="0.48.4 r9939"
   sodipodi:docname="24.svg">
  <defs
     id="defs4" />
  <sodipodi:namedview
     id="base"
     pagecolor="#ffffff"
     bordercolor="#666666"
     borderopacity="1.0"
     inkscape:pageopacity="0.0"
     inkscape:pageshadow="2"
     inkscape:zoom="1.1074219"
     inkscape:cx="146.28571"
     inkscape:cy="256"
     inkscape:document-units="px"
     inkscape:current-layer="layer1"
     showgrid="false"
     inkscape:window-width="1276"
     inkscape:window-height="782"
     inkscape:window-x="0"
     inkscape:window-y="14"
     inkscape:window-maximized="0" />
  <metadata
     id="metadata7">
    <rdf:RDF>
      <cc:Work
         rdf:about="">
        <dc:format>image/svg+xml</dc:format>
        <dc:type
           rdf:resource="http://purl.org/dc/dcmitype/StillImage" />
        <dc:title></dc:title>
      </cc:Work>
    </rdf:RDF>
  </metadata>
  <g
     inkscape:label="Layer 1"
     inkscape:groupmode="layer"
     id="layer1"
     transform="translate(0,-540.36215)">
    <path
       style="fill:#000000"
       d="m 320.20049,1045.3618 c -0.8452,-2.2025 -1.01325,-14.5285 -0.37346,-27.3912 0.63978,-12.8627 0.0497,-31.98071 -1.311,-42.48451 -3.10512,-23.96732 0.35651,-38.29035 12.08982,-50.02369 9.20873,-9.20873 18.74969,-10.87807 25.21589,-4.41189 6.07837,6.07839 4.78855,13.02803 -3.5642,19.20347 -11.04732,8.16764 -15.42632,24.13748 -15.63353,57.01403 -0.20144,31.97149 -3.87509,50.00789 -10.43928,51.25399 -2.44617,0.4644 -5.13906,-0.9577 -5.98424,-3.1602 z m -68.48189,-9.9083 c -6.62209,-5.696 -6.77563,-6.3813 -3.9471,-17.6144 4.45684,-17.6997 3.5997,-42.20923 -2.06873,-59.1542 -6.35528,-18.99821 -6.32885,-22.66014 0.30932,-42.88143 5.94042,-18.09578 11.54842,-22.05473 24.72101,-17.4518 5.32212,1.85973 6.77677,4.19822 7.41652,11.92291 0.51203,6.18216 2.32175,10.17157 5.07414,11.18554 6.78861,2.50092 8.18213,6.27263 6.53846,17.69726 -1.19387,8.2982 -0.34497,12.60416 3.81027,19.3275 10.70279,17.31743 4.63442,26.57741 -11.26822,17.19464 -4.97537,-2.93554 -9.47083,-5.33736 -9.98984,-5.33736 -0.51903,0 -0.82422,12.84392 -0.67811,28.54204 0.3776,40.579 -4.61008,49.7364 -19.91772,36.5693 z m 111.42183,1.8014 c -0.87062,-2.2689 -0.26398,-7.7729 1.34818,-12.2312 1.61213,-4.4583 2.93115,-10.6392 2.93115,-13.7354 0,-3.0961 2.1356,-9.8651 4.74577,-15.04225 3.13079,-6.20973 4.05484,-11.13967 2.7154,-14.48708 -7.27462,-18.18001 1.87943,-42.58429 19.57375,-52.18269 11.17874,-6.06395 11.43643,-6.08534 15.00322,-1.24514 4.96908,6.7431 4.6145,9.40609 -2.6846,20.1619 -6.68721,9.85415 -13.98284,23.18463 -13.98284,25.54928 0,0.77827 4.47862,3.20706 9.9525,5.39726 12.97135,5.19011 14.37704,9.64884 5.30093,16.81406 -7.65863,6.04616 -22.86464,25.69156 -22.86464,29.53996 0,1.2193 -2.36622,5.2251 -5.25826,8.9017 -5.90487,7.5068 -14.38569,8.8004 -16.78053,2.5596 z M 77.97348,1034.772 c -1.85826,-2.239 -3.8442,-11.3824 -4.41321,-20.3185 -0.97721,-15.34672 -1.58079,-16.68021 -10.88589,-24.04997 -7.40762,-5.86695 -9.851323,-9.63754 -9.851323,-15.20042 0,-6.6781 0.814734,-7.39802 8.372333,-7.39802 4.60478,0 9.78989,1.41756 11.52246,3.15013 4.273,4.27301 7.92209,-1.57776 7.97413,-12.78529 0.0267,-5.7556 2.13386,-10.30822 6.75199,-14.58816 3.69225,-3.42184 7.44196,-6.22153 8.33275,-6.22153 0.89077,0 3.55205,-3.2714 5.91396,-7.26979 5.89981,-9.98761 20.83229,-12.63121 28.84231,-5.10621 l 5.5796,5.24176 2.75396,-5.14584 c 3.95575,-7.39137 3.42375,-12.35911 -2.16003,-20.17029 -5.32245,-7.44556 -12.15721,-42.79565 -9.57526,-49.52412 1.95674,-5.09918 12.29324,-7.92421 20.99911,-5.73918 8.24853,2.07025 13.7867,14.72297 13.7867,31.49765 0,6.84634 1.706,17.28323 3.79114,23.19311 2.25591,6.39395 3.18955,14.5072 2.30559,20.03527 -1.39836,8.74485 -0.94062,9.54986 7.79992,13.71794 5.10702,2.43536 10.34873,3.7708 11.64829,2.96761 1.29957,-0.80316 2.36283,-6.0347 2.36283,-11.62564 0,-12.68266 3.54753,-19.52522 11.7372,-22.63891 9.03722,-3.43596 14.72467,0.5136 18.39878,12.77676 3.87271,12.92591 1.48406,30.834 -5.25559,39.40207 -6.21966,7.90703 -4.22732,19.97227 4.21108,25.50134 6.1222,4.01141 19.14029,30.08003 19.07402,38.19563 -0.0627,7.6609 -3.89998,11.6058 -10.39635,10.6872 -6.33933,-0.8963 -11.06166,-8.5126 -18.62111,-30.0325 -2.20575,-6.27928 -6.15881,-14.20384 -8.78461,-17.61016 l -4.7741,-6.1933 -5.08297,8.35831 c -2.79565,4.59704 -5.81258,13.22375 -6.70436,19.17035 -0.89176,5.9466 -3.28706,12.9642 -5.32288,15.5945 -3.61542,4.6712 -3.79523,4.6644 -7.72893,-0.2917 -5.13153,-6.4652 -3.68826,-34.77451 2.39454,-46.96772 5.16596,-10.35541 5.28302,-16.1825 0.40636,-20.22976 -3.11917,-2.5887 -4.19436,-1.99036 -6.27986,3.49497 -1.73497,4.56337 -4.38314,6.61843 -8.52856,6.61843 -6.51598,0 -11.94931,-5.01792 -21.36293,-19.72968 -6.85798,-10.71778 -6.86057,-10.82619 0.56193,23.53528 5.6633,26.2174 4.24257,52.74898 -3.22451,60.21608 -2.90898,2.909 -6.89568,4.5275 -9.08378,3.6879 -3.25481,-1.249 -3.81626,-6.6553 -3.39604,-32.7002 0.51893,-32.16347 -1.18411,-42.62059 -6.9412,-42.62059 -7.69663,0 -12.01704,13.17069 -21.51547,65.58999 -2.6243,14.4827 -9.17139,19.3098 -15.63202,11.5252 z m 401.95482,-11.2042 c -1.78344,-8.917 -5.21995,-11.8419 -9.2171,-7.8447 -3.76682,3.7668 -13.71594,3.5977 -16.1086,-0.2737 -1.05276,-1.7034 -2.09374,-11.1223 -2.3132,-20.93084 -0.62366,-27.86883 -3.24595,-39.39882 -8.96055,-39.39882 -3.06605,0 -6.46065,3.40918 -9.29103,9.33096 -5.21693,10.91498 -8.71128,12.69438 -14.18319,7.22248 -3.50935,-3.50935 -3.55286,-5.15086 -0.37523,-14.15723 4.49021,-12.72661 7.45561,-16.95593 24.16192,-34.46042 12.12846,-12.70793 13.16633,-14.68329 10.92794,-20.79923 -2.90177,-7.92852 4.72258,-35.11749 11.32168,-40.3739 2.18982,-1.74423 9.34035,-3.17133 15.89013,-3.17133 9.8915,0 12.61005,1.07049 16.04958,6.31989 3.65526,5.57864 3.72231,7.32186 0.57181,14.86208 -1.96304,4.6982 -8.83274,12.942 -15.26599,18.31952 -7.43095,6.21151 -11.69683,11.82361 -11.69683,15.38812 0,3.08592 -2.8542,9.0028 -6.34268,13.1486 -7.59446,9.0255 -7.90924,14.80664 -1.26853,23.29632 2.72872,3.48847 5.07356,9.76772 5.21074,13.95388 0.13725,4.18617 1.6996,11.6071 3.47203,16.49096 3.64021,10.03048 2.86823,11.3834 11.46121,-20.08596 5.34949,-19.591 12.91854,-30.65545 20.97102,-30.65545 2.59134,0 5.39046,1.76933 6.22031,3.93185 2.28068,5.94337 -4.01065,33.22872 -12.17058,52.78362 -3.99132,9.56499 -7.25696,21.7447 -7.25696,27.066 0,5.3213 -0.69297,11.481 -1.53995,13.6882 -2.55988,6.671 -8.63565,4.5107 -10.26795,-3.6509 z M 32.988125,951.31413 c -2.057169,-4.51499 -2.121694,-7.98758 -0.223922,-12.05108 2.966954,-6.35283 43.129337,-37.41222 48.411087,-37.43851 1.84863,-0.0101 6.78619,-2.28504 10.97236,-5.05742 4.18616,-2.77238 8.38593,-5.04824 9.33279,-5.05742 2.88898,-0.0282 9.69523,7.7594 9.69523,11.09293 0,4.05422 -17.7959,17.44391 -43.76257,32.92712 -6.62707,3.95151 -14.411157,10.50164 -17.29799,14.55583 -6.444042,9.0498 -13.285064,9.46066 -17.126985,1.02855 z M 399.88984,903.74406 c -5.40129,-4.2624 -7.24397,-27.53147 -3.34639,-42.2584 3.43813,-12.99105 12.55281,-32.02153 16.50734,-34.46557 4.20165,-2.59677 2.94582,-6.3908 -2.82155,-8.52428 -7.624,-2.82028 -14.64057,-23.03086 -16.42611,-47.31367 -1.91274,-26.01281 0.94808,-31.02558 15.69993,-27.50966 l 9.92666,2.36592 -0.91121,19.54882 c -0.50117,10.75185 -0.0759,19.54881 0.94524,19.54881 1.02104,0 9.07616,-6.75371 17.9003,-15.00824 8.82413,-8.25454 18.38762,-15.75214 21.25222,-16.66133 4.38365,-1.39133 4.76325,-2.4847 2.39746,-6.90524 -3.89694,-7.28149 5.037,-24.70394 17.88627,-34.88073 10.7195,-8.49001 18.14033,-9.76197 22.97398,-3.93782 4.06157,4.89391 -0.33964,11.88159 -17.72796,28.14636 -10.50763,9.82864 -12.70638,13.40286 -12.70638,20.65518 0,7.42037 -3.12323,12.18712 -20.29656,30.97709 -21.8699,23.92869 -24.75744,30.59664 -13.24988,30.59664 8.88848,0 18.32402,6.46428 18.32402,12.55373 0,2.93937 -3.50621,6.2057 -9.51402,8.8631 -23.8854,10.5651 -28.22635,16.31453 -28.42761,37.65155 -0.13219,14.02555 -5.89879,29.72908 -10.91687,29.72908 -1.8976,0 -5.25858,-1.4271 -7.46888,-3.17134 z m -335.58765,-7.3812 c -6.04009,-4.75114 -6.788232,-6.79371 -5.63568,-15.38664 0.73094,-5.44955 4.43448,-16.04619 8.2301,-23.5481 12.65254,-25.00732 29.26615,-34.57309 31.16771,-17.94574 0.9153,8.00334 -1.81169,14.56651 -13.08641,31.49557 -4.02869,6.04911 -7.92438,15.46799 -8.6571,20.93083 -1.54037,11.4843 -2.5877,11.87245 -12.01862,4.45408 z m 259.71857,-10.22284 c -0.14791,-1.82974 -0.15121,-6.18099 -0.008,-9.66946 0.1436,-3.48847 -2.11452,-9.15629 -5.01827,-12.59516 l -5.27952,-6.25246 -4.70145,6.23282 -4.70144,6.23285 -7.1367,-5.30535 c -10.79095,-8.02191 -10.80462,-18.60037 -0.0396,-30.63753 4.76388,-5.32681 9.96805,-12.17885 11.56483,-15.22673 3.95222,-7.54398 3.7695,-23.63966 -0.26815,-23.6165 -5.72703,0.0327 -38.59546,43.43325 -50.42292,66.5799 -10.07293,19.71294 -23.12339,4.48658 -14.83636,-17.30997 1.434,-3.77176 8.85491,-16.3447 16.49096,-27.93984 14.26577,-21.66237 16.45095,-28.74458 10.41462,-33.75428 -2.63264,-2.1849 -4.20826,-1.98822 -6.53534,0.81572 -4.07935,4.91532 -13.09935,0.88204 -18.53568,-8.2882 -8.58908,-14.48845 -42.86741,-48.57312 -50.94417,-50.65636 -7.81811,-2.01652 -8.06591,-2.51371 -8.79671,-17.65038 -1.26427,-26.18695 13.36163,-47.14893 29.21274,-41.86792 9.792,3.26237 10.01958,8.99713 0.91969,23.17806 -8.36875,13.04161 -9.78743,20.89377 -4.55891,25.23304 4.7087,3.9079 7.99283,0.81618 14.23969,-13.40539 6.59562,-15.01565 11.0207,-20.28505 23.91391,-28.47669 6.30013,-4.00276 12.52088,-5.88702 17.75949,-5.37932 7.0389,0.68216 8.06284,1.72175 8.06284,8.18616 0,5.4323 -1.87091,8.47348 -7.0236,11.41682 -12.04195,6.87865 -35.0151,37.55716 -34.73244,46.38198 0.0581,1.81352 4.0652,7.78185 8.90471,13.26294 l 8.79912,9.96559 5.14799,-5.52572 c 7.22687,-7.75717 13.8126,-6.88216 20.47028,2.71974 7.78431,11.22671 20.30922,21.97113 25.75786,22.09626 3.81808,0.0878 16.06564,7.1194 28.77887,16.52287 2.36694,1.75076 5.38394,0.54712 10.40303,-4.15024 3.88806,-3.63887 10.77968,-8.4883 15.3147,-10.77651 8.75976,-4.41988 9.72842,-7.41058 5.7712,-17.81881 -3.34191,-8.78991 -7.09216,-8.19341 -9.61142,1.52871 -2.70474,10.43797 -8.82352,14.47843 -14.62915,9.6602 -9.6981,-8.0487 2.46674,-44.69363 23.35173,-70.34387 10.58768,-13.00345 17.04675,-16.79005 25.16451,-14.75263 8.27775,2.07758 8.15405,12.3744 -0.2362,19.66972 -6.19118,5.38316 -6.34267,6.3489 -6.34267,40.43487 0,39.82601 1.71447,36.05453 -27.59937,60.71305 l -16.18255,13.6126 1.41733,18.74048 c 0.77954,10.30728 2.07236,19.39552 2.87296,20.19609 0.80057,0.80057 4.01986,-0.90269 7.15398,-3.78503 20.96949,-19.28495 45.02287,-21.70961 45.02287,-4.53839 0,1.84636 -5.35093,6.4929 -11.89099,10.3256 -6.54006,3.83273 -16.52978,11.20921 -22.19937,16.39216 -7.61227,6.95888 -13.46027,9.88491 -22.35945,11.18744 -9.09241,1.33082 -12.11708,0.94709 -12.31991,-1.56293 z m -103.11681,-3.87888 c -1.74424,-0.6266 -3.17134,-4.38763 -3.17134,-8.35784 0,-6.79654 -1.26732,-8.70183 -11.61615,-17.46352 -3.3925,-2.87222 -3.82387,-5.98236 -2.2872,-16.49096 3.05913,-20.91984 2.68455,-40.00851 -1.03819,-52.90999 -3.97473,-13.77464 -7.89209,-15.80973 -7.89209,-4.09996 0,4.37313 -1.3224,12.3649 -2.93864,17.7595 -2.30759,7.70211 -4.1953,9.80836 -8.79046,9.80836 -3.44689,0 -7.14224,-2.346 -8.99164,-5.70841 -4.43695,-8.06677 -3.50209,-33.65515 1.50898,-41.30299 5.06655,-7.73261 15.37604,-8.36008 19.22399,-1.17008 2.00865,3.75319 4.32504,4.69615 8.7859,3.57654 11.81793,-2.96612 16.14881,0.76967 21.74107,18.75364 7.0649,22.71969 7.01144,41.06829 -0.14791,50.75173 -5.0656,6.85156 -5.20087,7.99053 -1.74977,14.73054 5.76024,11.24975 7.80588,27.50171 3.85561,30.63157 -1.82649,1.44714 -4.748,2.1185 -6.49224,1.49187 z M 47.071262,841.58584 c -9.602085,-10.65493 -7.033928,-26.83243 7.227941,-45.53069 7.505797,-9.84061 15.279377,-10.82429 19.109477,-2.41814 2.20283,4.8347 1.54068,8.31746 -3.49705,18.39376 -3.41792,6.83642 -7.04035,15.8485 -8.04984,20.02688 -1.90879,7.90056 -5.799204,13.96806 -8.956169,13.96806 -1.008263,0 -3.633724,-1.99794 -5.834359,-4.43987 z M 121.95822,798.6782 c -4.66597,-1.88276 -3.74048,-27.8273 1.47858,-41.44995 2.88229,-7.52322 6.78164,-12.5709 11.43374,-14.80081 5.78422,-2.77261 6.81962,-4.60615 5.73076,-10.14828 -3.14368,-16.00102 -2.00974,-58.66442 2.13535,-80.33932 4.43312,-23.18116 8.75552,-30.41128 16.67755,-27.89694 3.15055,0.99996 6.84585,-4.57104 15.88145,-23.94302 12.40591,-26.59793 18.40832,-32.79069 27.21454,-28.07776 2.79078,1.49358 5.07358,4.10252 5.0729,5.79767 -0.003,7.60086 -16.60967,44.38602 -23.11573,51.20386 -1.28828,1.34997 -6.60367,2.49166 -11.81202,2.53707 l -9.46974,0.0824 -0.0913,45.56124 c -0.0779,38.85341 0.57571,46.86979 4.43987,54.44919 2.49224,4.88837 4.53133,10.3189 4.53133,12.06785 0,4.18954 -8.18953,8.43256 -16.27583,8.43256 -4.6194,0 -6.83599,1.62718 -7.7762,5.70841 -0.72327,3.13962 -2.9695,13.02557 -4.99162,21.96877 -4.32951,19.14813 -9.29847,23.5942 -21.06347,18.84691 z M 84.86011,784.82823 c -2.72852,-3.89552 -3.11861,-7.09428 -1.41239,-11.58198 1.29649,-3.41002 2.35725,-10.02696 2.35725,-14.70428 0,-10.87776 8.37441,-30.53498 13.91421,-32.66082 6.91235,-2.6525 13.99318,-1.8753 13.99871,1.53653 0.003,1.74423 -1.81012,13.06221 -4.02879,25.15104 -2.89956,15.79859 -5.85837,24.18188 -10.52141,29.81058 -7.68384,9.27504 -9.32913,9.55666 -14.30758,2.44893 z M 13.512584,758.16228 c -8.5260314,-13.01238 0.379084,-36.45301 13.848527,-36.45301 4.071645,0 8.138624,1.19027 9.037732,2.64507 0.899107,1.45479 -1.008143,11.15908 -4.238334,21.5651 -6.476412,20.86367 -11.037339,23.85805 -18.647925,12.24284 z M 52.009811,727.66154 C 45.581236,721.23296 62.54015,682.81657 77.65494,669.56857 l 8.83291,-7.742 -5.41558,-12.24281 c -2.97857,-6.73356 -5.41558,-17.26966 -5.41558,-23.41358 0,-6.20555 -2.81921,-17.86889 -6.34268,-26.24028 -7.39282,-17.56457 -7.77313,-22.85649 -2.39059,-33.26516 6.00981,-11.62171 14.15393,-9.24757 18.37772,5.35738 1.81598,6.27925 5.74532,16.1908 8.73185,22.02566 4.36942,8.53658 4.89422,11.78497 2.68666,16.63006 -2.06835,4.5395 -1.89801,7.54781 0.69224,12.2248 5.48733,9.90802 4.61744,35.95888 -1.45864,43.68337 -2.79078,3.54789 -5.07414,8.77801 -5.07414,11.62245 0,5.0442 -17.17223,40.48484 -23.04504,47.56114 -3.03454,3.65642 -12.882389,4.83383 -15.824259,1.89194 z M 284.84109,716.4347 c -0.93052,-1.50562 -0.24051,-7.92132 1.53343,-14.25712 3.81872,-13.63911 27.10433,-40.27601 39.87579,-45.61472 16.60211,-6.94 24.87785,6.1423 10.976,17.35082 -4.04787,3.26366 -14.31085,11.5609 -22.80653,18.43831 -8.49569,6.87742 -16.18364,14.86919 -17.0843,17.75949 -2.53581,8.13756 -9.26754,11.54436 -12.49439,6.32322 z M 32.895656,684.64914 C 27.014806,679.61537 20.013786,671.20521 17.337834,665.95989 14.661881,660.7146 9.4766676,652.8627 5.8151376,648.51122 c -8.91009,-10.58905 -7.492134,-16.99673 3.642527,-16.46044 10.3704554,0.49947 25.6274854,14.58988 38.1237774,35.20865 7.337169,12.10629 8.117077,14.90161 5.661375,20.29128 -3.846865,8.44294 -7.742689,7.8874 -20.347161,-2.90157 z M 428.81686,683.1458 c -5.67439,-5.67438 -3.08163,-13.93854 9.87557,-31.47712 15.09793,-20.43631 18.93966,-23.83101 26.96906,-23.83101 7.92388,0 9.91299,6.29008 5.08728,16.08728 -4.10467,8.33339 -33.85735,42.26534 -37.0597,42.26534 -1.00526,0 -3.19772,-1.37002 -4.87221,-3.04449 z M 226.04842,654.43114 c -4.64974,-3.25679 -5.39376,-5.93857 -4.81932,-17.37124 0.86717,-17.26096 8.83981,-29.51879 19.19925,-29.51879 12.48145,0 14.17056,5.48078 6.71089,21.77486 -3.61513,7.8965 -6.573,16.27437 -6.573,18.61743 0,4.11505 -4.55038,10.34911 -7.55407,10.34911 -0.80585,0 -3.93954,-1.73312 -6.96375,-3.85137 z m 159.41493,-15.81092 c -2.00652,-3.55611 -3.14262,-3.80863 -5.70762,-1.26854 -6.27887,6.21778 -12.13699,3.18588 -22.05914,-11.41681 -5.45176,-8.02349 -15.12743,-20.38518 -21.50154,-27.47044 -14.04941,-15.61691 -17.16605,-24.8062 -9.75791,-28.77091 2.82153,-1.51006 6.32543,-2.74554 7.78637,-2.74554 4.27002,0 38.25288,33.20571 42.68352,41.70741 2.22582,4.271 4.81457,11.19051 5.75278,15.37667 l 1.7058,7.61122 4.05561,-8.87975 c 2.23059,-4.88386 6.92369,-15.45847 10.42906,-23.49916 6.7568,-15.49876 11.91304,-19.6438 18.07467,-14.53008 4.77337,3.96154 4.72801,10.97364 -0.16186,25.01475 -5.74705,16.50256 -10.60526,24.93443 -16.9114,29.35145 -7.33328,5.1364 -11.2938,5.00422 -14.38834,-0.48027 z m -102.03178,-1.4746 c -3.63418,-1.6309 -8.49962,-4.54321 -10.81208,-6.47178 -7.49055,-6.24701 -14.65863,-26.23369 -15.12066,-42.16076 -0.41266,-14.22484 -0.0482,-15.27806 5.55943,-16.07148 7.74953,-1.09647 10.26019,1.62972 15.68364,17.03011 2.45058,6.9587 8.65171,18.97389 13.7803,26.70043 13.32116,20.06917 9.34352,29.24618 -9.09063,20.97348 z M 119.32312,618.79426 c -9.44214,-6.61354 -10.5585,-11.41502 -6.76682,-29.10413 1.9334,-9.01972 3.55537,-20.48177 3.60439,-25.47125 0.0874,-8.8991 8.18593,-20.10453 14.53015,-20.10453 7.52315,0 8.76388,7.34256 6.67643,39.51124 -1.83793,28.32337 -2.71434,32.61247 -7.28124,35.63485 -4.41978,2.92504 -6.02021,2.85573 -10.76291,-0.46618 z m 354.74284,-26.30879 c -4.22272,-7.89021 -3.11701,-11.98819 5.10025,-18.90257 8.12106,-6.83342 26.16808,-13.0124 30.38804,-10.40434 4.20126,2.59651 2.74338,13.65286 -2.49034,18.88658 -5.26457,5.26455 -23.53107,15.32769 -27.82273,15.32769 -1.40188,0 -3.73073,-2.20832 -5.17522,-4.90736 z"
       id="path3234"
       inkscape:connector-curvature="0" />
  </g>
</svg>
