<?xml version="1.0" encoding="UTF-8" standalone="no"?>
<!-- Created with Inkscape (http://www.inkscape.org/) -->

<svg
   xmlns:dc="http://purl.org/dc/elements/1.1/"
   xmlns:cc="http://creativecommons.org/ns#"
   xmlns:rdf="http://www.w3.org/1999/02/22-rdf-syntax-ns#"
   xmlns:svg="http://www.w3.org/2000/svg"
   xmlns="http://www.w3.org/2000/svg"
   xmlns:sodipodi="http://sodipodi.sourceforge.net/DTD/sodipodi-0.dtd"
   xmlns:inkscape="http://www.inkscape.org/namespaces/inkscape"
   width="512"
   height="512"
   id="svg2"
   version="1.1"
   inkscape:version="0.48.4 r9939"
   sodipodi:docname="New document 1">
  <defs
     id="defs4" />
  <sodipodi:namedview
     id="base"
     pagecolor="#ffffff"
     bordercolor="#666666"
     borderopacity="1.0"
     inkscape:pageopacity="0.0"
     inkscape:pageshadow="2"
     inkscape:zoom="1.1074219"
     inkscape:cx="146.28571"
     inkscape:cy="256"
     inkscape:document-units="px"
     inkscape:current-layer="layer1"
     showgrid="false"
     inkscape:window-width="1276"
     inkscape:window-height="782"
     inkscape:window-x="0"
     inkscape:window-y="14"
     inkscape:window-maximized="0" />
  <metadata
     id="metadata7">
    <rdf:RDF>
      <cc:Work
         rdf:about="">
        <dc:format>image/svg+xml</dc:format>
        <dc:type
           rdf:resource="http://purl.org/dc/dcmitype/StillImage" />
        <dc:title></dc:title>
      </cc:Work>
    </rdf:RDF>
  </metadata>
  <g
     inkscape:label="Layer 1"
     inkscape:groupmode="layer"
     id="layer1"
     transform="translate(0,-540.36215)">
    <path
       style="fill:#000000"
       d="m 354.26754,1002.5433 c 0,-12.80469 0.94699,-16.49492 6.46632,-25.19802 16.86865,-26.59908 30.69157,-14.41481 14.92239,13.15342 -19.1721,33.5174 -21.38871,34.7656 -21.38871,12.0446 z m 52.85985,-1.6775 c -4.70319,-12.3703 -3.75975,-14.45359 18.87089,-41.67056 2.98986,-3.5958 5.43612,-8.4465 5.43612,-10.77933 0,-6.02252 22.42138,-30.79806 34.02639,-37.59906 7.91675,-4.63951 10.83513,-5.31448 15.42821,-3.5682 8.82807,3.35643 7.60782,11.75437 -2.6033,17.91627 -4.54733,2.74408 -11.87873,8.18013 -16.29204,12.0801 -4.41328,3.89999 -10.11812,7.75547 -12.67741,8.56775 -2.55927,0.8123 -4.65325,3.24057 -4.65325,5.39614 0,2.15558 -1.91202,5.64961 -4.24892,7.76447 -2.3369,2.11488 -4.93155,7.88574 -5.7659,12.8242 -0.94468,5.59151 -3.81928,11.13196 -7.61957,14.68582 -3.35643,3.13876 -7.73227,8.93132 -9.7241,12.87234 -4.36447,8.63556 -7.30228,9.07146 -10.17712,1.51006 z M 107.04125,988.3319 c -13.463541,-12.46893 -16.259891,-24.37716 -7.494841,-31.91654 3.205581,-2.75732 8.099591,-5.01331 10.875591,-5.01331 7.35837,0 12.88351,7.00814 11.10662,14.08778 -0.93718,3.734 -0.19291,7.70961 2.09769,11.20553 1.9526,2.98005 3.5502,8.92572 3.5502,13.21256 0,6.63524 -0.74481,7.79424 -5.00879,7.79424 -2.83575,0 -9.39828,-4.06523 -15.12647,-9.37026 z m 63.03434,1.81973 c -2.46545,-3.76277 -3.30682,-9.29768 -2.84126,-18.69138 0.66057,-13.32896 0.64792,-13.35932 -10.12938,-24.30114 -10.06596,-10.21963 -10.65491,-11.42929 -8.76799,-18.00865 1.11255,-3.87922 3.81172,-8.14871 5.99816,-9.48773 3.27309,-2.00451 4.94373,-1.3205 9.4575,3.87223 3.0152,3.46874 6.03906,9.09114 6.71967,12.49422 1.17589,5.87945 1.82919,6.18212 13.12474,6.08062 11.35786,-0.10209 11.88727,-0.36664 11.88727,-5.94055 0,-7.00863 5.59479,-15.63394 10.14091,-15.63394 1.80213,0 8.15233,4.56067 14.11157,10.13485 8.30964,7.77269 11.64724,12.92896 14.32005,22.12308 3.59823,12.37747 3.07146,16.24695 -2.2118,16.24695 -4.24534,0 -14.31306,13.71606 -14.31306,19.49982 0,6.74421 -7.40328,6.14564 -13.06858,-1.05663 -5.03558,-6.4017 -6.05524,-18.28037 -1.92384,-22.41177 1.45515,-1.45515 5.36517,-2.64572 8.68895,-2.64572 8.59779,0 9.38474,-3.02955 2.81506,-10.83716 -7.71822,-9.1726 -15.32888,-9.17311 -17.16327,-0.001 -0.74799,3.73991 -3.45302,9.73926 -6.01117,13.33184 -2.55814,3.5926 -5.1806,10.70216 -5.82768,15.79903 -1.94198,15.2965 -8.47365,19.4025 -15.00585,9.43316 z m 121.79977,-0.4574 c -5.89579,-5.89579 2.78632,-32.89863 15.43692,-48.01152 3.71936,-4.44331 4.97118,-7.99122 4.07682,-11.55463 -1.66306,-6.62619 2.33262,-22.95692 9.28374,-37.94361 4.72226,-10.18124 5.1566,-12.92518 3.14085,-19.8429 -7.45562,-25.58635 -7.81548,-28.85723 -3.67791,-33.42921 2.17165,-2.39963 5.12913,-4.36297 6.57217,-4.36297 3.55708,0 9.27497,6.72233 10.31432,12.12622 0.7156,3.72052 2.30143,4.30015 10.14907,3.70956 8.53545,-0.64236 9.30097,-0.2657 9.30097,4.57641 0,2.90201 -2.46054,7.58793 -5.46785,10.41314 -3.88892,3.65346 -5.10375,6.58752 -4.20696,10.16058 0.9029,3.59748 -0.0485,5.84158 -3.35122,7.90412 -3.32982,2.07951 -4.61211,5.14864 -4.61211,11.03891 0,4.48723 -0.8226,8.66699 -1.82799,9.28836 -3.83707,2.37145 -7.61781,25.42083 -6.17847,37.66734 1.61508,13.74175 -0.89244,20.99186 -7.26023,20.99186 -5.95766,0 -12.61078,6.34371 -18.49846,17.63814 -4.92148,9.44092 -9.81276,13.01112 -13.19366,9.6302 z m -38.80745,-9.70373 c -2.91748,-5.59733 -4.6292,-12.99514 -4.6292,-20.00688 0,-9.422 1.01276,-12.1383 6.6143,-17.73984 7.70776,-7.70776 8.11511,-12.18489 2.47668,-27.22039 -2.80658,-7.48401 -6.52282,-12.59698 -11.57324,-15.92296 -8.35095,-5.49955 -15.15588,-11.70035 -15.15588,-13.81035 0,-0.77121 4.87512,-2.65166 10.83361,-4.17877 9.28946,-2.38081 11.79416,-2.27984 17.57277,0.7084 8.56254,4.42785 10.49815,8.17946 13.23123,25.64459 4.89335,31.26989 4.77343,39.05441 -0.70262,45.60927 -5.07771,6.07808 -12.90871,28.58772 -11.01274,31.65544 0.55904,0.90455 0.10693,2.20672 -1.00465,2.89371 -1.11158,0.687 -4.1042,-2.74749 -6.65026,-7.63222 z m 214.37459,1.7271 c -0.95325,-1.51578 -1.66753,-8.30615 -1.58728,-15.08971 0.17198,-14.53015 7.47335,-29.7422 16.78225,-34.96477 5.4432,-3.05378 6.34667,-3.02785 9.6515,0.27699 4.76188,4.76188 2.6257,17.03767 -4.43043,25.46014 -2.82365,3.37041 -7.27362,10.84071 -9.88883,16.60067 -4.85663,10.6966 -7.45526,12.60145 -10.52721,7.71668 z m -89.5029,-44.09534 c -1.01845,-6.30557 0.49215,-24.2347 4.27251,-50.70965 0.6493,-4.54733 2.06849,-8.26788 3.15376,-8.26788 1.08526,0 1.97318,-1.48822 1.97318,-3.30715 0,-4.65107 -4.60668,-4.13187 -5.8599,0.66046 -0.94331,3.60718 -9.57347,10.91267 -9.57347,8.104 0,-0.65689 2.54626,-6.21919 5.65838,-12.36066 4.92369,-9.71641 5.25689,-11.63925 2.56628,-14.80887 -1.70064,-2.00342 -7.32249,-12.07584 -12.493,-22.38312 -5.17049,-10.30729 -11.28451,-22.21303 -13.5867,-26.45721 -5.35768,-9.87712 -5.38662,-15.43337 -0.0805,-15.43337 6.23475,0 15.31639,8.16679 20.45863,18.39774 2.53271,5.03902 5.85617,10.65007 7.38547,12.469 1.52931,1.81893 3.42695,7.7718 4.21699,13.2286 2.12718,14.69255 3.92581,16.70885 10.85491,12.16873 6.42594,-4.21044 10.29575,-2.93448 10.29575,3.39477 0,5.67059 6.94407,5.59607 12.12622,-0.13008 4.32044,-4.77405 10.99595,-5.81728 13.30606,-2.07945 3.12266,5.05258 -2.08342,14.46797 -15.93066,28.81124 -13.1446,13.61541 -14.36355,15.65276 -13.11128,21.91408 1.15545,5.77729 0.10825,8.38947 -6.42053,16.017 -4.29063,5.01262 -8.86762,13.34916 -10.17105,18.52562 -2.81035,11.16091 -7.41642,12.30529 -9.04112,2.24624 z m -317.641021,1.2861 c -2.39927,-2.39925 -1.68321,-9.36038 1.61991,-15.7479 4.53395,-8.76768 21.50336,-20.02257 33.68886,-22.34399 12.064841,-2.29845 18.340561,-4.43569 18.340561,-6.24602 0,-0.68238 -5.68246,-6.52909 -12.6277,-12.99272 -8.705791,-8.10212 -14.452931,-11.75207 -18.504631,-11.75207 -3.32512,0 -6.45803,-1.51428 -7.21521,-3.48748 -4.43932,-11.56868 2.77203,-23.58671 16.64764,-27.74395 4.91167,-1.47157 9.436811,-3.9955 10.055861,-5.60873 0.61905,-1.61325 -0.97243,-7.8101 -3.536651,-13.77078 -6.25192,-14.53296 -6.28111,-27.94972 -0.065,-29.92259 8.027031,-2.54768 14.158091,5.80877 16.804101,22.90343 1.28454,8.29881 4.04901,18.69962 6.14328,23.11295 4.68184,9.86629 3.43961,13.65862 -5.02892,15.35234 -3.58897,0.71779 -7.08712,2.76891 -7.77366,4.55801 -1.89295,4.93297 7.87029,33.18867 11.7153,33.90517 2.15639,0.40182 6.17308,-4.98251 11.54356,-15.47411 18.46061,-36.06391 25.73879,-43.11797 33.32012,-32.29407 3.67947,5.25317 1.84239,14.81234 -4.62622,24.0724 -2.12233,3.03822 -6.33917,10.28412 -9.37072,16.10201 -3.03156,5.81788 -9.79325,15.73389 -15.02598,22.03555 -5.2327,6.30167 -11.88367,16.04645 -14.77987,21.65509 -2.89623,5.60862 -6.7714,10.77523 -8.6115,11.48135 -4.5205,1.73465 -10.0876,-4.23253 -10.0876,-10.81251 0,-3.80741 -1.22122,-5.35443 -4.226741,-5.35443 -6.90954,0 -22.93877,7.86163 -28.67789,14.06527 -5.56856,6.01921 -7.25992,6.76874 -9.72086,4.30778 z M 262.61232,858.55253 c -8.63495,-13.67864 -9.35851,-37.03145 -1.89707,-61.22817 4.54963,-14.75402 -11.97938,6.69912 -17.27034,22.41534 -0.68572,2.03683 -1.78674,1.9543 -4.56911,-0.34245 -12.5147,-10.33052 8.52762,-51.90919 28.78083,-56.86965 4.58792,-1.12368 10.07793,-1.67611 12.20002,-1.22764 6.41805,1.3564 4.37143,8.63442 -3.85835,13.72071 -8.3412,5.15514 -9.31615,9.05491 -4.40953,17.63814 1.73299,3.03155 3.18606,8.57103 3.22901,12.30994 0.043,3.73893 0.74305,7.46296 1.55571,8.27562 1.57557,1.57555 9.9401,-3.29329 17.07089,-9.93663 3.97013,-3.69871 12.31828,-5.63624 12.31828,-2.85896 0,1.17876 -6.8878,14.19508 -16.35701,30.91088 -4.954,8.74517 -8.35565,18.04432 -11.04657,30.19812 -2.02883,9.16346 -8.89183,7.85367 -15.74676,-3.00525 z m 205.56821,7.59851 c -3.5686,-3.56857 -0.7145,-14.19466 9.34759,-34.80207 15.64106,-32.03327 30.25717,-44.41156 34.14583,-28.91786 1.10725,4.41165 -0.4658,8.54691 -6.88179,18.09093 -4.57443,6.80462 -10.79749,16.50965 -13.82905,21.56675 -7.04273,11.74834 -17.69802,25.5321 -19.73712,25.5321 -0.8666,0 -2.23706,-0.66143 -3.04546,-1.46985 z M 33.917589,864.02249 c -1.93444,-1.93444 -1.74962,-18.29207 0.26245,-23.22797 2.48868,-6.10504 20.50432,-24.16136 23.21881,-23.27121 5.20624,1.70724 3.71889,11.64878 -3.37195,22.53799 -3.94817,6.06311 -8.20346,13.98819 -9.45621,17.61129 -2.20423,6.37493 -7.48214,9.52089 -10.6531,6.3499 z M 193.30185,846.63857 c -8.92902,-18.70911 -14.16032,-38.4789 -11.01436,-41.62486 3.63,-3.63 9.14229,0.92968 15.94126,13.18644 4.97391,8.96662 6.02049,13.59652 6.06311,26.82188 0.0282,8.79151 -0.88995,15.98456 -2.04064,15.98456 -1.15067,0 -5.1779,-6.46561 -8.94937,-14.36802 z m 199.94783,-35.57855 c -16.01783,-18.0449 -18.5077,-23.11611 -15.06227,-30.67797 4.09139,-8.97967 11.11199,-6.28906 18.98905,7.27743 3.6841,6.34501 7.78973,11.55377 9.12366,11.57502 1.33392,0.0221 7.61839,-5.93199 13.96548,-13.22939 13.99961,-16.09571 22.74396,-21.26468 30.21492,-17.86067 2.86349,1.30469 5.20632,3.4694 5.20632,4.81047 0,1.34107 -7.86688,10.0436 -17.48193,19.33899 -9.8627,9.53475 -18.94233,20.50409 -20.83278,25.16854 -2.17073,5.35602 -4.74936,8.22971 -7.32171,8.15949 -2.18397,-0.0595 -9.74429,-6.61247 -16.80074,-14.56191 z m 64.53953,-3.15917 c -3.72812,-6.96607 0.52214,-19.49173 9.6387,-28.40554 7.32527,-7.16234 7.34139,-7.22513 6.44859,-25.11918 -1.15543,-23.15815 -5.90042,-47.06016 -10.30945,-51.9321 -4.73758,-5.23496 -4.41108,-11.20452 0.61282,-11.20452 7.57178,0 18.8144,9.55242 20.80603,17.67807 1.03487,4.22222 2.94154,11.33554 4.23701,15.80739 1.36799,4.72221 1.84727,16.73744 1.14324,28.66197 -1.10289,18.68077 -2.07455,22.22051 -10.78023,39.27187 -10.38278,20.3362 -16.70453,24.75687 -21.79671,15.24204 z M 130.15317,795.41477 c -8.45451,-10.62257 -10.11455,-15.29613 -7.30071,-20.55381 4.60428,-8.60316 10.50591,-5.10673 17.5307,10.38612 7.97938,17.59813 8.04722,18.43556 1.49333,18.43556 -3.30323,0 -7.49681,-2.95752 -11.72332,-8.26787 z M 76.646679,783.02832 c -2.52415,-4.08416 -4.58935,-9.36801 -4.58935,-11.74191 0,-4.43939 -8.46476,-13.90388 -12.4352,-13.90388 -7.80448,0 -16.53681,-23.87955 -12.91048,-35.30511 3.29232,-10.37317 18.73138,-1.59974 18.73138,10.6443 0,2.87363 1.98429,7.7474 4.40953,10.83059 2.42525,3.08319 4.40954,8.47958 4.40954,11.99197 0,3.62777 1.42099,6.93146 3.28982,7.64861 3.53752,1.35747 10.64603,22.12836 8.66824,25.32847 -2.20203,3.56295 -4.95158,1.98533 -9.57348,-5.49304 z m 222.928371,-1.9816 c -1.27489,-1.53615 -2.98127,-11.20957 -3.79192,-21.49648 -1.37312,-17.42446 -1.11073,-19.23115 3.83712,-26.42015 4.37503,-6.35672 6.48858,-7.60292 11.99272,-7.07111 4.00423,0.3869 7.81292,-0.71745 9.50473,-2.75596 5.8206,-7.01341 15.5117,-2.51903 15.5117,7.19378 0,2.91715 2.48037,8.25163 5.51192,11.85444 6.23954,7.41525 6.72818,10.32039 2.66953,15.87093 -4.08794,5.59061 -13.64202,2.5755 -20.97979,-6.62087 -3.26819,-4.09597 -6.68629,-7.44726 -7.59575,-7.44731 -0.90947,-4e-5 -1.65358,6.72419 -1.65358,14.94272 0,19.81822 -7.57748,30.90165 -15.00668,21.95001 z m -72.50794,-1.21917 c -1.31642,-0.82485 -3.64256,-5.6837 -5.16919,-10.79743 -2.37722,-7.96298 -2.24258,-10.69361 0.93795,-19.0217 2.0425,-5.34821 5.66227,-11.48752 8.04394,-13.64288 5.50105,-4.97841 5.47909,-11.07364 -0.0792,-21.97597 -6.11536,-11.99495 -5.76923,-18.31525 1.09745,-20.03867 3.02884,-0.7602 6.84699,-0.86797 8.48473,-0.2395 5.66855,2.17522 14.18257,22.28007 15.62307,36.89204 1.67583,16.99878 -1.42522,24.9336 -10.14243,25.95198 -5.0003,0.58416 -5.97843,1.99653 -7.24864,10.46692 -1.46873,9.79419 -6.71691,15.43211 -11.54764,12.40521 z m 215.61436,-24.37216 c -7.65028,-5.92864 -13.38032,-26.40802 -13.41936,-47.96136 -0.0245,-13.54744 0.80372,-18.61335 3.3949,-20.76382 5.16647,-4.28781 12.63966,4.13842 13.18708,14.86875 0.95059,18.63381 4.09624,37.3136 7.05191,41.8763 3.81991,5.89684 2.89545,14.76131 -1.6187,15.52162 -1.81893,0.30636 -5.68706,-1.28732 -8.59583,-3.54149 z m -304.86804,-8.06694 c -6.12603,-3.32659 -9.61318,-10.90449 -20.51494,-44.58112 -3.66302,-11.31546 -8.55893,-20.7953 -14.37429,-27.8327 -6.273661,-7.592 -8.819201,-12.73184 -8.819201,-17.80737 0,-7.55146 5.53946,-14.43263 11.618511,-14.43263 5.19227,0 6.3111,-3.17149 2.80212,-7.94307 -2.19744,-2.9881 -5.79895,-4.18315 -12.606791,-4.18315 l -9.53052,0 0.19798,-9.47369 c 0.25635,-12.26977 6.68444,-21.15683 15.971711,-22.08149 6.49719,-0.64686 7.26202,0.0851 12.66899,12.12622 3.1649,7.04807 6.29281,16.78324 6.95093,21.63373 0.6581,4.85049 2.54809,11.49819 4.19997,14.77269 1.65188,3.2745 3.00342,7.67673 3.00342,9.78275 0,3.13763 -1.11671,2.75924 -6.18375,-2.09528 -7.8697,-7.53962 -9.24966,-7.44294 -9.24966,0.64789 0,5.19583 1.17051,6.86607 5.58888,7.97502 6.32497,1.58746 10.71784,8.92232 13.05364,21.79591 0.87655,4.831 5.03796,14.66036 9.24761,21.84303 8.12273,13.85932 14.0335,32.70898 12.31607,39.27643 -1.24677,4.76763 -8.17294,5.01212 -16.34068,0.57683 z m 63.61049,-4.75257 c -2.94283,-4.62188 -9.9388,-14.28167 -15.54658,-21.46619 -5.60776,-7.18454 -10.19595,-14.17917 -10.19595,-15.54361 0,-3.42654 4.66192,-7.77227 8.33777,-7.77227 6.55345,0 22.02214,15.73461 29.01725,29.51606 8.27487,16.30282 8.19294,21.9958 -0.3308,22.98269 -4.81321,0.55728 -6.93951,-0.89709 -11.28169,-7.71668 z m 155.09681,-3.44268 c 0.0915,-17.70953 12.88521,-36.36607 23.54442,-34.33391 6.29554,1.20023 5.78963,8.5979 -1.67953,24.55916 -6.73415,14.39054 -11.31881,19.14501 -18.46122,19.14501 -2.59904,0 -3.44012,-2.31551 -3.40367,-9.37026 z m -82.02204,-32.35955 c -3.67473,-2.89053 -7.38289,-9.96587 -10.73239,-20.47796 -2.81476,-8.8338 -7.01515,-18.66772 -9.33421,-21.85313 -6.17787,-8.48579 -4.3077,-13.91865 5.0488,-14.66684 11.55962,-0.92437 21.78132,5.77266 29.40384,19.26471 6.03634,10.6845 6.36187,12.28075 3.78649,18.56782 -1.54969,3.78314 -3.46978,10.34025 -4.26689,14.57135 -1.72942,9.18004 -6.1985,10.6565 -13.90564,4.59405 z m 54.55992,-4.40911 c -9.2651,-10.23779 -9.13696,-39.16591 0.23824,-53.78869 4.62415,-7.21246 5.20389,-10.07791 4.0146,-19.84291 -1.03177,-8.47155 -0.53073,-12.54962 1.94403,-15.82267 3.30312,-4.36861 3.385,-4.35838 8.82568,1.10239 8.11871,8.14871 19.68974,38.6971 16.74307,44.20298 -2.5404,4.7468 -8.72737,5.65884 -12.53794,1.84828 -5.35046,-5.35047 -7.24735,0.80787 -7.24735,23.52903 0,20.90549 -0.37364,23.01993 -4.06782,23.01993 -2.23731,0 -5.79794,-1.91175 -7.91251,-4.24834 z M 14.286049,698.40501 c -3.12501,-3.33472 -7.8816897,-10.44877 -10.5703797,-15.809 -4.25308,-8.47901 -4.5649,-10.82618 -2.39872,-18.05619 4.95043,-16.52307 18.4184297,-12.37968 20.8088797,6.40181 4.29954,33.78072 4.29182,33.52649 1.01724,33.52649 -1.74635,0 -5.732,-2.7284 -8.85702,-6.06311 z m 190.505991,-9.93204 c -2.55998,-3.08458 -3.38392,-15.13696 -2.64749,-38.72665 0.45615,-14.61121 3.56068,-18.83301 10.58895,-14.39969 7.18075,4.5295 8.74457,16.02295 4.90384,36.04109 -3.63919,18.96766 -7.27242,23.80016 -12.8453,17.08525 z M 54.419189,674.8349 c -3.03155,-1.66085 -8.06358,-7.33055 -11.18229,-12.59928 -4.02734,-6.80378 -7.22161,-9.6763 -11.02384,-9.91347 -2.9444,-0.18366 -6.59364,-0.43169 -8.10942,-0.55119 -4.64904,-0.3665 -3.06396,-7.97835 2.81064,-13.49723 5.39407,-5.06749 5.85529,-5.1249 14.88218,-1.85249 10.4324,3.78192 17.90784,13.03216 21.59369,26.72039 2.32569,8.63693 1.58558,14.94179 -1.73628,14.79114 -0.94752,-0.043 -4.20312,-1.437 -7.23468,-3.09787 z m 88.644721,-22.10238 c -5.30487,-6.74405 -7.94087,-21.88604 -4.8239,-27.71015 3.02236,-5.64734 12.32688,-5.65629 15.34613,-0.0154 3.81345,7.12552 5.19229,23.25753 2.42917,28.42048 -3.33379,6.22926 -7.68831,5.9954 -12.9514,-0.69554 z m 256.78836,-27.63446 c -8.39418,-26.242 -8.98286,-35.27784 -2.29825,-35.27784 10.01172,0 17.66705,13.72507 22.63018,40.57303 2.71947,14.71107 0.56731,21.1868 -7.0167,21.11281 -4.289,-0.0419 -5.90915,-3.2551 -13.31523,-26.408 z m 62.83228,12.58662 c -3.44019,-4.14516 -0.63008,-58.93204 3.09604,-60.36188 4.72996,-1.81505 11.19491,3.13765 15.24974,11.68256 5.30509,11.17967 3.20106,31.61764 -4.44431,43.17053 -5.75858,8.70184 -9.89208,10.33983 -13.90147,5.50879 z m -204.23498,-3.48746 c -0.76545,-2.41171 -1.59478,-13.77437 -1.84294,-25.25034 -0.38513,-17.8092 0.16293,-21.54428 3.74177,-25.50018 3.04869,-3.36988 4.95138,-4.00536 6.97178,-2.32857 3.9722,3.29664 8.26158,22.97795 6.83478,31.3607 -3.69964,21.73645 -4.83203,24.74413 -9.57199,25.42361 -3.16784,0.4541 -5.20363,-0.77574 -6.1334,-3.70522 z m -47.1615,-24.98228 c -13.76795,-16.81151 -16.20861,-25.14577 -9.05914,-30.93505 2.77002,-2.24304 6.60374,-3.77641 8.51935,-3.40749 3.16261,0.60905 26.6666,33.02867 26.6666,36.78185 0,2.85561 -8.91961,11.23748 -11.95844,11.23748 -1.63219,0 -8.00794,-6.15457 -14.16837,-13.67679 z"
       id="path3062"
       inkscape:connector-curvature="0" />
  </g>
</svg>
