<?xml version="1.0" encoding="UTF-8" standalone="no"?>
<!-- Created with Inkscape (http://www.inkscape.org/) -->

<svg
   xmlns:dc="http://purl.org/dc/elements/1.1/"
   xmlns:cc="http://creativecommons.org/ns#"
   xmlns:rdf="http://www.w3.org/1999/02/22-rdf-syntax-ns#"
   xmlns:svg="http://www.w3.org/2000/svg"
   xmlns="http://www.w3.org/2000/svg"
   xmlns:sodipodi="http://sodipodi.sourceforge.net/DTD/sodipodi-0.dtd"
   xmlns:inkscape="http://www.inkscape.org/namespaces/inkscape"
   width="512"
   height="512"
   id="svg2"
   version="1.1"
   inkscape:version="0.48.4 r9939"
   sodipodi:docname="23.svg">
  <defs
     id="defs4" />
  <sodipodi:namedview
     id="base"
     pagecolor="#ffffff"
     bordercolor="#666666"
     borderopacity="1.0"
     inkscape:pageopacity="0.0"
     inkscape:pageshadow="2"
     inkscape:zoom="1.1074219"
     inkscape:cx="146.28571"
     inkscape:cy="256"
     inkscape:document-units="px"
     inkscape:current-layer="layer1"
     showgrid="false"
     inkscape:window-width="1276"
     inkscape:window-height="782"
     inkscape:window-x="0"
     inkscape:window-y="14"
     inkscape:window-maximized="0" />
  <metadata
     id="metadata7">
    <rdf:RDF>
      <cc:Work
         rdf:about="">
        <dc:format>image/svg+xml</dc:format>
        <dc:type
           rdf:resource="http://purl.org/dc/dcmitype/StillImage" />
        <dc:title></dc:title>
      </cc:Work>
    </rdf:RDF>
  </metadata>
  <g
     inkscape:label="Layer 1"
     inkscape:groupmode="layer"
     id="layer1"
     transform="translate(0,-540.36215)">
    <path
       style="fill:#000000"
       d="m 319.99933,1030.2376 c -4.26429,-0.9538 -11.08271,-16.0511 -11.08271,-24.5391 0,-5.3478 5.26137,-12.72209 9.0769,-12.72209 1.03082,0 3.98441,1.80478 6.56357,4.01061 4.21701,3.60658 6.66423,17.29848 5.28126,29.54788 -0.36196,3.2059 -4.72293,4.847 -9.83902,3.7027 z m 66.04331,-11.0161 c -10.5035,-10.2009 -10.87974,-17.4807 -1.3629,-26.37077 5.82679,-5.44303 6.60036,-7.31332 4.58355,-11.0818 -1.33448,-2.49348 -2.42632,-11.52394 -2.42632,-20.06766 0,-14.19841 -0.54189,-15.96677 -6.30238,-20.56652 -5.56193,-4.44118 -6.26915,-6.48549 -6.01946,-17.40028 0.44355,-19.39034 10.65471,-33.80966 21.12099,-29.82525 3.10407,1.18167 2.75506,12.30688 -0.82176,26.19611 -1.40763,5.46602 -0.71224,6.55553 5.90852,9.2571 l 7.50393,3.0619 0.20328,31.78311 c 0.1822,28.47957 -0.21497,31.89246 -3.81961,32.83511 -4.89837,1.28094 -5.06296,5.05065 -0.67868,15.54375 6.76454,16.1898 -3.95661,20.1663 -17.88916,6.6352 z m -311.650958,-0.2716 c -2.86905,-2.8691 -1.50398,-13.3591 2.53541,-19.48387 2.21821,-3.36334 8.8991,-10.39837 14.84646,-15.63345 13.462708,-11.85036 20.822098,-11.95757 21.935098,-0.31955 0.6635,6.93767 -0.83397,9.21482 -14.694208,22.34477 -14.27432,13.5223 -20.74962,16.9652 -24.62276,13.0921 z M 186.00588,989.56855 c -4.10996,-1.72812 -8.156,-5.86154 -9.9301,-10.14457 -4.02745,-9.72317 -1.62975,-29.46221 4.29895,-35.39089 4.24976,-4.24978 4.80095,-4.28489 10.33545,-0.65854 5.29141,3.46706 5.82115,5.18709 5.58141,18.12209 -0.14576,7.86031 0.47967,17.49621 1.38966,21.41311 2.02949,8.73553 -1.69048,10.85714 -11.67537,6.6588 z m 45.24589,-16.27332 c -16.64017,-17.75461 -19.70065,-25.06084 -12.87173,-30.72835 2.75955,-2.29019 4.52756,-2.12184 9.08647,0.86528 8.80514,5.76934 10.40509,4.59004 10.40509,-7.66949 0,-8.93971 0.95881,-11.89138 4.47385,-13.77256 3.57494,-1.91324 5.41686,-1.38215 9.1671,2.64329 2.58129,2.77069 4.7159,7.16356 4.74358,9.76195 0.0802,7.53928 8.75385,24.70444 11.95839,23.66601 1.58829,-0.51466 4.26144,-5.20223 5.94033,-10.41682 3.80909,-11.83097 10.7949,-14.90413 16.85827,-7.41619 5.58567,6.89802 5.24193,11.76373 -1.82939,25.89589 -9.81005,19.60561 -18.6256,26.53715 -25.28302,19.87972 -1.65736,-1.65736 -3.28725,-1.30644 -5.32253,1.14589 -5.37456,6.47594 -10.89537,3.67686 -27.32641,-13.85462 z m 112.28585,-3.78838 c -1.06336,-2.87457 -0.93704,-8.17141 0.287,-12.03181 1.20265,-3.79305 2.98013,-10.74497 3.94992,-15.44872 3.11236,-15.09572 9.71203,-19.30199 17.23763,-10.98631 5.03383,5.56232 3.59859,17.91418 -3.86714,33.28092 -5.75396,11.84337 -14.22203,14.33748 -17.60741,5.18592 z M 11.912002,953.59123 c -3.5831801,-6.92911 -3.5106701,-8.1236 1.42583,-23.49069 7.36034,-22.91227 14.90804,-30.19968 20.48519,-19.77868 3.77692,7.05725 2.81171,14.85393 -3.75924,30.36563 -9.71678,22.93796 -12.09033,24.62528 -18.15178,12.90374 z m 60.1879,5.77248 c -0.84032,-0.8403 -1.52786,-4.81078 -1.52786,-8.82324 0,-12.80041 22.52838,-38.79356 32.410468,-37.39503 12.83396,1.81626 2.9362,25.5714 -17.267888,41.44375 -8.24468,6.47703 -10.96,7.42927 -13.61472,4.77452 z m 86.392738,-31.69146 c -0.99631,-2.59629 -3.48233,-3.07962 -10.26307,-1.99534 -7.39556,1.1826 -10.50325,0.3533 -17.90928,-4.77908 -13.28712,-9.20796 -21.59409,-22.25435 -20.08805,-31.54896 0.67048,-4.13794 1.56074,-9.58613 1.97835,-12.10708 0.83471,-5.03881 -1.3717,-5.27285 -13.688628,-1.45191 -6.46709,2.0062 -8.25793,1.6638 -12.26714,-2.3454 l -4.69454,-4.69454 8.11341,-8.35884 8.11343,-8.35884 -6.7322,-7.48443 c -8.17499,-9.08837 -8.25827,-10.39006 -1.09141,-17.0594 l 5.64081,-5.24924 -6.73239,-10.00403 c -8.97844,-13.34159 -11.23347,-25.18979 -5.58097,-29.32301 5.26537,-3.85013 11.21546,-3.93591 14.29334,-0.20603 3.075488,3.72696 11.947918,30.13705 11.947918,35.56475 0,2.30862 -1.1477,5.3452 -2.55045,6.74795 -2.95843,2.95843 -1.22858,6.57615 4.64845,9.72143 3.12092,1.67027 5.98222,0.84954 11.67125,-3.34769 4.14518,-3.05823 8.65418,-5.9329 10.01996,-6.38816 1.63434,-0.54478 2.24251,-9.07417 1.77904,-24.95073 -0.59176,-20.27169 -0.082,-24.74503 3.19187,-28.01906 11.30434,-11.30434 21.23675,6.07529 15.59436,27.28683 -4.66092,17.52181 -4.53187,17.83191 6.6375,15.95092 11.97006,-2.01585 23.51471,-14.0943 25.57271,-26.75508 1.04179,-6.40922 5.48928,-12.92086 18.00088,-26.35541 9.13946,-9.81365 18.67267,-20.42127 21.18491,-23.57246 5.33823,-6.69597 20.41781,-18.3342 23.75549,-18.3342 1.2679,0 7.13163,-4.17717 13.0305,-9.2826 14.20722,-12.29627 18.45571,-11.4132 17.40149,3.61695 -0.6092,8.6853 -2.55746,13.57507 -8.19273,20.56219 -4.06641,5.0419 -9.85901,13.60778 -12.87248,19.0353 l -5.47902,9.86817 7.36936,5.76741 c 8.61135,6.73938 8.96073,9.35799 2.78582,20.87904 -4.63301,8.64418 -6.25602,26.7957 -2.59807,29.05645 1.09203,0.6749 3.8301,-0.81118 6.08464,-3.30241 5.34354,-5.90455 11.44015,-5.75134 15.74573,0.39573 2.94151,4.19963 2.99519,5.80341 0.36418,10.88593 -5.58886,10.7965 -19.95952,31.13431 -23.36728,33.07008 -8.17164,4.64192 -12.77985,-9.13348 -7.60688,-22.73943 2.03125,-5.34256 1.55371,-7.09678 -3.31594,-12.18101 -7.13325,-7.44751 -10.35502,-31.49893 -5.99082,-44.72263 2.38278,-7.21992 2.25417,-9.08948 -0.86228,-12.5331 -2.01454,-2.22605 -3.66281,-5.25529 -3.66281,-6.73163 0,-4.96124 -5.97027,-2.74252 -11.02788,4.09826 -6.26051,8.46779 -6.24178,8.90676 0.48939,11.46594 10.58836,4.02568 10.70029,29.20534 0.17371,39.09447 -8.50289,7.98807 -12.55306,3.11924 -12.55306,-15.09047 0,-7.96435 -0.99518,-15.09571 -2.21149,-15.84744 -1.21634,-0.75175 -6.08455,4.46642 -10.81825,11.5959 -8.36239,12.59468 -8.61605,13.58929 -8.93469,35.03521 -0.58241,39.19602 -3.7224,47.49525 -15.87478,41.95825 -7.30261,-3.32729 -12.64852,-11.92342 -13.95228,-22.43506 -2.09849,-16.91914 -8.7302,-18.67106 -24.6534,-6.51278 -8.55144,6.52958 -10.64246,9.49679 -10.64246,15.1021 0,4.46129 -1.85161,8.47531 -5.13657,11.1353 -4.77987,3.87051 -4.87828,4.45306 -1.41696,8.38856 2.04577,2.32609 4.37699,6.39291 5.18046,9.03743 1.73598,5.7137 17.91854,19.25543 23.01054,19.25543 1.96463,0 3.57206,-1.90277 3.57206,-4.22835 0,-4.99373 6.88822,-11.81408 11.93166,-11.81408 6.94784,0 9.39674,6.26812 7.79,19.93895 -0.83968,7.14445 -2.65296,14.34697 -4.02947,16.00557 -3.34856,4.03474 -8.65097,3.82289 -10.27549,-0.41059 z M 44.830442,914.54597 c -20.46573,-18.59051 -26.94781,-31.81082 -18.88015,-38.5064 5.14639,-4.27111 12.90368,0.0552 21.36954,11.91789 17.51973,24.5494 19.3074,27.8653 16.99929,31.53113 -3.94098,6.25916 -8.40266,5.12762 -19.48868,-4.94262 z m 154.539348,2.34352 c -5.80333,-5.80332 -2.69861,-12.74965 12.48497,-27.93323 l 15.23508,-15.23507 -3.97495,-7.40681 c -2.29061,-4.26823 -3.64798,-10.80572 -3.20328,-15.428 0.69395,-7.21314 1.46433,-8.02122 7.64701,-8.02122 6.40457,0 7.60344,1.48354 17.50957,21.66736 5.84884,11.91702 10.12153,23.00348 9.49485,24.63658 -0.62667,1.63307 -4.49954,2.96922 -8.60635,2.96922 -7.56907,0 -12.44253,2.98004 -30.75255,18.80457 -11.12796,9.61738 -11.88083,9.90012 -15.83435,5.9466 z m 83.95614,-5.19557 c -4.45899,-3.02998 -9.38887,-8.92733 -10.95525,-13.10526 -1.56639,-4.17793 -4.47781,-11.51649 -6.46984,-16.30792 -4.71299,-11.33625 -1.87403,-20.77937 6.5437,-21.76614 4.42012,-0.51814 6.50092,0.76273 8.55199,5.26433 1.4908,3.27201 2.71057,7.46701 2.71057,9.32222 0,1.85522 3.0939,9.17095 6.87533,16.25719 7.54074,14.13102 8.43721,19.54847 3.86306,23.34468 -2.25238,1.86931 -5.0574,1.11025 -11.11956,-3.0091 z m 68.42305,-1.57394 c -4.86074,-2.72022 -4.88251,-8.21308 -0.0924,-23.28047 6.33513,-19.92664 15.29434,-25.6153 22.65348,-14.38387 3.42632,5.22924 3.18869,6.38597 -4.41338,21.48163 -8.44201,16.76358 -11.78429,19.74394 -18.14786,16.18271 z m -46.02482,-19.31499 c -4.50025,-11.72745 0.5984,-22.80705 18.99659,-41.28036 6.30167,-6.32741 15.75153,-7.26754 17.85856,-1.7767 1.74982,4.55997 -4.83007,17.48024 -14.4248,28.32464 -3.91464,4.4245 -8.33394,10.36496 -9.82069,13.20103 -3.11782,5.94753 -10.56785,6.8523 -12.60966,1.53139 z M 406.57075,880.0419 c -14.41684,-14.41684 -14.74376,-15.01596 -16.34306,-29.95006 -1.30848,-12.21837 -0.8914,-16.36916 2.10413,-20.94093 8.56986,-13.07927 24.41068,-16.24263 27.80365,-5.55228 1.1568,3.6447 -0.4468,6.5872 -6.72258,12.33559 -4.53295,4.15201 -8.24172,8.7753 -8.24172,10.27393 0,1.49864 5.72817,9.47686 12.72929,17.72936 10.42205,12.28494 12.60286,16.30096 12.03182,22.15688 -1.14483,11.73973 -7.11644,10.19262 -23.36153,-6.05249 z m 65.36053,9.2317 c -1.03382,-2.83607 -2.03088,-11.79642 -2.21569,-19.91192 -0.49512,-21.74292 7.20616,-31.38315 16.69491,-20.89821 3.57075,3.94563 3.76452,6.4347 1.70229,21.86754 -1.27989,9.57831 -3.57522,18.91901 -5.10069,20.75711 -4.05342,4.88407 -8.93011,4.0855 -11.08082,-1.81452 z m -30.35562,-38.96017 c -0.58754,-6.37757 0.88811,-12.53649 5.35371,-22.3448 2.58244,-5.67214 6.38742,-16.50078 8.45552,-24.06364 3.52255,-12.88158 4.19104,-13.75065 10.57691,-13.75065 6.68215,0 6.8302,0.25737 7.49983,13.03651 0.54629,10.42591 -0.53563,15.4742 -5.40279,25.20953 -3.34723,6.69516 -8.74624,15.00908 -11.99778,18.47539 -6.1393,6.54476 -14.02672,8.41661 -14.4854,3.43766 z m -94.82348,-11.85306 -8.55811,-12.426 3.55619,-9.9188 c 1.95592,-5.45534 4.17992,-14.69871 4.94221,-20.54079 1.63606,-12.5383 8.43293,-20.35779 14.41531,-16.5842 6.1614,3.88651 9.15839,22.91012 5.72229,36.3225 -1.60745,6.27445 -2.30992,14.67405 -1.56106,18.66582 1.50633,8.02953 -2.10667,16.90748 -6.88078,16.90748 -1.69287,0 -6.92909,-5.5917 -11.63605,-12.42601 z M 32.631832,830.05664 c -3.81093,-6.16618 -7.27396,-25.5229 -6.2274,-34.80805 0.95609,-8.48234 0.3531,-10.75346 -3.58805,-13.51393 -2.60549,-1.82496 -5.72455,-7.71219 -6.93124,-13.08273 -1.20666,-5.37052 -3.68469,-11.49557 -5.5067,-13.61117 -4.8977101,-5.68693 -11.7752301,-26.78074 -10.12978012,-31.0687 2.56899002,-6.69466 9.75838012,-3.99791 17.28587012,6.48391 10.26012,14.28697 16.25978,28.43013 16.31879,38.4687 0.0449,7.65343 0.93044,8.93114 8.3328,12.02403 7.75832,3.24164 8.17685,3.9325 6.61354,10.91668 -0.91791,4.10084 -1.89205,12.61256 -2.16475,18.91494 -0.27269,6.30238 -1.2557,13.77929 -2.18442,16.61536 -1.7621,5.38089 -9.11458,7.03628 -11.81866,2.66096 z m 272.916408,-32.0619 c -6.15224,-5.67096 -11.68986,-13.55872 -14.07823,-20.05303 -2.16532,-5.8878 -4.79779,-11.68485 -5.84992,-12.8823 -4.12517,-4.69491 -2.03255,-16.69741 3.54875,-20.35442 4.7464,-3.10996 5.31263,-4.90149 4.32331,-13.67864 -1.23047,-10.91676 2.1347,-19.93824 7.43732,-19.93824 7.75825,0 19.06979,35.91532 14.82654,47.07588 -4.13942,10.88753 -2.66318,20.22805 4.52635,28.63925 7.93092,9.27857 8.71026,14.86241 2.53557,18.16702 -6.20963,3.3233 -6.00878,3.40443 -17.26969,-6.97552 z m 96.49321,-3.28077 c -1.74269,-4.54136 18.83584,-42.03335 25.45683,-46.37977 2.82633,-1.8554 6.6937,-2.77676 8.59415,-2.0475 8.35492,3.2061 -0.0577,23.80178 -16.74845,41.00293 -11.09411,11.43345 -15.10387,13.15398 -17.30253,7.42434 z M 75.715452,762.58193 c -2.84327,-2.00464 -6.75505,-6.71075 -8.69284,-10.45803 -2.33073,-4.5071 -5.87769,-7.28411 -10.47918,-8.20442 -10.01336,-2.00266 -13.00908,-10.76524 -7.30673,-21.37249 5.7543,-10.70392 12.24614,-9.81776 24.24051,3.30898 9.45259,10.345 15.65239,23.0765 16.24481,33.35941 0.40741,7.07109 -6.42354,8.71297 -14.00657,3.36655 z m 37.168278,-10.32866 c -10.9691,-11.13589 -11.39081,-12.05091 -11.88242,-25.78247 -0.95244,-26.60425 -4.896968,-43.76338 -12.624058,-54.9158 -5.14492,-7.42563 -9.91657,-8.13303 -11.59392,-1.71883 -1.61089,6.16006 -10.03903,5.9917 -12.01692,-0.24007 -1.54704,-4.8743 2.62749,-24.36447 6.03713,-28.18615 1.08107,-1.21173 6.00197,-0.48422 11.8616,1.7536 9.94225,3.79697 17.917648,11.94379 20.904178,21.3535 0.85627,2.69785 3.17546,6.24852 5.15376,7.89037 5.15539,4.27861 8.93476,-1.73084 11.98736,-19.06069 1.34914,-7.65925 3.92221,-16.16822 5.71793,-18.90881 2.17478,-3.31913 2.86891,-8.49637 2.07889,-15.50537 -0.9638,-8.551 0.13407,-13.31657 5.86023,-25.43586 8.11421,-17.17376 21.4413,-31.37394 29.44493,-31.37394 7.29153,0 9.24564,6.14652 4.55337,14.32236 -5.14559,8.96565 -4.85914,11.41627 2.09658,17.93595 3.26017,3.05579 10.53137,12.00159 16.15823,19.87957 5.62686,7.87797 11.46767,14.34653 12.97958,14.37456 1.51191,0.028 5.32716,2.06768 8.47835,4.53258 7.54274,5.90001 8.44395,5.75437 12.46114,-2.01406 4.1455,-8.01651 8.71468,-10.07796 13.91284,-6.27699 3.40062,2.4866 3.68561,5.44765 2.21892,23.05505 -1.46044,17.53238 -2.51823,21.13697 -8.0046,27.2773 -5.50122,6.15695 -6.80957,6.67051 -10.07971,3.95655 -2.88135,-2.39133 -3.60973,-6.38232 -3.12263,-17.11005 0.58775,-12.945 0.28484,-13.94362 -4.05072,-13.35397 -6.57782,0.89457 -23.42682,-5.41509 -32.07547,-12.01176 -4.00572,-3.05533 -9.12023,-9.48071 -11.36555,-14.27863 -9.48318,-20.26419 -17.1829,-25.90631 -17.19349,-12.59887 -0.002,3.39192 -3.00732,11.86273 -6.67688,18.82402 -3.66957,6.96129 -7.73862,17.78992 -9.04229,24.06363 -1.30372,6.27371 -3.97126,17.04581 -5.92791,23.938 -4.39007,15.4638 -4.41075,32.6693 -0.0538,44.76311 1.81639,5.0419 3.31807,12.45795 3.33705,16.48011 0.0183,4.02215 1.06581,7.95039 2.32629,8.72941 4.00563,2.47562 2.47312,9.92607 -2.80172,13.62071 -2.80139,1.96217 -5.67624,3.5676 -6.38853,3.5676 -0.71226,0 -6.41277,-5.19554 -12.66776,-11.54566 z m 31.40449,3.48623 c -3.8341,-4.87427 -4.49422,-8.20289 -3.54437,-17.87234 1.93261,-19.67395 2.81758,-21.76334 14.84151,-35.0406 6.36492,-7.02837 11.11387,-13.97471 10.55321,-15.43636 -0.56063,-1.46163 -2.27234,-8.32964 -3.80375,-15.26226 -3.49906,-15.84004 -0.67736,-25.20952 7.59208,-25.20952 8.08829,0 10.31541,4.12467 13.1012,24.26378 1.37965,9.97373 4.09593,19.90042 6.03617,22.05929 4.81759,5.36046 2.39287,10.23092 -6.01242,12.07703 -4.11427,0.90365 -10.28159,5.36915 -14.95349,10.82722 -7.05078,8.23726 -8.02724,10.97701 -8.62214,24.19197 -0.55149,12.25119 -1.54314,15.47993 -5.57364,18.14715 -4.46367,2.95387 -5.32478,2.70798 -9.61436,-2.74536 z m 219.29519,-3.50892 c -4.22698,-5.24328 -14.08273,-16.36751 -21.90167,-24.72052 -18.18691,-19.42914 -27.60846,-37.18238 -23.97018,-45.16754 1.84632,-4.05225 4.38687,-5.63103 9.06136,-5.63103 4.23641,0 8.80367,-2.40902 13.13143,-6.92625 6.45247,-6.7349 6.63992,-7.60537 6.78579,-31.5119 0.12009,-19.69851 1.05027,-26.38307 4.67893,-33.62794 5.49476,-10.97064 7.81834,-11.90582 14.38382,-5.78917 5.53661,5.15812 5.44388,9.69417 -0.7715,37.7492 -1.76423,7.96339 -2.19477,14.61873 -1.02296,15.81325 2.86408,2.91958 15.8988,-11.31976 23.42235,-25.58696 7.09256,-13.44987 15.39995,-17.66254 21.93783,-11.12466 3.48483,3.48483 3.4664,4.21817 -0.2523,10.03717 -2.20647,3.4527 -6.94057,12.55964 -10.52018,20.23763 -6.21626,13.33332 -11.8208,18.59688 -16.6341,15.62211 -3.31392,-2.04811 -17.8455,8.91361 -28.87874,21.78433 -5.35702,6.24919 -9.74004,12.07064 -9.74004,12.93657 0,0.86592 6.18779,8.18915 13.75064,16.27387 7.56286,8.08471 13.75065,15.64725 13.75065,16.80565 0,1.15838 2.62606,5.97587 5.83569,10.70552 12.60203,18.57014 0.90956,29.4326 -13.04682,12.12067 z m -195.03799,-4.72039 c -5.68716,-3.22347 -5.06354,-14.01161 1.14588,-19.82346 2.83608,-2.6545 10.24884,-6.55044 16.47282,-8.65771 10.61633,-3.59435 11.49261,-3.59027 14.16617,0.066 3.86197,5.28156 2.40064,7.83448 -9.84693,17.20257 -18.24122,13.95262 -17.64304,13.6469 -21.93794,11.21255 z m 322.5673,-5.91906 c -7.72947,-4.14852 -28.78261,-22.37668 -31.69474,-27.44185 -2.50434,-4.35586 4.15558,-14.52004 9.51405,-14.52004 2.23796,0 8.14417,3.89398 13.12486,8.65326 4.98071,4.75928 12.97259,11.6228 17.75972,15.25224 10.05965,7.62687 13.62542,13.22712 11.66868,18.32632 -1.77555,4.62695 -11.48853,4.49827 -20.37257,-0.26993 z m -62.85747,-11.332 c -2.61244,-3.32117 -4.75669,-7.70419 -4.76499,-9.74004 -0.009,-2.03585 -2.12195,-6.79544 -4.69697,-10.57686 -14.42152,-21.17791 -16.47085,-33.23074 -5.65021,-33.23074 5.76588,0 15.80177,10.19991 18.54736,18.85045 0.89455,2.81849 3.48629,7.72273 5.75941,10.8983 3.52406,4.92312 5.44847,16.1784 4.61176,26.97268 -0.38983,5.02939 -8.89094,3.07517 -13.80636,-3.17379 z M 90.543882,723.09034 c -6.14354,-6.78853 -13.48646,-25.49741 -11.93092,-30.39855 1.66434,-5.24381 8.52905,-5.97095 12.39489,-1.31292 3.59226,4.32841 7.80771,31.34261 5.2846,33.86572 -1.13115,1.13115 -3.6191,0.1987 -5.74857,-2.15425 z m -79.2644,-20.62077 c -3.8081101,-7.11552 0.0908,-17.00503 11.28162,-28.61526 12.25788,-12.71733 18.89337,-13.79912 20.10322,-3.27746 0.82646,7.18762 -2.50828,13.13097 -14.97599,26.69104 -9.30965,10.12526 -13.1263,11.33516 -16.40885,5.20168 z m 271.837148,-9.14271 c -5.5651,-6.21254 -15.45195,-30.18989 -15.45195,-37.47368 0,-7.4303 8.46462,-14.52346 14.54649,-12.18963 2.22682,0.85451 5.63045,8.04301 8.43426,17.81325 2.58544,9.00931 5.69155,18.74952 6.90246,21.6449 4.12844,9.8715 2.80875,14.21576 -4.31849,14.21576 -3.58608,0 -8.13681,-1.80477 -10.11277,-4.0106 z m 161.47306,-5.61485 c -1.51257,-1.51257 -2.75013,-4.14204 -2.75013,-5.84325 0,-4.34039 6.51616,-16.55908 12.92719,-24.24026 6.53158,-7.82558 6.77286,-11.52171 1.10471,-16.9232 -6.66428,-6.35071 -14.38061,-23.27994 -13.59437,-29.82534 1.62182,-13.50151 14.83069,-12.45623 18.83045,1.49016 1.16281,4.05449 4.92329,10.37892 8.35662,14.05433 5.72299,6.12647 6.8522,6.46996 13.57047,4.12797 6.0217,-2.09917 7.97801,-1.90458 10.97421,1.09162 4.63284,4.63284 2.37753,9.81338 -11.25958,25.86352 -5.4839,6.45428 -13.88944,16.50945 -18.67895,22.34481 -8.75979,10.67259 -14.39434,12.94591 -19.48062,7.85964 z M 307.24163,637.79136 c -8.70154,-5.29171 -15.13158,-14.32891 -21.26294,-29.88433 -9.78141,-24.81566 1.98419,-31.84208 15.26434,-9.11588 12.14203,20.77853 19.13247,34.57399 19.13247,37.75738 0,5.06631 -5.92474,5.62697 -13.13387,1.24283 z m -48.74405,-19.19529 c -13.09779,-9.63031 -27.5013,-27.14429 -27.5013,-33.44025 0,-5.92582 6.17519,-8.68919 11.19743,-5.01083 2.03452,1.49012 7.05754,4.85396 11.16229,7.47525 9.92197,6.33609 28.3406,30.68906 26.6139,35.18869 -2.13795,5.57144 -10.35877,3.95851 -21.47232,-4.21286 z m -229.871268,3.68577 c -0.53034,-0.94536 -1.6985,-4.7794 -2.5959,-8.52011 -0.89739,-3.7407 -4.29487,-12.43095 -7.54997,-19.31164 -5.40114,-11.41709 -5.62906,-13.02581 -2.60797,-18.40824 2.3691,-4.22084 5.20173,-5.89789 9.96181,-5.89789 5.59984,0 7.51755,1.68304 12.12977,10.64546 8.13949,15.81654 9.09037,27.52286 2.93753,36.16375 -4.77503,6.70589 -10.18508,9.05439 -12.27527,5.32867 z m 45.50442,-8.02121 c -2.30845,-7.50639 -3.15788,-34.55948 -1.24321,-39.59543 2.833,-7.45136 9.82791,-7.2875 15.85239,0.37138 10.22131,12.99432 2.46963,42.08877 -11.2138,42.08877 -1.3829,0 -2.91083,-1.28913 -3.39538,-2.86472 z"
       id="path3148"
       inkscape:connector-curvature="0" />
  </g>
</svg>
