<?xml version="1.0" encoding="UTF-8" standalone="no"?>
<!-- Created with Inkscape (http://www.inkscape.org/) -->

<svg
   xmlns:dc="http://purl.org/dc/elements/1.1/"
   xmlns:cc="http://creativecommons.org/ns#"
   xmlns:rdf="http://www.w3.org/1999/02/22-rdf-syntax-ns#"
   xmlns:svg="http://www.w3.org/2000/svg"
   xmlns="http://www.w3.org/2000/svg"
   xmlns:sodipodi="http://sodipodi.sourceforge.net/DTD/sodipodi-0.dtd"
   xmlns:inkscape="http://www.inkscape.org/namespaces/inkscape"
   width="512"
   height="512"
   id="svg2"
   version="1.1"
   inkscape:version="0.48.4 r9939"
   sodipodi:docname="28.svg">
  <defs
     id="defs4" />
  <sodipodi:namedview
     id="base"
     pagecolor="#ffffff"
     bordercolor="#666666"
     borderopacity="1.0"
     inkscape:pageopacity="0.0"
     inkscape:pageshadow="2"
     inkscape:zoom="1.1074219"
     inkscape:cx="146.28571"
     inkscape:cy="256"
     inkscape:document-units="px"
     inkscape:current-layer="layer1"
     showgrid="false"
     inkscape:window-width="1276"
     inkscape:window-height="782"
     inkscape:window-x="0"
     inkscape:window-y="14"
     inkscape:window-maximized="0" />
  <metadata
     id="metadata7">
    <rdf:RDF>
      <cc:Work
         rdf:about="">
        <dc:format>image/svg+xml</dc:format>
        <dc:type
           rdf:resource="http://purl.org/dc/dcmitype/StillImage" />
        <dc:title></dc:title>
      </cc:Work>
    </rdf:RDF>
  </metadata>
  <g
     inkscape:label="Layer 1"
     inkscape:groupmode="layer"
     id="layer1"
     transform="translate(0,-540.36215)">
    <path
       id="path3618-9"
       style="fill:#000000"
       d="m 367.38389,616.02136 c -4.42043,0.36012 -8.75946,1.64679 -12.08705,3.70468 -2.89686,1.79184 -11.93958,5.59003 -20.04772,8.48037 -19.0779,6.80075 -23.99353,10.38719 -29.49642,21.39673 l -4.55571,9.04028 0.13702,14.3525 0.13243,14.29251 -11.26106,5.02927 -11.26085,5.02922 -8.71388,9.90289 -8.71408,9.90284 -7.45294,-0.39272 -7.39792,-0.45741 -9.03208,7.33232 c -11.48992,9.27677 -22.52472,14.04606 -43.92226,19.00489 -9.3921,2.17633 -20.17949,4.63585 -23.95675,5.52183 -4.43286,1.03968 -9.02281,0.68811 -12.99097,-0.99346 -3.38127,-1.43188 -10.78037,-2.24951 -16.43372,-1.81518 l -10.25898,0.7882 -8.33079,6.25246 c -10.96252,8.19361 -24.135336,27.31719 -25.136342,36.51114 -0.431942,3.96658 -1.806721,10.30157 -3.079626,14.11682 -3.265596,9.78991 -1.181424,35.19601 3.968673,48.51746 l 4.152555,10.84547 8.74469,7.77699 8.74449,7.77705 8.81906,1.67607 c 12.00917,2.25792 30.03883,-0.8703 39.96138,-6.93257 l 8.18761,-4.97411 13.82601,3.22251 c 7.63036,1.76154 16.54365,3.87495 19.79768,4.75528 10.25852,2.77502 47.40531,17.50003 55.7095,22.09237 4.38004,2.42219 16.0818,7.68409 26.0042,11.70135 l 18.00236,7.30716 2.11234,13.35589 2.05229,13.36046 6.56155,10.78117 c 7.46745,12.30423 16.70332,19.04669 29.47822,21.57303 11.96541,2.3658 21.28498,0.52147 38.99731,-7.70336 18.08177,-8.39642 26.10841,-16.07092 29.12269,-27.82542 l 2.2763,-8.8651 -2.30636,-14.30656 -2.36575,-14.30198 -7.00022,-11.77337 c -8.35665,-14.02921 -22.19102,-27.74863 -31.61862,-31.36614 -3.74099,-1.4354 -10.22893,-2.3523 -14.39855,-2.03196 l -7.55915,0.58077 -7.07514,6.09568 c -3.88682,3.32958 -8.56204,8.0133 -10.36636,10.39188 -1.80448,2.37844 -5.94354,5.42449 -9.25365,6.8062 l -6.02284,2.51464 -25.89855,-4.82971 c -14.24585,-2.64427 -27.83553,-5.62869 -30.20423,-6.67141 -2.36876,-1.04298 -10.9534,-6.8197 -19.03083,-12.84061 -8.07747,-6.0207 -16.80484,-11.88258 -19.4047,-12.99291 -2.5997,-1.11036 -7.05497,-3.85176 -9.88465,-6.12038 -2.82968,-2.26876 -7.40629,-5.61087 -10.16593,-7.4264 l -5.02087,-3.29555 1.14144,-16.56295 1.08617,-16.49836 -2.45025,-5.1828 c -2.78139,-5.90869 -2.01168,-10.34619 1.77784,-10.63729 1.4278,-0.10951 13.37157,-6.18385 26.53715,-13.56548 13.16583,-7.38168 25.08117,-13.51393 26.53276,-13.62543 1.45144,-0.11359 12.02349,-3.89731 23.49552,-8.38314 28.14848,-11.00679 38.77345,-14.51719 44.49413,-14.70372 2.64844,-0.0866 11.77196,-0.10697 20.27368,-0.051 18.83732,0.12784 34.58772,-3.81699 48.31947,-12.04049 l 10.15344,-6.0908 6.11178,-14.71186 6.11127,-14.71186 -1.1662,-15.17869 -1.16614,-15.1787 -4.62311,-7.55054 c -5.56767,-9.11271 -21.72603,-24.30851 -29.27019,-27.50315 -3.5321,-1.49576 -8.02165,-2.06166 -12.44198,-1.69951 z m -13.32746,47.25122 4.8593,-0.37336 c 9.45347,-0.72631 17.20343,1.18326 19.49756,4.77831 l 2.3305,3.62292 -2.48377,8.51899 c -1.3977,4.71515 -6.09048,12.34239 -10.45886,17.03737 -8.90861,9.57399 -12.75737,10.59272 -20.46317,5.43452 l -5.40421,-3.5678 -0.72366,-9.41919 -0.71907,-9.35924 6.78476,-8.30623 z m -46.27334,39.46272 c 0.18999,-0.0152 0.37183,-0.0306 0.54446,0.0204 3.36508,1.00309 7.52552,8.68418 6.11845,11.29799 -2.79051,5.1829 -13.39439,5.5391 -13.78497,0.45538 -0.32548,-4.23431 4.26829,-11.55202 7.12206,-11.77201 z M 188.666,757.87278 c 1.87721,-0.14212 4.28952,-0.0983 7.31,0.10238 l 10.49427,0.70247 -6.92742,4.87733 c -8.60982,6.01429 -9.57848,6.09691 -13.67424,1.11082 -3.50638,-4.26823 -2.83452,-6.36661 2.79739,-6.793 z m -28.43973,24.15199 10.09731,4.17283 10.0969,4.17287 2.84226,5.57517 2.84232,5.57516 -3.95131,10.62323 c -3.99001,10.84083 -13.71406,21.80697 -23.38192,26.35841 -8.19805,3.85972 -14.96192,3.50816 -22.97302,-1.31284 -8.21673,-4.94457 -16.26701,-16.92653 -16.8976,-25.13461 l -0.40088,-5.21957 4.45844,-2.45468 c 2.45117,-1.35262 5.80315,-5.50946 7.44005,-9.20154 3.47194,-7.8311 4.84112,-8.57503 19.1161,-11.18487 z m 37.79943,67.04034 c 1.58392,-0.12174 2.97933,1.07461 3.10102,2.65853 0.23023,2.99798 -1.93646,4.00036 -4.31515,1.96091 -2.37884,-2.03924 -1.78385,-4.38911 1.21413,-4.61944 z m 155.42683,49.85607 12.29909,-0.94492 12.23915,-0.9403 4.46179,3.09711 c 9.30036,6.41704 8.4326,29.33356 -1.42938,37.94857 -5.8842,5.14016 -22.96614,8.05756 -29.78527,5.06442 -2.66149,-1.16824 -5.86397,-4.55114 -7.09246,-7.48152 l -2.21921,-5.32124 1.79108,-4.96556 1.84656,-5.03009 6.27605,0.78514 c 3.45365,0.41514 8.0142,0.78136 10.14371,0.85008 l 3.87174,0.1248 0.28627,-4.12566 0.28219,-4.18577 -6.19761,-3.68791 c -3.40303,-2.04943 -6.33132,-5.4276 -6.48805,-7.46766 l -0.28575,-3.71965 z m -224.5517,-77.25359 c -1.89775,-2.60153 0.0152,-5.89652 3.58084,-6.17056 1.68218,-0.12938 2.7493,1.14557 2.53242,3.02497 -0.45181,3.91336 -4.16066,5.82195 -6.11326,3.14559 z"
       inkscape:connector-curvature="0" />
  </g>
</svg>
