<?xml version="1.0" encoding="UTF-8" standalone="no"?>
<!-- Created with Inkscape (http://www.inkscape.org/) -->

<svg
   xmlns:dc="http://purl.org/dc/elements/1.1/"
   xmlns:cc="http://creativecommons.org/ns#"
   xmlns:rdf="http://www.w3.org/1999/02/22-rdf-syntax-ns#"
   xmlns:svg="http://www.w3.org/2000/svg"
   xmlns="http://www.w3.org/2000/svg"
   xmlns:sodipodi="http://sodipodi.sourceforge.net/DTD/sodipodi-0.dtd"
   xmlns:inkscape="http://www.inkscape.org/namespaces/inkscape"
   width="512"
   height="512"
   id="svg2"
   version="1.1"
   inkscape:version="0.48.4 r9939"
   sodipodi:docname="clip1.svg">
  <defs
     id="defs4" />
  <sodipodi:namedview
     id="base"
     pagecolor="#ffffff"
     bordercolor="#666666"
     borderopacity="1.0"
     inkscape:pageopacity="0.0"
     inkscape:pageshadow="2"
     inkscape:zoom="1.1074219"
     inkscape:cx="255.99999"
     inkscape:cy="257.47958"
     inkscape:document-units="px"
     inkscape:current-layer="layer1"
     showgrid="false"
     inkscape:window-width="1276"
     inkscape:window-height="782"
     inkscape:window-x="0"
     inkscape:window-y="14"
     inkscape:window-maximized="0" />
  <metadata
     id="metadata7">
    <rdf:RDF>
      <cc:Work
         rdf:about="">
        <dc:format>image/svg+xml</dc:format>
        <dc:type
           rdf:resource="http://purl.org/dc/dcmitype/StillImage" />
        <dc:title></dc:title>
      </cc:Work>
    </rdf:RDF>
  </metadata>
  <g
     inkscape:label="Layer 1"
     inkscape:groupmode="layer"
     id="layer1"
     transform="translate(0,-540.36218)">
    <path
       style="fill:#000000"
       d="m 243.61076,1047.6629 c -1.9771,-2.665 -5.63294,-7.7685 -8.12407,-11.3409 -2.49113,-3.5726 -5.59756,-8.0138 -6.90315,-9.8693 -1.46947,-2.0886 -8.35722,-4.5942 -18.07942,-6.5768 -19.39483,-3.955 -24.64136,-6.6168 -38.06345,-19.3108 -13.48075,-12.74946 -23.29295,-26.09653 -25.52901,-34.72581 -0.96177,-3.71156 -2.65494,-7.05039 -3.76257,-7.41962 -2.05916,-0.68639 -40.66279,31.60612 -41.85358,35.01116 -1.316836,3.76543 -7.643576,1.75107 -9.873776,-3.1437 -1.25892,-2.763 -2.28893,-5.88294 -2.28893,-6.93322 0,-1.05028 10.36364,-12.58201 23.030296,-25.62608 l 23.03029,-23.71648 -2.26976,-16.96385 c -1.24834,-9.33011 -2.69145,-17.38555 -3.20689,-17.90101 -2.36758,-2.36757 -14.70915,-3.50007 -21.84679,-2.00473 -17.113966,3.5854 -23.639106,3.82843 -27.383616,1.01993 -3.35425,-2.51581 -3.44837,-3.34615 -0.9677,-8.53721 1.73802,-3.63691 4.55341,-5.99581 7.66033,-6.41817 2.70178,-0.36731 10.20338,-2.43694 16.670186,-4.59915 8.3352,-2.78695 14.22088,-3.562 20.2191,-2.6625 7.72979,1.15916 8.62149,0.84733 10.31509,-3.60713 1.97429,-5.19276 1.73593,-12.84067 -0.51365,-16.48055 -0.95848,-1.55085 -5.03955,-0.82036 -13.68281,2.44916 -13.23975,5.00824 -43.705276,10.77552 -56.921404,10.77552 -12.338132,0 -25.893911,-8.25309 -31.919196,-19.4332 -6.482735,-12.02889 -8.108147,-30.85895 -3.940832,-45.65368 5.242491,-18.61177 7.049366,-22.19746 15.773844,-31.30284 4.663595,-4.8672 8.479253,-9.47638 8.479253,-10.24264 0,-2.51252 26.424029,-16.97743 35.501929,-19.43428 4.88153,-1.32116 11.53814,-3.18944 14.792476,-4.15181 3.25435,-0.96233 13.90493,-3.21207 23.66796,-4.99942 25.04924,-4.58582 23.24959,-3.3804 21.71417,-14.54433 -1.3977,-10.16252 1.76235,-28.43641 8.66039,-50.08101 2.59614,-8.14621 3.18604,-13.30742 2.02884,-17.75097 -5.49656,-21.10617 -11.76059,-37.73006 -19.26846,-51.13572 l -8.56064,-15.28555 -9.56699,0 c -5.26184,0 -10.07002,-0.81394 -10.68486,-1.80876 -0.61484,-0.99484 -1.68965,-6.09822 -2.3885,-11.34089 -0.74704,-5.60425 -3.17893,-11.82954 -5.90168,-15.10738 -8.904636,-10.72011 -4.078916,-19.30127 8.74614,-15.55249 4.03275,1.17878 11.23389,2.86456 16.00254,3.74617 9.57196,1.76962 10.03903,2.37121 15.02646,19.35388 1.91144,6.5087 6.82557,20.70947 10.92027,31.55728 4.09468,10.84781 8.48972,23.64372 9.76675,28.43535 1.27704,4.79164 4.83617,11.22636 7.90922,14.2994 6.05346,6.05344 11.06887,6.66732 31.14044,3.81145 5.75148,-0.81834 15.95827,-0.68392 22.68179,0.29871 13.45284,1.96612 22.74116,3.13025 26.51828,3.32358 1.35285,0.0692 5.97232,3.29933 10.26548,7.17794 5.05728,4.56896 9.33246,6.82599 12.14166,6.41007 3.9442,-0.58398 10.9919,-9.98299 26.89369,-35.86634 1.90556,-3.10169 5.88927,-9.31453 8.85269,-13.8063 3.33348,-5.05273 5.40169,-10.88574 5.4239,-15.29712 0.047,-9.31704 6.09726,-16.81785 15.94584,-19.76856 7.17066,-2.1484 8.21002,-1.96295 12.71434,2.26866 9.114,8.56216 5.45068,23.57846 -7.93404,32.52237 -9.88806,6.60736 -21.68298,21.23588 -30.71804,38.09771 -3.30296,6.16421 -8.59003,15.64537 -11.74904,21.06927 -3.15899,5.42391 -5.76437,10.44333 -5.78972,11.1543 -0.0254,0.71094 3.06035,5.01078 6.85709,9.55516 3.79674,4.54439 6.90316,9.30115 6.90316,10.57054 0,1.26942 1.69129,5.46361 3.75843,9.32045 4.4236,8.25349 7.0765,26.41288 5.14403,35.2114 -0.74941,3.412 -4.83412,10.21471 -9.07715,15.11716 -4.24306,4.90244 -7.71463,10.1613 -7.71463,11.68635 0,1.52502 2.88452,5.80393 6.41006,9.50868 7.85405,8.25325 15.77116,21.03194 20.34756,32.84218 4.22096,10.89288 8.22991,15.77863 12.947,15.77863 6.09604,0 14.45419,6.37529 25.01705,19.08204 5.56822,6.69841 11.02395,12.73508 12.12385,13.41486 3.57434,2.20907 41.89309,-3.07395 52.18591,-7.1949 5.50978,-2.20597 12.76306,-5.04447 16.11839,-6.30783 9.76758,-3.67765 18.49949,-13.10231 24.90739,-26.88349 9.54114,-20.51963 7.16619,-36.35405 -7.88258,-52.55486 -8.72556,-9.39355 -16.84154,-12.65881 -36.64242,-14.74219 -9.92215,-1.04396 -24.69686,-2.95858 -32.83273,-4.25471 -17.16001,-2.73381 -29.67736,-2.56932 -46.63017,0.61277 -14.90799,2.79823 -20.42903,0.67267 -20.42903,-7.86507 0,-5.03837 1.07155,-6.04252 9.36856,-8.77927 9.77217,-3.22333 47.56289,-4.76004 51.85312,-2.10854 1.27473,0.78784 11.76326,1.68854 23.30783,2.00154 22.52859,0.61081 40.52482,5.05763 53.79936,13.29364 7.91578,4.91124 21.42983,20.07596 21.42983,24.04741 0,1.39172 1.22068,3.54347 2.71266,4.7817 1.49196,1.2382 3.79719,6.12483 5.1227,10.85913 1.99034,7.10874 1.86617,11.23777 -0.71292,23.70893 -3.89662,18.84207 -4.85884,20.65049 -20.1136,37.80189 -15.19734,17.08688 -26.25371,22.57071 -59.41966,29.47154 -33.76691,7.02587 -35.06011,6.87438 -52.17087,-6.11179 -16.94629,-12.86135 -18.53702,-11.53071 -10.82158,9.05223 5.53734,14.7723 8.91963,16.26566 24.58414,10.85466 5.0843,-1.75626 16.44329,-3.71887 25.24223,-4.36132 14.69224,-1.07274 16.3523,-0.81387 20.33763,3.17147 8.69043,8.69043 0.91046,15.85171 -17.27576,15.90195 -10.38267,0.0286 -38.42659,6.82225 -43.22098,10.47018 -8.00968,6.09438 1.93499,20.28418 33.68555,48.06519 10.66237,9.32935 20.85183,20.03603 22.64326,23.79264 3.09962,6.5 3.07387,6.9642 -0.53292,9.60157 -2.08451,1.52421 -4.4068,2.77127 -5.16064,2.77127 -3.17341,0 -25.44876,-16.53627 -37.32203,-27.70631 -7.05107,-6.63347 -15.18858,-13.77272 -18.08332,-15.86506 -4.76073,-3.44104 -5.55589,-3.51146 -8.32962,-0.73775 -1.68654,1.68655 -4.15414,6.79888 -5.48354,11.36074 -4.05949,13.9303 -22.98011,30.77861 -47.96235,42.70918 -11.47364,5.4794 -22.55434,9.9625 -24.62381,9.9625 -5.5541,0 -6.11444,2.2528 -3.57348,14.3667 1.84174,8.7807 1.78422,11.5738 -0.28976,14.0727 -3.7589,4.5293 -9.18318,3.8248 -13.30231,-1.7275 z m 25.00404,-50.83289 c 19.148,-5.83166 22.30837,-9.84729 12.32705,-15.6631 -9.74089,-5.67571 -20.27801,-6.2101 -29.09185,-1.47539 -4.33912,2.33094 -14.10216,5.51381 -21.69563,7.07306 -7.59346,1.55924 -16.11826,3.31429 -18.94399,3.90009 -3.92996,0.81473 -6.08313,-0.13661 -9.15936,-4.04755 -4.61923,-5.87239 -6.16511,-6.18444 -11.45935,-2.31313 -3.75061,2.74256 -3.73121,2.90313 0.953,7.88932 2.62986,2.79937 6.62383,5.10323 8.87547,5.11972 2.25168,0.0158 8.08792,1.31997 12.96943,2.89667 11.33256,3.6603 37.33445,2.0691 55.22523,-3.37969 z M 188.20701,957.8365 c 2.77242,-4.43937 14.70833,-5.46687 21.46977,-1.84823 2.9467,1.57701 6.21301,1.24853 13.18357,-1.3258 5.0965,-1.88222 10.1539,-4.04017 11.23868,-4.79545 2.96152,-2.06193 42.24736,-3.74306 43.41255,-1.85771 0.55557,0.89893 3.88445,2.24226 7.39756,2.98523 3.5131,0.74296 8.3229,3.12702 10.68846,5.29791 4.19894,3.85341 4.52655,3.86427 13.80631,0.45749 11.70085,-4.2956 13.00464,-5.5534 17.2738,-16.66441 1.87562,-4.88152 4.76879,-10.38909 6.42931,-12.23908 2.99747,-3.33949 2.96971,-4.36995 -0.66698,-24.76038 -1.5471,-8.67427 -3.98651,-9.66181 -9.41022,-3.80954 -2.98799,3.22409 -8.44802,5.72103 -15.88713,7.26539 -6.23399,1.29416 -14.03607,3.48895 -17.33795,4.87729 -7.37737,3.10196 -28.72914,1.90252 -40.17844,-2.25705 -7.30551,-2.65411 -8.75969,-2.63742 -14.17432,0.16252 -3.3185,1.71607 -6.58608,4.01399 -7.26125,5.10647 -0.67521,1.0925 -4.455,1.98635 -8.39956,1.98635 -5.04022,0 -8.76627,1.52751 -12.53601,5.13916 -4.91732,4.71106 -5.93993,4.94909 -12.27722,2.85761 -3.8022,-1.25487 -8.03675,-3.63545 -9.41009,-5.29023 -1.97284,-2.37711 -5.00762,-2.74015 -14.45717,-1.72951 -21.7981,2.33134 -22.19316,3.04539 -13.81512,24.97041 5.68907,14.88813 7.30189,16.73764 15.66127,17.95993 11.37008,1.66254 12.804,1.42855 15.25018,-2.48844 z m 20.30261,-71.02981 c 6.74749,-3.44005 17.27363,-4.52805 37.42339,-3.86813 21.38001,0.70021 36.73531,-0.47626 42.27301,-3.23882 4.46839,-2.22912 8.84158,-2.71485 15.81184,-1.75618 8.17276,1.12402 10.25227,0.708 13.70139,-2.7411 4.62012,-4.62013 4.1922,-9.94836 -2.19497,-27.3314 -4.80705,-13.08262 -8.57591,-15.31866 -17.50721,-10.38685 -13.17289,7.27402 -16.32697,8.00634 -46.27301,10.74392 -16.66734,1.52367 -31.21953,3.33599 -32.33818,4.02736 -1.11865,0.69135 -9.03575,0.18519 -17.59352,-1.12488 -13.53753,-2.07237 -16.87157,-1.95279 -25.65487,0.92007 -5.55236,1.8161 -12.24311,2.76291 -14.86827,2.10402 -5.88614,-1.47732 -8.0018,2.03218 -9.8151,16.2815 -1.13939,8.95316 -0.75972,10.73511 3.04188,14.27682 6.13472,5.71536 10.57162,6.689 18.52318,4.06475 6.18009,-2.0396 7.81824,-1.74919 15.25459,2.70434 7.26648,4.35182 8.62154,4.61087 10.6048,2.02733 1.25061,-1.62912 5.57557,-4.64533 9.61105,-6.70275 z m -122.888776,-39.53485 12.93099,-4.05888 2.049616,-13.80955 c 2.82527,-19.03537 7.54884,-23.9548 15.0463,-15.67018 2.67444,2.95522 3.15429,5.62128 2.11689,11.76159 -1.87802,11.11586 -0.21629,12.73756 8.46205,8.25822 4.00596,-2.06769 9.73152,-4.88149 12.72348,-6.2529 3.72932,-1.70937 6.06195,-4.80343 7.41799,-9.83935 3.87548,-14.39243 9.77158,-24.79777 17.62983,-31.11284 4.38496,-3.52384 7.97267,-7.1544 7.97267,-8.0679 0,-0.91348 -1.6997,-3.75617 -3.77712,-6.31713 l -3.7771,-4.65622 -4.73242,4.43774 c -2.60282,2.44075 -6.54723,4.43774 -8.76537,4.43774 -5.00159,0 -25.55289,10.69059 -32.20089,16.75059 -2.71196,2.47209 -7.95376,6.0217 -11.64844,7.88805 -3.69469,1.86633 -8.447556,5.00502 -10.561916,6.97484 -5.96853,5.56056 -15.07897,8.80699 -17.61056,6.27537 -1.52137,-1.52137 1.40021,-6.09617 10.25854,-16.06336 6.81214,-7.66491 12.948996,-13.93617 13.637466,-13.93617 0.68846,0 7.43774,-3.99498 14.99841,-8.87774 7.56064,-4.88274 18.87111,-10.87368 25.13436,-13.31323 7.69774,-2.99825 11.19249,-5.39413 10.78523,-7.39397 -0.48967,-2.4046 -3.91001,-2.87756 -18.26811,-2.52619 -14.295,0.34984 -21.90233,1.82594 -39.870156,7.73626 -12.21248,4.01714 -24.11973,9.08823 -26.460581,11.26905 -4.10445,3.82386 -4.122255,4.0176 -0.500023,5.43834 2.065814,0.81028 6.224634,1.53562 9.241824,1.61185 3.01722,0.0763 6.00937,1.50301 6.64929,3.17059 1.82251,4.74941 -4.23411,9.77288 -15.158504,12.57273 -8.780974,2.25047 -10.438847,2.17651 -13.509891,-0.60272 -4.99478,-4.52023 -5.748054,-4.09037 -8.093063,4.61826 -4.995097,18.55037 -1.135914,48.27291 6.677861,51.43152 7.016312,2.83621 17.692247,2.10589 31.201347,-2.13441 z m 122.010866,-28.63705 5.75021,-5.50903 7.6686,4.31 c 9.17369,5.15591 13.33993,5.34521 23.97611,1.08946 6.2183,-2.48808 9.11995,-2.73257 12.75796,-1.07499 6.92497,3.15523 38.45464,0.64269 39.92206,-3.18132 0.61649,-1.60652 0.31397,-4.01695 -0.67225,-5.35646 -11.95492,-16.2374 -19.39693,-25.08671 -21.90739,-26.05005 -1.67645,-0.64334 -7.50401,0.43265 -12.95014,2.39103 -9.1853,3.30301 -12.1423,3.37495 -40.85382,0.99406 -17.02348,-1.41167 -33.22957,-1.99498 -36.0135,-1.29627 -5.63685,1.41474 -15.31122,15.97483 -15.31122,23.04358 0,2.35608 2.88453,7.13883 6.41007,10.62834 5.62557,5.56813 7.57657,6.29419 15.94158,5.93265 7.40903,-0.3202 10.812,-1.63871 15.28173,-5.921 z m 59.74068,-57.57182 c 13.39042,-7.20655 23.98838,-18.03821 25.61715,-26.18205 1.75916,-8.79585 -3.56408,-25.22419 -10.10308,-31.17959 -4.09895,-3.73313 -6.49403,-4.41093 -12.30371,-3.48193 -4.599,0.73543 -8.52891,0.19212 -10.84145,-1.49891 -3.29109,-2.40649 -3.39324,-3.48917 -1.10144,-11.67464 2.50918,-8.96195 2.48179,-9.06725 -4.10423,-15.77515 -8.88876,-9.05325 -26.45265,-12.66336 -45.13103,-9.27632 -21.56057,3.90967 -27.20346,8.61054 -23.40746,19.49977 1.11432,3.19655 1.74253,8.76873 1.39601,12.38263 -0.62107,6.47728 -0.76899,6.57071 -10.40325,6.57071 l -9.77323,0 -1.69052,7.88932 c -2.45046,11.43569 -0.54471,19.77663 8.40709,36.7958 8.87248,16.86833 12.58433,19.26439 30.38208,19.61219 5.53324,0.108 12.2793,0.96525 14.99124,1.90472 2.71196,0.93948 12.38271,1.27963 21.49053,0.75594 13.08917,-0.75267 18.65874,-2.0819 26.5753,-6.34249 z m 87.03875,68.74669 c -18.31283,-9.82605 -22.13053,-14.62629 -15.80659,-19.87468 2.37277,-1.96924 4.16859,-2.06725 7.49142,-0.40892 2.40378,1.19968 7.54149,3.44131 11.4171,4.9814 10.4392,4.14832 21.8713,14.8663 21.15812,19.83645 -0.93006,6.48166 -5.22612,5.67873 -24.26005,-4.53425 z m -13.8063,-37.53911 c -21.47832,-6.50479 -36.09866,-13.5265 -37.52558,-18.0224 -1.45983,-4.59951 2.98164,-13.64461 6.7,-13.64461 1.68134,0 8.41738,2.54896 14.96896,5.66437 37.57602,17.86817 39.52601,18.99987 40.13733,23.29404 1.12338,7.89085 -4.93704,8.56691 -24.28071,2.7086 z m 52.96292,-18.89133 c -3.29557,-8.58811 16.69038,-14.48938 21.74234,-6.41988 2.99446,4.78296 -0.0578,7.16173 -11.13841,8.68049 -7.77881,1.0662 -9.46529,0.70667 -10.60393,-2.26061 z"
       id="path3050"
       inkscape:connector-curvature="0" />
  </g>
</svg>
