<?xml version="1.0" encoding="UTF-8" standalone="no"?>
<!-- Created with Inkscape (http://www.inkscape.org/) -->

<svg
   xmlns:dc="http://purl.org/dc/elements/1.1/"
   xmlns:cc="http://creativecommons.org/ns#"
   xmlns:rdf="http://www.w3.org/1999/02/22-rdf-syntax-ns#"
   xmlns:svg="http://www.w3.org/2000/svg"
   xmlns="http://www.w3.org/2000/svg"
   xmlns:sodipodi="http://sodipodi.sourceforge.net/DTD/sodipodi-0.dtd"
   xmlns:inkscape="http://www.inkscape.org/namespaces/inkscape"
   width="512"
   height="512"
   id="svg2"
   version="1.1"
   inkscape:version="0.48.4 r9939"
   sodipodi:docname="11.svg">
  <defs
     id="defs4" />
  <sodipodi:namedview
     id="base"
     pagecolor="#ffffff"
     bordercolor="#666666"
     borderopacity="1.0"
     inkscape:pageopacity="0.0"
     inkscape:pageshadow="2"
     inkscape:zoom="1.1074219"
     inkscape:cx="146.28572"
     inkscape:cy="256"
     inkscape:document-units="px"
     inkscape:current-layer="layer1"
     showgrid="false"
     inkscape:window-width="1276"
     inkscape:window-height="782"
     inkscape:window-x="0"
     inkscape:window-y="14"
     inkscape:window-maximized="0" />
  <metadata
     id="metadata7">
    <rdf:RDF>
      <cc:Work
         rdf:about="">
        <dc:format>image/svg+xml</dc:format>
        <dc:type
           rdf:resource="http://purl.org/dc/dcmitype/StillImage" />
        <dc:title />
      </cc:Work>
    </rdf:RDF>
  </metadata>
  <g
     inkscape:label="Layer 1"
     inkscape:groupmode="layer"
     id="layer1"
     transform="translate(0,-540.36218)">
    <path
       style="fill:#000000"
       d=""
       id="path3133"
       inkscape:connector-curvature="0" />
    <path
       style="fill:#000000"
       d="m 338.12936,1049.2236 c -1.49382,-1.9306 -3.49752,-5.7038 -4.45269,-8.3848 -1.43495,-4.0277 -3.93761,-4.573 -14.40466,-3.1383 -11.65882,1.5981 -12.88019,1.1782 -15.33204,-5.2707 -3.53795,-9.3056 -34.20952,-21.8178 -53.48234,-21.8178 -11.33485,0 -14.14112,-1.006 -15.59637,-5.5911 -0.97598,-3.0752 -1.03659,-6.7852 -0.13481,-8.24459 1.88731,-3.0537 40.12548,-1.11399 54.88498,2.78417 12.84799,3.39332 25.27306,3.33772 25.27306,-0.1132 0,-1.50713 -2.52259,-6.87766 -5.60573,-11.93449 -3.08318,-5.05684 -5.61049,-10.99025 -5.61623,-13.18534 -0.006,-2.19507 -1.76988,-5.98603 -3.92026,-8.42434 -4.64891,-5.2715 -14.35925,-40.26944 -17.20204,-61.99972 -2.11353,-16.15573 -8.75808,-35.74276 -13.90046,-40.97624 -1.65728,-1.68666 -5.8304,-4.57435 -9.27358,-6.41708 -7.15058,-3.82687 -8.0614,-9.39473 -2.31672,-14.16236 6.1007,-5.06314 18.54461,-0.58791 21.85623,7.86019 1.58713,4.04885 3.90808,9.38721 5.15769,11.86303 1.24963,2.47581 3.12457,10.68956 4.16658,18.25277 2.76256,20.05126 6.6307,34.67942 12.65061,47.84084 2.92435,6.39356 6.14489,14.92322 7.15677,18.95479 1.01202,4.03164 2.82957,7.33022 4.03917,7.33022 1.20959,0 2.97532,2.84321 3.92381,6.31826 2.3898,8.75571 15.57809,23.07141 18.45366,20.03115 3.6717,-3.882 11.31995,-28.57303 11.31995,-36.54451 0,-10.62906 9.93989,-23.31455 16.8521,-21.50697 5.83679,1.52636 7.73389,11.44539 3.13623,16.39783 -2.66732,2.87311 -6.06829,42.32881 -3.84067,44.55645 1.86472,1.86475 12.48478,-5.39969 24.60503,-16.83055 5.60633,-5.28744 11.52974,-9.61354 13.16317,-9.61354 1.63343,0 7.63545,-4.10688 13.33784,-9.12639 22.0869,-19.44191 26.03756,-22.06948 31.91755,-21.2282 3.34169,0.47814 6.5037,3.1139 7.02662,5.85724 1.07436,5.63594 -5.41096,11.92178 -27.1506,26.31549 -16.63791,11.01587 -62.88792,55.52689 -60.34184,58.07309 2.29039,2.2903 16.71923,-0.6008 34.05212,-6.823 16.55302,-5.9423 24.69061,-6.7018 27.26009,-2.5443 3.80862,6.1625 -4.65345,12.5385 -26.45959,19.9369 -12.61611,4.2805 -29.8087,11.66 -38.20571,16.399 -17.09424,9.6474 -19.13283,10.1 -22.99695,5.1061 z M 137.03717,980.65868 c -1.02965,-1.02962 -1.87208,-4.78169 -1.87208,-8.33786 0,-7.14586 -9.99275,-27.93752 -15.04026,-31.29399 -7.28318,-4.84314 -26.612726,-27.74239 -28.373346,-33.61322 -1.5298,-5.10117 -0.79547,-6.31828 3.81188,-6.31828 3.13867,0 7.069106,2.54576 8.734326,5.65723 1.66522,3.11148 8.31575,8.99544 14.77891,13.07548 6.46319,4.08003 13.50562,9.17261 15.64989,11.31683 6.7218,6.7218 10.33541,2.56982 9.25611,-10.63509 -1.3076,-15.99787 -15.18828,-56.74679 -23.74237,-69.69946 -15.15569,-22.94883 -20.19947,-84.62135 -6.90758,-84.46168 8.31324,0.1 11.31104,5.41948 12.27597,21.78358 1.03434,17.54108 7.78982,58.66078 11.63843,70.84134 3.40978,10.79185 17.06657,35.85995 20.78951,38.16083 1.97189,1.2187 6.08132,-1.26776 10.1138,-6.11953 22.41985,-26.9748 23.59774,-27.70874 28.81696,-17.95651 2.44342,4.56552 1.45756,8.52448 -5.09664,20.46709 -14.74441,26.86635 -19.93033,44.97074 -16.53039,57.70876 3.62138,13.56748 1.35055,17.0858 -16.41855,25.43826 -12.98958,6.10583 -18.721,7.14978 -21.88457,3.98622 z M 62.153991,892.45074 C 43.172759,882.48363 38.29282,882.28941 32.41051,891.26691 c -5.844305,8.9196 -9.570179,8.95803 -9.570179,0.0988 0,-14.37267 24.697405,-16.77778 46.222216,-4.50127 13.735507,7.83395 19.584837,14.48506 12.280227,13.96361 -2.05927,-0.14684 -10.694235,-3.91678 -19.188783,-8.37732 z M 320.50898,863.98447 c 0.006,-7.10647 1.93179,-10.51196 8.39067,-14.83934 5.66178,-3.79334 7.88356,-7.18861 6.84512,-10.46065 -2.62304,-8.2651 -23.20626,-37.54962 -34.38219,-48.91681 -5.85383,-5.95403 -13.42964,-14.82527 -16.83514,-19.71389 -3.40552,-4.88862 -14.39579,-14.06968 -24.42286,-20.40233 -18.6737,-11.79354 -22.39032,-18.51985 -14.05529,-25.43731 6.29918,-5.22785 16.72223,-1.26203 27.18284,10.34267 19.31266,21.42487 54.2484,54.43147 64.57406,61.00822 l 7.47683,4.76228 -1.59392,-12.09663 c -0.87666,-6.65314 -3.21107,-14.62393 -5.18754,-17.71285 -4.60242,-7.19284 -6.21178,-21.58129 -2.55601,-22.85166 1.54447,-0.53672 5.80167,3.41926 9.46045,8.79109 3.65878,5.37178 7.6196,9.16911 8.80184,8.43846 1.18224,-0.73067 3.6768,-9.4229 5.54354,-19.31604 2.86532,-15.18569 2.74796,-19.01847 -0.75349,-24.60589 -4.86496,-7.76335 -9.08419,-44.52794 -5.11015,-44.52794 2.55182,0 19.9222,67.56502 20.01041,77.83388 0.0225,2.75308 1.28728,6.9011 2.80811,9.21779 2.45789,3.74416 3.07237,3.74416 5.53026,0 1.52081,-2.31669 2.78447,-7.68721 2.80812,-11.93449 0.0224,-4.24729 1.28258,-7.72232 2.79761,-7.72232 1.51503,0 3.54749,-3.15915 4.51661,-7.0203 1.81519,-7.23233 10.39643,-9.70254 13.91697,-4.00618 1.02455,1.65773 1.79752,12.97406 1.71768,25.14732 l -0.14519,22.13322 7.07405,-2.68955 c 3.89072,-1.47924 18.3454,-12.79554 32.12156,-25.14733 15.22106,-13.64732 27.46632,-22.45779 31.21306,-22.45779 5.9112,0 5.82531,0.36759 -2.08217,8.91112 -4.53623,4.90112 -11.40685,11.74373 -15.26801,15.20577 -9.60384,8.61114 -5.9339,10.78575 8.47364,5.02099 11.47283,-4.59052 12.14501,-4.57265 15.79517,0.41923 6.69018,9.14939 4.82312,15.37279 -4.61196,15.37279 -5.32407,0 -8.42436,1.43792 -8.42436,3.90726 0,2.14901 -4.9464,5.88644 -10.99197,8.30537 -23.87372,9.55239 -59.211,36.54335 -59.211,45.22597 0,2.00878 -1.86202,5.19768 -4.13786,7.08646 -2.27581,1.88877 -4.92327,7.62058 -5.88319,12.73737 -1.61947,8.63261 -10.19681,21.02172 -14.55388,21.02172 -1.04017,0 -4.66995,-3.47505 -8.06613,-7.72232 l -6.17491,-7.72235 -6.56709,5.96333 c -4.02724,3.65696 -12.26898,6.68105 -21.30975,7.81905 l -14.74262,1.85575 0.01,-9.22314 z M 66.161342,797.83287 c -5.498158,-3.72628 -6.881041,-12.23147 -2.910475,-17.90024 3.344328,-4.7747 3.315945,-6.75205 -0.197975,-13.79597 -6.392592,-12.8142 -4.025768,-20.89191 6.12142,-20.89191 7.150422,0 8.561362,1.19522 9.330422,7.90385 0.49833,4.34708 -1.05503,10.89682 -3.451909,14.55491 -4.117972,6.28483 -4.013216,6.70012 1.902049,7.54085 6.51409,0.92581 9.86619,11.76959 5.58339,18.06196 -2.92943,4.30404 -12.714575,7.00864 -16.376886,4.52655 z m 70.644548,-5.24571 c -2.78603,-7.26026 0.88436,-14.7585 9.37293,-19.14812 8.99538,-4.65166 14.25933,-1.53684 14.25933,8.43765 0,12.17967 -19.65088,21.08574 -23.63226,10.71047 z m -1.29634,-49.52524 c -1.73393,-1.73394 -3.15259,-7.40272 -3.15259,-12.59731 0,-8.96399 0.4645,-9.39992 9.12639,-8.56475 7.89809,0.76153 9.23967,2.03903 9.96798,9.492 0.66745,6.83042 -0.56838,9.25446 -5.9738,11.71735 -5.00145,2.27882 -7.65445,2.26624 -9.96798,-0.0472 z m -28.13027,-45.19924 c -3.8079,-4.58825 -1.22853,-12.99246 3.98754,-12.99246 2.02514,0 5.67028,-0.76295 8.10025,-1.69542 7.8503,-3.01243 8.9493,7.41602 1.39369,13.22476 -8.16283,6.27562 -9.37802,6.40747 -13.48148,1.46312 z m 241.20281,-30.89424 c 0,-2.12362 -0.71595,-8.12598 -1.59099,-13.33854 -1.10659,-6.59174 -0.77722,-8.19488 1.08176,-5.26523 4.48503,7.06817 6.91154,22.46495 3.54048,22.46495 -1.66722,0 -3.03125,-1.73751 -3.03125,-3.86118 z m -58.48255,-10.89411 c -5.65343,-2.71988 -6.27997,-4.48815 -4.65649,-13.14208 2.5914,-13.81334 9.69707,-17.86442 18.79296,-10.71427 7.72402,6.07179 8.73009,15.25714 2.36793,21.61929 -6.49465,6.49464 -7.3997,6.6173 -16.5044,2.23706 z m 50.0582,-21.75025 c 0,-3.08893 1.26364,-5.61625 2.8081,-5.61625 1.54448,0 2.80813,2.52732 2.80813,5.61625 0,3.08893 -1.26365,5.61624 -2.80813,5.61624 -1.54446,0 -2.8081,-2.52731 -2.8081,-5.61624 z m 31.5768,-3.51014 c -5.68644,-7.10767 -6.7921,-16.38718 -2.6972,-22.63676 3.44104,-5.25171 3.47713,-6.77104 0.23281,-9.80164 -7.21031,-6.73542 -3.01173,-23.19889 5.8486,-22.93372 4.47109,0.1336 13.48905,13.7849 11.63409,17.61132 -0.89624,1.84875 -3.10562,5.40618 -4.90972,7.90544 -2.63637,3.65218 -2.0887,5.823 2.79022,11.05993 7.44765,7.99411 7.45897,8.52372 0.34482,16.15982 -6.55793,7.03912 -9.28625,7.5821 -13.24367,2.63561 z M 254.19991,624.6999 c -3.35349,-8.73913 0.15584,-17.035 7.57087,-17.89696 10.51009,-1.22172 15.76285,5.9704 10.94088,14.98034 -4.11773,7.69406 -15.96235,9.56023 -18.51175,2.91662 z m 72.61925,-6.66404 c -10.43662,-0.77253 -11.93451,-1.7191 -11.93451,-7.54168 0,-7.86913 6.79409,-15.48377 13.81523,-15.48377 3.21228,0 6.55844,3.99368 9.39369,11.21148 2.42217,6.16629 3.5616,11.54578 2.53204,11.9544 -1.02956,0.40865 -7.24247,0.34544 -13.80645,-0.14037 z m -45.14021,-40.50569 c -1.8149,-1.81489 -3.29981,-7.32258 -3.29981,-12.23925 0,-7.41151 1.25578,-9.17949 7.3472,-10.34395 11.50821,-2.19991 21.76848,10.3336 15.77678,19.27222 -3.24516,4.8412 -16.14022,6.99492 -19.82417,3.31098 z m 68.78677,-11.30708 c -3.8296,-2.80027 -4.60698,-5.67416 -3.12842,-11.56526 2.68717,-10.70659 9.33519,-12.62279 15.85579,-4.57023 10.32275,12.74809 0.19656,25.58578 -12.72737,16.13549 z m -36.61406,-8.04059 c -7.35481,-10.50051 1.39182,-20.09747 15.8055,-17.34212 10.64236,2.03443 10.39106,12.05138 -0.46314,18.46309 -10.23881,6.04821 -10.32525,6.04189 -15.34236,-1.12097 z"
       id="path4067"
       inkscape:connector-curvature="0"
       sodipodi:nodetypes="cssssscssscssssssssscssssssssssscscsssscccssssssssssssssssssccsssccccsssssssscsscscssscsscsssscssssssssssssssscssccccsssssssccsssscssssccsssssssssssssssssssscsscssssccsssscssssccsssssssssssss" />
  </g>
</svg>
