<?xml version="1.0" encoding="UTF-8" standalone="no"?>
<!-- Created with Inkscape (http://www.inkscape.org/) -->

<svg
   xmlns:dc="http://purl.org/dc/elements/1.1/"
   xmlns:cc="http://creativecommons.org/ns#"
   xmlns:rdf="http://www.w3.org/1999/02/22-rdf-syntax-ns#"
   xmlns:svg="http://www.w3.org/2000/svg"
   xmlns="http://www.w3.org/2000/svg"
   xmlns:sodipodi="http://sodipodi.sourceforge.net/DTD/sodipodi-0.dtd"
   xmlns:inkscape="http://www.inkscape.org/namespaces/inkscape"
   width="512"
   height="512"
   id="svg2"
   version="1.1"
   inkscape:version="0.48.4 r9939"
   sodipodi:docname="12.svg">
  <defs
     id="defs4" />
  <sodipodi:namedview
     id="base"
     pagecolor="#ffffff"
     bordercolor="#666666"
     borderopacity="1.0"
     inkscape:pageopacity="0.0"
     inkscape:pageshadow="2"
     inkscape:zoom="1.1074219"
     inkscape:cx="146.28572"
     inkscape:cy="256"
     inkscape:document-units="px"
     inkscape:current-layer="layer1"
     showgrid="false"
     inkscape:window-width="1276"
     inkscape:window-height="782"
     inkscape:window-x="0"
     inkscape:window-y="14"
     inkscape:window-maximized="0" />
  <metadata
     id="metadata7">
    <rdf:RDF>
      <cc:Work
         rdf:about="">
        <dc:format>image/svg+xml</dc:format>
        <dc:type
           rdf:resource="http://purl.org/dc/dcmitype/StillImage" />
        <dc:title />
      </cc:Work>
    </rdf:RDF>
  </metadata>
  <g
     inkscape:label="Layer 1"
     inkscape:groupmode="layer"
     id="layer1"
     transform="translate(0,-540.36218)">
    <path
       style="fill:#000000"
       d=""
       id="path3133"
       inkscape:connector-curvature="0" />
    <path
       style="fill:#000000"
       d="m 25.940687,763.53205 c 9.186533,-16.96556 18.879248,-26.91404 33.295268,-34.17382 12.713774,-6.40256 14.111184,-6.67548 34.180204,-6.67548 l 20.924491,0 15.10667,14.3278 c 8.30865,7.88029 16.18614,14.35728 17.50553,14.39329 3.90675,0.10667 2.73073,-5.32783 -1.43932,-6.65136 -8.15881,-2.58951 -2.54344,-10.26567 10.55508,-14.4287 4.22203,-1.34185 10.11759,-4.47362 13.10122,-6.9595 2.98361,-2.48586 6.34057,-4.51974 7.45989,-4.51974 2.89223,0 24.69625,-14.72496 43.02529,-29.05636 14.18095,-11.08803 40.81572,-30.44243 48.48723,-35.2337 1.69002,-1.05551 6.95895,-5.40105 11.70873,-9.65672 4.74978,-4.25568 11.93742,-9.76249 15.97251,-12.23737 8.30794,-5.09561 10.89498,-10.29998 10.89498,-21.91762 0,-8.21389 5.62187,-26.24547 9.72373,-31.18791 1.25045,-1.50671 1.78135,-5.17086 1.1828,-8.16358 -1.7541,-8.7705 4.46405,-16.87656 15.44829,-20.13852 5.09411,-1.5128 12.25913,-4.57759 15.92223,-6.81064 11.38978,-6.94337 31.67393,-4.75971 42.16363,4.53903 5.87636,5.20918 23.38772,16.55313 33.04249,21.40508 12.27759,6.17002 29.26888,24.36428 33.79233,36.18479 2.22558,5.81583 3.50941,12.08252 2.85293,13.92599 -2.49922,7.01802 -14.45084,19.60774 -26.00616,27.39466 -6.60898,4.45364 -14.17533,10.08031 -16.81411,12.50368 -17.3073,15.89455 -45.33381,22.12712 -65.24961,14.51029 -12.99482,-4.96992 -16.25214,-5.0263 -22.75776,-0.39388 -5.70961,4.06559 -33.64466,17.46529 -36.41082,17.46529 -0.97506,0 -2.78344,1.21768 -4.01861,2.70596 -1.23515,1.48829 -11.05638,6.40171 -21.82492,10.91874 -10.76855,4.51701 -20.87458,9.2023 -22.45784,10.41172 -1.58326,1.2094 -5.90126,3.347 -9.59553,4.75017 -3.69429,1.40317 -8.01227,3.52263 -9.59554,4.7099 -1.58326,1.18725 -6.26434,3.69205 -10.40242,5.56619 -9.39564,4.25533 -15.56838,8.84269 -30.78604,22.8791 -9.55165,8.81026 -13.16701,10.99794 -17.61489,10.65903 -9.25368,-0.7051 -9.87626,0.67921 -8.97747,19.96164 1.10739,23.75765 1.6425,25.69066 7.79717,28.16483 5.73101,2.30385 13.71795,7.35831 35.15281,22.24615 7.59838,5.27753 15.9001,10.74045 18.44829,12.13976 2.54817,1.39934 12.15137,7.67299 21.34043,13.94144 9.18904,6.26848 24.04795,16.2471 33.01978,22.17476 8.97182,5.92766 21.06219,14.00454 26.86749,17.94864 16.99766,11.54814 40.66956,22.46445 51.97789,23.9696 5.71619,0.76081 14.49988,3.59215 19.5193,6.29181 l 9.12623,4.90848 20.81162,-6.82256 c 23.94405,-7.84949 28.61674,-7.65883 47.49533,1.93788 29.93355,15.21634 48.30813,53.8215 38.20649,80.27221 -2.87575,7.5301 -5.49901,10.0928 -19.89971,19.4404 -9.12301,5.9219 -22.56548,13.3035 -29.87218,16.4038 -16.45969,6.9841 -25.57206,6.4519 -38.19086,-2.2301 -10.94652,-7.5313 -18.81211,-9.3667 -22.27256,-5.1971 -3.3858,4.0795 -9.38556,3.8264 -16.82535,-0.7098 -6.9936,-4.2643 -8.62945,-9.9395 -8.04527,-27.9114 0.77996,-23.99478 -2.83456,-32.08679 -18.05974,-40.43122 -2.95375,-1.61888 -8.42021,-6.3191 -12.14767,-10.44494 -5.62013,-6.22081 -30.98606,-23.00948 -34.76491,-23.00948 -0.59929,0 -3.76192,-1.97986 -7.02808,-4.39969 -3.26615,-2.41985 -12.41544,-8.18617 -20.33176,-12.81405 -25.74135,-15.04841 -30.44627,-18.1025 -48.92958,-31.76153 -10.02648,-7.40948 -24.92493,-16.74803 -33.10764,-20.75232 -16.4952,-8.07213 -25.75701,-12.78156 -39.33996,-20.00356 l -9.10949,-4.84347 -13.9198,4.44074 C 82.244749,858.33834 51.843711,849.25943 35.711145,823.43583 24.784713,805.94575 22.362226,799.60999 21.402538,786.01326 20.62697,775.02494 21.167525,772.34707 25.940687,763.53205 z m 33.236389,37.87982 c 2.36553,4.63679 5.656528,8.01977 8.494753,8.73212 2.54825,0.63956 6.20804,2.91149 8.13285,5.0487 5.41483,6.01236 11.30668,7.4776 21.34346,5.30791 19.541121,-4.22428 26.283041,-11.14809 28.400811,-29.16703 1.6705,-14.21333 -1.40778,-23.01466 -9.59072,-27.42147 -7.62592,-4.10681 -12.66505,-2.74385 -12.66505,3.42561 0,2.46079 -0.79047,5.29458 -1.75659,6.29731 -0.96614,1.00273 -2.045641,3.98215 -2.398881,6.62093 -0.47882,3.57671 -1.95487,4.94935 -5.79965,5.39341 -6.53714,0.75502 -11.87242,-6.69189 -11.51954,-16.07876 0.19115,-5.0838 -0.51735,-6.58662 -3.10515,-6.58662 -5.27278,0 -11.802293,5.49644 -17.840742,15.01809 -6.587794,10.38789 -6.805497,13.39348 -1.695551,23.4098 z m 81.890084,-22.7152 c 0.55438,-1.38537 0.48621,-3.0406 -0.15141,-3.67829 -0.6377,-0.6377 -1.09129,0.49577 -1.00796,2.51882 0.0921,2.23566 0.54683,2.6904 1.15945,1.15947 z m 13.56211,57.12204 c 3.95816,1.08665 16.64785,7.16513 28.19933,13.50771 19.9822,10.97167 26.03528,13.3214 25.99946,10.09266 -0.009,-0.79163 -8.38756,-6.9644 -18.61952,-13.71725 -22.45562,-14.82021 -42.77592,-21.27634 -42.77592,-13.59073 0,0.95252 3.23851,2.62096 7.19665,3.70761 z M 269.03256,672.97549 c 7.7256,-7.72559 2.3562,-8.26749 -6.66926,-0.67306 -5.2698,4.43424 -5.71114,5.3809 -2.77253,5.94683 2.00528,0.38618 6.02972,-1.86168 9.44179,-5.27377 z m 7.45997,236.46153 c 2.3749,1.4347 6.90878,4.25819 10.07532,6.27443 3.16652,2.01627 8.3481,4.75018 11.51463,6.07537 l 5.75732,2.40945 -5.9338,-5.28122 c -5.74082,-5.10946 -15.45395,-11.30583 -22.37302,-14.27259 -4.88376,-2.09406 -4.11913,1.72648 0.95955,4.79456 z m 5.59295,-244.41179 c 2.4653,-1.27292 6.20956,-3.79019 8.32058,-5.59393 2.11101,-1.80373 7.9403,-5.61841 12.95397,-8.47705 5.01366,-2.85866 9.11575,-6.45655 9.11575,-7.9953 0,-5.7865 -7.47542,-2.39599 -21.82995,9.90105 -14.47053,12.39639 -17.58784,16.82647 -8.56035,12.16523 z m 16.74109,11.59896 c 5.92382,0 29.00205,-11.64524 29.00205,-14.63441 0,-7.12378 -11.11226,-4.76331 -25.02653,5.31612 -8.25008,5.97633 -9.67588,9.31829 -3.97552,9.31829 z m 62.10976,-43.43902 c 16.46568,9.46505 27.32624,10.99833 36.7313,5.18569 7.49496,-4.63215 16.52078,-14.5095 16.52078,-18.07942 0,-5.86236 -26.60839,-36.83704 -34.19408,-39.80511 -5.49731,-2.15097 -19.56613,-0.10864 -19.47134,2.82671 0.0381,1.18447 3.70853,3.88079 8.1562,5.99182 6.84797,3.2503 8.18155,4.83096 8.70622,10.31934 0.80642,8.43584 -2.20863,11.59323 -6.96243,7.29109 -5.2894,-4.78686 -11.48608,-3.91495 -17.92284,2.5218 -9.23964,9.23965 -7.29884,14.70304 8.43619,23.74808 z m -1.44245,326.03916 c 3.69253,-0.37541 5.8139,-6.00032 3.23539,-8.57884 -1.96814,-1.96814 -2.78822,-1.88619 -4.27245,0.42697 -2.2321,3.47868 -1.60344,8.42033 1.03706,8.15187 z m 30.89344,48.34227 c 4.75201,2.37 12.81592,4.0173 22.06622,4.5078 19.69996,1.0446 28.14107,-3.0349 32.89559,-15.89801 2.91018,-7.87345 3.03741,-10.58066 1.00165,-21.31222 -1.98486,-10.46329 -2.93119,-12.29313 -6.35756,-12.29313 -2.21407,0 -6.05384,-2.15899 -8.53284,-4.79776 -2.47901,-2.63877 -6.10611,-4.79777 -8.06023,-4.79777 -3.31666,0 -3.35823,0.37659 -0.62503,5.66202 3.95241,7.64313 3.68421,12.98926 -0.77126,15.37375 -5.13644,2.74896 -8.90699,0.83445 -13.4196,-6.81384 -2.12406,-3.60004 -4.62081,-6.54549 -5.54833,-6.54549 -3.00261,0 -7.7885,6.61302 -15.34972,21.20994 -8.6153,16.63178 -8.23502,20.25061 2.70111,25.70471 z m 53.06747,-390.91447 c 1.31939,-0.43981 2.39888,-2.81471 2.39888,-5.27755 0,-2.46285 -1.07949,-4.83774 -2.39888,-5.27754 -1.58242,-0.52746 -2.39888,1.26873 -2.39888,5.27754 0,4.0088 0.81646,5.80501 2.39888,5.27755 z M 469.632,987.24454 c 1.21347,1.9151 2.01486,2.01314 3.02994,0.37071 1.76903,-2.86237 -0.38287,-11.61045 -2.856,-11.61045 -2.31235,0 -2.43116,7.67739 -0.17387,11.23974 z"
       id="path4217"
       inkscape:connector-curvature="0" />
  </g>
</svg>
