<?xml version="1.0" encoding="UTF-8" standalone="no"?>
<!-- Created with Inkscape (http://www.inkscape.org/) -->

<svg
   xmlns:dc="http://purl.org/dc/elements/1.1/"
   xmlns:cc="http://creativecommons.org/ns#"
   xmlns:rdf="http://www.w3.org/1999/02/22-rdf-syntax-ns#"
   xmlns:svg="http://www.w3.org/2000/svg"
   xmlns="http://www.w3.org/2000/svg"
   xmlns:sodipodi="http://sodipodi.sourceforge.net/DTD/sodipodi-0.dtd"
   xmlns:inkscape="http://www.inkscape.org/namespaces/inkscape"
   width="512"
   height="512"
   id="svg2"
   version="1.1"
   inkscape:version="0.48.4 r9939"
   sodipodi:docname="14.svg">
  <defs
     id="defs4" />
  <sodipodi:namedview
     id="base"
     pagecolor="#ffffff"
     bordercolor="#666666"
     borderopacity="1.0"
     inkscape:pageopacity="0.0"
     inkscape:pageshadow="2"
     inkscape:zoom="1.1074219"
     inkscape:cx="146.28572"
     inkscape:cy="256"
     inkscape:document-units="px"
     inkscape:current-layer="layer1"
     showgrid="false"
     inkscape:window-width="1276"
     inkscape:window-height="782"
     inkscape:window-x="0"
     inkscape:window-y="14"
     inkscape:window-maximized="0" />
  <metadata
     id="metadata7">
    <rdf:RDF>
      <cc:Work
         rdf:about="">
        <dc:format>image/svg+xml</dc:format>
        <dc:type
           rdf:resource="http://purl.org/dc/dcmitype/StillImage" />
        <dc:title />
      </cc:Work>
    </rdf:RDF>
  </metadata>
  <g
     inkscape:label="Layer 1"
     inkscape:groupmode="layer"
     id="layer1"
     transform="translate(0,-540.36218)">
    <path
       style="fill:#000000"
       d=""
       id="path3133"
       inkscape:connector-curvature="0" />
    <path
       style="fill:#000000"
       d="m 232.76393,978.59707 c -3.42025,-0.78918 -4.53419,-5.57037 -3.97014,-17.04049 0.60308,-12.26401 -0.84924,-16.92696 -5.47914,-17.59185 -3.54734,-0.50943 -4.75397,-2.91985 -5.84495,-11.67615 -0.48929,-3.92712 -1.35712,-6.97764 -1.9285,-6.77894 -0.57139,0.19872 -3.73912,5.63038 -7.0394,12.07037 -6.21234,12.12242 -9.10781,14.58722 -12.18787,10.37498 -2.28205,-3.12087 -2.01982,-7.20591 0.84293,-13.1311 1.61413,-3.34085 2.46506,-7.62449 2.46506,-12.40915 l 0,-7.30704 -12.01719,0.69322 c -6.60947,0.38125 -14.79041,1.28014 -18.17987,1.99751 -3.38947,0.71738 -8.38123,1.65411 -11.0928,2.08167 -2.71158,0.42754 -5.59305,1.29977 -6.40326,1.93828 -2.90829,2.29196 -5.74912,13.95602 -6.02469,24.73657 -0.40645,15.90099 -4.63557,19.39212 -9.65766,7.97239 -2.41304,-5.487 -2.69748,-7.50144 -1.87095,-13.24974 0.5361,-3.72841 1.01523,-9.40291 1.06472,-12.60998 0.0833,-5.40137 -0.1598,-5.88193 -3.2995,-6.52139 -1.8642,-0.3797 -7.46762,-2.05169 -12.45203,-3.71553 -4.9844,-1.66385 -9.61678,-2.68265 -10.29416,-2.264 -0.67739,0.41864 -2.00519,2.61263 -2.95071,4.87556 -2.94425,7.04658 -14.877887,24.61783 -17.441777,25.68148 -4.63146,1.92142 -7.47439,-3.16071 -4.35028,-7.77673 4.07892,-6.02684 9.06965,-16.76006 10.91682,-23.47813 l 1.84347,-6.70445 -8.55026,-8.70222 c -8.3343,-8.48242 -9.68144,-10.46432 -18.65588,-27.44611 -2.37263,-4.48958 -5.253299,-8.74203 -6.401524,-9.44988 -1.467172,-0.90449 -5.679949,-0.81791 -14.174131,0.29129 -34.085295,4.45102 -43.9186546,5.12035 -46.8647306,3.19001 -3.669006,-2.40404 -3.691993,-6.48613 -0.0408,-7.25146 1.525259,-0.31972 7.4876396,-1.13179 13.2497336,-1.80459 15.542729,-1.81485 34.580908,-4.93433 39.132937,-6.4121 3.654544,-1.18641 4.608243,-2.38848 4.124025,-5.19801 -0.09549,-0.55409 -0.786811,-6.82083 -1.53623,-13.9261 l -1.362594,-12.91867 4.529281,-9.16437 c 3.379404,-6.83777 5.844497,-10.06646 9.709864,-12.71765 6.49887,-4.45744 19.95088,-11.27618 22.24567,-11.27618 0.95079,0 4.15579,-1.32471 7.12222,-2.94381 2.966416,-1.61907 7.612066,-3.60808 10.323646,-4.42001 2.71157,-0.81194 7.70333,-2.48486 11.09279,-3.71764 7.92595,-2.88271 19.38251,-4.94148 27.49808,-4.94148 3.75476,0 6.3966,-0.54923 6.3966,-1.32986 0,-0.73141 -2.68578,-4.47522 -5.96839,-8.3196 -3.28263,-3.84436 -9.18985,-11.84284 -13.12718,-17.77441 -3.93733,-5.93157 -7.58044,-10.78467 -8.09578,-10.78467 -0.51537,0 -2.14466,-2.49464 -3.62064,-5.54363 -1.476,-3.04899 -4.80162,-8.10668 -7.39029,-11.23932 -6.87577,-8.32065 -11.21261,-22.32413 -12.02246,-38.82008 -0.71671,-14.5985 0.69765,-20.37364 7.51227,-30.67431 3.98511,-6.02376 17.55565,-19.72054 19.53873,-19.72054 0.67399,0 6.92692,-2.79146 13.89542,-6.20325 11.85403,-5.80374 13.00715,-6.12748 17.90486,-5.02704 2.87915,0.64691 5.99384,0.88493 6.92148,0.52897 0.92766,-0.35599 3.77123,0.62922 6.31905,2.18934 4.32101,2.64591 6.04086,2.84795 25.58547,3.00572 12.81612,0.10341 22.30878,0.72996 24.44409,1.61327 6.91089,2.85884 30.18009,29.56954 34.52956,39.63646 0.73221,1.69473 3.84725,6.35684 6.9223,10.36025 3.07504,4.0034 7.25491,9.87416 9.28859,13.0461 9.09203,14.18093 11.68476,18.08271 13.96387,21.01408 7.18687,9.24367 14.77776,25.7671 19.22918,41.85691 1.21906,4.40632 2.439,8.77291 2.71099,9.70353 0.39811,1.36214 3.19434,1.54872 14.34111,0.95682 7.61563,-0.40438 13.92863,-0.74984 14.02889,-0.76766 0.1002,-0.0179 4.51855,-3.63758 9.8184,-8.04388 5.29984,-4.40632 10.20957,-8.01192 10.91051,-8.01245 0.70091,-5.3e-4 4.79069,-1.66445 9.0884,-3.69759 4.29769,-2.03316 8.95599,-3.69663 10.35176,-3.69663 1.39578,0 5.56949,-2.49588 9.27493,-5.54641 3.70543,-3.05051 7.37069,-5.5464 8.14497,-5.5464 0.77431,0 4.45441,-2.53205 8.17801,-5.62679 3.72361,-3.09471 9.26608,-6.93648 12.3166,-8.53723 3.05052,-1.60076 8.18094,-5.35886 11.40094,-8.35132 5.20455,-4.83684 5.85452,-6.01984 5.85452,-10.65569 0,-5.44426 4.01471,-13.80436 8.63875,-17.98907 1.34974,-1.22148 2.45406,-3.44054 2.45406,-4.93121 0,-2.72802 5.06267,-9.23296 7.18583,-9.23296 0.62747,0 3.12464,0.82887 5.54929,1.84196 5.01911,2.09712 10.68301,10.52716 10.68301,15.90041 0,5.47504 -2.70648,14.67506 -5.39539,18.34035 -2.81632,3.83896 -15.68047,10.75356 -20.00627,10.75356 -3.27725,0 -11.77651,5.92888 -24.73634,17.25546 -6.42218,5.61284 -14.47642,10.77912 -26.90129,17.25547 -9.75404,5.08421 -19.24889,10.57362 -21.09966,12.19872 l -3.36506,2.95472 3.93517,3.51608 c 2.3106,2.0645 5.32646,3.51058 7.30522,3.50275 3.80531,-0.015 14.71615,-3.10608 16.7936,-4.75757 1.40465,-1.11665 14.20067,-6.18456 35.87775,-14.20956 6.77894,-2.5096 17.3171,-6.43549 23.41814,-8.72423 6.10104,-2.28871 13.866,-5.19751 17.25547,-6.464 l 6.16267,-2.30268 0.76995,-7.11074 c 0.89996,-8.31131 4.68432,-13.23608 13.08141,-17.02346 6.18427,-2.78932 8.3554,-2.02462 13.52241,4.76274 3.06451,4.02553 3.43124,5.50341 3.36323,13.55317 -0.088,10.41179 -2.02505,14.04011 -9.89982,18.54312 -6.00828,3.43571 -10.70661,3.52275 -15.0932,0.2796 -3.2525,-2.40469 -3.71873,-2.43251 -10.73474,-0.64041 -4.03402,1.03039 -9.83045,2.93456 -12.88098,4.23149 -6.02985,2.56356 -9.13708,3.76042 -27.732,10.68198 -19.19519,7.14499 -35.65627,14.21831 -36.58463,15.72042 -1.22622,1.98408 -0.0139,3.33374 2.99456,3.33374 6.35157,0 14.84187,9.33028 16.41252,18.03629 0.47287,2.62106 1.39695,5.44314 2.05351,6.27129 4.2913,5.41283 1.25151,30.91328 -4.73528,39.72364 -1.61841,2.38169 -2.94255,4.72843 -2.94255,5.21498 0,0.48654 -1.75741,3.4886 -3.90533,6.67124 -5.73291,8.49455 -16.49188,18.60028 -23.68778,22.24952 -3.46586,1.75764 -8.84019,4.49161 -11.94296,6.07548 -8.40522,4.29062 -14.90544,5.38959 -32.07543,5.4229 -14.12755,0.0273 -16.04213,-0.24151 -21.18411,-2.97554 l -5.65288,-3.00565 -2.47711,4.19838 c -1.54703,2.62201 -3.77418,4.48338 -5.93163,4.95741 -5.7932,1.27287 -6.53585,1.64829 -6.53585,3.30389 0,2.2216 11.46894,10.94613 20.3368,15.47042 4.06736,2.07511 9.33645,5.43795 11.70907,7.473 3.96474,3.4006 4.15449,3.8634 2.3447,5.71849 -1.82277,1.86838 -2.5499,1.82281 -9.7804,-0.61297 -4.29619,-1.44728 -8.94121,-3.42289 -10.32228,-4.39022 -1.38109,-0.96735 -3.31458,-1.75881 -4.29669,-1.75881 -0.98209,0 -2.66127,-0.78612 -3.73149,-1.74692 -3.28707,-2.95104 -19.61946,-11.81094 -21.77233,-11.81094 -1.5425,0 -1.82063,0.66636 -1.1575,2.77319 1.45219,4.61377 2.22123,16.58924 1.36012,21.17938 -0.44538,2.37406 -1.63599,5.14268 -2.64582,6.1525 -3.84195,3.84194 -7.09314,-0.75597 -8.41462,-11.90014 -0.3802,-3.2062 -1.50708,-7.78197 -2.5042,-10.16839 -2.16611,-5.18428 -4.98324,-5.52816 -15.75493,-1.9231 -3.87052,1.29537 -10.99387,2.74509 -15.82966,3.22159 -8.65675,0.85301 -8.78261,0.91603 -8.15971,4.08527 1.53087,7.78886 7.95348,34.42472 9.24626,38.34611 1.49477,4.53406 1.30101,25.58756 -0.25872,28.11126 -1.29015,2.08751 -4.749,3.5792 -7.06181,3.04553 z m -97.23375,-74.21728 c 0,-6.18523 8.75003,-7.16323 13.46388,-1.5049 l 3.17533,3.81155 13.55787,-1.3531 c 7.45683,-0.74421 14.0785,-1.82916 14.71484,-2.41103 0.70874,-0.64805 0.0962,-3.61731 -1.58114,-7.66411 -2.02935,-4.8962 -2.4477,-7.37233 -1.61619,-9.56605 0.61707,-1.62793 1.12059,-6.74719 1.11894,-11.37611 -0.002,-7.9137 -0.19617,-8.49793 -3.23839,-9.78464 -6.38054,-2.69869 -10.01433,-7.1575 -10.01433,-12.28801 0,-2.6184 -0.82046,-6.34733 -1.82326,-8.28652 -1.45426,-2.81224 -1.54132,-4.33445 -0.43023,-7.52176 1.27589,-3.66001 1.12511,-4.19112 -1.79317,-6.31695 -3.4952,-2.54608 -6.4733,-9.82952 -5.28515,-12.92575 0.41424,-1.0795 -0.36717,-3.86153 -1.73645,-6.18229 -3.18455,-5.39741 -3.1493,-9.07022 0.12703,-13.23541 2.46359,-3.13193 2.50421,-3.55618 0.69482,-7.25328 -1.05699,-2.15974 -2.24806,-4.97817 -2.64683,-6.26322 -0.66237,-2.13453 -1.60121,-2.26713 -10.86322,-1.5344 -8.87428,0.70206 -28.17921,5.7848 -32.63195,8.59157 -2.27107,1.43156 -1.87284,5.38029 0.7288,7.22659 1.24821,0.8858 2.94673,2.88667 3.77449,4.44638 1.2516,2.35832 1.12888,3.46583 -0.7288,6.57742 -2.09639,3.51142 -3.89211,4.82291 -11.47782,8.38278 -5.405567,2.53677 -7.735127,4.80727 -6.972197,6.79543 0.59229,1.54351 3.04985,1.90801 12.864397,1.90801 l 12.13222,0 2.87526,3.88899 c 2.5787,3.48788 2.72103,4.31545 1.38005,8.02388 -0.82236,2.27418 -1.59593,8.99577 -1.71906,14.93684 -0.19752,9.53033 0.10249,11.21705 2.54933,14.32796 1.52526,1.93928 2.7732,4.54094 2.7732,5.78145 0,1.24052 1.10353,2.8461 2.45231,3.56792 1.34877,0.72186 3.3261,3.00219 4.39408,5.06742 1.73248,3.35023 1.74246,4.05919 0.0925,6.57724 -1.29253,1.97267 -1.72547,5.19091 -1.43818,10.69075 0.48843,9.35021 0.36,8.81682 1.89443,7.8685 0.6779,-0.41896 1.23254,-1.77039 1.23254,-3.00315 z m -22.1333,-8.95676 c -1.38272,-2.34353 -3.89219,-4.99854 -5.57661,-5.90002 -3.80539,-2.03657 -4.77236,-4.86616 -3.13482,-9.17326 2.00828,-5.28215 1.49783,-11.72173 -1.20113,-15.1529 -2.89285,-3.67766 -3.32023,-12.10672 -0.76206,-15.02968 5.62596,-6.42817 2.62537,-11.18984 -7.051327,-11.18984 -15.12537,0 -21.88823,-13.69609 -12.36828,-25.04812 2.30624,-2.75008 2.65101,-3.97641 1.64586,-5.85453 -1.45166,-2.71247 -2.24284,-2.84968 -6.6876,-1.15978 -5.21027,1.98094 -8.05678,10.41726 -8.04559,23.84501 0.0103,11.70607 2.99989,24.94117 6.54998,28.99194 0.97723,1.11504 2.18407,3.41394 2.68189,5.10867 0.49781,1.69474 2.22732,4.84692 3.84339,7.00484 1.61604,2.15793 2.93827,4.49418 2.93827,5.19168 0,1.55505 12.176,15.32628 16.691087,18.87784 3.85896,3.03547 12.11614,6.12225 12.63219,4.7223 0.19734,-0.53527 -0.77254,-2.89063 -2.15525,-5.23415 z m 92.68122,3.64031 c 1.09844,-0.84738 2.17507,-2.92728 2.3925,-4.62201 0.53083,-4.13754 5.80694,-4.74369 11.369,-1.30615 3.48637,2.15469 5.16925,2.4121 10.62468,1.62504 8.99227,-1.29728 9.56513,-2.70483 6.20233,-15.23956 -1.52661,-5.69045 -2.73638,-12.39359 -2.68834,-14.89588 0.0669,-3.48685 -0.47894,-4.72935 -2.33681,-5.319 -4.93745,-1.5671 -5.95382,-3.76009 -4.62665,-9.98278 1.39403,-6.53619 -0.0838,-12.62793 -7.01085,-28.89869 -3.84719,-9.03657 -3.91259,-9.48258 -2.23421,-15.23858 1.99044,-6.82626 1.43891,-9.34707 -2.04507,-9.34707 -1.35443,0 -5.23055,-2.45835 -8.61361,-5.46297 -6.49515,-5.76862 -7.43939,-6.04688 -25.01107,-7.37072 -5.07381,-0.38225 -8.58426,-0.128 -9.06934,0.65688 -0.43529,0.70429 0.93257,2.96605 3.03966,5.02611 2.10709,2.06008 3.83107,4.74369 3.83107,5.9636 0,3.78413 -1.40299,6.11723 -3.67855,6.11723 -1.20026,0 -2.89314,0.85653 -3.76198,1.90342 -1.31858,1.58879 -1.15537,2.20064 0.98728,3.70142 2.97043,2.08056 5.79564,9.60713 4.68886,12.4914 -0.41614,1.08439 0.14743,3.35136 1.25236,5.03769 1.43495,2.19003 1.78661,4.45657 1.23076,7.93268 -0.65087,4.07037 -0.2692,5.47152 2.33287,8.56389 2.27483,2.70349 3.11107,5.12729 3.11107,9.01727 0,6.18937 0.95009,6.81624 10.33084,6.81624 7.25612,0 9.3897,1.44206 9.3897,6.34645 0,2.42399 -1.22779,4.32484 -4.31387,6.67872 -3.53022,2.69262 -4.31512,4.10337 -4.32075,7.76606 -0.003,2.46163 -0.5945,6.59191 -1.31273,9.17839 -1.68257,6.05921 -0.50429,11.26949 2.92298,12.92527 3.65094,1.76382 4.96294,1.75229 7.31787,-0.0644 z m 58.85307,-12.6257 c 1.88308,-0.97378 3.77492,-3.16947 4.20406,-4.87928 0.42912,-1.70982 2.15804,-4.01155 3.84202,-5.11493 2.82016,-1.84783 3.30147,-1.84907 6.09972,-0.0156 1.67089,1.09481 4.00861,1.99056 5.19497,1.99056 2.42814,0 22.11928,-9.34954 23.12775,-10.98128 0.68147,-1.10268 -2.05964,-5.09583 -8.60392,-12.53387 -5.54572,-6.30309 -10.26,-16.61975 -12.06598,-26.40493 l -1.56012,-8.45306 -6.80962,-1.35973 c -4.43406,-0.88539 -9.02383,-2.98511 -13.15666,-6.01889 -3.49088,-2.56254 -8.87567,-6.00364 -11.96619,-7.64688 l -5.61915,-2.98774 -1.28478,3.37412 c -2.3878,6.27091 -3.54305,15.00058 -2.38739,18.04023 0.61733,1.62369 0.82985,3.2447 0.47229,3.60227 -1.40909,1.4091 1.18219,5.96948 4.00088,7.04115 1.64035,0.62365 3.87174,2.99874 4.95862,5.27797 1.81101,3.79773 1.81157,4.46233 0.007,7.95237 -2.15046,4.15851 -1.86036,8.08833 1.35112,18.30328 1.90033,6.04455 1.87835,6.48418 -0.52353,10.47654 -2.95194,4.90669 -4.4616,10.52573 -3.3229,12.36816 1.00268,1.62239 9.29765,0.42293 14.042,-2.03047 z m 91.95922,-22.19904 c 16.16447,-2.67887 18.60297,-4.2146 41.46446,-26.11368 7.68336,-7.35989 10.79778,-14.45119 10.79778,-24.58569 0,-4.6209 -0.55666,-5.69418 -4.51861,-8.71217 -2.48523,-1.89311 -6.04334,-5.03935 -7.90689,-6.99166 -3.05398,-3.19943 -8.29326,-6.35146 -24.18315,-14.54896 -5.5031,-2.83902 -4.99093,-2.87943 -19.55914,1.54293 -5.46927,1.66026 -7.27997,1.43845 -9.65177,-1.18235 -1.4125,-1.5608 -1.98485,-3.90322 -1.73169,-7.08706 l 0.37817,-4.75571 -5.78996,-0.37303 c -8.581,-0.55285 -15.35748,1.60561 -16.25389,5.1772 -0.48104,1.91659 -2.36289,3.58178 -5.43857,4.81243 -2.58666,1.03498 -5.32064,2.62594 -6.07549,3.53549 -2.16714,2.61124 -4.99792,18.49988 -3.95486,22.19783 0.51258,1.81723 0.36924,5.42239 -0.31851,8.01147 -3.23201,12.16678 1.83411,26.67943 14.62393,41.89236 8.44756,10.048 14.23623,11.13846 38.11819,7.1806 z M 280.3858,803.18058 c 1.00593,-1.62762 -3.36189,-7.36876 -12.69464,-16.68605 -7.49112,-7.47869 -14.34905,-16.54439 -18.17363,-24.0242 -2.33588,-4.56836 -8.63321,-14.63261 -14.42347,-23.05132 -1.99337,-2.89822 -5.98446,-9.89491 -8.86911,-15.54819 -2.88466,-5.65329 -6.36961,-11.87894 -7.74436,-13.83477 -1.37475,-1.95584 -3.61009,-6.05196 -4.96744,-9.10248 -1.35736,-3.05051 -4.21873,-7.71833 -6.35862,-10.37292 -4.07897,-5.06008 -5.83034,-9.5813 -4.52784,-11.6888 1.3391,-2.1667 3.71925,-0.28069 9.37633,7.42981 3.01986,4.11602 7.7092,10.16886 10.42077,13.45078 2.71158,3.28193 6.73318,8.63412 8.93689,11.89374 13.01112,19.24544 16.11897,24.12075 21.00778,32.95512 7.6537,13.83069 15.48992,24.42088 25.92113,35.03085 l 9.02951,9.18424 2.8478,-2.95967 c 1.56629,-1.62782 4.07669,-6.56483 5.57867,-10.97114 3.75447,-11.0143 4.47074,-20.4261 2.12098,-27.86954 -1.04611,-3.31383 -2.23303,-8.01133 -2.63758,-10.4389 -0.98074,-5.88517 -9.38077,-23.08354 -13.84602,-28.34862 -6.16711,-7.27177 -13.49019,-17.59924 -15.66044,-22.08535 -1.14783,-2.37263 -4.24183,-7.36439 -6.87558,-11.0928 -2.63376,-3.72841 -6.52591,-10.14613 -8.64924,-14.26159 -2.45699,-4.76215 -7.62963,-11.23211 -14.22719,-17.79539 l -10.36658,-10.31273 -13.91541,-1.16458 c -18.09079,-1.51402 -24.43476,0.17164 -35.20212,9.35359 -8.98636,7.66319 -12.35174,12.42792 -16.12743,22.83333 -2.55269,7.03497 -2.74196,9.09977 -2.03354,22.1856 1.28029,23.6496 2.95727,29.235 13.58356,45.24205 4.39002,6.61297 8.50954,11.17407 12.50875,13.84958 3.27964,2.19413 6.66038,5.10598 7.51271,6.4708 0.85235,1.36482 2.05713,2.48149 2.67732,2.48149 0.62017,0 6.85518,5.7463 13.85555,12.76956 7.00037,7.02326 14.2185,13.71999 16.04029,14.88161 3.88001,2.47403 13.73834,5.43344 22.86473,6.86384 4.72919,0.74123 7.83893,2.19523 11.62366,5.43481 5.21922,4.46747 16.23704,10.58405 19.06508,10.58405 0.84373,0 1.89166,-0.57862 2.32873,-1.28581 z m -69.70504,-66.13353 c -2.25257,-2.57613 -5.52365,-5.56502 -7.26907,-6.64197 -5.21529,-3.21793 -14.88256,-13.68688 -14.88256,-16.11671 0,-3.66139 3.20073,-2.65778 13.15244,4.12407 12.4325,8.47242 19.10971,15.45565 18.63793,19.49206 -0.58352,4.99217 -4.85618,4.61208 -9.63874,-0.85745 z m 35.0075,-22.26751 c -0.76241,-0.49741 -2.56499,-3.11471 -4.00573,-5.81625 -3.26649,-6.12497 -3.53923,-18.48068 -0.57909,-26.23176 1.7613,-4.61185 2.47797,-5.29202 5.23827,-4.97134 3.19287,0.37094 3.19715,0.38718 2.75814,10.47104 -0.25369,5.82711 0.24436,12.7685 1.17729,16.40866 1.98951,7.76265 -0.34058,12.91126 -4.58888,10.13965 z m 166.496,79.90699 c 0.39163,-0.63367 -0.47236,-3.58999 -1.91995,-6.5696 -2.33001,-4.79587 -3.39894,-5.65363 -9.31587,-7.47562 -15.69214,-4.83202 -15.16466,-1.08249 1.42525,10.13128 7.94756,5.37208 8.71915,5.67991 9.81057,3.91394 z M 195.92433,772.50761 c 0,-1.62406 -13.13726,-14.56742 -20.72987,-20.4239 -3.51541,-2.71156 -7.91562,-7.09902 -9.77823,-9.7499 -14.85853,-21.14659 -20.75147,-38.80694 -20.18923,-60.5045 0.51686,-19.94654 6.56654,-34.5043 18.97484,-45.66042 7.82666,-7.03685 6.85737,-8.40012 -5.52785,-7.77469 -6.55973,0.33125 -10.08913,1.14793 -12.59029,2.91328 -1.91147,1.34916 -4.97188,3.28497 -6.80089,4.30182 -5.95595,3.3112 -15.41433,12.10531 -17.49721,16.2684 -3.96615,7.92718 -5.10138,15.26609 -4.18113,27.0296 1.25197,16.00408 6.58184,27.45958 23.80236,51.15854 2.52994,3.48172 9.59165,11.76283 15.69269,18.40249 6.10105,6.63965 13.34878,14.53863 16.10606,17.55332 3.62147,3.95953 6.35887,5.74035 9.86026,6.41457 7.04342,1.3563 12.85849,1.38857 12.85849,0.0714 z m 305.05204,-58.01617 c -0.41896,-0.6779 -1.00634,-1.23253 -1.30528,-1.23253 -0.29894,0 -0.54352,0.55463 -0.54352,1.23253 0,0.67789 0.58737,1.23253 1.30528,1.23253 0.7179,0 0.96248,-0.55464 0.54352,-1.23253 z m -42.88813,-27.85101 c 4.57254,-2.88123 5.53482,-14.23557 1.27597,-15.05575 -1.57555,-0.30342 -2.14278,0.40578 -2.14278,2.67911 0,2.20128 -1.4124,4.09104 -4.90382,6.56118 -9.28559,6.56946 -3.95364,11.94283 5.77063,5.81546 z"
       id="path4405"
       inkscape:connector-curvature="0" />
  </g>
</svg>
