<?xml version="1.0" encoding="UTF-8" standalone="no"?>
<!-- Created with Inkscape (http://www.inkscape.org/) -->

<svg
   xmlns:dc="http://purl.org/dc/elements/1.1/"
   xmlns:cc="http://creativecommons.org/ns#"
   xmlns:rdf="http://www.w3.org/1999/02/22-rdf-syntax-ns#"
   xmlns:svg="http://www.w3.org/2000/svg"
   xmlns="http://www.w3.org/2000/svg"
   xmlns:sodipodi="http://sodipodi.sourceforge.net/DTD/sodipodi-0.dtd"
   xmlns:inkscape="http://www.inkscape.org/namespaces/inkscape"
   width="512"
   height="512"
   id="svg2"
   version="1.1"
   inkscape:version="0.48.4 r9939"
   sodipodi:docname="2.svg">
  <defs
     id="defs4" />
  <sodipodi:namedview
     id="base"
     pagecolor="#ffffff"
     bordercolor="#666666"
     borderopacity="1.0"
     inkscape:pageopacity="0.0"
     inkscape:pageshadow="2"
     inkscape:zoom="1.1074219"
     inkscape:cx="36.571437"
     inkscape:cy="256"
     inkscape:document-units="px"
     inkscape:current-layer="layer1"
     showgrid="false"
     inkscape:window-width="1276"
     inkscape:window-height="782"
     inkscape:window-x="0"
     inkscape:window-y="14"
     inkscape:window-maximized="0" />
  <metadata
     id="metadata7">
    <rdf:RDF>
      <cc:Work
         rdf:about="">
        <dc:format>image/svg+xml</dc:format>
        <dc:type
           rdf:resource="http://purl.org/dc/dcmitype/StillImage" />
        <dc:title />
      </cc:Work>
    </rdf:RDF>
  </metadata>
  <g
     inkscape:label="Layer 1"
     inkscape:groupmode="layer"
     id="layer1"
     transform="translate(0,-540.36218)">
    <path
       style="color:#000000;fill:#ffdd55;fill-opacity:1;stroke:none;stroke-width:1;marker:none;visibility:visible;display:inline;overflow:visible;enable-background:accumulate"
       d="m 0,540.36218 512,0 0,512.00002 -512,0 z"
       id="rect3068"
       inkscape:connector-curvature="0" />
    <path
       style="fill:#000000"
       d="m 261.00303,1050.0572 c -1.11065,-1.3383 -3.2616,-7.3831 -4.77984,-13.4328 -1.51828,-6.0498 -4.26808,-13.1447 -6.11065,-15.7663 -3.06538,-4.3613 -4.30087,-4.7664 -14.53643,-4.7664 -8.6275,0 -13.65559,-1.1321 -21.98121,-4.9493 -12.01819,-5.51 -30.69098,-21.72301 -38.51923,-33.44499 -7.8752,-11.79226 -11.55756,-15.33723 -15.93173,-15.33723 -4.18896,0 -33.50841,13.62729 -38.46984,17.88027 -1.54245,1.3222 -6.13438,4.2319 -10.20431,6.46602 -6.62476,3.63654 -7.67615,3.78573 -10.03754,1.42432 -3.912816,-3.91281 -0.760056,-10.36065 8.19904,-16.76821 4.12779,-2.9522 8.67504,-6.47956 10.10499,-7.83859 1.42995,-1.35901 6.72073,-4.54305 11.75728,-7.07562 5.03654,-2.53257 13.50821,-7.38789 18.82593,-10.78959 l 9.66854,-6.18491 -1.15104,-7.18952 c -0.63308,-3.95424 -1.55473,-10.69942 -2.04814,-14.98927 -1.19756,-10.412 -4.53791,-22.45459 -6.73397,-24.27716 -0.97742,-0.81119 -9.17393,-2.77857 -18.21446,-4.37193 -18.64447,-3.28602 -37.185186,-2.54283 -48.387886,1.93961 -7.859074,3.14457 -14.757858,2.23671 -16.446703,-2.1644 -1.467057,-3.82309 -0.524824,-4.52166 13.601743,-10.08434 11.05118,-4.35164 14.10411,-4.74885 38.504996,-5.00965 15.16137,-0.16206 27.25264,-1.03374 28.25593,-2.03702 0.96458,-0.96459 2.20112,-8.75246 2.74784,-17.30641 0.54674,-8.55393 1.8978,-18.59363 3.00235,-22.31046 l 2.00825,-6.75785 -8.55476,-7.74513 c -4.70512,-4.25981 -13.25299,-10.08951 -18.99528,-12.95489 -5.74227,-2.86539 -13.98868,-6.98993 -18.32531,-9.16562 -9.627446,-4.83014 -12.487886,-8.06565 -11.747566,-13.28794 0.50124,-3.53586 1.3625,-3.92429 7.490196,-3.378 3.8081,0.3395 8.87791,1.99318 11.26627,3.67489 2.38834,1.6817 10.39666,5.84241 17.79626,9.24598 7.39962,3.4036 15.77901,7.84399 18.62086,9.86757 2.84185,2.02357 5.96344,3.187 6.93688,2.5854 3.05027,-1.88518 8.14379,-13.4689 10.21193,-23.22405 1.38219,-6.51957 3.85428,-11.43426 8.13457,-16.17202 3.38192,-3.74337 7.62658,-10.25335 9.4326,-14.46663 1.80603,-4.21328 4.11585,-7.6605 5.13295,-7.6605 4.31292,0 3.2996,-5.39795 -2.41992,-12.89094 -6.51124,-8.53016 -12.09135,-19.84009 -13.93881,-28.25153 -1.78554,-8.12952 2.11655,-27.34574 7.95858,-39.19274 l 5.37593,-10.90184 -5.2516,-14.6127 c -2.88838,-8.03698 -6.54629,-19.29254 -8.12865,-25.01234 -1.58238,-5.7198 -4.89389,-15.27446 -7.3589,-21.23259 -4.25523,-10.2852 -4.77978,-10.83295 -10.37437,-10.83295 -7.67474,0 -15.55605,-4.15912 -17.10015,-9.02404 -2.28034,-7.18478 -1.24369,-16.63874 2.48629,-22.67394 3.38679,-5.47996 4.58462,-6.08496 13.6692,-6.90415 8.70473,-0.78492 10.47282,-0.40017 14.05702,3.05878 3.63411,3.50713 4.14212,5.7016 4.47182,19.31665 0.27823,11.48983 1.56894,18.85388 5.12257,29.22624 10.17067,29.68633 18.59943,48.44983 22.42335,49.9172 1.34171,0.51487 10.14355,-0.61171 19.55966,-2.5035 21.6556,-4.35084 44.75829,-3.39641 63.74647,2.63345 14.15311,4.49446 16.63816,3.84892 16.63816,-4.32208 0,-2.59225 1.10944,-9.26101 2.46541,-14.81947 3.366,-13.79812 5.26235,-47.84799 2.90962,-52.24411 -1.33868,-2.50136 -1.15637,-5.69739 0.67716,-11.87155 3.77698,-12.71851 6.27342,-15.30328 14.57018,-15.08573 5.84501,0.15322 8.30608,1.41902 14.18022,7.29317 6.0777,6.07774 7.12427,8.20223 7.22191,14.6604 0.14127,9.3431 -5.46269,17.64781 -13.75534,20.38463 -7.31436,2.41396 -10.72873,8.84403 -12.67629,23.8725 -0.82329,6.35291 -2.29458,15.0606 -3.26955,19.35045 -0.975,4.28987 -1.80669,11.16306 -1.8482,15.27378 -0.0817,8.08188 4.60692,24.5915 6.98372,24.5915 0.80321,0 3.10999,5.53914 5.12622,12.30921 3.32875,11.17738 3.47216,13.44849 1.55957,24.69915 -1.2695,7.46777 -4.48652,16.8962 -8.09784,23.73304 -5.85939,11.0929 -5.93119,11.47523 -3.25431,17.33272 1.50552,3.29429 3.48347,7.15956 4.39548,8.58952 0.91202,1.42995 2.7827,4.93982 4.15708,7.79973 1.37437,2.85989 5.03431,9.76223 8.13319,15.33854 3.09892,5.5763 6.55946,13.76512 7.69012,18.19734 1.29193,5.06435 3.13511,8.26648 4.96066,8.61804 1.59769,0.3077 8.56671,-4.03617 15.48672,-9.65302 18.3178,-14.86824 30.68731,-23.69858 39.48169,-28.18514 4.26461,-2.17565 8.61314,-5.13086 9.66336,-6.56712 2.15423,-2.94609 5.02687,-1.75576 7.66671,3.17685 1.49074,2.78543 0.56773,4.51256 -5.62381,10.52363 -4.07396,3.95526 -12.47704,10.52543 -18.6735,14.60043 -6.19645,4.075 -17.43178,13.74147 -24.9674,21.48102 l -13.70115,14.07194 2.09525,9.93067 c 1.15239,5.46185 2.95847,12.27056 4.01351,15.13046 1.05506,2.8599 1.98786,9.48587 2.07291,14.72437 l 0.15461,9.52456 9.53301,1.28798 c 5.24314,0.7084 22.95792,0.39714 39.36617,-0.6917 23.94737,-1.58909 30.35909,-1.54319 32.49887,0.23264 10.98404,9.11597 -9.825,15.19066 -63.46531,18.52721 l -16.73272,1.04081 -2.05798,14.07579 c -2.63747,18.03944 -5.11776,23.77443 -12.8243,29.65249 -8.12754,6.19917 -8.3354,11.77913 -0.61724,16.56961 7.82921,4.85945 28.32256,14.5895 37.83267,17.9626 9.69701,3.43941 18.93202,12.07069 18.93202,17.69441 0,3.15145 -0.94272,4.12751 -3.98653,4.12751 -2.19259,0 -4.7275,-0.6722 -5.63313,-1.49379 -0.90564,-0.82159 -4.76651,-2.33376 -8.57972,-3.36042 -12.32969,-3.31957 -27.51542,-8.90109 -36.73918,-13.50353 -8.82471,-4.40329 -12.65909,-4.41838 -12.65909,-0.0499 0,1.20291 -4.87483,7.11605 -10.83295,13.14033 -10.63046,10.74844 -16.73213,13.89044 -32.49887,16.73504 -15.30737,2.7616 -23.00382,5.0763 -23.80285,7.1585 -0.50407,1.3136 0.0535,8.0584 1.23885,14.9886 1.89174,11.0593 1.80805,13.2719 -0.68438,18.0917 -3.05296,5.9039 -6.31615,6.9492 -9.54541,3.0583 z m -14.85392,-55.72664 c 4.36599,-1.48229 12.38796,-2.53595 17.82662,-2.34144 10.4468,0.37359 27.15463,-2.48363 35.94322,-6.14671 7.02775,-2.92916 22.10715,-18.04617 25.02283,-25.08525 4.46185,-10.77183 -3.68695,-9.76033 -22.69225,2.81678 -3.71804,2.46048 -8.77151,4.16401 -12.17167,4.10306 -3.19771,-0.0574 -9.92914,-0.18355 -14.95871,-0.28048 -6.18065,-0.11903 -10.67505,0.84295 -13.86618,2.96823 -3.39118,2.25846 -8.38427,3.2161 -17.72105,3.39877 -11.33925,0.22185 -13.6253,-0.26876 -17.89905,-3.84122 -2.69469,-2.25257 -6.86668,-4.09556 -9.27104,-4.09556 -2.40436,0 -7.04755,-1.26986 -10.31822,-2.82187 -5.56678,-2.64162 -6.16481,-2.62447 -9.36162,0.26863 -4.71969,4.27125 -4.20092,7.6159 2.28323,14.72074 16.461,18.03679 29.19218,22.44466 47.18389,16.33632 z m 62.38053,-54.50292 c 2.85991,-1.89404 6.64245,-3.44886 8.40563,-3.45513 1.76319,-0.008 8.16666,-3.21966 14.22987,-7.14082 7.89502,-5.10582 11.52126,-8.67258 12.77577,-12.56623 2.55226,-7.92158 2.65568,-41.61791 0.1709,-55.70174 -2.53058,-14.34363 -9.80358,-36.32504 -14.07351,-42.53482 -1.66511,-2.42156 -4.69539,-9.35399 -6.73397,-15.40541 -3.74948,-11.13024 -5.10167,-14.0182 -15.16383,-32.38688 -7.51599,-13.72064 -11.91569,-18.62626 -15.65044,-17.45012 -6.00367,1.89072 -15.20418,5.57092 -17.32596,6.93041 -2.48817,1.59427 -2.92882,9.17432 -0.61639,10.60349 0.85259,0.52693 1.98291,3.88783 2.51182,7.46869 0.5289,3.58085 1.76178,10.80049 2.73974,16.04364 0.97798,5.24315 2.30273,15.22179 2.94389,22.17472 0.93185,10.10513 1.92865,13.24178 4.96779,15.63238 5.65957,4.4518 8.20696,10.29516 9.56245,21.93471 1.19715,10.28013 3.23799,19.73398 7.77499,36.01651 2.7356,9.8176 1.83492,14.51745 -3.02571,15.78853 -7.4473,1.94753 -12.69694,-3.95597 -14.87779,-16.73083 -1.39984,-8.20001 -4.106,-9.0367 -5.62298,-1.7385 -2.30587,11.09363 -17.55095,37.18884 -24.0854,41.22735 -0.97445,0.60225 -1.77172,2.16281 -1.77172,3.46789 0,1.59311 3.27521,2.77007 9.96632,3.58152 5.48147,0.66475 11.42617,1.96906 13.21045,2.89847 2.9217,1.52193 15.19814,4.09822 21.88833,4.59342 1.42995,0.106 4.93982,-1.35722 7.79973,-3.25125 z m 10.99142,-66.77273 c -5.59789,-3.04047 -12.56625,-13.81207 -11.21436,-17.33499 1.52036,-3.96201 5.64583,-3.07414 15.75054,3.38977 8.93409,5.71508 12.76637,11.1404 10.48109,14.83806 -1.55193,2.51107 -9.63505,2.0305 -15.01727,-0.89284 z m -96.07722,57.78617 c 14.79644,-3.70334 33.47359,-24.21418 40.98111,-45.00456 6.99461,-19.36995 7.23938,-44.33811 0.68606,-69.97764 -2.43101,-9.51115 -4.07143,-19.19269 -3.6454,-21.51458 0.42604,-2.32186 -1.0217,-9.73161 -3.21721,-16.46609 l -3.99177,-12.24448 -9.26223,0 -9.26221,0 0.12688,9.53298 c 0.0699,5.24316 0.39026,17.35468 0.71219,26.91451 0.41931,12.45173 -0.1083,18.80617 -1.86014,22.40456 -6.60637,13.56963 -11.11862,3.70082 -16.91672,-36.99887 -4.10618,-28.82327 -4.94235,-32.25282 -7.86371,-32.25282 -5.31388,0 -19.83973,18.21153 -24.38087,30.56711 -2.22996,6.06728 -6.02119,15.71126 -8.42494,21.43108 -8.98502,21.38002 -12.82189,72.70815 -6.71964,89.89301 3.22627,9.08568 15.46776,24.69774 23.47206,29.93488 12.20133,7.98318 12.58222,8.03188 29.56654,3.78091 z m 15.49212,-49.02352 c -1.99867,-1.39994 -5.80307,-7.64902 -8.45418,-13.88683 -4.03343,-9.49031 -4.49948,-12.04541 -2.85528,-15.65403 1.42819,-3.13453 3.32204,-4.31251 6.93326,-4.31251 6.59033,0 10.14529,4.36938 11.28157,13.86618 0.51329,4.28985 1.47481,10.42104 2.13673,13.62489 0.85187,4.12321 0.50476,6.2677 -1.18801,7.33984 -3.201,2.02743 -3.64228,1.97251 -7.85409,-0.97754 z m -54.91308,-24.60927 c -2.36904,-2.36905 -1.03001,-15.49513 2.10522,-20.6365 1.78627,-2.92927 4.49514,-9.61674 6.0197,-14.86106 3.95256,-13.59638 11.02469,-19.27919 14.92441,-11.9925 3.37311,6.30275 1.91686,15.55436 -4.45823,28.3229 -8.49275,17.00995 -14.52703,23.23124 -18.5911,19.16716 z m 86.22835,-114.12932 c 18.69254,-5.67052 31.99472,-17.10477 37.24577,-32.01558 3.8654,-10.97624 3.20292,-13.89394 -3.1547,-13.89394 -2.5757,0 -6.17271,-1.08923 -7.99331,-2.4205 -2.9548,-2.16059 -3.11823,-3.35786 -1.52198,-11.15018 1.85922,-9.07617 0.43426,-14.33909 -5.82025,-21.4964 -3.05676,-3.498 -28.76106,-11.73129 -36.62504,-11.73129 -9.92109,0 -37.4212,5.43559 -39.9527,7.8969 -2.18129,2.12084 -2.11806,3.24354 0.4906,8.71398 2.84663,5.96945 2.84188,6.59158 -0.096,12.60034 -1.86511,3.81464 -5.29515,7.29154 -8.65075,8.76894 -6.46158,2.84492 -6.95432,4.4283 -5.64373,18.13591 0.85317,8.92361 1.69052,10.75971 6.72101,14.73746 3.16053,2.49911 9.36201,8.13734 13.78107,12.52942 4.41904,4.39207 9.59457,8.8532 11.50117,9.91362 5.0239,2.79418 29.77679,2.42732 39.71887,-0.58868 z"
       id="path3141"
       inkscape:connector-curvature="0" />
    <path
       style="fill:#000000"
       d=""
       id="path3133"
       inkscape:connector-curvature="0" />
  </g>
</svg>
