<?xml version="1.0" encoding="UTF-8" standalone="no"?>
<!-- Created with Inkscape (http://www.inkscape.org/) -->

<svg
   xmlns:dc="http://purl.org/dc/elements/1.1/"
   xmlns:cc="http://creativecommons.org/ns#"
   xmlns:rdf="http://www.w3.org/1999/02/22-rdf-syntax-ns#"
   xmlns:svg="http://www.w3.org/2000/svg"
   xmlns="http://www.w3.org/2000/svg"
   xmlns:sodipodi="http://sodipodi.sourceforge.net/DTD/sodipodi-0.dtd"
   xmlns:inkscape="http://www.inkscape.org/namespaces/inkscape"
   width="512"
   height="512"
   id="svg2"
   version="1.1"
   inkscape:version="0.48.4 r9939"
   sodipodi:docname="20.svg">
  <defs
     id="defs4" />
  <sodipodi:namedview
     id="base"
     pagecolor="#ffffff"
     bordercolor="#666666"
     borderopacity="1.0"
     inkscape:pageopacity="0.0"
     inkscape:pageshadow="2"
     inkscape:zoom="1.1074219"
     inkscape:cx="146.28572"
     inkscape:cy="256"
     inkscape:document-units="px"
     inkscape:current-layer="layer1"
     showgrid="false"
     inkscape:window-width="1276"
     inkscape:window-height="782"
     inkscape:window-x="0"
     inkscape:window-y="14"
     inkscape:window-maximized="0" />
  <metadata
     id="metadata7">
    <rdf:RDF>
      <cc:Work
         rdf:about="">
        <dc:format>image/svg+xml</dc:format>
        <dc:type
           rdf:resource="http://purl.org/dc/dcmitype/StillImage" />
        <dc:title />
      </cc:Work>
    </rdf:RDF>
  </metadata>
  <g
     inkscape:label="Layer 1"
     inkscape:groupmode="layer"
     id="layer1"
     transform="translate(0,-540.36218)">
    <path
       style="fill:#000000"
       d=""
       id="path3133"
       inkscape:connector-curvature="0" />
    <path
       style="fill:#000000"
       d="m 75.948011,942.80712 c -4.45701,-4.457 -4.58223,-6.27524 -0.92289,-13.4022 1.53831,-2.99608 4.2703,-11.34801 6.07108,-18.55987 3.35856,-13.4504 7.66349,-19.03269 20.568349,-26.67145 3.22651,-1.90988 7.29981,-4.53069 9.05176,-5.82404 2.52128,-1.86128 6.09597,-1.19698 17.14706,3.18649 7.67894,3.04591 15.32339,6.68669 16.98767,8.09061 1.66427,1.40393 6.37342,3.62683 10.46478,4.93977 12.35715,3.96554 17.7819,9.4488 17.74656,17.93801 -0.0482,11.58501 -1.04719,12.52872 -25.80616,24.37947 -9.09355,4.35257 -14.41685,5.75209 -18.65504,4.90444 -3.38997,-0.67799 -7.1777,-0.15089 -8.84198,1.23025 -1.67129,1.38705 -10.83029,2.64892 -21.501429,2.96234 -15.83614,0.46516 -19.14095,-0.005 -22.30976,-3.17382 z m 56.092179,-23.0347 c 3.49443,-0.53071 7.48577,-2.3292 8.86962,-3.99664 2.0661,-2.48951 1.6787,-3.92306 -2.16625,-8.01583 -2.57528,-2.74124 -6.28609,-4.9841 -8.24623,-4.9841 -1.96013,0 -4.12495,-0.90779 -4.81066,-2.0173 -2.17196,-3.51431 -14.36834,-2.18826 -19.90098,2.16371 -6.138079,4.82823 -7.272589,14.69617 -2.02708,17.6317 3.08662,1.72736 13.69121,1.4343 28.28158,-0.78154 z m 136.3509,-5.11491 c -4.72625,-2.33946 -10.50812,-6.94282 -12.84857,-10.2297 -4.89654,-6.87654 -4.52703,-11.92618 2.50259,-34.19968 5.49975,-17.426 4.4451,-18.66248 -14.34628,-16.8196 -7.21185,0.70727 -23.0981,1.98246 -35.30279,2.83376 -12.20467,0.85131 -24.52508,2.50784 -27.3787,3.68118 -6.23176,2.56235 -48.55551,3.67148 -57.98181,1.51945 -4.73929,-1.08198 -8.96957,-0.4965 -14.53027,2.01101 -6.65246,2.99985 -9.238149,3.18645 -17.015839,1.22801 -5.04424,-1.27015 -12.12241,-4.10868 -15.72929,-6.30782 -3.60685,-2.19914 -8.984682,-4.00184 -11.950738,-4.00598 -8.122042,-0.0121 -16.831804,-8.53766 -20.044418,-19.62223 -1.805788,-6.23061 -2.794972,-19.97392 -2.798906,-38.88708 -0.01003,-43.53871 2.222321,-48.28868 40.002072,-85.15289 8.76828,-8.55579 18.9325,-16.54283 22.587169,-17.74898 3.65464,-1.20613 7.11542,-3.41936 7.69062,-4.9183 0.57519,-1.49894 4.51355,-3.80929 8.75192,-5.13413 4.23837,-1.32486 15.87618,-6.32442 25.86184,-11.11013 9.98564,-4.78573 21.33296,-9.32897 25.21627,-10.09607 3.88331,-0.76712 9.33002,-2.84206 12.10382,-4.61097 2.77378,-1.76889 9.12829,-3.95301 14.12111,-4.85359 45.40698,-8.19021 65.23585,-7.62378 95.82185,2.73715 3.32854,1.12754 9.68304,2.9331 14.12111,4.01238 4.43806,1.07926 9.88478,3.54519 12.10381,5.47979 2.21903,1.93464 7.92814,6.00065 12.68689,9.0356 10.24152,6.53167 15.52837,14.449 19.74166,29.56425 6.86165,24.61613 12.96361,36.31144 18.94531,36.31144 1.07248,0 6.48161,-4.02474 12.0203,-8.94387 18.21807,-16.18023 26.77976,-19.99596 47.04023,-20.96463 l 17.92,-0.85676 8.84849,9.50179 c 4.86666,5.22598 10.38437,13.73679 12.26155,18.91291 7.88763,21.74914 20.03553,43.30225 36.63168,64.99275 3.60593,4.7128 6.55623,10.57417 6.55623,13.0253 0,6.42064 -14.61242,22.08166 -25.53799,27.37067 -10.10448,4.89147 -25.47786,5.55021 -64.32304,2.75616 -10.06839,-0.72419 -21.39049,-0.44443 -25.26061,0.62415 -3.85757,1.06512 -9.0152,1.1962 -11.46143,0.29128 -2.71697,-1.00508 -8.05888,-0.55851 -13.72791,1.14763 -5.1041,1.53611 -18.18499,3.42424 -29.06861,4.19584 -10.88364,0.77162 -20.93162,2.10948 -22.32886,2.97302 -3.60865,2.23027 -0.91499,7.75655 4.84889,9.94796 5.22651,1.98712 15.38889,20.6862 15.38889,28.316 0,6.86244 -5.65579,15.85472 -12.05253,19.1626 -5.03765,2.60508 -34.22384,6.94108 -47.45788,7.05052 -2.21903,0.0181 -7.90155,-1.88073 -12.62783,-4.22019 z M 308.2525,893.8792 c 9.26192,-3.32905 9.94625,-8.72321 2.0646,-16.27432 -6.10672,-5.8506 -6.27731,-5.88419 -17.73209,-3.49111 -6.36135,1.32898 -12.70082,3.9562 -14.08772,5.83826 -2.68644,3.64557 -3.41442,13.18938 -1.17675,15.42704 2.23636,2.23638 23.39102,1.2106 30.93196,-1.49987 z M 110.31839,829.25628 c 4.33843,-7.68727 8.9469,-12.59386 15.35704,-16.35044 8.23396,-4.82543 10.73324,-5.28845 24.75788,-4.58678 18.38668,0.91992 25.91293,4.14891 32.08326,13.7647 2.49184,3.88331 5.72974,8.75312 7.19531,10.82178 3.41668,4.82274 20.58059,7.66052 31.05541,5.13449 4.29096,-1.03477 30.04254,-2.82441 57.22567,-3.977 54.89227,-2.32746 77.01116,-4.94217 83.02883,-9.81498 3.05112,-2.47068 4.51891,-7.3288 6.05629,-20.04536 2.32072,-19.19603 1.92137,-20.65712 -12.36831,-45.25229 -14.49017,-24.94027 -15.79159,-27.70753 -21.31887,-45.33089 -4.9448,-15.76631 -5.84166,-17.12853 -16.42302,-24.94545 -12.3176,-9.09955 -29.1633,-15.87065 -39.4843,-15.87065 -3.66415,0 -8.80438,-1.50051 -11.42271,-3.33445 -8.37534,-5.86633 -56.1652,-3.13342 -73.31807,4.19273 -3.59539,1.53563 -13.87365,5.07701 -22.84059,7.8697 -33.43722,10.41388 -59.24602,25.40199 -83.138539,48.28159 -8.03459,7.69396 -16.587327,20.80642 -17.80505,27.29744 -0.767611,4.09169 -3.049403,11.07977 -5.070655,15.52905 -4.22298,9.29583 -4.720365,22.43817 -1.540271,40.69958 2.57202,14.76963 9.683976,22.7232 20.626096,23.06691 3.52079,0.11057 8.6709,0.9279 11.44469,1.81622 8.679549,2.77968 9.547269,2.29037 15.899909,-8.9659 z m 47.5725,7.70598 c 1.81315,-0.69577 3.01599,-2.73944 2.673,-4.54149 -0.47853,-2.51421 -3.47762,-3.41423 -12.89148,-3.86873 -13.14353,-0.63457 -18.61891,2.39175 -16.11813,8.90867 1.05646,2.75313 3.14611,3.10471 12.15786,2.04554 5.98517,-0.70343 12.3656,-1.84823 14.17875,-2.54399 z m 324.41784,-18.58478 4.22201,-4.22202 -4.91676,-10.53221 c -2.70423,-5.79272 -8.20505,-14.51842 -12.22404,-19.39045 -8.49001,-10.29197 -10.25826,-13.52535 -15.99119,-29.24097 -5.83246,-15.98855 -15.25071,-25.70396 -24.91771,-25.70396 -8.22551,0 -24.39113,7.40075 -30.19492,13.8235 -2.60409,2.88182 -3.41653,5.91425 -2.6256,9.80022 0.62992,3.09495 2.42488,12.43556 3.98877,20.75692 3.13358,16.67345 5.5114,22.72681 14.51156,36.943 7.70599,12.17195 12.24065,13.57412 41.04081,12.6903 19.98718,-0.61341 23.41968,-1.23695 27.10707,-4.92433 z M 1.6443342,831.18783 c -3.574801,-4.30736 -0.89937397,-13.13867 3.980318,-13.13867 5.4284588,0 8.8836538,6.87343 6.0844458,12.10381 -2.5586048,4.78081 -6.6101748,5.19738 -10.0647638,1.03486 z"
       id="path5177"
       inkscape:connector-curvature="0" />
  </g>
</svg>
