<?xml version="1.0" encoding="UTF-8" standalone="no"?>
<!-- Created with Inkscape (http://www.inkscape.org/) -->

<svg
   xmlns:dc="http://purl.org/dc/elements/1.1/"
   xmlns:cc="http://creativecommons.org/ns#"
   xmlns:rdf="http://www.w3.org/1999/02/22-rdf-syntax-ns#"
   xmlns:svg="http://www.w3.org/2000/svg"
   xmlns="http://www.w3.org/2000/svg"
   xmlns:sodipodi="http://sodipodi.sourceforge.net/DTD/sodipodi-0.dtd"
   xmlns:inkscape="http://www.inkscape.org/namespaces/inkscape"
   width="512"
   height="512"
   id="svg2"
   version="1.1"
   inkscape:version="0.48.4 r9939"
   sodipodi:docname="3.svg">
  <defs
     id="defs4" />
  <sodipodi:namedview
     id="base"
     pagecolor="#ffffff"
     bordercolor="#666666"
     borderopacity="1.0"
     inkscape:pageopacity="0.0"
     inkscape:pageshadow="2"
     inkscape:zoom="1.1074219"
     inkscape:cx="146.28572"
     inkscape:cy="256"
     inkscape:document-units="px"
     inkscape:current-layer="layer1"
     showgrid="false"
     inkscape:window-width="1276"
     inkscape:window-height="782"
     inkscape:window-x="0"
     inkscape:window-y="14"
     inkscape:window-maximized="0" />
  <metadata
     id="metadata7">
    <rdf:RDF>
      <cc:Work
         rdf:about="">
        <dc:format>image/svg+xml</dc:format>
        <dc:type
           rdf:resource="http://purl.org/dc/dcmitype/StillImage" />
        <dc:title />
      </cc:Work>
    </rdf:RDF>
  </metadata>
  <g
     inkscape:label="Layer 1"
     inkscape:groupmode="layer"
     id="layer1"
     transform="translate(0,-540.36218)">
    <path
       style="fill:#000000"
       d=""
       id="path3133"
       inkscape:connector-curvature="0" />
    <path
       style="fill:#000000"
       d="m 191.60943,947.19774 c -0.93041,-1.73849 -2.3094,-9.1483 -3.0644,-16.46625 -1.66179,-16.10669 -2.92481,-17.45894 -15.13494,-16.20429 -5.10294,0.52435 -14.35022,-0.11748 -22.77791,-1.58109 -24.46557,-4.24871 -25.82218,-3.98538 -36.6916,7.12186 -5.15924,5.27211 -10.57132,12.00124 -12.02685,14.95361 -5.323718,10.79853 -11.214878,13.89312 -14.557678,7.64703 -2.792,-5.21692 -0.001,-13.44185 8.65474,-25.50635 4.544578,-6.33421 7.927608,-12.05921 7.517848,-12.72223 -0.40975,-0.66301 -3.936438,-2.09902 -7.837058,-3.19113 -6.19466,-1.73439 -7.63659,-1.66398 -11.39552,0.55648 -2.36691,1.39815 -5.23222,2.54292 -6.36737,2.54388 -3.353465,0.003 -59.090924,22.42697 -66.418752,26.72136 -3.7014056,2.16918 -7.8174246,3.52661 -9.1466956,3.01652 -3.594875,-1.37949 -2.968817,-8.74826 1.065236,-12.53806 3.354487,-3.15138 22.5035426,-12.60048 25.5354766,-12.60048 0.813014,0 9.370508,-3.72249 19.016618,-8.27222 9.646111,-4.54974 18.939717,-8.71702 20.652463,-9.26062 5.157542,-1.63694 5.13825,-5.17006 -0.07668,-14.0448 -7.308016,-12.43669 -8.343467,-14.52022 -10.983981,-22.10201 -1.322013,-3.79592 -3.775847,-9.14471 -5.45298,-11.88621 l -3.049342,-4.98454 -15.938654,0 c -17.531483,0 -20.53197,-1.34274 -18.761702,-8.39605 1.439492,-5.73536 6.434301,-8.12818 20.673971,-9.90398 7.072181,-0.88199 13.796358,-2.38192 14.942606,-3.33323 1.146249,-0.95129 2.81148,-4.58244 3.700542,-8.06921 3.090009,-12.11878 5.08637,-15.0868 17.431346,-25.91565 6.828327,-5.98973 12.603217,-11.32879 12.833097,-11.8646 0.22987,-0.5358 -3.63942,-5.06861 -8.59841,-10.07288 -5.001217,-5.04689 -12.852594,-15.65898 -17.630971,-23.83036 -4.738021,-8.10243 -9.713881,-15.64401 -11.057435,-16.75905 -7.430371,-6.16667 -11.387534,-25.38172 -7.584882,-36.83041 3.410057,-10.26675 10.346653,-19.3806 15.603258,-20.50087 2.371182,-0.50534 8.421654,-0.23741 13.445527,0.59539 7.938063,1.31588 9.544913,1.1564 12.269633,-1.21778 1.72443,-1.50257 6.04724,-4.67434 9.60621,-7.04837 6.07939,-4.05527 7.14643,-4.25769 17.637599,-3.34618 6.1417,0.53362 18.75857,1.49041 28.03748,2.12618 9.27892,0.6358 17.57173,1.59939 18.42848,2.14135 0.85675,0.54195 6.96572,1.73753 13.57547,2.65686 15.61923,2.17243 38.76504,10.18068 44.96393,15.5571 2.68608,2.32968 6.48199,4.72401 8.43537,5.32073 1.95339,0.59672 6.65737,2.48598 10.45329,4.19836 3.79591,1.71238 13.61825,5.40401 21.82742,8.20362 9.88632,3.37159 18.94835,7.84387 26.83983,13.24597 6.55273,4.48566 15.97921,10.48009 20.94769,13.32094 4.96848,2.84086 11.17997,7.0133 13.80333,9.2721 6.66911,5.74231 9.40031,6.40263 13.49065,3.26161 5.13056,-3.93982 17.192,-7.38342 30.26905,-8.64193 l 11.38328,-1.09553 9.34899,-9.40349 c 13.24696,-13.32418 28.42415,-31.60061 30.73413,-37.01017 4.09481,-9.5893 5.52779,-16.16454 4.60028,-21.10856 -0.70118,-3.73759 -0.20167,-6.04862 1.8568,-8.59071 2.52639,-3.11998 3.6506,-3.3669 10.93129,-2.40109 9.36894,1.24282 17.70764,6.20554 18.3937,10.94687 0.71081,4.91236 -5.09028,15.05557 -11.33434,19.81815 -3.03599,2.31567 -8.21114,8.17319 -11.50032,13.0167 -3.28916,4.84353 -7.37568,9.24928 -9.08115,9.79057 -1.70547,0.54128 -4.22258,3.17831 -5.59359,5.86002 -1.37101,2.68171 -4.85567,7.51178 -7.7437,10.73347 -10.09839,11.26514 -3.56799,14.08455 13.76949,5.94479 5.24539,-2.46268 12.29775,-5.31575 15.6719,-6.34021 3.37415,-1.02443 13.29892,-5.43319 22.05504,-9.79722 12.10164,-6.03144 16.25556,-8.88718 17.31833,-11.90595 0.76895,-2.18422 3.96801,-5.41569 7.10899,-7.18102 5.05131,-2.83899 6.93184,-3.05829 16.28192,-1.89872 13.20432,1.63755 18.34172,5.10123 18.99736,12.80809 0.36871,4.3342 -0.36742,6.36813 -3.2826,9.06981 -6.35175,5.8866 -18.56965,9.36015 -31.7802,9.03509 l -11.7759,-0.28973 -27.81398,13.33868 c -23.03326,11.04597 -27.814,13.89373 -27.814,16.56803 0,1.91273 3.7518,6.94203 9.20222,12.33558 5.06123,5.00842 9.20224,10.24195 9.20224,11.63009 0,1.38814 3.10574,8.77417 6.90167,16.41342 6.415,12.91012 6.90096,14.73627 6.89156,25.89765 -0.008,9.53898 -0.65224,12.95423 -3.13301,16.60924 -1.71758,2.53061 -4.0351,6.67162 -5.15002,9.20223 -3.49965,7.94335 -19.20184,21.86521 -31.58319,28.00227 -10.28172,5.09633 -12.99981,5.75967 -25.60522,6.249 -16.2623,0.63128 -27.34836,-1.34214 -37.63185,-6.69878 -3.99129,-2.07904 -8.22546,-3.78007 -9.40926,-3.78007 -2.47866,0 -7.1063,6.44333 -7.1063,9.89446 0,3.38481 14.86422,20.38503 33.92545,38.80055 9.11472,8.80596 16.98132,17.29978 17.48132,18.87518 1.92344,6.06017 -5.65979,13.30566 -12.05673,11.51973 -1.81939,-0.50795 -5.72356,-4.37799 -8.67595,-8.60011 -6.69542,-9.57491 -35.63158,-36.56395 -45.23738,-42.19331 -7.02759,-4.11845 -7.27515,-4.15055 -12.56303,-1.62892 -5.02922,2.39825 -5.34007,2.95806 -4.59449,8.27393 1.45582,10.37982 2.9374,14.86634 6.03448,18.27356 3.11014,3.42158 6.0405,14.78896 4.70772,18.26211 -2.18011,5.68131 -9.79963,3.22891 -13.74225,-4.42307 -1.39965,-2.71649 -3.77408,-5.80708 -5.27649,-6.86799 -1.50241,-1.06089 -3.5956,-5.78932 -4.65148,-10.50761 -1.05592,-4.71828 -2.92203,-8.96327 -4.1469,-9.43331 -1.22489,-0.47003 -6.44823,1.25043 -11.60744,3.82324 -5.15921,2.57281 -13.1763,5.49712 -17.81576,6.49846 -17.68517,3.81697 -16.1754,2.02324 -15.57737,18.50704 0.47221,13.01658 0.18401,14.94782 -2.79532,18.73065 -6.78421,8.61386 -15.03369,2.25199 -13.31735,-10.27014 0.57461,-4.19223 0.0387,-9.71827 -1.41846,-14.62488 -1.98685,-6.69039 -2.85216,-7.81398 -5.70522,-7.40796 -3.18326,0.453 -3.38671,1.33525 -3.80349,16.49392 -0.24217,8.80842 -1.1894,16.91788 -2.10492,18.02104 -2.43427,2.9331 -5.54302,2.4526 -7.47385,-1.15519 z m -13.13021,-51.93317 c 3.56907,-2.96207 4.44768,-10.09935 1.85937,-15.10456 -1.27225,-2.46027 -2.7563,-8.20453 -3.29788,-12.76501 -0.54159,-4.56048 -1.67371,-10.55075 -2.51582,-13.31171 -1.2632,-4.1415 -0.9715,-5.9684 1.66689,-10.44017 5.43504,-9.2117 4.13083,-16.20022 -3.71844,-19.92494 -2.77699,-1.31775 -5.43666,-3.87812 -5.91039,-5.68971 -0.47375,-1.81157 1.23255,-10.03355 3.79175,-18.27108 4.97134,-16.00171 4.83156,-19.63288 -0.60904,-15.82214 -4.6603,3.26419 -7.83717,2.89572 -13.08171,-1.51726 -2.50622,-2.10884 -5.52688,-3.83427 -6.71261,-3.83427 -1.1857,0 -2.81149,-0.64357 -3.61284,-1.43016 -0.80137,-0.78659 -4.90786,-1.6493 -9.12555,-1.91713 -7.31683,-0.46463 -7.69029,-0.29868 -8.14299,3.61849 -0.26096,2.25799 -1.46876,4.93062 -2.68398,5.93919 -3.04679,2.52859 -2.76894,5.42681 1.01031,10.53851 2.59134,3.50499 2.89071,4.96999 1.53371,7.50559 -0.92738,1.73279 -1.68613,5.47347 -1.68613,8.31259 0,2.83914 -0.74889,5.91094 -1.66423,6.82628 -1.19648,1.19649 -0.98095,2.98548 0.76686,6.3654 1.3371,2.58564 2.43107,5.68619 2.43107,6.8901 0,1.20389 1.06257,3.07077 2.36125,4.14857 1.95058,1.61885 2.17945,4.25217 1.31602,15.14141 -0.57484,7.24998 -1.9825,14.54312 -3.12808,16.20701 -2.29683,3.33597 -2.88551,17.67977 -0.72558,17.67977 0.74652,0 2.48786,-1.72542 3.86962,-3.83427 5.05883,-7.72074 13.72038,-2.53338 12.88124,7.71452 -0.45029,5.49911 -0.20627,5.8284 5.66425,7.6432 7.46463,2.3076 24.373,1.89618 27.46293,-0.66822 z m 29.79286,-4.71426 c 0.67999,-7.16661 2.8833,-9.45752 8.56288,-8.90328 4.07945,0.3981 5.01609,1.36032 6.7944,6.98 2.17196,6.86358 4.35963,7.8582 11.28509,5.13079 1.93765,-0.7631 7.50017,-2.25574 12.36115,-3.31701 4.86099,-1.06126 9.47801,-2.70053 10.26003,-3.6428 1.80106,-2.17016 2.40141,-16.80224 0.979,-23.86054 -3.82068,-18.95913 -6.01612,-25.28434 -10.24315,-29.51137 -2.93007,-2.9301 -4.46607,-6.03486 -4.46607,-9.02747 0,-3.75844 -0.93963,-4.95401 -5.33784,-6.7917 -9.74993,-4.07377 -12.13986,-12.18746 -5.73731,-19.47788 1.30094,-1.48135 1.8523,-3.20643 1.22523,-3.83352 -0.62708,-0.62707 -8.29414,-1.21328 -17.03793,-1.30268 -17.18929,-0.17578 -18.5314,0.47566 -16.62544,8.06963 0.54283,2.16283 0.0442,5.54436 -1.14527,7.76694 -1.8915,3.53431 -1.80413,4.1097 0.8555,5.63322 6.5199,3.7348 9.67893,8.66674 10.67469,16.66541 1.55893,12.52274 0.97328,21.50207 -1.66615,25.5457 -1.87466,2.872 -2.22894,6.21352 -1.57519,14.85751 0.81287,10.74824 0.68133,11.32178 -3.63214,15.83543 -5.81475,6.08455 -5.91748,9.68193 -0.2579,9.03072 3.58502,-0.41248 4.29401,-1.2896 4.72642,-5.8471 z m -99.20028,-8.0581 c 0.12776,-1.05442 0.32434,-6.7483 0.4367,-12.65307 0.11241,-5.90476 0.4346,-11.4261 0.71608,-12.26964 0.28148,-0.84353 0.43005,-5.90276 0.33016,-11.24274 l -0.18163,-9.70903 -6.1011,-2.39658 c -3.35559,-1.31811 -6.511298,-3.68901 -7.012658,-5.26866 -1.12102,-3.53203 1.7424,-12.65689 4.756848,-15.15867 3.19616,-2.65257 2.73485,-9.73139 -0.84531,-12.97138 -3.461948,-3.13303 -3.913948,-7.96678 -1.284568,-13.73765 2.542538,-5.58023 0.816588,-6.27241 -6.75992,-2.71102 -8.77536,4.1249 -19.149807,15.48331 -20.151151,22.06238 -3.312746,21.76549 -1.871425,33.65486 6.073791,50.10256 3.12622,6.47169 6.64751,14.04895 7.82509,16.83835 1.49406,3.53903 4.09361,5.93952 8.60233,7.94361 7.594598,3.37574 13.268898,3.86471 13.595338,1.17154 z m 185.91574,-18.80443 c 5.98736,-2.50167 19.36828,-14.45699 19.36828,-17.30479 0,-0.95879 -2.02992,-4.05519 -4.51093,-6.88091 -6.8047,-7.75011 -12.15259,-24.00531 -12.29303,-37.36527 -0.0455,-4.3345 -0.83789,-6.65005 -2.4928,-7.2851 -1.33429,-0.51202 -9.30416,-0.93094 -17.71082,-0.93094 -14.52905,0 -15.46939,0.19914 -19.01713,4.02722 -3.87849,4.18495 -3.77066,6.70871 0.28665,6.70871 1.29892,0 4.71651,1.11745 7.59463,2.48319 5.86999,2.7855 7.9094,7.79072 5.22112,12.81386 -1.4108,2.63607 -1.28074,4.06458 0.63644,6.99055 1.32526,2.0226 2.40955,5.83824 2.40955,8.47921 0,2.64094 1.302,6.6337 2.89335,8.87275 1.59135,2.23905 3.62876,6.74076 4.52757,10.00382 1.31783,4.78411 5.57476,11.7048 7.19967,11.7048 0.18802,0 2.83737,-1.04268 5.88745,-2.3171 z m 93.76235,-13.88957 c 2.89302,-1.20877 6.62239,-2.19778 8.28746,-2.19778 5.10256,0 20.06211,-14.40423 24.2482,-23.34807 3.22287,-6.88588 3.6875,-9.72944 3.11527,-19.066 -1.24464,-20.30763 -16.33392,-44.83294 -31.03882,-50.44878 -5.62185,-2.14701 -7.77733,-2.25408 -14.06576,-0.69874 -17.44383,4.31447 -22.33521,1.47357 -16.12287,-9.36408 1.96531,-3.42854 3.15163,-6.65535 2.63627,-7.17072 -1.32392,-1.32392 -18.93101,1.89715 -25.53765,4.67192 -8.38189,3.52033 -20.29661,22.11502 -22.85354,35.6663 -2.19046,11.60892 -1.27362,34.74627 1.74837,44.12148 1.83109,5.68069 12.82051,16.60979 25.86298,25.72106 8.66732,6.05484 31.63028,7.16486 43.72009,2.11341 z m -91.76205,-76.71359 c 2.69499,-2.08971 2.68508,-2.25814 -0.26963,-4.58452 -2.23276,-1.75795 -4.95436,-2.17354 -10.00217,-1.52736 -4.61145,0.59034 -7.95134,0.19359 -9.96908,-1.18425 -1.66887,-1.1396 -6.36771,-3.18985 -10.44186,-4.55609 -4.07415,-1.36624 -9.86953,-4.64574 -12.87862,-7.28778 -6.70413,-5.8863 -15.59294,-9.88282 -32.55517,-14.63721 -14.11868,-3.95739 -17.62293,-6.2437 -16.01043,-10.44585 0.89783,-2.33973 2.25176,-2.578 9.64201,-1.69701 14.14294,1.686 32.90998,5.10617 37.41332,6.81834 2.32047,0.88224 8.64901,2.63145 14.06345,3.88715 5.41445,1.25568 13.41525,4.48021 17.77953,7.16557 11.20246,6.89295 24.46181,8.95409 24.46181,3.80256 0,-2.98803 -14.07457,-15.70101 -21.47186,-19.39466 -3.79593,-1.89538 -9.66234,-5.67979 -13.03649,-8.40978 -8.973,-7.25992 -47.94726,-25.27005 -54.68491,-25.27005 -2.10541,0 -5.44896,-1.72541 -7.43012,-3.83426 -1.98116,-2.10884 -4.55131,-3.83426 -5.71147,-3.83426 -3.10172,0 -11.38,-4.55728 -14.13484,-7.78137 -2.24281,-2.62486 -15.54227,-7.81417 -27.69853,-10.80768 -2.95238,-0.72702 -15.58635,-2.03435 -28.07551,-2.90517 -25.54224,-1.78097 -32.01128,-0.75192 -39.551298,6.29151 -6.9335,6.47685 -6.18657,12.78097 2.5662,21.65887 3.862918,3.91816 10.201438,8.61772 14.085568,10.44348 6.97546,3.27885 26.88601,22.09829 36.71788,34.70573 2.70279,3.46578 8.22413,8.20438 12.26964,10.53022 4.04552,2.3258 8.96051,5.68501 10.92221,7.46485 l 3.56671,3.2361 4.10181,-4.79644 c 6.75896,-7.9036 23.21932,-11.12772 28.72131,-5.62572 2.44407,2.44406 2.36043,2.8059 -1.3954,6.03653 -2.19744,1.89014 -7.1225,3.90559 -10.9446,4.47874 -3.8221,0.57315 -7.30843,1.62325 -7.7474,2.33352 -1.18118,1.9112 7.90439,6.27327 19.24031,9.23746 13.52707,3.53713 84.02398,3.92673 88.45763,0.48883 z m -92.06653,-64.24553 c -5.04004,-2.79159 -13.46246,-5.77375 -19.20505,-6.80001 -12.87109,-2.30019 -15.35307,-3.70224 -13.068,-7.38201 2.33992,-3.7681 19.62604,-4.56041 27.52155,-1.26146 3.11718,1.30244 7.56929,2.36807 9.89362,2.36807 2.32431,0 4.99249,0.92355 5.9293,2.05233 0.9368,1.12879 4.47213,2.88191 7.85631,3.89584 3.38417,1.01391 6.13122,2.33341 6.10456,2.9322 -0.0267,0.59878 -1.71897,2.98667 -3.7607,5.3064 -4.84148,5.50069 -9.80187,5.24154 -21.27159,-1.11136 z m -78.82772,50.34245 c 4.85034,-0.5291 8.8188,-1.59058 8.8188,-2.35885 0,-6.02465 -21.72103,-29.09691 -33.91177,-36.02138 -8.234838,-4.67747 -22.696758,-17.33387 -25.127478,-21.99043 -1.106637,-2.11996 -2.509762,-7.17337 -3.118057,-11.22982 -0.881848,-5.88062 -1.864665,-7.6638 -4.849383,-8.7986 -6.417835,-2.44005 -9.486137,-1.64296 -11.939716,3.10172 -5.654053,10.93375 -1.021124,27.33571 11.482364,40.65094 3.995858,4.25531 8.679642,10.53995 10.408412,13.96591 1.72876,3.42595 5.82096,8.0847 9.0938,10.35277 3.27283,2.26808 8.32892,6.59903 11.23575,9.62434 4.930138,5.13108 5.748738,5.43893 12.186798,4.58296 3.79593,-0.50466 10.87014,-1.35046 15.72048,-1.87956 z"
       id="path3215"
       inkscape:connector-curvature="0" />
  </g>
</svg>
